<?xml version="1.0" encoding="utf-8" ?>
<svg baseProfile="full" height="300mm" version="1.1" viewBox="0,0,200,300" width="200mm" xmlns="http://www.w3.org/2000/svg" xmlns:ev="http://www.w3.org/2001/xml-events" xmlns:xlink="http://www.w3.org/1999/xlink"><defs /><rect fill="#222222" height="300" width="200" x="0" y="0" /><text fill="#FFFFFF" style="font-size:12px; font-family:Arial; font-weight:bold;" x="10" y="20">Over 10km Runs</text><text fill="#FFFFFF" style="font-size:4px; font-family:Arial" x="10" y="280">ATHLETE</text><text fill="#FFFFFF" style="font-size:9px; font-family:Arial" x="10" y="290">peiming</text><text fill="#FFFFFF" style="font-size:4px; font-family:Arial" x="120" y="280">STATISTICS</text><text fill="#FFFFFF" style="font-size:3px; font-family:Arial" x="120" y="285">Number: 3</text><text fill="#FFFFFF" style="font-size:3px; font-family:Arial" x="120" y="290">Weekly: 1.0</text><text fill="#FFFFFF" style="font-size:3px; font-family:Arial" x="141" y="285">Total: 32.4 km</text><text fill="#FFFFFF" style="font-size:3px; font-family:Arial" x="141" y="290">Avg: 10.8 km</text><text fill="#FFFFFF" style="font-size:3px; font-family:Arial" x="167" y="285">Min: 10.2 km</text><text fill="#FFFFFF" style="font-size:3px; font-family:Arial" x="167" y="290">Max: 11.9 km</text><polyline fill="none" points="20.65400410676375,93.51014195207972 20.82032854249701,94.77113578934222 21.90143737150356,97.92361477483064 22.73305954877287,99.27467474481091 23.897330595180392,99.81509832071606 28.720739219803363,100.62573324330151 30.799794661346823,100.62573324330151 35.95585215603933,99.72502774104942 37.535934291314334,99.72502774104942 40.862422998063266,100.26545112102758 42.6919917864725,100.17538057407364 44.85420944541693,99.54488656227477 48.34702258743346,97.6534026041627 49.6776180700399,97.2931196183199 50.75872689904645,97.38319037482142 51.59034907631576,97.74347333423793 52.67145790532231,98.82432158477604 55.16632443573326,103.05763483338524 56.24743326473981,104.31861896603368 58.2433264888823,105.66967197170015 60.65503080096096,106.12002264673356 66.72587268985808,106.12002264673356 72.29774127341807,104.85904034471605 73.21252566762269,104.49875945178792 76.70533880917355,102.15693109668791 81.36242299806327,99.72502774104942 82.94250513380393,99.45481596305035 87.26694045169279,99.54488656227477 90.09445585217327,99.27467474481091 93.4209445589222,97.6534026041627 94.16940451739356,97.11297808645759 94.75154004152864,96.12219919252675 95.1673511294648,94.95127766137011 95.08418891159818,94.05056803917978 93.83675564732403,91.25836405449081 93.17145790578797,88.91651070525404 92.09034907631576,84.68314920109697 90.75975359370932,77.83768300910015 90.09445585217327,76.48659969156142 87.76591375749558,74.14471845549997 86.2689938400872,72.07305059954524 85.68685831641778,71.71276018454228 83.5246406570077,71.08225170627702 81.27926078019664,70.00137928361073 78.28542094444856,69.19072434853297 76.28952772123739,68.19992315303534 74.79260780289769,67.11904821870849 73.79466119082645,65.94809931062628 72.87987679662183,63.69627138006035 70.96714579081163,60.36355854081921 68.30595482559875,57.57127872703131 67.1416837782599,55.58965698129032 64.81314168404788,52.52714441972785 62.983572895638645,50.5455146151362 61.569815195165575,49.91499537683558 58.90862422995269,49.284475818276405 56.91273100627586,47.93336139910389 55.91478439420462,47.57306397194043 54.33470225846395,47.302840832737274 51.75667351158336,47.302840832737274 44.438398357480764,43.789934668457136 42.359342915937304,43.24948668316938 40.11396303912625,43.609785366337746 37.535934291314334,44.96090449555777 36.122176591306925,46.67231994634494 34.29260780289769,49.374550060601905 33.294661190826446,50.18521794688422 30.882956879213452,50.81573704758193 28.22176591400057,50.81573704758193 23.814168377779424,52.25692236004397 20.986652977298945,52.707292426843196 19.822381930425763,53.06758836249355 18.65811088308692,53.87825383490417 17.078028747346252,56.04002583795227 15.497946612071246,57.39113142644055 14.666324435267597,58.832309098914266 14.5,59.7330442937091 14.832648870535195,60.543705409625545 17.078028747346252,62.795539063517936 19.489733059424907,66.21831838740036 21.4856262835674,71.71276018454228 22.234086242504418,76.21638285170775 23.98049281304702,80.6299172018189 23.897330595180392,81.62070846906863 23.48151950724423,82.7916425827425 20.321355236228555,86.21436673193239 19.656057494692504,87.20515353907831 19.32340862415731,88.28601097129285 20.986652977298945,96.30234086851124 21.568788500968367,98.10375618911348 22.483572895172983,99.36474535707384 23.897330595180392,100.4455921954941 25.976386037189513,100.89594476658385 31.548254620283842,100.89594476658385 36.95379876811057,99.81509832071606 39.19917864492163,100.17538057407364 41.19507186906412,100.80587426549755 42.276180698070675,100.80587426549755 43.52361396327615,100.62573324330151 46.01848049275577,99.63495715497993 48.596509240567684,97.6534026041627 49.927104723174125,97.6534026041627 50.84188911691308,97.8335440576775 51.839835728984326,98.46403893921524 52.83778234105557,99.54488656227477 55.24948665313423,103.05763483338524 56.58008213574067,104.04840818839148 58.5759753594175,105.21932113345247 60.072895277291536,105.4895316560287 67.72381930192932,105.9398823963711 70.5513347024098,105.57960181729868 72.46406570868567,105.03918075223919 73.87782340869308,104.22854871326126 78.95071868598461,100.89594476658385 81.02977412752807,100.08531002060045 83.1919917864725,99.72502774104942 88.59753593476489,99.63495715497993 90.84291581111029,99.18460412602872 94.08624229999259,97.20304885576479 95.08418891159818,95.94205749046523 95.5,94.86120672838297 95.41683778259903,93.51014195207972 93.83675564732403,90.89807921159081 93.088295688387,88.91651070525404 90.92607802897692,77.74761083361227 90.42710472317412,76.84688872017432 87.59958932269365,73.51421121344902 86.2689938400872,71.44254230440129 85.18788501014933,70.54181561269797 83.94045174540952,70.00137928361073 81.27926078019664,69.55101549613755 78.86755646858364,69.64108826674055 77.7032854212448,69.3708699356066 76.20636550337076,68.74036026687827 74.62628336809576,67.47933996818028 73.79466119082645,66.30839140003081 73.12936344975606,64.14663729327731 71.46611909661442,60.72385225247126 70.5513347024098,59.642970803542994 68.05646817246452,57.57127872703131 64.48049281351268,51.44625582790468 63.31622176617384,50.4554404579103 58.825462012551725,49.10432731406763 57.16221765894443,48.02343573945109 55.91478439420462,47.48298959864769 54.50102669419721,47.212766440352425 52.08932238211855,47.39291521918494 51.50718685844913,47.302840832737274 44.438398357480764,43.609785366337746 42.442505133803934,43.24948668316938 40.19712525699288,43.789934668457136 38.03490759758279,45.05097905173898 36.787474332377315,46.2219476881437 34.87474332656711,49.01425305206794 33.87679671496153,49.73484696447849 32.712525667622685,50.005069573409855 28.80390143720433,50.275292123667896 26.724845996126533,51.17603353271261 20.07186858309433,53.42788419337012 18.741273100487888,54.23854943038896 17.24435318307951,56.40032080549281 15.331622176803648,57.75142600154504 14.749486652668566,58.742235543206334 14.998973305802792,60.72385225247126 15.581108829937875,61.44443936168682 17.493839835748076,62.975685579003766 19.90554414782673,67.83963161287829 21.651950718834996,73.15392121684272 22.234086242504418,76.6667442190228 23.564681724645197,79.99941325595137 23.647843942511827,81.26042082707863 23.232032854110003,82.52142711624037 20.155030800960958,86.57465293526184 19.572895277291536,88.19593955460005 21.069815195165575,96.5725533333607 21.651950718834996,97.8335440576775 23.065708418842405,99.36474535707384 23.98049281304702,100.17538057407364 26.14271047199145,101.25622670596931 27.805954825598747,101.6165085406974 29.469199178740382,101.70657898299396 37.03696098551154,100.26545112102758 41.36139630386606,100.17538057407364 44.438398357480764,99.90516889397986 48.513347022701055,97.92361477483064 49.6776180700399,97.74347333423793 50.509240246377885,97.74347333423793 51.340862423181534,98.10375618911348 52.17248459951952,98.73425093328115 55.498973306268454,103.14770517102443 57.91067761788145,104.85904034471605 62.235112936701626,106.39023297303356 66.14373716665432,106.75051331694704 68.05646817246452,106.39023297303356 72.04825462028384,105.3093913141638 78.53490759758279,100.98601526126731 80.53080082172528,99.90516889397986 82.11088295700029,99.63495715497993 87.93223819322884,99.81509832071606 90.09445585217327,99.54488656227477 93.33778234105557,98.01368548511527 94.75154004152864,96.30234086851124 95.08418891159818,94.95127766137011 95.00102669419721,93.87042603630107 93.17145790578797,89.0065820699092 91.42505133524537,78.46818805357907 90.51026694104075,76.84688872017432 89.09650924056768,75.40573197836056 86.85112936375663,71.80283279810101 85.52053388115019,70.72196100326255 83.77412731014192,70.00137928361073 81.4455852159299,69.46094271913171 78.03593429131433,69.46094271913171 76.53901437390596,68.83043309627101 75.29158110916615,67.92970450781286 73.71149897342548,66.12824536836706 71.54928131401539,60.90399906912353 67.89014373719692,57.03083674691152 66.22689938405529,54.77899262739811 64.64681724878028,51.98670024157036 63.39938398357481,50.72566291003022 61.652977413032204,49.82492117397487 58.65913757728413,49.01425305206794 57.16221765894443,47.84328705212101 56.41375770047307,47.48298959864769 54.33470225846395,47.122692040982656 52.50513347052038,47.122692040982656 51.42402464104816,46.94254322280176 45.60266940435395,43.88000930973794 44.10574948694557,43.429636037908494 43.024640657007694,43.339561363798566 40.44661190966144,43.69986002065707 38.45071868551895,44.600606205058284 37.20328542077914,45.681500762468204 34.791581109166145,49.10432731406763 33.9599589323625,49.82492117397487 32.29671457922086,50.095143763464876 28.80390143720433,50.18521794688422 19.24024640629068,53.33781024534255 18.65811088308692,53.78817991958931 17.24435318307951,55.58965698129032 14.915811088401824,58.201794073334895 14.666324435267597,59.28267677791882 15.082135523669422,60.63377883436624 17.577002053149045,62.88561232434586 20.570841889362782,67.92970450781286 21.568788500968367,72.88370365090668 21.98459958937019,76.12631055852398 23.647843942511827,79.99941325595137 23.48151950724423,81.53063656832092 19.9887063652277,86.48458139423747 19.489733059424907,87.74558237276506 20.238193018361926,91.79879112262279 20.238193018361926,96.39241169649176 20.487679671496153,97.2931196183199 21.069815195165575,98.10375618911348 23.315195071976632,99.63495715497993 24.562628336716443,100.17538057407364 27.889117043465376,100.80587426549755 29.386036960873753,100.89594476658385 32.130390143953264,100.71580375765916 36.70431211544201,99.45481596305035 39.86447638599202,99.81509832071606 41.11190965073183,99.72502774104942 44.355236139614135,99.0945335002616 48.430184804834425,97.6534026041627 50.25975359370932,97.6534026041627 51.257700205314904,98.01368548511527 52.33880903525278,98.9143922298681 55.08316221786663,103.41791614494286 56.49691991787404,104.58882968500257 58.2433264888823,105.57960181729868 60.40554414782673,106.02995252469555 63.48254620144144,105.57960181729868 67.6406570840627,105.9398823963711 72.29774127341807,105.03918075223919 75.29158110916615,103.14770517102443 77.28747433284298,101.6165085406974 80.19815195072442,99.90516889397986 82.11088295700029,99.45481596305035 87.43326488742605,99.90516889397986 89.76180698163807,99.72502774104942 92.09034907631576,98.73425093328115 93.7535934294574,97.47326112445444 94.50205338839442,96.48248251830228 95.08418891159818,95.04134858772159 95.1673511294648,94.14063903084025 93.67043121159077,90.08743793261237 92.42299794685096,84.50300583802164 91.92402464104816,79.63912514317781 91.09240246424451,77.56746646331158 86.76796714589,71.9829780056607 85.18788501014933,70.99217904021498 82.19404517486691,69.82123378827237 79.36652977438644,69.64108826674055 77.95277207391337,69.46094271913171 76.70533880917355,68.92050591902807 75.70739219710231,68.19992315303534 73.9609856265597,66.21831838740036 73.21252566762269,64.14663729327731 71.46611909661442,60.813925664057024 68.22279260773212,57.30105776642449 66.39322381932288,54.77899262739811 64.56365503091365,51.71647806407418 63.23305954877287,50.4554404579103 61.569815195165575,49.73484696447849 58.90862422995269,49.284475818276405 57.16221765894443,48.02343573945109 56.24743326473981,47.663138338481076 54.33470225846395,47.302840832737274 52.33880903525278,47.39291521918494 51.50718685844913,47.212766440352425 44.93737166328356,43.88000930973794 43.107802874874324,43.339561363798566 41.94353182753548,43.339561363798566 40.19712525699288,43.789934668457136 37.78542094444856,45.05097905173898 36.870636550243944,45.86164976400323 34.45893223816529,49.5546985254623 33.54414784396067,50.275292123667896 28.554414784535766,50.4554404579103 24.06365503091365,52.16684832726605 21.152977412566543,52.79736642050557 19.32340862415731,53.517958134645596 18.408624229952693,54.23854943038896 17.410677617881447,55.58965698129032 15.664271047338843,57.21098409977276 15.082135523669422,58.02164686413016 14.666324435267597,59.37275029416196 14.915811088401824,60.90399906912353 15.16529774107039,61.53451272111852 17.577002053149045,64.056564123719 18.741273100487888,67.0289752651006 20.487679671496153,69.55101549613755 22.06776180677116,76.39652741816826 23.647843942511827,79.99941325595137 23.814168377779424,80.90013308043126 23.564681724645197,81.89092413173057 21.90143737150356,83.78243212343659" stroke="#4dd2ff" stroke-linecap="round" stroke-linejoin="round" stroke-width="0.5"><title>2022-11-30 11.9km</title></polyline><polyline fill="none" points="133.2368979526218,44.19865224053501 134.6143952650018,47.02575697237626 136.46314165764488,51.22712140780641 137.0431405256968,52.208743905619485 137.1881402428262,52.71918689983431 137.29689003061503,53.50448287266772 137.91313882824033,55.11433605017373 138.49313769629225,56.84197802856215 139.10938649391755,57.94138368501444 139.5806355746463,59.04078710533213 140.26938423048705,60.493566766701406 141.3206321792677,62.260455687122885 141.5381317550782,62.73162509049871 141.8643811182119,63.32058626713115 142.62562963273376,64.41997874664958 143.16937857191078,65.28378555475501 143.82187729887664,66.61875699763186 144.256876450032,67.36476901508286 145.2718744694721,69.48500807516393 145.5981238328386,69.99543475505197 145.77937347930856,70.50586095292238 147.1568707912229,72.97945800822345 148.3168685277924,74.94262221831013 148.86061746696942,75.6886227488285 149.44061633502133,77.14135766998515 149.87561548640952,77.88735516660381 150.4193644253537,78.63335163379088 150.89061350584961,79.53639861158445 151.18061293987557,80.16460431509768 152.23186088865623,82.20626781060128 152.48561039357446,82.79520777071593 152.70310996938497,83.10930882050889 153.50060841301456,84.71907383654616 154.15310713998042,85.85768522205763 154.841855796054,86.68219541816507 155.3856047349982,87.70301582384855 155.71185409859754,88.17416305330698 156.58185240067542,89.70538871371537 157.05310148117132,90.29432050537434 157.4156007738784,91.00103780865902 157.7418501372449,91.3936581335438 158.46684872265905,92.65004125740961 159.1193474496249,93.98494512785692 160.31559511530213,95.75172459491296 160.93184391292743,96.89031274823355 160.968093842268,97.32219038609765 160.85934405447915,98.02889850409701 160.42434490309097,99.36378909580526 159.9530958228279,100.62015370139852 159.40934688365087,101.6016865184356 158.5030986519996,103.0150906452036 154.47935650334693,108.78645249028341 152.8843596156221,111.22061384940753 152.1231111008674,112.75177425230504 151.68811194971204,114.28293032030342 151.65186202037148,115.14665747189429 151.79686173750088,114.12588887169841 152.08686117175967,113.02659745549317 152.63061011070386,111.77026167220902 153.2106089789886,110.7102260850952 154.6968560789246,108.55088790645823 156.98060162272304,105.37075598046067 159.9530958228279,100.7379377335019 160.31559511530213,100.0312331559544 160.82309412490577,98.53929823715589 161.04059370071627,97.51849828936975 161.07684363005683,96.92957436596043 160.56934462022036,95.8302479928243 159.73559624701738,94.49534867802868 159.3368470252026,93.74937409601989 158.97434773249552,93.27823172463104 157.59685042011552,90.96177576042828 156.69060218846425,89.5876022784214 156.07435339107178,88.40973651409149 154.95060558384284,86.64293305636966 153.71810798859224,84.52276128623635 153.17435904964805,83.73751037259353 152.84810968628153,83.38414708932396 152.37686060578562,82.04921704620938 152.01436131307855,81.34248804190429 151.25311279855669,80.0860786420817 150.92686343519017,79.18303258242668 150.89061350584961,79.10450676691835 150.8543635767419,79.49713573083864 150.70936385937966,79.14376967618591 150.31061463756487,78.43703687380184 149.6943658401724,77.0628315579088 149.11436697165482,76.12051732238615 148.86061746696942,75.49230691956473 147.9181193059776,73.96104100433877 146.79437149874866,71.64450227312045 146.1418727717828,70.58438801756711 145.743123549968,69.72058967963676 145.09062482300214,68.62120798046817 143.82187729887664,66.10832712933188 142.58937970362604,64.06660283636302 142.22688041091897,63.16353001614334 141.5381317550782,62.06413498119218 140.9943828159012,60.96473771019373 140.01563472556882,59.511959315277636 139.61688550375402,58.80520084651653 138.74688720144331,56.920507078117225 138.02188861602917,55.075071395520354 137.58688946487382,53.81860094240983 137.3693898890633,52.83698136854218 137.07939045503736,51.973154668696225 136.644391303882,51.07006164279301 136.06439243559726,49.577991598140216 135.66564321354963,48.94975034694653 135.19439413305372,48.00738710098085 134.03439639648423,45.45514505825122 133.63564717466943,44.277183127211174 133.59939724532887,43.57040473615052 133.49064745754004,42.74582877830835 132.04065028694458,41.175204425671836 131.4969013480004,39.72237283544382 131.13440205529332,39.05485430874978 130.95315240882337,38.544398408412235 130.37315354077145,37.248623572988436 129.61190502601676,36.18844185108901 129.32190559175797,35.16752415307565 129.1044060161803,34.61779843989643 128.95940629928373,34.5 128.92315636994317,34.61779843989643 129.43065537977964,35.52091895919875 130.33690361119807,37.68054886331083 130.6631529747974,38.308803214895306 130.95315240882337,38.93705683606095 131.4969013480004,39.800904372590594 132.2218999331817,41.52859530298156 132.40314957941882,42.392438696930185 132.72939894301817,42.94215650140541 133.12814816483296,43.76673215968185 133.38189766998403,44.12012134239194 133.63564717466943,44.86616441371734 134.14314618427306,45.84779846473248 134.72314505279064,46.67236968970974 135.26689399173483,47.69326565373922 135.48439356707968,48.753424806229305 136.1731422233861,50.04917205715901 136.7893910210114,51.501975886843866 137.26064010127448,52.444333039806224 137.8043890404515,54.40757183096139 138.74688720144331,56.48859716395964 139.07313656480983,57.66653248053626 139.61688550375402,58.765936459909426 140.559383664513,60.336509694257984 141.03063274524175,61.27885144439642 141.50188182550482,61.98560667887796 141.7556313306559,62.496040440164506 142.4806299158372,63.6739626651397 143.24187843035907,65.08746594685363 143.9668770157732,66.10832712933188 144.40187616692856,67.20771393898758 144.94562510610558,68.30709851288702 145.34437432792038,68.85678996134084 145.9968730546534,70.2702796907397 146.57687192293815,71.21260412369156 147.62811987195164,73.29356476088287 148.063119023107,73.92177771875868 148.53436810337007,75.06041184422793 148.86061746696942,75.61009642569115 149.18686683033593,76.08125419355929 149.549366123043,76.98430543430732 149.9481153448578,77.65177712097648 150.38311449601315,78.24072204256663 150.70936385937966,78.98671802208992 151.14436301076785,79.6541872365633 152.15936103020795,81.69585265961359 152.99310940341093,82.83447041196632 153.10185919119976,83.18783405446447 153.1381091203075,83.69824779700139 153.28310883743688,84.09087342489511 154.47935650334693,85.77916037596879 156.14685324952006,88.72383430210175 156.65435225935653,89.31276716288994 157.37935084477067,90.49063096006284 159.1193474496249,93.51380296162097 159.55434660078026,94.45608688346692 160.24309525685385,95.35910743445856 160.64184447866865,95.98729475442087 161.00434377137572,96.8510511276836 161.00434377137572,97.3614519725088 160.6780944080092,98.73560569836991 160.134345469065,100.22754007572075 159.69934631767683,101.09128967588185 158.90184787404723,102.2691278164275 157.95934971305542,103.80031356381369 156.29185296664946,106.11671453076997 155.3856047349982,107.53010685701156 154.841855796054,108.19754083809676 154.29810685710981,109.06127770859166 153.39185862522572,110.31761978479335 152.92060954496264,111.10283210038324 152.26811081799679,112.35916943405755 151.97811138397083,113.18363922310527 151.68811194971204,114.28293032030342 151.54311223258264,115.5 152.08686117175967,113.02659745549317 152.55811025202274,111.92730380481225 153.0656092618592,110.94578972848831 155.42185466410592,107.45158515800722 156.03810346173123,106.62710663027246 156.43685268377885,105.95967071101768 159.55434660078026,101.3661188048136 159.98934575193562,100.65941504825605 160.49684476153925,99.52083483108436 161.00434377137572,97.4792367144255 161.04059370071627,97.12588241163758 160.93184391292743,96.65474298218032 160.82309412490577,96.30138814073871 160.56934462022036,95.75172459491296 159.44559681299143,93.98494512785692 158.72059822757728,92.57151739767869 158.14059935929254,91.70775418821722 157.8143499956932,90.96177576042828 156.98060162272304,89.78391298960196 155.9293536739424,88.17416305330698 155.0956053007394,86.48588358078268 154.44310657400638,85.58284821049892 153.97185749351047,84.71907383654616 153.2106089789886,83.73751037259353 153.0656092618592,83.38414708932396 152.84810968628153,82.44184387166752 152.66686003981158,82.00995434794459 152.23186088865623,81.34248804190429 151.65186202037148,80.32165562693262 151.21686286921613,79.73271297238534 150.12936499109492,77.49472503358265 149.29561661812477,76.27756980899721 149.00561718386598,75.57083325978601 148.4618682449218,74.7070428894367 148.20811874000356,74.07883084414061 147.12062086211517,72.19419032800943 146.79437149874866,71.25186760612996 146.4318722060416,70.66291507074493 145.9968730546534,70.15248902112944 145.56187390349805,69.01384455824154 144.83687531831674,67.71814276921214 144.40187616692856,67.0899226020556 143.9668770157732,65.83348007753375 143.09687871322967,64.89114626761875 142.0093808353413,62.456776321836514 141.39313203794882,61.63222917704843 140.8493830987718,60.493566766701406 140.3056341598276,59.86533820320619 139.6893853622023,58.92299398873001 138.71063727210276,56.4100680515985 137.9493887575809,54.957277414621785 137.58688946487382,53.661541930399835 137.55063953530043,52.915511000028346 137.47813967685215,52.679922071198234 136.82564095011912,51.38418112727231 136.57189144543372,50.63814705348341 136.1731422233861,49.97064200925524 135.30314392084256,47.88959157970385 134.46939554763958,46.358247466618195 133.74439696245827,44.63057197612943" stroke="#4dd2ff" stroke-linecap="round" stroke-linejoin="round" stroke-width="0.5"><title>2022-11-26 10.2km</title></polyline><polyline fill="none" points="85.13544324506074,257.9901781203225 85.63082039449364,257.9901781203225 87.11695184186101,256.7385389171541 88.1077061407268,255.6657048088964 88.93333472218364,253.1624234081246 89.0984604395926,251.91078175441362 89.26358615607023,251.01675161370076 89.0984604395926,248.6922717296984 88.93333472218364,247.2618214811664 89.0984604395926,246.18898325017653 88.6030832901597,241.54001219081692 88.43795757368207,240.10955779394135 88.43795757368207,239.03671645210125 88.1077061407268,237.96387464320287 87.94258042424917,235.63938245596364 87.61232899129391,234.38773190951906 87.4472032757476,233.31488807802089 87.4472032757476,231.1691990152467 87.61232899129391,230.27516135503538 87.77745470870286,229.38112337049097 87.61232899129391,228.12946964777075 87.4472032757476,224.7321206261404 87.28207755926996,221.69238332402892 87.11695184186101,220.44072569860145 87.28207755926996,219.36787579976954 87.4472032757476,217.0433660845738 87.4472032757476,216.14932330325246 87.77745470870286,213.10957542154938 87.4472032757476,212.03672233317047 87.61232899129391,211.1426777364686 87.61232899129391,210.06982379266992 87.77745470870286,208.10292368312366 87.77745470870286,207.2088776603341 87.61232899129391,206.13602200499736 87.4472032757476,205.06316588283516 87.28207755926996,202.91745223850012 87.28207755926996,201.8445947165601 87.11695184186101,200.77173672709614 86.62157469335943,198.8048292011954 86.4564489768818,197.73196988995187 85.9610718274489,197.01673008920625 85.63082039449364,195.94386999984272 84.47494038008153,194.33457899000496 83.814437514171,193.6193382043857 82.32830606587231,192.54647663631476 81.1724260514602,192.18885601009242 80.34679746907204,191.65242497366853 79.5211688876152,191.2948042175267 77.8699117237702,190.04313116311096 76.38378027547151,189.5066996596288 75.72327740956098,189.3278891327791 74.89764882810414,189.1490785924252 74.23714596219361,189.3278891327791 73.08126594685018,188.61264689452946 71.59513449948281,188.43383630248718 70.76950591802597,188.43383630248718 70.27412876859307,188.43383630248718 69.11824875324965,188.07621507998556 68.29262017086148,187.71859380532987 67.79724302142859,187.53978314856067 66.80648872349411,187.36097247875296 65.98086014110595,187.18216179590672 64.82498012669384,187.18216179590672 63.17372296284884,187.00335110048763 62.678345813415945,187.00335110048763 62.017842947505414,187.00335110048763 61.357340081594884,186.82454039156437 60.86196293309331,186.82454039156437 60.531711500138044,186.64572967030108 59.871208634227514,186.64572967030108 59.210705768316984,186.64572967030108 58.55020290333778,186.46691893576644 57.064071455039084,186.10929742758162 56.07331715617329,186.10929742758162 55.743065724149346,185.93048665416427 55.24768857471645,185.93048665416427 54.75231142528355,185.75167586794123 53.92668284382671,185.75167586794123 53.431305694393814,185.75167586794123 51.94517424609512,185.57286506844684 51.11954566370696,185.57286506844684 50.62416851520538,185.93048665416427 48.97291135042906,185.39405425591394 47.81703133601695,185.2152434308082 44.514517007395625,184.678810877027 43.35863699298352,184.8576217412483 42.03763126116246,185.03643259219825 39.72587123140693,185.03643259219825 37.08385976869613,185.03643259219825 35.59772832132876,185.03643259219825 34.11159687396139,185.03643259219825 31.799836844205856,185.03643259219825 29.653202529996634,185.75167586794123 28.49732251558453,186.10929742758162 27.3414425002411,186.64572967030108 26.51581391878426,187.00335110048763 25.359933903440833,188.07621507998556 24.53430532105267,189.8643206753768 23.70867673959583,191.47361460188404 23.70867673959583,194.1557688130997 24.204053889028728,194.6921993053984 24.36917960550636,195.58624986582436 24.699431038461626,196.30149008124135 25.029682470485568,198.4472094825469 25.029682470485568,199.34125868207775 25.359933903440833,200.59292701655068 25.525059619918466,201.48697543796152 25.525059619918466,203.27507130871527 25.1948081869632,204.70554707176052 24.864556754939258,205.95721268374473 24.699431038461626,207.03006841684692 24.36917960550636,208.81816026801243 24.038928171619773,209.71220570756122 23.873802456073463,210.4274418258574 23.378425306640565,214.00361930509098 22.88304815813899,215.6128974785097 22.552796724252403,217.0433660845738 22.222545291297138,219.9043008077424 21.892293859273195,220.79834222747013 21.892293859273195,221.87119150417857 21.562042425386608,222.94404031382874 21.727168142795563,224.91092858603224 21.562042425386608,225.98377607343718 21.396916709840298,226.8778152896557 21.727168142795563,227.95066192070954 21.727168142795563,228.84470042446628 21.892293859273195,229.73873860295862 22.057419575750828,230.09635378420353 22.057419575750828,230.81158399023116 22.222545291297138,231.52681398880668 22.387671008706093,232.0632363515906 22.552796724252403,232.77846598741598 22.717922440730035,234.0301173508633 23.0481738736853,235.4605752741918 23.0481738736853,235.99699678109027 23.0481738736853,236.71222527627833 23.378425306640565,238.1426816433668 23.70867673959583,238.67910256725736 23.70867673959583,239.03671645210125 24.038928171619773,239.751944065094 24.204053889028728,240.46717147086747 24.53430532105267,241.00359188904986 24.864556754939258,241.89762566029094 25.69018533732742,243.32807902013883 25.85531105287373,244.57972502917983 25.69018533732742,246.36778965452686 25.85531105287373,247.9770467088092 25.525059619918466,249.407496542437 25.359933903440833,250.3015272670891 25.1948081869632,251.01675161370076 25.029682470485568,251.91078175441362 24.864556754939258,252.80481157195754 24.53430532105267,254.05645277164876 24.36917960550636,254.95048181083985 24.038928171619773,255.6657048088964 23.873802456073463,256.38092759950086 23.873802456073463,256.9173445561901 23.873802456073463,257.4537613966968 23.873802456073463,259.241816688329 24.038928171619773,259.9570384423714 24.204053889028728,260.67225998826325 24.53430532105267,261.387481326703 25.1948081869632,262.6391181703657 26.020436769351363,262.9967285809107 26.680939635261893,263.53314409870654 27.506568217650056,263.89075437909923 28.332196799106896,263.71194924553856 28.992699664086103,263.89075437909923 29.818328246474266,263.89075437909923 30.313705395907164,264.06955950008705 31.139333978295326,263.89075437909923 31.964962559752166,263.89075437909923 32.625465425662696,263.89075437909923 33.28596829157323,263.71194924553856 34.11159687396139,263.71194924553856 35.76285403780639,263.71194924553856 36.42335690371692,263.71194924553856 37.08385976869613,263.71194924553856 38.074614067561924,263.89075437909923 39.0653683654964,263.71194924553856 39.89099694788456,263.89075437909923 41.04687696322799,263.53314409870654 41.87250554468483,263.53314409870654 43.028385560028255,263.53314409870654 43.854014141485095,263.53314409870654 44.34939129091799,263.53314409870654 45.009894157759845,263.53314409870654 46.496025605127215,263.53314409870654 47.32165418751538,263.89075437909923 48.807785633951426,264.06955950008705 49.46828850079328,263.89075437909923 49.96366564929485,263.89075437909923 51.44979709666222,263.71194924553856 52.60567711200565,263.71194924553856 53.431305694393814,263.89075437909923 54.256934275850654,263.89075437909923 55.90819144062698,263.71194924553856 57.724574320949614,263.89075437909923 58.55020290333778,264.06955950008705 59.210705768316984,264.24836460803635 60.36658578366041,264.24836460803635 61.19221436511725,264.24836460803635 61.85271723102778,264.24836460803635 62.678345813415945,263.89075437909923 63.338848679326475,263.89075437909923 63.83422582875937,263.71194924553856 64.32960297819227,263.53314409870654 65.48548299167305,263.35433893930167 66.1459858585149,263.35433893930167 66.47623729053885,263.1755337663926 67.30186587199569,263.1755337663926 67.63211730588228,262.9967285809107 67.63211730588228,262.8179233823903 67.63211730588228,262.8179233823903 68.78799732029438,262.9967285809107 69.11824875324965,262.28150770883076 69.94387733563781,261.56628662953153 70.27412876859307,261.20867601200007 70.60438020061702,260.8510653420817 72.25563736539334,260.1358438478783 73.57664309628308,259.7782330226619 75.55815169401467,259.0630112173967 76.54890599194914,258.8842057338916 77.3745345743373,258.70540023688227 78.20016315579414,258.70540023688227 80.84217461850494,258.34778920467943 84.14468894712627,257.4537613966968 85.30056896153837,256.9173445561901 86.29132326040417,256.2021219213493 87.28207755926996,255.30809333594516 88.6030832901597,253.1624234081246 89.0984604395926,250.83794554625638 88.76820900663733,249.7651088712737 88.76820900663733,248.871077952208 88.6030832901597,248.1558529837057 88.27283185813576,245.65256396029145 87.94258042424917,244.22211194853298 87.94258042424917,242.79165910743177 87.77745470870286,239.57313718111254 87.77745470870286,237.60626060306095 87.4472032757476,235.28176807891577 87.4472032757476,234.56653916905634 87.28207755926996,233.49369541578926 87.4472032757476,231.3480065090116 87.4472032757476,230.45396891329437 87.4472032757476,229.38112337049097 87.4472032757476,228.30827736132778 87.4472032757476,226.3413917988073 87.11695184186101,224.7321206261404 87.11695184186101,224.0168886568863 87.28207755926996,223.30165647994727 86.78670040983707,221.87119150417857 87.11695184186101,220.79834222747013 87.28207755926996,219.9043008077424 87.28207755926996,218.83145067538135 87.61232899129391,215.97051470773295 87.61232899129391,214.54004547954537 87.61232899129391,213.10957542154938 87.4472032757476,210.78505980712362 87.4472032757476,209.3545875705313 87.28207755926996,207.92411450459622 87.28207755926996,202.20221394184045 87.11695184186101,201.12935610860586 86.4564489768818,198.8048292011954 85.79594611097127,197.19554005912505 84.47494038008153,195.0498195681721 83.48418608121574,193.6193382043857 79.35604317113757,190.93718340969644 78.53041458874941,190.22194163827226 76.21865455899388,189.3278891327791 75.2279002610594,188.79145747353323 74.23714596219361,188.2550256976392 70.9346316345036,187.53978314856067 68.78799732029438,187.18216179590672 68.12749445438385,187.36097247875296 67.46699158940464,187.00335110048763 66.97161443997175,187.00335110048763 65.81573442555964,187.18216179590672 65.15523155964911,187.18216179590672 64.32960297819227,187.00335110048763 63.83422582875937,186.82454039156437 62.678345813415945,186.46691893576644 62.017842947505414,186.64572967030108 61.52246579807252,186.64572967030108 61.02708864957094,186.64572967030108 60.36658578366041,186.64572967030108 59.70608291774988,186.64572967030108 58.88045433536172,186.46691893576644 58.55020290333778,186.28810818842612 56.07331715617329,186.10929742758162 54.75231142528355,186.10929742758162 53.92668284382671,185.93048665416427 53.10105426143855,185.93048665416427 52.60567711200565,186.10929742758162 51.11954566370696,185.75167586794123 50.293917081318796,185.93048665416427 49.79853993281722,185.93048665416427 49.13803706783801,185.75167586794123 48.47753420099616,185.75167586794123 47.48677990306169,185.75167586794123 46.99140275362879,185.75167586794123 45.50527130626142,185.75167586794123 44.514517007395625,185.93048665416427 43.19351127650589,185.75167586794123 42.03763126116246,185.75167586794123 40.88175124581903,185.57286506844684 39.560745514929295,185.57286506844684 39.39561979845166,185.93048665416427 37.74436263460666,185.75167586794123 34.44184830598533,185.93048665416427 33.61621972452849,185.93048665416427 32.79059114214033,185.93048665416427 30.974208261817694,185.75167586794123 30.313705395907164,185.75167586794123 28.827573948539793,186.10929742758162 28.167071082629263,186.64572967030108 27.506568217650056,186.82454039156437 26.020436769351363,187.71859380532987 25.029682470485568,188.97026803949848 24.699431038461626,189.5066996596288 24.53430532105267,190.22194163827226 23.873802456073463,191.83123533218168 23.873802456073463,194.1557688130997 24.53430532105267,195.58624986582436 24.699431038461626,196.65911011141725 25.359933903440833,198.62601934815757 25.525059619918466,199.87768804631196 25.359933903440833,202.38102353573777 25.029682470485568,203.63269032724202 24.53430532105267,207.2088776603341 24.038928171619773,208.6393511411734 23.70867673959583,209.89101475663483 23.378425306640565,212.39434008090757 23.213299590162933,213.6460017899517 23.0481738736853,214.89766286453232 22.387671008706093,217.57979159802198 22.057419575750828,219.54668414848857 22.222545291297138,220.79834222747013 22.222545291297138,222.2288078260608 22.057419575750828,224.55331265344284 21.727168142795563,227.95066192070954 21.396916709840298,229.02350808610208 21.562042425386608,231.7056214560289 21.562042425386608,232.95727336406708 22.057419575750828,235.28176807891577 22.387671008706093,236.3546110545285 22.552796724252403,237.42745356354862 23.0481738736853,238.67910256725736 24.53430532105267,244.22211194853298 24.864556754939258,245.65256396029145 25.359933903440833,247.7982404215727 25.1948081869632,248.871077952208 24.864556754939258,249.94391501601785 24.699431038461626,250.83794554625638 24.36917960550636,252.9836174964439 23.543551023118198,256.38092759950086 23.70867673959583,258.1689836687874 23.873802456073463,259.0630112173967 24.038928171619773,259.7782330226619 24.53430532105267,261.387481326703 25.525059619918466,261.92389719490893 25.85531105287373,262.28150770883076 26.51581391878426,262.8179233823903 27.3414425002411,263.35433893930167 28.827573948539793,264.24836460803635 29.653202529996634,264.24836460803635 31.964962559752166,264.24836460803635 32.625465425662696,264.24836460803635 33.781345441006124,263.89075437909923 34.93722545541823,263.71194924553856 35.59772832132876,263.71194924553856 36.588482620194554,263.89075437909923 39.0653683654964,263.53314409870654 41.37712839618325,263.71194924553856 42.20275697764009,263.71194924553856 43.028385560028255,263.71194924553856 43.68888842500746,263.89075437909923 44.514517007395625,263.89075437909923 46.00064845569432,263.89075437909923 46.82627703808248,263.71194924553856 47.48677990306169,263.71194924553856 48.14728276897222,263.71194924553856 48.97291135042906,263.71194924553856 49.79853993281722,263.71194924553856 50.45904279872775,263.89075437909923 52.11029996257275,263.71194924553856 52.77080282848328,263.71194924553856 53.596431409940124,263.71194924553856 54.256934275850654,263.71194924553856 56.73382002301514,263.71194924553856 57.39432288799435,263.53314409870654 58.21995147038251,263.71194924553856 59.54095720127225,263.89075437909923 60.20146006625146,264.06955950008705 61.02708864957094,264.24836460803635 62.678345813415945,264.06955950008705 63.338848679326475,263.71194924553856 63.99935154430568,263.53314409870654 64.65985441021621,263.1755337663926 65.32035727612674,262.8179233823903 66.64136300701648,262.1027024581563 67.96236873883754,262.1027024581563 67.79724302142859,263.53314409870654 67.46699158940464,263.71194924553856 67.30186587199569,263.71194924553856 67.13674015644938,263.71194924553856 67.13674015644938,263.71194924553856 66.97161443997175,263.89075437909923 67.30186587199569,263.71194924553856 66.97161443997175,263.53314409870654 67.30186587199569,263.35433893930167 68.29262017086148,262.6391181703657 69.11824875324965,262.1027024581563 69.94387733563781,261.56628662953153 70.76950591802597,261.20867601200007 72.75101451482624,260.31464924057946 73.41151737980545,259.9570384423714 76.05352884344757,259.241816688329 77.53966029081494,258.8842057338916 78.69554030522704,258.70540023688227 81.33755176793784,258.70540023688227 82.6585574997589,258.5265947270673 84.64006609655917,257.81137255881913 85.9610718274489,257.09615018288605 87.61232899129391,255.30809333594516 88.76820900663733,247.9770467088092 88.43795757368207,246.72540242387913 88.1077061407268,245.29495103494264 87.94258042424917,242.97046575788409 87.94258042424917,241.54001219081692 87.77745470870286,240.46717147086747 87.94258042424917,239.3943302843254 87.77745470870286,236.89103236747906 87.61232899129391,235.99699678109027 87.61232899129391,234.9241536501795 87.61232899129391,233.67250274051912 87.77745470870286,231.3480065090116 87.77745470870286,230.45396891329437 87.77745470870286,229.20231573446654 87.94258042424917,228.30827736132778 87.4472032757476,225.80496819131076 87.61232899129391,222.40761596732773 87.4472032757476,219.72549248463474 87.4472032757476,218.65264227474108 87.4472032757476,217.40098310657777 87.4472032757476,215.2552801973652 87.4472032757476,213.10957542154938 87.61232899129391,212.21553121344186 87.61232899129391,210.96386877819896 87.4472032757476,210.06982379266992 87.11695184186101,208.4605420017615 87.28207755926996,206.8512591603212 87.28207755926996,205.24197526928037 87.11695184186101,202.73864268348552 87.11695184186101,201.48697543796152 86.9518261263147,200.23530755750835 86.78670040983707,199.16244886792265 85.9610718274489,197.19554005912505 84.97031752951443,195.22862968058325 84.47494038008153,194.33457899000496 84.14468894712627,193.79814842017367 82.98880893178284,192.90409721108153 82.32830606587231,192.36766632995568 81.83292891737074,192.18885601009242 81.33755176793784,191.83123533218168 80.18167175352573,191.11599382013083 79.68629460409284,190.93718340969644 78.86066602170467,190.75837298622355 78.3652888732031,190.40075210062787 77.53966029081494,190.22194163827226 76.71403170842677,189.68551017390564 76.05352884344757,189.68551017390564 74.89764882810414,189.3278891327791 73.57664309628308,188.97026803949848 72.91614023037255,188.79145747353323 72.25563736539334,188.61264689452946 71.76026021596044,188.2550256976392 71.26488306652755,188.07621507998556 70.60438020061702,188.07621507998556 69.77875161916018,187.89740444906056 67.63211730588228,187.53978314856067 66.97161443997175,187.18216179590672 66.1459858585149,187.00335110048763 65.65060870908201,186.82454039156437 64.82498012669384,186.82454039156437 63.99935154430568,186.64572967030108 63.338848679326475,186.28810818842612 61.52246579807252,186.10929742758162 59.871208634227514,185.93048665416427 59.54095720127225,186.10929742758162 59.045580052770674,186.10929742758162 57.55944860447198,185.75167586794123 57.39432288799435,185.75167586794123 56.568694305606186,185.57286506844684 56.07331715617329,185.75167586794123 55.24768857471645,185.57286506844684 54.422059992328286,185.57286506844684 53.92668284382671,185.39405425591394 52.275425679050386,185.2152434308082 51.44979709666222,185.2152434308082 50.95441994816065,185.2152434308082 50.293917081318796,185.2152434308082 49.63341421633959,185.2152434308082 49.13803706783801,185.2152434308082 48.31240848544985,185.2152434308082 46.33089988864958,185.2152434308082 45.835522739216685,184.8576217412483 44.67964272387326,185.03643259219825 44.01913985889405,184.8576217412483 42.86325984355062,185.03643259219825 40.221248380839825,185.39405425591394 39.39561979845166,185.2152434308082 38.735116933472455,185.2152434308082 38.074614067561924,185.03643259219825 37.41411120258272,185.03643259219825 35.927979754284024,185.03643259219825 35.267476888373494,184.8576217412483 34.7720997389406,185.03643259219825 34.11159687396139,185.03643259219825 33.28596829157323,185.03643259219825 32.1300882762298,184.8576217412483 31.30445969477296,184.8576217412483 28.992699664086103,185.2152434308082 28.332196799106896,185.57286506844684 26.680939635261893,187.00335110048763 26.020436769351363,187.36097247875296 25.525059619918466,188.07621507998556 24.699431038461626,189.3278891327791 24.204053889028728,190.75837298622355 24.038928171619773,191.2948042175267 24.038928171619773,192.01004567742348 24.038928171619773,194.51338915410452 24.36917960550636,195.4074397799559 24.53430532105267,196.30149008124135 24.864556754939258,197.01673008920625 25.1948081869632,197.73196988995187 25.69018533732742,199.16244886792265 25.525059619918466,199.52006848342717 25.359933903440833,200.23530755750835 25.525059619918466,200.77173672709614 25.525059619918466,201.12935610860586 25.69018533732742,202.91745223850012 25.525059619918466,203.81149981729686 25.525059619918466,204.52673764666542 25.1948081869632,205.4207846422214 25.029682470485568,206.31483131321147 24.53430532105267,207.7453053132631 24.204053889028728,209.53339664568193 23.873802456073463,210.06982379266992 23.873802456073463,210.6062508225441 24.038928171619773,211.32148668169975 23.873802456073463,212.5731489355676 23.543551023118198,213.28838422405533 23.213299590162933,213.8248105540406 22.88304815813899,215.43408884457313 22.717922440730035,216.14932330325246 22.387671008706093,218.83145067538135 22.057419575750828,219.54668414848857 21.892293859273195,220.61953396955505 21.892293859273195,221.33476692414843 21.727168142795563,223.12284840317443 21.892293859273195,223.48046454391442 22.057419575750828,224.19569666846655 21.892293859273195,225.98377607343718 22.057419575750828,227.77185418154113 22.057419575750828,228.66589274979196 22.222545291297138,229.38112337049097 22.057419575750828,230.27516135503538 22.222545291297138,231.1691990152467 22.222545291297138,232.59965859819204 22.057419575750828,233.49369541578926 22.057419575750828,234.20892463671044 21.892293859273195,235.10296087083407 21.892293859273195,235.81818962516263 22.222545291297138,237.24864651123062 22.222545291297138,237.96387464320287 22.387671008706093,238.67910256725736 23.213299590162933,240.10955779394135 23.543551023118198,240.82478509633802 23.873802456073463,241.3612054362893 24.038928171619773,242.07643237593584 24.36917960550636,242.79165910743177 24.53430532105267,243.5068856314756 24.699431038461626,243.5068856314756 25.1948081869632,244.7585315501783 25.1948081869632,246.90420878957957 25.029682470485568,247.619434120832 25.029682470485568,248.1558529837057 24.864556754939258,248.6922717296984 24.864556754939258,249.407496542437 24.53430532105267,250.12272114795633 24.36917960550636,250.65913946623914 24.204053889028728,251.91078175441362 24.038928171619773,252.9836174964439 23.873802456073463,253.877646924695 23.873802456073463,254.5928702338133 23.70867673959583,255.4868990785908 23.213299590162933,257.09615018288605 23.378425306640565,259.241816688329 23.378425306640565,259.7782330226619 23.378425306640565,260.31464924057946 23.873802456073463,261.387481326703 24.699431038461626,262.28150770883076 25.359933903440833,262.6391181703657 25.85531105287373,262.9967285809107 28.00194536615163,264.06955950008705 28.66244823206216,264.24836460803635 30.80908254534006,264.24836460803635 31.46958541125059,264.24836460803635 32.295213993638754,264.4271697027143 32.95571685861796,264.4271697027143 33.45109400805086,264.4271697027143 34.11159687396139,264.24836460803635 34.60697402339429,263.89075437909923 37.08385976869613,264.24836460803635 37.74436263460666,264.4271697027143 39.23049408290535,264.4271697027143 40.05612266436219,264.4271697027143 40.71662553027272,264.4271697027143 42.20275697764009,264.4271697027143 44.514517007395625,264.4271697027143 46.16577417124063,264.24836460803635 47.48677990306169,264.24836460803635 48.14728276897222,264.24836460803635 48.97291135042906,264.4271697027143 49.46828850079328,264.4271697027143 50.293917081318796,264.4271697027143 50.95441994816065,264.24836460803635 52.275425679050386,264.4271697027143 52.77080282848328,264.4271697027143 53.596431409940124,264.4271697027143 54.256934275850654,264.4271697027143 55.24768857471645,264.4271697027143 55.90819144062698,264.4271697027143 58.05482575390488,264.78477985365316 58.55020290333778,264.96358490968123 59.871208634227514,265.1423899526708 60.86196293309331,265.32119498285465 61.85271723102778,265.1423899526708 62.51322009693831,265.1423899526708 64.82498012669384,264.4271697027143 65.98086014110595,263.71194924553856 66.31111157406121,263.35433893930167 66.97161443997175,262.9967285809107 66.97161443997175,262.4603129462339 66.97161443997175,262.28150770883076 66.31111157406121,264.06955950008705 67.13674015644938,263.35433893930167 67.46699158940464,262.9967285809107 67.79724302142859,262.8179233823903 67.79724302142859,262.6391181703657 67.79724302142859,262.8179233823903 68.12749445438385,262.4603129462339 68.29262017086148,262.28150770883076 68.78799732029438,262.1027024581563 69.44850018620491,261.56628662953153 69.94387733563781,261.387481326703 70.60438020061702,261.02987068356015 71.59513449948281,260.4934546209406 71.76026021596044,260.1358438478783 72.25563736539334,260.1358438478783 72.5858887983486,259.7782330226619 72.91614023037255,259.7782330226619 73.74176881276071,259.42062214622274 74.7325231116265,259.0630112173967 76.38378027547151,258.8842057338916 77.20940885692835,258.5265947270673 78.69554030522704,258.5265947270673 79.35604317113757,258.8842057338916 80.01654603611678,258.8842057338916 81.6678032008931,258.70540023688227 82.32830606587231,258.70540023688227 84.47494038008153,257.63256698451005 85.13544324506074,257.09615018288605 85.79594611097127,256.38092759950086 86.4564489768818,256.02331623015925 87.4472032757476,255.30809333594516 87.61232899129391,254.23525860509835 88.1077061407268,253.69884106493555 88.27283185813576,252.08958774385974 88.76820900663733,251.37436370854266 88.6030832901597,250.83794554625638 88.76820900663733,249.22869035881013 88.76820900663733,248.871077952208 88.6030832901597,248.334659245098 88.27283185813576,246.54659604560584 88.1077061407268,246.01017683302052 88.27283185813576,245.29495103494264 88.27283185813576,244.57972502917983 88.43795757368207,242.4340457674116 88.1077061407268,241.71881893184036 87.77745470870286,241.00359188904986 87.77745470870286,239.751944065094 87.77745470870286,239.03671645210125 87.61232899129391,238.3214886309579 87.61232899129391,236.89103236747906 87.28207755926996,235.81818962516263 87.28207755926996,235.10296087083407 87.11695184186101,234.38773190951906 87.4472032757476,233.67250274051912 87.4472032757476,232.95727336406708 87.4472032757476,232.0632363515906 87.4472032757476,231.88442891067825 87.61232899129391,230.27516135503538 87.94258042424917,229.55993099347688 87.94258042424917,229.20231573446654 88.27283185813576,227.77185418154113 87.94258042424917,226.3413917988073 87.77745470870286,225.44735238794237 87.77745470870286,224.7321206261404 87.4472032757476,224.0168886568863 87.4472032757476,223.30165647994727 86.9518261263147,221.15595870488323 86.78670040983707,220.26191741460934 86.78670040983707,218.29502543411218 86.9518261263147,217.40098310657777 87.11695184186101,215.97051470773295 87.11695184186101,214.71885417820886 87.11695184186101,210.96386877819896 87.11695184186101,209.71220570756122 86.78670040983707,207.92411450459622 86.62157469335943,207.03006841684692 86.62157469335943,206.4936406086199 86.4564489768818,205.95721268374473 86.4564489768818,205.24197526928037 86.29132326040417,203.81149981729686 86.29132326040417,203.27507130871527 86.4564489768818,202.73864268348552 86.4564489768818,202.02340433560312 86.29132326040417,201.12935610860586 86.12619754392654,200.41411729319952 85.46569467894733,197.19554005912505 84.97031752951443,195.94386999984272 83.64931179769337,193.79814842017367 81.83292891737074,192.01004567742348 78.3652888732031,190.22194163827226 77.53966029081494,189.68551017390564 75.2279002610594,188.61264689452946 74.23714596219361,188.61264689452946 73.74176881276071,188.43383630248718 72.75101451482624,188.43383630248718 72.42076308187097,187.89740444906056 71.92538593243808,187.89740444906056 71.26488306652755,187.89740444906056 70.60438020061702,187.89740444906056 69.61362590268254,187.89740444906056 68.45774588827044,187.36097247875296 68.12749445438385,187.36097247875296 67.79724302142859,187.36097247875296 67.30186587199569,187.36097247875296 66.97161443997175,187.18216179590672 66.47623729053885,187.18216179590672 65.81573442555964,187.00335110048763 65.48548299167305,186.82454039156437 65.15523155964911,186.82454039156437 64.99010584317148,186.64572967030108 64.32960297819227,186.64572967030108 63.83422582875937,186.64572967030108 63.50397439580411,186.46691893576644 63.00859724543989,186.28810818842612 62.51322009693831,186.28810818842612 62.18296866398305,186.10929742758162 61.52246579807252,186.10929742758162 61.02708864957094,186.10929742758162 60.531711500138044,186.10929742758162 60.20146006625146,186.10929742758162 59.70608291774988,185.93048665416427 59.54095720127225,185.93048665416427 59.210705768316984,185.93048665416427 58.71532861888409,185.93048665416427 58.21995147038251,185.93048665416427 57.55944860447198,185.93048665416427 57.064071455039084,185.75167586794123 56.403568589128554,185.75167586794123 55.743065724149346,185.57286506844684 55.41281429119408,185.39405425591394 54.58718570880592,185.39405425591394 54.09180855937302,185.57286506844684 53.431305694393814,185.39405425591394 52.935928544960916,185.39405425591394 52.77080282848328,185.39405425591394 52.11029996257275,185.39405425591394 51.94517424609512,185.39405425591394 51.44979709666222,185.39405425591394 50.95441994816065,185.39405425591394 50.45904279872775,185.2152434308082 50.128791365772486,185.39405425591394 49.79853993281722,185.39405425591394 49.46828850079328,185.39405425591394 48.31240848544985,185.2152434308082 47.982157052494586,185.2152434308082 47.65190561953932,185.2152434308082 47.15652847010642,185.2152434308082 46.82627703808248,185.2152434308082 46.661151320673525,185.39405425591394 46.33089988864958,185.2152434308082 46.00064845569432,185.39405425591394 45.50527130626142,185.2152434308082 45.175019873306155,185.2152434308082 44.67964272387326,185.03643259219825 44.514517007395625,185.03643259219825 43.68888842500746,185.2152434308082 43.35863699298352,185.03643259219825 43.19351127650589,185.2152434308082 42.86325984355062,185.2152434308082 42.53300841059536,185.2152434308082 42.03763126116246,185.39405425591394 41.707379828207195,185.39405425591394 41.37712839618325,185.39405425591394 41.21200267970562,185.39405425591394 40.71662553027272,185.39405425591394 40.221248380839825,185.57286506844684 40.05612266436219,185.57286506844684 39.560745514929295,185.39405425591394 38.900242649018764,185.2152434308082 38.900242649018764,185.03643259219825 38.900242649018764,185.03643259219825 38.735116933472455,185.03643259219825 38.5699912160635,185.03643259219825 38.23973978403956,184.8576217412483 38.5699912160635,185.03643259219825 38.40486550051719,184.8576217412483 38.23973978403956,185.03643259219825 38.40486550051719,185.03643259219825 38.40486550051719,185.2152434308082 37.90948835108429,185.57286506844684 37.41411120258272,185.39405425591394 37.08385976869613,185.03643259219825 36.42335690371692,185.2152434308082 36.09310547076166,185.2152434308082 35.43260260485113,185.39405425591394 35.102351172827184,185.39405425591394 34.93722545541823,185.39405425591394 34.7720997389406,185.39405425591394 34.44184830598533,185.57286506844684 33.781345441006124,185.39405425591394 33.28596829157323,185.2152434308082 33.120842575095594,185.2152434308082 32.625465425662696,185.2152434308082 32.1300882762298,185.2152434308082 31.964962559752166,185.2152434308082 31.30445969477296,185.03643259219825 30.974208261817694,185.03643259219825 30.80908254534006,185.03643259219825 30.478831112384796,185.03643259219825 29.488076814450324,185.2152434308082 29.32295109797269,185.2152434308082 27.671693933196366,186.28810818842612 26.185562485828996,187.36097247875296 25.69018533732742,188.2550256976392 25.359933903440833,188.79145747353323 24.864556754939258,189.8643206753768 24.864556754939258,190.22194163827226 24.699431038461626,190.75837298622355 24.36917960550636,191.65242497366853 24.204053889028728,192.18885601009242 24.038928171619773,192.725286930101 24.038928171619773,193.2617177334614 24.038928171619773,193.6193382043857 24.36917960550636,193.97695862292312 24.36917960550636,194.6921993053984 24.53430532105267,195.7650599393528 24.864556754939258,196.65911011141725 25.029682470485568,196.8379201067146 25.029682470485568,197.55315995891578 25.359933903440833,197.73196988995187 25.525059619918466,198.26839960413054 25.359933903440833,198.8048292011954 25.525059619918466,199.34125868207775 25.69018533732742,200.23530755750835 25.69018533732742,200.77173672709614 25.69018533732742,201.12935610860586 25.69018533732742,201.48697543796152 25.525059619918466,201.8445947165601 25.69018533732742,202.20221394184045 25.69018533732742,202.91745223850012 25.69018533732742,203.27507130871527 25.69018533732742,204.34792820876464 24.699431038461626,206.8512591603212 24.53430532105267,207.56649610819295 23.213299590162933,211.1426777364686 22.88304815813899,212.5731489355676 22.717922440730035,213.8248105540406 22.387671008706093,216.3281318852678 22.222545291297138,217.57979159802198 21.396916709840298,221.33476692414843 21.231790993362665,222.58642409555614 21.231790993362665,223.83808063226752 21.231790993362665,227.23543088510633 21.231790993362665,228.66589274979196 21.066665276885033,230.09635378420353 21.396916709840298,233.31488807802089 21.727168142795563,237.60626060306095 22.222545291297138,240.10955779394135 22.88304815813899,241.18239866918884 24.038928171619773,244.22211194853298 24.36917960550636,245.65256396029145 24.53430532105267,248.51346549368463 24.53430532105267,249.7651088712737 24.204053889028728,251.19555766764097 23.378425306640565,254.05645277164876 23.213299590162933,255.30809333594516 23.0481738736853,258.34778920467943 24.204053889028728,260.8510653420817 25.525059619918466,262.6391181703657 27.506568217650056,263.71194924553856 28.827573948539793,264.06955950008705 31.634711127728224,264.4271697027143 32.79059114214033,264.6059747848194 34.11159687396139,264.6059747848194 36.588482620194554,264.6059747848194 37.74436263460666,264.6059747848194 43.68888842500746,265.1423899526708 46.99140275362879,265.1423899526708 48.47753420099616,265.1423899526708 54.422059992328286,265.1423899526708 55.743065724149346,265.1423899526708 58.38507718592882,265.5 61.19221436511725,265.32119498285465 62.678345813415945,264.96358490968123 65.48548299167305,263.89075437909923 66.80648872349411,263.35433893930167 68.95312303770334,262.1027024581563 69.94387733563781,261.387481326703 71.92538593243808,260.31464924057946 73.08126594685018,259.9570384423714 74.40227167867124,259.42062214622274 76.8791574249044,258.8842057338916 78.03503743931651,258.8842057338916 79.5211688876152,258.70540023688227 83.64931179769337,257.63256698451005 84.80519181210548,256.9173445561901 86.9518261263147,254.95048181083985 88.27283185813576,252.80481157195754 88.6030832901597,250.3015272670891 88.27283185813576,248.871077952208 87.77745470870286,244.40091849514283 87.77745470870286,241.71881893184036 87.61232899129391,238.85790951596573 87.4472032757476,235.81818962516263 87.61232899129391,234.74534641602077 87.61232899129391,233.67250274051912 87.4472032757476,230.9903915093746 87.4472032757476,229.91754620010033 87.61232899129391,228.66589274979196 87.61232899129391,227.59304642910138 87.4472032757476,224.91092858603224 87.28207755926996,220.61953396955505 87.11695184186101,217.57979159802198 87.28207755926996,213.8248105540406 87.4472032757476,212.5731489355676 87.28207755926996,210.24863281589933 87.28207755926996,209.1757784828078 86.9518261263147,206.13602200499736 87.28207755926996,204.70554707176052 87.28207755926996,203.63269032724202 87.11695184186101,200.95054642413743 86.4564489768818,198.62601934815757 85.9610718274489,197.19554005912505 85.30056896153837,196.12268004682846 85.13544324506074,195.4074397799559 84.3098146636039,194.33457899000496 81.33755176793784,192.01004567742348 80.34679746907204,191.47361460188404 74.40227167867124,188.43383630248718 73.41151737980545,187.89740444906056 71.26488306652755,187.53978314856067 70.10900305118412,187.18216179590672 68.78799732029438,186.82454039156437 66.47623729053885,186.46691893576644 65.48548299167305,186.46691893576644 64.32960297819227,186.28810818842612 63.338848679326475,186.10929742758162 61.357340081594884,185.75167586794123 60.20146006625146,185.75167586794123 59.210705768316984,185.75167586794123 57.064071455039084,185.39405425591394 56.07331715617329,185.39405425591394 55.082562858238816,185.2152434308082 52.77080282848328,184.8576217412483 51.94517424609512,185.2152434308082 48.47753420099616,184.8576217412483 44.514517007395625,184.8576217412483 42.20275697764009,184.8576217412483 40.71662553027272,184.678810877027 39.23049408290535,184.678810877027 33.28596829157323,184.5 28.66244823206216,185.75167586794123 27.506568217650056,186.46691893576644 25.525059619918466,188.2550256976392 24.864556754939258,189.3278891327791 23.873802456073463,191.83123533218168 23.873802456073463,194.1557688130997 23.873802456073463,195.0498195681721 24.204053889028728,196.12268004682846 24.204053889028728,197.55315995891578 24.53430532105267,200.05649780854583 24.53430532105267,201.48697543796152 24.53430532105267,204.16911875782534 24.36917960550636,205.59959400235675 23.70867673959583,208.10292368312366 23.213299590162933,210.78505980712362 22.88304815813899,212.21553121344186 22.717922440730035,213.28838422405533 22.222545291297138,215.79170609964058 22.057419575750828,217.22217460209504 21.892293859273195,218.4738338610623 21.396916709840298,222.40761596732773 21.231790993362665,223.6592725943774 21.066665276885033,224.91092858603224 20.736413843929768,227.41423866385594 20.736413843929768,228.66589274979196 20.736413843929768,230.27516135503538 21.066665276885033,232.42085119592957 21.396916709840298,233.31488807802089 21.892293859273195,234.74534641602077 21.892293859273195,235.28176807891577 21.892293859273195,235.81818962516263 22.222545291297138,236.3546110545285 22.222545291297138,236.89103236747906 22.387671008706093,237.42745356354862 22.552796724252403,238.1426816433668 23.213299590162933,239.3943302843254 23.543551023118198,241.18239866918884 23.873802456073463,242.61285244417377 24.204053889028728,243.86449881619774 24.53430532105267,248.1558529837057 24.36917960550636,249.5863027132582 23.873802456073463,252.44719968363643 23.213299590162933,254.95048181083985 23.0481738736853,259.0630112173967 23.70867673959583,261.387481326703 26.350688201375306,263.53314409870654 27.836819649674,263.71194924553856 29.9834539629519,264.24836460803635 31.139333978295326,264.6059747848194 33.781345441006124,264.6059747848194 35.43260260485113,264.78477985365316 36.753608335740864,264.96358490968123 39.560745514929295,264.96358490968123 40.71662553027272,264.96358490968123 42.367882694117725,264.96358490968123 45.009894157759845,264.96358490968123 46.496025605127215,264.78477985365316 47.81703133601695,264.96358490968123 52.275425679050386,264.96358490968123 53.26617997791618,264.96358490968123 56.07331715617329,264.96358490968123 57.39432288799435,265.1423899526708 58.71532861888409,265.32119498285465 61.68759151455015,265.32119498285465 63.17372296284884,264.96358490968123 64.49472869373858,264.6059747848194 66.64136300701648,263.89075437909923 66.97161443997175,263.53314409870654 67.46699158940464,262.9967285809107 67.30186587199569,262.9967285809107 67.46699158940464,262.9967285809107 67.63211730588228,263.1755337663926 67.63211730588228,262.6391181703657 67.46699158940464,262.8179233823903 67.96236873883754,262.6391181703657 67.96236873883754,262.4603129462339 68.12749445438385,262.28150770883076 68.62287160381675,261.92389719490893 68.78799732029438,261.92389719490893 69.61362590268254,261.56628662953153 69.94387733563781,261.20867601200007 70.10900305118412,261.20867601200007 71.59513449948281,260.31464924057946 71.92538593243808,259.7782330226619 71.76026021596044,259.7782330226619 71.76026021596044,259.7782330226619 72.09051164891571,259.7782330226619 72.25563736539334,259.7782330226619 72.25563736539334,259.7782330226619 72.09051164891571,259.9570384423714 72.25563736539334,259.9570384423714 72.25563736539334,259.7782330226619 72.42076308187097,259.59942759084515 72.5858887983486,259.241816688329 74.7325231116265,259.241816688329 77.20940885692835,258.8842057338916 81.00730033498257,258.70540023688227 82.32830606587231,258.5265947270673 84.47494038008153,257.09615018288605 85.63082039449364,256.38092759950086 87.28207755926996,254.41406442597508 88.1077061407268,252.08958774385974 88.43795757368207,250.83794554625638 88.27283185813576,246.90420878957957 88.1077061407268,245.47375750378706 87.94258042424917,244.0433053886518 87.77745470870286,241.3612054362893 87.94258042424917,239.751944065094 87.77745470870286,238.67910256725736 87.4472032757476,234.0301173508633 87.77745470870286,232.0632363515906 87.61232899129391,229.73873860295862 87.61232899129391,227.41423866385594 87.28207755926996,223.30165647994727 87.61232899129391,221.51357513060793 87.61232899129391,220.08310911734588 87.4472032757476,217.40098310657777 87.28207755926996,215.97051470773295 87.4472032757476,214.89766286453232 87.11695184186101,211.1426777364686 87.11695184186101,210.06982379266992 87.11695184186101,208.81816026801243 87.28207755926996,205.77840334922075 87.4472032757476,204.70554707176052 87.28207755926996,203.45388082461432 87.28207755926996,202.73864268348552 87.11695184186101,201.48697543796152 87.11695184186101,200.23530755750835 87.11695184186101,199.69887827103958 86.78670040983707,199.16244886792265 86.9518261263147,198.98363904142752 86.62157469335943,198.26839960413054 86.29132326040417,197.91077980748378 86.29132326040417,197.55315995891578 85.79594611097127,196.48030010331422 85.30056896153837,195.94386999984272 84.64006609655917,195.0498195681721 83.97956323064864,193.79814842017367 81.6678032008931,191.83123533218168 80.67704890295863,191.2948042175267 79.5211688876152,190.5795625501778 76.05352884344757,189.3278891327791 74.7325231116265,188.79145747353323 73.41151737980545,188.43383630248718 71.43000878300518,187.71859380532987 70.27412876859307,187.36097247875296 69.44850018620491,187.18216179590672 69.11824875324965,187.18216179590672 67.13674015644938,187.18216179590672 66.97161443997175,187.00335110048763 66.1459858585149,187.00335110048763 65.98086014110595,186.82454039156437 65.65060870908201,186.82454039156437 64.99010584317148,186.82454039156437 64.82498012669384,186.82454039156437 63.99935154430568,186.82454039156437 63.50397439580411,186.64572967030108 62.51322009693831,186.46691893576644 61.02708864957094,186.46691893576644 60.86196293309331,186.28810818842612 59.70608291774988,186.10929742758162 59.37583148479462,186.10929742758162 59.210705768316984,185.93048665416427 57.889700036495924,185.75167586794123 57.724574320949614,185.57286506844684 56.73382002301514,185.57286506844684 56.238442873582244,185.57286506844684 55.90819144062698,185.57286506844684 55.082562858238816,185.39405425591394 54.422059992328286,185.39405425591394 52.77080282848328,185.57286506844684 51.11954566370696,185.39405425591394 48.31240848544985,184.8576217412483 46.99140275362879,184.8576217412483 45.67039702180773,185.03643259219825 43.028385560028255,184.8576217412483 41.87250554468483,184.678810877027 37.74436263460666,184.5 36.588482620194554,184.5 33.946471156552434,184.5 32.79059114214033,184.678810877027 31.46958541125059,184.678810877027 29.157825380563736,185.39405425591394 28.00194536615163,186.10929742758162 25.69018533732742,188.07621507998556 24.864556754939258,189.1490785924252 23.70867673959583,191.2948042175267 23.378425306640565,193.44052797509357 23.70867673959583,195.94386999984272 24.864556754939258,199.69887827103958 25.029682470485568,200.77173672709614 24.699431038461626,203.99030929384753 24.204053889028728,205.95721268374473 23.543551023118198,209.3545875705313 23.378425306640565,210.4274418258574 23.0481738736853,211.67910453327931 22.88304815813899,213.8248105540406 23.0481738736853,214.18242804263718 23.213299590162933,215.43408884457313 23.0481738736853,216.14932330325246 22.88304815813899,216.68574901111424 22.717922440730035,217.57979159802198 22.717922440730035,217.9374085420277 22.552796724252403,218.65264227474108 22.552796724252403,219.0102590629831 22.552796724252403,219.36787579976954 22.222545291297138,220.79834222747013 22.057419575750828,221.51357513060793 21.727168142795563,222.2288078260608 21.892293859273195,222.40761596732773 22.057419575750828,223.12284840317443 21.231790993362665,226.52019964181818 21.231790993362665,227.59304642910138 21.231790993362665,228.66589274979196 21.231790993362665,230.09635378420353 21.562042425386608,232.42085119592957 21.562042425386608,233.67250274051912 21.727168142795563,235.10296087083407 22.387671008706093,237.60626060306095 22.88304815813899,238.67910256725736 23.873802456073463,243.5068856314756 24.204053889028728,247.44062780751847 24.204053889028728,250.83794554625638 23.70867673959583,252.44719968363643 23.0481738736853,255.30809333594516 22.717922440730035,258.34778920467943 23.543551023118198,260.67225998826325 24.36917960550636,261.74509191839024 25.1948081869632,262.6391181703657 27.3414425002411,263.89075437909923 32.79059114214033,264.06955950008705 33.781345441006124,264.24836460803635 34.93722545541823,264.4271697027143 36.25823118630797,264.4271697027143 38.900242649018764,264.78477985365316 40.05612266436219,264.78477985365316 41.37712839618325,264.78477985365316 44.18426557537168,264.96358490968123 45.67039702180773,264.6059747848194 46.99140275362879,264.6059747848194 49.79853993281722,264.78477985365316 51.94517424609512,264.6059747848194 52.77080282848328,264.4271697027143 53.431305694393814,264.4271697027143 54.917437141761184,264.4271697027143 55.57794000674039,264.6059747848194 58.21995147038251,264.24836460803635 58.71532861888409,264.24836460803635 59.210705768316984,264.4271697027143 59.871208634227514,264.4271697027143 60.36658578366041,264.6059747848194 61.02708864957094,264.78477985365316 61.52246579807252,264.78477985365316 63.00859724543989,264.4271697027143 65.15523155964911,264.06955950008705 65.98086014110595,263.71194924553856 67.13674015644938,262.9967285809107 67.13674015644938,263.1755337663926 67.13674015644938,263.1755337663926 67.13674015644938,263.35433893930167 66.80648872349411,263.53314409870654 67.13674015644938,263.35433893930167 66.80648872349411,262.9967285809107 66.64136300701648,262.9967285809107 66.64136300701648,263.1755337663926 66.97161443997175,263.1755337663926 67.63211730588228,262.6391181703657 68.45774588827044,262.28150770883076 70.10900305118412,261.74509191839024 71.09975735004991,261.20867601200007 72.25563736539334,260.8510653420817 73.57664309628308,260.4934546209406 75.88840312603861,259.7782330226619 79.5211688876152,259.7782330226619 80.67704890295863,259.42062214622274 81.83292891737074,259.0630112173967 86.4564489768818,254.5928702338133 87.11695184186101,252.26839372050017 87.61232899129391,250.65913946623914 87.61232899129391,248.1558529837057 87.61232899129391,246.90420878957957 87.77745470870286,244.57972502917983 87.61232899129391,240.82478509633802 87.4472032757476,239.57313718111254 87.4472032757476,238.3214886309579 87.28207755926996,234.56653916905634 87.28207755926996,232.59965859819204 87.28207755926996,231.88442891067825 87.28207755926996,231.1691990152467 87.28207755926996,230.27516135503538 87.28207755926996,229.73873860295862 87.28207755926996,229.20231573446654 87.11695184186101,229.02350808610208 87.11695184186101,228.4870850618463 87.4472032757476,227.41423866385594 87.4472032757476,226.1625839425251 87.28207755926996,225.62616029637866 86.9518261263147,225.0897365331184 86.9518261263147,223.83808063226752 86.9518261263147,223.48046454391442 86.9518261263147,222.76523221144453" stroke="#4dd2ff" stroke-linecap="round" stroke-linejoin="round" stroke-width="0.5"><title>2020-09-06 10.3km</title></polyline></svg>