<?xml version="1.0" encoding="utf-8" ?>
<svg baseProfile="full" height="300mm" version="1.1" viewBox="0,0,200,300" width="200mm" xmlns="http://www.w3.org/2000/svg" xmlns:ev="http://www.w3.org/2001/xml-events" xmlns:xlink="http://www.w3.org/1999/xlink"><defs /><rect fill="#222222" height="300" width="200" x="0" y="0" /><text fill="#FFFFFF" style="font-size:12px; font-family:Arial; font-weight:bold;" x="10" y="20">Over 10km Runs</text><text fill="#FFFFFF" style="font-size:4px; font-family:Arial" x="10" y="280">ATHLETE</text><text fill="#FFFFFF" style="font-size:9px; font-family:Arial" x="10" y="290">peiming</text><text fill="#FFFFFF" style="font-size:4px; font-family:Arial" x="120" y="280">STATISTICS</text><text fill="#FFFFFF" style="font-size:3px; font-family:Arial" x="120" y="285">Number: 2</text><text fill="#FFFFFF" style="font-size:3px; font-family:Arial" x="120" y="290">Weekly: 1.0</text><text fill="#FFFFFF" style="font-size:3px; font-family:Arial" x="141" y="285">Total: 20.5 km</text><text fill="#FFFFFF" style="font-size:3px; font-family:Arial" x="141" y="290">Avg: 10.3 km</text><text fill="#FFFFFF" style="font-size:3px; font-family:Arial" x="167" y="285">Min: 10.2 km</text><text fill="#FFFFFF" style="font-size:3px; font-family:Arial" x="167" y="290">Max: 10.3 km</text><polyline fill="none" points="84.31586393690668,48.93153632071335 86.15252701984718,52.70100929652108 88.61752221011557,58.30282854376128 89.39085403434001,59.61165854084538 89.58418699051253,60.29224919975968 89.72918670764193,61.339310496870894 90.5508517709095,63.485781400231645 91.32418359513395,65.78930403810227 92.14584865863435,67.25517824670533 92.77418076619506,68.72104947379557 93.69251230731606,70.65808902226854 95.09417623910122,73.01394091616385 95.38417567336,73.64216678735102 95.81917482451536,74.42744835617486 96.83417284372263,75.89330499555217 97.5591714293696,77.04504740634002 98.42916973191313,78.82500933017582 99.00916859996505,79.81969202012988 100.36249929270707,82.64667743357131 100.79749844386242,83.3272463401081 101.03916463907808,84.0078146039159 102.87582772155292,87.3059440109646 104.42249137046747,89.92349629104137 105.14748995588161,90.91816366510466 105.92082178010605,92.8551435599802 106.5008206483908,93.84980688878568 107.22581923380494,94.84446884505451 107.85415134113282,96.0485314821126 108.24081725324504,96.8861390867969 109.64248118479736,99.6083570807823 109.98081385833211,100.39361036097398 110.27081329235807,100.81241176067851 111.3341445508413,102.95876511541428 112.20414285338484,104.47691362939076 113.12247439473867,105.57626055757282 113.84747298015282,106.93735443177866 114.28247213130817,107.56555073772324 115.44246986764483,109.60718495160108 116.07080197497271,110.39242734049913 116.5541343651712,111.33471707819263 116.98913351655938,111.85821084474446 117.95579829695635,113.53338834323222 118.82579659949988,115.31326017045649 120.4207934869919,117.66896612657001 121.2424585504923,119.187083664292 121.29079178953543,119.76292051479686 121.14579207263887,120.70519800548209 120.56579320412129,122.48505212774035 119.93746109702624,124.16020493523683 119.2124625116121,125.46891535789473 118.00413153599948,127.3534541936242 112.63914200430736,135.04860332037788 110.5124794873409,138.29415179922944 109.4974814679008,140.3356990030734 108.91748259961605,142.37724042707123 108.86914936057292,143.52887662919238 109.06248231674545,142.1678518289118 109.4491482290905,140.70212994061876 110.17414681427181,139.02701556292595 110.94747863872908,137.61363478010753 112.92914143856615,134.73451720859157 115.97413549688645,130.4943413073197 119.93746109702624,124.31725031131646 120.4207934869919,123.37497754127253 121.09745883336291,121.38573098287452 121.3874582676217,120.02466438582633 121.43579150666483,119.23943248792784 120.75912616052665,117.7736639904324 119.64746166276745,115.99379823735217 119.11579603375867,114.99916546134045 118.63246364332736,114.37097563286079 116.79580056015402,111.28236768057104 115.58746958477423,109.45013637124794 114.76580452127382,107.87964868545532 113.26747411163524,105.52391074184561 111.62414398486726,102.69701504829573 110.89914539945312,101.65001383016352 110.46414624829777,101.17886278574588 109.83581414120272,99.3989560616319 109.3524817507714,98.45665072253905 108.33748373156413,96.78143818944227 107.90248458017595,95.5773767765495 107.85415134113282,95.47267568920506 107.80581810232252,95.99618097447092 107.61248514591716,95.52502623491455 107.08081951690838,94.5827158317552 106.25915445340797,92.75044207717292 105.4858226289507,91.49402309651487 105.14748995588161,90.6564092260669 103.89082574122585,88.61472133913776 102.39249533158727,85.52600303082727 101.52249702904373,84.11251735675614 100.99083139980212,82.96078623953508 100.12083309749141,81.49494397395756 98.42916973191313,78.14443617244251 96.78583960491233,75.42213711515069 96.30250721471384,74.21804002154386 95.38417567336,72.75217997492291 94.65917708794586,71.28631694690557 93.35417963424698,69.34927908703685 92.82251400500536,68.40693446202204 91.6625162686687,65.89400943747023 90.6958514880389,63.433428527379874 90.11585261975415,61.758134589879774 89.82585318549536,60.449308491370175 89.43918727338314,59.29753955826163 88.8591884050984,58.09341552370461 88.08585658087395,56.10398879752029 87.5541909513995,55.26633379596751 86.92585884407163,54.00984946801327 85.37919519538991,50.60686007764889 84.8475295661483,49.0362441696343 84.79919632710516,48.09387298155343 84.6541966102086,46.9944383710972 82.72086704918183,44.90027256758185 81.99586846400052,42.96316378057236 81.51253607356921,42.07313907833304 81.27086987835355,41.39253121125512 80.49753805436194,39.66483143065125 79.48254003468901,38.251255801471416 79.09587412257679,36.89003220410086 78.805874688318,36.15706458652858 78.6125417323783,36.0 78.56420849333517,36.15706458652858 79.24087383970618,37.36122527893167 80.44920481508598,40.240731817728374 80.88420396647416,41.078404286527075 81.27086987835355,41.9160757814534 81.99586846400052,43.06787249678746 82.96253324439749,45.371460404014215 83.20419943938032,46.52325159590691 83.6391985907685,47.25620866852114 84.17086421977729,48.3556428795564 84.50919689331204,48.82682845654199 84.8475295661483,49.821552551642526 85.5241949125193,51.13039795297664 86.29752673697658,52.22982625296572 87.02252532239072,53.59102087165229 87.31252475618385,55.00456640828634 88.23085629800335,56.73222940956475 89.05252136127092,58.66930118249729 89.68085346836597,59.9257773864083 90.40585205401294,62.54342910798732 91.6625162686687,65.31812955194619 92.09751541959122,66.88870997406775 92.82251400500536,68.3545819465653 94.07917821942829,70.44867959234398 94.707510326989,71.70513525919523 95.33584243408404,72.64747557183728 95.6741751076188,73.32805392023874 96.64083988778293,74.89861688687233 97.65583790722303,76.78328792913817 98.62250268762,78.14443617244251 99.20250155613758,79.61028525198344 99.92750014155172,81.07613135053543 100.4591657705605,81.80905328178778 101.32916407310404,83.6937062543584 102.10249589732848,84.95013883156935 103.50415982911363,87.7247530145105 104.08415869739838,88.56237029167823 104.71249080472626,90.08054912567604 105.14748995588161,90.81346190092154 105.5824891072698,91.44167225807905 106.06582149746828,92.64574057911523 106.59748712647706,93.53570282796863 107.17748599476181,94.32096272340277 107.61248514591716,95.31562402943382 108.19248401443474,96.2055829821038 109.54581470694393,98.92780354613205 110.65747920447029,100.44596054928843 110.80247892159969,100.9171120726387 110.85081216064282,101.59766372933518 111.04414511658251,102.12116456654621 112.63914200430736,104.37221383460565 114.86247099959292,108.29844573611626 115.5391363457311,109.08368955051992 116.5058011263609,110.65417461341713 118.82579659949988,114.68507061549462 119.4057954675518,115.9414491779753 120.32412700913846,117.14547657925868 120.85579263838008,117.98305967258057 121.33912502857856,119.13473483693087 121.33912502857856,119.8152692966978 120.90412587742321,121.64747426449321 120.17912729200907,123.6367201009416 119.59912842372432,124.78838623448974 118.53579716524109,126.35883708857 117.27913295058534,128.40041808510432 115.05580395553261,131.4889527077321 113.84747298015282,133.37347580934875 113.12247439473867,134.263387784129 112.39747580932453,135.41503694478888 111.18914483371191,137.0901597130578 110.56081272661686,138.13710946717765 109.69081442407332,139.81222591205733 109.3041485119611,140.91151896415977 108.91748259961605,142.37724042707123 108.72414964367636,144.0 109.4491482290905,140.70212994061876 110.07748033618554,139.236405073083 110.75414568232372,137.9277196379844 113.89580621896312,133.2687802106957 114.71747128246352,132.16947550704936 115.24913691170514,131.27956094802357 119.4057954675518,125.1548250730848 119.98579433583654,124.21255339769414 120.66245968220755,122.69444644148462 121.33912502857856,119.972315619234 121.3874582676217,119.5011765488307 121.2424585504923,118.8729906429071 121.09745883336291,118.40185085433768 120.75912616052665,117.66896612657001 119.26079575065523,115.31326017045649 118.29413097002544,113.42868986359099 117.52079914580099,112.27700558427023 117.08579999441281,111.28236768057104 115.97413549688645,109.71188398613594 114.57247156533413,107.56555073772324 113.46080706780776,105.31451144104358 112.59080876549706,104.11046428070404 111.96247665816918,102.95876511541428 110.94747863872908,101.65001383016352 110.75414568232372,101.17886278574588 110.46414624829777,99.92245849553728 110.22248005331494,99.34660579729825 109.64248118479736,98.45665072253905 108.86914936057292,97.09554083592957 108.28915049228817,96.31028396316105 106.83915332169272,93.32630004477687 105.72748882416636,91.70342641201569 105.34082291205414,90.76111101306742 104.61582432664,89.60939051926835 104.27749165333807,88.77177445887355 102.82749448297545,86.2589204373653 102.39249533158727,85.00249014148721 101.90916294138879,84.21722009434598 101.32916407310404,83.53665202821139 100.74916520481929,82.01845941098873 99.78250042442232,80.29085702565499 99.20250155613758,79.45323013607413 98.62250268762,77.77797343675047 97.4625049510505,76.521528356825 96.01250778045505,73.27570176246809 95.19084271718748,72.17630556941731 94.46584413177334,70.65808902226854 93.7408455463592,69.82045093760826 92.91918048309162,68.56399198499275 91.61418302939273,65.2134240688174 90.59918501018547,63.27636988618178 90.11585261975415,61.54872257390525 90.06751938047819,60.55401466670446 89.97085290262476,60.23989609495038 89.10085460031405,58.512241503049154 88.76252192724496,57.51752940466395 88.23085629800335,56.62752267898759 87.07085856120102,53.852788772957865 85.95919406367466,51.8109966221964 84.99252928327769,49.50742930150591" stroke="#4dd2ff" stroke-linecap="round" stroke-linejoin="round" stroke-width="0.5"><title>2022-11-26 10.2km</title></polyline><polyline fill="none" points="140.18059099372476,253.98690416035242 140.8410938596353,253.98690416035242 142.82260245736688,252.31805188930593 144.14360818825662,250.88760641170666 145.24444629717618,247.54989787726663 145.46461392007768,245.88104233914055 145.68478154111654,244.68900215160102 145.46461392007768,241.58969563944265 145.24444629717618,239.68242864124477 145.46461392007768,238.25197766674682 144.80411105416715,232.0533495878335 144.58394343126565,230.14607705851085 144.58394343126565,228.71562193590216 144.14360818825662,227.28516619070433 143.92344056721777,224.1858432746958 143.4831053223461,222.51697587920353 143.26293770130724,221.08651743736118 143.26293770130724,218.22559868684039 143.4831053223461,217.0335484733805 143.7032729452476,215.8414978273213 143.4831053223461,214.17262619710527 143.26293770130724,209.64282750152051 143.04277007933706,205.58984443196096 142.82260245736688,203.92096759821288 143.04277007933706,202.490501066437 143.26293770130724,199.3911547793541 143.26293770130724,198.19909773766994 143.7032729452476,194.146100561833 143.26293770130724,192.71562977763824 143.4831053223461,191.52357031498104 143.4831053223461,190.09309839014895 143.7032729452476,187.47056491067633 143.7032729452476,186.27850354695693 143.4831053223461,184.84802933991887 143.26293770130724,183.41755451029167 143.04277007933706,180.55660298466682 143.04277007933706,179.12612628866918 142.82260245736688,177.6956489693839 142.16209959145635,175.07310560136102 141.94193196948618,173.64262652001344 141.28142910357565,172.6889734521974 140.8410938596353,171.25849333312362 139.2999205077067,169.11277198651806 138.41925001889467,168.15911760577 136.4377414220944,166.72863551508635 134.8965680701658,166.25180801353417 133.79572996031493,165.53656663140282 132.69489185046405,165.05973895662464 130.4932156316936,163.3908415506594 128.51170703489333,162.6755995459389 127.6310365460813,162.4371855102945 126.53019843716174,162.19877145648934 125.64952795021236,162.4371855102945 124.10835459735245,161.48352919262834 122.12684599962085,161.2451150699053 121.0260078907013,161.2451150699053 120.36550502479076,161.2451150699053 118.82433167193085,160.76828677323647 117.72349356207997,160.29145840695128 117.06299069616944,160.0530441980809 115.74198496434838,159.8146299715154 114.64114685542881,159.57621572795324 113.0999735025689,159.57621572795324 110.89829728379846,159.33780146716163 110.23779441788793,159.33780146716163 109.35712393093854,159.33780146716163 108.47645344305784,159.09938718867488 107.8159505771473,159.09938718867488 107.37561533413827,158.86097289365716 106.49494484625757,158.86097289365716 105.61427435744554,158.86097289365716 104.73360387142748,158.62255858094431 102.75209527369589,158.14572990336455 101.43108954280615,158.14572990336455 100.99075429979712,157.90731553873047 100.33025143388659,157.90731553873047 99.66974856797606,157.66890115709975 98.5689104590565,157.66890115709975 97.90840759314597,157.66890115709975 95.92689899541438,157.4304867577739 94.82606088556349,157.4304867577739 94.16555802151561,157.90731553873047 91.96388180181384,157.1920723412186 90.42270844895393,156.9536579074338 86.01935601048172,156.23841450270265 84.4781826576218,156.47682898840867 82.71684168279171,156.71524345618673 79.63449497614056,156.71524345618673 76.11181302648038,156.71524345618673 74.13030442874879,156.71524345618673 72.14879583287984,156.71524345618673 69.06644912622869,156.71524345618673 66.2042700406164,157.66890115709975 64.6630966886878,158.14572990336455 63.121923334896564,158.86097289365716 62.02108522504568,159.33780146716163 60.479911871254444,160.76828677323647 59.37907376233488,163.15242756693624 58.27823565341532,165.29815280251205 58.27823565341532,168.87435841746628 58.93873851932585,169.58959907386452 59.15890614129603,170.7816664876882 59.59924138523638,171.7353201082442 60.03957662824541,174.59627931006253 60.03957662824541,175.788344909437 60.479911871254444,177.45723602198996 60.70007949415594,178.64930058387108 60.70007949415594,181.03342841146514 60.25974425021559,182.94072942901403 59.81940900627524,184.60961691150442 59.59924138523638,186.04009122238494 59.15890614129603,188.42421369068325 58.71857089642435,189.6162742767483 58.49840327631682,190.5699224343989 57.83790040947497,195.33815907337703 57.17739754449576,197.48386330460198 56.737062299624085,199.3911547793541 56.296727056615055,203.20573441009037 55.8563918126747,204.397789636394 55.8563918126747,205.82825533882715 55.416056567803025,207.25872041843832 55.636224190704525,209.88123811455444 55.416056567803025,211.31170143117197 55.195888947695494,212.5037537193857 55.636224190704525,213.9342158944346 55.636224190704525,215.1262672324665 55.8563918126747,216.31831813720055 56.07655943464488,216.79513837909326 56.07655943464488,217.74877865356393 56.296727056615055,218.70241865166463 56.51689467858523,219.41764846886508 56.737062299624085,220.3712879831437 56.95722992159426,222.0401564675849 57.397565165534616,223.9474336989224 57.397565165534616,224.66266237478703 57.397565165534616,225.6163003682159 57.83790040947497,227.5235755245667 58.27823565341532,228.2388034230098 58.27823565341532,228.71562193590216 58.71857089642435,229.66925875330344 58.93873851932585,230.62289529456757 59.37907376233488,231.33812251873314 59.81940900627524,232.5301675470546 60.92024711612612,234.43743869336322 61.1404147380963,236.10630003898405 60.92024711612612,238.4903862059582 61.1404147380963,240.63606227841228 60.70007949415594,242.54332872317173 60.479911871254444,243.73536968929693 60.25974425021559,244.68900215160102 60.03957662824541,245.88104233914055 59.81940900627524,247.0730820959434 59.37907376233488,248.7419370287098 59.15890614129603,249.93397574755363 58.71857089642435,250.88760641170666 58.49840327631682,251.84123679925688 58.49840327631682,252.55645940825343 58.49840327631682,253.27168186218478 58.49840327631682,255.65575558436103 58.71857089642435,256.6093845895957 58.93873851932585,257.56301331776194 59.37907376233488,258.5166417688597 60.25974425021559,260.18549089389853 61.36058236006647,260.6623047743924 62.24125284794718,261.37752546486445 63.34209095686674,261.8543391718995 64.4429290657863,261.61593232722953 65.32359955366701,261.8543391718995 66.42443766351789,261.8543391718995 67.0849405284971,262.09274600003846 68.18577863834798,261.8543391718995 69.28661674726754,261.8543391718995 70.16728723514825,261.8543391718995 71.04795772302896,261.61593232722953 72.14879583287984,261.61593232722953 74.35047205071896,261.61593232722953 75.23114253859967,261.61593232722953 76.11181302648038,261.61593232722953 77.43281875737011,261.8543391718995 78.75382448825985,261.61593232722953 79.85466259811074,261.8543391718995 81.39583595097065,261.37752546486445 82.49667405989021,261.37752546486445 84.03784741461277,261.37752546486445 85.13868552353233,261.37752546486445 85.79918838851154,261.37752546486445 86.67985887732357,261.37752546486445 88.66136747319251,261.37752546486445 89.7622055830434,261.8543391718995 91.74371417984366,262.09274600003846 92.62438466772437,261.8543391718995 93.28488753270358,261.8543391718995 95.26639613043517,261.61593232722953 96.80756948329508,261.61593232722953 97.90840759314597,261.8543391718995 99.00924570206553,261.8543391718995 101.21092192083597,261.61593232722953 103.6327657615766,261.8543391718995 104.73360387142748,262.09274600003846 105.61427435744554,262.33115281071514 107.1554477121681,262.33115281071514 108.25628582108766,262.33115281071514 109.13695630896837,262.33115281071514 110.23779441788793,261.8543391718995 111.11846490669996,261.8543391718995 111.77896777167916,261.61593232722953 112.4394706375897,261.37752546486445 113.98064399044961,261.13911858550273 114.86131447833031,261.13911858550273 115.30164972133934,260.9007116884459 116.4024878302589,260.9007116884459 116.84282307419926,260.6623047743924 116.84282307419926,260.42389784310944 116.84282307419926,260.42389784310944 118.3839964279905,260.6623047743924 118.82433167193085,259.7086769451853 119.92516978178173,258.75504883914255 120.36550502479076,258.27823468251154 120.80584026873112,257.80142045603134 123.00751648843288,256.8477917970158 124.76885746233165,256.3709773635492 127.41086892597377,255.41734828962944 128.7318746559322,255.17894097836688 129.83271276578307,254.94053364894353 130.93355087563396,254.94053364894353 134.45623282529414,254.46371893933974 138.85958526376635,253.27168186218478 140.40075861662626,252.55645940825343 141.721764347516,251.60282922838815 143.04277007933706,250.41079111443833 144.80411105416715,247.54989787726663 145.46461392007768,244.45059406151995 145.02427867613733,243.02014516177587 145.02427867613733,241.82810393627733 144.80411105416715,240.87447064486332 144.36377581115812,237.53675194690004 143.92344056721777,235.62948259804398 143.92344056721777,233.72221214324236 143.7032729452476,229.4308495747391 143.7032729452476,226.8083474705927 143.26293770130724,223.70902410522103 143.26293770130724,222.7553855588194 143.04277007933706,221.32492722105235 143.26293770130724,218.46400867844932 143.26293770130724,217.27195855113678 143.26293770130724,215.8414978273213 143.26293770130724,214.41103648161516 143.26293770130724,211.78852239833213 142.82260245736688,209.64282750152051 142.82260245736688,208.68918487569317 143.04277007933706,207.73554197326303 142.38226721342653,205.82825533882715 142.82260245736688,204.397789636394 143.04277007933706,203.20573441009037 143.04277007933706,201.7752675670199 143.4831053223461,197.96068627689965 143.4831053223461,196.05339397257194 143.4831053223461,194.146100561833 143.26293770130724,191.04674640949816 143.26293770130724,189.13945009396411 143.04277007933706,187.23215267271735 143.04277007933706,179.60295192245394 142.82260245736688,178.1724748115521 141.94193196948618,175.07310560136102 141.0612614825368,172.92738674534485 139.2999205077067,170.06642609089613 137.97891477588564,168.15911760577 132.47472422849387,164.58291121269576 131.373886118643,163.62925551761873 128.29153941199183,162.4371855102945 126.97053368203342,161.72194329812191 125.64952795021236,161.00670093018562 121.2461755136028,160.0530441980809 118.3839964279905,159.57621572795324 117.50332594010979,159.8146299715154 116.6226554531604,159.33780146716163 115.96215258724988,159.33780146716163 114.42097923438996,159.57621572795324 113.54030874650925,159.57621572795324 112.4394706375897,159.33780146716163 111.77896777167916,159.09938718867488 110.23779441788793,158.62255858094431 109.35712393093854,158.86097289365716 108.69662106502801,158.86097289365716 108.0361182000488,158.86097289365716 107.1554477121681,158.86097289365716 106.27477722428739,158.86097289365716 105.17393911443651,158.62255858094431 104.73360387142748,158.38414425123483 101.43108954280615,158.14572990336455 99.66974856797606,158.14572990336455 98.5689104590565,157.90731553873047 97.46807234920561,157.90731553873047 96.80756948329508,158.14572990336455 94.82606088556349,157.66890115709975 93.72522277571261,157.90731553873047 93.06471991166472,157.90731553873047 92.18404942378402,157.66890115709975 91.30337893590331,157.66890115709975 89.98237320408225,157.66890115709975 89.32187033910304,157.66890115709975 87.34036174230278,157.66890115709975 86.01935601048172,157.90731553873047 84.25801503565162,157.66890115709975 82.71684168279171,157.66890115709975 81.17566832900047,157.4304867577739 79.41432735417038,157.4304867577739 79.1941597322002,157.90731553873047 76.99248351342976,157.66890115709975 72.58913107588887,157.90731553873047 71.48829296696931,157.90731553873047 70.38745485711843,157.90731553873047 67.9656110163778,157.66890115709975 67.0849405284971,157.66890115709975 65.10343193169683,158.14572990336455 64.22276144474745,158.86097289365716 63.34209095686674,159.09938718867488 61.36058236006647,160.29145840695128 60.03957662824541,161.96035738592036 59.59924138523638,162.6755995459389 59.37907376233488,163.62925551761873 58.49840327631682,165.7749804428313 58.49840327631682,168.87435841746628 59.37907376233488,170.7816664876882 59.59924138523638,172.2121468151454 60.479911871254444,174.8346924642101 60.70007949415594,176.50358406151645 60.479911871254444,179.8413647140842 60.03957662824541,181.51025376981124 59.37907376233488,186.27850354695693 58.71857089642435,188.1858015214093 58.27823565341532,189.85468634194694 57.83790040947497,193.1924534412101 57.61773278750479,194.8613357199356 57.397565165534616,196.53021715278737 56.51689467858523,200.10638879728504 56.07655943464488,202.72891219798476 56.296727056615055,204.397789636394 56.296727056615055,206.3050771013368 56.07655943464488,209.4044168710243 55.636224190704525,213.9342158944346 55.195888947695494,215.3646774480585 55.416056567803025,218.9408286078833 55.416056567803025,220.6096978187561 56.07655943464488,223.70902410522103 56.51689467858523,225.1394814059604 56.737062299624085,226.56993808457628 57.397565165534616,228.2388034230098 59.37907376233488,235.62948259804398 59.81940900627524,237.53675194690004 60.479911871254444,240.39765389519744 60.25974425021559,241.82810393627733 59.81940900627524,243.25855335476808 59.59924138523638,244.45059406151995 59.15890614129603,247.31148999510333 58.058068031445146,251.84123679925688 58.27823565341532,254.225311558228 58.49840327631682,255.41734828962944 58.71857089642435,256.3709773635492 59.37907376233488,258.5166417688597 60.70007949415594,259.23186292639 61.1404147380963,259.7086769451853 62.02108522504568,260.42389784310944 63.121923334896564,261.13911858550273 65.10343193169683,262.33115281071514 66.2042700406164,262.33115281071514 69.28661674726754,262.33115281071514 70.16728723514825,262.33115281071514 71.70846058893949,261.8543391718995 73.2496339417994,261.61593232722953 74.13030442874879,261.61593232722953 75.45131016056985,261.8543391718995 78.75382448825985,261.37752546486445 81.836171194911,261.61593232722953 82.93700930383056,261.61593232722953 84.03784741461277,261.61593232722953 84.91851790063083,261.8543391718995 86.01935601048172,261.8543391718995 88.0008646082133,261.8543391718995 89.10170271806419,261.61593232722953 89.98237320408225,261.61593232722953 90.86304369196296,261.61593232722953 91.96388180181384,261.61593232722953 93.06471991166472,261.61593232722953 93.94539039861411,261.8543391718995 96.14706661738455,261.61593232722953 97.02773710526526,261.61593232722953 98.12857521418482,261.61593232722953 99.00924570206553,261.61593232722953 102.31176003068686,261.61593232722953 103.19243051763624,261.37752546486445 104.29326862748712,261.61593232722953 106.05460960324854,261.8543391718995 106.9352800892666,262.09274600003846 108.0361182000488,262.33115281071514 110.23779441788793,262.09274600003846 111.11846490669996,261.61593232722953 111.99913539271802,261.37752546486445 112.87980588059872,260.9007116884459 113.76047636847943,260.42389784310944 115.52181734330952,259.47026994405314 117.28315831907094,259.47026994405314 117.06299069616944,261.37752546486445 116.6226554531604,261.61593232722953 116.4024878302589,261.61593232722953 116.18232021015137,261.61593232722953 116.18232021015137,261.61593232722953 115.96215258724988,261.8543391718995 116.4024878302589,261.61593232722953 115.96215258724988,261.37752546486445 116.4024878302589,261.13911858550273 117.72349356207997,260.18549089389853 118.82433167193085,259.47026994405314 119.92516978178173,258.75504883914255 121.0260078907013,258.27823468251154 123.66801935341209,257.0861989874393 124.54868984036148,256.6093845895957 128.0713717918843,255.65575558436103 130.05288038775325,255.17894097836688 131.59405374061316,254.94053364894353 135.11673569120467,254.94053364894353 136.87807666696608,254.70212630252354 139.52008812874556,253.74849674478173 141.28142910357565,252.79486691043712 143.4831053223461,250.41079111443833 145.02427867613733,240.63606227841228 144.58394343126565,238.96720323176123 144.14360818825662,237.05993471317925 143.92344056721777,233.96062101027928 143.92344056721777,232.0533495878335 143.7032729452476,230.62289529456757 143.92344056721777,229.19244037894532 143.7032729452476,225.8547098231502 143.4831053223461,224.66266237478703 143.4831053223461,223.23220486706123 143.4831053223461,221.56333698728122 143.7032729452476,218.46400867844932 143.7032729452476,217.27195855113678 143.7032729452476,215.60308764595538 143.92344056721777,214.41103648161516 143.26293770130724,211.07329092151485 143.4831053223461,206.54348795628175 143.26293770130724,202.9673233127687 143.26293770130724,201.53685636632144 143.26293770130724,199.8679774752818 143.26293770130724,197.0070402631536 143.26293770130724,194.146100561833 143.4831053223461,192.95404161792248 143.4831053223461,191.28515837085433 143.26293770130724,190.09309839014895 142.82260245736688,187.94738933583722 143.04277007933706,185.8016788805835 143.04277007933706,183.65596702555194 142.82260245736688,180.31819024472497 142.82260245736688,178.64930058387108 142.6024348353967,176.9804100766778 142.38226721342653,175.54993182374164 141.28142910357565,172.92738674534485 139.96042337361723,170.3048395740334 139.2999205077067,169.11277198651806 138.85958526376635,168.397531226743 137.3184119099751,167.20546294818632 136.4377414220944,166.49022177327424 135.7772385571152,166.25180801353417 135.11673569120467,165.7749804428313 133.57556233834475,164.82132509350777 132.91505947243422,164.58291121269576 131.81422136351466,164.34449731488712 131.15371849760413,163.8676694673486 130.05288038775325,163.62925551761873 128.9520422788337,162.9140135650523 128.0713717918843,162.9140135650523 126.53019843716174,162.4371855102945 124.76885746233165,161.96035738592036 123.88818697445095,161.72194329812191 123.00751648843288,161.48352919262834 122.34701362252235,161.00670093018562 121.68651075661182,160.76828677323647 120.80584026873112,160.76828677323647 119.70500215888023,160.5298725985922 116.84282307419926,160.0530441980809 115.96215258724988,159.57621572795324 114.86131447833031,159.33780146716163 114.20081161241978,159.09938718867488 113.0999735025689,159.09938718867488 111.99913539271802,158.86097289365716 111.11846490669996,158.38414425123483 108.69662106502801,158.14572990336455 106.49494484625757,157.90731553873047 106.05460960324854,158.14572990336455 105.394106737338,158.14572990336455 103.41259813960642,157.66890115709975 103.19243051763624,157.66890115709975 102.09159240871668,157.4304867577739 101.43108954280615,157.66890115709975 100.33025143388659,157.4304867577739 99.2294133240357,157.4304867577739 98.5689104590565,157.1920723412186 96.36723423935473,156.9536579074338 95.26639613043517,156.9536579074338 94.60589326452464,156.9536579074338 93.72522277571261,156.9536579074338 92.84455228969455,156.9536579074338 92.18404942378402,156.9536579074338 91.08321131393313,156.9536579074338 88.44119985215366,156.9536579074338 87.78069698624313,156.47682898840867 86.23952363245189,156.71524345618673 85.35885314550251,156.47682898840867 83.81767979171127,156.71524345618673 80.29499784205109,157.1920723412186 79.1941597322002,156.9536579074338 78.31348924525082,156.9536579074338 77.43281875737011,156.71524345618673 76.55214827042073,156.71524345618673 74.57063967268914,156.71524345618673 73.68996918573976,156.47682898840867 73.0294663188979,156.71524345618673 72.14879583287984,156.71524345618673 71.04795772302896,156.71524345618673 69.50678436923772,156.47682898840867 68.40594626031816,156.47682898840867 65.32359955366701,156.9536579074338 64.4429290657863,157.4304867577739 62.24125284794718,159.33780146716163 61.36058236006647,159.8146299715154 60.70007949415594,160.76828677323647 59.59924138523638,162.4371855102945 58.93873851932585,164.34449731488712 58.71857089642435,165.05973895662464 58.71857089642435,166.01339423656464 58.71857089642435,169.35118553880602 59.15890614129603,170.5432530399412 59.37907376233488,171.7353201082442 59.81940900627524,172.6889734521974 60.25974425021559,173.64262652001344 60.92024711612612,175.54993182374164 60.70007949415594,176.02675797767006 60.479911871254444,176.9804100766778 60.70007949415594,177.6956489693839 60.70007949415594,178.1724748115521 60.92024711612612,180.55660298466682 60.70007949415594,181.74866642290726 60.70007949415594,182.70231686229818 60.25974425021559,183.89437952265143 60.03957662824541,185.08644175087102 59.37907376233488,186.9937404175289 58.93873851932585,189.37786219408736 58.49840327631682,190.09309839014895 58.49840327631682,190.8083344299812 58.71857089642435,191.76198224211112 58.49840327631682,193.43086524726823 58.058068031445146,194.38451229874045 57.61773278750479,195.09974740538746 57.17739754449576,197.24545179284178 56.95722992159426,198.19909773766994 56.51689467858523,201.7752675670199 56.07655943464488,202.72891219798476 55.8563918126747,204.15937862591818 55.8563918126747,205.113022565376 55.636224190704525,207.49713120423257 55.8563918126747,207.973952725064 56.07655943464488,208.92759555811062 55.8563918126747,211.31170143117197 56.07655943464488,213.69580557546578 56.07655943464488,214.887856999645 56.296727056615055,215.8414978273213 56.07655943464488,217.0335484733805 56.296727056615055,218.22559868684039 56.296727056615055,220.1328781307675 56.07655943464488,221.32492722105235 56.07655943464488,222.27856618212536 55.8563918126747,223.47061449452303 55.8563918126747,224.42425283347256 56.296727056615055,226.3315286815632 56.296727056615055,227.28516619070433 56.51689467858523,228.2388034230098 57.61773278750479,230.14607705851085 58.058068031445146,231.09971346170641 58.49840327631682,231.8149405817967 58.71857089642435,232.76857650117017 59.15890614129603,233.72221214324236 59.37907376233488,234.67584750871174 59.59924138523638,234.67584750871174 60.25974425021559,236.34470873349346 60.25974425021559,239.2056117192842 60.03957662824541,240.1592454945203 60.03957662824541,240.87447064486332 59.81940900627524,241.58969563944265 59.81940900627524,242.54332872317173 59.37907376233488,243.49696153053083 59.15890614129603,244.2121859549079 58.93873851932585,245.88104233914055 58.71857089642435,247.31148999510333 58.49840327631682,248.50352923269384 58.49840327631682,249.45716031151824 58.27823565341532,250.6491987714544 57.61773278750479,252.79486691043712 57.83790040947497,255.65575558436103 57.83790040947497,256.3709773635492 57.83790040947497,257.0861989874393 58.49840327631682,258.5166417688597 59.59924138523638,259.7086769451853 60.479911871254444,260.18549089389853 61.1404147380963,260.6623047743924 64.00259382277727,262.09274600003846 64.88326430972666,262.33115281071514 67.74544339440763,262.33115281071514 68.62611388228834,262.33115281071514 69.72695199213922,262.56955960346386 70.60762247815728,262.56955960346386 71.26812534406781,262.56955960346386 72.14879583287984,262.33115281071514 72.80929869785905,261.8543391718995 76.11181302648038,262.33115281071514 76.99248351342976,262.56955960346386 78.97399211023003,262.56955960346386 80.07483022008091,262.56955960346386 80.95550070796162,262.56955960346386 82.93700930383056,262.56955960346386 86.01935601048172,262.56955960346386 88.22103222925216,262.33115281071514 89.98237320408225,262.33115281071514 90.86304369196296,262.33115281071514 91.96388180181384,262.56955960346386 92.62438466772437,262.56955960346386 93.72522277571261,262.56955960346386 94.60589326452464,262.33115281071514 96.36723423935473,262.56955960346386 97.02773710526526,262.56955960346386 98.12857521418482,262.56955960346386 99.00924570206553,262.56955960346386 100.33025143388659,262.56955960346386 101.21092192083597,262.56955960346386 104.07310100551695,263.0463731382042 104.73360387142748,263.28477987949736 106.49494484625757,263.5231866033282 107.8159505771473,263.7615933101624 109.13695630896837,263.5231866033282 110.01762679684907,263.5231866033282 113.0999735025689,262.56955960346386 114.64114685542881,261.61593232722953 115.08148210030049,261.13911858550273 115.96215258724988,260.6623047743924 115.96215258724988,259.9470839283895 115.96215258724988,259.7086769451853 115.08148210030049,262.09274600003846 116.18232021015137,261.13911858550273 116.6226554531604,260.6623047743924 117.06299069616944,260.42389784310944 117.06299069616944,260.18549089389853 117.06299069616944,260.42389784310944 117.50332594010979,259.9470839283895 117.72349356207997,259.7086769451853 118.3839964279905,259.47026994405314 119.2646669158712,258.75504883914255 119.92516978178173,258.5166417688597 120.80584026873112,258.0398275780026 122.12684599962085,257.3246061610989 122.34701362252235,256.8477917970158 123.00751648843288,256.8477917970158 123.44785173144192,256.3709773635492 123.88818697445095,256.3709773635492 124.98902508430183,255.89416286163032 126.31003081612289,255.41734828962944 128.51170703489333,255.17894097836688 129.6125451438129,254.70212630252354 131.59405374061316,254.70212630252354 132.47472422849387,255.17894097836688 133.35539471544325,255.17894097836688 135.55707093514502,254.94053364894353 136.4377414220944,254.94053364894353 139.2999205077067,253.51008931268007 140.18059099372476,252.79486691043712 141.0612614825368,251.84123679925688 141.94193196948618,251.36442164005712 143.26293770130724,250.41079111443833 143.4831053223461,248.9803448067978 144.14360818825662,248.26512141968124 144.36377581115812,246.11945032514632 145.02427867613733,245.16581827797927 144.80411105416715,244.45059406151995 145.02427867613733,242.30492047825828 145.02427867613733,241.82810393627733 144.80411105416715,241.1128789933864 144.36377581115812,238.72879472747445 144.14360818825662,238.0135691105388 144.36377581115812,237.05993471317925 144.36377581115812,236.10630003898405 144.58394343126565,233.2453943565488 144.14360818825662,232.29175857570954 143.7032729452476,231.33812251873314 143.7032729452476,229.66925875330344 143.7032729452476,228.71562193590216 143.4831053223461,227.7619848411996 143.4831053223461,225.8547098231502 143.04277007933706,224.42425283347256 143.04277007933706,223.47061449452303 142.82260245736688,222.51697587920353 143.26293770130724,221.56333698728122 143.26293770130724,220.6096978187561 143.26293770130724,219.41764846886508 143.26293770130724,219.179238547571 143.4831053223461,217.0335484733805 143.92344056721777,216.0799079912249 143.92344056721777,215.60308764595538 144.36377581115812,213.69580557546578 143.92344056721777,211.78852239833213 143.7032729452476,210.59646985051222 143.7032729452476,209.64282750152051 143.26293770130724,208.68918487569317 143.26293770130724,207.73554197326303 142.6024348353967,204.8746116065886 142.38226721342653,203.68255655281246 142.38226721342653,201.06003391207196 142.6024348353967,199.8679774752818 142.82260245736688,197.96068627689965 142.82260245736688,196.29180557094514 142.82260245736688,191.28515837085433 142.82260245736688,189.6162742767483 142.38226721342653,187.23215267271735 142.16209959145635,186.04009122238494 142.16209959145635,185.32485414482653 141.94193196948618,184.60961691150442 141.94193196948618,183.65596702555194 141.721764347516,181.74866642290726 141.721764347516,181.03342841146514 141.94193196948618,180.31819024472497 141.94193196948618,179.36453911405988 141.721764347516,178.1724748115521 141.50159672554582,177.21882305759937 140.62092623859644,172.92738674534485 139.96042337361723,171.25849333312362 138.19908239785582,168.397531226743 135.7772385571152,166.01339423656464 131.15371849760413,163.62925551761873 130.05288038775325,162.9140135650523 126.97053368203342,161.48352919262834 125.64952795021236,161.48352919262834 124.98902508430183,161.2451150699053 123.66801935341209,161.2451150699053 123.22768410947174,160.5298725985922 122.56718124356121,160.5298725985922 121.68651075661182,160.5298725985922 120.80584026873112,160.5298725985922 119.48483453784138,160.5298725985922 117.94366118498147,159.8146299715154 117.50332594010979,159.8146299715154 117.06299069616944,159.8146299715154 116.4024878302589,159.8146299715154 115.96215258724988,159.57621572795324 115.30164972133934,159.57621572795324 114.42097923438996,159.33780146716163 113.98064399044961,159.09938718867488 113.54030874650925,159.09938718867488 113.32014112453908,158.86097289365716 112.4394706375897,158.86097289365716 111.77896777167916,158.86097289365716 111.33863252773881,158.62255858094431 110.67812966089696,158.38414425123483 110.01762679684907,158.38414425123483 109.5772915519774,158.14572990336455 108.69662106502801,158.14572990336455 108.0361182000488,158.14572990336455 107.37561533413827,158.14572990336455 106.9352800892666,158.14572990336455 106.27477722428739,157.90731553873047 106.05460960324854,157.90731553873047 105.61427435744554,157.90731553873047 104.95377149339765,157.90731553873047 104.29326862748712,157.90731553873047 103.41259813960642,157.90731553873047 102.75209527369589,157.66890115709975 101.87142478581518,157.66890115709975 100.99075429979712,157.4304867577739 100.55041905492544,157.1920723412186 99.44958094507456,157.1920723412186 98.78907807916403,157.4304867577739 97.90840759314597,157.1920723412186 97.24790472723544,157.1920723412186 97.02773710526526,157.1920723412186 96.14706661738455,157.1920723412186 95.92689899541438,157.1920723412186 95.26639613043517,157.1920723412186 94.60589326452464,157.1920723412186 93.94539039861411,156.9536579074338 93.50505515560508,157.1920723412186 93.06471991166472,157.1920723412186 92.62438466772437,157.1920723412186 91.08321131393313,156.9536579074338 90.6428760709241,156.9536579074338 90.20254082698375,156.9536579074338 89.54203796107322,156.9536579074338 89.10170271806419,156.9536579074338 88.88153509516269,157.1920723412186 88.44119985215366,156.9536579074338 88.0008646082133,157.1920723412186 87.34036174230278,156.9536579074338 86.9000264974311,156.9536579074338 86.23952363245189,156.71524345618673 86.01935601048172,156.71524345618673 84.91851790063083,156.9536579074338 84.4781826576218,156.71524345618673 84.25801503565162,156.9536579074338 83.81767979171127,156.9536579074338 83.37734454870224,156.9536579074338 82.71684168279171,157.1920723412186 82.27650643885136,157.1920723412186 81.836171194911,157.1920723412186 81.61600357387215,157.1920723412186 80.95550070796162,157.1920723412186 80.29499784205109,157.4304867577739 80.07483022008091,157.4304867577739 79.41432735417038,157.1920723412186 78.53365686628968,156.9536579074338 78.53365686628968,156.71524345618673 78.53365686628968,156.71524345618673 78.31348924525082,156.71524345618673 78.09332162234932,156.71524345618673 77.65298637934029,156.47682898840867 78.09332162234932,156.71524345618673 77.87315400131047,156.47682898840867 77.65298637934029,156.71524345618673 77.87315400131047,156.71524345618673 77.87315400131047,156.9536579074338 77.21265113633126,157.4304867577739 76.55214827042073,157.1920723412186 76.11181302648038,156.71524345618673 75.23114253859967,156.9536579074338 74.79080729465932,156.9536579074338 73.91013680677861,157.1920723412186 73.46980156376958,157.1920723412186 73.2496339417994,157.1920723412186 73.0294663188979,157.1920723412186 72.58913107588887,157.4304867577739 71.70846058893949,157.1920723412186 71.04795772302896,156.9536579074338 70.82779010105878,156.9536579074338 70.16728723514825,156.9536579074338 69.50678436923772,156.9536579074338 69.28661674726754,156.9536579074338 68.40594626031816,156.71524345618673 67.9656110163778,156.71524345618673 67.74544339440763,156.71524345618673 67.30510815046728,156.71524345618673 65.98410241957754,156.9536579074338 65.76393479760736,156.9536579074338 63.56225857883692,158.38414425123483 61.58074998110533,159.8146299715154 60.92024711612612,161.00670093018562 60.479911871254444,161.72194329812191 59.81940900627524,163.15242756693624 59.81940900627524,163.62925551761873 59.59924138523638,164.34449731488712 59.15890614129603,165.53656663140282 58.93873851932585,166.25180801353417 58.71857089642435,166.96704924013466 58.71857089642435,167.68229031120427 58.71857089642435,168.15911760577 59.15890614129603,168.63594483048655 59.15890614129603,169.58959907386452 59.37907376233488,171.02007991890423 59.81940900627524,172.2121468151454 60.03957662824541,172.45056014228612 60.03957662824541,173.40421327855438 60.479911871254444,173.64262652001344 60.70007949415594,174.3578661386855 60.479911871254444,175.07310560136102 60.70007949415594,175.788344909437 60.92024711612612,176.9804100766778 60.92024711612612,177.6956489693839 60.92024711612612,178.1724748115521 60.92024711612612,178.64930058387108 60.70007949415594,179.12612628866918 60.92024711612612,179.60295192245394 60.92024711612612,180.55660298466682 60.92024711612612,181.03342841146514 60.92024711612612,182.46390427835286 59.59924138523638,185.8016788805835 59.37907376233488,186.75532814417966 57.61773278750479,191.52357031498104 57.17739754449576,193.43086524726823 56.95722992159426,195.09974740538746 56.51689467858523,198.43750918027945 56.296727056615055,200.10638879728504 55.195888947695494,205.113022565376 54.975721324793994,206.78189879399724 54.975721324793994,208.45077417604625 54.975721324793994,212.9805745135527 54.975721324793994,214.887856999645 54.75555370282382,216.79513837909326 55.195888947695494,221.08651743736118 55.636224190704525,226.8083474705927 56.296727056615055,230.14607705851085 57.17739754449576,231.57653155876324 58.71857089642435,235.62948259804398 59.15890614129603,237.53675194690004 59.37907376233488,241.35128732491285 59.37907376233488,243.02014516177587 58.93873851932585,244.9274102235213 57.83790040947497,248.7419370287098 57.61773278750479,250.41079111443833 57.397565165534616,254.46371893933974 58.93873851932585,257.80142045603134 60.70007949415594,260.18549089389853 63.34209095686674,261.61593232722953 65.10343193169683,262.09274600003846 68.84628150332719,262.56955960346386 70.38745485711843,262.8079663796816 72.14879583287984,262.8079663796816 75.45131016056985,262.8079663796816 76.99248351342976,262.8079663796816 84.91851790063083,263.5231866033282 89.32187033910304,263.5231866033282 91.30337893590331,263.5231866033282 99.2294133240357,263.5231866033282 100.99075429979712,263.5231866033282 104.51343624852598,264.0 108.25628582108766,263.7615933101624 110.23779441788793,263.28477987949736 113.98064399044961,261.8543391718995 115.74198496434838,261.13911858550273 118.60416404996067,259.47026994405314 119.92516978178173,258.5166417688597 122.56718124356121,257.0861989874393 124.10835459735245,256.6093845895957 125.86969557218254,255.89416286163032 129.17220990080386,255.17894097836688 130.71338325366378,255.17894097836688 132.69489185046405,254.94053364894353 138.19908239785582,253.51008931268007 139.74025575071573,252.55645940825343 142.6024348353967,249.93397574755363 144.36377581115812,247.0730820959434 144.80411105416715,243.73536968929693 144.36377581115812,241.82810393627733 143.7032729452476,235.8678913267795 143.7032729452476,232.29175857570954 143.4831053223461,228.4772126879543 143.26293770130724,224.42425283347256 143.4831053223461,222.99379522143863 143.4831053223461,221.56333698728122 143.26293770130724,217.9871886789333 143.26293770130724,216.55672826664522 143.4831053223461,214.887856999645 143.4831053223461,213.457395238569 143.26293770130724,209.88123811455444 143.04277007933706,204.15937862591818 142.82260245736688,200.10638879728504 143.04277007933706,195.09974740538746 143.26293770130724,193.43086524726823 143.04277007933706,190.33151042088866 143.04277007933706,188.90103797707707 142.6024348353967,184.84802933991887 143.04277007933706,182.94072942901403 143.04277007933706,181.51025376981124 142.82260245736688,177.9340618988499 141.94193196948618,174.8346924642101 141.28142910357565,172.92738674534485 140.40075861662626,171.49690672918223 140.18059099372476,170.5432530399412 139.0797528848052,169.11277198651806 135.11673569120467,166.01339423656464 133.79572996031493,165.29815280251205 125.86969557218254,161.2451150699053 124.54868984036148,160.5298725985922 121.68651075661182,160.0530441980809 120.14533740282059,159.57621572795324 118.3839964279905,159.09938718867488 115.30164972133934,158.62255858094431 113.98064399044961,158.62255858094431 112.4394706375897,158.38414425123483 111.11846490669996,158.14572990336455 108.47645344305784,157.66890115709975 106.9352800892666,157.66890115709975 105.61427435744554,157.66890115709975 102.75209527369589,157.1920723412186 101.43108954280615,157.1920723412186 100.11008381098509,156.9536579074338 97.02773710526526,156.47682898840867 95.92689899541438,156.9536579074338 91.30337893590331,156.47682898840867 86.01935601048172,156.47682898840867 82.93700930383056,156.47682898840867 80.95550070796162,156.23841450270265 78.97399211023003,156.23841450270265 71.04795772302896,156.0 64.88326430972666,157.66890115709975 63.34209095686674,158.62255858094431 60.70007949415594,161.00670093018562 59.81940900627524,162.4371855102945 58.49840327631682,165.7749804428313 58.49840327631682,168.87435841746628 58.49840327631682,170.06642609089613 58.93873851932585,171.49690672918223 58.93873851932585,173.40421327855438 59.37907376233488,176.7419970780611 59.37907376233488,178.64930058387108 59.37907376233488,182.22549167717807 59.15890614129603,184.13279200298712 58.27823565341532,187.47056491067633 57.61773278750479,191.04674640949816 57.17739754449576,192.95404161792248 56.95722992159426,194.38451229874045 56.296727056615055,197.72227479959838 56.07655943464488,199.62956613628194 55.8563918126747,201.29844514792785 55.195888947695494,206.54348795628175 54.975721324793994,208.21236345893703 54.75555370282382,209.88123811455444 54.315218458883464,213.21898488514125 54.315218458883464,214.887856999645 54.315218458883464,217.0335484733805 54.75555370282382,219.89446826116182 55.195888947695494,221.08651743736118 55.8563918126747,222.99379522143863 55.8563918126747,223.70902410522103 55.8563918126747,224.42425283347256 56.296727056615055,225.1394814059604 56.296727056615055,225.8547098231502 56.51689467858523,226.56993808457628 56.737062299624085,227.5235755245667 57.61773278750479,229.19244037894532 58.058068031445146,231.57653155876324 58.49840327631682,233.48380325874314 58.93873851932585,235.15266508818604 59.37907376233488,240.87447064486332 59.15890614129603,242.7817369508557 58.49840327631682,246.59626624477096 57.61773278750479,249.93397574755363 57.397565165534616,255.41734828962944 58.27823565341532,258.5166417688597 61.800917603075504,261.37752546486445 63.78242619987577,261.61593232722953 66.64460528455675,262.33115281071514 68.18577863834798,262.8079663796816 71.70846058893949,262.8079663796816 73.91013680677861,263.0463731382042 75.6714777816087,263.28477987949736 79.41432735417038,263.28477987949736 80.95550070796162,263.28477987949736 83.15717692580074,263.28477987949736 86.67985887732357,263.28477987949736 88.66136747319251,263.0463731382042 90.42270844895393,263.28477987949736 96.36723423935473,263.28477987949736 97.68823997024447,263.28477987949736 101.43108954280615,263.28477987949736 103.19243051763624,263.5231866033282 104.95377149339765,263.7615933101624 108.91678868699819,263.7615933101624 110.89829728379846,263.28477987949736 112.65963825862855,262.8079663796816 115.52181734330952,261.8543391718995 115.96215258724988,261.37752546486445 116.6226554531604,260.6623047743924 116.4024878302589,260.6623047743924 116.6226554531604,260.6623047743924 116.84282307419926,260.9007116884459 116.84282307419926,260.18549089389853 116.6226554531604,260.42389784310944 117.28315831907094,260.18549089389853 117.28315831907094,259.9470839283895 117.50332594010979,259.7086769451853 118.16382880602032,259.23186292639 118.3839964279905,259.23186292639 119.48483453784138,258.75504883914255 119.92516978178173,258.27823468251154 120.14533740282059,258.27823468251154 122.12684599962085,257.0861989874393 122.56718124356121,256.3709773635492 122.34701362252235,256.3709773635492 122.34701362252235,256.3709773635492 122.78734886553138,256.3709773635492 123.00751648843288,256.3709773635492 123.00751648843288,256.3709773635492 122.78734886553138,256.6093845895957 123.00751648843288,256.6093845895957 123.00751648843288,256.3709773635492 123.22768410947174,256.13257012097165 123.44785173144192,255.65575558436103 126.31003081612289,255.65575558436103 129.6125451438129,255.17894097836688 134.6764004472643,254.94053364894353 136.4377414220944,254.70212630252354 139.2999205077067,252.79486691043712 140.8410938596353,251.84123679925688 143.04277007933706,249.21875256788917 144.14360818825662,246.11945032514632 144.58394343126565,244.45059406151995 144.36377581115812,239.2056117192842 144.14360818825662,237.29834333830513 143.92344056721777,235.39107385161333 143.7032729452476,231.8149405817967 143.92344056721777,229.66925875330344 143.7032729452476,228.2388034230098 143.26293770130724,222.0401564675849 143.7032729452476,219.41764846886508 143.4831053223461,216.31831813720055 143.4831053223461,213.21898488514125 143.04277007933706,207.73554197326303 143.4831053223461,205.35143350739963 143.4831053223461,203.4441454897169 143.26293770130724,199.8679774752818 143.04277007933706,197.96068627689965 143.26293770130724,196.53021715278737 142.82260245736688,191.52357031498104 142.82260245736688,190.09309839014895 142.82260245736688,188.42421369068325 143.04277007933706,184.37120446562767 143.26293770130724,182.94072942901403 143.04277007933706,181.27184109948575 143.04277007933706,180.31819024472497 142.82260245736688,178.64930058387108 142.82260245736688,176.9804100766778 142.82260245736688,176.265171028208 142.38226721342653,175.54993182374164 142.6024348353967,175.31151872174814 142.16209959145635,174.3578661386855 141.721764347516,173.88103974307887 141.721764347516,173.40421327855438 141.0612614825368,171.9737334707752 140.40075861662626,171.25849333312362 139.52008812874556,170.06642609089613 138.63941764179617,168.397531226743 135.55707093514502,165.7749804428313 134.23606520425528,165.05973895662464 132.69489185046405,164.10608340008184 128.0713717918843,162.4371855102945 126.31003081612289,161.72194329812191 124.54868984036148,161.2451150699053 121.906678378582,160.29145840695128 120.36550502479076,159.8146299715154 119.2646669158712,159.57621572795324 118.82433167193085,159.57621572795324 116.18232021015137,159.57621572795324 115.96215258724988,159.33780146716163 114.86131447833031,159.33780146716163 114.64114685542881,159.09938718867488 114.20081161241978,159.09938718867488 113.32014112453908,159.09938718867488 113.0999735025689,159.09938718867488 111.99913539271802,159.09938718867488 111.33863252773881,158.86097289365716 110.01762679684907,158.62255858094431 108.0361182000488,158.62255858094431 107.8159505771473,158.38414425123483 106.27477722428739,158.14572990336455 105.83444198034704,158.14572990336455 105.61427435744554,157.90731553873047 103.85293338261545,157.66890115709975 103.6327657615766,157.4304867577739 102.31176003068686,157.4304867577739 101.65125716477633,157.4304867577739 101.21092192083597,157.4304867577739 100.11008381098509,157.1920723412186 99.2294133240357,157.1920723412186 97.02773710526526,157.4304867577739 94.82606088556349,157.1920723412186 91.08321131393313,156.47682898840867 89.32187033910304,156.47682898840867 87.56052936334163,156.71524345618673 84.03784741461277,156.47682898840867 82.49667405989021,156.23841450270265 76.99248351342976,156.0 75.45131016056985,156.0 71.92862820997834,156.0 70.38745485711843,156.23841450270265 68.62611388228834,156.23841450270265 65.54376717470586,157.1920723412186 64.00259382277727,158.14572990336455 60.92024711612612,160.76828677323647 59.81940900627524,162.19877145648934 58.27823565341532,165.05973895662464 57.83790040947497,167.92070396686904 58.27823565341532,171.25849333312362 59.81940900627524,176.265171028208 60.03957662824541,177.6956489693839 59.59924138523638,181.98707905830815 58.93873851932585,184.60961691150442 58.058068031445146,189.13945009396411 57.83790040947497,190.5699224343989 57.397565165534616,192.23880604445003 57.17739754449576,195.09974740538746 57.397565165534616,195.57657072343864 57.61773278750479,197.24545179284178 57.397565165534616,198.19909773766994 57.17739754449576,198.91433201450855 56.95722992159426,200.10638879728504 56.95722992159426,200.58321138937026 56.737062299624085,201.53685636632144 56.737062299624085,202.0136787504889 56.737062299624085,202.490501066437 56.296727056615055,204.397789636394 56.07655943464488,205.35143350739963 55.636224190704525,206.3050771013368 55.8563918126747,206.54348795628175 56.07655943464488,207.49713120423257 54.975721324793994,212.02693285583518 54.975721324793994,213.457395238569 54.975721324793994,214.887856999645 54.975721324793994,216.79513837909326 55.416056567803025,219.89446826116182 55.416056567803025,221.56333698728122 55.636224190704525,223.47061449452303 56.51689467858523,226.8083474705927 57.17739754449576,228.2388034230098 58.49840327631682,234.67584750871174 58.93873851932585,239.92083707661368 58.93873851932585,244.45059406151995 58.27823565341532,246.59626624477096 57.397565165534616,250.41079111443833 56.95722992159426,254.46371893933974 58.058068031445146,257.56301331776194 59.15890614129603,258.9934558912646 60.25974425021559,260.18549089389853 63.121923334896564,261.8543391718995 70.38745485711843,262.09274600003846 71.70846058893949,262.33115281071514 73.2496339417994,262.56955960346386 75.0109749166295,262.56955960346386 78.53365686628968,263.0463731382042 80.07483022008091,263.0463731382042 81.836171194911,263.0463731382042 85.57902076747268,263.28477987949736 87.56052936334163,262.8079663796816 89.32187033910304,262.8079663796816 93.06471991166472,263.0463731382042 95.92689899541438,262.8079663796816 97.02773710526526,262.56955960346386 97.90840759314597,262.56955960346386 99.88991618901491,262.56955960346386 100.77058667689562,262.8079663796816 104.29326862748712,262.33115281071514 104.95377149339765,262.33115281071514 105.61427435744554,262.56955960346386 106.49494484625757,262.56955960346386 107.1554477121681,262.8079663796816 108.0361182000488,263.0463731382042 108.69662106502801,263.0463731382042 110.67812966089696,262.56955960346386 113.54030874650925,262.09274600003846 114.64114685542881,261.61593232722953 116.18232021015137,260.6623047743924 116.18232021015137,260.9007116884459 116.18232021015137,260.9007116884459 116.18232021015137,261.13911858550273 115.74198496434838,261.37752546486445 116.18232021015137,261.13911858550273 115.74198496434838,260.6623047743924 115.52181734330952,260.6623047743924 115.52181734330952,260.9007116884459 115.96215258724988,260.9007116884459 116.84282307419926,260.18549089389853 117.94366118498147,259.7086769451853 120.14533740282059,258.9934558912646 121.46634313371032,258.27823468251154 123.00751648843288,257.80142045603134 124.76885746233165,257.3246061610989 127.8512041689828,256.3709773635492 132.69489185046405,256.3709773635492 134.23606520425528,255.89416286163032 135.7772385571152,255.41734828962944 141.94193196948618,249.45716031151824 142.82260245736688,246.35785829392262 143.4831053223461,244.2121859549079 143.4831053223461,240.87447064486332 143.4831053223461,239.2056117192842 143.7032729452476,236.10630003898405 143.4831053223461,231.09971346170641 143.26293770130724,229.4308495747391 143.26293770130724,227.7619848411996 143.04277007933706,222.7553855588194 143.04277007933706,220.1328781307675 143.04277007933706,219.179238547571 143.04277007933706,218.22559868684039 143.04277007933706,217.0335484733805 143.04277007933706,216.31831813720055 143.04277007933706,215.60308764595538 142.82260245736688,215.3646774480585 142.82260245736688,214.6494467491284 143.26293770130724,213.21898488514125 143.26293770130724,211.55011192313395 143.04277007933706,210.83488039532676 142.6024348353967,210.11964871059172 142.6024348353967,208.45077417604625 142.6024348353967,207.973952725064 142.6024348353967,207.02030961518176" stroke="#4dd2ff" stroke-linecap="round" stroke-linejoin="round" stroke-width="0.5"><title>2020-09-06 10.3km</title></polyline></svg>