<?xml version="1.0" encoding="utf-8" ?>
<svg baseProfile="full" height="200mm" version="1.1" viewBox="0,0,200,200" width="200mm" xmlns="http://www.w3.org/2000/svg" xmlns:ev="http://www.w3.org/2001/xml-events" xmlns:xlink="http://www.w3.org/1999/xlink"><defs /><rect fill="#1a1a1a" height="200" width="200" x="0" y="0" /><text alignment-baseline="middle" fill="#e1ed5e" style="dominant-baseline: central; font-size:9.0px; font-family:Arial;" text-anchor="middle" x="100.0" y="100.0">2023</text><line stroke="#e1ed5e" stroke-width="0.3" x1="100.0" x2="100.0" y1="15.0" y2="10.0" /><path d="M 100.0 14.0 a86.0,86.0 0 0,1 42.46469731375804,11.215312516191453" fill="none" id="id61" stroke="none" /><text fill="#e1ed5e" style="font-size:6.75px; font-family:Arial;" text-anchor="middle"><textPath startOffset="22.20632615414155" xlink:href="#id61">January</textPath></text><path d="M 100.0 79.0 l 0.0 -8.979995423789756 a29.979995423789756,29.979995423789756 0 0,0 0.516056338779987,0.004441859832680066 l -0.1545758595074587 8.978664940565634" fill="#ff0000" stroke="none" /><path d="M 102.16513564639614 79.11191278185805 l 1.5309858962249698 -14.770144763595775 a35.849279246886546,35.849279246886546 0 0,0 0.613250226698069,0.06890580836032156 l -1.785002826432764 14.741603001764853" fill="#ff6008" stroke="none" /><path d="M 110.05341064243156 81.56283822128135 l 7.06124981144473 -12.949774933501072 a35.74984473572386,35.74984473572386 0 0,0 0.5377387986395279,0.29925105924545303 l -7.283112699156294 12.826308476695438" fill="#ff5e08" stroke="none" /><line stroke="#e1ed5e" stroke-width="0.3" x1="143.23703022742887" x2="145.7803849466894" y1="26.81831364943548" y2="22.513508569990506" /><path d="M 143.74570117128098 25.957352633546492 a86.0,86.0 0 0,1 28.547481713284135,27.462654790039103" fill="none" id="id62" stroke="none" /><text fill="#e1ed5e" style="font-size:6.75px; font-family:Arial;" text-anchor="middle"><textPath startOffset="19.985693538727396" xlink:href="#id62">February</textPath></text><path d="M 110.99172775467656 82.1063720568725 l 10.984234013100833 -17.881428748728702 a41.985682999378945,41.985682999378945 0 0,0 0.6125528164561513,0.38358051746913857 l -11.290405981929247 17.689703889936617" fill="#ffbd11" stroke="none" /><path d="M 113.06298171725822 83.55741782278167 l 18.408744887896496 -23.171379027407585 a50.59382865361357,50.59382865361357 0 0,0 0.6772263470543448,0.5476032747157016 l -18.804874633515333 22.851069655427754" fill="#c9ff1d" stroke="none" /><path d="M 113.6212207817346 84.01681056812373 l 28.78818689007387 -33.78016198675199 a65.38309417186937,65.38309417186937 0 0,0 0.8503108800952446,0.7373812161160446 l -29.36539156881588 33.27961577721627" fill="#32ff4d" stroke="none" /><path d="M 114.16331599549186 84.49514656593476 l 14.04016880316679 -15.370041842738424 a41.817409211257484,41.817409211257484 0 0,0 0.5272819180602731,0.4900510775776453 l -14.30265860502191 15.126086179086139" fill="#ffbb11" stroke="none" /><path d="M 114.68862486808459 84.99185889309783 l 20.895954565059096 -21.350496557185114 a50.87448109044553,50.87448109044553 0 0,0 0.6205819400207933,0.6179169639500529 l -21.260372305247213 20.987643742584943" fill="#c5ff1e" stroke="none" /><path d="M 115.19652480421416 85.50635884689758 l 17.17302178705233 -16.37871937845444 a44.73131108423496,44.73131108423496 0 0,0 0.5266210395775107,0.5617626074311627 l -17.452410148600304 16.080687354145223" fill="#ffe515" stroke="none" /><path d="M 115.68641384162765 86.03803664274999 l 35.33656781153863 -31.451922022254244 a68.30640996306346,68.30640996306346 0 0,0 0.774165778142678,0.8850053125035022 l -35.87272545325916 30.839001153547795" fill="#37ff74" stroke="none" /><path d="M 116.15771136456269 86.58626213691792 l 18.962719211364007 -15.742386958980772 a45.645637891020826,45.645637891020826 0 0,0 0.49667128991583176,0.6088602743624397 l -19.23088899335625 15.413642515010231" fill="#fff216" stroke="none" /><path d="M 116.60985879189232 87.15038557335679 l 23.422002035832865 -18.119581811701636 a50.612656490046746,50.612656490046746 0 0,0 0.5271526525497806,0.693671098616146 l -23.730430628606758 17.713725937204455" fill="#c8ff1d" stroke="none" /><path d="M 117.04232023915458 87.72973835380427 l 28.830791839410697 -20.757816680607284 a56.52606805478378,56.52606805478378 0 0,0 0.5617274788162024,0.7945236823911312 l -29.18383193803078 20.25846649788436" fill="#7dff26" stroke="none" /><path d="M 117.2510076193507 88.02491185347247 l 51.379407169409276 -35.66591258587379 a83.54519007616122,83.54519007616122 0 0,0 0.8098931766934169,1.1884183012285954 l -51.98572481177143 34.776216261374785" fill="#4cd7ff" stroke="none" /><path d="M 117.65298651832404 88.62581576622439 l 19.98063093893341 -12.87393366389325 a44.7689667571013,44.7689667571013 0 0,0 0.41181566295496,0.6513934810493719 l -20.199274198134326 12.528092535129673" fill="#ffe515" stroke="none" /><line stroke="#e1ed5e" stroke-width="0.3" x1="172.23445277983987" x2="176.4835382374775" y1="55.19839476539836" y2="52.563006222186495" /><path d="M 173.08426987136738 54.67131705675599 a86.0,86.0 0 0,1 12.851231095245387,41.99856678651699" fill="none" id="id63" stroke="none" /><text fill="#e1ed5e" style="font-size:6.75px; font-family:Arial;" text-anchor="middle"><textPath startOffset="22.20632615414155" xlink:href="#id63">March</textPath></text><path d="M 118.21658344932153 89.55222093294921 l 21.433116035997266 -12.292560879241218 a45.7080050992057,45.7080050992057 0 0,0 0.38556303976622847,0.6858736254640115 l -21.641536717055928 11.921803743842412" fill="#fff316" stroke="none" /><path d="M 118.3937258080291 89.86733742301442 l 24.88951940885106 -13.711039541707983 a49.41620632170758,49.41620632170758 0 0,0 0.4040172567993566,0.7485826172619977 l -25.121844764868886 13.280575941113527" fill="#d8ff1c" stroke="none" /><path d="M 118.73160827565052 90.50648371742162 l 18.419693247885203 -9.335432131378187 a41.65031216291308,41.65031216291308 0 0,0 0.3186050288731841,0.6422882966659508 l -18.577658289711795 9.016984246213287" fill="#ffb811" stroke="none" /><path d="M 119.04729006885535 91.15688171328212 l 26.93139934821187 -12.503487330856116 a50.692380609943456,50.692380609943456 0 0,0 0.3606344862256051,0.7946102864854645 l -27.142636151400822 12.038055035528588" fill="#c7ff1e" stroke="none" /><path d="M 119.196687751892 91.48605970444005 l 18.98190816247364 -8.418683206178333 a41.76504429117772,41.76504429117772 0 0,0 0.2858107080225786,0.6596905198934321 l -19.1240095803389 8.090693541698299" fill="#ffba11" stroke="none" /><path d="M 119.47837535516314 92.15188598940014 l 30.415593492516223 -12.254874499379266 a53.79161899780996,53.79161899780996 0 0,0 0.33864757113412086,0.8618211304799995 l -30.622034613532044 11.729504364003482" fill="#9fff22" stroke="none" /><path d="M 119.7369772167798 92.82701384747503 l 17.26606482700873 -6.274985401890164 a39.37096721472233,39.37096721472233 0 0,0 0.22600232396536998,0.6389390036503481 l -17.371520231783908 5.9768487718132" fill="#ff960d" stroke="none" /><path d="M 119.97218684219823 93.5106431181261 l 25.717136478106585 -8.356004172446587 a48.04059752230903,48.04059752230903 0 0,0 0.24876912081189562,0.788666095266258 l -25.857161082686687 7.91208791075391" fill="#ebff1a" stroke="none" /><path d="M 120.18372546131832 94.20196356495316 l 28.635497327983707 -8.225917319452668 a50.79358023077175,50.79358023077175 0 0,0 0.2341662160303595,0.8424204692028755 l -28.772850314580428 7.7317855468308405" fill="#c6ff1e" stroke="none" /><path d="M 120.28053869075195 94.5502522615342 l 28.775407269928056 -7.732472647002861 a50.796227895270164,50.796227895270164 0 0,0 0.21964208666869453,0.846370557580487 l -28.904245688467054 7.236005663873524" fill="#c6ff1e" stroke="none" /><path d="M 120.37134235888165 94.90015583598534 l 40.6315774715904 -10.171873291052727 a62.88546399503154,62.88546399503154 0 0,0 0.2538392708170422,1.0523276553240366 l -40.80064954266825 9.470960404069285" fill="#33ff2f" stroke="none" /><path d="M 120.53481517161879 95.60439243477599 l 23.31349878291722 -4.99040243438205 a44.84163043833557,44.84163043833557 0 0,0 0.15506813213102072,0.756167283597065 l -23.395946210963242 4.5883594946215736" fill="#ffe615" stroke="none" /><path d="M 120.67395015179393 96.31383870115 l 18.963566474672028 -3.381200221237815 a40.26264178079953,40.26264178079953 0 0,0 0.11578028511526553,0.6833417966964511 l -19.01895862130752 3.054272636225526" fill="#ffa30f" stroke="none" /><path d="M 120.83666639777658 97.38593545837742 l 62.353834386401765 -7.822601964827365 a83.84261105481646,83.84261105481646 0 0,0 0.16732448726498816,1.4335340235440845 l -62.47924922667034 6.748124202958428" fill="#4dd4ff" stroke="none" /><path d="M 120.91429891909075 98.10471618934814 l 18.55294252306788 -1.6812943020446134 a39.62896741084562,39.62896741084562 0 0,0 0.055717415166935125,0.6798935920740266 l -18.57913442205431 1.361686792762818" fill="#ff9a0e" stroke="none" /><path d="M 120.94382443527127 98.46500227214037 l 29.711241020525428 -2.177572085716625 a50.790932566273334,50.790932566273334 0 0,0 0.056400691894289506,0.8724937400675442 l -29.74432230342413 1.6658192813960453" fill="#c6ff1e" stroke="none" /><path d="M 120.98425023603335 99.18683210126433 l 35.56086244359758 -1.3780312122295082 a56.58755270813585,56.58755270813585 0 0,0 0.029340122090165375,0.973655813219563 l -35.57931426014339 0.7657052515849462" fill="#7cff26" stroke="none" /><line stroke="#e1ed5e" stroke-width="0.3" x1="184.98032266829074" x2="189.97916517819016" y1="98.17113171792111" y2="98.06355123074" /><path d="M 185.9800911702706 98.14961562048488 a86.0,86.0 0 0,1 -9.607161424134198,41.387399972396054" fill="none" id="id64" stroke="none" /><text fill="#e1ed5e" style="font-size:6.75px; font-family:Arial;" text-anchor="middle"><textPath startOffset="21.466115282336823" xlink:href="#id64">April</textPath></text><path d="M 120.99513854157772 99.54816195383933 l 13.824079762381247 -0.2975091199057257 a34.82728075049848,34.82728075049848 0 0,0 0.007739936731995171,0.5994666296025712 l -13.827152706230958 0.059506232242691685" fill="#ff4f07" stroke="none" /><path d="M 120.99980553446 99.90962569577887 l 61.259328771854584 -0.26363430869514365 a82.25989605465301,82.25989605465301 0 0,0 -0.006093902059877337,1.416008226081294 l -61.2547905725052 -0.7908833955898351" fill="#4be4ff" stroke="none" /><path d="M 120.9904718944345 100.63252640178507 l 18.024766816662726 0.5431579125470521 a39.03294871375805,39.03294871375805 0 0,0 -0.026018001453380207,0.6714090091211805 l -18.01274668235814 -0.8533441686822388" fill="#ff910d" stroke="none" /><path d="M 120.9764740272857 100.99374915477107 l 39.007243839216066 1.847947159505798 a60.0509920570065,60.0509920570065 0 0,0 -0.05780236582362355,1.0321000712138326 l -38.96965512250491 -2.5191189470550537" fill="#53ff2b" stroke="none" /><path d="M 120.92983693683757 101.71520430193887 l 30.932815585774026 2.534950392777305 a52.036511620305305,52.036511620305305 0 0,0 -0.08084343809262481,0.8921006027770709 l -30.884597551404326 -3.0670323841029465" fill="#b6ff1f" stroke="none" /><path d="M 120.89721153311464 102.0752229133903 l 21.86717330139572 2.171546142135903 a42.97473278200896,42.97473278200896 0 0,0 -0.07943715334308979,0.7354893822796309 l -21.82655384655158 -2.5476318463003254" fill="#ffcc13" stroke="none" /><path d="M 120.8583938346157 102.4346265915055 l 52.9418919846815 6.1794661205701935 a74.30131075736278,74.30131075736278 0 0,0 -0.15921175452677397,1.2690743334210013 l -52.827678720907876 -7.0898582082785895" fill="#3fffbf" stroke="none" /><path d="M 120.76222939487914 103.15116336523771 l 30.56992530951588 4.6397150749696765 a51.92001438237506,51.92001438237506 0 0,0 -0.14171257799687673,0.8824443584617707 l -30.485530977157715 -5.1652386631246525" fill="#b7ff1f" stroke="none" /><path d="M 120.70491114924044 103.5080841355445 l 23.638004571799797 4.005045384476392 a44.974896218089114,44.974896218089114 0 0,0 -0.13589605573635816,0.7621772500827337 l -23.565562073724248 -4.411341385292344" fill="#ffe815" stroke="none" /><path d="M 120.64145759157962 103.86396538481128 l 18.205651665869222 3.407996142362888 a39.52188409113196,39.52188409113196 0 0,0 -0.13093048214990877,0.6676117077019443 l -18.14429125074365 -3.7208715771327774" fill="#ff980e" stroke="none" /><path d="M 120.49622156327973 104.57218783832717 l 30.158448457851055 6.727585903386312 a51.899715621220544,51.899715621220544 0 0,0 -0.20201206586875306,0.8702626926156214 l -30.03817582605175 -7.245717253350499" fill="#b7ff1f" stroke="none" /><path d="M 120.41448212921028 104.9243191809786 l 54.68329295997531 13.190537320394682 a77.25169156342955,77.25169156342955 0 0,0 -0.3229440224208007,1.2900008376549428 l -54.44813762325945 -14.129865997447022" fill="#43ffe2" stroke="none" /><path d="M 120.23288151984713 105.62410040840565 l 20.068581652169577 5.5784302475835394 a41.829470793972476,41.829470793972476 0 0,0 -0.19880424668553862,0.692063663379293 l -19.96958476859794 -5.923051386467415" fill="#ffbb11" stroke="none" /><path d="M 120.13307415673323 105.97154293290107 l 24.7967053170776 7.3547928767700785 a46.86444611512437,46.86444611512437 0 0,0 -0.23604779620519697,0.771417855632668 l -24.66643074836627 -7.780537704954804" fill="#fbff18" stroke="none" /><path d="M 119.9155931802556 106.66101706037122 l 13.121910624470054 4.388785698882189 a34.8364004837708,34.8364004837708 0 0,0 -0.1950990530392913,0.5670491719745696 l -13.044420740487531 -4.614007573946059" fill="#ff4f07" stroke="none" /><path d="M 119.79798401119884 107.00284435728193 l 59.393952033596506 21.00853307184577 a84.0,84.0 0 0,0 -0.49390295597909306,1.3590088119754755 l -59.02352481661219 -22.027789680827375" fill="#4dd2ff" stroke="none" /><path d="M 119.41010516605496 108.01547362559984 l 28.813470925088094 11.898627765599677 a52.173601804334325,52.173601804334325 0 0,0 -0.3499333629430319,0.8271391013529864 l -28.604386580952752 -12.392841392618827" fill="#b4ff20" stroke="none" /><path d="M 119.26925614724726 108.34839909993367 l 28.35766207181784 12.285948077471955 a51.90471676527311,51.90471676527311 0 0,0 -0.362242808878521,0.8167619047123991 l -28.141978178208046 -12.772258318677041" fill="#b7ff1f" stroke="none" /><path d="M 119.12269723197855 108.67885076344098 l 23.79927543816568 10.801319358885001 a47.13568463373975,47.13568463373975 0 0,0 -0.34167845970894795,0.735945005070326 l -23.6098223616169 -11.209384431234158" fill="#f7ff18" stroke="none" /><path d="M 118.81262510543309 109.33194174019688 l 23.03518979550156 11.426531275739759 a46.71352923871474,46.71352923871474 0 0,0 -0.36352319462708466,0.7172657504536483 l -22.835087931088204 -11.821351237896101" fill="#fdff18" stroke="none" /><path d="M 118.64920377521936 109.65438752849418 l 49.9369613928097 25.851547502647563 a77.23168698721932,77.23168698721932 0 0,0 -0.6213380858119462,1.1753375009848992 l -49.484570798772864 -26.7073000187186" fill="#43ffe2" stroke="none" /><line stroke="#e1ed5e" stroke-width="0.3" x1="174.80103733775053" x2="179.2010983576182" y1="140.37084112569926" y2="142.7455964860345" /><path d="M 175.68104954172406 140.8457921977663 a86.0,86.0 0 0,1 -30.038265399797805,32.042727171017184" fill="none" id="id65" stroke="none" /><text fill="#e1ed5e" style="font-size:6.75px; font-family:Arial;" text-anchor="middle"><textPath startOffset="22.206326154141568" xlink:href="#id65">May</textPath></text><path d="M 118.48025628344425 109.97397251340804 l 22.152127555866766 11.955716845423838 a46.17252312620535,46.17252312620535 0 0,0 -0.38350367944552133,0.696170574367417 l -21.943047466969738 -12.33525793818906" fill="#fff917" stroke="none" /><path d="M 117.94076556474637 110.91462005526583 l 17.818954911837245 10.84051413206044 a41.857418363677965,41.857418363677965 0 0,0 -0.3797770614520099,0.6123215467095448 l -17.629713210717274 -11.145632010135257" fill="#ffbb11" stroke="none" /><path d="M 117.75023020441432 111.22182372390056 l 25.277734892575012 15.9807665499134 a50.905664694537975,50.905664694537975 0 0,0 -0.4746229320832918,0.7366253305862466 l -24.998907097114667 -16.4135134804211" fill="#c4ff1e" stroke="none" /><path d="M 117.55443506779139 111.5257021239791 l 17.4768073657998 11.474734162534098 a41.90713561925931,41.90713561925931 0 0,0 -0.40110495812394664,0.5995974897599236 l -17.276699302265133 -11.773868566499829" fill="#ffbc11" stroke="none" /><path d="M 117.35343817320211 111.8261652097733 l 44.60343555301544 30.396719803226343 a74.97617101951428,74.97617101951428 0 0,0 -0.7359771370675814,1.0602299577145298 l -44.07359750878572 -31.15999102312789" fill="#40ffc8" stroke="none" /><line stroke="#e1ed5e" stroke-width="0.3" x1="143.8653032363475" x2="146.44561519142675" y1="172.8068346515853" y2="177.08958963109032" /><path d="M 144.38136562736335 173.6633856474863 a86.0,86.0 0 0,1 -40.68145358897372,12.25698825130547" fill="none" id="id66" stroke="none" /><text fill="#e1ed5e" style="font-size:6.75px; font-family:Arial;" text-anchor="middle"><textPath startOffset="21.466115282336833" xlink:href="#id66">June</textPath></text><line stroke="#e1ed5e" stroke-width="0.3" x1="102.19456741930631" x2="102.32365962044197" y1="184.97166512339345" y2="189.96999836594603" /><path d="M 102.22038585953345 185.97133177190398 a86.0,86.0 0 0,1 -42.740103519485714,-10.115201625700543" fill="none" id="id67" stroke="none" /><text fill="#e1ed5e" style="font-size:6.75px; font-family:Arial;" text-anchor="middle"><textPath startOffset="22.20632615414155" xlink:href="#id67">July</textPath></text><line stroke="#e1ed5e" stroke-width="0.3" x1="58.666819895761336" x2="56.23545636021788" y1="174.27360380694188" y2="178.64263932499728" /><path d="M 58.180547188652646 175.14741091055294 a86.0,86.0 0 0,1 -31.652253787137756,-30.449443065178592" fill="none" id="id68" stroke="none" /><text fill="#e1ed5e" style="font-size:6.75px; font-family:Arial;" text-anchor="middle"><textPath startOffset="22.20632615414155" xlink:href="#id68">August</textPath></text><line stroke="#e1ed5e" stroke-width="0.3" x1="26.63291911575756" x2="22.317208475507996" y1="142.92168965132927" y2="145.44649492493687" /><path d="M 25.769776987707644 143.4266507060508 a86.0,86.0 0 0,1 -11.730757126820373,-40.83630448921669" fill="none" id="id69" stroke="none" /><text fill="#e1ed5e" style="font-size:6.75px; font-family:Arial;" text-anchor="middle"><textPath startOffset="21.46611528233685" xlink:href="#id69">September</textPath></text><line stroke="#e1ed5e" stroke-width="0.3" x1="15.007084014347285" x2="10.007500721073583" y1="101.09737516637583" y2="101.16192664675087" /><path d="M 14.007167355692545 101.11028546245083 a86.0,86.0 0 0,1 10.666146001902534,-42.60595125391555" fill="none" id="id70" stroke="none" /><text fill="#e1ed5e" style="font-size:6.75px; font-family:Arial;" text-anchor="middle"><textPath startOffset="22.20632615414155" xlink:href="#id70">October</textPath></text><line stroke="#e1ed5e" stroke-width="0.3" x1="26.266209847984243" x2="21.928928074336255" y1="57.711370442889674" y2="55.22380399835377" /><path d="M 25.398753493254645 57.213857153982495 a86.0,86.0 0 0,1 29.58750427330803,-30.492523968695096" fill="none" id="id71" stroke="none" /><text fill="#e1ed5e" style="font-size:6.75px; font-family:Arial;" text-anchor="middle"><textPath startOffset="21.46611528233685" xlink:href="#id71">November</textPath></text><line stroke="#e1ed5e" stroke-width="0.3" x1="56.762969772571076" x2="54.21961505331055" y1="26.818313649435495" y2="22.513508569990535" /><path d="M 56.25429882871897 25.957352633546506 a86.0,86.0 0 0,1 42.265352541879196,-11.944610805530505" fill="none" id="id72" stroke="none" /><text fill="#e1ed5e" style="font-size:6.75px; font-family:Arial;" text-anchor="middle"><textPath startOffset="22.20632615414155" xlink:href="#id72">December</textPath></text></svg>