<?xml version="1.0" encoding="utf-8" ?>
<svg baseProfile="full" height="300mm" version="1.1" viewBox="0,0,200,300" width="200mm" xmlns="http://www.w3.org/2000/svg" xmlns:ev="http://www.w3.org/2001/xml-events" xmlns:xlink="http://www.w3.org/1999/xlink"><defs /><rect fill="#222222" height="300" width="200" x="0" y="0" /><text fill="#FFFFFF" style="font-size:12px; font-family:Arial; font-weight:bold;" x="10" y="20">Over 10km Runs</text><text fill="#FFFFFF" style="font-size:4px; font-family:Arial" x="10" y="280">ATHLETE</text><text fill="#FFFFFF" style="font-size:9px; font-family:Arial" x="10" y="290">peiming</text><text fill="#FFFFFF" style="font-size:4px; font-family:Arial" x="120" y="280">STATISTICS</text><text fill="#FFFFFF" style="font-size:3px; font-family:Arial" x="120" y="285">Number: 1</text><text fill="#FFFFFF" style="font-size:3px; font-family:Arial" x="120" y="290">Weekly: 1.0</text><text fill="#FFFFFF" style="font-size:3px; font-family:Arial" x="141" y="285">Total: 10.3 km</text><text fill="#FFFFFF" style="font-size:3px; font-family:Arial" x="141" y="290">Avg: 10.3 km</text><text fill="#FFFFFF" style="font-size:3px; font-family:Arial" x="167" y="285">Min: 10.3 km</text><text fill="#FFFFFF" style="font-size:3px; font-family:Arial" x="167" y="290">Max: 10.3 km</text><polyline fill="none" points="160.27088649012148,215.98035624064505 161.26164078898728,215.98035624064505 164.23390368372202,213.4770778338425 166.2154122814536,211.33140961732715 167.8666694443673,206.32484681578353 168.1969208791852,203.8215635092929 168.52717231214046,202.03350322740152 168.1969208791852,197.38454345893115 167.8666694443673,194.52364296186715 168.1969208791852,192.37796650035307 167.2061665803194,183.0800243811682 166.87591514736414,180.2191155878827 166.87591514736414,178.0734329042025 166.2154122814536,175.92774928594008 165.88516084849834,171.27876491146162 165.22465798258781,168.77546381857246 164.8944065514952,166.62977615604177 164.8944065514952,162.3383980304934 165.22465798258781,160.55032271007076 165.55490941740572,158.76224674051628 165.22465798258781,156.25893929507583 164.8944065514952,149.4642412518151 164.56415511853993,143.3847666475922 164.23390368372202,140.88145139766857 164.56415511853993,138.7357515990734 164.8944065514952,134.08673216868192 164.8944065514952,132.29864660603926 165.55490941740572,126.2191508426331 164.8944065514952,124.07344466680661 165.22465798258781,122.28535547247157 165.22465798258781,120.13964758487418 165.55490941740572,116.20584736578166 165.55490941740572,114.41775532020256 165.22465798258781,112.27204400999472 164.8944065514952,110.12633176567033 164.56415511853993,105.83490447700024 164.56415511853993,103.68918943265453 164.23390368372202,101.54347345465794 163.24314938671887,97.60965840192512 162.9128979537636,95.46393977943808 161.9221436548978,94.03346017794684 161.26164078898728,91.88773999968544 158.94988076016307,88.66915798000991 157.628875028342,87.23867640830576 154.65661213174462,85.09295327262953 152.3448521029204,84.37771201971918 150.6935949381441,83.3048499468714 149.0423377752304,82.58960843458772 145.7398234475404,80.08626232622191 142.76756055094302,79.01339931925759 141.44655481912196,78.65577826555818 139.79529765620828,78.29815718485042 138.47429192438722,78.65577826555818 136.16253189370036,77.22529378859326 133.19026899896562,76.8676726045087 131.53901183605194,76.8676726045087 130.54825753718615,76.8676726045087 128.2364975064993,76.15243015950546 126.58524034172297,75.43718761019409 125.59448604285717,75.07956629712135 123.61297744698822,74.72194495704025 121.9617202822119,74.36432359134778 119.64996025338769,74.36432359134778 116.34744592569768,74.00670220050961 115.35669162683189,74.00670220050961 114.03568589501083,74.00670220050961 112.71468016318977,73.6490807835944 111.72392586618662,73.6490807835944 111.06342300027609,73.2914593401365 109.74241726845503,73.2914593401365 108.42141153663397,73.2914593401365 107.10040580667555,72.93383787106723 104.12814291007817,72.21859485469759 102.14663431234658,72.21859485469759 101.48613144829869,71.86097330786288 100.4953771494329,71.86097330786288 99.5046228505671,71.50335173588246 97.85336568765342,71.50335173588246 96.86261138878763,71.50335173588246 93.89034849219024,71.14573013642803 92.23909132741392,71.14573013642803 91.24833703041077,71.86097330786288 87.94582270085812,70.78810851136222 85.6340626720339,70.43048686161637 79.02903401479125,69.35762175358832 76.71727398596704,69.71524348203093 74.07526252232492,70.07286518393084 69.45174246281385,70.07286518393084 64.16771953739226,70.07286518393084 61.19545664265752,70.07286518393084 58.22319374792278,70.07286518393084 53.59967368841171,70.07286518393084 49.30640505999327,71.50335173588246 46.99464503116906,72.21859485469759 44.6828850004822,73.2914593401365 43.03162783756852,74.00670220050961 40.719867806881666,76.15243015950546 39.06861064210534,79.72864135028794 37.41735347919166,82.94722920330241 37.41735347919166,88.31153762619942 38.408107778057456,89.38439861033112 38.73835921101272,91.17249973164871 39.39886207692325,92.60298016201705 40.059364940971136,96.89441896462813 40.059364940971136,98.68251736368984 40.719867806881666,101.18585403263569 41.05011923983693,102.9739508763887 41.05011923983693,106.55014261743054 40.3896163739264,109.41109414305538 39.729113509878516,111.91442536748946 39.39886207692325,114.0601368341595 38.73835921101272,117.63632053555921 38.077856343239546,119.42441141465679 37.747604912146926,120.85488365124911 36.75685061328113,128.0072386097163 35.76609631627798,131.2257949570194 35.105593448504806,134.08673216868192 34.445090582594275,139.80860161501914 33.78458771854639,141.59668445494026 33.78458771854639,143.74238300789148 33.124084850773215,145.88808062765747 33.454336285591125,149.82185717159882 33.124084850773215,151.9675521464087 32.793833419680595,153.75563057884574 33.454336285591125,155.90132384188473 33.454336285591125,157.6894008484669 33.78458771854639,159.47747720591724 34.114839151501656,160.1927075679414 34.114839151501656,161.6231679804623 34.445090582594275,163.05362797761336 34.775342017412186,164.12647270364687 35.105593448504806,165.55693197483197 35.43584488146007,168.06023470172659 36.0963477473706,170.92115054791793 36.0963477473706,171.99399356218055 36.0963477473706,173.424450552091 36.75685061328113,176.28536328626797 37.41735347919166,177.35820513404906 37.41735347919166,178.0734329042025 38.077856343239546,179.503888130188 38.408107778057456,180.93434294126928 39.06861064210534,182.00718377856538 39.729113509878516,183.79525132058188 41.38037067465484,186.65615804027766 41.71062210574746,189.159450057894 41.38037067465484,192.73557930905372 41.71062210574746,195.95409341715276 41.05011923983693,198.81499308440834 40.719867806881666,200.60305453417823 40.3896163739264,202.03350322740152 40.059364940971136,203.8215635092929 39.729113509878516,205.6096231439151 39.06861064210534,208.11290554283187 38.73835921101272,209.90096362121403 38.077856343239546,211.33140961732715 37.747604912146926,212.76185519853607 37.747604912146926,213.8346891128458 37.747604912146926,214.90752279339358 37.747604912146926,218.48363337665796 38.077856343239546,219.91407688427716 38.408107778057456,221.34451997606084 39.06861064210534,222.77496265340596 40.3896163739264,225.27823634119704 42.040873538702726,225.99345716182142 43.36187927052379,227.0662881974131 45.01313643530011,227.78150875819847 46.66439359821379,227.42389849107713 47.98539932817221,227.78150875819847 49.63665649294853,227.78150875819847 50.62741079181433,228.13911899970844 52.27866795659065,227.78150875819847 53.92992511950433,227.78150875819847 55.25093085132539,227.78150875819847 56.57193658314645,227.42389849107713 58.22319374792278,227.42389849107713 61.52570807561278,227.42389849107713 62.846713807433844,227.42389849107713 64.16771953739226,227.42389849107713 66.14922813512385,227.78150875819847 68.1307367309928,227.42389849107713 69.78199389576912,227.78150875819847 72.09375392645597,227.0662881974131 73.74501108936965,227.0662881974131 76.05677112005651,227.0662881974131 77.70802828297019,227.0662881974131 78.69878258183599,227.0662881974131 80.01978831551969,227.0662881974131 82.99205121025443,227.0662881974131 84.64330837503076,227.78150875819847 87.61557126790285,228.13911899970844 88.93657700158656,227.78150875819847 89.9273312985897,227.78150875819847 92.89959419332445,227.42389849107713 95.2113542240113,227.42389849107713 96.86261138878763,227.78150875819847 98.51386855170131,227.78150875819847 101.81638288125396,227.42389849107713 105.44914864189923,227.78150875819847 107.10040580667555,228.13911899970844 108.42141153663397,228.49672921560705 110.73317156732082,228.49672921560705 112.3844287302345,228.49672921560705 113.70543446205556,228.49672921560705 115.35669162683189,227.78150875819847 116.67769735865295,227.78150875819847 117.66845165751874,227.42389849107713 118.65920595638454,227.0662881974131 120.9709659833461,226.70867787860334 122.29197171702981,226.70867787860334 122.9524745810777,226.35106753278524 124.60373174399137,226.35106753278524 125.26423461176455,225.99345716182142 125.26423461176455,225.63584676478058 125.26423461176455,225.63584676478058 127.57599464058876,225.99345716182142 128.2364975064993,224.56301541719586 129.88775467127562,223.1325732585974 130.54825753718615,222.41735202353448 131.20876040123403,221.70213068369776 134.51127473078668,220.2716876952909 137.15328619256616,219.5564660448581 141.11630338802934,218.12602243432775 143.09781198389828,217.76841146778315 144.7490691486746,217.41080047329888 146.4003263115883,217.41080047329888 151.68434923700988,216.6955784088932 158.28937789425254,214.90752279339358 160.60113792307675,213.8346891128458 162.58264652080834,212.40424384269863 164.56415511853993,210.61618667142466 167.2061665803194,206.32484681578353 168.1969208791852,201.67589109251276 167.53641801327467,199.53021774301305 167.53641801327467,197.74215590395033 167.2061665803194,196.31170596648008 166.54566371627152,191.30512792011723 165.88516084849834,188.4442238966003 165.88516084849834,185.58331821439788 165.55490941740572,179.14627436222509 165.55490941740572,175.21252120565623 164.8944065514952,170.56353615783155 164.8944065514952,169.13307833811268 164.56415511853993,166.98739083111286 164.8944065514952,162.69601301755756 164.8944065514952,160.9079378261231 164.8944065514952,158.76224674051628 164.8944065514952,156.61655472265556 164.8944065514952,152.68278359714895 164.23390368372202,149.4642412518151 164.23390368372202,148.03377731330693 164.56415511853993,146.60331295989454 163.57340081967413,143.74238300789148 164.23390368372202,141.59668445494026 164.56415511853993,139.80860161501914 164.56415511853993,137.66290135029703 165.22465798258781,131.94102941500023 165.22465798258781,129.08009095909074 165.22465798258781,126.2191508426331 164.8944065514952,121.57011961378157 164.8944065514952,118.70917514106259 164.56415511853993,115.84822900872678 164.56415511853993,104.40442788321525 164.23390368372202,102.25871221674606 162.9128979537636,97.60965840192512 161.59189222194254,94.39108011778444 158.94988076016307,90.09963913587853 156.96837216243148,87.23867640830576 148.71208634227514,81.87436681892723 147.06082917749882,80.44388327607885 142.43730911798775,78.65577826555818 140.4558005221188,77.5829149466008 138.47429192438722,76.51005139574409 131.8692632690072,75.07956629712135 127.57599464058876,74.36432359134778 126.2549889087677,74.72194495704025 124.93398317880929,74.00670220050961 123.94322887994349,74.00670220050961 121.63146885111928,74.36432359134778 120.31046311929822,74.36432359134778 118.65920595638454,74.00670220050961 117.66845165751874,73.6490807835944 115.35669162683189,72.93383787106723 114.03568589501083,73.2914593401365 113.04493159614503,73.2914593401365 112.05417729914188,73.2914593401365 110.73317156732082,73.2914593401365 109.41216583549976,73.2914593401365 107.76090867072344,72.93383787106723 107.10040580667555,72.57621637638658 102.14663431234658,72.21859485469759 99.5046228505671,72.21859485469759 97.85336568765342,71.86097330786288 96.2021085228771,71.86097330786288 95.2113542240113,72.21859485469759 92.23909132741392,71.50335173588246 90.58783416263759,71.86097330786288 89.59707986563444,71.86097330786288 88.27607413567603,71.50335173588246 86.95506840199232,71.50335173588246 84.97355980612338,71.50335173588246 83.98280550725758,71.50335173588246 81.01054261252284,71.50335173588246 79.02903401479125,71.86097330786288 76.38702255301178,71.50335173588246 74.07526252232492,71.50335173588246 71.76350249163806,71.14573013642803 69.12149102985859,71.14573013642803 68.79123959690332,71.86097330786288 65.48872526921332,71.50335173588246 58.88369661197066,71.86097330786288 57.23243944905698,71.86097330786288 55.58118228428066,71.86097330786288 51.94841652363539,71.50335173588246 50.62741079181433,71.50335173588246 47.65514789707959,72.21859485469759 46.33414216525853,73.2914593401365 45.01313643530011,73.6490807835944 42.040873538702726,75.43718761019409 40.059364940971136,77.9405360785313 39.39886207692325,79.01339931925759 39.06861064210534,80.44388327607885 37.747604912146926,83.6624706638977 37.747604912146926,88.31153762619942 39.06861064210534,91.17249973164871 39.39886207692325,93.31822022236884 40.719867806881666,97.25203869584948 41.05011923983693,99.75537609215826 40.719867806881666,104.76204707100987 40.059364940971136,107.26538065448403 39.06861064210534,114.41775532020256 38.077856343239546,117.27870228234679 37.41735347919166,119.78202951233834 36.75685061328113,124.78868016134948 36.426599180325866,127.2920035799034 36.0963477473706,129.79532572859898 34.775342017412186,135.15958319604397 34.114839151501656,139.09336829651147 34.445090582594275,141.59668445494026 34.445090582594275,144.4576156521216 34.114839151501656,149.10662530642003 33.454336285591125,155.90132384188473 32.793833419680595,158.0470161717385 33.124084850773215,163.4112429120578 33.124084850773215,165.9145467276685 34.114839151501656,170.56353615783155 34.775342017412186,172.709222109057 35.105593448504806,174.8549071266316 36.0963477473706,177.35820513404906 39.06861064210534,188.4442238966003 39.729113509878516,191.30512792011723 40.719867806881666,195.59648084267974 40.3896163739264,197.74215590395033 39.729113509878516,199.88783003157005 39.39886207692325,201.67589109251276 38.73835921101272,205.96723499242216 37.087102046236396,212.76185519853607 37.41735347919166,216.33796733710915 37.747604912146926,218.12602243432775 38.077856343239546,219.5564660448581 39.06861064210534,222.77496265340596 41.05011923983693,223.8477943893522 41.71062210574746,224.56301541719586 43.03162783756852,225.63584676478058 44.6828850004822,226.70867787860334 47.65514789707959,228.49672921560705 49.30640505999327,228.49672921560705 53.92992511950433,228.49672921560705 55.25093085132539,228.49672921560705 57.56269088201225,227.78150875819847 59.87445091083646,227.42389849107713 61.19545664265752,227.42389849107713 63.17696524038911,227.78150875819847 68.1307367309928,227.0662881974131 72.7542567923665,227.42389849107713 74.40551395528018,227.42389849107713 76.05677112005651,227.42389849107713 77.37777685001493,227.78150875819847 79.02903401479125,227.78150875819847 82.00129691138864,227.78150875819847 83.65255407616496,227.42389849107713 84.97355980612338,227.42389849107713 86.29456553794444,227.42389849107713 87.94582270085812,227.42389849107713 89.59707986563444,227.42389849107713 90.9180855974555,227.78150875819847 94.2205999251455,227.42389849107713 95.54160565696657,227.42389849107713 97.19286281988025,227.42389849107713 98.51386855170131,227.42389849107713 103.46764004603028,227.42389849107713 104.7886457759887,227.0662881974131 106.43990294076502,227.42389849107713 109.0819144025445,227.78150875819847 110.40292013250291,228.13911899970844 112.05417729914188,228.49672921560705 115.35669162683189,228.13911899970844 116.67769735865295,227.42389849107713 117.99870308861136,227.0662881974131 119.31970882043242,226.35106753278524 120.64071455225348,225.63584676478058 123.28272601403296,224.20540491584688 125.92473747767508,224.20540491584688 125.59448604285717,227.0662881974131 124.93398317880929,227.42389849107713 124.60373174399137,227.42389849107713 124.27348031289876,227.42389849107713 124.27348031289876,227.42389849107713 123.94322887994349,227.78150875819847 124.60373174399137,227.42389849107713 123.94322887994349,227.0662881974131 124.60373174399137,226.70867787860334 126.58524034172297,225.27823634119704 128.2364975064993,224.20540491584688 129.88775467127562,223.1325732585974 131.53901183605194,222.41735202353448 135.50202902965248,220.62929848069325 136.8230347596109,219.91407688427716 142.10705768689513,218.48363337665796 145.07932058162987,217.76841146778315 147.39108061045408,217.41080047329888 152.67510353587568,217.41080047329888 155.3171149995178,217.0531894536689 159.28013219311833,215.62274511763826 161.9221436548978,214.19230036530644 165.22465798258781,210.61618667142466 167.53641801327467,195.95409341715276 166.87591514736414,193.45080484822392 166.2154122814536,190.58990206941962 165.88516084849834,185.9409315153025 165.88516084849834,183.0800243811682 165.55490941740572,180.93434294126928 165.88516084849834,178.78866056818515 165.55490941740572,173.78206473449245 165.22465798258781,171.99399356218055 165.22465798258781,169.848307300359 165.22465798258781,167.34500548057258 165.55490941740572,162.69601301755756 165.55490941740572,160.9079378261231 165.55490941740572,158.40463146893308 165.88516084849834,156.61655472265556 164.8944065514952,151.60993638215587 165.22465798258781,144.8152319341898 164.8944065514952,139.45098496880382 164.8944065514952,137.3052845490165 164.8944065514952,134.80196621268988 164.8944065514952,130.51056039473042 164.8944065514952,126.2191508426331 165.22465798258781,124.43106242734939 165.22465798258781,121.92773755593225 164.8944065514952,120.13964758487418 164.23390368372202,116.92108400305733 164.56415511853993,113.70251832017675 164.56415511853993,110.48395053809509 164.23390368372202,105.4772853674367 164.23390368372202,102.9739508763887 163.9036522526294,100.47061511455104 163.57340081967413,98.32489773537964 161.9221436548978,94.39108011778444 159.94063505902886,90.4572593611665 158.94988076016307,88.66915798000991 158.28937789425254,87.59629683988169 155.97761786356568,85.80819442216307 154.65661213174462,84.7353326594457 153.66585783474147,84.37771201971918 152.67510353587568,83.6624706638977 150.36334350705147,82.23198764072731 149.37258920818567,81.87436681892723 147.72133204340935,81.51674597198144 146.7305777464062,80.80150420079008 145.07932058162987,80.44388327607885 143.42806341685355,79.37102034734562 142.10705768689513,79.37102034734562 139.79529765620828,78.65577826555818 137.15328619256616,77.9405360785313 135.8322804607451,77.5829149466008 134.51127473078668,77.22529378859326 133.5205204319209,76.51005139574409 132.5297661330551,76.15243015950546 131.20876040123403,76.15243015950546 129.55750323832035,75.79480889812112 125.26423461176455,75.07956629712135 123.94322887994349,74.36432359134778 122.29197171702981,74.00670220050961 121.30121741816401,73.6490807835944 119.64996025338769,73.6490807835944 117.99870308861136,73.2914593401365 116.67769735865295,72.57621637638658 113.04493159614503,72.21859485469759 109.74241726845503,71.86097330786288 109.0819144025445,72.21859485469759 108.09116010554135,72.21859485469759 105.11889720894396,71.50335173588246 104.7886457759887,71.50335173588246 103.13738861121237,71.14573013642803 102.14663431234658,71.50335173588246 100.4953771494329,71.14573013642803 98.84411998465657,71.14573013642803 97.85336568765342,70.78810851136222 94.55085135810077,70.43048686161637 92.89959419332445,70.43048686161637 91.9088398963213,70.43048686161637 90.58783416263759,70.43048686161637 89.26682843267918,70.43048686161637 88.27607413567603,70.43048686161637 86.6248169708997,70.43048686161637 82.66179977729917,70.43048686161637 81.67104547843337,69.71524348203093 79.35928544774652,70.07286518393084 78.0382797177881,69.71524348203093 75.72651968710124,70.07286518393084 70.44249676167965,70.78810851136222 68.79123959690332,70.43048686161637 67.47023386694491,70.43048686161637 66.14922813512385,70.07286518393084 64.82822240516543,70.07286518393084 61.85595950856805,70.07286518393084 60.53495377674699,69.71524348203093 59.54419947788119,70.07286518393084 58.22319374792278,70.07286518393084 56.57193658314645,70.07286518393084 54.2601765524596,69.71524348203093 52.60891938954592,69.71524348203093 47.98539932817221,70.43048686161637 46.66439359821379,71.14573013642803 43.36187927052379,74.00670220050961 42.040873538702726,74.72194495704025 41.05011923983693,76.15243015950546 39.39886207692325,78.65577826555818 38.408107778057456,81.51674597198144 38.077856343239546,82.58960843458772 38.077856343239546,84.02009135484695 38.077856343239546,89.02677830820903 38.73835921101272,90.81487955944613 39.06861064210534,92.60298016201705 39.729113509878516,94.03346017794684 40.3896163739264,95.46393977943808 41.38037067465484,98.32489773537964 41.05011923983693,99.04013696638867 40.719867806881666,100.47061511455104 41.05011923983693,101.54347345465794 41.05011923983693,102.25871221674606 41.38037067465484,105.83490447700024 41.05011923983693,107.62299963459373 41.05011923983693,109.05347529286519 40.3896163739264,110.84156928397715 40.059364940971136,112.62966262595728 39.06861064210534,115.49061062606052 38.408107778057456,119.06679329136387 37.747604912146926,120.13964758487418 37.747604912146926,121.21250164462253 38.077856343239546,122.64297336293384 37.747604912146926,125.14629787113518 37.087102046236396,126.57676844811067 36.426599180325866,127.64962110761553 35.76609631627798,130.8681776886806 35.43584488146007,132.29864660603926 34.775342017412186,137.66290135029703 34.114839151501656,139.09336829651147 33.78458771854639,141.2390679391101 33.78458771854639,142.66953384736553 33.454336285591125,146.2456968058832 33.78458771854639,146.96092908736318 34.114839151501656,148.39139333646744 33.78458771854639,151.9675521464087 34.114839151501656,155.5437083626166 34.114839151501656,157.33178549911827 34.445090582594275,158.76224674051628 34.114839151501656,160.55032271007076 34.445090582594275,162.3383980304934 34.445090582594275,165.1993171959184 34.114839151501656,166.98739083111286 34.114839151501656,168.4178492729552 33.78458771854639,170.2059217421338 33.78458771854639,171.6363792498596 34.445090582594275,174.49729302199557 34.445090582594275,175.92774928594008 34.775342017412186,177.35820513404906 36.426599180325866,180.2191155878827 37.087102046236396,181.64957019221038 37.747604912146926,182.72241087211296 38.077856343239546,184.152864751406 38.73835921101272,185.58331821439788 39.06861064210534,187.0137712629512 39.39886207692325,187.0137712629512 40.3896163739264,189.51706309989095 40.3896163739264,193.80841757869348 40.059364940971136,195.23886824119836 40.059364940971136,196.31170596648008 39.729113509878516,197.38454345893115 39.729113509878516,198.81499308440834 39.06861064210534,200.24544229591265 38.73835921101272,201.31827893201262 38.408107778057456,203.8215635092929 38.077856343239546,205.96723499242216 37.747604912146926,207.75529384892434 37.747604912146926,209.18574046716094 37.41735347919166,210.97379815764725 36.426599180325866,214.19230036530644 36.75685061328113,218.48363337665796 36.75685061328113,219.5564660448581 36.75685061328113,220.62929848069325 37.747604912146926,222.77496265340596 39.39886207692325,224.56301541719586 40.719867806881666,225.27823634119704 41.71062210574746,225.99345716182142 46.00389073230326,228.13911899970844 47.32489646412432,228.49672921560705 51.61816509068012,228.49672921560705 52.93917082250118,228.49672921560705 54.59042798727751,228.85433940496296 55.91143371723592,228.85433940496296 56.90218801610172,228.85433940496296 58.22319374792278,228.49672921560705 59.21394804678857,227.78150875819847 64.16771953739226,228.49672921560705 65.48872526921332,228.85433940496296 68.4609881658107,228.85433940496296 70.11224532872438,228.85433940496296 71.43325106054544,228.85433940496296 74.40551395528018,228.85433940496296 79.02903401479125,228.85433940496296 82.33154834248126,228.49672921560705 84.97355980612338,228.49672921560705 86.29456553794444,228.49672921560705 87.94582270085812,228.85433940496296 88.93657700158656,228.85433940496296 90.58783416263759,228.85433940496296 91.9088398963213,228.49672921560705 94.55085135810077,228.85433940496296 95.54160565696657,228.85433940496296 97.19286281988025,228.85433940496296 98.51386855170131,228.85433940496296 100.4953771494329,228.85433940496296 101.81638288125396,228.85433940496296 106.10965150780976,229.56955970730633 107.10040580667555,229.9271698188968 109.74241726845503,230.2847799048759 111.72392586618662,230.6423899657093 113.70543446205556,230.2847799048759 115.02644019387662,230.2847799048759 119.64996025338769,228.85433940496296 121.9617202822119,227.42389849107713 122.62222314812243,226.70867787860334 123.94322887994349,225.99345716182142 123.94322887994349,224.9206258924678 123.94322887994349,224.56301541719586 122.62222314812243,228.13911899970844 124.27348031289876,226.70867787860334 124.93398317880929,225.99345716182142 125.59448604285717,225.63584676478058 125.59448604285717,225.27823634119704 125.59448604285717,225.63584676478058 126.2549889087677,224.9206258924678 126.58524034172297,224.56301541719586 127.57599464058876,224.20540491584688 128.89700037240982,223.1325732585974 129.88775467127562,222.77496265340596 131.20876040123403,222.05974136665463 133.19026899896562,220.98690924188122 133.5205204319209,220.2716876952909 134.51127473078668,220.2716876952909 135.1717775966972,219.5564660448581 135.8322804607451,219.5564660448581 137.48353762552142,218.84124429291114 139.465046223253,218.12602243432775 142.76756055094302,217.76841146778315 144.4188177138567,217.0531894536689 147.39108061045408,217.0531894536689 148.71208634227514,217.76841146778315 150.03309207223356,217.76841146778315 153.3356064017862,217.41080047329888 154.65661213174462,217.41080047329888 158.94988076016307,215.26513396855444 160.27088649012148,214.19230036530644 161.59189222194254,212.76185519853607 162.9128979537636,212.04663245985284 164.8944065514952,210.61618667142466 165.22465798258781,208.47051720973104 166.2154122814536,207.39768212940544 166.54566371627152,204.17917548771948 167.53641801327467,202.74872741755098 167.2061665803194,201.67589109251276 167.53641801327467,198.45738071762025 167.53641801327467,197.74215590395033 167.2061665803194,196.66931848973036 166.54566371627152,193.09319209121168 166.2154122814536,192.0203536665067 166.54566371627152,190.58990206941962 166.54566371627152,189.159450057894 166.87591514736414,184.86809153435752 166.2154122814536,183.43763786414638 165.55490941740572,182.00718377856538 165.55490941740572,179.503888130188 165.55490941740572,178.0734329042025 165.22465798258781,176.6429772619158 165.22465798258781,173.78206473449245 164.56415511853993,171.6363792498596 164.56415511853993,170.2059217421338 164.23390368372202,168.77546381857246 164.8944065514952,167.34500548057258 164.8944065514952,165.9145467276685 164.8944065514952,164.12647270364687 164.8944065514952,163.76885782089084 165.22465798258781,160.55032271007076 165.88516084849834,159.1198619864881 165.88516084849834,158.40463146893308 166.54566371627152,155.5437083626166 165.88516084849834,152.68278359714895 165.55490941740572,150.89470477588475 165.55490941740572,149.4642412518151 164.8944065514952,148.03377731330693 164.8944065514952,146.60331295989454 163.9036522526294,142.3119174093008 163.57340081967413,140.52383482875302 163.57340081967413,136.5900508677587 163.9036522526294,134.80196621268988 164.23390368372202,131.94102941500023 164.23390368372202,129.43770835595205 164.23390368372202,121.92773755593225 164.23390368372202,119.42441141465679 163.57340081967413,115.84822900872678 163.24314938671887,114.0601368341595 163.24314938671887,112.9872812172398 162.9128979537636,111.91442536748946 162.9128979537636,110.48395053809509 162.58264652080834,107.62299963459373 162.58264652080834,106.55014261743054 162.9128979537636,105.4772853674367 162.9128979537636,104.04680867074057 162.58264652080834,102.25871221674606 162.25239508785307,100.82823458639905 160.93138935789466,94.39108011778444 159.94063505902886,91.88773999968544 157.29862359538674,87.59629683988169 153.66585783474147,84.02009135484695 146.7305777464062,80.44388327607885 145.07932058162987,79.37102034734562 140.4558005221188,77.22529378859326 138.47429192438722,77.22529378859326 137.48353762552142,76.8676726045087 135.50202902965248,76.8676726045087 134.84152616374195,75.79480889812112 133.85077186487615,75.79480889812112 132.5297661330551,75.79480889812112 131.20876040123403,75.79480889812112 129.22725180536509,75.79480889812112 126.91549177654088,74.72194495704025 126.2549889087677,74.72194495704025 125.59448604285717,74.72194495704025 124.60373174399137,74.72194495704025 123.94322887994349,74.36432359134778 122.9524745810777,74.36432359134778 121.63146885111928,74.00670220050961 120.9709659833461,73.6490807835944 120.31046311929822,73.6490807835944 119.98021168634295,73.2914593401365 118.65920595638454,73.2914593401365 117.66845165751874,73.2914593401365 117.00794879160821,72.93383787106723 116.01719449087977,72.57621637638658 115.02644019387662,72.57621637638658 114.3659373279661,72.21859485469759 113.04493159614503,72.21859485469759 112.05417729914188,72.21859485469759 111.06342300027609,72.21859485469759 110.40292013250291,72.21859485469759 109.41216583549976,71.86097330786288 109.0819144025445,71.86097330786288 108.42141153663397,71.86097330786288 107.43065723776817,71.86097330786288 106.43990294076502,71.86097330786288 105.11889720894396,71.86097330786288 104.12814291007817,71.50335173588246 102.80713717825711,71.50335173588246 101.48613144829869,71.14573013642803 100.82562858238816,70.78810851136222 99.17437141761184,70.78810851136222 98.18361711874604,71.14573013642803 96.86261138878763,70.78810851136222 95.87185708992183,70.78810851136222 95.54160565696657,70.78810851136222 94.2205999251455,70.78810851136222 93.89034849219024,70.78810851136222 92.89959419332445,70.78810851136222 91.9088398963213,70.78810851136222 90.9180855974555,70.43048686161637 90.25758273154497,70.78810851136222 89.59707986563444,70.78810851136222 88.93657700158656,70.78810851136222 86.6248169708997,70.43048686161637 85.96431410498917,70.43048686161637 85.30381123907864,70.43048686161637 84.31305694021285,70.43048686161637 83.65255407616496,70.43048686161637 83.32230264134705,70.78810851136222 82.66179977729917,70.43048686161637 82.00129691138864,70.78810851136222 81.01054261252284,70.43048686161637 80.35003974661231,70.43048686161637 79.35928544774652,70.07286518393084 79.02903401479125,70.07286518393084 77.37777685001493,70.43048686161637 76.71727398596704,70.07286518393084 76.38702255301178,70.43048686161637 75.72651968710124,70.43048686161637 75.06601682119071,70.43048686161637 74.07526252232492,70.78810851136222 73.41475965641439,70.78810851136222 72.7542567923665,70.78810851136222 72.42400535941124,70.78810851136222 71.43325106054544,70.78810851136222 70.44249676167965,71.14573013642803 70.11224532872438,71.14573013642803 69.12149102985859,70.78810851136222 67.80048529803753,70.43048686161637 67.80048529803753,70.07286518393084 67.80048529803753,70.07286518393084 67.47023386694491,70.07286518393084 67.139982432127,70.07286518393084 66.47947956807911,69.71524348203093 67.139982432127,70.07286518393084 66.80973100103438,69.71524348203093 66.47947956807911,70.07286518393084 66.80973100103438,70.07286518393084 66.80973100103438,70.43048686161637 65.81897670216858,71.14573013642803 64.82822240516543,70.78810851136222 64.16771953739226,70.07286518393084 62.846713807433844,70.43048686161637 62.18621094152331,70.43048686161637 60.86520520970225,70.78810851136222 60.20470234565437,70.78810851136222 59.87445091083646,70.78810851136222 59.54419947788119,70.78810851136222 58.88369661197066,71.14573013642803 57.56269088201225,70.78810851136222 56.57193658314645,70.43048686161637 56.24168515019119,70.43048686161637 55.25093085132539,70.43048686161637 54.2601765524596,70.43048686161637 53.92992511950433,70.43048686161637 52.60891938954592,70.07286518393084 51.94841652363539,70.07286518393084 51.61816509068012,70.07286518393084 50.95766222476959,70.07286518393084 48.97615362890065,70.43048686161637 48.64590219594538,70.43048686161637 45.34338786639273,72.57621637638658 42.37112497165799,74.72194495704025 41.38037067465484,76.51005139574409 40.719867806881666,77.5829149466008 39.729113509878516,79.72864135028794 39.729113509878516,80.44388327607885 39.39886207692325,81.51674597198144 38.73835921101272,83.3048499468714 38.408107778057456,84.37771201971918 38.077856343239546,85.45057386020198 38.077856343239546,86.52343546692282 38.077856343239546,87.23867640830576 38.73835921101272,87.95391724584624 38.73835921101272,89.38439861033112 39.06861064210534,91.53011987823993 39.729113509878516,93.31822022236884 40.059364940971136,93.67584021342918 40.059364940971136,95.10631991783157 40.719867806881666,95.46393977943808 41.05011923983693,96.53679920826107 40.719867806881666,97.60965840192512 41.05011923983693,98.68251736368984 41.38037067465484,100.47061511455104 41.38037067465484,101.54347345465794 41.38037067465484,102.25871221674606 41.38037067465484,102.9739508763887 41.05011923983693,103.68918943265453 41.38037067465484,104.40442788321525 41.38037067465484,105.83490447700024 41.38037067465484,106.55014261743054 41.38037067465484,108.69585641752928 39.39886207692325,113.70251832017675 39.06861064210534,115.13299221592024 36.426599180325866,122.28535547247157 35.76609631627798,125.14629787113518 35.43584488146007,127.64962110761553 34.775342017412186,132.6562637705356 34.445090582594275,135.15958319604397 32.793833419680595,142.66953384736553 32.46358198672533,145.17284819111228 32.46358198672533,147.67616126406938 32.46358198672533,154.470861769747 32.46358198672533,157.33178549911827 32.133330553770065,160.1927075679414 32.793833419680595,166.62977615604177 33.454336285591125,175.21252120565623 34.445090582594275,180.2191155878827 35.76609631627798,182.36479733791202 38.077856343239546,188.4442238966003 38.73835921101272,191.30512792011723 39.06861064210534,197.02693098736927 39.06861064210534,199.53021774301305 38.408107778057456,202.39111533481628 36.75685061328113,208.11290554283187 36.426599180325866,210.61618667142466 36.0963477473706,216.6955784088932 38.408107778057456,221.70213068369776 41.05011923983693,225.27823634119704 45.01313643530011,227.42389849107713 47.65514789707959,228.13911899970844 53.26942225545645,228.85433940496296 55.58118228428066,229.21194956917316 58.22319374792278,229.21194956917316 63.17696524038911,229.21194956917316 65.48872526921332,229.21194956917316 77.37777685001493,230.2847799048759 83.98280550725758,230.2847799048759 86.95506840199232,230.2847799048759 98.84411998465657,230.2847799048759 101.48613144829869,230.2847799048759 106.77015437185764,231.0 112.3844287302345,230.6423899657093 115.35669162683189,229.9271698188968 120.9709659833461,227.78150875819847 123.61297744698822,226.70867787860334 127.90624607540667,224.20540491584688 129.88775467127562,222.77496265340596 133.85077186487615,220.62929848069325 136.16253189370036,219.91407688427716 138.80454335734248,218.84124429291114 143.7583148498088,217.76841146778315 146.07007487863302,217.76841146778315 149.0423377752304,217.41080047329888 157.29862359538674,215.26513396855444 159.61038362421095,213.8346891128458 163.9036522526294,209.90096362121403 166.54566371627152,205.6096231439151 167.2061665803194,200.60305453417823 166.54566371627152,197.74215590395033 165.55490941740572,188.80183698982 165.55490941740572,183.43763786414638 165.22465798258781,177.71581903193146 164.8944065514952,171.6363792498596 165.22465798258781,169.49069283157587 165.22465798258781,167.34500548057258 164.8944065514952,161.98078301828355 164.8944065514952,159.835092399735 165.22465798258781,157.33178549911827 165.22465798258781,155.1860928577371 164.8944065514952,149.82185717159882 164.56415511853993,141.2390679391101 164.23390368372202,135.15958319604397 164.56415511853993,127.64962110761553 164.8944065514952,125.14629787113518 164.56415511853993,120.497265631333 164.56415511853993,118.3515569656156 163.9036522526294,112.27204400999472 164.56415511853993,109.41109414305538 164.56415511853993,107.26538065448403 164.23390368372202,101.9010928478092 162.9128979537636,97.25203869584948 161.9221436548978,94.39108011778444 160.60113792307675,92.24536009319127 160.27088649012148,90.81487955944613 158.6196293272078,88.66915798000991 152.67510353587568,84.02009135484695 150.6935949381441,82.94722920330241 138.80454335734248,76.8676726045087 136.8230347596109,75.79480889812112 132.5297661330551,75.07956629712135 130.21800610236824,74.36432359134778 127.57599464058876,73.6490807835944 122.9524745810777,72.93383787106723 120.9709659833461,72.93383787106723 118.65920595638454,72.57621637638658 116.67769735865295,72.21859485469759 112.71468016318977,71.50335173588246 110.40292013250291,71.50335173588246 108.42141153663397,71.50335173588246 104.12814291007817,70.78810851136222 102.14663431234658,70.78810851136222 100.16512571647763,70.43048686161637 95.54160565696657,69.71524348203093 93.89034849219024,70.43048686161637 86.95506840199232,69.71524348203093 79.02903401479125,69.71524348203093 74.40551395528018,69.71524348203093 71.43325106054544,69.35762175358832 68.4609881658107,69.35762175358832 56.57193658314645,69.0 47.32489646412432,71.50335173588246 45.01313643530011,72.93383787106723 41.05011923983693,76.51005139574409 39.729113509878516,78.65577826555818 37.747604912146926,83.6624706638977 37.747604912146926,88.31153762619942 37.747604912146926,90.09963913587853 38.408107778057456,92.24536009319127 38.408107778057456,95.10631991783157 39.06861064210534,100.11299561709166 39.06861064210534,102.9739508763887 39.06861064210534,108.33823751565069 38.73835921101272,111.19918800424784 37.41735347919166,116.20584736578166 36.426599180325866,121.57011961378157 35.76609631627798,124.43106242734939 35.43584488146007,126.57676844811067 34.445090582594275,131.58341219928116 34.114839151501656,134.44434920419008 33.78458771854639,136.94766772165895 32.793833419680595,144.8152319341898 32.46358198672533,147.31854518828914 32.133330553770065,149.82185717159882 31.472827687859535,154.82847732724622 31.472827687859535,157.33178549911827 31.472827687859535,160.55032271007076 32.133330553770065,164.84170239139348 32.793833419680595,166.62977615604177 33.78458771854639,169.49069283157587 33.78458771854639,170.56353615783155 33.78458771854639,171.6363792498596 34.445090582594275,172.709222109057 34.445090582594275,173.78206473449245 34.775342017412186,174.8549071266316 35.105593448504806,176.28536328626797 36.426599180325866,178.78866056818515 37.087102046236396,182.36479733791202 37.747604912146926,185.22570488834754 38.408107778057456,187.72899763239548 39.06861064210534,196.31170596648008 38.73835921101272,199.17260542605072 37.747604912146926,204.89439936773852 36.426599180325866,209.90096362121403 36.0963477473706,218.12602243432775 37.41735347919166,222.77496265340596 42.70137640275061,227.0662881974131 45.673639299348,227.42389849107713 49.9669079259038,228.49672921560705 52.27866795659065,229.21194956917316 57.56269088201225,229.21194956917316 60.86520520970225,229.56955970730633 63.50721667148173,229.9271698188968 69.12149102985859,229.9271698188968 71.43325106054544,229.9271698188968 74.73576538823545,229.9271698188968 80.01978831551969,229.9271698188968 82.99205121025443,229.56955970730633 85.6340626720339,229.9271698188968 94.55085135810077,229.9271698188968 96.53235995583236,229.9271698188968 102.14663431234658,229.9271698188968 104.7886457759887,230.2847799048759 107.43065723776817,230.6423899657093 113.3751830291003,230.6423899657093 116.34744592569768,229.9271698188968 118.98945738747716,229.21194956917316 123.28272601403296,227.78150875819847 123.94322887994349,227.0662881974131 124.93398317880929,225.99345716182142 124.60373174399137,225.99345716182142 124.93398317880929,225.99345716182142 125.26423461176455,226.35106753278524 125.26423461176455,225.27823634119704 124.93398317880929,225.63584676478058 125.92473747767508,225.27823634119704 125.92473747767508,224.9206258924678 126.2549889087677,224.56301541719586 127.2457432076335,223.8477943893522 127.57599464058876,223.8477943893522 129.22725180536509,223.1325732585974 129.88775467127562,222.41735202353448 130.21800610236824,222.41735202353448 133.19026899896562,220.62929848069325 133.85077186487615,219.5564660448581 133.5205204319209,219.5564660448581 133.5205204319209,219.5564660448581 134.18102329783142,219.5564660448581 134.51127473078668,219.5564660448581 134.51127473078668,219.5564660448581 134.18102329783142,219.91407688427716 134.51127473078668,219.91407688427716 134.51127473078668,219.5564660448581 134.84152616374195,219.19885518122464 135.1717775966972,218.48363337665796 139.465046223253,218.48363337665796 144.4188177138567,217.76841146778315 152.01460066996515,217.41080047329888 154.65661213174462,217.0531894536689 158.94988076016307,214.19230036530644 161.26164078898728,212.76185519853607 164.56415511853993,208.82812885195017 166.2154122814536,204.17917548771948 166.87591514736414,201.67589109251276 166.54566371627152,193.80841757869348 166.2154122814536,190.94751500710845 165.88516084849834,188.08661077683792 165.55490941740572,182.72241087211296 165.88516084849834,179.503888130188 165.55490941740572,177.35820513404906 164.8944065514952,168.06023470172659 165.55490941740572,164.12647270364687 165.22465798258781,159.47747720591724 165.22465798258781,154.82847732724622 164.56415511853993,146.60331295989454 165.22465798258781,143.0271502607502 165.22465798258781,140.1662182342261 164.8944065514952,134.80196621268988 164.56415511853993,131.94102941500023 164.8944065514952,129.79532572859898 164.23390368372202,122.28535547247157 164.23390368372202,120.13964758487418 164.23390368372202,117.63632053555921 164.56415511853993,111.55680669797584 164.8944065514952,109.41109414305538 164.56415511853993,106.9077616496943 164.56415511853993,105.4772853674367 164.23390368372202,102.9739508763887 164.23390368372202,100.47061511455104 164.23390368372202,99.39775654207915 163.57340081967413,98.32489773537964 163.9036522526294,97.96727808238938 163.24314938671887,96.53679920826107 162.58264652080834,95.8215596145019 162.58264652080834,95.10631991783157 161.59189222194254,92.96060020616278 160.60113792307675,91.88773999968544 159.28013219311833,90.09963913587853 157.95912646129727,87.59629683988169 153.3356064017862,83.6624706638977 151.35409780591726,82.58960843458772 149.0423377752304,81.15912509988993 142.10705768689513,78.65577826555818 139.465046223253,77.5829149466008 136.8230347596109,76.8676726045087 132.86001756601036,75.43718761019409 130.54825753718615,74.72194495704025 128.89700037240982,74.36432359134778 128.2364975064993,74.36432359134778 124.27348031289876,74.36432359134778 123.94322887994349,74.00670220050961 122.29197171702981,74.00670220050961 121.9617202822119,73.6490807835944 121.30121741816401,73.6490807835944 119.98021168634295,73.6490807835944 119.64996025338769,73.6490807835944 117.99870308861136,73.6490807835944 117.00794879160821,73.2914593401365 115.02644019387662,72.93383787106723 112.05417729914188,72.93383787106723 111.72392586618662,72.57621637638658 109.41216583549976,72.21859485469759 108.75166296958923,72.21859485469759 108.42141153663397,71.86097330786288 105.77940007299185,71.50335173588246 105.44914864189923,71.14573013642803 103.46764004603028,71.14573013642803 102.47688574716449,71.14573013642803 101.81638288125396,71.14573013642803 100.16512571647763,70.78810851136222 98.84411998465657,70.78810851136222 95.54160565696657,71.14573013642803 92.23909132741392,70.78810851136222 86.6248169708997,69.71524348203093 83.98280550725758,69.71524348203093 81.34079404361546,70.07286518393084 76.05677112005651,69.71524348203093 73.74501108936965,69.35762175358832 65.48872526921332,69.0 63.17696524038911,69.0 57.89294231310487,69.0 55.58118228428066,69.35762175358832 52.93917082250118,69.35762175358832 48.31565076112747,70.78810851136222 46.00389073230326,72.21859485469759 41.38037067465484,76.15243015950546 39.729113509878516,78.29815718485042 37.41735347919166,82.58960843458772 36.75685061328113,86.88105595018715 37.41735347919166,91.88773999968544 39.729113509878516,99.39775654207915 40.059364940971136,101.54347345465794 39.39886207692325,107.9806185872294 38.408107778057456,111.91442536748946 37.087102046236396,118.70917514106259 36.75685061328113,120.85488365124911 36.0963477473706,123.35820906609297 35.76609631627798,127.64962110761553 36.0963477473706,128.3648560848087 36.426599180325866,130.8681776886806 36.0963477473706,132.29864660603926 35.76609631627798,133.37149802176282 35.43584488146007,135.15958319604397 35.43584488146007,135.87481708358973 35.105593448504806,137.3052845490165 35.105593448504806,138.02051812550053 35.105593448504806,138.7357515990734 34.445090582594275,141.59668445494026 34.114839151501656,143.0271502607502 33.454336285591125,144.4576156521216 33.78458771854639,144.8152319341898 34.114839151501656,146.2456968058832 32.46358198672533,153.04039928410202 32.46358198672533,155.1860928577371 32.46358198672533,157.33178549911827 32.46358198672533,160.1927075679414 33.124084850773215,164.84170239139348 33.124084850773215,167.34500548057258 33.454336285591125,170.2059217421338 34.775342017412186,175.21252120565623 35.76609631627798,177.35820513404906 37.747604912146926,187.0137712629512 38.408107778057456,194.8812556155026 38.408107778057456,201.67589109251276 37.41735347919166,204.89439936773852 36.0963477473706,210.61618667142466 35.43584488146007,216.6955784088932 37.087102046236396,221.34451997606084 38.73835921101272,223.49018383631483 40.3896163739264,225.27823634119704 44.6828850004822,227.78150875819847 55.58118228428066,228.13911899970844 57.56269088201225,228.49672921560705 59.87445091083646,228.85433940496296 62.51646237261593,228.85433940496296 67.80048529803753,229.56955970730633 70.11224532872438,229.56955970730633 72.7542567923665,229.56955970730633 78.36853115074337,229.9271698188968 81.34079404361546,229.21194956917316 83.98280550725758,229.21194956917316 89.59707986563444,229.56955970730633 93.89034849219024,229.21194956917316 95.54160565696657,228.85433940496296 96.86261138878763,228.85433940496296 99.83487428352237,228.85433940496296 101.15588001348078,229.21194956917316 106.43990294076502,228.49672921560705 107.43065723776817,228.49672921560705 108.42141153663397,228.85433940496296 109.74241726845503,228.85433940496296 110.73317156732082,229.21194956917316 112.05417729914188,229.56955970730633 113.04493159614503,229.56955970730633 116.01719449087977,228.85433940496296 120.31046311929822,228.13911899970844 121.9617202822119,227.42389849107713 124.27348031289876,225.99345716182142 124.27348031289876,226.35106753278524 124.27348031289876,226.35106753278524 124.27348031289876,226.70867787860334 123.61297744698822,227.0662881974131 124.27348031289876,226.70867787860334 123.61297744698822,225.99345716182142 123.28272601403296,225.99345716182142 123.28272601403296,226.35106753278524 123.94322887994349,226.35106753278524 125.26423461176455,225.27823634119704 126.91549177654088,224.56301541719586 130.21800610236824,223.49018383631483 132.19951470009983,222.41735202353448 134.51127473078668,221.70213068369776 137.15328619256616,220.98690924188122 141.77680625207722,219.5564660448581 149.0423377752304,219.5564660448581 151.35409780591726,218.84124429291114 153.66585783474147,218.12602243432775 162.9128979537636,209.18574046716094 164.23390368372202,204.53678744100034 165.22465798258781,201.31827893201262 165.22465798258781,196.31170596648008 165.22465798258781,193.80841757869348 165.55490941740572,189.159450057894 165.22465798258781,181.64957019221038 164.8944065514952,179.14627436222509 164.8944065514952,176.6429772619158 164.56415511853993,169.13307833811268 164.56415511853993,165.1993171959184 164.56415511853993,163.76885782089084 164.56415511853993,162.3383980304934 164.56415511853993,160.55032271007076 164.56415511853993,159.47747720591724 164.56415511853993,158.40463146893308 164.23390368372202,158.0470161717385 164.23390368372202,156.97417012322694 164.8944065514952,154.82847732724622 164.8944065514952,152.32516788458452 164.56415511853993,151.25232059229165 163.9036522526294,150.17947306623682 163.9036522526294,147.67616126406938 163.9036522526294,146.96092908736318 163.9036522526294,145.5304644224234" stroke="#4DD2FF" stroke-linecap="round" stroke-linejoin="round" stroke-width="0.5"><title>2020-09-06 10.3km</title></polyline></svg>