<?xml version="1.0" encoding="utf-8" ?>
<svg baseProfile="full" height="300mm" version="1.1" viewBox="0,0,200,300" width="200mm" xmlns="http://www.w3.org/2000/svg" xmlns:ev="http://www.w3.org/2001/xml-events" xmlns:xlink="http://www.w3.org/1999/xlink"><defs /><rect fill="#222222" height="300" width="200" x="0" y="0" /><text fill="#FFFFFF" style="font-size:12px; font-family:Arial; font-weight:bold;" x="10" y="20">Over 10km Runs</text><text fill="#FFFFFF" style="font-size:4px; font-family:Arial" x="10" y="280">ATHLETE</text><text fill="#FFFFFF" style="font-size:9px; font-family:Arial" x="10" y="290">peiming</text><text fill="#FFFFFF" style="font-size:4px; font-family:Arial" x="120" y="280">STATISTICS</text><text fill="#FFFFFF" style="font-size:3px; font-family:Arial" x="120" y="285">Number: 5</text><text fill="#FFFFFF" style="font-size:3px; font-family:Arial" x="120" y="290">Weekly: 1.0</text><text fill="#FFFFFF" style="font-size:3px; font-family:Arial" x="141" y="285">Total: 55.5 km</text><text fill="#FFFFFF" style="font-size:3px; font-family:Arial" x="141" y="290">Avg: 11.1 km</text><text fill="#FFFFFF" style="font-size:3px; font-family:Arial" x="167" y="285">Min: 10.1 km</text><text fill="#FFFFFF" style="font-size:3px; font-family:Arial" x="167" y="290">Max: 13.0 km</text><polyline fill="none" points="67.11304347810801,67.51419807347702 65.026086956379,66.98682130378438 64.22608695633244,66.91148172147223 64.05217391299084,66.87381192628527 63.25217391294427,66.23342498901184 63.11304347810801,66.04507573950104 63.07826086948626,65.78138667531312 63.25217391294427,65.48002758066286 64.05217391299084,64.38759939619922 64.26086956518702,63.93555947495042 64.67826086957939,63.445849115843885 65.1304347824771,63.219828794448404 65.65217391296756,62.767787856049836 65.96521739126183,62.39108677339391 66.59130434761755,61.82603463673149 67.00869565200992,61.33632228735951 67.35652173892595,60.88427970855264 68.2608695650706,60.13087453573826 68.57391304336488,60.017863665445475 69.02608695649542,60.05553395833704 69.44347826077137,60.28155565774068 70.90434782602824,61.90137495714589 72.29565217380878,63.257498854829464 73.30434782605153,64.34992941780365 73.93043478240725,64.83963892381871 74.1739130433416,65.14099839015398 76.33043478243053,66.87381192628527 77.09565217397176,67.62720731153968 79.1478260869626,69.51069099054439 80.85217391292099,70.9421340158151 81.82608695642557,71.8838706954266 84.08695652161259,73.65433102787938 84.5391304345103,73.91801609261893 85.65217391285114,74.85974737346987 85.93043478240725,75.23643940742477 86.0,75.57546200422803 85.96521739114542,75.7638077957672 85.68695652170572,76.06516091991216 85.33913043455686,76.63019755625282 84.81739130418282,77.1198954769352 84.50434782600496,78.0239519631723 83.59999999997672,79.56837815130712 82.38260869553778,81.0374622126983 81.89565217378549,81.90384317189455 81.75652173906565,82.61954809108283 80.92173913039733,83.52359499971499 79.98260869539808,85.14334177403362 79.28695652168244,86.12272109297919 78.93913043476641,86.68774678264163 78.79999999981374,87.13976689171977 78.27826086943969,87.96846940284013 77.96521739114542,88.26981544253067 77.26956521731336,89.28685703524388 76.95652173901908,89.55053415996372 76.50434782600496,90.11555611915537 76.33043478243053,90.22856043718639 76.22608695633244,90.26622853774461 75.98260869563092,90.19089233397972 75.80869565205649,89.96488365682308 74.76521739119198,88.79717059113318 74.03478260862175,88.15681069812854 73.23478260857519,87.59178660722682 72.92173913028091,87.13976689171977 72.67826086946297,86.98909356573131 72.01739130436908,86.65007842247724 71.63478260859847,86.38639982469613 71.18260869546793,85.97204747184878 69.99999999988358,84.76665692866663 68.64347826084122,83.67426933150273 67.5999999998603,82.92089723559911 67.46086956525687,82.77022268512519 67.35652173892595,82.43120478693163 67.28695652168244,82.31819877173984 66.6608695652103,81.90384317189455 63.04347826074809,78.58898646736634 61.82608695642557,77.5719239168393 60.99130434775725,77.1198954769352 60.39999999990687,76.66786664351821 59.182608695467934,75.46245449665003 57.09565217373893,73.65433102787938 56.3652173911687,72.82560566658503 56.12173913035076,72.86327502987115 55.982608695398085,72.97628310337313 55.2173913042061,74.40771657190635 54.173913043458015,75.46245449665003 53.617391304229386,76.14049917360535 51.460869565140456,78.47597961570136 51.00869565200992,78.73966223135358 50.76521739119198,79.00334471301176 50.452173912897706,79.60604702529963 50.27826086943969,79.8320602120657 49.791304347803816,80.28408629025216 48.71304347820114,80.99979344254825 46.5565217389958,83.52359499971499 46.31304347817786,83.86261218466097 46.06956521724351,84.31463475342025 45.72173913032748,84.69131992684561 45.4086956520332,84.80432542553172 44.991304347640835,84.35230328308535 44.95652173901908,84.20162914812681 45.13043478259351,84.05095496951253 44.74782608693931,83.63660075262305 44.50434782600496,83.03390311970725 44.330434782546945,82.84555996590643 43.70434782595839,82.5442107776471 42.93913043476641,81.97918057828792 42.41739130439237,81.5271559759858 41.54782608686946,80.66077438811772 40.991304347873665,80.32175511238165 40.53913043462671,79.90739791910164 39.878260869532824,79.4553715128568 39.356521739042364,78.96567579521798 38.83478260866832,78.40064170092228 37.26956521731336,77.15756452869391 36.782608695561066,76.89388110939763 36.46956521726679,76.85621203860501 35.9826086955145,76.25350653371424 35.8086956521729,75.91448437969666 35.495652173878625,75.57546200422803 33.96521739126183,74.21937028842513 32.12173913035076,72.37357309367508 31.46086956525687,71.84620126106893 29.96521739126183,70.90446451300522 29.44347826077137,70.22641299664974 27.982608695630915,68.75729833904188 27.66956521733664,68.53128033041139 27.32173913042061,68.41827128911973 27.00869565224275,68.19225313290372 26.76521739119198,68.11691372553469 26.521739130374044,67.81555598703562 26.313043478294276,67.36351905105403 25.33913043467328,66.45944399826112 23.773913043318316,65.29167805777979 23.356521739042364,64.83963892381871 20.991304347640835,62.654777559946524 19.5999999998603,61.524673245614395 19.321739130304195,61.33632228735951 18.939130434766412,61.29865208742558 18.765217391308397,60.88427970855264 18.417391304159537,60.50757725886069 18.34782608691603,60.13087453573826 18.417391304159537,59.98019336996367 19.11304347810801,59.377468269260135 20.19130434759427,58.2096863949555 20.399999999906868,57.79531154979486 20.01739130425267,57.60695923815365 18.834782608551905,56.62752611548058 17.756521739065647,55.49740867715445 17.6173913043458,54.63098364131292 17.269565217313357,54.32961807239917 17.234782608575188,54.14126450289041 17.165217391215265,51.57964917161735 17.060869565117173,50.86390145140467 16.817391304299235,50.374178758240305 16.43478260852862,50.110481732088374 16.15652173908893,49.959797657007584 15.460869565140456,49.88445560299442 14.904347826144658,50.072810717334505 14.452173912897706,50.4495207410946 14.1739130433416,51.05225621032878 14.104347826098092,51.654990979499416 14.243478260817938,54.32961807239917 14.313043478294276,54.66865432515624 14.48695652175229,55.00769035637495 14.765217391191982,55.34672616617172 15.14782608684618,55.53507929807529 15.565217391238548,55.648091144510545 15.843478260794654,55.68576175451744 16.504347826121375,55.459738053556066 16.78260869567748,55.30905553163029 17.095652173855342,54.932349035312654 17.234782608575188,54.706325006176485 17.304347826051526,54.10359378080466 17.20000000006985,52.74744596434175 17.130434782477096,50.901572408678476 16.921739130280912,50.4495207410946 16.713043478201143,50.22349475973169 16.295652173808776,49.959797657007584 15.599999999976717,49.846784571913304 14.869565217290074,50.03513969996129 14.521739130374044,50.33650776275317 14.208695652196184,50.86390145140467 14.069565217476338,51.353623682429316 14.208695652196184,54.32961807239917 14.417391304392368,55.08303166661062 14.730434782570228,55.42206742713461 15.18260869558435,55.648091144510545 15.66956521733664,55.723432361730374 16.121739130234346,55.68576175451744 16.43478260852862,55.53507929807529 16.85217391292099,55.27138489423669 17.130434782477096,54.89467837053235 17.304347826051526,54.404959480976686 17.234782608575188,51.730332776438445 17.20000000006985,51.24061090091709 17.060869565117173,50.67554662411567 16.747826086822897,50.22349475973169 16.1913043478271,49.959797657007584 15.66956521733664,49.846784571913304 15.113043478108011,49.959797657007584 14.695652173948474,50.185823753185105 14.382608695537783,50.562533694901504 14.243478260817938,50.86390145140467 14.104347826098092,51.39129460413824 14.208695652196184,52.408408456569305 14.243478260817938,54.254276652791305 14.313043478294276,54.706325006176485 14.417391304392368,54.932349035312654 14.66086956509389,55.23371425413643 14.904347826144658,55.459738053556066 15.391304347780533,55.648091144510545 15.843478260794654,55.68576175451744 16.365217391285114,55.53507929807529 16.886956521775573,55.15837296578684 17.095652173855342,54.89467837053235 17.269565217313357,54.51797157342662 17.304347826051526,53.9152401292522 17.20000000006985,52.93580003967509 17.20000000006985,51.4289655231114 17.060869565117173,50.71321759498096 16.817391304299235,50.33650776275317 16.469565217383206,50.110481732088374 16.05217391299084,49.922126631310675 15.565217391238548,49.922126631310675 15.113043478108011,49.997468679823214 14.626086956472136,50.29883676438476 14.347826086799614,50.63787565045641 14.1739130433416,51.05225621032878 14.104347826098092,51.50430735279224 14.243478260817938,52.82278760269401 14.243478260817938,54.21660593888373 14.278260869439691,54.63098364131292 14.382608695537783,54.89467837053235 14.66086956509389,55.27138489423669 15.00869565224275,55.49740867715445 15.391304347780533,55.610420531767886 16.05217391299084,55.610420531767886 16.60869565210305,55.3843967980647 16.921739130280912,55.12070231756661 17.20000000006985,54.66865432515624 17.33913043467328,54.254276652791305 17.33913043467328,53.72688640948036 17.20000000006985,51.31595275795553 17.095652173855342,50.75088856322691 16.85217391292099,50.374178758240305 16.469565217383206,50.072810717334505 15.947826086892746,49.88445560299442 15.530434782383963,49.846784571913304 15.00869565224275,49.997468679823214 14.66086956509389,50.22349475973169 14.313043478294276,50.67554662411567 14.139130434719846,51.08992715383647 14.104347826098092,51.39129460413824 14.1739130433416,51.99402897947584 14.1739130433416,53.61387414470664 14.243478260817938,54.36728877804126 14.417391304392368,54.857007703132695 14.626086956472136,55.19604361138772 15.078260869486257,55.49740867715445 15.530434782383963,55.648091144510545 15.982608695630915,55.610420531767886 16.504347826121375,55.42206742713461 16.817391304299235,55.19604361138772 17.130434782477096,54.819337033026386 17.269565217313357,54.404959480976686 17.269565217313357,51.91868722086656 17.20000000006985,51.01458526402712 17.130434782477096,50.75088856322691 16.921739130280912,50.411849751049886 16.539130434626713,50.072810717334505 15.982608695630915,49.88445560299442 15.426086956518702,49.846784571913304 14.973913043388166,49.959797657007584 14.626086956472136,50.185823753185105 14.243478260817938,50.63787565045641 14.104347826098092,51.05225621032878 14.034782608621754,51.39129460413824 14.139130434719846,52.63443348632427 14.1739130433416,53.764557158894604 14.347826086799614,54.819337033026386 14.591304347850382,55.19604361138772 14.939130434649996,55.49740867715445 15.495652173878625,55.648091144510545 15.947826086892746,55.610420531767886 16.469565217383206,55.459738053556066 16.85217391292099,55.19604361138772 17.20000000006985,54.706325006176485 17.304347826051526,54.32961807239917 17.33913043467328,53.8775693908392 17.269565217313357,52.785116784943966 17.269565217313357,51.692661879293155 17.165217391215265,50.86390145140467 16.85217391292099,50.33650776275317 16.504347826121375,50.072810717334505 16.086956521729007,49.88445560299442 15.426086956518702,49.846784571913304 14.973913043388166,49.997468679823214 14.626086956472136,50.185823753185105 14.243478260817938,50.63787565045641 14.069565217476338,50.9769143149897 14.034782608621754,51.24061090091709 14.139130434719846,51.99402897947584 14.1739130433416,53.9152401292522 14.208695652196184,54.36728877804126 14.313043478294276,54.706325006176485 14.521739130374044,55.045361012918875 14.869565217290074,55.3843967980647 15.286956521682441,55.572749916347675 15.739130434580147,55.648091144510545 16.226086956448853,55.572749916347675 16.67826086957939,55.30905553163029 17.02608695649542,55.00769035637495 17.234782608575188,54.51797157342662 17.269565217313357,53.9152401292522 17.165217391215265,52.93580003967509 17.165217391215265,51.50430735279224 17.095652173855342,50.78855952870799 16.817391304299235,50.26116576345521 16.504347826121375,50.03513969996129 15.913043478154577,49.846784571913304 15.391304347780533,49.846784571913304 14.973913043388166,49.959797657007584 14.591304347850382,50.22349475973169 14.243478260817938,50.60020467409049 14.069565217476338,50.9769143149897 14.069565217476338,51.4289655231114 14.208695652196184,52.973470846540295 14.1739130433416,53.764557158894604 14.243478260817938,54.44263018123456 14.347826086799614,54.819337033026386 14.556521738995798,55.15837296578684 14.904347826144658,55.459738053556066 15.286956521682441,55.610420531767886 15.773913043434732,55.648091144510545 16.43478260852862,55.49740867715445 16.85217391292099,55.23371425413643 17.130434782477096,54.89467837053235 17.304347826051526,54.44263018123456 17.304347826051526,54.10359378080466 17.165217391215265,52.86045841767918 17.130434782477096,51.24061090091709 16.991304347873665,50.60020467409049 16.78260869567748,50.26116576345521 16.469565217383206,49.997468679823214 16.05217391299084,49.846784571913304 15.460869565140456,49.846784571913304 14.939130434649996,49.997468679823214 14.626086956472136,50.14815274399007 14.243478260817938,50.562533694901504 14.104347826098092,50.93924336312921 14.034782608621754,51.692661879293155 14.139130434719846,52.37073760863859 14.1739130433416,54.32961807239917 14.313043478294276,54.857007703132695 14.626086956472136,55.30905553163029 15.113043478108011,55.610420531767886 15.565217391238548,55.723432361730374 16.05217391299084,55.648091144510545 16.643478260724805,55.42206742713461 16.95652173901908,55.15837296578684 17.165217391215265,54.78166636012611 17.304347826051526,54.36728877804126 17.130434782477096,50.93924336312921 17.095652173855342,50.67554662411567 16.921739130280912,50.33650776275317 16.539130434626713,49.997468679823214 16.295652173808776,49.88445560299442 15.843478260794654,49.771442501514684 15.391304347780533,49.80911353803822 14.765217391191982,50.072810717334505 14.208695652196184,50.63787565045641 14.139130434719846,50.78855952870799 14.0,51.31595275795553 14.0,51.57964917161735 14.1739130433416,52.67210431507556 14.208695652196184,54.32961807239917 14.382608695537783,54.89467837053235 14.66086956509389,55.27138489423669 15.043478260748088,55.49740867715445 15.460869565140456,55.610420531767886 16.086956521729007,55.53507929807529 16.573913043481298,55.34672616617172 16.95652173901908,55.00769035637495 17.165217391215265,54.59331295476295 17.234782608575188,54.178935222298605 17.095652173855342,52.33306675803033 17.130434782477096,51.08992715383647 17.02608695649542,50.67554662411567 16.817391304299235,50.29883676438476 16.504347826121375,49.997468679823214 15.982608695630915,49.846784571913304 15.391304347780533,49.80911353803822 14.939130434649996,49.997468679823214 14.556521738995798,50.26116576345521 14.1739130433416,50.75088856322691 14.034782608621754,51.202939968177816 14.0,51.61732007691171 14.208695652196184,53.048812452034326 14.1739130433416,54.178935222298605 14.347826086799614,54.857007703132695 14.591304347850382,55.23371425413643 14.973913043388166,55.49740867715445 15.495652173878625,55.648091144510545 15.913043478154577,55.610420531767886 16.33043478243053,55.49740867715445 16.67826086957939,55.27138489423669 16.991304347873665,54.932349035312654 17.20000000006985,54.48030087869847 17.234782608575188,54.02825232836767 17.095652173855342,52.37073760863859 17.130434782477096,51.1652690328483 16.921739130280912,50.4495207410946 16.504347826121375,49.997468679823214 15.878260869532824,49.73377146225539 15.460869565140456,49.771442501514684 15.00869565224275,49.922126631310675 14.591304347850382,50.22349475973169 14.243478260817938,50.63787565045641 14.104347826098092,51.08992715383647 14.104347826098092,51.57964917161735 14.278260869439691,53.19949563025148 14.278260869439691,54.21660593888373 14.382608695537783,54.74399568451918 14.626086956472136,55.19604361138772 14.904347826144658,55.3843967980647 15.217391304322518,55.49740867715445 15.773913043434732,55.53507929807529 16.121739130234346,55.49740867715445 16.643478260724805,55.23371425413643 16.921739130280912,54.932349035312654 17.060869565117173,54.59331295476295 17.165217391215265,53.952910865074955 17.165217391215265,51.692661879293155 17.060869565117173,50.75088856322691 16.78260869567748,50.29883676438476 16.504347826121375,50.072810717334505 15.982608695630915,49.922126631310675 15.495652173878625,49.959797657007584 15.113043478108011,50.072810717334505 14.556521738995798,50.48719172846177 14.278260869439691,50.93924336312921 14.1739130433416,51.24061090091709 14.313043478294276,54.404959480976686 14.347826086799614,54.706325006176485 14.48695652175229,55.00769035637495 14.869565217290074,55.34672616617172 15.356521739042364,55.53507929807529 15.843478260794654,55.53507929807529 16.365217391285114,55.42206742713461 16.643478260724805,55.23371425413643 17.060869565117173,54.74399568451918 17.20000000006985,54.32961807239917" stroke="#4dd2ff" stroke-linecap="round" stroke-linejoin="round" stroke-width="0.5"><title>2023-02-09 10.1km</title></polyline><polyline fill="none" points="147.75160381488968,59.87181617258466 146.0245748613961,56.76585917029297 145.04701130278409,54.9305116092728 144.16720409994014,53.05986176864826 143.87393503228668,52.318658896227134 143.2548114452511,50.37740791885881 142.47276059817523,48.4008535000321 142.1143206267152,47.730234995135106 141.0715861641802,45.188935418467736 140.19177896133624,43.35354412347078 139.3119717586087,41.694626794575015 138.95353178703226,41.129887687944574 138.7580190753797,40.459259146184195 138.26923729595728,39.32977740422939 138.10631003626622,38.7297391606844 137.6175282569602,37.9532179805974 137.29167373734526,37.03550953094964 136.73772105411626,35.72953682515072 135.9882556592347,34.31767049076734 136.0208411110798,34.74123082193546 136.18376837088726,35.23538407491287 137.0635755737312,36.506061559863156 138.04113913234323,38.65914637743845 138.39957910380326,39.2591847081203 139.70299718203023,42.577030334301526 140.22436441329774,43.530024356994545 140.77831709652673,44.8359760925523 141.36485523171723,45.75366980655235 142.1143206267152,47.730234995135106 142.5705169540597,48.683218909282004 142.86378602171317,49.77738332035369 144.13461864786223,53.09515711531276 145.8942330534337,56.65997392256395 147.03472387196962,58.46001999647706 147.39316384342965,59.41298286532401 147.88194562285207,60.18946974698338 148.66399646981154,61.81302921709721 149.380876412848,62.80128015167429 150.09775635576807,64.31894731640932 150.97756355861202,65.94249298927025 152.37873799249064,68.73074355279095 152.96527612779755,69.6130979936861 153.55181426310446,70.77780340251047 155.31142866867594,73.8836708458839 156.7126031027874,76.56599493703106 157.00587217044085,76.98951844021212 158.2115338925505,79.213010776788 159.417195614893,81.01297331304522 160.00373375008348,82.03647844886291 160.72061369311996,83.05998142951285 161.92627541546244,85.21285997453379 163.39262075349689,87.47160754149081 164.3701843121089,89.44800305209355 164.3701843121089,90.0832713310956 164.17467160045635,90.61266092929873 163.9139879847644,91.63614585093455 163.71847527311184,92.13024124881485 162.90383897419088,93.5772320246615 160.4925155295059,97.07116760464851 158.73290112393443,99.75336373844766 157.7227521133609,101.05916439477005 156.87553036247846,102.43554507344379 156.1260649674805,104.3412965030293 155.86538135190494,105.96470849507023 155.86538135190494,105.36475252080709 156.093479515519,104.30600487775519 156.45191948721185,103.31783833063673 156.90811581432354,102.36496154370252 157.49465394951403,101.41208288905909 158.43963205628097,100.28274280557525 159.12392654747237,99.18869209795957 161.1442245686194,96.29473964602221 162.05661722330842,94.77717232794384 162.8060826183064,93.75369401971693 163.3274498496903,92.90667585923802 163.68588982115034,92.23611876866198 164.04432979261037,91.24792768614134 164.4353552161483,89.55388115625829 164.4353552161483,89.09507587182452 164.01174434064887,88.42451352303033 162.8060826183064,86.76575005435734 162.08920267538633,85.35403200495057 161.6981772518484,84.89522275602212 159.64529377873987,81.40119965275517 158.24411934462842,79.31889111048076 157.690166661283,78.11891264430596 156.94070126628503,76.74246310815215 156.32157767924946,75.89541530213319 155.9957231596345,75.04836601982242 154.79006143729202,72.78956071572611 153.68215607083403,71.06015580848907 152.8023488681065,69.15427388434182 152.28098163672257,68.44838979333872 151.0753199144965,65.94249298927025 149.67414548038505,63.78952907639905 149.380876412848,62.907164061121875 148.46848375804257,61.071839697193354 147.81677471892908,60.08358524527284 147.52350565139204,59.448277750459965 147.0673093239311,58.91885420362814 146.6436984485481,58.24825021621655 145.63354943785816,56.3070229300065 145.0144258508226,54.9305116092728 144.65598587924615,54.365787887974875 144.3301313596312,53.483405759587185 144.00427684013266,52.81279427013942 143.2222259931732,50.83624975895509 143.02671328140423,49.67149654959212 142.30983333848417,48.083192218357 141.0715861641802,45.718373926501954 140.9738298082957,45.33011907697073 140.55021893291268,44.51831248000963 139.63782627810724,42.22406911075814 139.2793863066472,41.659330619557295 138.59509181557223,40.31807407201268 138.04113913234323,38.69444277032744 137.45460099715274,37.84732863254612 137.03099012176972,36.68254428100772 136.73772105411626,36.11779934770311 136.15118291892577,34.60004408590612 135.9882556592347,34.28237377986079 135.82532839942724,34.21178035030607 136.80289195803925,36.329578774631955 137.38943009322975,37.42377100966405 138.07372458430473,39.01211019119364 138.36699365184177,39.965111207187874 139.2793863066472,41.97699610167183 139.50748447026126,42.577030334301526 140.35470622114372,44.024168669828214 141.33226977975573,46.24781185758184 141.6255388474092,47.20079867957975 142.40758969436865,48.612627572380006 142.7334442138672,49.35383609874407 142.86378602171317,50.02445236247149 143.09188418544363,50.589181129675126 143.2873968970962,51.259795688296435 143.9065204843646,52.918680356349796 144.75374223513063,54.85992117994465 145.92681850551162,56.73056409024866 147.0673093239311,58.98944404316717 148.04487288254313,60.68359711649828 148.53365466196556,61.77773450373206 149.25053460488562,62.76598551002098 149.9674145479221,64.28365278503043 151.85737076133955,67.74250467697857 152.08546892507002,68.37780132787884 152.8023488681065,69.47192139082472 153.2259597433731,70.42486266430933 154.62713417748455,72.78956071572611 155.05074505298398,73.67190778721124 156.38674858305603,76.03659003903158 156.6148467469029,76.60128857637756 157.10362852620892,77.23657364657265 157.91826482512988,78.9306631074287 158.50480296020396,79.81299902946921 159.31943925912492,81.36590636198525 160.6228573373519,83.236447242758 161.6004208959639,85.0716879030806 162.6757408104604,86.76575005435734 162.87125352222938,87.2245575375855 163.58813346526586,88.17746400352917 164.30501340830233,89.3774176365987 164.30501340830233,89.97739334224025 164.20725705241784,90.50678305584006 163.65330436918885,91.95377866437775 162.90383897419088,93.47135479692952 161.53524999215733,95.44772591316723 161.20939547242597,96.01240189903183 160.65544278919697,96.71824595902581 160.0689046541229,97.70642592111835 159.35202471108641,98.51814367304905 158.70031567185652,99.57690392123186 157.62499575747643,101.02387253122288 156.84294491051696,102.25908622983843 156.28899222728796,103.49429678998422 155.83279589982703,104.9059621586348 155.80021044786554,105.71766788946115 155.86538135190494,106.0 156.0608940636739,104.4118797458068 156.74518855463248,102.54142034889082 156.84294491051696,102.15321089292411 158.47221750835888,100.03569931263337 159.971148298122,97.77701012729085 161.53524999215733,95.65947948466055 162.31730083888397,94.45954135947977 162.7409117143834,93.64781683040201 163.39262075349689,92.69492108846316 163.65330436918885,92.13024124881485 164.14208614849485,90.43619779395522 164.33759886026382,89.51858845743118 164.30501340830233,89.20095405276516 163.2948643976124,87.89512154166005 162.38247174292337,85.98930563460453 161.53524999215733,84.82463667934644 160.68802824127488,83.30703355016885 160.19924646196887,82.60117001508479 159.87339194235392,81.82471894242917 159.3846101630479,81.26002647419227 158.24411934462842,79.56594513275195 157.755337565206,78.36596727662254 156.7126031027874,76.77775673472206 155.76762499602046,74.66013460536487 154.366450561909,72.40132749677286 153.19337429164443,69.82486282114405 152.44390889664646,68.94250876473961 152.21581073279958,68.1660358699155 151.43375988595653,66.86014683972462 150.9123926545726,65.73072646997753 150.39102542342152,64.88365947004058 149.83707274019253,64.31894731640932 149.51121822046116,63.78952907639905 148.66399646981154,61.81302921709721 148.2403855943121,61.10713446183945 147.32799293962307,59.23650840090704 147.0021384198917,58.42472503951285 146.25267302501015,57.436465203616535 145.63354943785816,56.34231804081355 144.68857133109123,54.5775593604194 144.13461864786223,53.69517761649331 143.74359322455712,52.424545090063475 143.02671328140423,50.48329453589395 142.79861511779018,49.247949235577835 142.6356878579827,48.753810236026766 141.72329520329367,46.95372820153716 140.71314619260374,45.506598592502996 140.15919350937475,43.56532039603917 139.8333389898762,42.89469521626597 139.54006992222276,41.97699610167183 138.52992091164924,40.49455540833878 138.36699365184177,40.10629638392129 138.39957910380326,39.576851759658894 138.3018227480352,39.22388835626771 138.04113913234323,38.76503554842202 137.55235735303722,38.129700175952166 137.03099012176972,37.28258505335543 136.11859746696427,34.77652749954723 135.79274294746574,34.14118691039039 135.56464478373528,34.0 135.85791385127231,34.14118691039039 136.05342656304128,34.31767049076734 136.44445198657922,34.847120847029146 137.22650283342227,37.106102550111245 138.07372458430473,38.6238499818719 138.62767726753373,39.4709627655393 138.92094633507077,40.63574043114204 139.21421540272422,41.55344207948656 139.9310953457607,43.21235989051638 140.68056074075866,44.41242456296459 141.13675706810318,45.43600679404335 141.6255388474092,46.17722016677726 142.27724788652267,48.365557812328916 142.7334442138672,49.389131714589894 143.2873968970962,51.118613752914825 143.71100777259562,52.03629559968249 144.19978955190163,53.58929169955081 145.14476765855215,55.45993950180127 145.53579308197368,56.02466195137822 146.4481857366627,57.612940321763745 147.19765113166068,58.636494742764626 147.6538474590052,59.7306367396377 148.11004378658254,60.436533494561445 148.46848375804257,61.283608246798394 149.28312005696353,62.483628284797305 149.54380367253907,63.18952104038908 149.9022436439991,63.89541277050739 150.13034180784598,64.63659798362642 151.042734462535,66.15425941627473 151.27083262603264,66.82485249286401 152.1832252809545,68.44838979333872 152.96527612779755,70.14250988920685 153.74732697487343,71.13074388442328 154.56196327367797,72.93073635478504 155.08333050482906,73.84837700921344 155.63728318805806,74.58954704203643 156.25640677544288,75.96600267576287 156.582261294825,76.49540765056736 156.84294491051696,76.74246310815215 155.93055225571152,75.33071594461217 155.40918502456043,74.23660907213343 154.79006143729202,73.24838139279746 154.49679236963857,72.57779718012898 153.19337429164443,70.530744912714 152.54166525241453,68.62486091232859 152.2483961848775,68.20133011924918 151.82478530926164,67.77779895719141 151.27083262603264,66.96602986479411 150.87980720284395,65.90719857576187" stroke="#4dd2ff" stroke-linecap="round" stroke-linejoin="round" stroke-width="0.5"><title>2022-12-11 13.0km</title></polyline><polyline fill="none" points="19.47022587247193,166.45345951296622 19.618069815449417,167.57434292376274 20.57905544154346,170.37654646643205 21.318275154568255,171.57748866203474 22.35318275168538,172.05786517396336 26.640657084528357,172.77842954953667 28.48870636569336,172.77842954953667 33.07186858355999,171.97780243639136 34.47638603718951,171.97780243639136 37.43326488696039,172.45817877422087 39.05954825505614,172.3781160658109 40.98151950724423,171.8176769441925 44.08624229999259,170.13635787036037 45.268993840087205,169.81610632740194 46.22997946618125,169.89616922196 46.96919917874038,170.21642074151896 47.930184804834425,171.17717474198435 50.14784394297749,174.94011985184625 51.10882956907153,176.06099463638384 52.88295687921345,177.26193064148538 55.02669404540211,177.66224235255504 60.422997946850955,177.66224235255504 65.37577002076432,176.5413691952126 66.1889117048122,176.22111951262923 69.2936344970949,174.1394943080959 73.43326488742605,171.97780243639136 74.83778234105557,171.73761418933282 78.6817248458974,171.8176769441925 81.19507186906412,171.57748866203474 84.151950718835,170.13635787036037 84.81724845990539,169.65598052123096 85.33470225892961,168.77528817107668 85.70431211544201,167.73446903232252 85.63039014395326,166.93383825698402 84.5215605753474,164.45187915948918 83.93018480530009,162.3702317379648 82.96919917874038,158.60724373423727 81.78644763911143,152.52238489693264 81.19507186906412,151.32142194797052 79.12525667343289,149.23974973818986 77.7946611912921,147.39826719957637 77.27720739226788,147.0780090528424 75.35523613961414,146.51755707216216 73.3593429159373,145.5567815853865 70.69815195072442,144.83619942091173 68.92402464104816,143.9554872470908 67.59342915844172,142.99470952764386 66.70636550337076,141.9538660538965 65.89322381932288,139.9522412266815 64.1930184806697,136.98982981400331 61.82751540048048,134.50780331285205 60.79260780289769,132.74636176106287 58.72279260773212,130.0241283730138 57.096509240567684,128.26267965784064 55.83983572944999,127.7022181127104 53.47433264926076,127.14175628282828 51.70020533911884,125.9407656880212 50.81314168404788,125.62050130835269 49.40862422995269,125.38030296238139 47.11704312171787,125.38030296238139 40.61190965119749,122.25771970528876 38.76386037003249,121.77732149604708 36.76796714589,122.09758699225495 34.47638603718951,123.29858177382266 33.219712525606155,124.81983995222254 31.593429158441722,127.22182227601297 30.706365503370762,127.9424159526825 28.562628337182105,128.50287737557665 26.197125256992877,128.50287737557665 22.279260780196637,129.783930986654 19.765913757961243,130.18425993487472 18.731006160378456,130.50452298886376 17.69609856279567,131.22511451982427 16.291581109166145,133.146689633606 14.88706365507096,134.3476723789936 14.147843942511827,135.62871919898316 14.0,136.429372705461 14.295687885023654,137.14996036409866 16.291581109166145,139.151590278605 18.43531827488914,142.1940607887227 20.209445585496724,147.0780090528424 20.874743326567113,151.0812292014598 22.427104722708464,155.0043708459707 22.35318275168538,155.88507419469533 21.983572895638645,156.92590451799333 19.174537987913936,159.96832598384935 18.58316221786663,160.8490253679338 18.287474332842976,161.80978753004456 19.765913757961243,168.93541410530452 20.283367556519806,170.53667216800386 21.096509240102023,171.65755142847775 22.35318275168538,172.61830417369492 24.201232032850385,173.01861757022562 29.15400410676375,173.01861757022562 33.95893223816529,172.05786517396336 35.95482546230778,172.3781160658109 37.7289527724497,172.93855490261922 38.689938398543745,172.93855490261922 39.798767967149615,172.77842954953667 42.01642710482702,171.89773969323142 44.3080082135275,170.13635787036037 45.490759753622115,170.13635787036037 46.30390143766999,170.29648360679857 47.19096509274095,170.85692350147292 48.07802874781191,171.8176769441925 50.22176591400057,174.94011985184625 51.404517454095185,175.82080727850553 53.178644763771445,176.8616187851876 54.509240246377885,177.1018059164635 61.310061601921916,177.5021176856244 63.82340862462297,177.18186828197213 65.52361396327615,176.70149400189985 66.7802874748595,175.9809321895009 71.28952772077173,173.01861757022562 73.1375770024024,172.29805335152196 75.05954825505614,171.97780243639136 79.86447638645768,171.89773969323142 81.86036961013451,171.49742588971276 84.7433264888823,169.73604342725594 85.63039014395326,168.6151622136822 86.0,167.6544059807784 85.92607802897692,166.45345951296622 84.5215605753474,164.1316259658197 83.856262834277,162.3702317379648 81.93429158162326,152.44232074095635 81.49075975362211,151.6416788623319 78.97741273138672,148.67929885635385 77.7946611912921,146.83781538164476 76.8336755647324,146.0371694334317 75.72484599612653,145.5567815853865 73.3593429159373,145.1564582187566 71.21560574974865,145.2365229037241 70.18069815216586,144.9963288315921 68.85010266955942,144.4358757926966 67.4455852159299,143.31496886059176 66.70636550337076,142.27412568888394 66.11498973332345,140.3525664829067 64.63655030820519,137.31009089096915 63.82340862462297,136.3493073808495 61.60574948694557,134.50780331285205 58.427104723174125,129.0633385136025 57.39219712559134,128.1826137402677 53.400410677772015,126.98162427905481 51.92197125265375,126.02083176828455 50.81314168404788,125.54043519875268 49.55646817246452,125.30023683578474 47.41273100627586,125.46036908362294 46.89527720725164,125.38030296238139 40.61190965119749,122.09758699225495 38.83778234105557,121.77732149604708 36.84188911737874,122.25771970528876 34.919917864724994,123.37864804593846 33.81108829565346,124.41950905608246 32.110882957000285,126.90155826840783 31.223819302394986,127.54208619066048 30.188911704346538,127.78228406520793 26.71457905555144,128.02248188765952 24.866529774386436,128.82314091792796 18.952772073913366,130.82478594966233 17.77002053381875,131.5453772713663 16.439425051677972,133.46695182705298 14.739219712559134,134.66793422354385 14.22176591353491,135.548653816164 14.44353182753548,137.31009089096915 14.960985626559705,137.9506127659115 16.66119096521288,139.3117205146118 18.80492813140154,143.635228100291 20.35728952754289,148.35904108156683 20.874743326567113,151.48155041690916 22.057494866661727,154.44392289413372 22.13141683815047,155.56481851288117 21.761806981638074,156.68571299215546 19.02669404540211,160.2885803868994 18.509240246377885,161.72972404846223 19.839835728984326,169.1756029629032 20.35728952754289,170.29648360679857 21.613963039126247,171.65755142847775 22.427104722708464,172.3781160658109 24.34907597536221,173.33886818302562 25.82751540048048,173.6591187028098 27.305954825598747,173.73918131820392 34.03285420965403,172.45817877422087 37.87679671449587,172.3781160658109 40.61190965119749,172.1379279056564 44.23408624250442,170.37654646643205 45.268993840087205,170.21642074151896 46.00821355264634,170.21642074151896 46.74743326520547,170.53667216800386 47.48665297776461,171.09711194067495 50.44353182800114,175.02018237416632 52.58726899372414,176.5413691952126 56.43121149903163,177.90242930932436 59.90554414829239,178.2226785038947 61.60574948694557,177.90242930932436 65.15400410676375,176.94168116804212 70.919917864725,173.09868023224408 72.69404517486691,172.1379279056564 74.09856262849644,171.89773969323142 79.27310061641037,172.05786517396336 81.19507186906412,171.8176769441925 84.07802874781191,170.45660932007013 85.33470225892961,168.93541410530452 85.63039014395326,167.73446903232252 85.55646817293018,166.77371203218354 83.93018480530009,162.4502951731556 82.37782340915874,153.08283382531954 81.56468172511086,151.6416788623319 80.3080082135275,150.3606506473734 78.31211498985067,147.15807359822793 77.12936345022172,146.1972986694891 75.5770020536147,145.5567815853865 73.50718685844913,145.07639352802653 70.47638603718951,145.07639352802653 69.14579055458307,144.5159405299928 68.0369609859772,143.71529289573664 66.63244353188202,142.11399588291533 64.71047227922827,137.470221394673 61.45790554443374,134.02741044160211 59.979466119315475,132.0257712242892 58.57494866568595,129.54373354796553 57.46611909661442,128.42281147558242 55.91375770047307,127.62215215456672 53.25256673526019,126.90155826840783 51.92197125265375,125.86069960182067 51.25667351158336,125.54043519875268 49.40862422995269,125.22017070295988 47.78234086278826,125.22017070295988 46.82135523669422,125.06003842019709 41.64681724831462,122.33778605301632 40.31622176617384,121.93745425582165 39.355236139614135,121.85738787881564 37.06365503091365,122.17765335168224 35.28952772077173,122.97831662668614 34.18069815216586,123.93911178881535 32.0369609859772,126.98162427905481 31.297741272952408,127.62215215456672 29.8193018482998,127.8623500118847 26.71457905555144,127.9424159526825 18.213552361354232,130.74472021806287 17.69609856279567,131.14504881732864 16.439425051677972,132.74636176106287 14.369609856512398,135.06826139846817 14.147843942511827,136.02904602477793 14.517453799024224,137.2300256305025 16.735112936235964,139.23165539931506 19.396303901914507,143.71529289573664 20.283367556519806,148.11884768964956 20.652977413032204,151.00116494082613 22.13141683815047,154.44392289413372 21.983572895638645,155.80501028290018 18.878850102890283,160.20851679478073 18.43531827488914,161.32940655353013 19.100616016425192,164.93225877563236 19.100616016425192,169.01547706348356 19.322381930425763,169.81610632740194 19.839835728984326,170.53667216800386 21.835728952661157,171.89773969323142 22.944558521732688,172.3781160658109 25.901437371969223,172.93855490261922 27.232032854110003,173.01861757022562 29.671457905787975,172.85849222895922 33.73716632463038,171.73761418933282 36.54620123235509,172.05786517396336 37.65503080096096,171.97780243639136 40.53798767970875,171.41736311127897 44.160164271015674,170.13635787036037 45.78644763864577,170.13635787036037 46.67351129371673,170.45660932007013 47.63449692027643,171.2572375376476 50.073921971488744,175.2603699065512 51.33059548260644,176.3011819421081 52.88295687921345,177.18186828197213 54.80492813140154,177.5821800219128 57.540041068103164,177.18186828197213 61.23613963043317,177.5021176856244 65.37577002076432,176.70149400189985 68.0369609859772,175.02018237416632 69.81108829611912,173.6591187028098 72.39835728984326,172.1379279056564 74.09856262849644,171.73761418933282 78.8295687888749,172.1379279056564 80.89938398404047,171.97780243639136 82.96919917874038,171.09711194067495 84.44763860385865,169.9762321105809 85.1129363453947,169.0955400162493 85.63039014395326,167.81453207787126 85.70431211544201,167.0139013606822 84.3737166323699,163.41105594002875 83.26488706376404,158.44711630034726 82.82135523669422,154.1236667938647 82.08213552366942,152.2821924117743 78.23819301882759,147.31820267165313 76.8336755647324,146.4374924801523 74.17248459998518,145.39665225619683 71.65913757728413,145.2365229037241 70.40246406570077,145.07639352802653 69.2936344970949,144.5960052612936 68.40657084202394,143.9554872470908 66.85420944588259,142.1940607887227 66.1889117048122,140.3525664829067 64.63655030820519,137.39015614573145 61.753593429457396,134.26760690339142 60.12731006136164,132.0257712242892 58.50102669419721,129.30353605689015 57.318275154568255,128.1826137402677 55.83983572944999,127.54208619066048 53.47433264926076,127.14175628282828 51.92197125265375,126.02083176828455 51.10882956907153,125.70056741195731 49.40862422995269,125.38030296238139 47.63449692027643,125.46036908362294 46.89527720725164,125.30023683578474 41.05544147873297,122.33778605301632 39.42915811110288,121.85738787881564 38.39425051352009,121.85738787881564 36.84188911737874,122.25771970528876 34.69815195072442,123.37864804593846 33.885010267142206,124.0992442346178 31.741273100487888,127.38195424486184 30.92813141690567,128.02248188765952 26.49281314155087,128.1826137402677 22.501026694197208,129.70386517973384 19.91375770000741,130.26432570710313 18.287474332842976,130.90485167514998 17.47433264926076,131.5453772713663 16.587268993724138,132.74636176106287 15.034907597582787,134.18754142191028 14.517453799024224,134.9081305458676 14.147843942511827,136.10911137249786 14.369609856512398,137.470221394673 14.591375770047307,138.0306779742241 16.735112936235964,140.2725014432217 17.77002053381875,142.91464468004415 19.322381930425763,145.1564582187566 20.726899384055287,151.241357705032 22.13141683815047,154.44392289413372 22.279260780196637,155.24456273805117 22.057494866661727,156.12526589486515 20.57905544154346,157.80660633195657" stroke="#4dd2ff" stroke-linecap="round" stroke-linejoin="round" stroke-width="0.5"><title>2022-11-30 11.9km</title></polyline><polyline fill="none" points="139.54390929138754,122.6210242138186 140.76835134672,125.13400619768072 142.41168147337157,128.86855236251722 142.92723602289334,129.74110569388722 143.0561246604193,130.1948327998689 143.15279113850556,130.8928736645903 143.7005678473506,132.3238542668405 144.21612239687238,133.85953602541122 144.76389910571743,134.83678549781325 145.18278717750218,135.81403298254008 145.7950082049938,137.10539268152206 146.7294508261839,138.6759606107953 146.92278378224,139.094777858234 147.21278321626596,139.61829890412628 147.88944856263697,140.59553666369175 148.37278095283546,141.3633649375697 148.95277982123662,142.55000622014632 149.33944573334884,143.21312801341992 150.24166619521566,145.0977849557239 150.53166562924162,145.55149756008177 150.69277642609086,146.00520973594394 151.9172184810741,148.2039626739861 152.94832758035045,149.94899752739002 153.43165997066535,150.61210911007947 153.9472145200707,151.9034290400159 154.33388043229934,152.56653792588622 154.81721282261424,153.2296458967321 155.23610089404974,154.0323543214181 155.49387816875242,154.59075939122704 156.42832078994252,156.4055713872076 156.65387590555474,156.92907357399235 156.84720886161085,157.2082745071384 157.55609636718873,158.63917674359982 158.1360952355899,159.65127575295628 158.7483162630815,160.38417370506795 159.2316486533964,161.29156962121488 159.5216480876552,161.71036715849186 160.29497991176322,163.07145663441042 160.71386798331514,163.59495156034245 161.0360895768972,164.2231447188242 161.32608901103958,164.57214056316298 161.9705321979709,165.6889255621645 162.55053106637206,166.87550678031403 163.61386232473888,168.44597741772304 164.16163903370034,169.45805577622377 164.19386119314004,169.84194700987427 164.09719471505377,170.47013200365473 163.71052880282514,171.65670141851297 163.29164073138963,172.77346995682456 162.80830834107473,173.64594357195892 162.00275435729418,174.90230279575917 158.42609466961585,180.03240221360466 157.00831965834368,182.1961011994863 156.33165431208909,183.5571326687059 155.94498839974403,184.91816028472385 155.91276624053717,185.68591775282403 156.0416548778303,184.7785678859509 156.2994321527658,183.8014199604513 156.78276454284787,182.68467704197974 157.29831909248605,181.74242318677716 158.61942762578838,179.82301147241378 160.64942366466857,176.99622753821313 163.29164073138963,172.87816687423037 163.61386232473888,172.24998502753442 164.06497255561408,170.92382065526908 164.2583055117866,170.01644292389392 164.2905276712263,169.4929549919616 163.8394174403511,168.515775993641 163.09830777533352,167.32919882491115 162.74386402242817,166.6661103075894 162.4216424288461,166.24731708859326 161.19720037351362,164.1882451204001 160.39164638984948,162.96675758084166 159.84386968100443,161.91976579031325 158.84498274116777,160.34927382791648 157.74942932336126,158.46467669890262 157.26609693304636,157.76667588675627 156.97609749890398,157.45257519051665 156.55720942746848,156.2659707077546 156.2349878338864,155.63776714837877 155.5583224876318,154.52095879297121 155.26832305348944,153.71825118438574 155.23610089404974,153.64845045949914 155.20387873484287,153.9974539829709 155.07499009743333,153.68335082329577 154.7205463446444,153.0551438878465 154.17276963568293,151.83362805147772 153.65721508604474,150.99601539768628 153.43165997066535,150.43760615072097 152.5938838275615,149.0764808927779 151.59499688772485,147.01733535388485 151.0149980194401,146.07501157117076 150.66055426665116,145.30719082636642 150.0805553983664,144.32996264929534 148.95277982123662,142.09629078162834 147.8572264033137,140.2814247434435 147.53500480984803,139.4786933477153 146.92278378224,138.50145331665408 146.4394513919251,137.52421129797585 145.56945308949798,136.23285272470093 145.21500933670904,135.60462297467166 144.4416775123682,133.92933962499956 143.79723432543688,132.28895235157688 143.41056841320824,131.17208972660592 143.2172354570357,130.2995389942662 142.95945818233304,129.5316930388508 142.5727922701044,128.72894368247944 142.05723772058263,127.40265919835656 141.70279396767728,126.8442225306353 141.28390589612536,126.00656631201855 140.2527967969654,123.737906718452 139.89835304417647,122.69082944642287 139.8661308848532,122.06258198770229 139.76946440676693,121.32962558072177 138.4805780327879,119.93351504506427 137.9972456425894,118.64210918705794 137.67502404912375,118.04875938556506 137.51391325239092,117.59502080749371 136.99835870286915,116.4432209537772 136.32169335649814,115.50083720099065 136.06391608167905,114.59335480275331 135.87058312562294,114.10470972437179 135.7416944882134,114.0 135.70947232889012,114.10470972437179 136.16058255976532,114.90748351928778 136.96613654342946,116.82715454517165 137.25613597757183,117.38560285771382 137.51391325239092,117.94405052097864 137.9972456425894,118.711914997868 138.64168882963713,120.24764026934281 138.80279962625355,121.01550106395734 139.09279906051233,121.50413911236683 139.44724281330127,122.2370952530473 139.67279792879708,122.55121897102799 139.89835304417647,123.21436836777139 140.34946327505168,124.08693196866079 140.86501782468986,124.81988416865352 141.34835021488834,125.7273472477973 141.54168317094445,126.66971093887696 142.1539041986689,127.82148627302377 142.70168090763036,129.1128674549982 143.12056897906587,129.95051825762494 143.60390136926435,131.69561940530548 144.4416775123682,133.54541970131686 144.73167694651056,134.59247331603547 145.21500933670904,135.5697212977102 146.05278547969647,136.9657863949251 146.4716735513648,137.80342350614956 146.8905616228003,138.43165038121515 147.11611673841253,138.88536928017857 147.76055992522743,139.9324112579343 148.43722527148202,141.18885861945455 149.08166845852975,142.09629078162834 149.46833437075838,143.0735235013417 149.95166676107328,144.0507542337 150.30611051386222,144.5393688545155 150.88610938203055,145.79580416958197 151.40166393166874,146.6334258877323 152.33610655285884,148.48316867635003 152.72277246508747,149.04158019446186 153.14166053640656,150.05369941709796 153.43165997066535,150.5423079339671 153.72165940480772,150.96111483871937 154.04388099827338,151.76382705272408 154.3983247509459,152.35713521865546 154.78499066317454,152.88064181563095 155.07499009743333,153.54374935297528 155.46165600966197,154.13705532139284 156.36387647129595,155.9518690307741 157.10498613642994,156.96397369954502 157.2016526143998,157.27807471508277 157.23387477372307,157.7317758195568 157.36276341113262,158.08077637769748 158.42609466961585,159.5814758897468 159.90831399976742,162.1989638241066 160.3594242305262,162.72245970036602 161.00386741757393,163.7694497423072 162.55053106637206,166.45671374368249 162.93719697848428,167.29429945198353 163.5494180060923,168.09698438618216 163.90386175888125,168.6553731150634 164.22608335246332,169.42315655795392 164.22608335246332,169.87684619781794 163.93608391820453,171.0983161763579 163.45275152812246,172.4244800673041 163.06608561589383,173.19225748968893 162.35719811019953,174.23922472575214 161.5194219670957,175.60027872340288 160.03720263706055,177.65930180516443 159.2316486533964,178.91565053959494 158.7483162630815,179.50892518943874 158.26498387299944,180.27669129654532 157.45942988921888,181.3934398087149 157.04054181778338,182.09140631146147 156.46054294938222,183.20815060805762 156.20276567467954,183.94101264278288 155.94498839974403,184.91816028472385 155.8160997624509,186.0 156.2994321527658,183.8014199604513 156.7183202240849,182.8242700487317 157.1694304549601,181.9518130920187 159.26387081260327,178.84585347378743 159.81164752168115,178.11298367136624 160.1660912744701,177.51970729869208 162.93719697848428,173.4365500487329 163.3238628905965,172.8083689317864 163.7749731214717,171.7962976276467 164.22608335246332,169.9815437461657 164.2583055117866,169.6674510325829 164.16163903370034,169.24866042862413 164.06497255561408,168.93456723622512 163.8394174403511,168.44597741772304 162.84053050039802,166.87550678031403 162.1960873134667,165.61912657573703 161.68053276382852,164.85133705619955 161.39053332968615,164.1882451204001 160.64942366466857,163.1412559907767 159.7149810435949,161.71036715849186 158.97387137857731,160.20967429404845 158.39387251029257,159.40697618713602 157.97498443874065,158.63917674359982 157.29831909248605,157.76667588675627 157.1694304549601,157.45257519051665 156.97609749890398,156.6149723303679 156.81498670217115,156.23107053153217 156.42832078994252,155.63776714837877 155.91276624053717,154.73036055729608 155.52610032819211,154.2068559754698 154.55943554779515,152.21753336320398 153.818325882894,151.13561760802986 153.56054860795848,150.50740734202554 153.0772162178764,149.73959367952193 152.8516611022642,149.18118297259207 151.88499632198364,147.50594695823384 151.59499688772485,146.66832676102058 151.2727752942592,146.14481339624035 150.88610938203055,145.69110135213123 150.49944346991833,144.67897294068825 149.85500028298702,143.52723801709362 149.46833437075838,142.96882009072579 149.08166845852975,141.85198229114758 148.3083366341889,141.01435223789304 147.3416718536755,138.8504678416357 146.79389514483046,138.1175370462879 146.31056275463197,137.10539268152206 145.82723036431707,136.54696729173884 145.2794536553556,135.70932799001457 144.4094553529285,133.47561604587827 143.7327900067903,132.18424659079756 143.41056841320824,131.03248171592713 143.37834625376854,130.369343111146 143.31390193512198,130.15993072997662 142.73390306695364,129.00816100204247 142.50834795145784,128.345019603119 142.1539041986689,127.75168178600143 141.38057237421162,125.90185918196221 140.63946270919405,124.5406644147879 139.99501952214632,123.00495286769001" stroke="#4dd2ff" stroke-linecap="round" stroke-linejoin="round" stroke-width="0.5"><title>2022-11-26 10.2km</title></polyline><polyline fill="none" points="76.78706066217273,259.3246027735295 77.22739590611309,259.3246027735295 78.54840163793415,258.2120345928706 79.42907212581486,257.2584042744711 80.16296419780701,255.03326525143348 80.30974261276424,253.92069489276037 80.45652102772146,253.12600143428426 80.30974261276424,251.05979709292296 80.16296419780701,249.78828576079104 80.30974261276424,248.83465177787002 79.86940736882389,244.70223305851687 79.72262895386666,243.43071803892963 79.72262895386666,242.47708129067905 79.42907212581486,241.5234441270586 79.28229371085763,239.4572288497584 78.9887368818745,238.34465058613569 78.84195846691728,237.39101162482984 78.84195846691728,235.48373245785479 78.9887368818745,234.6890323155094 79.13551529683173,233.89433188480325 78.9887368818745,232.78175079799257 78.84195846691728,229.76188500097487 78.69518005289137,227.05989628797397 78.54840163793415,225.9473117319867 78.69518005289137,224.99366737762466 78.84195846691728,222.9274365195306 78.84195846691728,222.1327318251133 79.13551529683173,219.43073370784987 78.84195846691728,218.47708651830908 78.9887368818745,217.68238021002617 78.9887368818745,216.7287322600605 79.13551529683173,214.98037660703994 79.13551529683173,214.18566903134342 78.9887368818745,213.2320195598295 78.84195846691728,212.27836967352778 78.69518005289137,210.37106865632813 78.69518005289137,209.41741752577946 78.54840163793415,208.46376597962808 78.1080663939938,206.71540373424068 77.96128797996789,205.76175101322588 77.52095273602754,205.12598230142612 77.22739590611309,204.17232888867147 76.1999470051378,202.74184799101204 75.61283334624022,202.10607840376906 74.29182761441916,201.15242367668543 73.26437871251255,200.83453867561184 72.53048663958907,200.3577110876795 71.79659456666559,200.03982597100548 70.32881042081863,198.9272277004784 69.00780468992889,198.4503996972926 68.42069103103131,198.2914570068242 67.68679895810783,198.13251430436503 67.09968530014157,198.2914570068242 66.07223639823496,197.6556861284189 64.7512306664139,197.49674337997567 64.01733859349042,197.49674337997567 63.57700334955007,197.49674337997567 62.54955444764346,197.17885784886312 61.81566237471998,196.86097227130085 61.375327130779624,196.70202946534846 60.49465664289892,196.54308664763812 59.760764569975436,196.38414381851908 58.733315668068826,196.38414381851908 57.26553152222186,196.22520097810775 56.82519627828151,196.22520097810775 56.238082620315254,196.22520097810775 55.650968962349,196.06625812582206 55.210633718408644,196.06625812582206 54.917076889425516,195.9073152624769 54.32996323052794,195.9073152624769 53.74284957163036,195.9073152624769 53.1557359136641,195.74837238737382 51.834730182774365,195.43048660224304 50.95405969489366,195.43048660224304 50.66050286591053,195.27154369244818 50.22016762197018,195.27154369244818 49.77983237802982,195.11260077136103 49.045940306037664,195.11260077136103 48.60560506209731,195.11260077136103 47.28459933027625,194.95365783839952 46.55070725735277,194.95365783839952 46.11037201434374,195.27154369244818 44.64258786756545,194.79471489414573 43.61513896565884,194.63577193836682 40.679570673033595,194.15894300176296 39.652121771126986,194.31788599211723 38.47789445519447,194.47682897082996 36.42299665044993,194.47682897082996 34.07454201672226,194.47682897082996 32.753536285832524,194.47682897082996 31.432530554942787,194.47682897082996 29.377632750198245,194.47682897082996 27.46951336041093,195.11260077136103 26.44206445850432,195.43048660224304 25.414615555666387,195.9073152624769 24.680723483674228,196.22520097810775 23.653274580836296,197.17885784886312 22.919382507912815,198.76828504458535 22.185490435920656,200.19876853504684 22.185490435920656,202.58290561160538 22.625825678929687,203.05973271594848 22.772604093886912,203.85444432508666 23.06616092287004,204.49021340557374 23.359717751853168,206.39751953992527 23.359717751853168,207.19222993950825 23.653274580836296,208.30482401465997 23.80005299579352,209.09953372261953 23.80005299579352,210.6889522742713 23.506496166810393,211.96048628597055 23.212939337827265,213.07307794096414 23.06616092287004,214.02672748162877 22.772604093886912,215.6161424603779 22.47904726397246,216.4108495177934 22.33226885087788,217.04661495611072 21.891933606006205,220.22543938213494 21.451598362997174,221.65590886969585 21.158041533082724,222.9274365195306 20.864484704099596,225.47048960672691 20.570927875116467,226.26519309089053 20.570927875116467,227.21883689251263 20.277371045202017,228.17248027899768 20.424149460159242,229.92082540970296 20.277371045202017,230.8744676206261 20.130592631176114,231.66916914621834 20.424149460159242,232.62281059625093 20.424149460159242,233.417511488311 20.570927875116467,234.21221209154464 20.71770628914237,234.53009225265123 20.71770628914237,235.16585243563168 20.864484704099596,235.80161243432667 21.01126311905682,236.27843231253792 21.158041533082724,236.91419198864605 21.30481994803995,238.02677097835112 21.598376777023077,239.29828913253732 21.598376777023077,239.77510824985802 21.598376777023077,240.41086691210512 21.891933606006205,241.68238368304446 22.185490435920656,242.15920228196774 22.185490435920656,242.47708129067905 22.47904726397246,243.11283916886896 22.625825678929687,243.74859686300624 22.919382507912815,244.22541501244996 23.212939337827265,245.02011169795878 23.946831410750747,246.29162579553667 24.09360982477665,247.40420002595056 23.946831410750747,248.99359080393333 24.09360982477665,250.4240415188251 23.80005299579352,251.69555248203687 23.653274580836296,252.49024645949248 23.506496166810393,253.12600143428426 23.359717751853168,253.92069489276037 23.212939337827265,254.71538806392346 22.919382507912815,255.82795801910106 22.772604093886912,256.6226504984079 22.47904726397246,257.2584042744711 22.33226885087788,257.89415786613245 22.33226885087788,258.3709729388356 22.33226885087788,258.8477879080456 22.33226885087788,260.437170389574 22.47904726397246,261.0729230596917 22.625825678929687,261.7086755450582 22.919382507912815,262.34442784579005 23.506496166810393,263.4569939292269 24.240388239733875,263.77486984967254 24.827501898631454,264.2516836433206 25.561393971554935,264.569559447933 26.295286043547094,264.41062155144755 26.882399702444673,264.569559447933 27.616291775368154,264.569559447933 28.056627019308507,264.728497333359 28.79051909223199,264.569559447933 29.524411164224148,264.569559447933 30.111524823121727,264.569559447933 30.698638481087983,264.41062155144755 31.432530554942787,264.41062155144755 32.90031469985843,264.41062155144755 33.487428358756006,264.41062155144755 34.07454201672226,264.41062155144755 34.95521250460297,264.569559447933 35.83588299155235,264.41062155144755 36.56977506540716,264.569559447933 37.59722396731377,264.2516836433206 38.33111604023725,264.2516836433206 39.35856494214386,264.2516836433206 40.09245701506734,264.2516836433206 40.53279225900769,264.2516836433206 41.11990591790527,264.2516836433206 42.44091164879501,264.2516836433206 43.17480372171849,264.569559447933 44.49580945260823,264.728497333359 45.082923111505806,264.569559447933 45.52325835544616,264.569559447933 46.8442640863359,264.41062155144755 47.87171298824251,264.41062155144755 48.60560506209731,264.569559447933 49.33949713408947,264.569559447933 50.807281280867755,264.41062155144755 52.42184384074062,264.569559447933 53.1557359136641,264.728497333359 53.74284957163036,264.887435207027 54.77029847446829,264.887435207027 55.50419054739177,264.887435207027 56.09130420628935,264.887435207027 56.82519627828151,264.569559447933 57.41230993717909,264.569559447933 57.85264518111944,264.41062155144755 58.292980425059795,264.2516836433206 59.32042932603508,264.0927457236685 59.90754298493266,264.0927457236685 60.20109981391579,263.93380779225845 60.93499188683927,263.93380779225845 61.2285487158224,263.77486984967254 61.2285487158224,263.6159318953287 61.2285487158224,263.6159318953287 62.25599761866033,263.77486984967254 62.54955444764346,263.13911796337925 63.28344652056694,262.5033658926841 63.57700334955007,262.1854897883022 63.8705601785332,261.8676136373542 65.33834432531148,261.23186119797174 66.512571641244,260.9139849089552 68.27391261700541,260.2782321930863 69.15458310395479,260.1192939855391 69.88847517687827,259.96035576588474 70.62236724980175,259.96035576588474 72.97082188352942,259.64247929293197 75.90639017522335,258.8477879080456 76.93383907712996,258.3709729388356 77.81450956501067,257.7352194855921 78.69518005289137,256.94052740954794 79.86940736882389,255.03326525143348 80.30974261276424,252.96706270764116 80.01618578378111,252.01343010785058 80.01618578378111,251.2187359574018 79.86940736882389,250.58298042987008 79.57585054077208,248.3578346312279 79.28229371085763,247.0863217319129 79.28229371085763,245.81480809533969 79.13551529683173,242.95389971637633 79.13551529683173,241.20556498027872 78.84195846691728,239.13934940344188 78.84195846691728,238.50359037239105 78.69518005289137,237.54995148070157 78.84195846691728,235.64267245226074 78.84195846691728,234.84797236742452 78.84195846691728,233.89433188480325 78.84195846691728,232.94069098774344 78.84195846691728,231.19234826543834 78.54840163793415,229.76188500097487 78.54840163793415,229.1261232503457 78.69518005289137,228.4903613155475 78.25484480895102,227.21883689251263 78.54840163793415,226.26519309089053 78.69518005289137,225.47048960672691 78.69518005289137,224.51684504456352 78.9887368818745,221.97379085130524 78.9887368818745,220.7022626483813 78.9887368818745,219.43073370784987 78.84195846691728,217.3644976062933 78.84195846691728,216.0929667293094 78.69518005289137,214.8214351151837 78.69518005289137,209.73530128167477 78.54840163793415,208.78164987429045 77.96128797996789,206.71540373424068 77.37417432107031,205.28492449689656 76.1999470051378,203.37761739385314 75.3192765172571,202.10607840376906 71.64981615170836,199.72194080846384 70.91592407878488,199.08617034507915 68.86102627497166,198.2914570068242 67.98035578709096,197.814628865337 67.09968530014157,197.33780062012374 64.16411700844765,196.70202946534846 62.25599761866033,196.38414381851908 61.66888395976275,196.54308664763812 61.081770301796496,196.22520097810775 60.64143505785614,196.22520097810775 59.61398615594953,196.38414381851908 59.02687249798328,196.38414381851908 58.292980425059795,196.22520097810775 57.85264518111944,196.06625812582206 56.82519627828151,195.74837238737382 56.238082620315254,195.9073152624769 55.7977473763749,195.9073152624769 55.35741213336587,195.9073152624769 54.77029847446829,195.9073152624769 54.183184816502035,195.9073152624769 53.44929274264723,195.74837238737382 53.1557359136641,195.5894295007456 50.95405969489366,195.43048660224304 49.77983237802982,195.43048660224304 49.045940306037664,195.27154369244818 48.31204823218286,195.27154369244818 47.87171298824251,195.43048660224304 46.55070725735277,195.11260077136103 45.816815183497965,195.27154369244818 45.376479940488935,195.27154369244818 44.78936628252268,195.11260077136103 44.2022526236251,195.11260077136103 43.32158213574439,195.11260077136103 42.88124689273536,195.11260077136103 41.5602411609143,195.11260077136103 40.679570673033595,195.27154369244818 39.50534335710108,195.11260077136103 38.47789445519447,195.11260077136103 37.45044555235654,194.95365783839952 36.276218235492706,194.95365783839952 36.1294398214668,195.27154369244818 34.66165567561984,195.11260077136103 31.726087383925915,195.27154369244818 30.992195311002433,195.27154369244818 30.258303238078952,195.27154369244818 28.643740677274764,195.11260077136103 28.056627019308507,195.11260077136103 26.735621287487447,195.43048660224304 26.14850762952119,195.9073152624769 25.561393971554935,196.06625812582206 24.240388239733875,196.86097227130085 23.359717751853168,197.97357159049716 23.06616092287004,198.4503996972926 22.919382507912815,199.08617034507915 22.33226885087788,200.51665362843778 22.33226885087788,202.58290561160538 22.919382507912815,203.85444432508666 23.06616092287004,204.8080978767248 23.653274580836296,206.55646164272912 23.80005299579352,207.66905604093336 23.653274580836296,209.894243142684 23.359717751853168,211.00683584646322 22.919382507912815,214.18566903134342 22.47904726397246,215.45720101427287 22.185490435920656,216.5697908946313 21.891933606006205,218.7949689606903 21.745155191980302,219.90755714650732 21.598376777023077,221.0201447684085 21.01126311905682,223.40425919822883 20.71770628914237,225.15260813198984 20.864484704099596,226.26519309089053 20.864484704099596,227.53671806759667 20.71770628914237,229.60294458060525 20.424149460159242,232.62281059625093 20.130592631176114,233.5764516319614 20.277371045202017,235.96055240533315 20.277371045202017,237.07313187909313 20.71770628914237,239.13934940344188 21.01126311905682,240.09298760385718 21.158041533082724,241.04662538971752 21.598376777023077,242.15920228196774 22.919382507912815,247.0863217319129 23.212939337827265,248.3578346312279 23.653274580836296,250.2651025968371 23.506496166810393,251.2187359574018 23.212939337827265,252.1723689030623 23.06616092287004,252.96706270764116 22.772604093886912,254.87432666344102 22.038712020032108,257.89415786613245 22.185490435920656,259.48354103881866 22.33226885087788,260.2782321930863 22.47904726397246,260.9139849089552 22.919382507912815,262.34442784579005 23.80005299579352,262.82124195084907 24.09360982477665,263.13911796337925 24.680723483674228,263.6159318953287 25.414615555666387,264.0927457236685 26.735621287487447,264.887435207027 27.46951336041093,264.887435207027 29.524411164224148,264.887435207027 30.111524823121727,264.887435207027 31.13897372595966,264.569559447933 32.16642262786627,264.41062155144755 32.753536285832524,264.41062155144755 33.63420677371323,264.569559447933 35.83588299155235,264.2516836433206 37.890780796296895,264.41062155144755 38.624672869220376,264.41062155144755 39.35856494214386,264.41062155144755 39.945678600110114,264.569559447933 40.679570673033595,264.569559447933 42.000576404854655,264.569559447933 42.73446847777814,264.41062155144755 43.32158213574439,264.41062155144755 43.90869579464197,264.41062155144755 44.64258786756545,264.41062155144755 45.376479940488935,264.41062155144755 45.96359359845519,264.569559447933 47.431377745233476,264.41062155144755 48.01849140319973,264.41062155144755 48.752383476123214,264.41062155144755 49.33949713408947,264.41062155144755 51.54117335379124,264.41062155144755 52.12828701175749,264.2516836433206 52.862179084680974,264.41062155144755 54.03640640154481,264.569559447933 54.623520059511065,264.728497333359 55.35741213336587,264.887435207027 56.82519627828151,264.728497333359 57.41230993717909,264.41062155144755 57.999423595145345,264.2516836433206 58.58653725404292,263.93380779225845 59.17365091200918,263.6159318953287 60.347878228873014,262.9801799627021 61.52210554573685,262.9801799627021 61.375327130779624,264.2516836433206 61.081770301796496,264.41062155144755 60.93499188683927,264.41062155144755 60.78821347281337,264.41062155144755 60.78821347281337,264.41062155144755 60.64143505785614,264.569559447933 60.93499188683927,264.41062155144755 60.64143505785614,264.2516836433206 60.93499188683927,264.0927457236685 61.81566237471998,263.4569939292269 62.54955444764346,262.9801799627021 63.28344652056694,262.5033658926841 64.01733859349042,262.1854897883022 65.77867956925184,261.3907993249595 66.36579322628677,261.0729230596917 68.71424786094576,260.437170389574 70.0352535918355,260.1192939855391 71.06270249374211,259.96035576588474 73.41115712746978,259.96035576588474 74.58538444433361,259.8014175350545 76.3467254191637,259.16566449659877 77.52095273602754,258.52991127362475 78.9887368818745,256.94052740954794 80.01618578378111,250.4240415188251 79.72262895386666,249.31146882113535 79.42907212581486,248.03995647537522 79.28229371085763,245.9737473402638 79.28229371085763,244.70223305851687 79.13551529683173,243.74859686300624 79.28229371085763,242.7949602525914 79.13551529683173,240.56980654865038 78.9887368818745,239.77510824985802 78.9887368818745,238.82146991125774 78.9887368818745,237.70889132493176 79.13551529683173,235.64267245226074 79.13551529683173,234.84797236742452 79.13551529683173,233.73539176397026 79.28229371085763,232.94069098774344 78.84195846691728,230.7155272810487 78.9887368818745,227.69565863744356 78.84195846691728,225.31154887517914 78.84195846691728,224.35790424409788 78.84195846691728,223.24531831673812 78.84195846691728,221.338026841986 78.84195846691728,219.43073370784987 78.9887368818745,218.63602774520405 78.9887368818745,217.52343891386408 78.84195846691728,216.7287322600605 78.54840163793415,215.2982595571084 78.69518005289137,213.86778592027258 78.69518005289137,212.43731135036796 78.54840163793415,210.21212682977784 78.54840163793415,209.09953372261953 78.40162322297692,207.98694005107973 78.25484480895102,207.03328788245562 77.52095273602754,205.28492449689656 76.64028224814683,203.53655971598346 76.1999470051378,202.74184799101204 75.90639017522335,202.26502081775106 74.87894127331674,201.4703086320078 74.29182761441916,200.99348118214402 73.85149237141013,200.83453867561184 73.41115712746978,200.51665362843778 72.38370822556317,199.88088339567184 71.94337298162282,199.72194080846384 71.20948090869933,199.56299820996355 70.76914566475898,199.2451129781548 70.0352535918355,199.08617034507915 69.30136151891202,198.60934237670153 68.71424786094576,198.60934237670153 67.68679895810783,198.2914570068242 66.512571641244,197.97357159049716 65.92545798234642,197.814628865337 65.33834432531148,197.6556861284189 64.89800908137113,197.33780062012374 64.45767383743078,197.17885784886312 63.8705601785332,197.17885784886312 63.136668105609715,197.01991506572813 61.2285487158224,196.70202946534846 60.64143505785614,196.38414381851908 59.90754298493266,196.22520097810775 59.46720774192363,196.06625812582206 58.733315668068826,196.06625812582206 57.999423595145345,195.9073152624769 57.41230993717909,195.5894295007456 55.7977473763749,195.43048660224304 54.32996323052794,195.27154369244818 54.03640640154481,195.43048660224304 53.596071157604456,195.43048660224304 52.27506542671472,195.11260077136103 52.12828701175749,195.11260077136103 51.39439493883401,194.95365783839952 50.95405969489366,195.11260077136103 50.22016762197018,194.95365783839952 49.486275549046695,194.95365783839952 49.045940306037664,194.79471489414573 47.57815615925938,194.63577193836682 46.8442640863359,194.63577193836682 46.403928842395544,194.63577193836682 45.816815183497965,194.63577193836682 45.22970152646303,194.63577193836682 44.78936628252268,194.63577193836682 44.0554742095992,194.63577193836682 42.294133234769106,194.63577193836682 41.85379799082875,194.31788599211723 40.82634908799082,194.47682897082996 40.239235430024564,194.31788599211723 39.21178652718663,194.47682897082996 36.863331894390285,194.79471489414573 36.1294398214668,194.63577193836682 35.54232616350055,194.63577193836682 34.95521250460297,194.47682897082996 34.36809884663671,194.47682897082996 33.04709311481565,194.47682897082996 32.459979456849396,194.31788599211723 32.01964421197772,194.47682897082996 31.432530554942787,194.47682897082996 30.698638481087983,194.47682897082996 29.671189579181373,194.31788599211723 28.937297507189214,194.31788599211723 26.882399702444673,194.63577193836682 26.295286043547094,194.95365783839952 24.827501898631454,196.22520097810775 24.240388239733875,196.54308664763812 23.80005299579352,197.17885784886312 23.06616092287004,198.2914570068242 22.625825678929687,199.56299820996355 22.47904726397246,200.03982597100548 22.47904726397246,200.67559615767095 22.47904726397246,202.9007903591264 22.772604093886912,203.69550202658866 22.919382507912815,204.49021340557374 23.212939337827265,205.12598230142612 23.506496166810393,205.76175101322588 23.946831410750747,207.03328788245562 23.80005299579352,207.35117198515218 23.653274580836296,207.98694005107973 23.80005299579352,208.46376597962808 23.80005299579352,208.78164987429045 23.946831410750747,210.37106865632813 23.80005299579352,211.1657776152715 23.80005299579352,211.80154457478784 23.506496166810393,212.59625301510096 23.359717751853168,213.39096116728615 22.919382507912815,214.66249361156952 22.625825678929687,216.25190812943038 22.33226885087788,216.7287322600605 22.33226885087788,217.20555628661532 22.47904726397246,217.84132149477955 22.33226885087788,218.95391016476788 22.038712020032108,219.58967486571055 21.745155191980302,220.0664982702583 21.451598362997174,221.49696786189452 21.30481994803995,222.1327318251133 21.01126311905682,224.51684504456352 20.71770628914237,225.15260813198984 20.570927875116467,226.10625241720118 20.570927875116467,226.7420150436228 20.424149460159242,228.3314208027441 20.570927875116467,228.64930181670934 20.71770628914237,229.28506370529067 20.570927875116467,230.8744676206261 20.71770628914237,232.46387038356625 20.71770628914237,233.25857133301906 20.864484704099596,233.89433188480325 20.71770628914237,234.6890323155094 20.864484704099596,235.48373245785479 20.864484704099596,236.75525208713952 20.71770628914237,237.54995148070157 20.71770628914237,238.18571078800596 20.570927875116467,238.98040966293775 20.570927875116467,239.61616855568718 20.864484704099596,240.8876857877476 20.864484704099596,241.5234441270586 21.01126311905682,242.15920228196774 21.745155191980302,243.43071803892963 22.038712020032108,244.0664756410988 22.33226885087788,244.543293721159 22.47904726397246,245.1790510007413 22.772604093886912,245.81480809533969 22.919382507912815,246.4505650056526 23.06616092287004,246.4505650056526 23.506496166810393,247.5631391556235 23.506496166810393,249.47040781285614 23.359717751853168,250.10616366297472 23.359717751853168,250.58298042987008 23.212939337827265,251.05979709292296 23.212939337827265,251.69555248203687 22.919382507912815,252.33130768698175 22.772604093886912,252.8081239698222 22.625825678929687,253.92069489276037 22.47904726397246,254.87432666344102 22.33226885087788,255.66901948838495 22.33226885087788,256.30477354105096 22.185490435920656,257.09946584759746 21.745155191980302,258.52991127362475 21.891933606006205,260.437170389574 21.891933606006205,260.9139849089552 21.891933606006205,261.3907993249595 22.33226885087788,262.34442784579005 23.06616092287004,263.13911796337925 23.653274580836296,263.4569939292269 24.09360982477665,263.77486984967254 26.001729214563966,264.728497333359 26.588842873461545,264.887435207027 28.49696226324886,264.887435207027 29.084075921215117,264.887435207027 29.8179679941386,265.0463730689371 30.405081652104855,265.0463730689371 30.845416896045208,265.0463730689371 31.432530554942787,264.887435207027 31.87286579888314,264.569559447933 34.07454201672226,264.887435207027 34.66165567561984,265.0463730689371 35.98266140650958,265.0463730689371 36.71655347943306,265.0463730689371 37.30366713833064,265.0463730689371 38.624672869220376,265.0463730689371 40.679570673033595,265.0463730689371 42.14735481981188,264.887435207027 43.32158213574439,264.887435207027 43.90869579464197,264.887435207027 44.64258786756545,265.0463730689371 45.082923111505806,265.0463730689371 45.816815183497965,265.0463730689371 46.403928842395544,264.887435207027 47.57815615925938,265.0463730689371 48.01849140319973,265.0463730689371 48.752383476123214,265.0463730689371 49.33949713408947,265.0463730689371 50.22016762197018,265.0463730689371 50.807281280867755,265.0463730689371 52.71540066972375,265.3642487586476 53.1557359136641,265.5231865863316 54.32996323052794,265.6821244022576 55.210633718408644,265.84106220677495 56.09130420628935,265.6821244022576 56.67841786425561,265.6821244022576 58.733315668068826,265.0463730689371 59.760764569975436,264.41062155144755 60.054321399889886,264.0927457236685 60.64143505785614,263.77486984967254 60.64143505785614,263.29805595218204 60.64143505785614,263.13911796337925 60.054321399889886,264.728497333359 60.78821347281337,264.0927457236685 61.081770301796496,263.77486984967254 61.375327130779624,263.6159318953287 61.375327130779624,263.4569939292269 61.375327130779624,263.6159318953287 61.66888395976275,263.29805595218204 61.81566237471998,263.13911796337925 62.25599761866033,262.9801799627021 62.84311127755791,262.5033658926841 63.28344652056694,262.34442784579005 63.8705601785332,262.0265517185908 64.7512306664139,261.5497374407714 64.89800908137113,261.23186119797174 65.33834432531148,261.23186119797174 65.63190115429461,260.9139849089552 65.92545798234642,260.9139849089552 66.65935005620122,260.5961085744202 67.54002054408193,260.2782321930863 69.00780468992889,260.1192939855391 69.74169676192105,259.8014175350545 71.06270249374211,259.8014175350545 71.64981615170836,260.1192939855391 72.23692981060594,260.1192939855391 73.7047139564529,259.96035576588474 74.29182761441916,259.96035576588474 76.1999470051378,259.00672620837577 76.78706066217273,258.52991127362475 77.37417432107031,257.89415786613245 77.96128797996789,257.5762810934102 78.84195846691728,256.94052740954794 78.9887368818745,255.9868965378264 79.42907212581486,255.51008094637655 79.57585054077208,254.07963355001993 80.01618578378111,253.44387885194737 79.86940736882389,252.96706270764116 80.01618578378111,251.53661365213338 80.01618578378111,251.2187359574018 79.86940736882389,250.74191932880785 79.57585054077208,249.1525298182387 79.42907212581486,248.675712740398 79.57585054077208,248.03995647537522 79.57585054077208,247.40420002595056 79.72262895386666,245.49692957103252 79.42907212581486,244.86117238388397 79.13551529683173,244.22541501244996 79.13551529683173,243.11283916886896 79.13551529683173,242.47708129067905 78.9887368818745,241.84132322738878 78.9887368818745,240.56980654865038 78.69518005289137,239.61616855568718 78.69518005289137,238.98040966293775 78.54840163793415,238.34465058613569 78.84195846691728,237.70889132493176 78.84195846691728,237.07313187909313 78.84195846691728,236.27843231253792 78.84195846691728,236.11949236504734 78.9887368818745,234.6890323155094 79.28229371085763,234.05327199411113 79.28229371085763,233.73539176397026 79.57585054077208,232.46387038356625 79.28229371085763,231.19234826543834 79.13551529683173,230.39764656696934 79.13551529683173,229.76188500097487 78.84195846691728,229.1261232503457 78.84195846691728,228.4903613155475 78.40162322297692,226.5830744043924 78.25484480895102,225.7883710351307 78.25484480895102,224.04002260800917 78.40162322297692,223.24531831673812 78.54840163793415,221.97379085130524 78.54840163793415,220.86120371392462 78.54840163793415,217.52343891386408 78.54840163793415,216.4108495177934 78.25484480895102,214.8214351151837 78.1080663939938,214.02672748162877 78.1080663939938,213.5499027632177 77.96128797996789,213.07307794096414 77.96128797996789,212.43731135036796 77.81450956501067,211.1657776152715 77.81450956501067,210.6889522742713 77.96128797996789,210.21212682977784 77.96128797996789,209.57635940925684 77.81450956501067,208.78164987429045 77.66773115005344,208.14588203828316 77.08061749208719,205.28492449689656 76.64028224814683,204.17232888867147 75.466054931283,202.26502081775106 73.85149237141013,200.67559615767095 70.76914566475898,199.08617034507915 70.0352535918355,198.60934237670153 67.98035578709096,197.6556861284189 67.09968530014157,197.6556861284189 66.65935005620122,197.49674337997567 65.77867956925184,197.49674337997567 65.48512273933738,197.01991506572813 65.04478749539703,197.01991506572813 64.45767383743078,197.01991506572813 63.8705601785332,197.01991506572813 62.98988969158381,197.01991506572813 61.9624407896772,196.54308664763812 61.66888395976275,196.54308664763812 61.375327130779624,196.54308664763812 60.93499188683927,196.54308664763812 60.64143505785614,196.38414381851908 60.20109981391579,196.38414381851908 59.61398615594953,196.22520097810775 59.32042932603508,196.06625812582206 59.02687249798328,196.06625812582206 58.88009408302605,195.9073152624769 58.292980425059795,195.9073152624769 57.85264518111944,195.9073152624769 57.559088352136314,195.74837238737382 57.11875310726464,195.5894295007456 56.67841786425561,195.5894295007456 56.38486103434116,195.43048660224304 55.7977473763749,195.43048660224304 55.35741213336587,195.43048660224304 54.917076889425516,195.43048660224304 54.623520059511065,195.43048660224304 54.183184816502035,195.27154369244818 54.03640640154481,195.27154369244818 53.74284957163036,195.27154369244818 53.30251432862133,195.27154369244818 52.862179084680974,195.27154369244818 52.27506542671472,195.27154369244818 51.834730182774365,195.11260077136103 51.247616523876786,195.11260077136103 50.66050286591053,194.95365783839952 50.3669460369274,194.79471489414573 49.6330539630726,194.79471489414573 49.192718719132245,194.95365783839952 48.60560506209731,194.79471489414573 48.16526981815696,194.79471489414573 48.01849140319973,194.79471489414573 47.431377745233476,194.79471489414573 47.28459933027625,194.79471489414573 46.8442640863359,194.79471489414573 46.403928842395544,194.79471489414573 45.96359359845519,194.63577193836682 45.670036770403385,194.79471489414573 45.376479940488935,194.79471489414573 45.082923111505806,194.79471489414573 44.0554742095992,194.63577193836682 43.76191738061607,194.63577193836682 43.46836055070162,194.63577193836682 43.028025306761265,194.63577193836682 42.73446847777814,194.63577193836682 42.58769006282091,194.79471489414573 42.294133234769106,194.63577193836682 42.000576404854655,194.79471489414573 41.5602411609143,194.63577193836682 41.266684331931174,194.63577193836682 40.82634908799082,194.47682897082996 40.679570673033595,194.47682897082996 39.945678600110114,194.63577193836682 39.652121771126986,194.47682897082996 39.50534335710108,194.63577193836682 39.21178652718663,194.63577193836682 38.91822969913483,194.63577193836682 38.47789445519447,194.79471489414573 38.18433762528002,194.79471489414573 37.890780796296895,194.79471489414573 37.74400238227099,194.79471489414573 37.30366713833064,194.79471489414573 36.863331894390285,194.95365783839952 36.71655347943306,194.95365783839952 36.276218235492706,194.79471489414573 35.68910457752645,194.63577193836682 35.68910457752645,194.47682897082996 35.68910457752645,194.47682897082996 35.54232616350055,194.47682897082996 35.39554774854332,194.47682897082996 35.101990919560194,194.31788599211723 35.39554774854332,194.47682897082996 35.24876933451742,194.31788599211723 35.101990919560194,194.47682897082996 35.24876933451742,194.47682897082996 35.24876933451742,194.63577193836682 34.808434090577066,194.95365783839952 34.36809884663671,194.79471489414573 34.07454201672226,194.47682897082996 33.487428358756006,194.63577193836682 33.19387152977288,194.63577193836682 32.6067578708753,194.79471489414573 32.31320104282349,194.79471489414573 32.16642262786627,194.79471489414573 32.01964421197772,194.79471489414573 31.726087383925915,194.95365783839952 31.13897372595966,194.79471489414573 30.698638481087983,194.63577193836682 30.55186006706208,194.63577193836682 30.111524823121727,194.63577193836682 29.671189579181373,194.63577193836682 29.524411164224148,194.63577193836682 28.937297507189214,194.47682897082996 28.643740677274764,194.47682897082996 28.49696226324886,194.47682897082996 28.20340543333441,194.47682897082996 27.322734946385026,194.63577193836682 27.1759565314278,194.63577193836682 25.708172385580838,195.5894295007456 24.387166653759778,196.54308664763812 23.946831410750747,197.33780062012374 23.653274580836296,197.814628865337 23.212939337827265,198.76828504458535 23.212939337827265,199.08617034507915 23.06616092287004,199.56299820996355 22.772604093886912,200.3577110876795 22.625825678929687,200.83453867561184 22.47904726397246,201.31136616005097 22.47904726397246,201.78819354088046 22.47904726397246,202.10607840376906 22.772604093886912,202.42396322032437 22.772604093886912,203.05973271594848 22.919382507912815,204.0133866125252 23.212939337827265,204.8080978767248 23.359717751853168,204.9670400947798 23.359717751853168,205.60280885233078 23.653274580836296,205.76175101322588 23.80005299579352,206.23857742571272 23.653274580836296,206.71540373424068 23.80005299579352,207.19222993950825 23.946831410750747,207.98694005107973 23.946831410750747,208.46376597962808 23.946831410750747,208.78164987429045 23.946831410750747,209.09953372261953 23.80005299579352,209.41741752577946 23.946831410750747,209.73530128167477 23.946831410750747,210.37106865632813 23.946831410750747,210.6889522742713 23.946831410750747,211.64260285219643 23.06616092287004,213.86778592027258 22.919382507912815,214.50355209608097 21.745155191980302,217.68238021002617 21.451598362997174,218.95391016476788 21.30481994803995,220.0664982702583 21.01126311905682,222.29167278681416 20.864484704099596,223.40425919822883 20.130592631176114,226.7420150436228 19.98381421621889,227.85459919588175 19.98381421621889,228.96718278410845 19.98381421621889,231.9870496755466 19.98381421621889,233.25857133301906 19.837035802192986,234.53009225265123 20.130592631176114,237.39101162482984 20.424149460159242,241.20556498027872 20.864484704099596,243.43071803892963 21.451598362997174,244.38435437250882 22.47904726397246,247.0863217319129 22.772604093886912,248.3578346312279 22.919382507912815,250.90085821645334 22.919382507912815,252.01343010785058 22.625825678929687,253.28494014893658 21.891933606006205,255.82795801910106 21.745155191980302,256.94052740954794 21.598376777023077,259.64247929293197 22.625825678929687,261.8676136373542 23.80005299579352,263.4569939292269 25.561393971554935,264.41062155144755 26.735621287487447,264.728497333359 29.23085433524102,265.0463730689371 30.258303238078952,265.20531091978773 31.432530554942787,265.20531091978773 33.63420677371323,265.20531091978773 34.66165567561984,265.20531091978773 39.945678600110114,265.6821244022576 42.88124689273536,265.6821244022576 44.2022526236251,265.6821244022576 49.486275549046695,265.6821244022576 50.66050286591053,265.6821244022576 53.00895749870688,266.0 55.50419054739177,265.84106220677495 56.82519627828151,265.5231865863316 59.32042932603508,264.569559447933 60.49465664289892,264.0927457236685 62.402776033617556,262.9801799627021 63.28344652056694,262.34442784579005 65.04478749539703,261.3907993249595 66.07223639823496,261.0729230596917 67.24646371416748,260.5961085744202 69.44813993386924,260.1192939855391 70.47558883577585,260.1192939855391 71.79659456666559,259.96035576588474 75.466054931283,259.00672620837577 76.4935038331896,258.3709729388356 78.40162322297692,256.6226504984079 79.57585054077208,254.71538806392346 79.86940736882389,252.49024645949248 79.57585054077208,251.2187359574018 79.13551529683173,247.24526088451967 79.13551529683173,244.86117238388397 78.9887368818745,242.31814179196954 78.84195846691728,239.61616855568718 78.9887368818745,238.66253014758695 78.9887368818745,237.70889132493176 78.84195846691728,235.3247924526222 78.84195846691728,234.37115217768587 78.9887368818745,233.25857133301906 78.9887368818745,232.30493015912361 78.84195846691728,229.92082540970296 78.69518005289137,226.10625241720118 78.54840163793415,223.40425919822883 78.69518005289137,220.0664982702583 78.84195846691728,218.95391016476788 78.69518005289137,216.88767361396458 78.69518005289137,215.93402531801257 78.40162322297692,213.2320195598295 78.69518005289137,211.96048628597055 78.69518005289137,211.00683584646322 78.54840163793415,208.622707932489 77.96128797996789,206.55646164272912 77.52095273602754,205.28492449689656 76.93383907712996,204.33127115271054 76.78706066217273,203.69550202658866 76.05316859018058,202.74184799101204 73.41115712746978,200.67559615767095 72.53048663958907,200.19876853504684 67.24646371416748,197.49674337997567 66.36579322628677,197.01991506572813 64.45767383743078,196.70202946534846 63.43022493459284,196.38414381851908 62.25599761866033,196.06625812582206 60.20109981391579,195.74837238737382 59.32042932603508,195.74837238737382 58.292980425059795,195.5894295007456 57.41230993717909,195.43048660224304 55.650968962349,195.11260077136103 54.623520059511065,195.11260077136103 53.74284957163036,195.11260077136103 51.834730182774365,194.79471489414573 50.95405969489366,194.79471489414573 50.07338920701295,194.63577193836682 48.01849140319973,194.31788599211723 47.28459933027625,194.63577193836682 44.2022526236251,194.31788599211723 40.679570673033595,194.31788599211723 38.624672869220376,194.31788599211723 37.30366713833064,194.15894300176296 35.98266140650958,194.15894300176296 30.698638481087983,194.0 26.588842873461545,195.11260077136103 25.561393971554935,195.74837238737382 23.80005299579352,197.33780062012374 23.212939337827265,198.2914570068242 22.33226885087788,200.51665362843778 22.33226885087788,202.58290561160538 22.33226885087788,203.37761739385314 22.625825678929687,204.33127115271054 22.625825678929687,205.60280885233078 22.919382507912815,207.82799805200193 22.919382507912815,209.09953372261953 22.919382507912815,211.4836611180799 22.772604093886912,212.75519466865808 22.185490435920656,214.98037660703994 21.745155191980302,217.3644976062933 21.451598362997174,218.63602774520405 21.30481994803995,219.58967486571055 20.864484704099596,221.8148498663213 20.71770628914237,223.08637742407154 20.570927875116467,224.1989634319907 20.130592631176114,227.69565863744356 19.98381421621889,228.80824230599683 19.837035802192986,229.92082540970296 19.543478972278535,232.1459899233887 19.543478972278535,233.25857133301906 19.543478972278535,234.6890323155094 19.837035802192986,236.59631217399146 20.130592631176114,237.39101162482984 20.570927875116467,238.66253014758695 20.570927875116467,239.13934940344188 20.570927875116467,239.61616855568718 20.864484704099596,240.09298760385718 20.864484704099596,240.56980654865038 21.01126311905682,241.04662538971752 21.158041533082724,241.68238368304446 21.745155191980302,242.7949602525914 22.038712020032108,244.38435437250882 22.33226885087788,245.6558688391233 22.625825678929687,246.7684433920076 22.919382507912815,250.58298042987008 22.772604093886912,251.85449130053166 22.33226885087788,254.3975108298473 21.745155191980302,256.6226504984079 21.598376777023077,260.2782321930863 22.185490435920656,262.34442784579005 24.533945068717003,264.2516836433206 25.85495079960674,264.41062155144755 27.763070189394057,264.887435207027 28.79051909223199,265.20531091978773 31.13897372595966,265.20531091978773 32.6067578708753,265.3642487586476 33.780985187739134,265.5231865863316 36.276218235492706,265.5231865863316 37.30366713833064,265.5231865863316 38.7714512841776,265.5231865863316 41.11990591790527,265.5231865863316 42.44091164879501,265.3642487586476 43.61513896565884,265.5231865863316 47.57815615925938,265.5231865863316 48.458826647140086,265.5231865863316 50.95405969489366,265.5231865863316 52.12828701175749,265.6821244022576 53.30251432862133,265.84106220677495 55.9445257904008,265.84106220677495 57.26553152222186,265.5231865863316 58.4397588390857,265.20531091978773 60.347878228873014,264.569559447933 60.64143505785614,264.2516836433206 61.081770301796496,263.77486984967254 60.93499188683927,263.77486984967254 61.081770301796496,263.77486984967254 61.2285487158224,263.93380779225845 61.2285487158224,263.4569939292269 61.081770301796496,263.6159318953287 61.52210554573685,263.4569939292269 61.52210554573685,263.29805595218204 61.66888395976275,263.13911796337925 62.109219203703105,262.82124195084907 62.25599761866033,262.82124195084907 62.98988969158381,262.5033658926841 63.28344652056694,262.1854897883022 63.43022493459284,262.1854897883022 64.7512306664139,261.3907993249595 65.04478749539703,260.9139849089552 64.89800908137113,260.9139849089552 64.89800908137113,260.9139849089552 65.19156591035426,260.9139849089552 65.33834432531148,260.9139849089552 65.33834432531148,260.9139849089552 65.19156591035426,261.0729230596917 65.33834432531148,261.0729230596917 65.33834432531148,260.9139849089552 65.48512273933738,260.7550467472756 65.63190115429461,260.437170389574 67.54002054408193,260.437170389574 69.74169676192105,260.1192939855391 73.11760029755533,259.96035576588474 74.29182761441916,259.8014175350545 76.1999470051378,258.52991127362475 77.22739590611309,257.89415786613245 78.69518005289137,256.14583504525945 79.42907212581486,254.07963355001993 79.72262895386666,252.96706270764116 79.57585054077208,249.47040781285614 79.42907212581486,248.19889555883128 79.28229371085763,246.9273825676646 79.13551529683173,244.543293721159 79.28229371085763,243.11283916886896 79.13551529683173,242.15920228196774 78.84195846691728,238.02677097835112 79.13551529683173,236.27843231253792 78.9887368818745,234.21221209154464 78.9887368818745,232.1459899233887 78.69518005289137,228.4903613155475 78.9887368818745,226.90095567156095 78.9887368818745,225.62943032651674 78.84195846691728,223.24531831673812 78.69518005289137,221.97379085130524 78.84195846691728,221.0201447684085 78.54840163793415,217.68238021002617 78.54840163793415,216.7287322600605 78.54840163793415,215.6161424603779 78.69518005289137,212.91413631034084 78.84195846691728,211.96048628597055 78.69518005289137,210.84789406624623 78.69518005289137,210.21212682977784 78.54840163793415,209.09953372261953 78.54840163793415,207.98694005107973 78.54840163793415,207.5101140186889 78.25484480895102,207.03328788245562 78.40162322297692,206.87434581445996 78.1080663939938,206.23857742571272 77.81450956501067,205.9206931621302 77.81450956501067,205.60280885233078 77.37417432107031,204.64915564726107 76.93383907712996,204.17232888867147 76.3467254191637,203.37761739385314 75.75961176119745,202.26502081775106 73.7047139564529,200.51665362843778 72.82404346950352,200.03982597100548 71.79659456666559,199.40405559993815 68.71424786094576,198.2914570068242 67.54002054408193,197.814628865337 66.36579322628677,197.49674337997567 64.60445225145668,196.86097227130085 63.57700334955007,196.54308664763812 62.84311127755791,196.38414381851908 62.54955444764346,196.38414381851908 60.78821347281337,196.38414381851908 60.64143505785614,196.22520097810775 59.90754298493266,196.22520097810775 59.760764569975436,196.06625812582206 59.46720774192363,196.06625812582206 58.88009408302605,196.06625812582206 58.733315668068826,196.06625812582206 57.999423595145345,196.06625812582206 57.559088352136314,195.9073152624769 56.67841786425561,195.74837238737382 55.35741213336587,195.74837238737382 55.210633718408644,195.5894295007456 54.183184816502035,195.43048660224304 53.889627986587584,195.43048660224304 53.74284957163036,195.27154369244818 52.568622254766524,195.11260077136103 52.42184384074062,194.95365783839952 51.54117335379124,194.95365783839952 51.10083810985088,194.95365783839952 50.807281280867755,194.95365783839952 50.07338920701295,194.79471489414573 49.486275549046695,194.79471489414573 48.01849140319973,194.95365783839952 46.55070725735277,194.79471489414573 44.0554742095992,194.31788599211723 42.88124689273536,194.31788599211723 41.70701957587153,194.47682897082996 39.35856494214386,194.31788599211723 38.33111604023725,194.15894300176296 34.66165567561984,194.0 33.63420677371323,194.0 31.28575213998556,194.0 30.258303238078952,194.15894300176296 29.084075921215117,194.15894300176296 27.029178116470575,194.79471489414573 26.001729214563966,195.43048660224304 23.946831410750747,197.17885784886312 23.212939337827265,198.13251430436503 22.185490435920656,200.03982597100548 21.891933606006205,201.9471359779127 22.185490435920656,204.17232888867147 23.212939337827265,207.5101140186889 23.359717751853168,208.46376597962808 23.06616092287004,211.32471937220544 22.625825678929687,213.07307794096414 22.038712020032108,216.0929667293094 21.891933606006205,217.04661495611072 21.598376777023077,218.15920402959455 21.451598362997174,220.0664982702583 21.598376777023077,220.38438048225362 21.745155191980302,221.49696786189452 21.598376777023077,222.1327318251133 21.451598362997174,222.60955467633903 21.30481994803995,223.40425919822883 21.30481994803995,223.72214092616923 21.158041533082724,224.35790424409788 21.158041533082724,224.67578583362047 21.158041533082724,224.99366737762466 20.864484704099596,226.26519309089053 20.71770628914237,226.90095567156095 20.424149460159242,227.53671806759667 20.570927875116467,227.69565863744356 20.71770628914237,228.3314208027441 19.98381421621889,231.35128857044037 19.98381421621889,232.30493015912361 19.98381421621889,233.25857133301906 19.98381421621889,234.53009225265123 20.277371045202017,236.59631217399146 20.277371045202017,237.70889132493176 20.424149460159242,238.98040966293775 21.01126311905682,241.20556498027872 21.451598362997174,242.15920228196774 22.33226885087788,246.4505650056526 22.625825678929687,249.94722471770365 22.625825678929687,252.96706270764116 22.185490435920656,254.3975108298473 21.598376777023077,256.94052740954794 21.30481994803995,259.64247929293197 22.038712020032108,261.7086755450582 22.772604093886912,262.66230392747093 23.506496166810393,263.4569939292269 25.414615555666387,264.569559447933 30.258303238078952,264.728497333359 31.13897372595966,264.887435207027 32.16642262786627,265.0463730689371 33.34064994379878,265.0463730689371 35.68910457752645,265.3642487586476 36.71655347943306,265.3642487586476 37.890780796296895,265.3642487586476 40.38601384498179,265.5231865863316 41.70701957587153,265.20531091978773 42.88124689273536,265.20531091978773 45.376479940488935,265.3642487586476 47.28459933027625,265.20531091978773 48.01849140319973,265.0463730689371 48.60560506209731,265.0463730689371 49.92661079298705,265.0463730689371 50.513724450953305,265.20531091978773 52.862179084680974,264.887435207027 53.30251432862133,264.887435207027 53.74284957163036,265.0463730689371 54.32996323052794,265.0463730689371 54.77029847446829,265.20531091978773 55.35741213336587,265.3642487586476 55.7977473763749,265.3642487586476 57.11875310726464,265.0463730689371 59.02687249798328,264.728497333359 59.760764569975436,264.41062155144755 60.78821347281337,263.77486984967254 60.78821347281337,263.93380779225845 60.78821347281337,263.93380779225845 60.78821347281337,264.0927457236685 60.49465664289892,264.2516836433206 60.78821347281337,264.0927457236685 60.49465664289892,263.77486984967254 60.347878228873014,263.77486984967254 60.347878228873014,263.93380779225845 60.64143505785614,263.93380779225845 61.2285487158224,263.4569939292269 61.9624407896772,263.13911796337925 63.43022493459284,262.66230392747093 64.31089542247355,262.1854897883022 65.33834432531148,261.8676136373542 66.512571641244,261.5497374407714 68.56746944598854,260.9139849089552 71.79659456666559,260.9139849089552 72.82404346950352,260.5961085744202 73.85149237141013,260.2782321930863 77.96128797996789,256.30477354105096 78.54840163793415,254.2385721958708 78.9887368818745,252.8081239698222 78.9887368818745,250.58298042987008 78.9887368818745,249.47040781285614 79.13551529683173,247.40420002595056 78.9887368818745,244.0664756410988 78.84195846691728,242.95389971637633 78.84195846691728,241.84132322738878 78.69518005289137,238.50359037239105 78.69518005289137,236.75525208713952 78.69518005289137,236.11949236504734 78.69518005289137,235.48373245785479 78.69518005289137,234.6890323155094 78.69518005289137,234.21221209154464 78.69518005289137,233.73539176397026 78.54840163793415,233.5764516319614 78.54840163793415,233.09963116596919 78.84195846691728,232.1459899233887 78.84195846691728,231.03340794867836 78.69518005289137,230.55658693006262 78.40162322297692,230.07976580713876 78.40162322297692,228.96718278410845 78.40162322297692,228.64930181670934 78.40162322297692,228.0135397433769" stroke="#4dd2ff" stroke-linecap="round" stroke-linejoin="round" stroke-width="0.5"><title>2020-09-06 10.3km</title></polyline></svg>