<?xml version="1.0" encoding="utf-8" ?>
<svg baseProfile="full" height="300mm" version="1.1" viewBox="0,0,200,300" width="200mm" xmlns="http://www.w3.org/2000/svg" xmlns:ev="http://www.w3.org/2001/xml-events" xmlns:xlink="http://www.w3.org/1999/xlink"><defs /><rect fill="#222222" height="300" width="200" x="0" y="0" /><text fill="#FFFFFF" style="font-size:12px; font-family:Arial; font-weight:bold;" x="10" y="20">Over 10km Runs</text><text fill="#FFFFFF" style="font-size:4px; font-family:Arial" x="10" y="280">ATHLETE</text><text fill="#FFFFFF" style="font-size:9px; font-family:Arial" x="10" y="290">peiming</text><text fill="#FFFFFF" style="font-size:4px; font-family:Arial" x="120" y="280">STATISTICS</text><text fill="#FFFFFF" style="font-size:3px; font-family:Arial" x="120" y="285">Number: 4</text><text fill="#FFFFFF" style="font-size:3px; font-family:Arial" x="120" y="290">Weekly: 1.0</text><text fill="#FFFFFF" style="font-size:3px; font-family:Arial" x="141" y="285">Total: 45.4 km</text><text fill="#FFFFFF" style="font-size:3px; font-family:Arial" x="141" y="290">Avg: 11.4 km</text><text fill="#FFFFFF" style="font-size:3px; font-family:Arial" x="167" y="285">Min: 10.2 km</text><text fill="#FFFFFF" style="font-size:3px; font-family:Arial" x="167" y="290">Max: 13.0 km</text><polyline fill="none" points="52.470554291736335,63.60579319417593 50.52764671901241,60.11159156658687 49.427887715632096,58.04682556045009 48.438104612519965,55.94234448974021 48.10817691148259,55.108491258259164 47.411662875907496,52.924583908723434 46.531855673063546,50.70096018756158 46.128610705025494,49.946514369541546 44.955534434644505,47.08755234579439 43.965751331532374,45.02273713890463 42.97596822842024,43.156455143907806 42.57272326061502,42.521123648941284 42.352771459845826,41.76666653944994 41.802891958039254,40.49599957978353 41.6195987907704,39.82095655577723 41.069719289196655,38.94737022818299 40.70313295465894,37.91494822234381 40.079936186084524,36.44572892828728 39.23678761650808,34.857379302120535 39.27344625000842,35.33388467467739 39.45673941727728,35.88980708431336 40.44652252038941,37.319319254835136 41.54628152400255,39.74153967463644 41.949526491807774,40.41658279666444 43.41587182995863,44.14915912610013 44.00240996503271,45.22127740163705 44.62560673360713,46.69047310415772 45.28546213568188,47.72287853239686 46.128610705025494,49.946514369541546 46.64183157333173,51.018621272960445 46.971759274601936,52.249556235416094 48.40144597901963,55.98205175474868 50.38101218524389,59.99247066289536 51.66406435612589,62.01752249605488 52.06730932393111,63.0896057235077 52.617188825737685,63.96315346538904 53.496996028581634,65.78965786923072 54.30348596442491,66.90144017065177 55.10997590026818,68.60881573095685 56.09975900338031,70.43530461293994 57.676080241566524,73.57208649691893 58.33593564387411,74.56473524292232 58.99579104594886,75.87502882783883 60.975357252173126,79.36912970163394 62.55167849059217,82.38674430415267 62.881606191629544,82.86320824525319 64.23797562927939,85.3646371238865 65.59434506692924,87.3895949771977 66.25420046877116,88.54103825500351 67.06069040484726,89.69247910822742 68.41705984249711,92.11446747137234 70.066698347684,94.65555848419899 71.16645735106431,96.87900343362708 71.16645735106431,97.59368024748983 70.94650555052795,98.18924354549381 70.65323648275807,99.3406640823232 70.43328468222171,99.89652140490944 69.51681884587742,101.52438602776965 66.80407997081056,105.45506355524412 64.82451376435347,108.47253420576453 63.68809612747282,109.94155994412722 62.734971657861024,111.48998820764245 61.89182308851741,113.63395856591524 61.59855402098037,115.46029705696856 61.59855402098037,114.78534658593708 61.855164455017075,113.59425548749277 62.25840942305513,112.48256812198088 62.77163029112853,111.41058173667989 63.431485693203285,110.33859325019876 64.49458606331609,109.06808565626852 65.26441736589186,107.8372786102409 67.53725263965316,104.58158210178954 68.56369437626563,102.87431886896957 69.40684294560924,101.72290577218519 69.99338108091615,100.77001034165733 70.3966260489542,100.01563361476292 70.79987101675943,98.90391864691628 71.23977461829782,96.99811630081967 71.23977461829782,96.48196035582805 70.76321238325909,95.72757771343458 69.40684294560924,93.8614688111702 68.60035300976597,92.27328600556939 68.16044940822758,91.75712560053216 65.85095550119877,87.82634960935684 64.27463426277973,85.48375249930541 63.65143749397248,84.1337767248624 62.80828892462887,82.58527099667117 62.11177488928661,81.63234221489984 61.74518855474889,80.67941177228931 60.38881911709905,78.1382558051846 59.14242557971738,76.19267528457567 58.15264247660525,74.04855811988818 57.56610434129834,73.25443851752789 56.209734903881326,70.43530461293994 54.633413665462285,68.01322021096712 54.30348596442491,67.02055956877302 53.27704422781244,64.95581965934252 52.54387155873701,63.84403340096469 52.21394385793246,63.12931246927474 51.7007229893934,62.53371097909985 51.22416075482033,61.779281493247254 50.08774311770685,59.59540079624276 49.39122908213176,58.04682556045009 48.987984114093706,57.4115113739972 48.62139777978882,56.41883147956105 48.25481144525111,55.66439355391776 47.37500424240716,53.44078097882448 47.15505244163796,52.130433618294774 46.34856250579469,50.34359124567709 44.955534434644505,47.68317066732561 44.84555853437632,47.24638396161026 44.368996299570426,46.33310154004721 43.34255456295796,43.75207774961018 42.939309594919905,43.116746947023785 42.16947829257697,41.607833331043366 41.54628152400255,39.78124811663292 40.88642612169497,38.828244711621664 40.4098638871219,37.51786231616279 40.079936186084524,36.88252426616964 39.42008078377694,35.17504959666985 39.23678761650808,34.817670502350666 39.053494449472055,34.73825289407978 40.15325345285237,37.1207761214755 40.81310885492712,38.35174238588661 41.58294015727006,40.13862396508921 41.912867858307436,41.2107501081191 42.939309594919905,43.47412061438081 43.19592002918944,44.14915912610013 44.14904449880123,45.77718975357129 45.248803502181545,48.27878833981231 45.57873120321892,49.35089851455996 46.4585384062957,50.93920601892751 46.825124740600586,51.7730656110798 46.971759274601936,52.527508907805895 47.22836970863864,53.1628287708736 47.448321509175,53.91727014933713 48.144835544982925,55.78351540089352 49.09796001459472,57.967411327466834 50.41767081874423,60.07188460152247 51.7007229893934,62.61312454857398 52.80048199300654,64.51904675606056 53.350361494813114,65.74995131668402 54.15685143065639,66.86173369878088 54.96334136649966,68.56910938315559 57.089542106492445,72.46031776163727 57.34615254076198,73.17502649387461 58.15264247660525,74.40591156468145 58.62920471141115,75.47797049736255 60.20552594983019,78.1382558051846 60.682088184636086,79.13089626061264 62.18509215605445,81.79116379391053 62.441702590323985,82.42644964842475 62.99158209213056,83.1411453524197 63.90804792824201,85.04699599585729 64.56790333031677,86.03962390814559 65.48436916666105,87.78664465725888 66.95071450457908,89.89100314810639 68.0504735079594,91.9556488909875 69.26020841184072,93.8614688111702 69.48016021260992,94.37762722978368 70.28665014845319,95.4496470039594 71.09314008429646,96.79959484116989 71.09314008429646,97.4745675100421 70.98316418402828,98.07013093784917 70.35996741522104,99.69800099742133 69.51681884587742,101.40527414655662 67.97715624119155,103.62869165232405 67.610569906421,104.26395213641808 66.98737313784659,105.05802670388948 66.32751773600467,106.16972916127997 65.52102779992856,107.08291163219837 64.78785513085313,108.27401691139676 63.578120227204636,109.90185659762938 62.69831302436069,111.29147200859734 62.07511625578627,112.6810838887177 61.561895387247205,114.26920742847142 61.5252367539797,115.18237637568382 61.59855402098037,115.5 61.81850582151674,113.71336471405812 62.588337124092504,111.60909789250582 62.69831302436069,111.17236225455417 64.53124469681643,108.79016172670526 66.21754183550365,106.2491363932204 67.97715624119155,103.86691442027222 68.85696344380267,102.5169840294111 69.3335256788414,101.60379393422045 70.066698347684,100.53178622451378 70.35996741522104,99.89652140490944 70.90984691702761,97.99072251821053 71.1297987177968,96.95841201464646 71.09314008429646,96.60107330937171 69.95672244741581,95.13201173435664 68.93028071080334,92.98796883891919 67.97715624119155,91.67771626426838 67.02403177134693,89.97041274397634 66.47415226977319,89.17631626696675 66.10756593523547,88.30280881022918 65.5576864334289,87.66752978347358 64.27463426277973,85.7616882743605 63.724754760973155,84.41171318621491 62.55167849059217,82.62497632656596 61.48857812047936,80.24265143103548 59.91225688229315,77.70149343388039 58.59254607814364,74.80297067380161 57.74939750880003,73.81032236033934 57.4927870745305,72.93679035367677 56.61297987168655,71.46766519470839 56.02644173637964,70.19706727872835 55.43990360130556,69.24411690380657 54.81670683273114,68.60881573095685 54.45012049819343,68.01322021096712 53.496996028581634,65.78965786923072 53.02043379354291,64.99552626960212 51.99399205716327,62.891071951016784 51.62740572239272,61.97781566946651 50.78425715304911,60.86602335408679 50.08774311770685,59.63510779594071 49.024642747594044,57.64975428048638 48.40144597901963,56.65707481856225 47.96154237771407,55.22761322633596 47.15505244163796,53.04370635288069 46.89844200760126,51.653942890057806 46.715148840332404,51.09803651552647 45.688707103719935,49.07294422676205 44.552289466839284,47.44492341656587 43.929092698032036,45.26098544555134 43.56250636372715,44.506532118306495 43.232578662456945,43.47412061438081 42.09616102557629,41.80637483438477 41.912867858307436,41.369583431922365 41.949526491807774,40.773958229634445 41.83955059153959,40.37687440079753 41.54628152400255,39.86066499198205 40.99640202219598,39.14591269794619 40.4098638871219,38.192908185039414 39.3834221502766,35.37359343699063 39.01683581597172,34.65883527419646 38.760225381702185,34.5 39.09015308273956,34.65883527419646 39.31010488350876,34.857379302120535 39.750008484814316,35.45301095294417 40.629815687658265,37.99436536888243 41.58294015727006,39.701831229642266 42.206136926077306,40.654833111242624 42.53606462688185,41.96520798504935 42.86599232815206,42.99762233943329 43.672482263995335,44.863904876838205 44.515630833338946,46.21397763333516 45.02885170164518,47.3655076433206 45.57873120321892,48.19937268763897 46.31190387229435,50.66125253887731 46.825124740600586,51.81277317891363 47.448321509175,53.75844047204009 47.92488374421373,54.790832549653715 48.47476324578747,56.537953162012855 49.53786361590028,58.64243193954462 49.97776721720584,59.27774469531141 51.004208953818306,61.0645578620024 51.84735752316192,62.21605658563203 52.36057839146815,63.44696633212152 52.87379925977439,64.2411001813889 53.27704422781244,65.19405927765183 54.193510064156726,66.54408182037878 54.486779131693766,67.3382111704559 54.89002409949899,68.13233936682809 55.14663453376852,68.9661727315688 56.17307627038099,70.67354184333817 56.42968670441769,71.42795905450475 57.45612844103016,73.25443851752789 58.33593564387411,75.16032362534315 59.21574284671806,76.27208686998347 60.132208682829514,78.29707839913317 60.71874681790359,79.32942413538694 61.34194358671084,80.16324042232009 62.03845762228593,81.71175301022595 62.40504395682365,82.30733360690647 62.69831302436069,82.58527099667117 61.67187128774822,80.99705543770688 61.08533315267414,79.76618520615739 60.38881911709905,78.65442906689714 60.05889141606167,77.9000218276633 58.59254607814364,75.59708802681416 57.85937340906821,73.45296852636966 57.529445708030835,72.97649638418807 57.05288347299211,72.50002382686944 56.42968670441769,71.5867835979152 55.98978310311213,70.39559839773574" stroke="#4dd2ff" stroke-linecap="round" stroke-linejoin="round" stroke-width="0.5"><title>2022-12-11 13.0km</title></polyline><polyline fill="none" points="110.65400410676375,93.51014195207972 110.82032854249701,94.77113578934222 111.90143737150356,97.92361477483064 112.73305954877287,99.27467474481091 113.89733059518039,99.81509832071606 118.72073921980336,100.62573324330151 120.79979466134682,100.62573324330151 125.95585215603933,99.72502774104942 127.53593429131433,99.72502774104942 130.86242299806327,100.26545112102758 132.6919917864725,100.17538057407364 134.85420944541693,99.54488656227477 138.34702258743346,97.6534026041627 139.6776180700399,97.2931196183199 140.75872689904645,97.38319037482142 141.59034907631576,97.74347333423793 142.6714579053223,98.82432158477604 145.16632443573326,103.05763483338524 146.2474332647398,104.31861896603368 148.2433264888823,105.66967197170015 150.65503080096096,106.12002264673356 156.72587268985808,106.12002264673356 162.29774127341807,104.85904034471605 163.21252566762269,104.49875945178792 166.70533880917355,102.15693109668791 171.36242299806327,99.72502774104942 172.94250513380393,99.45481596305035 177.2669404516928,99.54488656227477 180.09445585217327,99.27467474481091 183.4209445589222,97.6534026041627 184.16940451739356,97.11297808645759 184.75154004152864,96.12219919252675 185.1673511294648,94.95127766137011 185.08418891159818,94.05056803917978 183.83675564732403,91.25836405449081 183.17145790578797,88.91651070525404 182.09034907631576,84.68314920109697 180.75975359370932,77.83768300910015 180.09445585217327,76.48659969156142 177.76591375749558,74.14471845549997 176.2689938400872,72.07305059954524 175.68685831641778,71.71276018454228 173.5246406570077,71.08225170627702 171.27926078019664,70.00137928361073 168.28542094444856,69.19072434853297 166.2895277212374,68.19992315303534 164.7926078028977,67.11904821870849 163.79466119082645,65.94809931062628 162.87987679662183,63.69627138006035 160.96714579081163,60.36355854081921 158.30595482559875,57.57127872703131 157.1416837782599,55.58965698129032 154.81314168404788,52.52714441972785 152.98357289563864,50.5455146151362 151.56981519516557,49.91499537683558 148.9086242299527,49.284475818276405 146.91273100627586,47.93336139910389 145.91478439420462,47.57306397194043 144.33470225846395,47.302840832737274 141.75667351158336,47.302840832737274 134.43839835748076,43.789934668457136 132.3593429159373,43.24948668316938 130.11396303912625,43.609785366337746 127.53593429131433,44.96090449555777 126.12217659130692,46.67231994634494 124.29260780289769,49.374550060601905 123.29466119082645,50.18521794688422 120.88295687921345,50.81573704758193 118.22176591400057,50.81573704758193 113.81416837777942,52.25692236004397 110.98665297729895,52.707292426843196 109.82238193042576,53.06758836249355 108.65811088308692,53.87825383490417 107.07802874734625,56.04002583795227 105.49794661207125,57.39113142644055 104.6663244352676,58.832309098914266 104.5,59.7330442937091 104.8326488705352,60.543705409625545 107.07802874734625,62.795539063517936 109.4897330594249,66.21831838740036 111.4856262835674,71.71276018454228 112.23408624250442,76.21638285170775 113.98049281304702,80.6299172018189 113.89733059518039,81.62070846906863 113.48151950724423,82.7916425827425 110.32135523622856,86.21436673193239 109.6560574946925,87.20515353907831 109.32340862415731,88.28601097129285 110.98665297729895,96.30234086851124 111.56878850096837,98.10375618911348 112.48357289517298,99.36474535707384 113.89733059518039,100.4455921954941 115.97638603718951,100.89594476658385 121.54825462028384,100.89594476658385 126.95379876811057,99.81509832071606 129.19917864492163,100.17538057407364 131.19507186906412,100.80587426549755 132.27618069807068,100.80587426549755 133.52361396327615,100.62573324330151 136.01848049275577,99.63495715497993 138.59650924056768,97.6534026041627 139.92710472317412,97.6534026041627 140.84188911691308,97.8335440576775 141.83983572898433,98.46403893921524 142.83778234105557,99.54488656227477 145.24948665313423,103.05763483338524 146.58008213574067,104.04840818839148 148.5759753594175,105.21932113345247 150.07289527729154,105.4895316560287 157.72381930192932,105.9398823963711 160.5513347024098,105.57960181729868 162.46406570868567,105.03918075223919 163.87782340869308,104.22854871326126 168.9507186859846,100.89594476658385 171.02977412752807,100.08531002060045 173.1919917864725,99.72502774104942 178.5975359347649,99.63495715497993 180.8429158111103,99.18460412602872 184.0862422999926,97.20304885576479 185.08418891159818,95.94205749046523 185.5,94.86120672838297 185.41683778259903,93.51014195207972 183.83675564732403,90.89807921159081 183.088295688387,88.91651070525404 180.92607802897692,77.74761083361227 180.42710472317412,76.84688872017432 177.59958932269365,73.51421121344902 176.2689938400872,71.44254230440129 175.18788501014933,70.54181561269797 173.94045174540952,70.00137928361073 171.27926078019664,69.55101549613755 168.86755646858364,69.64108826674055 167.7032854212448,69.3708699356066 166.20636550337076,68.74036026687827 164.62628336809576,67.47933996818028 163.79466119082645,66.30839140003081 163.12936344975606,64.14663729327731 161.46611909661442,60.72385225247126 160.5513347024098,59.642970803542994 158.05646817246452,57.57127872703131 154.48049281351268,51.44625582790468 153.31622176617384,50.4554404579103 148.82546201255172,49.10432731406763 147.16221765894443,48.02343573945109 145.91478439420462,47.48298959864769 144.5010266941972,47.212766440352425 142.08932238211855,47.39291521918494 141.50718685844913,47.302840832737274 134.43839835748076,43.609785366337746 132.44250513380393,43.24948668316938 130.19712525699288,43.789934668457136 128.0349075975828,45.05097905173898 126.78747433237731,46.2219476881437 124.87474332656711,49.01425305206794 123.87679671496153,49.73484696447849 122.71252566762269,50.005069573409855 118.80390143720433,50.275292123667896 116.72484599612653,51.17603353271261 110.07186858309433,53.42788419337012 108.74127310048789,54.23854943038896 107.24435318307951,56.40032080549281 105.33162217680365,57.75142600154504 104.74948665266857,58.742235543206334 104.99897330580279,60.72385225247126 105.58110882993788,61.44443936168682 107.49383983574808,62.975685579003766 109.90554414782673,67.83963161287829 111.651950718835,73.15392121684272 112.23408624250442,76.6667442190228 113.5646817246452,79.99941325595137 113.64784394251183,81.26042082707863 113.23203285411,82.52142711624037 110.15503080096096,86.57465293526184 109.57289527729154,88.19593955460005 111.06981519516557,96.5725533333607 111.651950718835,97.8335440576775 113.0657084188424,99.36474535707384 113.98049281304702,100.17538057407364 116.14271047199145,101.25622670596931 117.80595482559875,101.6165085406974 119.46919917874038,101.70657898299396 127.03696098551154,100.26545112102758 131.36139630386606,100.17538057407364 134.43839835748076,99.90516889397986 138.51334702270105,97.92361477483064 139.6776180700399,97.74347333423793 140.50924024637789,97.74347333423793 141.34086242318153,98.10375618911348 142.17248459951952,98.73425093328115 145.49897330626845,103.14770517102443 147.91067761788145,104.85904034471605 152.23511293670163,106.39023297303356 156.14373716665432,106.75051331694704 158.05646817246452,106.39023297303356 162.04825462028384,105.3093913141638 168.5349075975828,100.98601526126731 170.53080082172528,99.90516889397986 172.11088295700029,99.63495715497993 177.93223819322884,99.81509832071606 180.09445585217327,99.54488656227477 183.33778234105557,98.01368548511527 184.75154004152864,96.30234086851124 185.08418891159818,94.95127766137011 185.0010266941972,93.87042603630107 183.17145790578797,89.0065820699092 181.42505133524537,78.46818805357907 180.51026694104075,76.84688872017432 179.09650924056768,75.40573197836056 176.85112936375663,71.80283279810101 175.5205338811502,70.72196100326255 173.77412731014192,70.00137928361073 171.4455852159299,69.46094271913171 168.03593429131433,69.46094271913171 166.53901437390596,68.83043309627101 165.29158110916615,67.92970450781286 163.71149897342548,66.12824536836706 161.5492813140154,60.90399906912353 157.89014373719692,57.03083674691152 156.2268993840553,54.77899262739811 154.64681724878028,51.98670024157036 153.3993839835748,50.72566291003022 151.6529774130322,49.82492117397487 148.65913757728413,49.01425305206794 147.16221765894443,47.84328705212101 146.41375770047307,47.48298959864769 144.33470225846395,47.122692040982656 142.50513347052038,47.122692040982656 141.42402464104816,46.94254322280176 135.60266940435395,43.88000930973794 134.10574948694557,43.429636037908494 133.0246406570077,43.339561363798566 130.44661190966144,43.69986002065707 128.45071868551895,44.600606205058284 127.20328542077914,45.681500762468204 124.79158110916615,49.10432731406763 123.9599589323625,49.82492117397487 122.29671457922086,50.095143763464876 118.80390143720433,50.18521794688422 109.24024640629068,53.33781024534255 108.65811088308692,53.78817991958931 107.24435318307951,55.58965698129032 104.91581108840182,58.201794073334895 104.6663244352676,59.28267677791882 105.08213552366942,60.63377883436624 107.57700205314904,62.88561232434586 110.57084188936278,67.92970450781286 111.56878850096837,72.88370365090668 111.98459958937019,76.12631055852398 113.64784394251183,79.99941325595137 113.48151950724423,81.53063656832092 109.9887063652277,86.48458139423747 109.4897330594249,87.74558237276506 110.23819301836193,91.79879112262279 110.23819301836193,96.39241169649176 110.48767967149615,97.2931196183199 111.06981519516557,98.10375618911348 113.31519507197663,99.63495715497993 114.56262833671644,100.17538057407364 117.88911704346538,100.80587426549755 119.38603696087375,100.89594476658385 122.13039014395326,100.71580375765916 126.70431211544201,99.45481596305035 129.86447638599202,99.81509832071606 131.11190965073183,99.72502774104942 134.35523613961414,99.0945335002616 138.43018480483443,97.6534026041627 140.25975359370932,97.6534026041627 141.2577002053149,98.01368548511527 142.33880903525278,98.9143922298681 145.08316221786663,103.41791614494286 146.49691991787404,104.58882968500257 148.2433264888823,105.57960181729868 150.40554414782673,106.02995252469555 153.48254620144144,105.57960181729868 157.6406570840627,105.9398823963711 162.29774127341807,105.03918075223919 165.29158110916615,103.14770517102443 167.28747433284298,101.6165085406974 170.19815195072442,99.90516889397986 172.11088295700029,99.45481596305035 177.43326488742605,99.90516889397986 179.76180698163807,99.72502774104942 182.09034907631576,98.73425093328115 183.7535934294574,97.47326112445444 184.50205338839442,96.48248251830228 185.08418891159818,95.04134858772159 185.1673511294648,94.14063903084025 183.67043121159077,90.08743793261237 182.42299794685096,84.50300583802164 181.92402464104816,79.63912514317781 181.09240246424451,77.56746646331158 176.76796714589,71.9829780056607 175.18788501014933,70.99217904021498 172.19404517486691,69.82123378827237 169.36652977438644,69.64108826674055 167.95277207391337,69.46094271913171 166.70533880917355,68.92050591902807 165.7073921971023,68.19992315303534 163.9609856265597,66.21831838740036 163.21252566762269,64.14663729327731 161.46611909661442,60.813925664057024 158.22279260773212,57.30105776642449 156.39322381932288,54.77899262739811 154.56365503091365,51.71647806407418 153.23305954877287,50.4554404579103 151.56981519516557,49.73484696447849 148.9086242299527,49.284475818276405 147.16221765894443,48.02343573945109 146.2474332647398,47.663138338481076 144.33470225846395,47.302840832737274 142.33880903525278,47.39291521918494 141.50718685844913,47.212766440352425 134.93737166328356,43.88000930973794 133.10780287487432,43.339561363798566 131.94353182753548,43.339561363798566 130.19712525699288,43.789934668457136 127.78542094444856,45.05097905173898 126.87063655024394,45.86164976400323 124.45893223816529,49.5546985254623 123.54414784396067,50.275292123667896 118.55441478453577,50.4554404579103 114.06365503091365,52.16684832726605 111.15297741256654,52.79736642050557 109.32340862415731,53.517958134645596 108.4086242299527,54.23854943038896 107.41067761788145,55.58965698129032 105.66427104733884,57.21098409977276 105.08213552366942,58.02164686413016 104.6663244352676,59.37275029416196 104.91581108840182,60.90399906912353 105.16529774107039,61.53451272111852 107.57700205314904,64.056564123719 108.74127310048789,67.0289752651006 110.48767967149615,69.55101549613755 112.06776180677116,76.39652741816826 113.64784394251183,79.99941325595137 113.81416837777942,80.90013308043126 113.5646817246452,81.89092413173057 111.90143737150356,83.78243212343659" stroke="#4dd2ff" stroke-linecap="round" stroke-linejoin="round" stroke-width="0.5"><title>2022-11-30 11.9km</title></polyline><polyline fill="none" points="43.2368979526218,194.198652240535 44.614395265001804,197.02575697237626 46.46314165764488,201.2271214078064 47.0431405256968,202.20874390561949 47.188140242826194,202.7191868998343 47.29689003061503,203.50448287266772 47.913138828240335,205.11433605017373 48.49313769629225,206.84197802856215 49.109386493917555,207.94138368501444 49.580635574646294,209.04078710533213 50.26938423048705,210.4935667667014 51.320632179267704,212.26045568712289 51.53813175507821,212.7316250904987 51.864381118211895,213.32058626713115 52.62562963273376,214.41997874664958 53.169378571910784,215.283785554755 53.82187729887664,216.61875699763186 54.256876450031996,217.36476901508286 55.271874469472095,219.48500807516393 55.59812383283861,219.99543475505197 55.77937347930856,220.50586095292238 57.1568707912229,222.97945800822345 58.316868527792394,224.94262221831013 58.860617466969416,225.6886227488285 59.44061633502133,227.14135766998515 59.875615486409515,227.8873551666038 60.419364425353706,228.63335163379088 60.890613505849615,229.53639861158445 61.18061293987557,230.16460431509768 62.23186088865623,232.20626781060128 62.48561039357446,232.79520777071593 62.70310996938497,233.1093088205089 63.50060841301456,234.71907383654616 64.15310713998042,235.85768522205763 64.841855796054,236.68219541816507 65.3856047349982,237.70301582384855 65.71185409859754,238.17416305330698 66.58185240067542,239.70538871371537 67.05310148117132,240.29432050537434 67.4156007738784,241.00103780865902 67.74185013724491,241.3936581335438 68.46684872265905,242.6500412574096 69.11934744962491,243.98494512785692 70.31559511530213,245.75172459491296 70.93184391292743,246.89031274823355 70.96809384226799,247.32219038609765 70.85934405447915,248.02889850409701 70.42434490309097,249.36378909580526 69.95309582282789,250.62015370139852 69.40934688365087,251.6016865184356 68.50309865199961,253.0150906452036 64.47935650334693,258.7864524902834 62.88435961562209,261.2206138494075 62.12311110086739,262.75177425230504 61.68811194971204,264.2829303203034 61.65186202037148,265.1466574718943 61.796861737500876,264.1258888716984 62.086861171759665,263.0265974554932 62.630610110703856,261.770261672209 63.2106089789886,260.7102260850952 64.69685607892461,258.55088790645823 66.98060162272304,255.37075598046067 69.95309582282789,250.7379377335019 70.31559511530213,250.0312331559544 70.82309412490577,248.5392982371559 71.04059370071627,247.51849828936975 71.07684363005683,246.92957436596043 70.56934462022036,245.8302479928243 69.73559624701738,244.49534867802868 69.33684702520259,243.7493740960199 68.97434773249552,243.27823172463104 67.59685042011552,240.96177576042828 66.69060218846425,239.5876022784214 66.07435339107178,238.4097365140915 64.95060558384284,236.64293305636966 63.71810798859224,234.52276128623635 63.17435904964805,233.73751037259353 62.84810968628153,233.38414708932396 62.37686060578562,232.04921704620938 62.01436131307855,231.3424880419043 61.253112798556685,230.0860786420817 60.92686343519017,229.18303258242668 60.890613505849615,229.10450676691835 60.85436357674189,229.49713573083864 60.709363859379664,229.1437696761859 60.31061463756487,228.43703687380184 59.694365840172395,227.0628315579088 59.11436697165482,226.12051732238615 58.860617466969416,225.49230691956473 57.9181193059776,223.96104100433877 56.79437149874866,221.64450227312045 56.1418727717828,220.5843880175671 55.743123549968004,219.72058967963676 55.090624823002145,218.62120798046817 53.82187729887664,216.10832712933188 52.58937970362604,214.06660283636302 52.226880410918966,213.16353001614334 51.53813175507821,212.06413498119218 50.99438281590119,210.96473771019373 50.015634725568816,209.51195931527764 49.61688550375402,208.80520084651653 48.746887201443315,206.92050707811723 48.02188861602917,205.07507139552035 47.58688946487382,203.81860094240983 47.369389889063314,202.83698136854218 47.079390455037355,201.97315466869622 46.644391303882,201.070061642793 46.064392435597256,199.57799159814022 45.66564321354963,198.94975034694653 45.19439413305372,198.00738710098085 44.034396396484226,195.45514505825122 43.63564717466943,194.27718312721117 43.59939724532887,193.57040473615052 43.490647457540035,192.74582877830835 42.04065028694458,191.17520442567184 41.49690134800039,189.72237283544382 41.13440205529332,189.05485430874978 40.95315240882337,188.54439840841223 40.373153540771455,187.24862357298844 39.61190502601676,186.188441851089 39.32190559175797,185.16752415307565 39.10440601618029,184.61779843989643 38.95940629928373,184.5 38.92315636994317,184.61779843989643 39.43065537977964,185.52091895919875 40.33690361119807,187.68054886331083 40.66315297479741,188.3088032148953 40.95315240882337,188.93705683606095 41.49690134800039,189.8009043725906 42.2218999331817,191.52859530298156 42.40314957941882,192.39243869693018 42.72939894301817,192.9421565014054 43.128148164832965,193.76673215968185 43.38189766998403,194.12012134239194 43.63564717466943,194.86616441371734 44.143146184273064,195.84779846473248 44.72314505279064,196.67236968970974 45.26689399173483,197.69326565373922 45.48439356707968,198.7534248062293 46.173142223386094,200.049172057159 46.7893910210114,201.50197588684387 47.260640101274475,202.44433303980622 47.8043890404515,204.4075718309614 48.746887201443315,206.48859716395964 49.07313656480983,207.66653248053626 49.61688550375402,208.76593645990943 50.55938366451301,210.33650969425798 51.030632745241746,211.27885144439642 51.501881825504825,211.98560667887796 51.75563133065589,212.4960404401645 52.4806299158372,213.6739626651397 53.241878430359066,215.08746594685363 53.96687701577321,216.10832712933188 54.40187616692856,217.20771393898758 54.94562510610558,218.30709851288702 55.34437432792038,218.85678996134084 55.996873054653406,220.2702796907397 56.57687192293815,221.21260412369156 57.62811987195164,223.29356476088287 58.06311902310699,223.92177771875868 58.53436810337007,225.06041184422793 58.860617466969416,225.61009642569115 59.18686683033593,226.0812541935593 59.549366123043,226.98430543430732 59.9481153448578,227.65177712097648 60.38311449601315,228.24072204256663 60.709363859379664,228.98671802208992 61.14436301076785,229.6541872365633 62.15936103020795,231.6958526596136 62.99310940341093,232.83447041196632 63.101859191199765,233.18783405446447 63.13810912030749,233.6982477970014 63.283108837436885,234.0908734248951 64.47935650334693,235.7791603759688 66.14685324952006,238.72383430210175 66.65435225935653,239.31276716288994 67.37935084477067,240.49063096006284 69.11934744962491,243.51380296162097 69.55434660078026,244.45608688346692 70.24309525685385,245.35910743445856 70.64184447866865,245.98729475442087 71.00434377137572,246.8510511276836 71.00434377137572,247.3614519725088 70.6780944080092,248.7356056983699 70.13434546906501,250.22754007572075 69.69934631767683,251.09128967588185 68.90184787404723,252.2691278164275 67.95934971305542,253.8003135638137 66.29185296664946,256.11671453076997 65.3856047349982,257.53010685701156 64.841855796054,258.19754083809676 64.29810685710981,259.06127770859166 63.39185862522572,260.31761978479335 62.920609544962645,261.10283210038324 62.268110817996785,262.35916943405755 61.97811138397083,263.1836392231053 61.68811194971204,264.2829303203034 61.543112232582644,265.5 62.086861171759665,263.0265974554932 62.55811025202274,261.92730380481225 63.06560926185921,260.9457897284883 65.42185466410592,257.4515851580072 66.03810346173123,256.62710663027246 66.43685268377885,255.95967071101768 69.55434660078026,251.3661188048136 69.98934575193562,250.65941504825605 70.49684476153925,249.52083483108436 71.00434377137572,247.4792367144255 71.04059370071627,247.12588241163758 70.93184391292743,246.65474298218032 70.82309412490577,246.3013881407387 70.56934462022036,245.75172459491296 69.44559681299143,243.98494512785692 68.72059822757728,242.5715173976787 68.14059935929254,241.70775418821722 67.81434999569319,240.96177576042828 66.98060162272304,239.78391298960196 65.92935367394239,238.17416305330698 65.09560530073941,236.48588358078268 64.44310657400638,235.58284821049892 63.97185749351047,234.71907383654616 63.2106089789886,233.73751037259353 63.06560926185921,233.38414708932396 62.84810968628153,232.44184387166752 62.66686003981158,232.00995434794459 62.23186088865623,231.3424880419043 61.65186202037148,230.32165562693262 61.21686286921613,229.73271297238534 60.12936499109492,227.49472503358265 59.29561661812477,226.2775698089972 59.00561718386598,225.570833259786 58.46186824492179,224.7070428894367 58.208118740003556,224.0788308441406 57.120620862115175,222.19419032800943 56.79437149874866,221.25186760612996 56.43187220604159,220.66291507074493 55.996873054653406,220.15248902112944 55.56187390349805,219.01384455824154 54.83687531831674,217.71814276921214 54.40187616692856,217.0899226020556 53.96687701577321,215.83348007753375 53.09687871322967,214.89114626761875 52.00938083534129,212.45677632183651 51.39313203794882,211.63222917704843 50.849383098771796,210.4935667667014 50.305634159827605,209.8653382032062 49.6893853622023,208.92299398873 48.71063727210276,206.4100680515985 47.94938875758089,204.95727741462179 47.58688946487382,203.66154193039984 47.550639535300434,202.91551100002835 47.47813967685215,202.67992207119823 46.82564095011912,201.3841811272723 46.57189144543372,200.6381470534834 46.173142223386094,199.97064200925524 45.30314392084256,197.88959157970385 44.46939554763958,196.3582474666182 43.74439696245827,194.63057197612943" stroke="#4dd2ff" stroke-linecap="round" stroke-linejoin="round" stroke-width="0.5"><title>2022-11-26 10.2km</title></polyline><polyline fill="none" points="175.13544324506074,257.9901781203225 175.63082039449364,257.9901781203225 177.116951841861,256.7385389171541 178.1077061407268,255.6657048088964 178.93333472218364,253.1624234081246 179.0984604395926,251.91078175441362 179.26358615607023,251.01675161370076 179.0984604395926,248.6922717296984 178.93333472218364,247.2618214811664 179.0984604395926,246.18898325017653 178.6030832901597,241.54001219081692 178.43795757368207,240.10955779394135 178.43795757368207,239.03671645210125 178.1077061407268,237.96387464320287 177.94258042424917,235.63938245596364 177.6123289912939,234.38773190951906 177.4472032757476,233.31488807802089 177.4472032757476,231.1691990152467 177.6123289912939,230.27516135503538 177.77745470870286,229.38112337049097 177.6123289912939,228.12946964777075 177.4472032757476,224.7321206261404 177.28207755926996,221.69238332402892 177.116951841861,220.44072569860145 177.28207755926996,219.36787579976954 177.4472032757476,217.0433660845738 177.4472032757476,216.14932330325246 177.77745470870286,213.10957542154938 177.4472032757476,212.03672233317047 177.6123289912939,211.1426777364686 177.6123289912939,210.06982379266992 177.77745470870286,208.10292368312366 177.77745470870286,207.2088776603341 177.6123289912939,206.13602200499736 177.4472032757476,205.06316588283516 177.28207755926996,202.91745223850012 177.28207755926996,201.8445947165601 177.116951841861,200.77173672709614 176.62157469335943,198.8048292011954 176.4564489768818,197.73196988995187 175.9610718274489,197.01673008920625 175.63082039449364,195.94386999984272 174.47494038008153,194.33457899000496 173.814437514171,193.6193382043857 172.3283060658723,192.54647663631476 171.1724260514602,192.18885601009242 170.34679746907204,191.65242497366853 169.5211688876152,191.2948042175267 167.8699117237702,190.04313116311096 166.3837802754715,189.5066996596288 165.72327740956098,189.3278891327791 164.89764882810414,189.1490785924252 164.2371459621936,189.3278891327791 163.08126594685018,188.61264689452946 161.5951344994828,188.43383630248718 160.76950591802597,188.43383630248718 160.27412876859307,188.43383630248718 159.11824875324965,188.07621507998556 158.29262017086148,187.71859380532987 157.79724302142859,187.53978314856067 156.8064887234941,187.36097247875296 155.98086014110595,187.18216179590672 154.82498012669384,187.18216179590672 153.17372296284884,187.00335110048763 152.67834581341594,187.00335110048763 152.01784294750541,187.00335110048763 151.35734008159488,186.82454039156437 150.8619629330933,186.82454039156437 150.53171150013804,186.64572967030108 149.87120863422751,186.64572967030108 149.21070576831698,186.64572967030108 148.55020290333778,186.46691893576644 147.06407145503908,186.10929742758162 146.0733171561733,186.10929742758162 145.74306572414935,185.93048665416427 145.24768857471645,185.93048665416427 144.75231142528355,185.75167586794123 143.9266828438267,185.75167586794123 143.4313056943938,185.75167586794123 141.94517424609512,185.57286506844684 141.11954566370696,185.57286506844684 140.62416851520538,185.93048665416427 138.97291135042906,185.39405425591394 137.81703133601695,185.2152434308082 134.51451700739563,184.678810877027 133.35863699298352,184.8576217412483 132.03763126116246,185.03643259219825 129.72587123140693,185.03643259219825 127.08385976869613,185.03643259219825 125.59772832132876,185.03643259219825 124.11159687396139,185.03643259219825 121.79983684420586,185.03643259219825 119.65320252999663,185.75167586794123 118.49732251558453,186.10929742758162 117.3414425002411,186.64572967030108 116.51581391878426,187.00335110048763 115.35993390344083,188.07621507998556 114.53430532105267,189.8643206753768 113.70867673959583,191.47361460188404 113.70867673959583,194.1557688130997 114.20405388902873,194.6921993053984 114.36917960550636,195.58624986582436 114.69943103846163,196.30149008124135 115.02968247048557,198.4472094825469 115.02968247048557,199.34125868207775 115.35993390344083,200.59292701655068 115.52505961991847,201.48697543796152 115.52505961991847,203.27507130871527 115.1948081869632,204.70554707176052 114.86455675493926,205.95721268374473 114.69943103846163,207.03006841684692 114.36917960550636,208.81816026801243 114.03892817161977,209.71220570756122 113.87380245607346,210.4274418258574 113.37842530664057,214.00361930509098 112.88304815813899,215.6128974785097 112.5527967242524,217.0433660845738 112.22254529129714,219.9043008077424 111.8922938592732,220.79834222747013 111.8922938592732,221.87119150417857 111.56204242538661,222.94404031382874 111.72716814279556,224.91092858603224 111.56204242538661,225.98377607343718 111.3969167098403,226.8778152896557 111.72716814279556,227.95066192070954 111.72716814279556,228.84470042446628 111.8922938592732,229.73873860295862 112.05741957575083,230.09635378420353 112.05741957575083,230.81158399023116 112.22254529129714,231.52681398880668 112.38767100870609,232.0632363515906 112.5527967242524,232.77846598741598 112.71792244073004,234.0301173508633 113.0481738736853,235.4605752741918 113.0481738736853,235.99699678109027 113.0481738736853,236.71222527627833 113.37842530664057,238.1426816433668 113.70867673959583,238.67910256725736 113.70867673959583,239.03671645210125 114.03892817161977,239.751944065094 114.20405388902873,240.46717147086747 114.53430532105267,241.00359188904986 114.86455675493926,241.89762566029094 115.69018533732742,243.32807902013883 115.85531105287373,244.57972502917983 115.69018533732742,246.36778965452686 115.85531105287373,247.9770467088092 115.52505961991847,249.407496542437 115.35993390344083,250.3015272670891 115.1948081869632,251.01675161370076 115.02968247048557,251.91078175441362 114.86455675493926,252.80481157195754 114.53430532105267,254.05645277164876 114.36917960550636,254.95048181083985 114.03892817161977,255.6657048088964 113.87380245607346,256.38092759950086 113.87380245607346,256.9173445561901 113.87380245607346,257.4537613966968 113.87380245607346,259.241816688329 114.03892817161977,259.9570384423714 114.20405388902873,260.67225998826325 114.53430532105267,261.387481326703 115.1948081869632,262.6391181703657 116.02043676935136,262.9967285809107 116.6809396352619,263.53314409870654 117.50656821765006,263.89075437909923 118.3321967991069,263.71194924553856 118.9926996640861,263.89075437909923 119.81832824647427,263.89075437909923 120.31370539590716,264.06955950008705 121.13933397829533,263.89075437909923 121.96496255975217,263.89075437909923 122.6254654256627,263.89075437909923 123.28596829157323,263.71194924553856 124.11159687396139,263.71194924553856 125.76285403780639,263.71194924553856 126.42335690371692,263.71194924553856 127.08385976869613,263.71194924553856 128.07461406756192,263.89075437909923 129.0653683654964,263.71194924553856 129.89099694788456,263.89075437909923 131.046876963228,263.53314409870654 131.87250554468483,263.53314409870654 133.02838556002825,263.53314409870654 133.8540141414851,263.53314409870654 134.349391290918,263.53314409870654 135.00989415775985,263.53314409870654 136.49602560512722,263.53314409870654 137.32165418751538,263.89075437909923 138.80778563395143,264.06955950008705 139.46828850079328,263.89075437909923 139.96366564929485,263.89075437909923 141.44979709666222,263.71194924553856 142.60567711200565,263.71194924553856 143.4313056943938,263.89075437909923 144.25693427585065,263.89075437909923 145.90819144062698,263.71194924553856 147.7245743209496,263.89075437909923 148.55020290333778,264.06955950008705 149.21070576831698,264.24836460803635 150.3665857836604,264.24836460803635 151.19221436511725,264.24836460803635 151.85271723102778,264.24836460803635 152.67834581341594,263.89075437909923 153.33884867932647,263.89075437909923 153.83422582875937,263.71194924553856 154.32960297819227,263.53314409870654 155.48548299167305,263.35433893930167 156.1459858585149,263.35433893930167 156.47623729053885,263.1755337663926 157.3018658719957,263.1755337663926 157.63211730588228,262.9967285809107 157.63211730588228,262.8179233823903 157.63211730588228,262.8179233823903 158.78799732029438,262.9967285809107 159.11824875324965,262.28150770883076 159.9438773356378,261.56628662953153 160.27412876859307,261.20867601200007 160.60438020061702,260.8510653420817 162.25563736539334,260.1358438478783 163.57664309628308,259.7782330226619 165.55815169401467,259.0630112173967 166.54890599194914,258.8842057338916 167.3745345743373,258.70540023688227 168.20016315579414,258.70540023688227 170.84217461850494,258.34778920467943 174.14468894712627,257.4537613966968 175.30056896153837,256.9173445561901 176.29132326040417,256.2021219213493 177.28207755926996,255.30809333594516 178.6030832901597,253.1624234081246 179.0984604395926,250.83794554625638 178.76820900663733,249.7651088712737 178.76820900663733,248.871077952208 178.6030832901597,248.1558529837057 178.27283185813576,245.65256396029145 177.94258042424917,244.22211194853298 177.94258042424917,242.79165910743177 177.77745470870286,239.57313718111254 177.77745470870286,237.60626060306095 177.4472032757476,235.28176807891577 177.4472032757476,234.56653916905634 177.28207755926996,233.49369541578926 177.4472032757476,231.3480065090116 177.4472032757476,230.45396891329437 177.4472032757476,229.38112337049097 177.4472032757476,228.30827736132778 177.4472032757476,226.3413917988073 177.116951841861,224.7321206261404 177.116951841861,224.0168886568863 177.28207755926996,223.30165647994727 176.78670040983707,221.87119150417857 177.116951841861,220.79834222747013 177.28207755926996,219.9043008077424 177.28207755926996,218.83145067538135 177.6123289912939,215.97051470773295 177.6123289912939,214.54004547954537 177.6123289912939,213.10957542154938 177.4472032757476,210.78505980712362 177.4472032757476,209.3545875705313 177.28207755926996,207.92411450459622 177.28207755926996,202.20221394184045 177.116951841861,201.12935610860586 176.4564489768818,198.8048292011954 175.79594611097127,197.19554005912505 174.47494038008153,195.0498195681721 173.48418608121574,193.6193382043857 169.35604317113757,190.93718340969644 168.5304145887494,190.22194163827226 166.21865455899388,189.3278891327791 165.2279002610594,188.79145747353323 164.2371459621936,188.2550256976392 160.9346316345036,187.53978314856067 158.78799732029438,187.18216179590672 158.12749445438385,187.36097247875296 157.46699158940464,187.00335110048763 156.97161443997175,187.00335110048763 155.81573442555964,187.18216179590672 155.1552315596491,187.18216179590672 154.32960297819227,187.00335110048763 153.83422582875937,186.82454039156437 152.67834581341594,186.46691893576644 152.01784294750541,186.64572967030108 151.52246579807252,186.64572967030108 151.02708864957094,186.64572967030108 150.3665857836604,186.64572967030108 149.70608291774988,186.64572967030108 148.88045433536172,186.46691893576644 148.55020290333778,186.28810818842612 146.0733171561733,186.10929742758162 144.75231142528355,186.10929742758162 143.9266828438267,185.93048665416427 143.10105426143855,185.93048665416427 142.60567711200565,186.10929742758162 141.11954566370696,185.75167586794123 140.2939170813188,185.93048665416427 139.79853993281722,185.93048665416427 139.138037067838,185.75167586794123 138.47753420099616,185.75167586794123 137.4867799030617,185.75167586794123 136.9914027536288,185.75167586794123 135.50527130626142,185.75167586794123 134.51451700739563,185.93048665416427 133.1935112765059,185.75167586794123 132.03763126116246,185.75167586794123 130.88175124581903,185.57286506844684 129.5607455149293,185.57286506844684 129.39561979845166,185.93048665416427 127.74436263460666,185.75167586794123 124.44184830598533,185.93048665416427 123.61621972452849,185.93048665416427 122.79059114214033,185.93048665416427 120.9742082618177,185.75167586794123 120.31370539590716,185.75167586794123 118.8275739485398,186.10929742758162 118.16707108262926,186.64572967030108 117.50656821765006,186.82454039156437 116.02043676935136,187.71859380532987 115.02968247048557,188.97026803949848 114.69943103846163,189.5066996596288 114.53430532105267,190.22194163827226 113.87380245607346,191.83123533218168 113.87380245607346,194.1557688130997 114.53430532105267,195.58624986582436 114.69943103846163,196.65911011141725 115.35993390344083,198.62601934815757 115.52505961991847,199.87768804631196 115.35993390344083,202.38102353573777 115.02968247048557,203.63269032724202 114.53430532105267,207.2088776603341 114.03892817161977,208.6393511411734 113.70867673959583,209.89101475663483 113.37842530664057,212.39434008090757 113.21329959016293,213.6460017899517 113.0481738736853,214.89766286453232 112.38767100870609,217.57979159802198 112.05741957575083,219.54668414848857 112.22254529129714,220.79834222747013 112.22254529129714,222.2288078260608 112.05741957575083,224.55331265344284 111.72716814279556,227.95066192070954 111.3969167098403,229.02350808610208 111.56204242538661,231.7056214560289 111.56204242538661,232.95727336406708 112.05741957575083,235.28176807891577 112.38767100870609,236.3546110545285 112.5527967242524,237.42745356354862 113.0481738736853,238.67910256725736 114.53430532105267,244.22211194853298 114.86455675493926,245.65256396029145 115.35993390344083,247.7982404215727 115.1948081869632,248.871077952208 114.86455675493926,249.94391501601785 114.69943103846163,250.83794554625638 114.36917960550636,252.9836174964439 113.5435510231182,256.38092759950086 113.70867673959583,258.1689836687874 113.87380245607346,259.0630112173967 114.03892817161977,259.7782330226619 114.53430532105267,261.387481326703 115.52505961991847,261.92389719490893 115.85531105287373,262.28150770883076 116.51581391878426,262.8179233823903 117.3414425002411,263.35433893930167 118.8275739485398,264.24836460803635 119.65320252999663,264.24836460803635 121.96496255975217,264.24836460803635 122.6254654256627,264.24836460803635 123.78134544100612,263.89075437909923 124.93722545541823,263.71194924553856 125.59772832132876,263.71194924553856 126.58848262019455,263.89075437909923 129.0653683654964,263.53314409870654 131.37712839618325,263.71194924553856 132.2027569776401,263.71194924553856 133.02838556002825,263.71194924553856 133.68888842500746,263.89075437909923 134.51451700739563,263.89075437909923 136.00064845569432,263.89075437909923 136.82627703808248,263.71194924553856 137.4867799030617,263.71194924553856 138.14728276897222,263.71194924553856 138.97291135042906,263.71194924553856 139.79853993281722,263.71194924553856 140.45904279872775,263.89075437909923 142.11029996257275,263.71194924553856 142.77080282848328,263.71194924553856 143.59643140994012,263.71194924553856 144.25693427585065,263.71194924553856 146.73382002301514,263.71194924553856 147.39432288799435,263.53314409870654 148.2199514703825,263.71194924553856 149.54095720127225,263.89075437909923 150.20146006625146,264.06955950008705 151.02708864957094,264.24836460803635 152.67834581341594,264.06955950008705 153.33884867932647,263.71194924553856 153.99935154430568,263.53314409870654 154.6598544102162,263.1755337663926 155.32035727612674,262.8179233823903 156.64136300701648,262.1027024581563 157.96236873883754,262.1027024581563 157.79724302142859,263.53314409870654 157.46699158940464,263.71194924553856 157.3018658719957,263.71194924553856 157.13674015644938,263.71194924553856 157.13674015644938,263.71194924553856 156.97161443997175,263.89075437909923 157.3018658719957,263.71194924553856 156.97161443997175,263.53314409870654 157.3018658719957,263.35433893930167 158.29262017086148,262.6391181703657 159.11824875324965,262.1027024581563 159.9438773356378,261.56628662953153 160.76950591802597,261.20867601200007 162.75101451482624,260.31464924057946 163.41151737980545,259.9570384423714 166.05352884344757,259.241816688329 167.53966029081494,258.8842057338916 168.69554030522704,258.70540023688227 171.33755176793784,258.70540023688227 172.6585574997589,258.5265947270673 174.64006609655917,257.81137255881913 175.9610718274489,257.09615018288605 177.6123289912939,255.30809333594516 178.76820900663733,247.9770467088092 178.43795757368207,246.72540242387913 178.1077061407268,245.29495103494264 177.94258042424917,242.97046575788409 177.94258042424917,241.54001219081692 177.77745470870286,240.46717147086747 177.94258042424917,239.3943302843254 177.77745470870286,236.89103236747906 177.6123289912939,235.99699678109027 177.6123289912939,234.9241536501795 177.6123289912939,233.67250274051912 177.77745470870286,231.3480065090116 177.77745470870286,230.45396891329437 177.77745470870286,229.20231573446654 177.94258042424917,228.30827736132778 177.4472032757476,225.80496819131076 177.6123289912939,222.40761596732773 177.4472032757476,219.72549248463474 177.4472032757476,218.65264227474108 177.4472032757476,217.40098310657777 177.4472032757476,215.2552801973652 177.4472032757476,213.10957542154938 177.6123289912939,212.21553121344186 177.6123289912939,210.96386877819896 177.4472032757476,210.06982379266992 177.116951841861,208.4605420017615 177.28207755926996,206.8512591603212 177.28207755926996,205.24197526928037 177.116951841861,202.73864268348552 177.116951841861,201.48697543796152 176.9518261263147,200.23530755750835 176.78670040983707,199.16244886792265 175.9610718274489,197.19554005912505 174.97031752951443,195.22862968058325 174.47494038008153,194.33457899000496 174.14468894712627,193.79814842017367 172.98880893178284,192.90409721108153 172.3283060658723,192.36766632995568 171.83292891737074,192.18885601009242 171.33755176793784,191.83123533218168 170.18167175352573,191.11599382013083 169.68629460409284,190.93718340969644 168.86066602170467,190.75837298622355 168.3652888732031,190.40075210062787 167.53966029081494,190.22194163827226 166.71403170842677,189.68551017390564 166.05352884344757,189.68551017390564 164.89764882810414,189.3278891327791 163.57664309628308,188.97026803949848 162.91614023037255,188.79145747353323 162.25563736539334,188.61264689452946 161.76026021596044,188.2550256976392 161.26488306652755,188.07621507998556 160.60438020061702,188.07621507998556 159.77875161916018,187.89740444906056 157.63211730588228,187.53978314856067 156.97161443997175,187.18216179590672 156.1459858585149,187.00335110048763 155.650608709082,186.82454039156437 154.82498012669384,186.82454039156437 153.99935154430568,186.64572967030108 153.33884867932647,186.28810818842612 151.52246579807252,186.10929742758162 149.87120863422751,185.93048665416427 149.54095720127225,186.10929742758162 149.04558005277067,186.10929742758162 147.55944860447198,185.75167586794123 147.39432288799435,185.75167586794123 146.5686943056062,185.57286506844684 146.0733171561733,185.75167586794123 145.24768857471645,185.57286506844684 144.4220599923283,185.57286506844684 143.9266828438267,185.39405425591394 142.2754256790504,185.2152434308082 141.44979709666222,185.2152434308082 140.95441994816065,185.2152434308082 140.2939170813188,185.2152434308082 139.6334142163396,185.2152434308082 139.138037067838,185.2152434308082 138.31240848544985,185.2152434308082 136.33089988864958,185.2152434308082 135.83552273921669,184.8576217412483 134.67964272387326,185.03643259219825 134.01913985889405,184.8576217412483 132.86325984355062,185.03643259219825 130.22124838083982,185.39405425591394 129.39561979845166,185.2152434308082 128.73511693347245,185.2152434308082 128.07461406756192,185.03643259219825 127.41411120258272,185.03643259219825 125.92797975428402,185.03643259219825 125.2674768883735,184.8576217412483 124.7720997389406,185.03643259219825 124.11159687396139,185.03643259219825 123.28596829157323,185.03643259219825 122.1300882762298,184.8576217412483 121.30445969477296,184.8576217412483 118.9926996640861,185.2152434308082 118.3321967991069,185.57286506844684 116.6809396352619,187.00335110048763 116.02043676935136,187.36097247875296 115.52505961991847,188.07621507998556 114.69943103846163,189.3278891327791 114.20405388902873,190.75837298622355 114.03892817161977,191.2948042175267 114.03892817161977,192.01004567742348 114.03892817161977,194.51338915410452 114.36917960550636,195.4074397799559 114.53430532105267,196.30149008124135 114.86455675493926,197.01673008920625 115.1948081869632,197.73196988995187 115.69018533732742,199.16244886792265 115.52505961991847,199.52006848342717 115.35993390344083,200.23530755750835 115.52505961991847,200.77173672709614 115.52505961991847,201.12935610860586 115.69018533732742,202.91745223850012 115.52505961991847,203.81149981729686 115.52505961991847,204.52673764666542 115.1948081869632,205.4207846422214 115.02968247048557,206.31483131321147 114.53430532105267,207.7453053132631 114.20405388902873,209.53339664568193 113.87380245607346,210.06982379266992 113.87380245607346,210.6062508225441 114.03892817161977,211.32148668169975 113.87380245607346,212.5731489355676 113.5435510231182,213.28838422405533 113.21329959016293,213.8248105540406 112.88304815813899,215.43408884457313 112.71792244073004,216.14932330325246 112.38767100870609,218.83145067538135 112.05741957575083,219.54668414848857 111.8922938592732,220.61953396955505 111.8922938592732,221.33476692414843 111.72716814279556,223.12284840317443 111.8922938592732,223.48046454391442 112.05741957575083,224.19569666846655 111.8922938592732,225.98377607343718 112.05741957575083,227.77185418154113 112.05741957575083,228.66589274979196 112.22254529129714,229.38112337049097 112.05741957575083,230.27516135503538 112.22254529129714,231.1691990152467 112.22254529129714,232.59965859819204 112.05741957575083,233.49369541578926 112.05741957575083,234.20892463671044 111.8922938592732,235.10296087083407 111.8922938592732,235.81818962516263 112.22254529129714,237.24864651123062 112.22254529129714,237.96387464320287 112.38767100870609,238.67910256725736 113.21329959016293,240.10955779394135 113.5435510231182,240.82478509633802 113.87380245607346,241.3612054362893 114.03892817161977,242.07643237593584 114.36917960550636,242.79165910743177 114.53430532105267,243.5068856314756 114.69943103846163,243.5068856314756 115.1948081869632,244.7585315501783 115.1948081869632,246.90420878957957 115.02968247048557,247.619434120832 115.02968247048557,248.1558529837057 114.86455675493926,248.6922717296984 114.86455675493926,249.407496542437 114.53430532105267,250.12272114795633 114.36917960550636,250.65913946623914 114.20405388902873,251.91078175441362 114.03892817161977,252.9836174964439 113.87380245607346,253.877646924695 113.87380245607346,254.5928702338133 113.70867673959583,255.4868990785908 113.21329959016293,257.09615018288605 113.37842530664057,259.241816688329 113.37842530664057,259.7782330226619 113.37842530664057,260.31464924057946 113.87380245607346,261.387481326703 114.69943103846163,262.28150770883076 115.35993390344083,262.6391181703657 115.85531105287373,262.9967285809107 118.00194536615163,264.06955950008705 118.66244823206216,264.24836460803635 120.80908254534006,264.24836460803635 121.46958541125059,264.24836460803635 122.29521399363875,264.4271697027143 122.95571685861796,264.4271697027143 123.45109400805086,264.4271697027143 124.11159687396139,264.24836460803635 124.60697402339429,263.89075437909923 127.08385976869613,264.24836460803635 127.74436263460666,264.4271697027143 129.23049408290535,264.4271697027143 130.0561226643622,264.4271697027143 130.71662553027272,264.4271697027143 132.2027569776401,264.4271697027143 134.51451700739563,264.4271697027143 136.16577417124063,264.24836460803635 137.4867799030617,264.24836460803635 138.14728276897222,264.24836460803635 138.97291135042906,264.4271697027143 139.46828850079328,264.4271697027143 140.2939170813188,264.4271697027143 140.95441994816065,264.24836460803635 142.2754256790504,264.4271697027143 142.77080282848328,264.4271697027143 143.59643140994012,264.4271697027143 144.25693427585065,264.4271697027143 145.24768857471645,264.4271697027143 145.90819144062698,264.4271697027143 148.05482575390488,264.78477985365316 148.55020290333778,264.96358490968123 149.87120863422751,265.1423899526708 150.8619629330933,265.32119498285465 151.85271723102778,265.1423899526708 152.5132200969383,265.1423899526708 154.82498012669384,264.4271697027143 155.98086014110595,263.71194924553856 156.31111157406121,263.35433893930167 156.97161443997175,262.9967285809107 156.97161443997175,262.4603129462339 156.97161443997175,262.28150770883076 156.31111157406121,264.06955950008705 157.13674015644938,263.35433893930167 157.46699158940464,262.9967285809107 157.79724302142859,262.8179233823903 157.79724302142859,262.6391181703657 157.79724302142859,262.8179233823903 158.12749445438385,262.4603129462339 158.29262017086148,262.28150770883076 158.78799732029438,262.1027024581563 159.4485001862049,261.56628662953153 159.9438773356378,261.387481326703 160.60438020061702,261.02987068356015 161.5951344994828,260.4934546209406 161.76026021596044,260.1358438478783 162.25563736539334,260.1358438478783 162.5858887983486,259.7782330226619 162.91614023037255,259.7782330226619 163.7417688127607,259.42062214622274 164.7325231116265,259.0630112173967 166.3837802754715,258.8842057338916 167.20940885692835,258.5265947270673 168.69554030522704,258.5265947270673 169.35604317113757,258.8842057338916 170.01654603611678,258.8842057338916 171.6678032008931,258.70540023688227 172.3283060658723,258.70540023688227 174.47494038008153,257.63256698451005 175.13544324506074,257.09615018288605 175.79594611097127,256.38092759950086 176.4564489768818,256.02331623015925 177.4472032757476,255.30809333594516 177.6123289912939,254.23525860509835 178.1077061407268,253.69884106493555 178.27283185813576,252.08958774385974 178.76820900663733,251.37436370854266 178.6030832901597,250.83794554625638 178.76820900663733,249.22869035881013 178.76820900663733,248.871077952208 178.6030832901597,248.334659245098 178.27283185813576,246.54659604560584 178.1077061407268,246.01017683302052 178.27283185813576,245.29495103494264 178.27283185813576,244.57972502917983 178.43795757368207,242.4340457674116 178.1077061407268,241.71881893184036 177.77745470870286,241.00359188904986 177.77745470870286,239.751944065094 177.77745470870286,239.03671645210125 177.6123289912939,238.3214886309579 177.6123289912939,236.89103236747906 177.28207755926996,235.81818962516263 177.28207755926996,235.10296087083407 177.116951841861,234.38773190951906 177.4472032757476,233.67250274051912 177.4472032757476,232.95727336406708 177.4472032757476,232.0632363515906 177.4472032757476,231.88442891067825 177.6123289912939,230.27516135503538 177.94258042424917,229.55993099347688 177.94258042424917,229.20231573446654 178.27283185813576,227.77185418154113 177.94258042424917,226.3413917988073 177.77745470870286,225.44735238794237 177.77745470870286,224.7321206261404 177.4472032757476,224.0168886568863 177.4472032757476,223.30165647994727 176.9518261263147,221.15595870488323 176.78670040983707,220.26191741460934 176.78670040983707,218.29502543411218 176.9518261263147,217.40098310657777 177.116951841861,215.97051470773295 177.116951841861,214.71885417820886 177.116951841861,210.96386877819896 177.116951841861,209.71220570756122 176.78670040983707,207.92411450459622 176.62157469335943,207.03006841684692 176.62157469335943,206.4936406086199 176.4564489768818,205.95721268374473 176.4564489768818,205.24197526928037 176.29132326040417,203.81149981729686 176.29132326040417,203.27507130871527 176.4564489768818,202.73864268348552 176.4564489768818,202.02340433560312 176.29132326040417,201.12935610860586 176.12619754392654,200.41411729319952 175.46569467894733,197.19554005912505 174.97031752951443,195.94386999984272 173.64931179769337,193.79814842017367 171.83292891737074,192.01004567742348 168.3652888732031,190.22194163827226 167.53966029081494,189.68551017390564 165.2279002610594,188.61264689452946 164.2371459621936,188.61264689452946 163.7417688127607,188.43383630248718 162.75101451482624,188.43383630248718 162.42076308187097,187.89740444906056 161.92538593243808,187.89740444906056 161.26488306652755,187.89740444906056 160.60438020061702,187.89740444906056 159.61362590268254,187.89740444906056 158.45774588827044,187.36097247875296 158.12749445438385,187.36097247875296 157.79724302142859,187.36097247875296 157.3018658719957,187.36097247875296 156.97161443997175,187.18216179590672 156.47623729053885,187.18216179590672 155.81573442555964,187.00335110048763 155.48548299167305,186.82454039156437 155.1552315596491,186.82454039156437 154.99010584317148,186.64572967030108 154.32960297819227,186.64572967030108 153.83422582875937,186.64572967030108 153.5039743958041,186.46691893576644 153.0085972454399,186.28810818842612 152.5132200969383,186.28810818842612 152.18296866398305,186.10929742758162 151.52246579807252,186.10929742758162 151.02708864957094,186.10929742758162 150.53171150013804,186.10929742758162 150.20146006625146,186.10929742758162 149.70608291774988,185.93048665416427 149.54095720127225,185.93048665416427 149.21070576831698,185.93048665416427 148.7153286188841,185.93048665416427 148.2199514703825,185.93048665416427 147.55944860447198,185.93048665416427 147.06407145503908,185.75167586794123 146.40356858912855,185.75167586794123 145.74306572414935,185.57286506844684 145.41281429119408,185.39405425591394 144.58718570880592,185.39405425591394 144.09180855937302,185.57286506844684 143.4313056943938,185.39405425591394 142.93592854496092,185.39405425591394 142.77080282848328,185.39405425591394 142.11029996257275,185.39405425591394 141.94517424609512,185.39405425591394 141.44979709666222,185.39405425591394 140.95441994816065,185.39405425591394 140.45904279872775,185.2152434308082 140.12879136577249,185.39405425591394 139.79853993281722,185.39405425591394 139.46828850079328,185.39405425591394 138.31240848544985,185.2152434308082 137.98215705249459,185.2152434308082 137.65190561953932,185.2152434308082 137.15652847010642,185.2152434308082 136.82627703808248,185.2152434308082 136.66115132067353,185.39405425591394 136.33089988864958,185.2152434308082 136.00064845569432,185.39405425591394 135.50527130626142,185.2152434308082 135.17501987330616,185.2152434308082 134.67964272387326,185.03643259219825 134.51451700739563,185.03643259219825 133.68888842500746,185.2152434308082 133.35863699298352,185.03643259219825 133.1935112765059,185.2152434308082 132.86325984355062,185.2152434308082 132.53300841059536,185.2152434308082 132.03763126116246,185.39405425591394 131.7073798282072,185.39405425591394 131.37712839618325,185.39405425591394 131.21200267970562,185.39405425591394 130.71662553027272,185.39405425591394 130.22124838083982,185.57286506844684 130.0561226643622,185.57286506844684 129.5607455149293,185.39405425591394 128.90024264901876,185.2152434308082 128.90024264901876,185.03643259219825 128.90024264901876,185.03643259219825 128.73511693347245,185.03643259219825 128.5699912160635,185.03643259219825 128.23973978403956,184.8576217412483 128.5699912160635,185.03643259219825 128.4048655005172,184.8576217412483 128.23973978403956,185.03643259219825 128.4048655005172,185.03643259219825 128.4048655005172,185.2152434308082 127.90948835108429,185.57286506844684 127.41411120258272,185.39405425591394 127.08385976869613,185.03643259219825 126.42335690371692,185.2152434308082 126.09310547076166,185.2152434308082 125.43260260485113,185.39405425591394 125.10235117282718,185.39405425591394 124.93722545541823,185.39405425591394 124.7720997389406,185.39405425591394 124.44184830598533,185.57286506844684 123.78134544100612,185.39405425591394 123.28596829157323,185.2152434308082 123.1208425750956,185.2152434308082 122.6254654256627,185.2152434308082 122.1300882762298,185.2152434308082 121.96496255975217,185.2152434308082 121.30445969477296,185.03643259219825 120.9742082618177,185.03643259219825 120.80908254534006,185.03643259219825 120.4788311123848,185.03643259219825 119.48807681445032,185.2152434308082 119.32295109797269,185.2152434308082 117.67169393319637,186.28810818842612 116.185562485829,187.36097247875296 115.69018533732742,188.2550256976392 115.35993390344083,188.79145747353323 114.86455675493926,189.8643206753768 114.86455675493926,190.22194163827226 114.69943103846163,190.75837298622355 114.36917960550636,191.65242497366853 114.20405388902873,192.18885601009242 114.03892817161977,192.725286930101 114.03892817161977,193.2617177334614 114.03892817161977,193.6193382043857 114.36917960550636,193.97695862292312 114.36917960550636,194.6921993053984 114.53430532105267,195.7650599393528 114.86455675493926,196.65911011141725 115.02968247048557,196.8379201067146 115.02968247048557,197.55315995891578 115.35993390344083,197.73196988995187 115.52505961991847,198.26839960413054 115.35993390344083,198.8048292011954 115.52505961991847,199.34125868207775 115.69018533732742,200.23530755750835 115.69018533732742,200.77173672709614 115.69018533732742,201.12935610860586 115.69018533732742,201.48697543796152 115.52505961991847,201.8445947165601 115.69018533732742,202.20221394184045 115.69018533732742,202.91745223850012 115.69018533732742,203.27507130871527 115.69018533732742,204.34792820876464 114.69943103846163,206.8512591603212 114.53430532105267,207.56649610819295 113.21329959016293,211.1426777364686 112.88304815813899,212.5731489355676 112.71792244073004,213.8248105540406 112.38767100870609,216.3281318852678 112.22254529129714,217.57979159802198 111.3969167098403,221.33476692414843 111.23179099336267,222.58642409555614 111.23179099336267,223.83808063226752 111.23179099336267,227.23543088510633 111.23179099336267,228.66589274979196 111.06666527688503,230.09635378420353 111.3969167098403,233.31488807802089 111.72716814279556,237.60626060306095 112.22254529129714,240.10955779394135 112.88304815813899,241.18239866918884 114.03892817161977,244.22211194853298 114.36917960550636,245.65256396029145 114.53430532105267,248.51346549368463 114.53430532105267,249.7651088712737 114.20405388902873,251.19555766764097 113.37842530664057,254.05645277164876 113.21329959016293,255.30809333594516 113.0481738736853,258.34778920467943 114.20405388902873,260.8510653420817 115.52505961991847,262.6391181703657 117.50656821765006,263.71194924553856 118.8275739485398,264.06955950008705 121.63471112772822,264.4271697027143 122.79059114214033,264.6059747848194 124.11159687396139,264.6059747848194 126.58848262019455,264.6059747848194 127.74436263460666,264.6059747848194 133.68888842500746,265.1423899526708 136.9914027536288,265.1423899526708 138.47753420099616,265.1423899526708 144.4220599923283,265.1423899526708 145.74306572414935,265.1423899526708 148.38507718592882,265.5 151.19221436511725,265.32119498285465 152.67834581341594,264.96358490968123 155.48548299167305,263.89075437909923 156.8064887234941,263.35433893930167 158.95312303770334,262.1027024581563 159.9438773356378,261.387481326703 161.92538593243808,260.31464924057946 163.08126594685018,259.9570384423714 164.40227167867124,259.42062214622274 166.8791574249044,258.8842057338916 168.0350374393165,258.8842057338916 169.5211688876152,258.70540023688227 173.64931179769337,257.63256698451005 174.80519181210548,256.9173445561901 176.9518261263147,254.95048181083985 178.27283185813576,252.80481157195754 178.6030832901597,250.3015272670891 178.27283185813576,248.871077952208 177.77745470870286,244.40091849514283 177.77745470870286,241.71881893184036 177.6123289912939,238.85790951596573 177.4472032757476,235.81818962516263 177.6123289912939,234.74534641602077 177.6123289912939,233.67250274051912 177.4472032757476,230.9903915093746 177.4472032757476,229.91754620010033 177.6123289912939,228.66589274979196 177.6123289912939,227.59304642910138 177.4472032757476,224.91092858603224 177.28207755926996,220.61953396955505 177.116951841861,217.57979159802198 177.28207755926996,213.8248105540406 177.4472032757476,212.5731489355676 177.28207755926996,210.24863281589933 177.28207755926996,209.1757784828078 176.9518261263147,206.13602200499736 177.28207755926996,204.70554707176052 177.28207755926996,203.63269032724202 177.116951841861,200.95054642413743 176.4564489768818,198.62601934815757 175.9610718274489,197.19554005912505 175.30056896153837,196.12268004682846 175.13544324506074,195.4074397799559 174.3098146636039,194.33457899000496 171.33755176793784,192.01004567742348 170.34679746907204,191.47361460188404 164.40227167867124,188.43383630248718 163.41151737980545,187.89740444906056 161.26488306652755,187.53978314856067 160.10900305118412,187.18216179590672 158.78799732029438,186.82454039156437 156.47623729053885,186.46691893576644 155.48548299167305,186.46691893576644 154.32960297819227,186.28810818842612 153.33884867932647,186.10929742758162 151.35734008159488,185.75167586794123 150.20146006625146,185.75167586794123 149.21070576831698,185.75167586794123 147.06407145503908,185.39405425591394 146.0733171561733,185.39405425591394 145.08256285823882,185.2152434308082 142.77080282848328,184.8576217412483 141.94517424609512,185.2152434308082 138.47753420099616,184.8576217412483 134.51451700739563,184.8576217412483 132.2027569776401,184.8576217412483 130.71662553027272,184.678810877027 129.23049408290535,184.678810877027 123.28596829157323,184.5 118.66244823206216,185.75167586794123 117.50656821765006,186.46691893576644 115.52505961991847,188.2550256976392 114.86455675493926,189.3278891327791 113.87380245607346,191.83123533218168 113.87380245607346,194.1557688130997 113.87380245607346,195.0498195681721 114.20405388902873,196.12268004682846 114.20405388902873,197.55315995891578 114.53430532105267,200.05649780854583 114.53430532105267,201.48697543796152 114.53430532105267,204.16911875782534 114.36917960550636,205.59959400235675 113.70867673959583,208.10292368312366 113.21329959016293,210.78505980712362 112.88304815813899,212.21553121344186 112.71792244073004,213.28838422405533 112.22254529129714,215.79170609964058 112.05741957575083,217.22217460209504 111.8922938592732,218.4738338610623 111.3969167098403,222.40761596732773 111.23179099336267,223.6592725943774 111.06666527688503,224.91092858603224 110.73641384392977,227.41423866385594 110.73641384392977,228.66589274979196 110.73641384392977,230.27516135503538 111.06666527688503,232.42085119592957 111.3969167098403,233.31488807802089 111.8922938592732,234.74534641602077 111.8922938592732,235.28176807891577 111.8922938592732,235.81818962516263 112.22254529129714,236.3546110545285 112.22254529129714,236.89103236747906 112.38767100870609,237.42745356354862 112.5527967242524,238.1426816433668 113.21329959016293,239.3943302843254 113.5435510231182,241.18239866918884 113.87380245607346,242.61285244417377 114.20405388902873,243.86449881619774 114.53430532105267,248.1558529837057 114.36917960550636,249.5863027132582 113.87380245607346,252.44719968363643 113.21329959016293,254.95048181083985 113.0481738736853,259.0630112173967 113.70867673959583,261.387481326703 116.3506882013753,263.53314409870654 117.836819649674,263.71194924553856 119.9834539629519,264.24836460803635 121.13933397829533,264.6059747848194 123.78134544100612,264.6059747848194 125.43260260485113,264.78477985365316 126.75360833574086,264.96358490968123 129.5607455149293,264.96358490968123 130.71662553027272,264.96358490968123 132.36788269411772,264.96358490968123 135.00989415775985,264.96358490968123 136.49602560512722,264.78477985365316 137.81703133601695,264.96358490968123 142.2754256790504,264.96358490968123 143.26617997791618,264.96358490968123 146.0733171561733,264.96358490968123 147.39432288799435,265.1423899526708 148.7153286188841,265.32119498285465 151.68759151455015,265.32119498285465 153.17372296284884,264.96358490968123 154.49472869373858,264.6059747848194 156.64136300701648,263.89075437909923 156.97161443997175,263.53314409870654 157.46699158940464,262.9967285809107 157.3018658719957,262.9967285809107 157.46699158940464,262.9967285809107 157.63211730588228,263.1755337663926 157.63211730588228,262.6391181703657 157.46699158940464,262.8179233823903 157.96236873883754,262.6391181703657 157.96236873883754,262.4603129462339 158.12749445438385,262.28150770883076 158.62287160381675,261.92389719490893 158.78799732029438,261.92389719490893 159.61362590268254,261.56628662953153 159.9438773356378,261.20867601200007 160.10900305118412,261.20867601200007 161.5951344994828,260.31464924057946 161.92538593243808,259.7782330226619 161.76026021596044,259.7782330226619 161.76026021596044,259.7782330226619 162.0905116489157,259.7782330226619 162.25563736539334,259.7782330226619 162.25563736539334,259.7782330226619 162.0905116489157,259.9570384423714 162.25563736539334,259.9570384423714 162.25563736539334,259.7782330226619 162.42076308187097,259.59942759084515 162.5858887983486,259.241816688329 164.7325231116265,259.241816688329 167.20940885692835,258.8842057338916 171.00730033498257,258.70540023688227 172.3283060658723,258.5265947270673 174.47494038008153,257.09615018288605 175.63082039449364,256.38092759950086 177.28207755926996,254.41406442597508 178.1077061407268,252.08958774385974 178.43795757368207,250.83794554625638 178.27283185813576,246.90420878957957 178.1077061407268,245.47375750378706 177.94258042424917,244.0433053886518 177.77745470870286,241.3612054362893 177.94258042424917,239.751944065094 177.77745470870286,238.67910256725736 177.4472032757476,234.0301173508633 177.77745470870286,232.0632363515906 177.6123289912939,229.73873860295862 177.6123289912939,227.41423866385594 177.28207755926996,223.30165647994727 177.6123289912939,221.51357513060793 177.6123289912939,220.08310911734588 177.4472032757476,217.40098310657777 177.28207755926996,215.97051470773295 177.4472032757476,214.89766286453232 177.116951841861,211.1426777364686 177.116951841861,210.06982379266992 177.116951841861,208.81816026801243 177.28207755926996,205.77840334922075 177.4472032757476,204.70554707176052 177.28207755926996,203.45388082461432 177.28207755926996,202.73864268348552 177.116951841861,201.48697543796152 177.116951841861,200.23530755750835 177.116951841861,199.69887827103958 176.78670040983707,199.16244886792265 176.9518261263147,198.98363904142752 176.62157469335943,198.26839960413054 176.29132326040417,197.91077980748378 176.29132326040417,197.55315995891578 175.79594611097127,196.48030010331422 175.30056896153837,195.94386999984272 174.64006609655917,195.0498195681721 173.97956323064864,193.79814842017367 171.6678032008931,191.83123533218168 170.67704890295863,191.2948042175267 169.5211688876152,190.5795625501778 166.05352884344757,189.3278891327791 164.7325231116265,188.79145747353323 163.41151737980545,188.43383630248718 161.43000878300518,187.71859380532987 160.27412876859307,187.36097247875296 159.4485001862049,187.18216179590672 159.11824875324965,187.18216179590672 157.13674015644938,187.18216179590672 156.97161443997175,187.00335110048763 156.1459858585149,187.00335110048763 155.98086014110595,186.82454039156437 155.650608709082,186.82454039156437 154.99010584317148,186.82454039156437 154.82498012669384,186.82454039156437 153.99935154430568,186.82454039156437 153.5039743958041,186.64572967030108 152.5132200969383,186.46691893576644 151.02708864957094,186.46691893576644 150.8619629330933,186.28810818842612 149.70608291774988,186.10929742758162 149.37583148479462,186.10929742758162 149.21070576831698,185.93048665416427 147.88970003649592,185.75167586794123 147.7245743209496,185.57286506844684 146.73382002301514,185.57286506844684 146.23844287358224,185.57286506844684 145.90819144062698,185.57286506844684 145.08256285823882,185.39405425591394 144.4220599923283,185.39405425591394 142.77080282848328,185.57286506844684 141.11954566370696,185.39405425591394 138.31240848544985,184.8576217412483 136.9914027536288,184.8576217412483 135.67039702180773,185.03643259219825 133.02838556002825,184.8576217412483 131.87250554468483,184.678810877027 127.74436263460666,184.5 126.58848262019455,184.5 123.94647115655243,184.5 122.79059114214033,184.678810877027 121.46958541125059,184.678810877027 119.15782538056374,185.39405425591394 118.00194536615163,186.10929742758162 115.69018533732742,188.07621507998556 114.86455675493926,189.1490785924252 113.70867673959583,191.2948042175267 113.37842530664057,193.44052797509357 113.70867673959583,195.94386999984272 114.86455675493926,199.69887827103958 115.02968247048557,200.77173672709614 114.69943103846163,203.99030929384753 114.20405388902873,205.95721268374473 113.5435510231182,209.3545875705313 113.37842530664057,210.4274418258574 113.0481738736853,211.67910453327931 112.88304815813899,213.8248105540406 113.0481738736853,214.18242804263718 113.21329959016293,215.43408884457313 113.0481738736853,216.14932330325246 112.88304815813899,216.68574901111424 112.71792244073004,217.57979159802198 112.71792244073004,217.9374085420277 112.5527967242524,218.65264227474108 112.5527967242524,219.0102590629831 112.5527967242524,219.36787579976954 112.22254529129714,220.79834222747013 112.05741957575083,221.51357513060793 111.72716814279556,222.2288078260608 111.8922938592732,222.40761596732773 112.05741957575083,223.12284840317443 111.23179099336267,226.52019964181818 111.23179099336267,227.59304642910138 111.23179099336267,228.66589274979196 111.23179099336267,230.09635378420353 111.56204242538661,232.42085119592957 111.56204242538661,233.67250274051912 111.72716814279556,235.10296087083407 112.38767100870609,237.60626060306095 112.88304815813899,238.67910256725736 113.87380245607346,243.5068856314756 114.20405388902873,247.44062780751847 114.20405388902873,250.83794554625638 113.70867673959583,252.44719968363643 113.0481738736853,255.30809333594516 112.71792244073004,258.34778920467943 113.5435510231182,260.67225998826325 114.36917960550636,261.74509191839024 115.1948081869632,262.6391181703657 117.3414425002411,263.89075437909923 122.79059114214033,264.06955950008705 123.78134544100612,264.24836460803635 124.93722545541823,264.4271697027143 126.25823118630797,264.4271697027143 128.90024264901876,264.78477985365316 130.0561226643622,264.78477985365316 131.37712839618325,264.78477985365316 134.18426557537168,264.96358490968123 135.67039702180773,264.6059747848194 136.9914027536288,264.6059747848194 139.79853993281722,264.78477985365316 141.94517424609512,264.6059747848194 142.77080282848328,264.4271697027143 143.4313056943938,264.4271697027143 144.91743714176118,264.4271697027143 145.5779400067404,264.6059747848194 148.2199514703825,264.24836460803635 148.7153286188841,264.24836460803635 149.21070576831698,264.4271697027143 149.87120863422751,264.4271697027143 150.3665857836604,264.6059747848194 151.02708864957094,264.78477985365316 151.52246579807252,264.78477985365316 153.0085972454399,264.4271697027143 155.1552315596491,264.06955950008705 155.98086014110595,263.71194924553856 157.13674015644938,262.9967285809107 157.13674015644938,263.1755337663926 157.13674015644938,263.1755337663926 157.13674015644938,263.35433893930167 156.8064887234941,263.53314409870654 157.13674015644938,263.35433893930167 156.8064887234941,262.9967285809107 156.64136300701648,262.9967285809107 156.64136300701648,263.1755337663926 156.97161443997175,263.1755337663926 157.63211730588228,262.6391181703657 158.45774588827044,262.28150770883076 160.10900305118412,261.74509191839024 161.0997573500499,261.20867601200007 162.25563736539334,260.8510653420817 163.57664309628308,260.4934546209406 165.8884031260386,259.7782330226619 169.5211688876152,259.7782330226619 170.67704890295863,259.42062214622274 171.83292891737074,259.0630112173967 176.4564489768818,254.5928702338133 177.116951841861,252.26839372050017 177.6123289912939,250.65913946623914 177.6123289912939,248.1558529837057 177.6123289912939,246.90420878957957 177.77745470870286,244.57972502917983 177.6123289912939,240.82478509633802 177.4472032757476,239.57313718111254 177.4472032757476,238.3214886309579 177.28207755926996,234.56653916905634 177.28207755926996,232.59965859819204 177.28207755926996,231.88442891067825 177.28207755926996,231.1691990152467 177.28207755926996,230.27516135503538 177.28207755926996,229.73873860295862 177.28207755926996,229.20231573446654 177.116951841861,229.02350808610208 177.116951841861,228.4870850618463 177.4472032757476,227.41423866385594 177.4472032757476,226.1625839425251 177.28207755926996,225.62616029637866 176.9518261263147,225.0897365331184 176.9518261263147,223.83808063226752 176.9518261263147,223.48046454391442 176.9518261263147,222.76523221144453" stroke="#4dd2ff" stroke-linecap="round" stroke-linejoin="round" stroke-width="0.5"><title>2020-09-06 10.3km</title></polyline></svg>