<?xml version="1.0" encoding="utf-8" ?>
<svg baseProfile="full" height="300mm" version="1.1" viewBox="0,0,200,300" width="200mm" xmlns="http://www.w3.org/2000/svg" xmlns:ev="http://www.w3.org/2001/xml-events" xmlns:xlink="http://www.w3.org/1999/xlink"><defs /><rect fill="#222222" height="300" width="200" x="0" y="0" /><text fill="#FFFFFF" style="font-size:12px; font-family:Arial; font-weight:bold;" x="10" y="20">Over 10km Runs</text><text fill="#FFFFFF" style="font-size:4px; font-family:Arial" x="10" y="280">ATHLETE</text><text fill="#FFFFFF" style="font-size:9px; font-family:Arial" x="10" y="290">peiming</text><text fill="#FFFFFF" style="font-size:4px; font-family:Arial" x="120" y="280">STATISTICS</text><text fill="#FFFFFF" style="font-size:3px; font-family:Arial" x="120" y="285">Number: 1</text><text fill="#FFFFFF" style="font-size:3px; font-family:Arial" x="120" y="290">Weekly: 1.0</text><text fill="#FFFFFF" style="font-size:3px; font-family:Arial" x="141" y="285">Total: 10.3 km</text><text fill="#FFFFFF" style="font-size:3px; font-family:Arial" x="141" y="290">Avg: 10.3 km</text><text fill="#FFFFFF" style="font-size:3px; font-family:Arial" x="167" y="285">Min: 10.3 km</text><text fill="#FFFFFF" style="font-size:3px; font-family:Arial" x="167" y="290">Max: 10.3 km</text><polyline fill="none" points="160.27088649012148,215.98035624064505 161.26164078898728,215.98035624064505 164.23390368372202,213.47707783430815 166.2154122814536,211.33140961779281 167.8666694443673,206.3248468162492 168.1969208791852,203.82156350882724 168.52717231214046,202.03350322740152 168.1969208791852,197.3845434593968 167.8666694443673,194.52364296233281 168.1969208791852,192.37796650035307 167.2061665803194,183.08002438163385 166.87591514736414,180.2191155878827 166.87591514736414,178.0734329042025 166.2154122814536,175.92774928640574 165.88516084849834,171.27876491192728 165.22465798258781,168.77546381903812 164.8944065514952,166.62977615604177 164.8944065514952,162.3383980304934 165.22465798258781,160.55032271007076 165.55490941740572,158.76224674098194 165.22465798258781,156.2589392955415 164.8944065514952,149.46424125228077 164.56415511853993,143.38476664805785 164.23390368372202,140.8814513972029 164.56415511853993,138.73575159953907 164.8944065514952,134.08673216914758 164.8944065514952,132.29864660650492 165.55490941740572,126.21915084309876 164.8944065514952,124.07344466634095 165.22465798258781,122.28535547293723 165.22465798258781,120.13964758533984 165.55490941740572,116.20584736624733 165.55490941740572,114.41775532066822 165.22465798258781,112.27204400999472 164.8944065514952,110.12633176567033 164.56415511853993,105.83490447700024 164.56415511853993,103.68918943312019 164.23390368372202,101.54347345419228 163.24314938671887,97.60965840239078 162.9128979537636,95.46393977990374 161.9221436548978,94.0334601784125 161.26164078898728,91.88773999968544 158.94988076016307,88.66915798000991 157.628875028342,87.23867640877143 154.65661213174462,85.09295327262953 152.3448521029204,84.37771202018484 150.6935949381441,83.30484994733706 149.0423377752304,82.58960843505338 145.7398234475404,80.08626232622191 142.76756055094302,79.01339931925759 141.44655481912196,78.65577826555818 139.79529765620828,78.29815718485042 138.47429192438722,78.65577826555818 136.16253189370036,77.22529378905892 133.19026899896562,76.86767260497436 131.53901183605194,76.86767260497436 130.54825753718615,76.86767260497436 128.2364975064993,76.15243015997112 126.58524034172297,75.43718761065975 125.59448604285717,75.07956629712135 123.61297744698822,74.72194495750591 121.9617202822119,74.36432359181345 119.64996025338769,74.36432359181345 116.34744592569768,74.00670220097527 115.35669162683189,74.00670220097527 114.03568589501083,74.00670220097527 112.71468016318977,73.64908078312874 111.72392586618662,73.64908078312874 111.06342300027609,73.29145934060216 109.74241726845503,73.29145934060216 108.42141153663397,73.29145934060216 107.10040580667555,72.93383787153289 104.12814291007817,72.21859485516325 102.14663431234658,72.21859485516325 101.48613144829869,71.86097330832854 100.4953771494329,71.86097330832854 99.5046228505671,71.50335173588246 97.85336568765342,71.50335173588246 96.86261138878763,71.50335173588246 93.89034849219024,71.14573013689369 92.23909132741392,71.14573013689369 91.24833703041077,71.86097330832854 87.94582270085812,70.78810851182789 85.6340626720339,70.43048686161637 79.02903401479125,69.35762175405398 76.71727398596704,69.71524348249659 74.07526252232492,70.0728651843965 69.45174246281385,70.0728651843965 64.16771953739226,70.0728651843965 61.19545664265752,70.0728651843965 58.22319374792278,70.0728651843965 53.59967368841171,70.0728651843965 49.30640505999327,71.50335173588246 46.99464503116906,72.21859485516325 44.6828850004822,73.29145934060216 43.03162783756852,74.00670220097527 40.719867806881666,76.15243015997112 39.06861064210534,79.7286413507536 37.41735347919166,82.94722920376807 37.41735347919166,88.31153762619942 38.408107778057456,89.38439861079678 38.73835921101272,91.17249973164871 39.39886207692325,92.60298016248271 40.059364940971136,96.89441896509379 40.059364940971136,98.6825173641555 40.719867806881666,101.18585403310135 41.05011923983693,102.97395087592304 41.05011923983693,106.55014261743054 40.3896163739264,109.41109414352104 39.729113509878516,111.91442536748946 39.39886207692325,114.06013683369383 38.73835921101272,117.63632053602487 38.077856343239546,119.42441141512245 37.747604912146926,120.85488365171477 36.75685061328113,128.00723861018196 35.76609631627798,131.2257949570194 35.105593448504806,134.08673216914758 34.445090582594275,139.8086016154848 33.78458771854639,141.59668445494026 33.78458771854639,143.74238300835714 33.124084850773215,145.88808062765747 33.454336285591125,149.82185717206448 33.124084850773215,151.96755214687437 32.793833419680595,153.7556305793114 33.454336285591125,155.90132384141907 33.454336285591125,157.68940084893256 33.78458771854639,159.47747720591724 34.114839151501656,160.19270756840706 34.114839151501656,161.6231679804623 34.445090582594275,163.05362797761336 34.775342017412186,164.1264727031812 35.105593448504806,165.55693197483197 35.43584488146007,168.06023470172659 36.0963477473706,170.9211505483836 36.0963477473706,171.99399356218055 36.0963477473706,173.42445055255666 36.75685061328113,176.28536328673363 37.41735347919166,177.35820513451472 37.41735347919166,178.0734329042025 38.077856343239546,179.503888130188 38.408107778057456,180.93434294173494 39.06861064210534,182.00718377809972 39.729113509878516,183.79525132058188 41.38037067465484,186.65615804027766 41.71062210574746,189.15945005835965 41.38037067465484,192.73557930905372 41.71062210574746,195.95409341761842 41.05011923983693,198.814993084874 40.719867806881666,200.60305453417823 40.3896163739264,202.03350322740152 40.059364940971136,203.82156350882724 39.729113509878516,205.6096231439151 39.06861064210534,208.11290554329753 38.73835921101272,209.9009636216797 38.077856343239546,211.33140961779281 37.747604912146926,212.76185519900173 37.747604912146926,213.83468911238015 37.747604912146926,214.90752279339358 37.747604912146926,218.48363337665796 38.077856343239546,219.91407688474283 38.408107778057456,221.3445199765265 39.06861064210534,222.77496265387163 40.3896163739264,225.27823634073138 42.040873538702726,225.99345716182142 43.36187927052379,227.0662881974131 45.01313643530011,227.78150875819847 46.66439359821379,227.42389849107713 47.98539932817221,227.78150875819847 49.63665649294853,227.78150875819847 50.62741079181433,228.1391190001741 52.27866795659065,227.78150875819847 53.92992511950433,227.78150875819847 55.25093085132539,227.78150875819847 56.57193658314645,227.42389849107713 58.22319374792278,227.42389849107713 61.52570807561278,227.42389849107713 62.846713807433844,227.42389849107713 64.16771953739226,227.42389849107713 66.14922813512385,227.78150875819847 68.1307367309928,227.42389849107713 69.78199389576912,227.78150875819847 72.09375392645597,227.0662881974131 73.74501108936965,227.0662881974131 76.05677112005651,227.0662881974131 77.70802828297019,227.0662881974131 78.69878258183599,227.0662881974131 80.01978831551969,227.0662881974131 82.99205121025443,227.0662881974131 84.64330837503076,227.78150875819847 87.61557126790285,228.1391190001741 88.93657700158656,227.78150875819847 89.9273312985897,227.78150875819847 92.89959419332445,227.42389849107713 95.2113542240113,227.42389849107713 96.86261138878763,227.78150875819847 98.51386855170131,227.78150875819847 101.81638288125396,227.42389849107713 105.44914864189923,227.78150875819847 107.10040580667555,228.1391190001741 108.42141153663397,228.4967292160727 110.73317156732082,228.4967292160727 112.3844287302345,228.4967292160727 113.70543446205556,228.4967292160727 115.35669162683189,227.78150875819847 116.67769735865295,227.78150875819847 117.66845165751874,227.42389849107713 118.65920595638454,227.0662881974131 120.9709659833461,226.70867787860334 122.29197171702981,226.70867787860334 122.9524745810777,226.35106753278524 124.60373174399137,226.35106753278524 125.26423461176455,225.99345716182142 125.26423461176455,225.63584676478058 125.26423461176455,225.63584676478058 127.57599464058876,225.99345716182142 128.2364975064993,224.56301541766152 129.88775467127562,223.13257325906307 130.54825753718615,222.41735202400014 131.20876040123403,221.70213068416342 134.51127473078668,220.27168769575655 137.15328619256616,219.55646604532376 141.11630338802934,218.1260224347934 143.09781198389828,217.76841146778315 144.7490691486746,217.41080047376454 146.4003263115883,217.41080047376454 151.68434923700988,216.69557840935886 158.28937789425254,214.90752279339358 160.60113792307675,213.83468911238015 162.58264652080834,212.40424384269863 164.56415511853993,210.61618667189032 167.2061665803194,206.3248468162492 168.1969208791852,201.67589109251276 167.53641801327467,199.5302177425474 167.53641801327467,197.742155904416 167.2061665803194,196.3117059674114 166.54566371627152,191.3051279205829 165.88516084849834,188.44422389706597 165.88516084849834,185.58331821486354 165.55490941740572,179.14627436222509 165.55490941740572,175.2125212061219 164.8944065514952,170.56353615783155 164.8944065514952,169.13307833811268 164.56415511853993,166.98739083157852 164.8944065514952,162.69601301802322 164.8944065514952,160.90793782658875 164.8944065514952,158.76224674098194 164.8944065514952,156.61655472265556 164.8944065514952,152.68278359761462 164.23390368372202,149.46424125228077 164.23390368372202,148.0337773137726 164.56415511853993,146.60331295989454 163.57340081967413,143.74238300835714 164.23390368372202,141.59668445494026 164.56415511853993,139.8086016154848 164.56415511853993,137.6629013507627 165.22465798258781,131.9410294154659 165.22465798258781,129.08009095909074 165.22465798258781,126.21915084309876 164.8944065514952,121.57011961424723 164.8944065514952,118.70917514106259 164.56415511853993,115.84822900919244 164.56415511853993,104.40442788368091 164.23390368372202,102.25871221721172 162.9128979537636,97.60965840239078 161.59189222194254,94.3910801182501 158.94988076016307,90.0996391363442 156.96837216243148,87.23867640877143 148.71208634227514,81.87436681939289 147.06082917749882,80.44388327654451 142.43730911798775,78.65577826555818 140.4558005221188,77.58291494706646 138.47429192438722,76.51005139527842 131.8692632690072,75.07956629712135 127.57599464058876,74.36432359181345 126.2549889087677,74.72194495750591 124.93398317880929,74.00670220097527 123.94322887994349,74.00670220097527 121.63146885111928,74.36432359181345 120.31046311929822,74.36432359181345 118.65920595638454,74.00670220097527 117.66845165751874,73.64908078312874 115.35669162683189,72.93383787153289 114.03568589501083,73.29145934060216 113.04493159614503,73.29145934060216 112.05417729914188,73.29145934060216 110.73317156732082,73.29145934060216 109.41216583549976,73.29145934060216 107.76090867072344,72.93383787153289 107.10040580667555,72.57621637685224 102.14663431234658,72.21859485516325 99.5046228505671,72.21859485516325 97.85336568765342,71.86097330832854 96.2021085228771,71.86097330832854 95.2113542240113,72.21859485516325 92.23909132741392,71.50335173588246 90.58783416263759,71.86097330832854 89.59707986563444,71.86097330832854 88.27607413567603,71.50335173588246 86.95506840199232,71.50335173588246 84.97355980612338,71.50335173588246 83.98280550725758,71.50335173588246 81.01054261252284,71.50335173588246 79.02903401479125,71.86097330832854 76.38702255301178,71.50335173588246 74.07526252232492,71.50335173588246 71.76350249163806,71.14573013689369 69.12149102985859,71.14573013689369 68.79123959690332,71.86097330832854 65.48872526921332,71.50335173588246 58.88369661197066,71.86097330832854 57.23243944905698,71.86097330832854 55.58118228428066,71.86097330832854 51.94841652363539,71.50335173588246 50.62741079181433,71.50335173588246 47.65514789707959,72.21859485516325 46.33414216525853,73.29145934060216 45.01313643530011,73.64908078312874 42.040873538702726,75.43718761065975 40.059364940971136,77.94053607899696 39.39886207692325,79.01339931925759 39.06861064210534,80.44388327654451 37.747604912146926,83.66247066436335 37.747604912146926,88.31153762619942 39.06861064210534,91.17249973164871 39.39886207692325,93.3182202228345 40.719867806881666,97.25203869631514 41.05011923983693,99.75537609262392 40.719867806881666,104.76204707147554 40.059364940971136,107.26538065448403 39.06861064210534,114.41775532066822 38.077856343239546,117.27870228234679 37.41735347919166,119.78202951326966 36.75685061328113,124.78868016181514 36.426599180325866,127.2920035799034 36.0963477473706,129.79532572906464 34.775342017412186,135.15958319604397 34.114839151501656,139.09336829697713 34.445090582594275,141.59668445494026 34.445090582594275,144.4576156521216 34.114839151501656,149.1066253068857 33.454336285591125,155.90132384141907 32.793833419680595,158.04701617220417 33.124084850773215,163.4112429120578 33.124084850773215,165.91454672813416 34.114839151501656,170.56353615783155 34.775342017412186,172.709222109057 35.105593448504806,174.85490712709725 36.0963477473706,177.35820513451472 39.06861064210534,188.44422389706597 39.729113509878516,191.3051279205829 40.719867806881666,195.5964808431454 40.3896163739264,197.742155904416 39.729113509878516,199.8878300320357 39.39886207692325,201.67589109251276 38.73835921101272,205.96723499288782 37.087102046236396,212.76185519900173 37.41735347919166,216.3379673375748 37.747604912146926,218.1260224347934 38.077856343239546,219.55646604532376 39.06861064210534,222.77496265387163 41.05011923983693,223.84779438981786 41.71062210574746,224.56301541766152 43.03162783756852,225.63584676478058 44.6828850004822,226.70867787860334 47.65514789707959,228.4967292160727 49.30640505999327,228.4967292160727 53.92992511950433,228.4967292160727 55.25093085132539,228.4967292160727 57.56269088201225,227.78150875819847 59.87445091083646,227.42389849107713 61.19545664265752,227.42389849107713 63.17696524038911,227.78150875819847 68.1307367309928,227.0662881974131 72.7542567923665,227.42389849107713 74.40551395528018,227.42389849107713 76.05677112005651,227.42389849107713 77.37777685001493,227.78150875819847 79.02903401479125,227.78150875819847 82.00129691138864,227.78150875819847 83.65255407616496,227.42389849107713 84.97355980612338,227.42389849107713 86.29456553794444,227.42389849107713 87.94582270085812,227.42389849107713 89.59707986563444,227.42389849107713 90.9180855974555,227.78150875819847 94.2205999251455,227.42389849107713 95.54160565696657,227.42389849107713 97.19286281988025,227.42389849107713 98.51386855170131,227.42389849107713 103.46764004603028,227.42389849107713 104.7886457759887,227.0662881974131 106.43990294076502,227.42389849107713 109.0819144025445,227.78150875819847 110.40292013250291,228.1391190001741 112.05417729914188,228.4967292160727 115.35669162683189,228.1391190001741 116.67769735865295,227.42389849107713 117.99870308861136,227.0662881974131 119.31970882043242,226.35106753278524 120.64071455225348,225.63584676478058 123.28272601403296,224.20540491631255 125.92473747767508,224.20540491631255 125.59448604285717,227.0662881974131 124.93398317880929,227.42389849107713 124.60373174399137,227.42389849107713 124.27348031289876,227.42389849107713 124.27348031289876,227.42389849107713 123.94322887994349,227.78150875819847 124.60373174399137,227.42389849107713 123.94322887994349,227.0662881974131 124.60373174399137,226.70867787860334 126.58524034172297,225.27823634073138 128.2364975064993,224.20540491631255 129.88775467127562,223.13257325906307 131.53901183605194,222.41735202400014 135.50202902965248,220.6292984811589 136.8230347596109,219.91407688474283 142.10705768689513,218.48363337665796 145.07932058162987,217.76841146778315 147.39108061045408,217.41080047376454 152.67510353587568,217.41080047376454 155.3171149995178,217.05318945413455 159.28013219311833,215.62274511763826 161.9221436548978,214.1923003657721 165.22465798258781,210.61618667189032 167.53641801327467,195.95409341761842 166.87591514736414,193.45080484775826 166.2154122814536,190.58990206988528 165.88516084849834,185.94093151576817 165.88516084849834,183.08002438163385 165.55490941740572,180.93434294173494 165.88516084849834,178.7886605686508 165.55490941740572,173.7820647349581 165.22465798258781,171.99399356218055 165.22465798258781,169.848307300359 165.22465798258781,167.34500548103824 165.55490941740572,162.69601301802322 165.55490941740572,160.90793782658875 165.55490941740572,158.40463146893308 165.88516084849834,156.61655472265556 164.8944065514952,151.60993638262153 165.22465798258781,144.81523193465546 164.8944065514952,139.45098496926948 164.8944065514952,137.30528454948217 164.8944065514952,134.80196621315554 164.8944065514952,130.51056039473042 164.8944065514952,126.21915084309876 165.22465798258781,124.43106242688373 165.22465798258781,121.92773755639791 164.8944065514952,120.13964758533984 164.23390368372202,116.92108400352299 164.56415511853993,113.70251832064241 164.56415511853993,110.48395053856075 164.23390368372202,105.47728536697105 164.23390368372202,102.97395087592304 163.9036522526294,100.4706151150167 163.57340081967413,98.3248977358453 161.9221436548978,94.3910801182501 159.94063505902886,90.4572593611665 158.94988076016307,88.66915798000991 158.28937789425254,87.59629684034735 155.97761786356568,85.80819442216307 154.65661213174462,84.73533265991136 153.66585783474147,84.37771202018484 152.67510353587568,83.66247066436335 150.36334350705147,82.23198764026165 149.37258920818567,81.87436681939289 147.72133204340935,81.5167459724471 146.7305777464062,80.80150420125574 145.07932058162987,80.44388327654451 143.42806341685355,79.37102034781128 142.10705768689513,79.37102034781128 139.79529765620828,78.65577826555818 137.15328619256616,77.94053607899696 135.8322804607451,77.58291494706646 134.51127473078668,77.22529378905892 133.5205204319209,76.51005139527842 132.5297661330551,76.15243015997112 131.20876040123403,76.15243015997112 129.55750323832035,75.79480889812112 125.26423461176455,75.07956629712135 123.94322887994349,74.36432359181345 122.29197171702981,74.00670220097527 121.30121741816401,73.64908078312874 119.64996025338769,73.64908078312874 117.99870308861136,73.29145934060216 116.67769735865295,72.57621637685224 113.04493159614503,72.21859485516325 109.74241726845503,71.86097330832854 109.0819144025445,72.21859485516325 108.09116010554135,72.21859485516325 105.11889720894396,71.50335173588246 104.7886457759887,71.50335173588246 103.13738861121237,71.14573013689369 102.14663431234658,71.50335173588246 100.4953771494329,71.14573013689369 98.84411998465657,71.14573013689369 97.85336568765342,70.78810851182789 94.55085135810077,70.43048686161637 92.89959419332445,70.43048686161637 91.9088398963213,70.43048686161637 90.58783416263759,70.43048686161637 89.26682843267918,70.43048686161637 88.27607413567603,70.43048686161637 86.6248169708997,70.43048686161637 82.66179977729917,70.43048686161637 81.67104547843337,69.71524348249659 79.35928544774652,70.0728651843965 78.0382797177881,69.71524348249659 75.72651968710124,70.0728651843965 70.44249676167965,70.78810851182789 68.79123959690332,70.43048686161637 67.47023386694491,70.43048686161637 66.14922813512385,70.0728651843965 64.82822240516543,70.0728651843965 61.85595950856805,70.0728651843965 60.53495377674699,69.71524348249659 59.54419947788119,70.0728651843965 58.22319374792278,70.0728651843965 56.57193658314645,70.0728651843965 54.2601765524596,69.71524348249659 52.60891938954592,69.71524348249659 47.98539932817221,70.43048686161637 46.66439359821379,71.14573013689369 43.36187927052379,74.00670220097527 42.040873538702726,74.72194495750591 41.05011923983693,76.15243015997112 39.39886207692325,78.65577826555818 38.408107778057456,81.5167459724471 38.077856343239546,82.58960843505338 38.077856343239546,84.02009135484695 38.077856343239546,89.02677830820903 38.73835921101272,90.81487955991179 39.06861064210534,92.60298016248271 39.729113509878516,94.0334601784125 40.3896163739264,95.46393977990374 41.38037067465484,98.3248977358453 41.05011923983693,99.04013696685433 40.719867806881666,100.4706151150167 41.05011923983693,101.54347345419228 41.05011923983693,102.25871221721172 41.38037067465484,105.83490447700024 41.05011923983693,107.62299963459373 41.05011923983693,109.05347529333085 40.3896163739264,110.84156928444281 40.059364940971136,112.62966262642294 39.06861064210534,115.49061062652618 38.408107778057456,119.06679329136387 37.747604912146926,120.13964758533984 37.747604912146926,121.2125016450882 38.077856343239546,122.6429733633995 37.747604912146926,125.14629787113518 37.087102046236396,126.57676844811067 36.426599180325866,127.64962110808119 35.76609631627798,130.86817768914625 35.43584488146007,132.29864660650492 34.775342017412186,137.6629013507627 34.114839151501656,139.09336829697713 33.78458771854639,141.2390679391101 33.78458771854639,142.66953384829685 33.454336285591125,146.24569680634886 33.78458771854639,146.96092908782884 34.114839151501656,148.3913933369331 33.78458771854639,151.96755214687437 34.114839151501656,155.54370836308226 34.114839151501656,157.33178549958393 34.445090582594275,158.76224674098194 34.114839151501656,160.55032271007076 34.445090582594275,162.3383980304934 34.445090582594275,165.19931719638407 34.114839151501656,166.98739083157852 34.114839151501656,168.41784927342087 33.78458771854639,170.20592174166813 33.78458771854639,171.63637925032526 34.445090582594275,174.49729302246124 34.445090582594275,175.92774928640574 34.775342017412186,177.35820513451472 36.426599180325866,180.2191155878827 37.087102046236396,181.64957019267604 37.747604912146926,182.72241087257862 38.077856343239546,184.15286475187168 38.73835921101272,185.58331821486354 39.06861064210534,187.0137712629512 39.39886207692325,187.0137712629512 40.3896163739264,189.5170631003566 40.3896163739264,193.80841757915914 40.059364940971136,195.23886824166402 40.059364940971136,196.3117059674114 39.729113509878516,197.3845434593968 39.729113509878516,198.814993084874 39.06861064210534,200.24544229591265 38.73835921101272,201.31827893247828 38.408107778057456,203.82156350882724 38.077856343239546,205.96723499288782 37.747604912146926,207.75529384939 37.747604912146926,209.1857404676266 37.41735347919166,210.9737981571816 36.426599180325866,214.1923003657721 36.75685061328113,218.48363337665796 36.75685061328113,219.55646604532376 36.75685061328113,220.6292984811589 37.747604912146926,222.77496265387163 39.39886207692325,224.56301541766152 40.719867806881666,225.27823634073138 41.71062210574746,225.99345716182142 46.00389073230326,228.1391190001741 47.32489646412432,228.4967292160727 51.61816509068012,228.4967292160727 52.93917082250118,228.4967292160727 54.59042798727751,228.85433940542862 55.91143371723592,228.85433940542862 56.90218801610172,228.85433940542862 58.22319374792278,228.4967292160727 59.21394804678857,227.78150875819847 64.16771953739226,228.4967292160727 65.48872526921332,228.85433940542862 68.4609881658107,228.85433940542862 70.11224532872438,228.85433940542862 71.43325106054544,228.85433940542862 74.40551395528018,228.85433940542862 79.02903401479125,228.85433940542862 82.33154834248126,228.4967292160727 84.97355980612338,228.4967292160727 86.29456553794444,228.4967292160727 87.94582270085812,228.85433940542862 88.93657700158656,228.85433940542862 90.58783416263759,228.85433940542862 91.9088398963213,228.4967292160727 94.55085135810077,228.85433940542862 95.54160565696657,228.85433940542862 97.19286281988025,228.85433940542862 98.51386855170131,228.85433940542862 100.4953771494329,228.85433940542862 101.81638288125396,228.85433940542862 106.10965150780976,229.56955970730633 107.10040580667555,229.92716981936246 109.74241726845503,230.28477990534157 111.72392586618662,230.6423899657093 113.70543446205556,230.28477990534157 115.02644019387662,230.28477990534157 119.64996025338769,228.85433940542862 121.9617202822119,227.42389849107713 122.62222314812243,226.70867787860334 123.94322887994349,225.99345716182142 123.94322887994349,224.9206258924678 123.94322887994349,224.56301541766152 122.62222314812243,228.1391190001741 124.27348031289876,226.70867787860334 124.93398317880929,225.99345716182142 125.59448604285717,225.63584676478058 125.59448604285717,225.27823634073138 125.59448604285717,225.63584676478058 126.2549889087677,224.9206258924678 126.58524034172297,224.56301541766152 127.57599464058876,224.20540491631255 128.89700037240982,223.13257325906307 129.88775467127562,222.77496265387163 131.20876040123403,222.0597413671203 133.19026899896562,220.98690924188122 133.5205204319209,220.27168769575655 134.51127473078668,220.27168769575655 135.1717775966972,219.55646604532376 135.8322804607451,219.55646604532376 137.48353762552142,218.84124429244548 139.465046223253,218.1260224347934 142.76756055094302,217.76841146778315 144.4188177138567,217.05318945413455 147.39108061045408,217.05318945413455 148.71208634227514,217.76841146778315 150.03309207223356,217.76841146778315 153.3356064017862,217.41080047376454 154.65661213174462,217.41080047376454 158.94988076016307,215.2651339690201 160.27088649012148,214.1923003657721 161.59189222194254,212.76185519900173 162.9128979537636,212.0466324603185 164.8944065514952,210.61618667189032 165.22465798258781,208.4705172101967 166.2154122814536,207.3976821298711 166.54566371627152,204.17917548771948 167.53641801327467,202.74872741708532 167.2061665803194,201.67589109251276 167.53641801327467,198.45738071762025 167.53641801327467,197.742155904416 167.2061665803194,196.66931849019602 166.54566371627152,193.09319209121168 166.2154122814536,192.02035366604105 166.54566371627152,190.58990206988528 166.54566371627152,189.15945005835965 166.87591514736414,184.86809153482318 166.2154122814536,183.43763786368072 165.55490941740572,182.00718377809972 165.55490941740572,179.503888130188 165.55490941740572,178.0734329042025 165.22465798258781,176.6429772619158 165.22465798258781,173.7820647349581 164.56415511853993,171.63637925032526 164.56415511853993,170.20592174166813 164.23390368372202,168.77546381903812 164.8944065514952,167.34500548103824 164.8944065514952,165.91454672813416 164.8944065514952,164.1264727031812 164.8944065514952,163.7688578213565 165.22465798258781,160.55032271007076 165.88516084849834,159.11986198695377 165.88516084849834,158.40463146893308 166.54566371627152,155.54370836308226 165.88516084849834,152.68278359761462 165.55490941740572,150.89470477588475 165.55490941740572,149.46424125228077 164.8944065514952,148.0337773137726 164.8944065514952,146.60331295989454 163.9036522526294,142.31191740976647 163.57340081967413,140.52383482921869 163.57340081967413,136.59005086822435 163.9036522526294,134.80196621315554 164.23390368372202,131.9410294154659 164.23390368372202,129.43770835641772 164.23390368372202,121.92773755639791 164.23390368372202,119.42441141512245 163.57340081967413,115.84822900919244 163.24314938671887,114.06013683369383 163.24314938671887,112.9872812172398 162.9128979537636,111.91442536748946 162.9128979537636,110.48395053856075 162.58264652080834,107.62299963459373 162.58264652080834,106.55014261743054 162.9128979537636,105.47728536697105 162.9128979537636,104.04680867120624 162.58264652080834,102.25871221721172 162.25239508785307,100.82823458639905 160.93138935789466,94.3910801182501 159.94063505902886,91.88773999968544 157.29862359538674,87.59629684034735 153.66585783474147,84.02009135484695 146.7305777464062,80.44388327654451 145.07932058162987,79.37102034781128 140.4558005221188,77.22529378905892 138.47429192438722,77.22529378905892 137.48353762552142,76.86767260497436 135.50202902965248,76.86767260497436 134.84152616374195,75.79480889812112 133.85077186487615,75.79480889812112 132.5297661330551,75.79480889812112 131.20876040123403,75.79480889812112 129.22725180536509,75.79480889812112 126.91549177654088,74.72194495750591 126.2549889087677,74.72194495750591 125.59448604285717,74.72194495750591 124.60373174399137,74.72194495750591 123.94322887994349,74.36432359181345 122.9524745810777,74.36432359181345 121.63146885111928,74.00670220097527 120.9709659833461,73.64908078312874 120.31046311929822,73.64908078312874 119.98021168634295,73.29145934060216 118.65920595638454,73.29145934060216 117.66845165751874,73.29145934060216 117.00794879160821,72.93383787153289 116.01719449087977,72.57621637685224 115.02644019387662,72.57621637685224 114.3659373279661,72.21859485516325 113.04493159614503,72.21859485516325 112.05417729914188,72.21859485516325 111.06342300027609,72.21859485516325 110.40292013250291,72.21859485516325 109.41216583549976,71.86097330832854 109.0819144025445,71.86097330832854 108.42141153663397,71.86097330832854 107.43065723776817,71.86097330832854 106.43990294076502,71.86097330832854 105.11889720894396,71.86097330832854 104.12814291007817,71.50335173588246 102.80713717825711,71.50335173588246 101.48613144829869,71.14573013689369 100.82562858238816,70.78810851182789 99.17437141761184,70.78810851182789 98.18361711874604,71.14573013689369 96.86261138878763,70.78810851182789 95.87185708992183,70.78810851182789 95.54160565696657,70.78810851182789 94.2205999251455,70.78810851182789 93.89034849219024,70.78810851182789 92.89959419332445,70.78810851182789 91.9088398963213,70.78810851182789 90.9180855974555,70.43048686161637 90.25758273154497,70.78810851182789 89.59707986563444,70.78810851182789 88.93657700158656,70.78810851182789 86.6248169708997,70.43048686161637 85.96431410498917,70.43048686161637 85.30381123907864,70.43048686161637 84.31305694021285,70.43048686161637 83.65255407616496,70.43048686161637 83.32230264134705,70.78810851182789 82.66179977729917,70.43048686161637 82.00129691138864,70.78810851182789 81.01054261252284,70.43048686161637 80.35003974661231,70.43048686161637 79.35928544774652,70.0728651843965 79.02903401479125,70.0728651843965 77.37777685001493,70.43048686161637 76.71727398596704,70.0728651843965 76.38702255301178,70.43048686161637 75.72651968710124,70.43048686161637 75.06601682119071,70.43048686161637 74.07526252232492,70.78810851182789 73.41475965641439,70.78810851182789 72.7542567923665,70.78810851182789 72.42400535941124,70.78810851182789 71.43325106054544,70.78810851182789 70.44249676167965,71.14573013689369 70.11224532872438,71.14573013689369 69.12149102985859,70.78810851182789 67.80048529803753,70.43048686161637 67.80048529803753,70.0728651843965 67.80048529803753,70.0728651843965 67.47023386694491,70.0728651843965 67.139982432127,70.0728651843965 66.47947956807911,69.71524348249659 67.139982432127,70.0728651843965 66.80973100103438,69.71524348249659 66.47947956807911,70.0728651843965 66.80973100103438,70.0728651843965 66.80973100103438,70.43048686161637 65.81897670216858,71.14573013689369 64.82822240516543,70.78810851182789 64.16771953739226,70.0728651843965 62.846713807433844,70.43048686161637 62.18621094152331,70.43048686161637 60.86520520970225,70.78810851182789 60.20470234565437,70.78810851182789 59.87445091083646,70.78810851182789 59.54419947788119,70.78810851182789 58.88369661197066,71.14573013689369 57.56269088201225,70.78810851182789 56.57193658314645,70.43048686161637 56.24168515019119,70.43048686161637 55.25093085132539,70.43048686161637 54.2601765524596,70.43048686161637 53.92992511950433,70.43048686161637 52.60891938954592,70.0728651843965 51.94841652363539,70.0728651843965 51.61816509068012,70.0728651843965 50.95766222476959,70.0728651843965 48.97615362890065,70.43048686161637 48.64590219594538,70.43048686161637 45.34338786639273,72.57621637685224 42.37112497165799,74.72194495750591 41.38037067465484,76.51005139527842 40.719867806881666,77.58291494706646 39.729113509878516,79.7286413507536 39.729113509878516,80.44388327654451 39.39886207692325,81.5167459724471 38.73835921101272,83.30484994733706 38.408107778057456,84.37771202018484 38.077856343239546,85.45057386020198 38.077856343239546,86.52343546692282 38.077856343239546,87.23867640877143 38.73835921101272,87.95391724584624 38.73835921101272,89.38439861079678 39.06861064210534,91.53011987870559 39.729113509878516,93.3182202228345 40.059364940971136,93.67584021342918 40.059364940971136,95.10631991783157 40.719867806881666,95.46393977990374 41.05011923983693,96.53679920826107 40.719867806881666,97.60965840239078 41.05011923983693,98.6825173641555 41.38037067465484,100.4706151150167 41.38037067465484,101.54347345419228 41.38037067465484,102.25871221721172 41.38037067465484,102.97395087592304 41.05011923983693,103.68918943312019 41.38037067465484,104.40442788368091 41.38037067465484,105.83490447700024 41.38037067465484,106.55014261743054 41.38037067465484,108.69585641752928 39.39886207692325,113.70251832064241 39.06861064210534,115.1329922163859 36.426599180325866,122.28535547293723 35.76609631627798,125.14629787113518 35.43584488146007,127.64962110808119 34.775342017412186,132.6562637705356 34.445090582594275,135.15958319604397 32.793833419680595,142.66953384829685 32.46358198672533,145.17284819111228 32.46358198672533,147.67616126453504 32.46358198672533,154.47086177021265 32.46358198672533,157.33178549958393 32.133330553770065,160.19270756840706 32.793833419680595,166.62977615604177 33.454336285591125,175.2125212061219 34.445090582594275,180.2191155878827 35.76609631627798,182.36479733837768 38.077856343239546,188.44422389706597 38.73835921101272,191.3051279205829 39.06861064210534,197.02693098736927 39.06861064210534,199.5302177425474 38.408107778057456,202.39111533528194 36.75685061328113,208.11290554329753 36.426599180325866,210.61618667189032 36.0963477473706,216.69557840935886 38.408107778057456,221.70213068416342 41.05011923983693,225.27823634073138 45.01313643530011,227.42389849107713 47.65514789707959,228.1391190001741 53.26942225545645,228.85433940542862 55.58118228428066,229.21194956963882 58.22319374792278,229.21194956963882 63.17696524038911,229.21194956963882 65.48872526921332,229.21194956963882 77.37777685001493,230.28477990534157 83.98280550725758,230.28477990534157 86.95506840199232,230.28477990534157 98.84411998465657,230.28477990534157 101.48613144829869,230.28477990534157 106.77015437185764,231.0 112.3844287302345,230.6423899657093 115.35669162683189,229.92716981936246 120.9709659833461,227.78150875819847 123.61297744698822,226.70867787860334 127.90624607540667,224.20540491631255 129.88775467127562,222.77496265387163 133.85077186487615,220.6292984811589 136.16253189370036,219.91407688474283 138.80454335734248,218.84124429244548 143.7583148498088,217.76841146778315 146.07007487863302,217.76841146778315 149.0423377752304,217.41080047376454 157.29862359538674,215.2651339690201 159.61038362421095,213.83468911238015 163.9036522526294,209.9009636216797 166.54566371627152,205.6096231439151 167.2061665803194,200.60305453417823 166.54566371627152,197.742155904416 165.55490941740572,188.80183699028566 165.55490941740572,183.43763786368072 165.22465798258781,177.71581903193146 164.8944065514952,171.63637925032526 165.22465798258781,169.49069283204153 165.22465798258781,167.34500548103824 164.8944065514952,161.9807830187492 164.8944065514952,159.83509240020066 165.22465798258781,157.33178549958393 165.22465798258781,155.18609285820276 164.8944065514952,149.82185717206448 164.56415511853993,141.2390679391101 164.23390368372202,135.15958319604397 164.56415511853993,127.64962110808119 164.8944065514952,125.14629787113518 164.56415511853993,120.49726563179865 164.56415511853993,118.3515569656156 163.9036522526294,112.27204400999472 164.56415511853993,109.41109414352104 164.56415511853993,107.26538065448403 164.23390368372202,101.90109284827486 162.9128979537636,97.25203869631514 161.9221436548978,94.3910801182501 160.60113792307675,92.24536009365693 160.27088649012148,90.81487955991179 158.6196293272078,88.66915798000991 152.67510353587568,84.02009135484695 150.6935949381441,82.94722920376807 138.80454335734248,76.86767260497436 136.8230347596109,75.79480889812112 132.5297661330551,75.07956629712135 130.21800610236824,74.36432359181345 127.57599464058876,73.64908078312874 122.9524745810777,72.93383787153289 120.9709659833461,72.93383787153289 118.65920595638454,72.57621637685224 116.67769735865295,72.21859485516325 112.71468016318977,71.50335173588246 110.40292013250291,71.50335173588246 108.42141153663397,71.50335173588246 104.12814291007817,70.78810851182789 102.14663431234658,70.78810851182789 100.16512571647763,70.43048686161637 95.54160565696657,69.71524348249659 93.89034849219024,70.43048686161637 86.95506840199232,69.71524348249659 79.02903401479125,69.71524348249659 74.40551395528018,69.71524348249659 71.43325106054544,69.35762175405398 68.4609881658107,69.35762175405398 56.57193658314645,69.0 47.32489646412432,71.50335173588246 45.01313643530011,72.93383787153289 41.05011923983693,76.51005139527842 39.729113509878516,78.65577826555818 37.747604912146926,83.66247066436335 37.747604912146926,88.31153762619942 37.747604912146926,90.0996391363442 38.408107778057456,92.24536009365693 38.408107778057456,95.10631991783157 39.06861064210534,100.11299561709166 39.06861064210534,102.97395087592304 39.06861064210534,108.33823751565069 38.73835921101272,111.1991880047135 37.41735347919166,116.20584736624733 36.426599180325866,121.57011961424723 35.76609631627798,124.43106242688373 35.43584488146007,126.57676844811067 34.445090582594275,131.58341219928116 34.114839151501656,134.44434920419008 33.78458771854639,136.9476677221246 32.793833419680595,144.81523193465546 32.46358198672533,147.3185451887548 32.133330553770065,149.82185717206448 31.472827687859535,154.82847732771188 31.472827687859535,157.33178549958393 31.472827687859535,160.55032271007076 32.133330553770065,164.84170239185914 32.793833419680595,166.62977615604177 33.78458771854639,169.49069283204153 33.78458771854639,170.56353615783155 33.78458771854639,171.63637925032526 34.445090582594275,172.709222109057 34.445090582594275,173.7820647349581 34.775342017412186,174.85490712709725 35.105593448504806,176.28536328673363 36.426599180325866,178.7886605686508 37.087102046236396,182.36479733837768 37.747604912146926,185.22570488834754 38.408107778057456,187.72899763239548 39.06861064210534,196.3117059674114 38.73835921101272,199.17260542651638 37.747604912146926,204.89439936727285 36.426599180325866,209.9009636216797 36.0963477473706,218.1260224347934 37.41735347919166,222.77496265387163 42.70137640275061,227.0662881974131 45.673639299348,227.42389849107713 49.9669079259038,228.4967292160727 52.27866795659065,229.21194956963882 57.56269088201225,229.21194956963882 60.86520520970225,229.56955970730633 63.50721667148173,229.92716981936246 69.12149102985859,229.92716981936246 71.43325106054544,229.92716981936246 74.73576538823545,229.92716981936246 80.01978831551969,229.92716981936246 82.99205121025443,229.56955970730633 85.6340626720339,229.92716981936246 94.55085135810077,229.92716981936246 96.53235995583236,229.92716981936246 102.14663431234658,229.92716981936246 104.7886457759887,230.28477990534157 107.43065723776817,230.6423899657093 113.3751830291003,230.6423899657093 116.34744592569768,229.92716981936246 118.98945738747716,229.21194956963882 123.28272601403296,227.78150875819847 123.94322887994349,227.0662881974131 124.93398317880929,225.99345716182142 124.60373174399137,225.99345716182142 124.93398317880929,225.99345716182142 125.26423461176455,226.35106753278524 125.26423461176455,225.27823634073138 124.93398317880929,225.63584676478058 125.92473747767508,225.27823634073138 125.92473747767508,224.9206258924678 126.2549889087677,224.56301541766152 127.2457432076335,223.84779438981786 127.57599464058876,223.84779438981786 129.22725180536509,223.13257325906307 129.88775467127562,222.41735202400014 130.21800610236824,222.41735202400014 133.19026899896562,220.6292984811589 133.85077186487615,219.55646604532376 133.5205204319209,219.55646604532376 133.5205204319209,219.55646604532376 134.18102329783142,219.55646604532376 134.51127473078668,219.55646604532376 134.51127473078668,219.55646604532376 134.18102329783142,219.91407688474283 134.51127473078668,219.91407688474283 134.51127473078668,219.55646604532376 134.84152616374195,219.1988551816903 135.1717775966972,218.48363337665796 139.465046223253,218.48363337665796 144.4188177138567,217.76841146778315 152.01460066996515,217.41080047376454 154.65661213174462,217.05318945413455 158.94988076016307,214.1923003657721 161.26164078898728,212.76185519900173 164.56415511853993,208.82812885195017 166.2154122814536,204.17917548771948 166.87591514736414,201.67589109251276 166.54566371627152,193.80841757915914 166.2154122814536,190.9475150075741 165.88516084849834,188.08661077730358 165.55490941740572,182.72241087257862 165.88516084849834,179.503888130188 165.55490941740572,177.35820513451472 164.8944065514952,168.06023470172659 165.55490941740572,164.1264727031812 165.22465798258781,159.47747720591724 165.22465798258781,154.82847732771188 164.56415511853993,146.60331295989454 165.22465798258781,143.02715026121587 165.22465798258781,140.16621823469177 164.8944065514952,134.80196621315554 164.56415511853993,131.9410294154659 164.8944065514952,129.79532572906464 164.23390368372202,122.28535547293723 164.23390368372202,120.13964758533984 164.23390368372202,117.63632053602487 164.56415511853993,111.5568066984415 164.8944065514952,109.41109414352104 164.56415511853993,106.90776164922863 164.56415511853993,105.47728536697105 164.23390368372202,102.97395087592304 164.23390368372202,100.4706151150167 164.23390368372202,99.39775654207915 163.57340081967413,98.3248977358453 163.9036522526294,97.96727808285505 163.24314938671887,96.53679920826107 162.58264652080834,95.82155961496755 162.58264652080834,95.10631991783157 161.59189222194254,92.96060020662844 160.60113792307675,91.88773999968544 159.28013219311833,90.0996391363442 157.95912646129727,87.59629684034735 153.3356064017862,83.66247066436335 151.35409780591726,82.58960843505338 149.0423377752304,81.1591251003556 142.10705768689513,78.65577826555818 139.465046223253,77.58291494706646 136.8230347596109,76.86767260497436 132.86001756601036,75.43718761065975 130.54825753718615,74.72194495750591 128.89700037240982,74.36432359181345 128.2364975064993,74.36432359181345 124.27348031289876,74.36432359181345 123.94322887994349,74.00670220097527 122.29197171702981,74.00670220097527 121.9617202822119,73.64908078312874 121.30121741816401,73.64908078312874 119.98021168634295,73.64908078312874 119.64996025338769,73.64908078312874 117.99870308861136,73.64908078312874 117.00794879160821,73.29145934060216 115.02644019387662,72.93383787153289 112.05417729914188,72.93383787153289 111.72392586618662,72.57621637685224 109.41216583549976,72.21859485516325 108.75166296958923,72.21859485516325 108.42141153663397,71.86097330832854 105.77940007299185,71.50335173588246 105.44914864189923,71.14573013689369 103.46764004603028,71.14573013689369 102.47688574716449,71.14573013689369 101.81638288125396,71.14573013689369 100.16512571647763,70.78810851182789 98.84411998465657,70.78810851182789 95.54160565696657,71.14573013689369 92.23909132741392,70.78810851182789 86.6248169708997,69.71524348249659 83.98280550725758,69.71524348249659 81.34079404361546,70.0728651843965 76.05677112005651,69.71524348249659 73.74501108936965,69.35762175405398 65.48872526921332,69.0 63.17696524038911,69.0 57.89294231310487,69.0 55.58118228428066,69.35762175405398 52.93917082250118,69.35762175405398 48.31565076112747,70.78810851182789 46.00389073230326,72.21859485516325 41.38037067465484,76.15243015997112 39.729113509878516,78.29815718485042 37.41735347919166,82.58960843505338 36.75685061328113,86.88105595018715 37.41735347919166,91.88773999968544 39.729113509878516,99.39775654207915 40.059364940971136,101.54347345419228 39.39886207692325,107.98061858769506 38.408107778057456,111.91442536748946 37.087102046236396,118.70917514106259 36.75685061328113,120.85488365171477 36.0963477473706,123.35820906655863 35.76609631627798,127.64962110808119 36.0963477473706,128.36485608527437 36.426599180325866,130.86817768914625 36.0963477473706,132.29864660650492 35.76609631627798,133.37149802222848 35.43584488146007,135.15958319604397 35.43584488146007,135.8748170840554 35.105593448504806,137.30528454948217 35.105593448504806,138.0205181259662 35.105593448504806,138.73575159953907 34.445090582594275,141.59668445494026 34.114839151501656,143.02715026121587 33.454336285591125,144.4576156521216 33.78458771854639,144.81523193465546 34.114839151501656,146.24569680634886 32.46358198672533,153.04039928363636 32.46358198672533,155.18609285820276 32.46358198672533,157.33178549958393 32.46358198672533,160.19270756840706 33.124084850773215,164.84170239185914 33.124084850773215,167.34500548103824 33.454336285591125,170.20592174166813 34.775342017412186,175.2125212061219 35.76609631627798,177.35820513451472 37.747604912146926,187.0137712629512 38.408107778057456,194.88125561503693 38.408107778057456,201.67589109251276 37.41735347919166,204.89439936727285 36.0963477473706,210.61618667189032 35.43584488146007,216.69557840935886 37.087102046236396,221.3445199765265 38.73835921101272,223.4901838367805 40.3896163739264,225.27823634073138 44.6828850004822,227.78150875819847 55.58118228428066,228.1391190001741 57.56269088201225,228.4967292160727 59.87445091083646,228.85433940542862 62.51646237261593,228.85433940542862 67.80048529803753,229.56955970730633 70.11224532872438,229.56955970730633 72.7542567923665,229.56955970730633 78.36853115074337,229.92716981936246 81.34079404361546,229.21194956963882 83.98280550725758,229.21194956963882 89.59707986563444,229.56955970730633 93.89034849219024,229.21194956963882 95.54160565696657,228.85433940542862 96.86261138878763,228.85433940542862 99.83487428352237,228.85433940542862 101.15588001348078,229.21194956963882 106.43990294076502,228.4967292160727 107.43065723776817,228.4967292160727 108.42141153663397,228.85433940542862 109.74241726845503,228.85433940542862 110.73317156732082,229.21194956963882 112.05417729914188,229.56955970730633 113.04493159614503,229.56955970730633 116.01719449087977,228.85433940542862 120.31046311929822,228.1391190001741 121.9617202822119,227.42389849107713 124.27348031289876,225.99345716182142 124.27348031289876,226.35106753278524 124.27348031289876,226.35106753278524 124.27348031289876,226.70867787860334 123.61297744698822,227.0662881974131 124.27348031289876,226.70867787860334 123.61297744698822,225.99345716182142 123.28272601403296,225.99345716182142 123.28272601403296,226.35106753278524 123.94322887994349,226.35106753278524 125.26423461176455,225.27823634073138 126.91549177654088,224.56301541766152 130.21800610236824,223.4901838367805 132.19951470009983,222.41735202400014 134.51127473078668,221.70213068416342 137.15328619256616,220.98690924188122 141.77680625207722,219.55646604532376 149.0423377752304,219.55646604532376 151.35409780591726,218.84124429244548 153.66585783474147,218.1260224347934 162.9128979537636,209.1857404676266 164.23390368372202,204.53678744100034 165.22465798258781,201.31827893247828 165.22465798258781,196.3117059674114 165.22465798258781,193.80841757915914 165.55490941740572,189.15945005835965 165.22465798258781,181.64957019267604 164.8944065514952,179.14627436222509 164.8944065514952,176.6429772619158 164.56415511853993,169.13307833811268 164.56415511853993,165.19931719638407 164.56415511853993,163.7688578213565 164.56415511853993,162.3383980304934 164.56415511853993,160.55032271007076 164.56415511853993,159.47747720591724 164.56415511853993,158.40463146893308 164.23390368372202,158.04701617220417 164.23390368372202,156.9741701236926 164.8944065514952,154.82847732771188 164.8944065514952,152.32516788505018 164.56415511853993,151.25232059275731 163.9036522526294,150.17947306623682 163.9036522526294,147.67616126453504 163.9036522526294,146.96092908782884 163.9036522526294,145.53046442288905" stroke="#4DD2FF" stroke-linecap="round" stroke-linejoin="round" stroke-width="0.5"><title>2020-09-06 10.3km</title></polyline></svg>