<?xml version="1.0" encoding="utf-8" ?>
<svg baseProfile="full" height="200mm" version="1.1" viewBox="0,0,200,200" width="200mm" xmlns="http://www.w3.org/2000/svg" xmlns:ev="http://www.w3.org/2001/xml-events" xmlns:xlink="http://www.w3.org/1999/xlink"><defs /><rect fill="#1a1a1a" height="200" width="200" x="0" y="0" /><text alignment-baseline="middle" fill="#e1ed5e" style="dominant-baseline: central; font-size:9.0px; font-family:Arial;" text-anchor="middle" x="100.0" y="100.0">2024</text><line stroke="#e1ed5e" stroke-width="0.3" x1="100.0" x2="100.0" y1="15.0" y2="10.0" /><path d="M 100.0 14.0 a86.0,86.0 0 0,1 42.35913384403234,11.155469271406648" fill="none" id="id25" stroke="none" /><text fill="#e1ed5e" style="font-size:6.75px; font-family:Arial;" text-anchor="middle"><textPath startOffset="22.145653131862478" xlink:href="#id25">January</textPath></text><path d="M 100.0 79.0 l 0.0 -62.915172539540805 a83.9151725395408,83.9151725395408 0 0,0 1.4405155232369222,0.012365093256764242 l -1.0800225983880674 62.90590184447848" fill="#4dd3ff" stroke="none" /><path d="M 101.80034050326958 79.07731436759882 l 0.672738308707272 -7.818238894471988 a28.847129172062665,28.847129172062665 0 0,0 0.4930117740448677,0.04668872758445779 l -0.8068496461371526 7.805538411382346" fill="#ff4606" stroke="none" /><path d="M 102.15924093988457 79.11130261209362 l 0.8085153142753385 -7.821652239646969 a28.86332886069203,28.86332886069203 0 0,0 0.49241402338454926,0.055176018397603846 l -0.9426652392606845 7.806620460742395" fill="#ff4606" stroke="none" /><path d="M 102.87502721639298 79.19773525538626 l 1.432580604365527 -10.36543961395913 a31.463967965291058,31.463967965291058 0 0,0 0.5344003548182602,0.07853844907137637 l -1.610306064791469 10.33932009158887" fill="#ff6b09" stroke="none" /><path d="M 103.23170211078529 79.25015418208739 l 1.787058306066414 -11.474196274076613 a32.61252588911278,32.61252588911278 0 0,0 0.5524290067153134,0.09090198283111342 l -1.9837648158347978 11.441828292749832" fill="#ff7b0b" stroke="none" /><path d="M 103.58742460773223 79.30868818359171 l 1.9133725118386304 -11.035824189326783 a32.20046471834048,32.20046471834048 0 0,0 0.5438279237671486,0.09910356357166518 l -2.1025351691568326 11.001352451823752" fill="#ff760a" stroke="none" /><path d="M 104.29559338865022 79.4440306129975 l 3.577478814565697 -17.11953118960595 a38.489331114155206,38.489331114155206 0 0,0 0.6455899513140952,0.1407033250972469 l -3.870831182498926 17.055596406374985" fill="#ffcb12" stroke="none" /><path d="M 104.64783097203109 79.52079915486377 l 2.968516206328109 -13.079830133080117 a34.41245856573146,34.41245856573146 0 0,0 0.5749631057844593,0.1356897274217608 l -3.192611465852453 13.02694426201213" fill="#ff940d" stroke="none" /><path d="M 105.3480935250658 79.69241777938227 l 2.727166895936062 -10.355496909132118 a31.708583263594413,31.708583263594413 0 0,0 0.5251826194804312,0.1431408583227656 l -2.9045309163511863 10.30715555666521" fill="#ff6f0a" stroke="none" /><path d="M 105.69591212413111 79.78721728523813 l 3.0856796319445063 -10.949988442347154 a32.376452244814,32.376452244814 0 0,0 0.5336564180546425,0.1553396057037368 l -3.2731960623807534 10.895405142340902" fill="#ff780b" stroke="none" /><path d="M 106.04205211174951 79.88797359093562 l 3.1701049412041375 -10.552248328513985 a32.01814458631185,32.01814458631185 0 0,0 0.525035619350809,0.16265737697942337 l -3.350781193426577 10.496274363727915" fill="#ff730a" stroke="none" /><path d="M 106.72888874123014 80.10723608172694 l 3.967248584007189 -11.728465504741054 a33.381274749524295,33.381274749524295 0 0,0 0.5412443511424953,0.18827288115200908 l -4.167998707194703 11.658634191020454" fill="#ff860c" stroke="none" /><path d="M 107.06938296918511 80.22567764915836 l 4.009254632348886 -11.214598760917118 a32.909716540513244,32.909716540513244 0 0,0 0.5303335758713035,0.19474583494539063 l -4.201177359874314 11.144122076963006" fill="#ff7f0b" stroke="none" /><path d="M 109.06512990194946 81.05736502329252 l 3.604174573229062 -7.531338664912742 a29.34931951957287,29.34931951957287 0 0,0 0.45259411035935365,0.22138645915685548 l -3.732928932850483 7.468358455658666" fill="#ff4d07" stroke="none" /><line stroke="#e1ed5e" stroke-width="0.3" x1="143.13028292997686" x2="145.6673583964461" y1="26.7553504044142" y2="22.446841604673864" /><path d="M 143.63769802327073 25.89364864446614 a86.0,86.0 0 0,1 29.32050498858742,28.57503671076993" fill="none" id="id26" stroke="none" /><text fill="#e1ed5e" style="font-size:6.75px; font-family:Arial;" text-anchor="middle"><textPath startOffset="20.669276256404974" xlink:href="#id26">February</textPath></text><path d="M 115.41159269507618 85.73525988315684 l 5.9473834311407 -5.504809314584711 a29.10396787178636,29.10396787178636 0 0,0 0.33622331049140475,0.36956831588486566 l -6.041004442473983 5.401903423142174" fill="#ff4a06" stroke="none" /><line stroke="#e1ed5e" stroke-width="0.3" x1="172.87174338648825" x2="177.1583165268699" y1="56.24261187166439" y2="53.66864786411523" /><path d="M 173.72905801456457 55.72781907015455 a86.0,86.0 0 0,1 12.242430191666344,42.057860355516425" fill="none" id="id27" stroke="none" /><text fill="#e1ed5e" style="font-size:6.75px; font-family:Arial;" text-anchor="middle"><textPath startOffset="22.145653131862474" xlink:href="#id27">March</textPath></text><path d="M 118.36410011445183 89.81374322990088 l 8.62226580647332 -4.78262549743264 a30.85986684931251,30.85986684931251 0 0,0 0.2529842661124055,0.4654625554350981 l -8.703095422201066 4.633908108522939" fill="#ff6309" stroke="none" /><path d="M 118.8641267826498 90.77261029715802 l 9.386070104414385 -4.591197230040052 a31.44879916593811,31.44879916593811 0 0,0 0.23305168868919,0.48698839589659393 l -9.463501051063487 4.429396332078355" fill="#ff6b09" stroke="none" /><path d="M 119.71291397450082 92.76114493625339 l 12.098263759668146 -4.442650030964461 a33.88817773372668,33.88817773372668 0 0,0 0.19584111844217614,0.5478024634547987 l -12.172745048154265 4.234312611128745" fill="#ff8d0d" stroke="none" /><path d="M 119.83427380445688 93.10060997987247 l 14.845591322411323 -5.164067291927816 a36.71811606737948,36.71811606737948 0 0,0 0.2019751284847768,0.5971035787368322 l -14.932051872468465 4.908462038716823" fill="#ffb310" stroke="none" /><path d="M 120.05942366710727 93.78553927170692 l 15.362138794697216 -4.759229867544872 a37.08246179164348,37.08246179164348 0 0,0 0.18315854287400687,0.6096752201399173 l -15.441573657574851 4.494817043814232" fill="#ffb811" stroke="none" /><path d="M 120.35273937422433 94.82641323984039 l 15.547518249509439 -3.9521183409281253 a37.04196257007008,37.04196257007008 0 0,0 0.15136487765850823,0.6176203542378572 l -15.61307065368424 3.684642162082173" fill="#ffb811" stroke="none" /><path d="M 120.51834098615036 95.52812308129327 l 17.536561067952924 -3.8220118637370937 a38.948224112056025,38.948224112056025 0 0,0 0.13676815263564784,0.6544851209901765 l -17.59958693141294 3.5204102914615127" fill="#ffd113" stroke="none" /><path d="M 120.65975698304385 96.23510406497455 l 15.09269268756336 -2.750391371719992 a36.34125240190188,36.34125240190188 0 0,0 0.10657536484437645,0.6146983831212759 l -15.13768286989997 2.4908999556781235" fill="#ffae10" stroke="none" /><path d="M 120.7213421655516 96.59031103205396 l 10.646991470868391 -1.751958394875971 a31.790170786327742,31.790170786327742 0 0,0 0.08398434475691313,0.539239739643228 l -10.67549730776357 1.5689304733013016" fill="#ff700a" stroke="none" /><path d="M 120.82617615685814 97.30363454192243 l 15.914289799730863 -2.0604234297566846 a37.04711701645215,37.04711701645215 0 0,0 0.07624281464500837,0.6313998777117357 l -15.947314700635536 1.786929875121536" fill="#ffb811" stroke="none" /><path d="M 120.86939407059847 97.66154086499901 l 15.556988645180576 -1.7431930264655666 a36.65434820213846,36.65434820213846 0 0,0 0.06469947585701036,0.6259087382835055 l -15.584620513519253 1.4758797658991298" fill="#ffb310" stroke="none" /><path d="M 120.93736805541906 98.37931529534042 l 10.233069749030971 -0.7921043170312254 a31.2636809058735,31.2636809058735 0 0,0 0.036825696429079464,0.535437543949428 l -10.245159406625117 0.6163233489274632" fill="#ff6809" stroke="none" /><path d="M 120.98066250479742 99.09900007780936 l 18.746526466962997 -0.8050565078303067 a39.76380479959606,39.76380479959606 0 0,0 0.023432834790058747,0.6822214174471257 l -18.757583988749904 0.4831288258190611" fill="#ffdc14" stroke="none" /><line stroke="#e1ed5e" stroke-width="0.3" x1="184.99686870605535" x2="189.99668451229388" y1="99.2704041080226" y2="99.22748670261217" /><path d="M 185.99683186730306 99.26182062694052 a86.0,86.0 0 0,1 -10.086455211305974,41.156179273409016" fill="none" id="id28" stroke="none" /><text fill="#e1ed5e" style="font-size:6.75px; font-family:Arial;" text-anchor="middle"><textPath startOffset="21.40746469413373" xlink:href="#id28">April</textPath></text><path d="M 120.99922638620191 99.81974689727618 l 16.28715600693682 -0.13980564573209459 a37.28775602754648,37.28775602754648 0 0,0 0.0,0.6401174969118409 l -16.28715600693682 -0.13980564573209261" fill="#ffbb11" stroke="none" /><path d="M 120.99922638620191 100.18025310272382 l 16.368004201730656 0.14049963024815007 a37.36860720079666,37.36860720079666 0 0,0 -0.011012294367839248,0.6414109386413113 l -16.36318047576415 -0.42145748485853235" fill="#ffbc11" stroke="none" /><path d="M 120.96210409425399 101.26102812881392 l 22.1613148526675 1.3331696701370586 a43.201378726746555,43.201378726746555 0 0,0 -0.05088718961464241,0.7398885687939549 l -22.13516370188779 -1.713401663085357" fill="#f7ff19" stroke="none" /><path d="M 120.9064616781168 101.97986365728391 l 15.47993817021085 1.4659662391500003 a36.549197495944235,36.549197495944235 0 0,0 -0.06451387180427307,0.6241131874396957 l -15.452491905924912 -1.7314839488726275" fill="#ffb110" stroke="none" /><path d="M 120.86939407059847 102.33845913500097 l 14.872198388909933 1.6664608499146512 a35.96527235580407,35.96527235580407 0 0,0 -0.07401638277718302,0.6129618279673339 l -14.841399919873085 -1.9215163548053937" fill="#ffa90f" stroke="none" /><path d="M 120.77682067341334 103.0534771498775 l 15.048243250102548 2.211573543048606 a36.209887654107426,36.209887654107426 0 0,0 -0.09566050175670707,0.6142090434917871 l -15.008061256207574 -2.4695707684718435" fill="#ffad10" stroke="none" /><path d="M 120.7213421655516 103.40968896794604 l 16.467030988799138 2.7096436827666888 a37.68847741627823,37.68847741627823 0 0,0 -0.11052627429149048,0.6374861788989097 l -16.418089897015413 -2.9919228945861867" fill="#ffc011" stroke="none" /><path d="M 120.51834098615036 104.47187691870673 l 23.58276292984452 5.13975341848973 a45.136357898575454,45.136357898575454 0 0,0 -0.1714948147215362,0.7556377965799806 l -23.49105725356532 -5.543825549008727" fill="#dfff1b" stroke="none" /><path d="M 120.35273937422433 105.17358676015961 l 15.796155222130551 4.015320887081091 a37.29850673000051,37.29850673000051 0 0,0 -0.16306644133760043,0.6191898382790658 l -15.724899299988222 -4.285891229732961" fill="#ffbb11" stroke="none" /><path d="M 120.16314734710363 105.8691983318838 l 15.358712570404613 4.4706973889693975 a36.99616163221798,36.99616163221798 0 0,0 -0.18273228715400816,0.6082563534802148 l -15.279703963246975 -4.733691346040335" fill="#ffb711" stroke="none" /><path d="M 120.05942366710727 106.21446072829308 l 14.670164501346106 4.544854462628814 a36.35804117011777,36.35804117011777 0 0,0 -0.18981543702229198,0.5945941529591432 l -14.589984348546558 -4.7960176492793405" fill="#ffaf10" stroke="none" /><path d="M 119.94978838288452 106.5578916946017 l 13.742440356759676 4.517413104816242 a35.46588013632985,35.46588013632985 0 0,0 -0.19508696154824653,0.576739937136037 l -13.662867973639065 -4.75265471642644" fill="#ffa30f" stroke="none" /><path d="M 119.83427380445688 106.89939002012753 l 3.9504322978338235 1.3741654188891779 a25.182612334204485,25.182612334204485 0 0,0 -0.14553131193944543,0.40707698068919385 l -3.926260815850435 -1.4417773559592932" fill="#ff1001" stroke="none" /><path d="M 119.71291397450082 107.23885506374661 l 14.566744204998425 5.349110242506627 a36.51782900796192,36.51782900796192 0 0,0 -0.22114034969160484,0.5866010506110203 l -14.47277317149238 -5.598379573311806" fill="#ffb110" stroke="none" /><path d="M 119.58574465831526 107.57618678355244 l 13.926249830414578 5.386972604324356 a35.93184208926893,35.93184208926893 0 0,0 -0.2274679380121615,0.5733677968455648 l -13.831723217436291 -5.625241418383485" fill="#ffa90f" stroke="none" /><path d="M 119.4528033332814 107.91128576633889 l 2.903009833881156 1.180628826850515 a24.13390340029828,24.13390340029828 0 0,0 -0.15936898438449543,0.38242754628113673 l -2.882315004960175 -1.2302888825729295" fill="#ff0000" stroke="none" /><path d="M 119.31412917781788 108.2440532568976 l 14.943205024540944 6.378365647079814 a37.24755134576634,37.24755134576634 0 0,0 -0.25606116153152536,0.5859180484513525 l -14.831509980992454 -6.633945765307011" fill="#ffbb11" stroke="none" /><path d="M 119.16976305983485 108.57439118712176 l 14.060661322655628 6.28915496523205 a36.403105758486724,36.403105758486724 0 0,0 -0.2600491138713036,0.5682542452017073 l -13.95062774392927 -6.529598192648446" fill="#ffaf10" stroke="none" /><path d="M 118.8641267826498 109.22738970284198 l 14.33336909940783 7.011169080805488 a36.9562514902311,36.9562514902311 0 0,0 -0.2836481820268807,0.567486372438125 l -14.210901004169218 -7.256187309407359" fill="#ffb710" stroke="none" /><path d="M 118.70294669586154 109.54985784667822 l 14.232149086374314 7.267036731579862 a36.98010921348525,36.98010921348525 0 0,0 -0.29353741972919656,0.5628967066903022 l -14.105303597670169 -7.510279681374667" fill="#ffb711" stroke="none" /><path d="M 118.5362547648365 109.86951160357373 l 13.366168998177473 7.116732139066687 a36.14273258124389,36.14273258124389 0 0,0 -0.29629235673668286,0.5451445642918561 l -13.24203129182545 -7.345131536833146" fill="#ffac0f" stroke="none" /><line stroke="#e1ed5e" stroke-width="0.3" x1="174.33088141563837" x2="178.70328620479359" y1="141.23008692659167" y2="143.65538615756765" /><path d="M 175.20536237346943 141.71514677278685 a86.0,86.0 0 0,1 -30.301960400862466,31.631185727798858" fill="none" id="id29" stroke="none" /><text fill="#e1ed5e" style="font-size:6.75px; font-family:Arial;" text-anchor="middle"><textPath startOffset="22.145653131862474" xlink:href="#id29">May</textPath></text><path d="M 117.423217284605 111.72311816256416 l 12.986464441638745 8.737872843828235 a36.65243369348225,36.65243369348225 0 0,0 -0.3557210551156018,0.5190076502661902 l -12.834553649707823 -8.959515229164468" fill="#ffb310" stroke="none" /><path d="M 117.21940702142032 112.02048342749411 l 13.035372801409533 9.099702593453552 a36.897343531578876,36.897343531578876 0 0,0 -0.3670141889571451,0.5162514192143166 l -12.877243513922428 -9.322131239377374" fill="#ffb610" stroke="none" /><path d="M 116.79662413953412 112.60449989151573 l 11.759670777067843 8.824676185075585 a35.702542860215154,35.702542860215154 0 0,0 -0.37206813849434683,0.4870491368368035 l -11.606450661219192 -9.025246235153265" fill="#ffa60f" stroke="none" /><path d="M 116.35404254752997 113.17365903436017 l 11.917968461116946 9.600271763554005 a36.30369857826109,36.30369857826109 0 0,0 -0.3951107515935089,0.48197087283451717 l -11.75141089028481 -9.803444918087015" fill="#ffae10" stroke="none" /><path d="M 115.6541949942343 113.99807769240083 l 12.025252337431082 10.753054791516512 a37.13179720701472,37.13179720701472 0 0,0 -0.4289647321092779,0.47150738414873417 l -11.838889904479926 -10.957899751222918" fill="#ffb911" stroke="none" /><path d="M 115.41159269507618 114.26474011684316 l 10.886928116635787 10.076778132358665 a35.834643957492766,35.834643957492766 0 0,0 -0.42172967639202474,0.44786230173772845 l -10.712342606507503 -10.262181894040891" fill="#ffa80f" stroke="none" /><path d="M 114.39649973595853 115.28858382429668 l 10.254459578024328 10.889880714539439 a35.958056130869174,35.958056130869174 0 0,0 -0.45302053017377425,0.41930903952503096 l -10.066009276536587 -11.06430750019685" fill="#ffa90f" stroke="none" /><path d="M 113.59037401385872 116.0094264158162 l 9.455149781382863 11.13814266783306 a35.6102046350278,35.6102046350278 0 0,0 -0.469419933748702,0.39160680423165317 l -9.262555513472266 -11.298811655976584" fill="#ffa50f" stroke="none" /><path d="M 113.03279911837588 116.46651593811092 l 9.615248504980274 12.148552380655865 a36.49323493522462,36.49323493522462 0 0,0 -0.49455294050738613,0.38456735781526385 l -9.405285619837656 -12.311820790091922" fill="#ffb010" stroke="none" /><path d="M 112.45986205192187 116.90419585922612 l 12.207744016452185 16.56214932344079 a41.5750772582553,41.5750772582553 0 0,0 -0.5781291454561875,0.4185209172618998 l -11.92163386062203 -16.769271012075766" fill="#fff316" stroke="none" /><path d="M 111.5731344415666 117.5232005979908 l 8.538103700818679 12.927777226757993 a36.49279312553473,36.49279312553473 0 0,0 -0.5256949637879469,0.34074912426098225 l -8.314923104773722 -13.07244019272287" fill="#ffb010" stroke="none" /><line stroke="#e1ed5e" stroke-width="0.3" x1="143.1302829299769" x2="145.66735839644613" y1="173.24464959558577" y2="177.55315839532614" /><path d="M 143.63769802327073 174.10635135553383 a86.0,86.0 0 0,1 -40.68552437913181,11.842963189579606" fill="none" id="id30" stroke="none" /><text fill="#e1ed5e" style="font-size:6.75px; font-family:Arial;" text-anchor="middle"><textPath startOffset="21.407464694133747" xlink:href="#id30">June</textPath></text><path d="M 110.65571695917076 118.09573695890943 l 7.650696472398498 12.992555212141577 a36.07778655682982,36.07778655682982 0 0,0 -0.5363693669508156,0.3096729983941237 l -7.426534637587284 -13.121975107811872" fill="#ffab0f" stroke="none" /><path d="M 110.02825361518725 118.45085714620011 l 7.5400025931097785 13.872755523130952 a36.789394697348676,36.789394697348676 0 0,0 -0.5574665168161526,0.2968195207781717 l -7.300747260507072 -14.000145511631692" fill="#ffb410" stroke="none" /><path d="M 109.71004243097381 118.62028667847754 l 7.305445821898074 14.00915562262748 a36.79955632021618,36.79955632021618 0 0,0 -0.5626350374971101,0.2872854590793841 l -7.063883562687382 -14.1324990333797" fill="#ffb510" stroke="none" /><path d="M 108.07796709384702 119.3841803445677 l 6.358746469377545 15.258676706133613 a37.53060408709028,37.53060408709028 0 0,0 -0.5968179906529336,0.24272068110972353 l -6.09587401753417 -15.365584643822627" fill="#ffbe11" stroke="none" /><path d="M 104.64783097203109 120.47920084513623 l 2.638040046107181 11.62369119420295 a32.91928908379423,32.91928908379423 0 0,0 -0.5521624206424639,0.12034122963035583 l -2.4381152088455815 -11.667263881967024" fill="#ff800b" stroke="none" /><path d="M 100.72087961077811 120.9876233191556 l 0.51635071053509 15.032987549185211 a36.041852702051955,36.041852702051955 0 0,0 -0.6185239928591862,0.01593098400040414 l -0.25821340360515993 -15.03963625053566" fill="#ffaa0f" stroke="none" /><line stroke="#e1ed5e" stroke-width="0.3" x1="101.45913802915013" x2="101.54496967792366" y1="184.9874750549273" y2="189.98673829345242" /><path d="M 101.47630435890484 185.9873277026323 a86.0,86.0 0 0,1 -42.54439059252881,-10.42667462771756" fill="none" id="id31" stroke="none" /><text fill="#e1ed5e" style="font-size:6.75px; font-family:Arial;" text-anchor="middle"><textPath startOffset="22.145653131862474" xlink:href="#id31">July</textPath></text><path d="M 99.63950707515114 120.99690560180557 l -0.28271558993875584 16.466765766878186 a37.46919254019534,37.46919254019534 0 0,0 -0.6430189582860096,-0.016561887420170826 l 0.5653478622955094 -16.459486162107968" fill="#ffbd11" stroke="none" /><path d="M 98.55909050195518 120.95050786540614 l -1.0375999447462254 15.086475474724493 a36.12211479571561,36.12211479571561 0 0,0 -0.6182575253270657,-0.047857042594181894 l 1.2964264648485273 -15.066440665135257" fill="#ffab0f" stroke="none" /><path d="M 98.19965949673042 120.92268563240118 l -1.2923484212761145 15.019047617261329 a36.07454661910394,36.07454661910394 0 0,0 -0.6165319301087632,-0.058386214787131116 l 1.549979914769893 -14.994649646969014" fill="#ffab0f" stroke="none" /><path d="M 96.05791012581884 120.62667999033965 l -2.8965909408939092 15.15618778558311 a36.43049795926001,36.43049795926001 0 0,0 -0.6132528124978892,-0.12266773764626995 l 3.1563402389227564 -15.104230651273978" fill="#ffb010" stroke="none" /><path d="M 94.6519064749342 120.30758222061772 l -2.849584487436125 10.820336443629012 a32.189272206196556,32.189272206196556 0 0,0 -0.5331441696995735,-0.14531081423843145 l 3.0349100580703934 -10.769825135246435" fill="#ff750a" stroke="none" /><path d="M 93.61358852112213 120.00534299687104 l -4.69438999104737 14.70510978545372 a36.4362414852286,36.4362414852286 0 0,0 -0.5942182968698478,-0.19533135685621303 l 4.946131025564961 -14.622357507195485" fill="#ffb010" stroke="none" /><path d="M 93.27111125876986 119.89276391827306 l -4.84160804985871 14.313353902035603 a36.11003866419191,36.11003866419191 0 0,0 -0.5854885588756399,-0.20366331330455678 l 5.086602380779372 -14.228132156162456" fill="#ffab0f" stroke="none" /><path d="M 92.59220618246901 119.65005319985036 l -5.355553050659118 14.20624074485215 a36.18220091354088,36.18220091354088 0 0,0 -0.5793075976744975,-0.22408862372509608 l 5.598632910827144 -14.112212232989014" fill="#ffac0f" stroke="none" /><path d="M 92.25597844496254 119.51999308798841 l -5.657991203709491 14.261833906759342 a36.34316691055808,36.34316691055808 0 0,0 -0.5779351645710504,-0.2350412001295055 l 5.901980829470983 -14.162605450050547" fill="#ffae10" stroke="none" /><path d="M 91.26138138417905 119.09545874513695 l -7.269469436441911 15.885102648980817 a38.46944967811008,38.46944967811008 0 0,0 -0.5981290233836057,-0.2799545842484179 l 7.541087173697006 -15.757971833161871" fill="#ffcb12" stroke="none" /><path d="M 90.6110303473126 118.78422872680471 l -6.725711569193892 13.455928513955016 a36.043178131121635,36.043178131121635 0 0,0 -0.5510706352776893,-0.28138059290651973 l 6.955709426185162 -13.33848996937566" fill="#ffaa0f" stroke="none" /><path d="M 90.28995756902619 118.62028667847754 l -7.68514405836521 14.737277056142297 a37.62073326382817,37.62073326382817 0 0,0 -0.5700637182314593,-0.30352682099163053 l 7.936996592383231 -14.603179767428093" fill="#ffbf11" stroke="none" /><path d="M 89.97174638481275 118.45085714620012 l -7.176906044261438 13.204698769666622 a36.02904022104511,36.02904022104511 0 0,0 -0.5408744916591433,-0.30001396300933303 l 7.402524724076684 -13.07955189122414" fill="#ffaa0f" stroke="none" /><line stroke="#e1ed5e" stroke-width="0.3" x1="58.13341422392154" x2="55.67067388415222" y1="173.97424548756322" y2="178.32567169271397" /><path d="M 57.64086615596768 174.84453072859336 a86.0,86.0 0 0,1 -31.369924170532247,-30.572349798747897" fill="none" id="id32" stroke="none" /><text fill="#e1ed5e" style="font-size:6.75px; font-family:Arial;" text-anchor="middle"><textPath startOffset="22.145653131862474" xlink:href="#id32">August</textPath></text><path d="M 89.34428304082925 118.09573695890944 l -7.603394301440425 12.912225784612467 a35.984564712262674,35.984564712262674 0 0,0 -0.5296023915285667,-0.3180110194002466 l 7.8239294495264184 -12.7798007646763" fill="#ffaa0f" stroke="none" /><path d="M 89.03521579738668 117.91015095944536 l -7.812856654307481 12.761714185839033 a35.963357847147876,35.963357847147876 0 0,0 -0.523756422801419,-0.3268627446856263 l 8.030777205898612 -12.625715644311859" fill="#ffa90f" stroke="none" /><path d="M 88.72937992617639 117.7192867562869 l -8.36550818830086 13.151968345986582 a36.587045859378286,36.587045859378286 0 0,0 -0.5270527164635055,-0.3416292031413769 l 8.590046537021376 -13.006425301141311" fill="#ffb210" stroke="none" /><path d="M 88.1277618465304 117.32195027204791 l -8.468363296594788 12.355595129835041 a35.97911572608734,35.97911572608734 0 0,0 -0.5064572963742187,-0.3535465263250158 l 8.679215684142772 -12.208403787704897" fill="#ffaa0f" stroke="none" /><path d="M 87.83215693770417 117.11559508785305 l -8.710702928395653 12.252694540002203 a36.033458317944024,36.033458317944024 0 0,0 -0.5010692424161076,-0.3627354901511508 l 8.919753181185714 -12.101358278477987" fill="#ffaa0f" stroke="none" /><path d="M 87.2517909369889 116.68781488649013 l -9.180888341187881 12.018077549089947 a36.12358749468192,36.12358749468192 0 0,0 -0.4895435126231286,-0.38067199639320837 l 9.385841798446238 -11.858704501075945" fill="#ffab0f" stroke="none" /><path d="M 86.96720088162412 116.46651593811092 l -9.36326671616978 11.830181622089395 a36.08721183021417,36.08721183021417 0 0,0 -0.482450329588529,-0.38862783464959777 l 9.564967816113572 -11.667705493646386" fill="#ffab0f" stroke="none" /><path d="M 86.40962598614128 116.0094264158162 l -6.908157908252178 8.137792645605085 a31.674563917472756,31.674563917472756 0 0,0 -0.41149861934520854,-0.3554427066082688 l 7.046836007360249 -8.018005806532095" fill="#ff6e0a" stroke="none" /><path d="M 86.13680546590413 115.77377054828092 l -9.966660322152 11.340229892008393 a36.09752072297832,36.09752072297832 0 0,0 -0.4619364887253519,-0.4130664566599491 l 10.159861837700722 -11.167467905465061" fill="#ffab0f" stroke="none" /><path d="M 85.60350026404147 115.28858382429668 l -10.286262143443672 10.923653936930918 a36.0044461483078,36.0044461483078 0 0,0 -0.44633085540881545,-0.4275748630692313 l 10.472265484717802 -10.745466943556105" fill="#ffaa0f" stroke="none" /><path d="M 81.99639281039703 110.81064883170644 l -14.374444339998194 8.631440814836939 a37.766825001285696,37.766825001285696 0 0,0 -0.32897834179349694,-0.5586771459005245 l 14.520496391921462 -8.383412500642855" fill="#ffc112" stroke="none" /><line stroke="#e1ed5e" stroke-width="0.3" x1="26.387840678322732" x2="22.057713659400548" y1="142.50000000000003" y2="145.00000000000006" /><path d="M 25.521815274538298 143.00000000000003 a86.0,86.0 0 0,1 -11.493303480769221,-40.785679425670985" fill="none" id="id33" stroke="none" /><text fill="#e1ed5e" style="font-size:6.75px; font-family:Arial;" text-anchor="middle"><textPath startOffset="21.40746469413373" xlink:href="#id33">September</textPath></text><path d="M 81.29705330413844 109.54985784667822 l -13.325826567626134 6.804261995703417 a35.96247422776809,35.96247422776809 0 0,0 -0.27602070081677776,-0.5522263005708217 l 13.440667181654648 -6.574503838968843" fill="#ffa90f" stroke="none" /><path d="M 80.5471966667186 107.91128576633889 l -13.856551591015533 5.635338901771031 a35.95864521045569,35.95864521045569 0 0,0 -0.22763761622385728,-0.5737954967810478 l 13.951247882205514 -5.396642387776418" fill="#ffa90f" stroke="none" /><path d="M 80.28708602549918 107.23885506374661 l -14.057177733140932 5.16199037580947 a35.974992168981686,35.974992168981686 0 0,0 -0.20790090153800433,-0.5815358231352085 l 14.14371880472288 -4.91991959629334" fill="#ffa90f" stroke="none" /><path d="M 79.83685265289637 105.86919833188381 l -14.421929801628435 4.198013577797017 a36.020498567040526,36.020498567040526 0 0,0 -0.16772088886242054,-0.5951822657060267 l 14.49186918256543 -3.9498233881879945" fill="#ffaa0f" stroke="none" /><path d="M 79.56144815229197 104.8234425847677 l -10.547985224093463 2.4892957922113403 a31.837738962939415,31.837738962939415 0 0,0 -0.12096694103832625,-0.533002662113391 l 10.589163026689455 -2.307858796158923" fill="#ff710a" stroke="none" /><path d="M 79.2786578344484 103.40968896794605 l -23.148211406663908 3.80902937803902 a44.45950545366141,44.45950545366141 0 0,0 -0.11745462013522344,-0.7541429175274926 l 23.2101875189374 -3.411098278580077" fill="#e7ff1a" stroke="none" /><path d="M 79.13060592940153 102.33845913500099 l -19.136367849628307 2.1442699321944962 a40.25612806403201,40.25612806403201 0 0,0 -0.0710570645373965,-0.6874126416267167 l 19.170357306647368 -1.8154527682848483" fill="#ffe215" stroke="none" /><path d="M 79.06263194458094 101.62068470465958 l -15.156302049046873 1.1731936337496458 a36.20164053989612,36.20164053989612 0 0,0 -0.042642151727770874,-0.6200075274559214 l 15.174208161939712 -0.9128426821393812" fill="#ffad10" stroke="none" /><line stroke="#e1ed5e" stroke-width="0.3" x1="15.003131293944662" x2="10.003315487706104" y1="100.72959589197737" y2="100.7725132973878" /><path d="M 14.003168132696942 100.73817937305945 a86.0,86.0 0 0,1 10.791469493833604,-42.45332614584628" fill="none" id="id34" stroke="none" /><text fill="#e1ed5e" style="font-size:6.75px; font-family:Arial;" text-anchor="middle"><textPath startOffset="22.145653131862435" xlink:href="#id34">October</textPath></text><path d="M 79.00077361379809 100.18025310272382 l -14.96619369855671 0.12846677303803666 a35.96674505477037,35.96674505477037 0 0,0 0.0,-0.6174397515237029 l 14.96619369855671 0.12846677303803114" fill="#ffa90f" stroke="none" /><path d="M 79.03789590574601 98.7389718711861 l -14.979868691181412 -0.9011517021660342 a36.006949736550524,36.006949736550524 0 0,0 0.04241282414337673,-0.6166731547092901 l 14.962191905872972 1.1581682810296492" fill="#ffaa0f" stroke="none" /><path d="M 79.0935383218832 98.0201363427161 l -14.72209078567148 -1.3941973039031619 a35.787959400260874,35.787959400260874 0 0,0 0.06317019204433443,-0.6111143046502986 l 14.695988201145482 1.6467161308363731" fill="#ffa70f" stroke="none" /><path d="M 79.13060592940154 97.66154086499901 l -15.173248518670286 -1.7001941448847873 a36.26820653317313,36.26820653317313 0 0,0 0.07463982006986715,-0.6181247830890191 l 15.141826612340752 1.9604126048972428" fill="#ffad10" stroke="none" /><path d="M 79.17382384314186 97.30363454192245 l -19.170494519500696 -2.4820043222204697 a40.33049936183045,40.33049936183045 0 0,0 0.0947872044558582,-0.6858329932494948 l 19.12506279848963 2.8107256236700313" fill="#ffe315" stroke="none" /><path d="M 79.2786578344484 96.59031103205396 l -15.09655852385182 -2.4841329601855464 a36.299575021155434,36.299575021155434 0 0,0 0.10645314060153284,-0.6139934261683826 l 15.051690565758054 2.7429194192745214" fill="#ffae10" stroke="none" /><path d="M 79.407916724674 95.88100663000787 l -30.781550896140462 -6.157172266839072 a52.39131481628665,52.39131481628665 0 0,0 0.18397407083210696,-0.880382528294979 l 30.67131911448399 6.68467124641946" fill="#8aff24" stroke="none" /><path d="M 79.56144815229197 95.17655741523228 l -15.943452166933623 -3.7626112996268137 a37.38141968180352,37.38141968180352 0 0,0 0.1527520040584711,-0.6232803033077607 l 15.876512636358854 4.0357474275426926" fill="#ffbc11" stroke="none" /><path d="M 79.64726062577567 94.8264132398404 l -18.315781213910434 -4.65579996127073 a39.89826221521976,39.89826221521976 0 0,0 0.17443238899850116,-0.6623481928510618 l 18.233159344107207 4.969528658494576" fill="#ffdd14" stroke="none" /><path d="M 79.83685265289637 94.1308016681162 l -14.37823683928099 -4.185295193245727 a35.974992168981686,35.974992168981686 0 0,0 0.17768850360035168,-0.5914672384317892 l 14.30427201567701 4.43150003526824" fill="#ffa90f" stroke="none" /><path d="M 79.94057633289273 93.78553927170692 l -14.104655930646471 -4.369658461863914 a35.76601618566293,35.76601618566293 0 0,0 0.18672463571573214,-0.5849122618881688 l 14.027566579153481 4.611139757443474" fill="#ffa70f" stroke="none" /><path d="M 80.05021161711548 93.44210830539832 l -29.84297810235526 -9.809979659108462 a52.41399438036776,52.41399438036776 0 0,0 0.2883133554550768,-0.8523472054769663 l 29.67017932532782 10.32082853905959" fill="#8aff24" stroke="none" /><path d="M 80.28708602549916 92.7611449362534 l -14.042385651619298 -5.156558518583043 a35.95923429004222,35.95923429004222 0 0,0 0.21775767786767405,-0.577628111712458 l 13.951797289937188 5.396854910489646" fill="#ffa90f" stroke="none" /><path d="M 80.41425534168474 92.42381321644754 l -13.773102425211823 -5.327731898010963 a35.76763615452586,35.76763615452586 0 0,0 0.22642842589104625,-0.5707475472407759 l 13.679615324354646 5.5633804624653225" fill="#ffa70f" stroke="none" /><path d="M 80.68587082218212 91.75594674310238 l -13.853532833990917 -5.913249384847711 a36.0627650273735,36.0627650273735 0 0,0 0.24791625670170606,-0.5672809122524675 l 13.749982695272234 6.150192366876045" fill="#ffab0f" stroke="none" /><path d="M 80.83023694016515 91.42560881287825 l -28.743889812517025 -12.856776305620528 a52.48821840826955,52.48821840826955 0 0,0 0.374954674920083,-0.819343633245403 l 28.518950672741898 13.348308921080601" fill="#89ff24" stroke="none" /><path d="M 81.1358732173502 90.77261029715801 l -13.270937400908155 -6.491480497937965 a35.77352695039109,35.77352695039109 0 0,0 0.27457048469457385,-0.5493248968651406 l 13.157547003001836 6.718337250966876" fill="#ffa70f" stroke="none" /><path d="M 81.29705330413844 90.45014215332179 l -10.791402540162872 -5.5101670287945135 a33.11677801517581,33.11677801517581 0 0,0 0.2628714131751387,-0.5040905956583663 l 10.695223058012793 5.694603867557367" fill="#ff820c" stroke="none" /><path d="M 81.46374523516351 90.13048839642627 l -13.302732894668424 -7.082955987000865 a36.07086487168818,36.07086487168818 0 0,0 0.2957031967170195,-0.5440605762141603 l 13.179184348336054 7.310271396689645" fill="#ffab0f" stroke="none" /><line stroke="#e1ed5e" stroke-width="0.3" x1="26.387840678322718" x2="22.05771365940052" y1="57.49999999999999" y2="54.99999999999999" /><path d="M 25.521815274538284 56.99999999999999 a86.0,86.0 0 0,1 29.574782752854787,-30.34633250058573" fill="none" id="id35" stroke="none" /><text fill="#e1ed5e" style="font-size:6.75px; font-family:Arial;" text-anchor="middle"><textPath startOffset="21.40746469413373" xlink:href="#id35">November</textPath></text><path d="M 81.81346652052679 89.5 l -12.978544179131672 -7.493165975511124 a35.986331951022244,35.986331951022244 0 0,0 0.3134688661827942,-0.5323386656183207 l 12.8480016028191 7.714855809423017" fill="#ffaa0f" stroke="none" /><path d="M 81.99639281039701 89.18935116829357 l -14.038980456401434 -8.43000439139732 a37.375528885938294,37.375528885938294 0 0,0 0.33501294675030585,-0.5472184713162397 l 13.892199545195735 8.669759978838103" fill="#ffbc11" stroke="none" /><path d="M 82.18462484594161 88.88188828441811 l -21.78769248958293 -13.597131524269086 a46.682397273403055,46.682397273403055 0 0,0 0.4301056183283469,-0.6761974706565171 l 21.551069179628694 13.969142669604274" fill="#ccff1d" stroke="none" /><path d="M 82.576782715395 88.27688183743585 l -12.487943733706363 -8.402445863259015 a36.05157251522958,36.05157251522958 0 0,0 0.3498895467881312,-0.5104993053396714 l 12.341864450102918 8.61557990366872" fill="#ffab0f" stroke="none" /><path d="M 82.78059297857968 87.97951657250589 l -13.025470714554725 -9.092790167794083 a36.88526740005517,36.88526740005517 0 0,0 0.36689406888362613,-0.5160824552878633 l 12.867461547141128 9.315049849791468" fill="#ffb610" stroke="none" /><path d="M 83.42222388311158 87.10902102172516 l -29.2528269109385 -22.74717514008754 a58.0561986600777,58.0561986600777 0 0,0 0.6185295499810366,-0.7814918806348131 l 28.8580309303159 23.245986964637034" fill="#4dff2c" stroke="none" /><path d="M 83.8745106332314 86.54754324733833 l -7.997984287457113 -6.67220295076508 a31.415663439196233,31.415663439196233 0 0,0 0.3490211938759648,-0.4111460887845775 l 7.882268530074034 6.808515821999215" fill="#ff6b09" stroke="none" /><path d="M 84.58840730492382 85.73525988315684 l -11.020405955871423 -10.200323227646743 a36.016522279831506,36.016522279831506 0 0,0 0.42387016050323595,-0.4501354216876459 l 10.843679961631917 10.3880001092789" fill="#ffaa0f" stroke="none" /><path d="M 85.08716467003674 85.21462403516908 l -22.228172537472307 -22.038189298404035 a52.30133290944538,52.30133290944538 0 0,0 0.6375982767995229,-0.6321487516239129 l 21.846582340542806 22.41651806025662" fill="#8bff24" stroke="none" /><path d="M 86.40962598614128 83.9905735841838 l -9.551600753378374 -11.251761670321258 a35.759241770417916,35.759241770417916 0 0,0 0.47138456728386735,-0.3932457714013012 l 9.357041851932596 11.414069625634442" fill="#ffa70f" stroke="none" /><path d="M 87.25179093698888 83.31218511350988 l -22.713921671200417 -29.733252594282312 a58.41642082723605,58.41642082723605 0 0,0 0.8021047782888187,-0.6019143791596578 l 22.200163904000846 30.11878600070597" fill="#49ff2c" stroke="none" /><line stroke="#e1ed5e" stroke-width="0.3" x1="56.869717070023135" x2="54.33264160355391" y1="26.7553504044142" y2="22.446841604673864" /><path d="M 56.362301976729285 25.89364864446614 a86.0,86.0 0 0,1 42.16139366436587,-11.88097634709845" fill="none" id="id36" stroke="none" /><text fill="#e1ed5e" style="font-size:6.75px; font-family:Arial;" text-anchor="middle"><textPath startOffset="22.145653131862474" xlink:href="#id36">December</textPath></text><path d="M 89.34428304082924 81.90426304109057 l -7.52455734984366 -12.778343405397276 a35.829194971317435,35.829194971317435 0 0,0 0.5326735495496949,-0.30753921722270816 l 7.304091332433566 12.905629519896157" fill="#ffa80f" stroke="none" /><path d="M 89.97174638481275 81.54914285379989 l -5.746743073628122 -10.573359986313777 a33.03415960316607,33.03415960316607 0 0,0 0.5005637641342473,-0.26652201003534376 l 5.564390493707313 10.670452464071698" fill="#ff810b" stroke="none" /><path d="M 90.28995756902619 81.37971332152246 l -5.512978698776773 -10.571863568393129 a32.922970831209994,32.922970831209994 0 0,0 0.5033652244866325,-0.2570218702421004 l 5.330686252576558 10.664943390308062" fill="#ff800b" stroke="none" /><path d="M 90.93487009805054 81.0573650232925 l -3.2125049160225805 -6.712899720500154 a28.441989686432002,28.441989686432002 0 0,0 0.4422205063128478,-0.2069815259767758 l 3.0967956958382103 6.767057478047473" fill="#ff4006" stroke="none" /><path d="M 91.5904679813234 80.7573450057729 l -25.22859605602979 -57.7279649826813 a84.0,84.0 0 0,0 1.3262596993182754,-0.5661014013623844 l 24.233901281541083 58.15254103370309" fill="#4dd2ff" stroke="none" /><path d="M 92.93061703081487 80.22567764915836 l -2.50758129472248 -7.014151172587954 a28.448911371573637,28.448911371573637 0 0,0 0.461270957791622,-0.16045398355078883 l 2.3868045648858534 7.056163588707329" fill="#ff4006" stroke="none" /><path d="M 93.61358852112211 79.99465700312896 l -3.6908037931444873 -11.561390314452655 a33.13621764153105,33.13621764153105 0 0,0 0.5433698540983819,-0.16833736977048938 l 3.4917933061744892 11.623044272029787" fill="#ff830c" stroke="none" /><path d="M 93.95794788825049 79.88797359093562 l -3.8031852706327505 -12.659566846963617 a34.218504111869024,34.218504111869024 0 0,0 0.5640186947429373,-0.1641776219431396 l 3.585306563508189 12.722988163209278" fill="#ff920d" stroke="none" /><path d="M 94.6519064749342 79.69241777938228 l -3.8314005751470797 -14.548452048426727 a36.044503560191316,36.044503560191316 0 0,0 0.5997027977261838,-0.15244210606244898 l 3.581092484195518 14.612079386324439" fill="#ffaa0f" stroke="none" /><path d="M 95.00130118170881 79.60360301121753 l -3.545651741590856 -14.467469062314349 a35.895613694697815,35.895613694697815 0 0,0 0.5997436508210933,-0.14153786857648096 l 3.2967759370298566 14.526203074537062" fill="#ffa80f" stroke="none" /><path d="M 95.70440661134978 79.44403061299748 l -3.0612677536059367 -14.649274392405896 a35.965714165493964,35.965714165493964 0 0,0 0.6054288741852595,-0.12110273086157047 l 2.8093423938897004 14.699666519930332" fill="#ffa90f" stroke="none" /></svg>