<?xml version="1.0" encoding="utf-8" ?>
<svg baseProfile="full" height="200mm" version="1.1" viewBox="0,0,200,200" width="200mm" xmlns="http://www.w3.org/2000/svg" xmlns:ev="http://www.w3.org/2001/xml-events" xmlns:xlink="http://www.w3.org/1999/xlink"><defs /><rect fill="#1a1a1a" height="200" width="200" x="0" y="0" /><text alignment-baseline="middle" fill="#e1ed5e" style="dominant-baseline: central; font-size:9.0px; font-family:Arial;" text-anchor="middle" x="100.0" y="100.0">2025</text><line stroke="#e1ed5e" stroke-width="0.3" x1="100.0" x2="100.0" y1="15.0" y2="10.0" /><path d="M 100.0 14.0 a86.0,86.0 0 0,1 42.46469731375804,11.215312516191453" fill="none" id="id37" stroke="none" /><text fill="#e1ed5e" style="font-size:6.75px; font-family:Arial;" text-anchor="middle"><textPath startOffset="22.20632615414155" xlink:href="#id37">January</textPath></text><path d="M 101.80526077348638 79.07773832637324 l 2.727614774382585 -31.61198143372474 a52.72943826359975,52.72943826359975 0 0,0 0.9036190425578939,0.08580951622281181 l -3.2713589440307236 31.56034637298675" fill="#9eff22" stroke="none" /><path d="M 103.59715602781102 79.31037775812273 l 1.1804039603337888 -6.789283490431056 a27.891133711009488,27.891133711009488 0 0,0 0.4722963440764918,0.08630913803772101 l -1.2970954255131817 6.767958871042596" fill="#ff0000" stroke="none" /><line stroke="#e1ed5e" stroke-width="0.3" x1="143.23703022742887" x2="145.7803849466894" y1="26.81831364943548" y2="22.513508569990506" /><path d="M 143.74570117128098 25.957352633546492 a86.0,86.0 0 0,1 28.547481713284135,27.462654790039103" fill="none" id="id38" stroke="none" /><text fill="#e1ed5e" style="font-size:6.75px; font-family:Arial;" text-anchor="middle"><textPath startOffset="19.985693538727396" xlink:href="#id38">February</textPath></text><path d="M 111.60114157652 82.49532879139004 l 20.97021975816797 -31.64143801002889 a58.95959320182922,58.95959320182922 0 0,0 0.8411436829984763,0.5679439695450649 l -21.51176813557299 31.275782128185153" fill="#55ff2b" stroke="none" /><path d="M 112.48926042617603 83.11751280151076 l 26.825538733957522 -36.26169995778356 a66.10565831683843,66.10565831683843 0 0,0 0.9089649093962494,0.6846135249384366 l -27.445749797112153 35.79456984333928" fill="#34ff60" stroke="none" /><path d="M 113.6212207817346 84.01681056812373 l 24.32447184346269 -28.542422704559876 a58.50133096716947,58.50133096716947 0 0,0 0.7608131559310513,0.6597696716460748 l -24.812178798040502 28.11948803949413" fill="#5aff2a" stroke="none" /><path d="M 114.16331599549186 84.49514656593476 l 34.84186506838769 -38.142057370376996 a72.66015971606035,72.66015971606035 0 0,0 0.9161827359533353,0.8514920038669811 l -35.493255688135875 37.536660780435376" fill="#3dffb1" stroke="none" /><path d="M 114.68862486808459 84.99185889309783 l 43.97521380546386 -44.931790411001025 a83.87038427411099,83.87038427411099 0 0,0 1.0230757084398485,1.0186822962154183 l -44.742125314071025 44.168172264135485" fill="#4dd3ff" stroke="none" /><path d="M 114.94478906791727 85.2469230424477 l 36.65631492764597 -36.186086846068825 a72.50842945874001,72.50842945874001 0 0,0 0.8691887084536711,0.8957753679060002 l -37.273767899802756 35.54974728261271" fill="#3dffaf" stroke="none" /><path d="M 115.4437574822437 85.77008943001954 l 28.76589382534202 -26.504954967779074 a60.11507746911473,60.11507746911473 0 0,0 0.6946336115590649,0.7670317833773536 l -29.21787107751712 26.00587039713217" fill="#48ff2c" stroke="none" /><path d="M 115.68641384162765 86.03803664274999 l 46.21035167025547 -41.13032100642308 a82.863558801447,82.863558801447 0 0,0 0.9391524384590378,1.0736135860731446 l -46.91149597229235 40.32879186414699" fill="#4bddff" stroke="none" /><path d="M 116.15771136456269 86.58626213691792 l 34.74797305205651 -28.846919670565658 a66.16155893795644,66.16155893795644 0 0,0 0.7199055230427903,0.8825190486632498 l -35.23937706717571 28.24451645229431" fill="#35ff61" stroke="none" /><path d="M 116.38621287248628 86.86637796730983 l 48.10123681368032 -38.55335387937902 a82.64487065729301,82.64487065729301 0 0,0 0.8801518134449152,1.1177034222589797 l -48.7577427077192 37.719658063167" fill="#4be0ff" stroke="none" /><line stroke="#e1ed5e" stroke-width="0.3" x1="172.23445277983987" x2="176.4835382374775" y1="55.19839476539836" y2="52.563006222186495" /><path d="M 173.08426987136738 54.67131705675599 a86.0,86.0 0 0,1 12.851231095245387,41.99856678651699" fill="none" id="id39" stroke="none" /><text fill="#e1ed5e" style="font-size:6.75px; font-family:Arial;" text-anchor="middle"><textPath startOffset="22.20632615414155" xlink:href="#id39">March</textPath></text><path d="M 118.03404312379186 89.2402003453031 l 39.35285399188623 -23.479417337902216 a66.8249948808955,66.8249948808955 0 0,0 0.5808693485274942,0.9928940081992834 l -39.75118301488405 22.79854391734904" fill="#35ff69" stroke="none" /><path d="M 119.196687751892 91.48605970444005 l 35.769664082639956 -15.864235972782144 a60.12982049006893,60.12982049006893 0 0,0 0.411486372376897,0.9497672805909468 l -36.03744116485954 15.246169547604595" fill="#48ff2c" stroke="none" /><path d="M 119.61058180528143 92.48833698450437 l 58.70955812708218 -22.48818626689212 a83.86915568903146,83.86915568903146 0 0,0 0.5047941164445899,1.3525972642266486 l -59.0879568320284 21.47426586563614" fill="#4dd3ff" stroke="none" /><path d="M 120.87857604477298 97.74499172005257 l 30.704985831809484 -3.3163179872955624 a51.88355743635246,51.88355743635246 0 0,0 0.08825856197417566,0.8887516744741836 l -30.75752151946589 2.7872907821169437" fill="#a8ff21" stroke="none" /><line stroke="#e1ed5e" stroke-width="0.3" x1="184.98032266829074" x2="189.97916517819016" y1="98.17113171792111" y2="98.06355123074" /><path d="M 185.9800911702706 98.14961562048488 a86.0,86.0 0 0,1 -9.607161424134198,41.387399972396054" fill="none" id="id40" stroke="none" /><text fill="#e1ed5e" style="font-size:6.75px; font-family:Arial;" text-anchor="middle"><textPath startOffset="21.466115282336823" xlink:href="#id40">April</textPath></text><path d="M 120.5718875245553 104.21870165774334 l 30.92372503423015 6.341565396456055 a52.56726503310354,52.56726503310354 0 0,0 -0.18940726858841664,0.8848477019185591 l -30.80998372691729 -6.872926917790783" fill="#a0ff22" stroke="none" /><path d="M 120.41448212921028 104.9243191809786 l 30.786242139180363 7.426163530217464 a52.669237594703425,52.669237594703425 0 0,0 -0.22017919740572303,0.8795064449822168 l -30.65385162747958 -7.954997814597076" fill="#9fff22" stroke="none" /><path d="M 120.23288151984713 105.62410040840565 l 29.798603277043878 8.283068167821057 a51.928400791754825,51.928400791754825 0 0,0 -0.2468017501784208,0.8591492697189124 l -29.651608889979357 -8.79477491304455" fill="#a8ff21" stroke="none" /><line stroke="#e1ed5e" stroke-width="0.3" x1="174.80103733775053" x2="179.2010983576182" y1="140.37084112569926" y2="142.7455964860345" /><path d="M 175.68104954172406 140.8457921977663 a86.0,86.0 0 0,1 -30.038265399797805,32.042727171017184" fill="none" id="id41" stroke="none" /><text fill="#e1ed5e" style="font-size:6.75px; font-family:Arial;" text-anchor="middle"><textPath startOffset="22.206326154141568" xlink:href="#id41">May</textPath></text><path d="M 116.498646956653 112.99209946851258 l 35.50723365235551 27.960687483957418 a66.1947307351034,66.1947307351034 0 0,0 -0.7126401397885196,0.8891281478169046 l -35.020675600512135 -28.567743465352574" fill="#35ff61" stroke="none" /><path d="M 116.0416608686014 113.55231037782055 l 24.089942490850643 20.35165686982381 a52.53593611357586,52.53593611357586 0 0,0 -0.5895469934226276,0.6857763431294313 l -23.736052987857235 -20.76331031211477" fill="#a0ff22" stroke="none" /><path d="M 115.56566222782051 114.09645910891815 l 24.89045874051918 22.541111884776594 a54.58030168589175,54.58030168589175 0 0,0 -0.6366495690779207,0.690957367417091 l -24.498762763445534 -22.966220506995022" fill="#87ff25" stroke="none" /><path d="M 114.0293411484842 115.62618273729858 l 20.687590919052486 23.042284928007483 a51.96648692921985,51.96648692921985 0 0,0 -0.6707577940354712,0.5918657655648677 l -20.28789077211043 -23.39497383534464" fill="#a7ff21" stroke="none" /><path d="M 113.20401910651253 116.32954008644616 l 39.612057319537584 48.98862025933848 a84.0,84.0 0 0,0 -1.1321700291305956,0.899464343979496 l -38.762929797689644 -49.6632185173231" fill="#4dd2ff" stroke="none" /><path d="M 112.63410532772338 116.77436683061366 l 20.02273540895493 26.584289111878867 a54.281141219029415,54.281141219029415 0 0,0 -0.7511864505277296,0.5557097777687129 l -19.562163988008635 -26.92500883838735" fill="#8bff24" stroke="none" /><line stroke="#e1ed5e" stroke-width="0.3" x1="143.8653032363475" x2="146.44561519142675" y1="172.8068346515853" y2="177.08958963109032" /><path d="M 144.38136562736335 173.6633856474863 a86.0,86.0 0 0,1 -40.68145358897372,12.25698825130547" fill="none" id="id42" stroke="none" /><text fill="#e1ed5e" style="font-size:6.75px; font-family:Arial;" text-anchor="middle"><textPath startOffset="21.466115282336833" xlink:href="#id42">June</textPath></text><path d="M 103.7750983002368 120.6578951692458 l 6.770087409712201 37.04691768892281 a58.66043273496689,58.66043273496689 0 0,0 -0.9948558786882423,0.1729684466439072 l -6.131382559551909 -37.157964714087726" fill="#58ff2a" stroke="none" /><line stroke="#e1ed5e" stroke-width="0.3" x1="102.19456741930631" x2="102.32365962044197" y1="184.97166512339345" y2="189.96999836594603" /><path d="M 102.22038585953345 185.97133177190398 a86.0,86.0 0 0,1 -42.740103519485714,-10.115201625700543" fill="none" id="id43" stroke="none" /><text fill="#e1ed5e" style="font-size:6.75px; font-family:Arial;" text-anchor="middle"><textPath startOffset="22.20632615414155" xlink:href="#id43">July</textPath></text><line stroke="#e1ed5e" stroke-width="0.3" x1="58.666819895761336" x2="56.23545636021788" y1="174.27360380694188" y2="178.64263932499728" /><path d="M 58.180547188652646 175.14741091055294 a86.0,86.0 0 0,1 -31.652253787137756,-30.449443065178592" fill="none" id="id44" stroke="none" /><text fill="#e1ed5e" style="font-size:6.75px; font-family:Arial;" text-anchor="middle"><textPath startOffset="22.20632615414155" xlink:href="#id44">August</textPath></text><path d="M 87.07902340077011 116.55440617244103 l -22.646135337016226 29.014317898182775 a57.805951812162995,57.805951812162995 0 0,0 -0.7791210255606758,-0.6189808633909104 l 23.14221385529426 -28.620203120786734" fill="#62ff29" stroke="none" /><line stroke="#e1ed5e" stroke-width="0.3" x1="26.63291911575756" x2="22.317208475507996" y1="142.92168965132927" y2="145.44649492493687" /><path d="M 25.769776987707644 143.4266507060508 a86.0,86.0 0 0,1 -11.730757126820373,-40.83630448921669" fill="none" id="id45" stroke="none" /><text fill="#e1ed5e" style="font-size:6.75px; font-family:Arial;" text-anchor="middle"><textPath startOffset="21.46611528233685" xlink:href="#id45">September</textPath></text><path d="M 79.97269907076064 106.31721596034903 l -24.198084915185646 7.632807275238645 a46.37335335471981,46.37335335471981 0 0,0 -0.23357425019249434,-0.7633341641447451 l 24.32588593788427 -7.2151461385418525" fill="#efff19" stroke="none" /><path d="M 79.67330655649465 105.27499134158121 l -30.149038809235986 7.823993563819395 a52.14770322844856,52.14770322844856 0 0,0 -0.21799896804556346,-0.8707975124563648 l 30.279249091576606 -7.303868211965638" fill="#a5ff21" stroke="none" /><line stroke="#e1ed5e" stroke-width="0.3" x1="15.007084014347285" x2="10.007500721073583" y1="101.09737516637583" y2="101.16192664675087" /><path d="M 14.007167355692545 101.11028546245083 a86.0,86.0 0 0,1 10.666146001902534,-42.60595125391555" fill="none" id="id46" stroke="none" /><text fill="#e1ed5e" style="font-size:6.75px; font-family:Arial;" text-anchor="middle"><textPath startOffset="22.20632615414155" xlink:href="#id46">October</textPath></text><path d="M 79.08570108090925 98.10471618934814 l -30.775875087752006 -2.788954008839227 a51.90198621254522,51.90198621254522 0 0,0 0.08828991096730729,-0.8890673545568478 l 30.723308051102467 3.3182968941005053" fill="#a8ff21" stroke="none" /><path d="M 79.12142395522702 97.74499172005258 l -30.64574398942888 -3.30991952195955 a51.823971059995905,51.823971059995905 0 0,0 0.10342496824174535,-0.8860819673315562 l 30.584228668183545 3.836945227615968" fill="#a9ff21" stroke="none" /><path d="M 79.21141760316559 97.0276538004421 l -42.810205412251115 -6.120992231715343 a64.24558050645007,64.24558050645007 0 0,0 0.16594971976408407,-1.0934013094233601 l 42.698499799047724 6.856992653530795" fill="#32ff48" stroke="none" /><path d="M 79.26566170972629 96.67025291283419 l -30.471634965044355 -4.89346881224715 a51.86205719746092,51.86205719746092 0 0,0 0.14913586151839925,-0.8802082967786893 l 30.382887242005733 5.417262897341668" fill="#a8ff21" stroke="none" /><path d="M 79.3925641242962 95.95851677861259 l -30.383394320517333 -5.958721846609874 a51.96218688144154,51.96218688144154 0 0,0 0.17969193319651985,-0.8762416825573877 l 30.276323091405818 6.480839185330665" fill="#a7ff21" stroke="none" /><path d="M 79.46518482838121 95.60439243477599 l -30.29134021493587 -6.484053695967598 a51.977544194935504,51.977544194935504 0 0,0 0.19480592752338485,-0.8732767754835732 l 30.17523990041045 7.00450864100113" fill="#a7ff21" stroke="none" /><path d="M 79.62865764111835 94.90015583598534 l -42.53972962275078 -10.649567811163953 a64.85250153573134,64.85250153573134 0 0,0 0.2804211917538539,-1.0805772428309615 l 42.35011209912661 11.380241479543779" fill="#33ff50" stroke="none" /><path d="M 79.71946130924805 94.55025226153421 l -29.8776905549794 -8.028676112377093 a51.93761517985121,51.93761517985121 0 0,0 0.23944039307823803,-0.8613944902151867 l 29.7350633913348 8.541781906011222" fill="#a8ff21" stroke="none" /><line stroke="#e1ed5e" stroke-width="0.3" x1="26.266209847984243" x2="21.928928074336255" y1="57.711370442889674" y2="55.22380399835377" /><path d="M 25.398753493254645 57.213857153982495 a86.0,86.0 0 0,1 29.58750427330803,-30.492523968695096" fill="none" id="id47" stroke="none" /><text fill="#e1ed5e" style="font-size:6.75px; font-family:Arial;" text-anchor="middle"><textPath startOffset="21.46611528233685" xlink:href="#id47">November</textPath></text><line stroke="#e1ed5e" stroke-width="0.3" x1="56.762969772571076" x2="54.21961505331055" y1="26.818313649435495" y2="22.513508569990535" /><path d="M 56.25429882871897 25.957352633546506 a86.0,86.0 0 0,1 42.265352541879196,-11.944610805530505" fill="none" id="id48" stroke="none" /><text fill="#e1ed5e" style="font-size:6.75px; font-family:Arial;" text-anchor="middle"><textPath startOffset="22.20632615414155" xlink:href="#id48">December</textPath></text></svg>