<?xml version="1.0" encoding="utf-8" ?>
<svg baseProfile="full" height="200mm" version="1.1" viewBox="0,0,200,200" width="200mm" xmlns="http://www.w3.org/2000/svg" xmlns:ev="http://www.w3.org/2001/xml-events" xmlns:xlink="http://www.w3.org/1999/xlink"><defs /><rect fill="#1a1a1a" height="200" width="200" x="0" y="0" /><rect fill="#1a1a1a" height="200" width="180" x="10" y="0" /><text alignment-baseline="middle" fill="#e1ed5e" style="dominant-baseline: central; font-size:9.0px; font-family:Arial;" text-anchor="middle" x="100.0" y="100.0">2025</text><line stroke="#e1ed5e" stroke-width="0.3" x1="100.0" x2="100.0" y1="15.0" y2="10.0" /><path d="M 100.0 14.0 a86.0,86.0 0 0,1 42.46469731375804,11.215312516191453" fill="none" id="id73" stroke="none" /><text fill="#e1ed5e" style="font-size:6.75px; font-family:Arial;" text-anchor="middle"><textPath startOffset="22.20632615414155" xlink:href="#id73">January</textPath></text><path d="M 101.80526077348638 79.07773832637324 l 1.3125555880109578 -15.212002541057569 a36.268523945711344,36.268523945711344 0 0,0 0.621530021218443,0.05902176462299549 l -1.5742107363196451 15.187155231919395" fill="#ffbd11" stroke="none" /><path d="M 103.59715602781102 79.31037775812273 l 0.28487791443792354 -1.6385212065324697 a22.663101671693923,22.663101671693923 0 0,0 0.383767120256922,0.0701309882492525 l -0.3130401557977464 1.6333747369324785" fill="#ff0000" stroke="none" /><line stroke="#e1ed5e" stroke-width="0.3" x1="143.23703022742887" x2="145.7803849466894" y1="26.81831364943548" y2="22.513508569990506" /><path d="M 143.74570117128098 25.957352633546492 a86.0,86.0 0 0,1 28.547481713284135,27.462654790039103" fill="none" id="id74" stroke="none" /><text fill="#e1ed5e" style="font-size:6.75px; font-family:Arial;" text-anchor="middle"><textPath startOffset="19.985693538727396" xlink:href="#id74">February</textPath></text><path d="M 111.60114157652 82.49532879139004 l 10.09246570732562 -15.22826807393384 a39.269045201792466,39.269045201792466 0 0,0 0.5602295998854445,0.3782695266536991 l -10.353100001617605 15.05228663498147" fill="#ffe315" stroke="none" /><path d="M 112.48926042617603 83.11751280151076 l 12.876708446954142 -17.406224075426902 a42.65147239778005,42.65147239778005 0 0,0 0.5864655572727215,0.44171369903173424 l -13.174420157985248 17.181993786889322" fill="#f1ff19" stroke="none" /><path d="M 113.6212207817346 84.01681056812373 l 11.673814702495168 -13.698096137814877 a38.997660612118764,38.997660612118764 0 0,0 0.5071668072113553,0.4398100575089797 l -11.907875308353288 13.495121086886225" fill="#ffe015" stroke="none" /><path d="M 114.16331599549186 84.49514656593476 l 16.764861524102702 -18.352815178052168 a45.85732099165317,45.85732099165317 0 0,0 0.5782217651847065,0.5373941138547126 l -17.078291173082256 18.061516478122815" fill="#cbff1d" stroke="none" /><path d="M 114.68862486808459 84.99185889309783 l 21.14920142293384 -21.60925220054844 a51.236542485785876,51.236542485785876 0 0,0 0.6249984718125867,0.6223145297507632 l -21.51803569491375 21.242001820147557" fill="#8eff24" stroke="none" /><path d="M 114.94478906791727 85.2469230424477 l 17.633549356198355 -17.40734576477003 a45.778170825784144,45.778170825784144 0 0,0 0.5487619780549344,0.5655474559253141 l -17.9305755979564 17.101234113294602" fill="#ccff1d" stroke="none" /><path d="M 115.4437574822437 85.77008943001954 l 13.845727936815413 -12.75748279158678 a39.82704303064992,39.82704303064992 0 0,0 0.460204060326,0.5081688176837323 l -14.06327563775745 12.517261186633498" fill="#ffea16" stroke="none" /><path d="M 115.68641384162765 86.03803664274999 l 22.215860619147172 -19.77361014734785 a50.74121923036566,50.74121923036566 0 0,0 0.5750868108955801,0.6574236386608728 l -22.5529392936206 19.388270952484028" fill="#94ff23" stroke="none" /><path d="M 116.15771136456269 86.58626213691792 l 16.705996988821127 -13.868911214800004 a42.71260080401484,42.71260080401484 0 0,0 0.4647568424312277,0.5697369353530627 l -16.942252323328763 13.57929010983884" fill="#f0ff19" stroke="none" /><path d="M 116.38621287248628 86.86637796730983 l 23.146984926162677 -18.55241071150999 a50.6643701160256,50.6643701160256 0 0,0 0.5395656969393446,0.685193641358555 l -23.462904703695983 18.151224676198396" fill="#94ff23" stroke="none" /><line stroke="#e1ed5e" stroke-width="0.3" x1="172.23445277983987" x2="176.4835382374775" y1="55.19839476539836" y2="52.563006222186495" /><path d="M 173.08426987136738 54.67131705675599 a86.0,86.0 0 0,1 12.851231095245387,41.99856678651699" fill="none" id="id75" stroke="none" /><text fill="#e1ed5e" style="font-size:6.75px; font-family:Arial;" text-anchor="middle"><textPath startOffset="22.20632615414155" xlink:href="#id75">March</textPath></text><path d="M 118.03404312379186 89.2402003453031 l 18.899350544100113 -11.276075146461485 a43.00761962815206,43.00761962815206 0 0,0 0.3738392803418675,0.6390125118874358 l -19.09064949891231 10.949083222220153" fill="#edff1a" stroke="none" /><path d="M 119.196687751892 91.48605970444005 l 17.190831402927525 -7.624321137438758 a39.80571607598803,39.80571607598803 0 0,0 0.27240243816590626,0.6287423844165737 l -17.319524550936112 7.327279608435582" fill="#ffea16" stroke="none" /><path d="M 119.61058180528143 92.48833698450437 l 28.210252059387322 -10.805692006304465 a51.208960607562766,51.208960607562766 0 0,0 0.308217983256998,0.825870958788467 l -28.392074631145945 10.318497910486665" fill="#8eff24" stroke="none" /><path d="M 120.87857604477298 97.74499172005257 l 14.763281048784181 -1.5945206671569865 a35.849140159732514,35.849140159732514 0 0,0 0.06098258706315682,0.6140863294601003 l -14.788540761529568 1.340158806992451" fill="#ffb711" stroke="none" /><line stroke="#e1ed5e" stroke-width="0.3" x1="184.98032266829074" x2="189.97916517819016" y1="98.17113171792111" y2="98.06355123074" /><path d="M 185.9800911702706 98.14961562048488 a86.0,86.0 0 0,1 -9.607161424134198,41.387399972396054" fill="none" id="id76" stroke="none" /><text fill="#e1ed5e" style="font-size:6.75px; font-family:Arial;" text-anchor="middle"><textPath startOffset="21.466115282336823" xlink:href="#id76">April</textPath></text><path d="M 120.5718875245553 104.21870165774334 l 14.883394371641879 3.052155541563547 a36.193126125709554,36.193126125709554 0 0,0 -0.13040893713663268,0.6092271389317113 l -14.828651395780803 -3.3078964999114273" fill="#ffbc11" stroke="none" /><path d="M 120.41448212921028 104.9243191809786 l 14.827517813398005 3.5766486709130265 a36.25279319409331,36.25279319409331 0 0,0 -0.151551669887734,0.6053735865358133 l -14.76375482921521 -3.8313500968462355" fill="#ffbd11" stroke="none" /><path d="M 120.23288151984713 105.62410040840565 l 14.34206146241839 3.9866389594108482 a35.885832767584056,35.885832767584056 0 0,0 -0.17055573055614162,0.5937268728757047 l -14.27131309497615 -4.232923307791135" fill="#ffb811" stroke="none" /><line stroke="#e1ed5e" stroke-width="0.3" x1="174.80103733775053" x2="179.2010983576182" y1="140.37084112569926" y2="142.7455964860345" /><path d="M 175.68104954172406 140.8457921977663 a86.0,86.0 0 0,1 -30.038265399797805,32.042727171017184" fill="none" id="id77" stroke="none" /><text fill="#e1ed5e" style="font-size:6.75px; font-family:Arial;" text-anchor="middle"><textPath startOffset="22.206326154141568" xlink:href="#id77">May</textPath></text><path d="M 116.498646956653 112.99209946851258 l 17.053901421628492 13.429342671440091 a42.70674545586196,42.70674545586196 0 0,0 -0.45977286580967386,0.5736373434074856 l -16.820210643763964 -13.720907848425828" fill="#f1ff19" stroke="none" /><path d="M 116.0416608686014 113.55231037782055 l 11.5830313339311 9.785572518909708 a36.16324649953533,36.16324649953533 0 0,0 -0.40581618646922935,0.4720559063899688 l -11.412872637891091 -9.983505524461204" fill="#ffbb11" stroke="none" /><path d="M 115.56566222782051 114.09645910891815 l 11.966413973835968 10.836934708828286 a37.144169761143615,37.144169761143615 0 0,0 -0.43326656214327686,0.4702252820212492 l -11.77810100369697 -11.041311245650869" fill="#ffc812" stroke="none" /><path d="M 114.0293411484842 115.62618273729858 l 9.949806596195407 11.082309170999572 a35.8934961598449,35.8934961598449 0 0,0 -0.4632955530973328,0.40880445915810093 l -9.757568690191485 -11.25193677192996" fill="#ffb811" stroke="none" /><path d="M 113.20401910651253 116.32954008644616 l 19.029930613855385 23.534502055360655 a51.26567438802455,51.26567438802455 0 0,0 -0.6909697626820165,0.5489481688344161 l -18.622003358456016 -23.858584138200197" fill="#8eff24" stroke="none" /><path d="M 112.63410532772338 116.77436683061366 l 9.634753397382903 12.792111797228852 a37.01457452638636,37.01457452638636 0 0,0 -0.5122376986157157,0.37894120356206873 l -9.413130728348623 -12.95606294953069" fill="#ffc612" stroke="none" /><line stroke="#e1ed5e" stroke-width="0.3" x1="143.8653032363475" x2="146.44561519142675" y1="172.8068346515853" y2="177.08958963109032" /><path d="M 144.38136562736335 173.6633856474863 a86.0,86.0 0 0,1 -40.68145358897372,12.25698825130547" fill="none" id="id78" stroke="none" /><text fill="#e1ed5e" style="font-size:6.75px; font-family:Arial;" text-anchor="middle"><textPath startOffset="21.466115282336833" xlink:href="#id78">June</textPath></text><path d="M 103.7750983002368 120.6578951692458 l 3.2526151177687597 17.798790067150357 a39.093546721381855,39.093546721381855 0 0,0 -0.6630098511250294,0.11527276112587728 l -2.9457562951716803 -17.85214140679724" fill="#ffe115" stroke="none" /><line stroke="#e1ed5e" stroke-width="0.3" x1="102.19456741930631" x2="102.32365962044197" y1="184.97166512339345" y2="189.96999836594603" /><path d="M 102.22038585953345 185.97133177190398 a86.0,86.0 0 0,1 -42.740103519485714,-10.115201625700543" fill="none" id="id79" stroke="none" /><text fill="#e1ed5e" style="font-size:6.75px; font-family:Arial;" text-anchor="middle"><textPath startOffset="22.20632615414155" xlink:href="#id79">July</textPath></text><line stroke="#e1ed5e" stroke-width="0.3" x1="58.666819895761336" x2="56.23545636021788" y1="174.27360380694188" y2="178.64263932499728" /><path d="M 58.180547188652646 175.14741091055294 a86.0,86.0 0 0,1 -31.652253787137756,-30.449443065178592" fill="none" id="id80" stroke="none" /><text fill="#e1ed5e" style="font-size:6.75px; font-family:Arial;" text-anchor="middle"><textPath startOffset="22.20632615414155" xlink:href="#id80">August</textPath></text><path d="M 87.07902340077011 116.55440617244103 l -10.860609885766594 13.914656214153698 a38.65135985268266,38.65135985268266 0 0,0 -0.5209513239327117,-0.4138752384977133 l 11.098518702416664 -13.725647061650854" fill="#ffdb14" stroke="none" /><line stroke="#e1ed5e" stroke-width="0.3" x1="26.63291911575756" x2="22.317208475507996" y1="142.92168965132927" y2="145.44649492493687" /><path d="M 25.769776987707644 143.4266507060508 a86.0,86.0 0 0,1 -11.730757126820373,-40.83630448921669" fill="none" id="id81" stroke="none" /><text fill="#e1ed5e" style="font-size:6.75px; font-family:Arial;" text-anchor="middle"><textPath startOffset="21.46611528233685" xlink:href="#id81">September</textPath></text><path d="M 79.97269907076064 106.31721596034903 l -11.649833495467709 3.674709555371547 a33.21565024010021,33.21565024010021 0 0,0 -0.1673012632953774,-0.5467502084356066 l 11.711361531269217 -3.4736323743838926" fill="#ff950d" stroke="none" /><path d="M 79.67330655649465 105.27499134158121 l -14.508503512992867 3.765109688058539 a35.98908686843994,35.98908686843994 0 0,0 -0.15044926837625286,-0.6009700404890851 l 14.571164095664178 -3.514811808172062" fill="#ffb911" stroke="none" /><line stroke="#e1ed5e" stroke-width="0.3" x1="15.007084014347285" x2="10.007500721073583" y1="101.09737516637583" y2="101.16192664675087" /><path d="M 14.007167355692545 101.11028546245083 a86.0,86.0 0 0,1 10.666146001902534,-42.60595125391555" fill="none" id="id82" stroke="none" /><text fill="#e1ed5e" style="font-size:6.75px; font-family:Arial;" text-anchor="middle"><textPath startOffset="22.20632615414155" xlink:href="#id82">October</textPath></text><path d="M 79.08570108090925 98.10471618934814 l -14.769460274686889 -1.3384297058663588 a35.82998148626962,35.82998148626962 0 0,0 0.060949996449623,-0.6137581464294488 l 14.744233152555037 1.592463383000238" fill="#ffb711" stroke="none" /><path d="M 79.12142395522702 97.74499172005258 l -14.721664700339373 -1.5900258582139313 a35.80728178225184,35.80728178225184 0 0,0 0.07146050187596173,-0.6122299398801727 l 14.692113845459822 1.8431995364189657" fill="#ffb711" stroke="none" /><path d="M 79.21141760316559 97.0276538004421 l -20.575081848353356 -2.9418199456860745 a41.78432817435474,41.78432817435474 0 0,0 0.1079311214312793,-0.711131237029262 l 20.521394833482777 3.2955502951074283" fill="#fcff18" stroke="none" /><path d="M 79.26566170972629 96.67025291283419 l -14.496315128529803 -2.327977020443539 a35.682051263817165,35.682051263817165 0 0,0 0.10260822156961391,-0.6055995320222671 l 14.454095045439965 2.577162340781634" fill="#ffb510" stroke="none" /><path d="M 79.3925641242962 95.95851677861259 l -14.593803336905093 -2.8621033532787923 a35.87180995847889,35.87180995847889 0 0,0 0.12404933790420221,-0.6049086268465458 l 14.542374703085896 3.1128876362887405" fill="#ffb811" stroke="none" /><path d="M 79.46518482838121 95.60439243477599 l -14.556334945492281 -3.1158759148109003 a35.886086448823896,35.886086448823896 0 0,0 0.13449697295488366,-0.6029235575505929 l 14.50054358553536 3.3659776419114524" fill="#ffb811" stroke="none" /><path d="M 79.62865764111835 94.90015583598534 l -20.43126834791942 -5.11484627826334 a42.06177529922296,42.06177529922296 0 0,0 0.18187445167696883,-0.7008364535694581 l 20.340197564372144 5.465779157381663" fill="#f8ff18" stroke="none" /><path d="M 79.71946130924805 94.55025226153421 l -14.356689186427907 -3.857902179948986 a35.86599924746908,35.86599924746908 0 0,0 0.16534777209580742,-0.594843910927533 l 14.28815464376574 4.104457394295461" fill="#ffb811" stroke="none" /><path d="M 79.81627453868168 94.20196356495316 l -29.107100985148737 -8.36139157530224 a51.28425658382886,51.28425658382886 0 0,0 0.25103424513465356,-0.8463626787859716 l 28.958860842902375 8.861183640834751" fill="#8eff24" stroke="none" /><path d="M 80.02781315780177 93.51064311812611 l -17.203947878742124 -5.58990151876764 a39.08930130226141,39.08930130226141 0 0,0 0.21343262247085118,-0.638136374970891 l 17.1051779624995 5.885210996660853" fill="#ffe115" stroke="none" /><path d="M 80.14247586403 93.16781622104843 l -28.69084414975201 -9.871377653233708 a51.34153316492298,51.34153316492298 0 0,0 0.29471731664440254,-0.8332055412144104 l 28.516673752297798 10.363780820874728" fill="#8dff24" stroke="none" /><path d="M 80.38941819471856 92.48833698450439 l -27.874605282237876 -10.67712542387368 a50.849533111217895,50.849533111217895 0 0,0 0.32012553632416785,-0.8146845721835756 l 27.686686196032017 11.15535900095302" fill="#92ff23" stroke="none" /><path d="M 80.52162464483688 92.15188598940014 l -16.922642385899028 -6.818372907571112 a39.244616587577994,39.244616587577994 0 0,0 0.2578526664548512,-0.6244106845104572 l 16.802768032557978 7.108658162534881" fill="#ffe315" stroke="none" /><path d="M 80.803312248108 91.48605970444005 l -40.53380100745161 -17.977182636391923 a65.34149433266629,65.34149433266629 0 0,0 0.46485085045012536,-1.0242372306516332 l 40.218347840038135 18.672241875885625" fill="#36ff6b" stroke="none" /><path d="M 81.10775173730289 90.83032412892265 l -17.814414023098063 -8.646530585114355 a40.8019150120808,40.8019150120808 0 0,0 0.31211519519126724,-0.6292051879782212 l 17.66293881495338 8.951895361591538" fill="#fff617" stroke="none" /><path d="M 81.26839172434947 90.50648371742162 l -13.246959860409024 -6.713797730488136 a35.85116242956071,35.85116242956071 0 0,0 0.28372023838273897,-0.5480571942173529 l 13.129430188866172 6.9408276469658245" fill="#ffb711" stroke="none" /><line stroke="#e1ed5e" stroke-width="0.3" x1="26.266209847984243" x2="21.928928074336255" y1="57.711370442889674" y2="55.22380399835377" /><path d="M 25.398753493254645 57.213857153982495 a86.0,86.0 0 0,1 29.58750427330803,-30.492523968695096" fill="none" id="id83" stroke="none" /><text fill="#e1ed5e" style="font-size:6.75px; font-family:Arial;" text-anchor="middle"><textPath startOffset="21.46611528233685" xlink:href="#id83">November</textPath></text><path d="M 81.78341655067845 89.55222093294921 l -19.93872724520569 -11.435482274468635 a43.98528005068448,43.98528005068448 0 0,0 0.3823374923317079,-0.6535387109139624 l 19.738930078403655 11.777000397736488" fill="#e1ff1b" stroke="none" /><path d="M 81.96595687620814 89.24020034530311 l -25.919667031716024 -15.46466438298483 a51.18252778534936,51.18252778534936 0 0,0 0.4579232559354231,-0.7527054299447726 l 25.649627977494383 15.908537586136676" fill="#8fff24" stroke="none" /><path d="M 82.34701348167596 88.62581576622439 l -16.050975605551965 -10.341975477060448 a40.09424716133485,40.09424716133485 0 0,0 0.378801597123809,-0.5769408205033378 l 15.870577373070235 10.616734361541454" fill="#ffed16" stroke="none" /><path d="M 82.54541684631803 88.32363383020206 l -24.63204977328721 -16.477782948653182 a50.63537087563819,50.63537087563819 0 0,0 0.4908629848604546,-0.7202808609717265 l 24.34476232275802 16.899341832895324" fill="#95ff23" stroke="none" /><path d="M 82.95767976084542 87.72973835380427 l -24.134694090437844 -17.37668387196419 a50.739411581690646,50.739411581690646 0 0,0 0.5164242511460024,-0.704402098193907 l 23.83200722677821 17.789548413829596" fill="#94ff23" stroke="none" /><path d="M 83.17141714833178 87.43820079747576 l -50.48574855500465 -37.6853976075727 a84.0,84.0 0 0,0 0.8748962391035646,-1.1512608964758937 l 49.82957637567698 38.54884327992962" fill="#4dd2ff" stroke="none" /><path d="M 83.6137871275137 86.86637796730984 l -14.013924055894693 -11.232222062364709 a38.9597572339566,38.9597572339566 0 0,0 0.42392206077603606,-0.5196783214027276 l 13.818503503042264 11.47178455337552" fill="#ffdf14" stroke="none" /><path d="M 83.84228863543731 86.58626213691792 l -23.16375658300597 -19.229985715065 a51.105680022852106,51.105680022852106 0 0,0 0.5677339399930714,-0.6720179124489851 l 22.829312029525774 19.625862577143103" fill="#90ff24" stroke="none" /><path d="M 84.31358615837235 86.03803664274999 l -22.170660831518116 -19.733379296306705 a50.68070855215754,50.68070855215754 0 0,0 0.5856188680126583,-0.6466549807502184 l 21.82769832288941 20.11208706432648" fill="#94ff23" stroke="none" /><path d="M 84.5562425177563 85.77008943001954 l -22.59220875471417 -20.816508581382248 a51.72026897563471,51.72026897563471 0 0,0 0.6089019336787863,-0.6495341283889635 l 22.23053949906493 21.202312126649264" fill="#89ff24" stroke="none" /><path d="M 85.05521093208273 85.24692304244772 l -44.6672864632449 -44.09429344787145 a83.76522281213204,83.76522281213204 0 0,0 1.0217929178798346,-1.0174050143657387 l 43.90165774519775 44.856634312887294" fill="#4dd4ff" stroke="none" /><path d="M 85.31137513191541 84.99185889309783 l -20.844706661214072 -21.298133876590672 a50.80121310311447,50.80121310311447 0 0,0 0.6302174884846298,-0.6062687246015456 l 20.475005929117014 21.65378568795453" fill="#93ff23" stroke="none" /><path d="M 85.83668400450813 84.49514656593479 l -11.197368067618948 -12.25797340050694 a37.60237824919274,37.60237824919274 0 0,0 0.48164888520443244,-0.43242912475297896 l 10.984708194818543 12.448901534029197" fill="#ffce13" stroke="none" /><path d="M 86.10567301691215 84.25364557470407 l -19.939568421805593 -22.597388980363007 a51.1368275964425,51.1368275964425 0 0,0 0.6650373682913931,-0.5767138523952438 l 19.547637254867425 22.937267826177933" fill="#8fff24" stroke="none" /><path d="M 86.65592168130627 83.78471172551755 l -22.763431807991246 -27.661379082735667 a56.82353584497033,56.82353584497033 0 0,0 0.7606144194080688,-0.6150306299740316 l 22.28391399001868 28.049115809973834" fill="#53ff2b" stroke="none" /><path d="M 86.93701828274178 83.55741782278169 l -20.2467972757459 -25.48496470695557 a53.54867472017751,53.54867472017751 0 0,0 0.7266490004575258,-0.5671610707725536 l 19.80511572012895 25.829704166951345" fill="#75ff27" stroke="none" /><path d="M 87.51073957382395 83.11751280151077 l -17.710588421006236 -23.94047142044397 a50.77937397010513,50.77937397010513 0 0,0 0.7071745595323861,-0.5137923922237388 l 17.29586854512007 24.24178304748438" fill="#93ff23" stroke="none" /><path d="M 88.09926311788651 82.69761687909137 l -16.895069082590904 -24.56360148257401 a50.81298168751712,50.81298168751712 0 0,0 0.7249205131803145,-0.4894695664747986 l 16.46974387500405 24.850782961347473" fill="#93ff23" stroke="none" /><path d="M 88.70189139769569 82.29822771554957 l -31.83786896626924 -49.883279255088986 a80.17762625819425,80.17762625819425 0 0,0 1.1697566235127201,-0.7325014903299897 l 30.97449319038428 50.42392508674191" fill="#48f6ff" stroke="none" /><line stroke="#e1ed5e" stroke-width="0.3" x1="56.762969772571076" x2="54.21961505331055" y1="26.818313649435495" y2="22.513508569990535" /><path d="M 56.25429882871897 25.957352633546506 a86.0,86.0 0 0,1 42.265352541879196,-11.944610805530505" fill="none" id="id84" stroke="none" /><text fill="#e1ed5e" style="font-size:6.75px; font-family:Arial;" text-anchor="middle"><textPath startOffset="22.20632615414155" xlink:href="#id84">December</textPath></text><path d="M 89.3179101791058 81.91981866633112 l -9.940081992279742 -16.824281381759622 a40.5412812790223,40.5412812790223 0 0,0 0.6038783454343201,-0.3498053153256929 l 9.649006914380102 16.992890854475363" fill="#fff316" stroke="none" /><path d="M 89.63071344664047 81.73862282372117 l -14.652634297224033 -25.80479188715211 a50.674685780769735,50.674685780769735 0 0,0 0.7622339300946904,-0.42418235684453215 l 14.206276278057297 26.053189641556827" fill="#94ff23" stroke="none" /><path d="M 90.26544431104013 81.39251694778311 l -13.751108211333927 -26.285073625064072 a50.664761460609355,50.664761460609355 0 0,0 0.7762312213699071,-0.39761578056987323 l 13.296616502375256 26.517881930946448" fill="#94ff23" stroke="none" /><path d="M 90.58718382345135 81.22770947309562 l -13.486321921310209 -26.896217720361687 a51.08799439355023,51.08799439355023 0 0,0 0.7895010519770151,-0.38740473743969656 l 13.021349602322768 27.12437761793621" fill="#90ff24" stroke="none" /><path d="M 91.23893434514133 80.91482961587045 l -20.96657059746732 -45.67373285253615 a71.2562131015004,71.2562131015004 0 0,0 1.1191225357722352,-0.5021176601620863 l 20.17726594322831 46.027870843214764" fill="#3dffad" stroke="none" /><path d="M 91.90106846888425 80.62456947434976 l -9.353319149733505 -22.37635726066311 a45.25254509064156,45.25254509064156 0 0,0 0.721274132572232,-0.29422582879113923 l 8.96676114757289 22.534043975637825" fill="#d2ff1c" stroke="none" /><path d="M 92.57280143429618 80.3572730644239 l -7.509127883071234 -19.859405565456512 a42.23165068895028,42.23165068895028 0 0,0 0.6821772535948085,-0.2512516396296344 l 7.166168303703856 19.985720472892467" fill="#f6ff19" stroke="none" /><path d="M 93.25333710446033 80.11325718540243 l -11.004957284068684 -32.43866761722946 a55.254579863213436,55.254579863213436 0 0,0 0.9033260198485638,-0.2978123863018028 l 10.444948441977711 32.6232937277905" fill="#63ff29" stroke="none" /><path d="M 93.59665428221793 80.00007090966166 l -9.3233603683084 -29.120174744278067 a51.5762918892176,51.5762918892176 0 0,0 0.84785192292852,-0.2634317195855708 l 8.82072307266915 29.276346598746162" fill="#8aff24" stroke="none" /><path d="M 94.28887869178378 79.79150937346287 l -5.337245463405835 -18.885551382632443 a40.62524497076906,40.62524497076906 0 0,0 0.6745766034338344,-0.18438726799729152 l 5.011370970748278 18.97462519145603" fill="#fff417" stroke="none" /><path d="M 94.63758080256005 79.69619591428918 l -7.707238741814739 -29.18202768077406 a51.182648468694616,51.182648468694616 0 0,0 0.8537536577211453,-0.21764081697127388 l 7.203776195408595 29.310371493914197" fill="#8fff24" stroke="none" /><path d="M 95.33964822691252 79.52364482259891 l -2.810488359581585 -12.348543774114706 a33.66433488820359,33.66433488820359 0 0,0 0.5661335620143602,-0.12373486899760269 l 2.5975120734137036 12.395092141208178" fill="#ff9b0e" stroke="none" /><path d="M 95.692805502759 79.44645832069477 l -3.560384284724815 -16.989831046011425 a38.358879434656174,38.358879434656174 0 0,0 0.6474131127067814,-0.12986497986263315 l 3.267404762550897 17.04859998195127" fill="#ffd814" stroke="none" /><path d="M 96.04723909329186 79.375362276772 l -2.2604328832462413 -11.79444201532825 a33.00909735461418,33.00909735461418 0 0,0 0.5589617174900181,-0.10214668107791854 l 2.05707604465333 11.831604177756905" fill="#ff920d" stroke="none" /><path d="M 96.75951476605007 79.25152402106235 l -1.8926109151876902 -12.118182702959315 a33.26508573547653,33.26508573547653 0 0,0 0.5665060251288992,-0.08348826205323258 l 1.683735909630142 12.148965449173517" fill="#ff950d" stroke="none" /><path d="M 97.47563105711357 79.15227682838746 l -1.0926515165382034 -9.0237587512801 a30.089670474659542,30.089670474659542 0 0,0 0.5147243578532503,-0.05783527900445317 l 0.9371604551752349 9.041229983755152" fill="#ff6a09" stroke="none" /></svg>