<?xml version="1.0" encoding="utf-8" ?>
<svg baseProfile="full" height="200mm" version="1.1" viewBox="0,0,200,200" width="200mm" xmlns="http://www.w3.org/2000/svg" xmlns:ev="http://www.w3.org/2001/xml-events" xmlns:xlink="http://www.w3.org/1999/xlink"><defs /><rect fill="#1a1a1a" height="200" width="200" x="0" y="0" /><text alignment-baseline="middle" fill="#e1ed5e" style="dominant-baseline: central; font-size:9.0px; font-family:Arial;" text-anchor="middle" x="100.0" y="100.0">2023</text><line stroke="#e1ed5e" stroke-width="0.3" x1="100.0" x2="100.0" y1="15.0" y2="10.0" /><path d="M 100.0 14.0 a86.0,86.0 0 0,1 42.46469731375804,11.215312516191453" fill="none" id="id13" stroke="none" /><text fill="#e1ed5e" style="font-size:6.75px; font-family:Arial;" text-anchor="middle"><textPath startOffset="22.20632615414155" xlink:href="#id13">January</textPath></text><path d="M 100.0 79.0 l 0.0 -7.607010201619442 a28.607010201619442,28.607010201619442 0 0,0 0.49242265515407163,0.004238437256291603 l -0.13094217588154328 7.605883140971709" fill="#ff0000" stroke="none" /><path d="M 102.16513564639614 79.11191278185805 l 1.2969077133676166 -12.511881865598111 a33.57891718057144,33.57891718057144 0 0,0 0.5744126243500285,0.06454195121349653 l -1.5120870412273704 12.487703960914013" fill="#ff4f07" stroke="none" /><path d="M 110.05341064243156 81.56283822128135 l 5.981628811251055 -10.96983521470943 a33.494685585218534,33.494685585218534 0 0,0 0.5038173485941276,0.2803738090211625 l -6.169570248917219 10.865246008128087" fill="#ff4e07" stroke="none" /><line stroke="#e1ed5e" stroke-width="0.3" x1="143.23703022742887" x2="145.7803849466894" y1="26.81831364943548" y2="22.513508569990506" /><path d="M 143.74570117128098 25.957352633546492 a86.0,86.0 0 0,1 28.547481713284135,27.462654790039103" fill="none" id="id14" stroke="none" /><text fill="#e1ed5e" style="font-size:6.75px; font-family:Arial;" text-anchor="middle"><textPath startOffset="19.985693538727396" xlink:href="#id14">February</textPath></text><path d="M 110.99172775467656 82.1063720568725 l 9.304813226660904 -15.147469958699066 a38.77710311982057,38.77710311982057 0 0,0 0.565741034399942,0.3542669838400615 l -9.564173413433108 14.98505863353606" fill="#ff9e0e" stroke="none" /><path d="M 113.06298171725822 83.55741782278167 l 15.594162753163225 -19.6286198743621 a46.069117059528566,46.069117059528566 0 0,0 0.6166605826937192,0.49862997200266246 l -15.929726734421436 19.35728380509531" fill="#f9ff18" stroke="none" /><path d="M 113.6212207817346 84.01681056812373 l 24.386652890575707 -28.615386168775395 a58.59719623580416,58.59719623580416 0 0,0 0.7620598892338383,0.6608508264807378 l -24.87560657845631 28.191370348874987" fill="#5dff2a" stroke="none" /><path d="M 114.16331599549186 84.49514656593476 l 11.893514670976886 -13.020058427567216 a38.6345573430695,38.6345573430695 0 0,0 0.48714886654860545,0.4527517800555108 l -12.115871421320339 12.813402061437063" fill="#ff9c0e" stroke="none" /><path d="M 114.68862486808459 84.99185889309783 l 17.701093602773582 -18.08613896281986 a46.30685949138262,46.30685949138262 0 0,0 0.5648647432559168,0.5624390345349517 l -18.00979414619682 17.77876407763479" fill="#f6ff19" stroke="none" /><path d="M 115.19652480421416 85.50635884689758 l 14.547373997614914 -13.874515467045075 a41.10294181635503,41.10294181635503 0 0,0 0.4839043038166523,0.5161953720597474 l -14.78404562340203 13.622050678107273" fill="#ffc011" stroke="none" /><path d="M 115.68641384162765 86.03803664274999 l 30.087028592159847 -26.779479043036737 a61.27865175650605,61.27865175650605 0 0,0 0.6945151289060963,0.7939508514191527 l -30.54353558464379 26.257612635414638" fill="#3eff2d" stroke="none" /><path d="M 116.15771136456269 86.58626213691792 l 15.294166081292296 -12.69684363212713 a40.877659679671524,40.877659679671524 0 0,0 0.44479080367582496,0.5452609326499354 l -15.51045537704453 12.431698529869095" fill="#ffbd11" stroke="none" /><path d="M 116.60985879189232 87.15038557335679 l 19.840924189885573 -15.34921090555775 a46.085066237346865,46.085066237346865 0 0,0 0.4799958467844354,0.6316182698875905 l -20.102195976894123 15.005407859789127" fill="#f9ff18" stroke="none" /><path d="M 117.04232023915458 87.72973835380427 l 24.42274380921761 -17.584076138213273 a51.0943541018105,51.0943541018105 0 0,0 0.5077498523961697,0.7181761577865716 l -24.721806281417663 17.16107348009491" fill="#b7ff1f" stroke="none" /><path d="M 117.2510076193507 88.02491185347247 l 43.52381666648009 -30.212817277395665 a73.98242109468637,73.98242109468637 0 0,0 0.7171909954986453,1.052389289173614 l -44.03743212764746 29.459149964951646" fill="#3fffbf" stroke="none" /><path d="M 117.65298651832404 88.62581576622439 l 16.925717243084648 -10.905589601612336 a41.134840171991634,41.134840171991634 0 0,0 0.3783864740029548,0.5985165321643909 l -17.11093131333356 10.612625421733739" fill="#ffc011" stroke="none" /><line stroke="#e1ed5e" stroke-width="0.3" x1="172.23445277983987" x2="176.4835382374775" y1="55.19839476539836" y2="52.563006222186495" /><path d="M 173.08426987136738 54.67131705675599 a86.0,86.0 0 0,1 12.851231095245387,41.99856678651699" fill="none" id="id15" stroke="none" /><text fill="#e1ed5e" style="font-size:6.75px; font-family:Arial;" text-anchor="middle"><textPath startOffset="22.20632615414155" xlink:href="#id15">March</textPath></text><path d="M 117.84615892207809 88.93136811851018 l 19.211571539297164 -11.91549476623318 a43.60671352792491,43.60671352792491 0 0,0 0.3901434552645472,0.6412932591404731 l -19.413830792847936 11.583033733885626" fill="#ffe315" stroke="none" /><path d="M 118.21658344932153 89.55222093294921 l 18.15612643926239 -10.413105085186434 a41.9303054156794,41.9303054156794 0 0,0 0.35369681917438667,0.6291871747595712 l -18.33268089972921 10.099034400492068" fill="#ffcc13" stroke="none" /><path d="M 118.3937258080291 89.86733742301442 l 21.084067320897553 -11.61470721825416 a45.07154582817451,45.07154582817451 0 0,0 0.36849616068577873,0.6827674208830903 l -21.280871580801797 11.250058814038612" fill="#fff717" stroke="none" /><path d="M 118.73160827565052 90.50648371742162 l 15.603437177279801 -7.9081028562428894 a38.493008389932086,38.493008389932086 0 0,0 0.294453160435383,0.5935996036623324 l -15.737250350668592 7.6383436640816065" fill="#ff9a0e" stroke="none" /><path d="M 119.04729006885535 91.15688171328212 l 22.813756568628218 -10.591782199539434 a46.15260103717124,46.15260103717124 0 0,0 0.32833769814611485,0.723448595053798 l -22.992696583737683 10.197511595643574" fill="#f8ff18" stroke="none" /><path d="M 119.196687751892 91.48605970444005 l 16.079692942338074 -7.131519116807538 a38.590198692262355,38.590198692262355 0 0,0 0.26408428862356825,0.6095429484188756 l -16.200067940804324 6.85367702380206" fill="#ff9b0e" stroke="none" /><path d="M 119.47837535516314 92.15188598940014 l 25.76523918630649 -10.38118071746209 a48.77798522960566,48.77798522960566 0 0,0 0.3070840129109054,0.7814953176037884 l -25.940116749099097 9.936136394962517" fill="#d5ff1c" stroke="none" /><path d="M 119.7369772167798 92.82701384747503 l 14.626191337795616 -5.315579319866378 a36.56216105030399,36.56216105030399 0 0,0 0.20987885112141544,0.5933557747102849 l -14.715523269726841 5.063025918729479" fill="#ff7d0b" stroke="none" /><path d="M 119.97218684219823 93.5106431181261 l 21.785146908553315 -7.078423315916383 a43.90625902382488,43.90625902382488 0 0,0 0.2273602331949366,0.7207940710143885 l -21.903762625516457 6.702379078475575" fill="#ffe715" stroke="none" /><path d="M 120.18372546131832 94.20196356495316 l 24.257308609015862 -6.968225930380999 a46.238327867944605,46.238327867944605 0 0,0 0.21316580211938324,0.7668708069149324 l -24.37366118170161 6.549643820047115" fill="#f7ff19" stroke="none" /><path d="M 120.28053869075195 94.5502522615342 l 24.375827194544218 -6.5502258668936255 a46.2405707210753,46.2405707210753 0 0,0 0.19994349704211048,0.7704638561888295 l -24.48496702345663 6.129665585155946" fill="#f7ff19" stroke="none" /><path d="M 120.37134235888165 94.90015583598534 l 34.41926301158829 -8.616657385997131 a56.481438115845144,56.481438115845144 0 0,0 0.22798920696771485,0.9451624519534909 l -34.56248501881682 8.022909702384233" fill="#75ff27" stroke="none" /><path d="M 120.53481517161879 95.60439243477599 l 19.749010406761414 -4.227401066147753 a41.19639403013414,41.19639403013414 0 0,0 0.14246243524912186,0.6946974287787996 l -19.818852137925532 3.886827981205541" fill="#ffc112" stroke="none" /><path d="M 120.67395015179393 96.31383870115 l 16.06415558406147 -2.8642358222738644 a37.31750414354261,37.31750414354261 0 0,0 0.107311171806662,0.6333566105400568 l -16.111078617388355 2.5872934234179694" fill="#ff880c" stroke="none" /><path d="M 120.83666639777658 97.38593545837742 l 52.82032249491628 -6.626574974860839 a74.23436826303484,74.23436826303484 0 0,0 0.1481493413764463,1.2692530836353089 l -52.92656218929631 5.716378152900678" fill="#3fffc2" stroke="none" /><path d="M 120.91429891909075 98.10471618934814 l 15.716313470399916 -1.4242349025808871 a36.7807146275954,36.7807146275954 0 0,0 0.051712837374648296,0.6310275997845365 l -15.73850079159406 1.1534933855885818" fill="#ff800b" stroke="none" /><path d="M 120.94382443527127 98.46500227214037 l 25.168577808754407 -1.8446349122767567 a46.23608501481391,46.23608501481391 0 0,0 0.0513427703245267,0.7942499320723897 l -25.19660117008335 1.4111259159513316" fill="#f7ff19" stroke="none" /><path d="M 120.98425023603335 99.18683210126433 l 30.123828645858097 -1.1673388453861757 a51.14643813562339,51.14643813562339 0 0,0 0.026518954567910237,0.8800349976800574 l -30.139459294881654 0.6486337002811192" fill="#b7ff1f" stroke="none" /><line stroke="#e1ed5e" stroke-width="0.3" x1="184.98032266829074" x2="189.97916517819016" y1="98.17113171792111" y2="98.06355123074" /><path d="M 185.9800911702706 98.14961562048488 a86.0,86.0 0 0,1 -9.607161424134198,41.387399972396054" fill="none" id="id16" stroke="none" /><text fill="#e1ed5e" style="font-size:6.75px; font-family:Arial;" text-anchor="middle"><textPath startOffset="21.466115282336823" xlink:href="#id16">April</textPath></text><path d="M 120.99513854157772 99.54816195383933 l 11.71046429509818 -0.2520218333521795 a32.71317587212177,32.71317587212177 0 0,0 0.0072701028072434115,0.5630774743553961 l -11.71306740502314 0.050408100936320616" fill="#ff4206" stroke="none" /><path d="M 120.99980553446 99.90962569577887 l 51.89315995388279 -0.22332626923483387 a72.8936405026839,72.8936405026839 0 0,0 -0.005400039719429441,1.2547790543308677 l -51.88931561687385 -0.6699622632997186" fill="#3effb2" stroke="none" /><path d="M 120.9904718944345 100.63252640178507 l 15.268892531161175 0.4601124596221711 a36.2758234672848,36.2758234672848 0 0,0 -0.024180197981345627,0.6239834676041207 l -15.258710200328625 -0.7228731742402981" fill="#ff790b" stroke="none" /><path d="M 120.9764740272857 100.99374915477107 l 33.043279847992146 1.5654075788472688 a54.080339236480576,54.080339236480576 0 0,0 -0.052055285771885715,0.9294820962200475 l -33.01143821133273 -2.1339613914027398" fill="#92ff23" stroke="none" /><path d="M 120.92983693683757 101.71520430193887 l 26.203381251445165 2.147372307938009 a47.291222809855896,47.291222809855896 0 0,0 -0.07347120174868249,0.8107485890402137 l -26.162535453419405 -2.5981022855267937" fill="#e9ff1a" stroke="none" /><path d="M 120.89721153311464 102.0752229133903 l 18.523819059375064 1.839530297838814 a39.614933367088206,39.614933367088206 0 0,0 -0.07322669235712141,0.677988226686686 l -18.489410065516893 -2.1581148464102915" fill="#ffaa0f" stroke="none" /><path d="M 120.8583938346157 102.4346265915055 l 44.84740731087657 5.234664340163003 a66.1518731977073,66.1518731977073 0 0,0 -0.14174925973289085,1.129881068411864 l -44.75065654189683 -6.005863162862262" fill="#34ff5e" stroke="none" /><path d="M 120.76222939487914 103.15116336523771 l 25.895974632255687 3.9303316140228994 a47.192537272105156,47.192537272105156 0 0,0 -0.12880921160364642,0.8020950836139005 l -25.824483666290753 -4.375505927330004" fill="#eaff1a" stroke="none" /><path d="M 120.70491114924044 103.5080841355445 l 20.02390128699223 3.3926989558312353 a41.309284304379304,41.309284304379304 0 0,0 -0.1248200501683228,0.7000571287885315 l -19.96253479448472 -3.7368748353529853" fill="#ffc312" stroke="none" /><path d="M 120.64145759157962 103.86396538481128 l 15.422121216510721 2.8869348143936375 a36.69000367875381,36.69000367875381 0 0,0 -0.12154885785971584,0.6197750075649769 l -15.370142425675342 -3.1519735490265592" fill="#ff7f0b" stroke="none" /><path d="M 120.49622156327973 104.57218783832717 l 25.547410021626565 5.698980031075905 a47.1753420647698,47.1753420647698 0 0,0 -0.18362313154318424,0.7910436448241959 l -25.44552632415283 -6.137892333248666" fill="#eaff1a" stroke="none" /><path d="M 120.41448212921028 104.9243191809786 l 46.32255895172001 11.173786536155987 a68.6511592030158,68.6511592030158 0 0,0 -0.2869902399311092,1.146383348837852 l -46.12335739749384 -11.969497724391235" fill="#38ff7e" stroke="none" /><path d="M 120.23288151984713 105.62410040840565 l 17.000220841500166 4.725523098817112 a38.64477478510935,38.64477478510935 0 0,0 -0.18366824140153898,0.6393732433283461 l -16.916359963212525 -5.01745381765004" fill="#ff9c0e" stroke="none" /><path d="M 120.13307415673323 105.97154293290107 l 21.005443924152342 6.2302909750010445 a42.90993382198787,42.90993382198787 0 0,0 -0.2161296281857102,0.7063241300874964 l -20.8950875234605 -6.590942077640598" fill="#ffd914" stroke="none" /><path d="M 119.9155931802556 106.66101706037122 l 11.115652433479376 3.717767772539565 a32.720901255127515,32.720901255127515 0 0,0 -0.18325133368591162,0.5326141537391503 l -11.050010268850233 -3.908554629368016" fill="#ff4206" stroke="none" /><path d="M 119.79798401119884 107.00284435728193 l 50.31298767003052 17.796459558900978 a74.36769342135972,74.36769342135972 0 0,0 -0.43726694773995856,1.2031708414990292 l -49.99919646128534 -18.659878197406137" fill="#40ffc3" stroke="none" /><path d="M 119.41010516605496 108.01547362559984 l 24.40807115452958 10.079401884593683 a47.407352760845406,47.407352760845406 0 0,0 -0.3179656724111981,0.7515769240388558 l -24.23095450092607 -10.498053334298701" fill="#e7ff1a" stroke="none" /><path d="M 119.26925614724726 108.34839909993367 l 24.02195262849674 10.407503339512175 a47.17957856512779,47.17957856512779 0 0,0 -0.3292660884448008,0.7424081057343054 l -23.83924545532067 -10.819459781739168" fill="#eaff1a" stroke="none" /><path d="M 119.12269723197855 108.67885076344098 l 20.160514844992413 9.149865080812258 a43.13970166493277,43.13970166493277 0 0,0 -0.31271226739808367,0.6735544037861655 l -20.000027960754498 -9.495539551877254" fill="#ffdd14" stroke="none" /><path d="M 118.81262510543309 109.33194174019688 l 19.513253125542235 9.679485999892979 a42.78209119353805,42.78209119353805 0 0,0 -0.33292886915110154,0.6569002438051237 l -19.343745586604864 -10.013940455400798" fill="#ffd814" stroke="none" /><path d="M 118.64920377521936 109.65438752849418 l 42.30191184136101 21.899007326809716 a68.63421320158385,68.63421320158385 0 0,0 -0.5521703890650249,1.0444982852668196 l -41.91868894407109 -22.623920627162672" fill="#38ff7e" stroke="none" /><line stroke="#e1ed5e" stroke-width="0.3" x1="174.80103733775053" x2="179.2010983576182" y1="140.37084112569926" y2="142.7455964860345" /><path d="M 175.68104954172406 140.8457921977663 a86.0,86.0 0 0,1 -30.038265399797805,32.042727171017184" fill="none" id="id17" stroke="none" /><text fill="#e1ed5e" style="font-size:6.75px; font-family:Arial;" text-anchor="middle"><textPath startOffset="22.206326154141568" xlink:href="#id17">May</textPath></text><path d="M 118.48025628344425 109.97397251340804 l 18.765205587815114 10.127762400621672 a42.32380153716531,42.32380153716531 0 0,0 -0.35153663951305203,0.6381411114355635 l -18.588092538850553 -10.44927403045504" fill="#ffd113" stroke="none" /><path d="M 117.94076556474637 110.91462005526583 l 15.094547981332731 9.183067217932047 a38.668449345933396,38.668449345933396 0 0,0 -0.3508431871242164,0.5656709285469919 l -14.934240154540552 -9.441534477844312" fill="#ff9c0e" stroke="none" /><path d="M 117.75023020441432 111.22182372390056 l 21.412927081481747 13.537407140858708 a46.333275317144185,46.333275317144185 0 0,0 -0.43199190337661847,0.6704610273225052 l -21.17673031472808 -13.903989768102667" fill="#f6ff19" stroke="none" /><path d="M 117.55443506779139 111.5257021239791 l 14.804712658447066 9.720318966313057 a38.71056514360985,38.71056514360985 0 0,0 -0.37050968484102687,0.5538617074231499 l -14.635199868195318 -9.973717587942014" fill="#ff9d0e" stroke="none" /><path d="M 117.35343817320211 111.8261652097733 l 37.78384879575719 25.74925116624693 a66.72355154013204,66.72355154013204 0 0,0 -0.6549682088287271,0.9435305546550932 l -37.335019679766326 -26.39582298308904" fill="#35ff65" stroke="none" /><path d="M 116.93607887273984 112.41649034213515 l 16.411991164043968 12.03226150012566 a41.3501540725387,41.3501540725387 0 0,0 -0.42578594945754994,0.5704098602438051 l -16.202443947891325 -12.31298423987878" fill="#ffc312" stroke="none" /><path d="M 116.71984013943494 112.70617746262583 l 20.379444315158143 15.487279417663844 a46.59643675114616,46.59643675114616 0 0,0 -0.4908006738706184,0.6344260315744125 l -20.109836824069458 -15.83578344335151" fill="#f2ff19" stroke="none" /><path d="M 116.27256486870786 113.27417163493432 l 19.933719778271296 16.26071979398226 a46.7247777914028,46.7247777914028 0 0,0 -0.5137589569581064,0.6188557598351996 l -19.65086482141965 -16.60143681093123" fill="#f0ff19" stroke="none" /><path d="M 115.80600337817218 113.82643327865902 l 21.111080401142274 18.467093649359605 a49.04837363480655,49.04837363480655 0 0,0 -0.5613496448698819,0.6306822768380397 l -20.790071906624053 -18.82775009593851" fill="#d2ff1c" stroke="none" /><path d="M 115.32070863581623 114.36230785411682 l 23.90693063007188 22.411410967859215 a53.7690810631203,53.7690810631203 0 0,0 -0.6388111173153285,0.669790902571931 l -23.517612961377587 -22.819608987013652" fill="#96ff23" stroke="none" /><path d="M 115.07121518719521 114.62390073753431 l 18.50571836529956 17.956467682900286 a46.78558403183507,46.78558403183507 0 0,0 -0.5657922703398357,0.5731445827074283 l -18.193885469904192 -18.272352759588376" fill="#efff19" stroke="none" /><path d="M 114.55890576462653 115.13401014063108 l 14.32054106579072 14.886229584339926 a41.65617892192735,41.65617892192735 0 0,0 -0.5210278799521559,0.4926643814153036 l -14.062177351447756 -15.130528602501151" fill="#ffc812" stroke="none" /><path d="M 114.29624159901734 115.38237550388516 l 17.50595857499083 18.835945551904818 a46.714809555266356,46.714809555266356 0 0,0 -0.5937239865176305,0.542352784624007 l -17.179135039006336 -19.13449110311541" fill="#f0ff19" stroke="none" /><path d="M 114.0293411484842 115.62618273729858 l 23.92679068488156 26.65017548592785 a56.815124820512416,56.815124820512416 0 0,0 -0.733341621579363,0.6470887168754959 l -23.464506710395607 -27.058087344575632" fill="#71ff27" stroke="none" /><path d="M 112.92097659922987 116.55440617244103 l 16.689328571653547 21.382433579900226 a48.12456735086214,48.12456735086214 0 0,0 -0.657407420316301,0.5040719766080298 l -16.318792422843753 -21.666544898335626" fill="#deff1b" stroke="none" /><path d="M 112.63410532772338 116.77436683061366 l 15.336162553128217 20.36190215033214 a46.49127185990673,46.49127185990673 0 0,0 -0.6433839212783506,0.4759600438245086 l -14.983393661431302 -20.62287214289642" fill="#f3ff19" stroke="none" /><path d="M 112.34349029814194 116.9893568818739 l 15.108194242128723 20.794645405832654 a46.70359528961286,46.70359528961286 0 0,0 -0.6544567516637441,0.4669375154075958 l -14.748010162616096 -21.051627183084467" fill="#f1ff19" stroke="none" /><path d="M 112.04921762599082 117.19931262002967 l 26.50987070397146 37.840760114636716 a67.20277449239131,67.20277449239131 0 0,0 -0.953137319847603,0.6555765397612796 l -25.854576499500972 -38.29147744376309" fill="#36ff6b" stroke="none" /><path d="M 111.45004920935366 117.60387380957326 l 14.036108155277837 21.579809154111125 a46.742969822351796,46.742969822351796 0 0,0 -0.6782587395829405,0.43289681830340737 l -13.662567613647965 -21.818220401238342" fill="#f0ff19" stroke="none" /><line stroke="#e1ed5e" stroke-width="0.3" x1="143.8653032363475" x2="146.44561519142675" y1="172.8068346515853" y2="177.08958963109032" /><path d="M 144.38136562736335 173.6633856474863 a86.0,86.0 0 0,1 -40.68145358897372,12.25698825130547" fill="none" id="id18" stroke="none" /><text fill="#e1ed5e" style="font-size:6.75px; font-family:Arial;" text-anchor="middle"><textPath startOffset="21.466115282336833" xlink:href="#id18">June</textPath></text><path d="M 110.21172684928248 118.3499491758327 l 11.477513539112579 20.624502908873414 a44.603038729761906,44.603038729761906 0 0,0 -0.6740946197221711,0.36757013390982424 l -11.120796107521759 -20.81901369454301" fill="#fff116" stroke="none" /><path d="M 109.2508944713604 118.85261126421891 l 11.494173165750123 23.424240668657983 a47.09235649893395,47.09235649893395 0 0,0 -0.730800115096166,0.3508284658960175 l -11.089260382653725 -23.618623411053562" fill="#ebff1a" stroke="none" /><path d="M 108.92500713936063 119.00905698771935 l 9.749889723076649 20.765945222898768 a43.940898644399,43.940898644399 0 0,0 -0.6874281666392897,0.3155645550816816 l -9.390993560669939 -20.930696848314522" fill="#ffe815" stroke="none" /><path d="M 107.59598834532513 119.57807347666477 l 14.761702710099966 38.047148989753815 a61.81045715438504,61.81045715438504 0 0,0 -0.9952360110627956,0.37631310042367827 l -14.104596478276896 -38.29561034028412" fill="#39ff2e" stroke="none" /><path d="M 106.91757812671514 119.82793768551818 l 8.471333110600375 24.281484350941835 a46.716803202493644,46.716803202493644 0 0,0 -0.7615512246013647,0.2583595231240863 l -8.052112153061783 -24.423706860964042" fill="#f0ff19" stroke="none" /><path d="M 104.48393922423573 120.51570834832081 l 5.260194253442964 24.067367054365683 a45.635498787593505,45.635498787593505 0 0,0 -0.7688680539514213,0.16112377626958282 l -4.845134738062164 -24.15434681136181" fill="#ffff18" stroke="none" /><path d="M 103.41894727170886 120.7198165907248 l 3.47819660022694 21.078884784076788 a42.36392368761446,42.36392368761446 0 0,0 -0.7205178199067382,0.11253006527205597 l -3.114842916711685 -21.135633156695953" fill="#ffd213" stroke="none" /><path d="M 103.06178313531738 120.77559828337769 l 5.175744898314004 35.11979525403815 a56.49913173498732,56.49913173498732 0 0,0 -0.963367795098465,0.13351399817330634 l -4.570448512028709 -35.20368381770406" fill="#75ff27" stroke="none" /><path d="M 102.34483914955558 120.86867818915974 l 2.9488413986582906 26.2441976845767 a47.40934640807269,47.40934640807269 0 0,0 -0.8117550278369617,0.08414172770136148 l -2.496653774215726 -26.29106878073382" fill="#e7ff1a" stroke="none" /><path d="M 101.98527174616119 120.90594882070398 l 2.4695607906504353 26.00576550730973 a47.12275961915009,47.12275961915009 0 0,0 -0.8081680781207776,0.06973214237418549 l -2.021548394788116 -26.04442190196258" fill="#ebff1a" stroke="none" /><line stroke="#e1ed5e" stroke-width="0.3" x1="102.19456741930631" x2="102.32365962044197" y1="184.97166512339345" y2="189.96999836594603" /><path d="M 102.22038585953345 185.97133177190398 a86.0,86.0 0 0,1 -42.740103519485714,-10.115201625700543" fill="none" id="id19" stroke="none" /><text fill="#e1ed5e" style="font-size:6.75px; font-family:Arial;" text-anchor="middle"><textPath startOffset="22.20632615414155" xlink:href="#id19">July</textPath></text><path d="M 99.81925306533755 120.99922214144158 l -0.2268440057629758 26.35479089793301 a47.35576713883933,47.35576713883933 0 0,0 -0.8150611028586997,-0.014032016046869147 l 0.6804647985143434 -26.346981404606982" fill="#e8ff1a" stroke="none" /><path d="M 99.09653310690486 120.98055641714683 l -1.0950403427945665 25.42932770048269 a46.45289415078144,46.45289415078144 0 0,0 -0.7985737640551119,-0.04127714196707443 l 1.5326021752631673 -25.406710751753415" fill="#f4ff19" stroke="none" /><path d="M 98.73552117531835 120.96189622390904 l -1.58765737011161 26.319388179381118 a47.367230610396234,47.367230610396234 0 0,0 -0.813447013184812,-0.056100068617116514 l 2.040467144075352 -26.288159766247716" fill="#e8ff1a" stroke="none" /><path d="M 98.01472825383883 120.90594882070398 l -2.3821329106410327 25.085104248460357 a46.197956511592025,46.197956511592025 0 0,0 -0.7910132983333745,-0.08199176263049217 l 2.8135788055800006 -25.040383117374102" fill="#f7ff18" stroke="none" /><path d="M 96.58105272829116 120.7198165907248 l -4.190121709224942 25.393358366875834 a46.73673967476652,46.73673967476652 0 0,0 -0.7926351383433878,-0.13780977885501097 l 4.62660581904038 -25.317470009499818" fill="#f0ff19" stroke="none" /><path d="M 96.22490169976321 120.6578951692458 l -4.616705263378236 25.263292707421872 a46.681665170112694,46.681665170112694 0 0,0 -0.789214425767168,-0.15125482304443819 l 5.050887303717099 -25.180080686028965" fill="#f1ff19" stroke="none" /><path d="M 95.51606077576429 120.51570834832081 l -5.495651479827639 25.144672419903117 a46.73823491018699,46.73823491018699 0 0,0 -0.7844898123230477,-0.1785473272051711 l 5.927661441543549 -25.04634835912026" fill="#f0ff19" stroke="none" /><path d="M 94.11515582081647 120.15858648285463 l -6.793771786135988 23.27212614737421 a45.243497901528066,45.243497901528066 0 0,0 -0.7457098508370993,-0.22467626090603493 l 7.193356611413333 -23.15173451736245" fill="#fffa17" stroke="none" /><path d="M 93.08242187328487 119.8279376855182 l -10.790801273205261 30.929803943323847 a53.75811600337021,53.75811600337021 0 0,0 -0.8710873968259495,-0.3123409486966855 l 11.321608230660937 -30.739475453587204" fill="#96ff23" stroke="none" /><path d="M 92.7421414339146 119.70592522655815 l -9.589389252075522 26.036300631810512 a48.746086873969055,48.746086873969055 0 0,0 -0.7848811234997727,-0.2967748812995724 l 10.036140596335578 -25.867377500404306" fill="#d6ff1c" stroke="none" /><path d="M 91.40352486487194 119.15986991738527 l -8.002686102523192 17.836429734723744 a40.54945550487929,40.54945550487929 0 0,0 -0.6343711375027543,-0.29120867528804484 l 8.308525235793367 -17.696033989101625" fill="#ffb811" stroke="none" /><path d="M 90.42595943632237 118.69057910512821 l -22.434005857312936 43.79598752816978 a70.20745006981721,70.20745006981721 0 0,0 -1.0708611889418702,-0.5602239620290026 l 23.1845579487813 -43.40333414719606" fill="#3aff91" stroke="none" /><line stroke="#e1ed5e" stroke-width="0.3" x1="58.666819895761336" x2="56.23545636021788" y1="174.27360380694188" y2="178.64263932499728" /><path d="M 58.180547188652646 175.14741091055294 a86.0,86.0 0 0,1 -31.652253787137756,-30.449443065178592" fill="none" id="id20" stroke="none" /><text fill="#e1ed5e" style="font-size:6.75px; font-family:Arial;" text-anchor="middle"><textPath startOffset="22.20632615414155" xlink:href="#id20">August</textPath></text><path d="M 89.4739219176387 118.17145234162733 l -12.899080942572342 22.2680311474723 a46.734247615732414,46.734247615732414 0 0,0 -0.6926285419681504,-0.40921715115991947 l 13.280477355568873 -22.04269542401863" fill="#f0ff19" stroke="none" /><path d="M 88.24862548938628 117.40417183066458 l -14.093951610024627 20.87360549801165 a46.186243834131716,46.186243834131716 0 0,0 -0.6550597500535531,-0.45055606924053276 l 14.451168244701071 -20.627908639406016" fill="#f8ff18" stroke="none" /><path d="M 87.07902340077011 116.55440617244103 l -15.841859542441753 20.296652917703792 a46.747206322709786,46.747206322709786 0 0,0 -0.6300688802875595,-0.5005648246182076 l 16.188885915446672 -20.020954179080455" fill="#f0ff19" stroke="none" /><path d="M 86.51685102203217 116.09983520530335 l -16.60055683215557 19.822241061839783 a46.85536168479014,46.85536168479014 0 0,0 -0.6138822669978276,-0.5231637858269201 l 16.93930457573045 -19.533552885789913" fill="#efff19" stroke="none" /><path d="M 86.24171649860922 115.8653595955263 l -16.57946007028077 19.118598325734773 a46.30611187367239,46.30611187367239 0 0,0 -0.5976964633581886,-0.5273976359374226 l 16.906098886545546 -18.83037754802506" fill="#f6ff19" stroke="none" /><path d="M 85.44109423537348 115.13401014063109 l -15.766105768732885 16.388896833304475 a43.741284715766824,43.741284715766824 0 0,0 -0.5381220471172525,-0.5266656827817247 l 16.04587776822593 -16.115081047600178" fill="#ffe515" stroke="none" /><path d="M 84.67929136418377 114.36230785411682 l -18.38499581101897 17.234905774346057 a46.200199364722735,46.200199364722735 0 0,0 -0.5389002278905844,-0.5848697632875847 l 18.678942446905285 -16.915884756257128" fill="#f7ff18" stroke="none" /><line stroke="#e1ed5e" stroke-width="0.3" x1="26.63291911575756" x2="22.317208475507996" y1="142.92168965132927" y2="145.44649492493687" /><path d="M 25.769776987707644 143.4266507060508 a86.0,86.0 0 0,1 -11.730757126820373,-40.83630448921669" fill="none" id="id21" stroke="none" /><text fill="#e1ed5e" style="font-size:6.75px; font-family:Arial;" text-anchor="middle"><textPath startOffset="21.46611528233685" xlink:href="#id21">September</textPath></text><path d="M 81.51974371655577 109.97397251340807 l -26.699194248817292 14.409812585034976 a51.33957271076689,51.33957271076689 0 0,0 -0.4130329542042929,-0.7813026938216745 l 26.943279711246472 -13.948094876127175" fill="#b4ff20" stroke="none" /><path d="M 81.18737489456691 109.33194174019688 l -23.97643593319663 11.893433373183838 a47.76421561452989,47.76421561452989 0 0,0 -0.35902028024313964,-0.7396881155952625 l 24.177609470054488 -11.47895630162329" fill="#e2ff1b" stroke="none" /><path d="M 81.02952815118164 109.00673069616217 l -16.249727246014572 7.714985602746534 a38.98818052000965,38.98818052000965 0 0,0 -0.28261860563697494,-0.6087353336105574 l 16.380120468491373 -7.434130201857149" fill="#ffa10e" stroke="none" /><path d="M 80.58989483394504 108.01547362559985 l -26.06167271369352 10.76226267135075 a49.196401941432654,49.196401941432654 0 0,0 -0.3164907281062059,-0.7855040319438955 l 26.243066056057113 -10.312059271564051" fill="#d0ff1d" stroke="none" /><path d="M 80.45479744820244 107.68017299344265 l -37.4556012920986 14.717959393584023 a61.243513724125116,61.243513724125116 0 0,0 -0.37710174582489575,-0.9844936627426049 l 37.703397317517 -14.07104216400826" fill="#3fff2d" stroke="none" /><path d="M 80.20201598880116 107.00284435728193 l -26.13232394688712 9.243395549294647 a48.71892343049726,48.71892343049726 0 0,0 -0.272847242952441,-0.7930218049831619 l 26.28756202078279 -8.792201041222189" fill="#d6ff1c" stroke="none" /><path d="M 80.0844068197444 106.66101706037122 l -20.274668324599645 6.7811141943497475 a42.37862683591572,42.37862683591572 0 0,0 -0.2254295718505959,-0.6938008820770478 l 20.388390147466488 -6.431114412294896" fill="#ffd213" stroke="none" /><path d="M 79.86692584326677 105.97154293290107 l -25.62755425475951 7.601225689936044 a47.731071229376234,47.731071229376234 0 0,0 -0.22685296942883737,-0.7897049468954489 l 25.75459986107445 -7.1589632675359995" fill="#e3ff1b" stroke="none" /><path d="M 79.67330655649465 105.27499134158121 l -43.87522605142433 11.386083928231347 a66.32856018322568,66.32856018322568 0 0,0 -0.27728081538983307,-1.1075990242434226 l 44.064718181109214 -10.629157064590531" fill="#34ff60" stroke="none" /><path d="M 79.50377843672027 104.57218783832718 l -24.561851822858237 5.4791269622329635 a46.1655597441486,46.1655597441486 0 0,0 -0.16634102170786977,-0.7770898756416187 l 24.652526883290548 -5.055523267175181" fill="#f8ff18" stroke="none" /><path d="M 79.4281124754447 104.21870165774334 l -24.670836296917063 5.059278000596034 a46.18425018690442,46.18425018690442 0 0,0 -0.1530019705224538,-0.7801537514030278 l 24.754268200415183 -4.633860522125052" fill="#f8ff18" stroke="none" /><path d="M 79.29508885075956 103.50808413554451 l -16.441289813231137 2.785688262361928 a37.675613026744145,37.675613026744145 0 0,0 -0.10283333533599404,-0.6403432772993292 l 16.486804902928423 -2.5022657553693852" fill="#ff8e0d" stroke="none" /><path d="M 79.23777060512086 103.15116336523772 l -25.41453972557822 3.857262387601465 a46.705588936840144,46.705588936840144 0 0,0 -0.11379694194200288,-0.7958955468985882 l 25.477170718536822 -3.4192213687224764" fill="#f1ff19" stroke="none" /><path d="M 79.18660465613746 102.79330883721812 l -52.52323129072509 7.048999151736037 a73.9941337721467,73.9941337721467 0 0,0 -0.15855354020635362,-1.2638277176643562 l 52.6367863401783 -6.143853679784272" fill="#3fffbf" stroke="none" /><path d="M 79.10278846688536 102.07522291339032 l -26.154599897642065 2.5973142355444714 a47.283248220946746,47.283248220946746 0 0,0 -0.07345881250188795,-0.810611874734225 l 26.195433306421027 -2.1467209722616802" fill="#e9ff1a" stroke="none" /><path d="M 79.07016306316243 101.71520430193888 l -28.156588741126342 2.3074380503989183 a49.250978034279655,49.250978034279655 0 0,0 -0.06197049184823319,-0.8455381254840848 l 28.19213579163891 -1.8224267884180727" fill="#cfff1d" stroke="none" /><path d="M 79.0235259727143 100.99374915477108 l -16.78562671259355 0.7952100212955151 a37.804452478807605,37.804452478807605 0 0,0 -0.02519912873483043,-0.6502775428344484 l 16.796827974179582 -0.5061552314470699" fill="#ff900d" stroke="none" /><path d="M 79.0095281055655 100.63252640178507 l -36.40392130019057 1.0969949349724688 a57.420445959897634,57.420445959897634 0 0,0 -0.021267268060714318,-0.9882063786561693 l 36.41741063093629 -0.47019874052617044" fill="#6aff28" stroke="none" /><line stroke="#e1ed5e" stroke-width="0.3" x1="15.007084014347285" x2="10.007500721073583" y1="101.09737516637583" y2="101.16192664675087" /><path d="M 14.007167355692545 101.11028546245083 a86.0,86.0 0 0,1 10.666146001902534,-42.60595125391555" fill="none" id="id22" stroke="none" /><text fill="#e1ed5e" style="font-size:6.75px; font-family:Arial;" text-anchor="middle"><textPath startOffset="22.20632615414155" xlink:href="#id22">October</textPath></text><path d="M 79.00019446554 99.90962569577889 l -16.443699262168675 -0.07076674482538521 a37.443851536571955,37.443851536571955 0 0,0 0.00832143755269033,-0.6445045090017831 l 16.440044817498272 0.35380751188764026" fill="#ff8a0c" stroke="none" /><path d="M 79.01574976396665 99.18683210126434 l -16.861574648824856 -0.6534086790013004 a37.87423013176267,37.87423013176267 0 0,0 0.03085197230897888,-0.6512363736087461 l 16.84782906828238 0.9435561592330556" fill="#ff910d" stroke="none" /><path d="M 79.12142395522702 97.74499172005258 l -25.911012972784906 -2.798540890439848 a47.0617041728144,47.0617041728144 0 0,0 0.09392092423486563,-0.8046571223024759 l 25.859001695546453 3.2441417510671857" fill="#ecff1a" stroke="none" /><path d="M 79.21141760316559 97.0276538004421 l -27.456145036123218 -3.925672602142342 a48.735371020122386,48.735371020122386 0 0,0 0.12588603137574578,-0.8294316600234503 l 27.38450311130817 4.397703374557884" fill="#d6ff1c" stroke="none" /><path d="M 79.32604984820605 96.31383870115002 l -27.250527159412986 -4.858763702667251 a48.68029651546857,48.68029651546857 0 0,0 0.1541873658371275,-0.8236750736937293 l 27.162854069665997 5.327116853823553" fill="#d6ff1c" stroke="none" /><path d="M 79.3925641242962 95.95851677861259 l -27.171902322187535 -5.3288913764264265 a48.689517133894775,48.689517133894775 0 0,0 0.16837461980106544,-0.8210544431791076 l 27.076148406471475 5.795821475768936" fill="#d6ff1c" stroke="none" /><path d="M 79.46518482838121 95.60439243477599 l -24.7813613057907 -5.304607727019343 a46.3427451414738,46.3427451414738 0 0,0 0.17368734116038284,-0.778606293756882 l 24.68637957762828 5.730392190326184" fill="#f5ff19" stroke="none" /><path d="M 79.62865764111835 94.90015583598534 l -25.904981006867473 -6.485157623851165 a47.70440619771126,47.70440619771126 0 0,0 0.20627309850957268,-0.7948543926499096 l 25.789511576487595 6.930108442049939" fill="#e3ff1b" stroke="none" /><path d="M 79.71946130924805 94.55025226153421 l -24.532983459680253 -6.592456599201597 a46.40330217600266,46.40330217600266 0 0,0 0.2139263590497065,-0.7696069348541387 l 24.415870330064184 7.013774837474679" fill="#f5ff19" stroke="none" /><path d="M 79.81627453868168 94.20196356495316 l -24.984488949050153 -7.17711789705231 a46.994916990700276,46.994916990700276 0 0,0 0.23003811106518263,-0.7755741524410704 l 24.857244940873265 7.606121436239919" fill="#edff1a" stroke="none" /><path d="M 80.02781315780177 93.51064311812611 l -26.32197124054334 -8.552526899728633 a48.6765584269174,48.6765584269174 0 0,0 0.26578028186222796,-0.7946492136152564 l 26.17085366490934 9.004349216266212" fill="#d6ff1c" stroke="none" /><path d="M 80.14247586403 93.16781622104843 l -16.021249956958528 -5.5122745073835295 a37.94301096110411,37.94301096110411 0 0,0 0.21780538457908225,-0.6157651521935902 l 15.923991491569636 5.787237286003731" fill="#ff920d" stroke="none" /><path d="M 80.2630227832202 92.82701384747504 l -59.210931650339425 -21.518958457574875 a84.0,84.0 0 0,0 0.5055816459934896,-1.3547074518826343 l 58.83174541584431 22.534989046486853" fill="#4dd2ff" stroke="none" /><path d="M 80.52162464483688 92.15188598940014 l -26.352126149990774 -10.617645808535931 a49.41071901836608,49.41071901836608 0 0,0 0.32464798380448195,-0.7861608436296338 l 26.16545647930009 11.069681222618877" fill="#cdff1d" stroke="none" /><path d="M 80.65960295795068 91.81776055985345 l -15.422483040564252 -6.524708294516209 a37.74588909150603,37.74588909150603 0 0,0 0.2583064251284396,-0.5962068428567572 l 15.307885905593132 6.789214281959565" fill="#ff8f0d" stroke="none" /><path d="M 80.803312248108 91.48605970444005 l -29.978142562116297 -13.295633040678442 a53.7942508593648,53.7942508593648 0 0,0 0.3827017351943491,-0.8432325444634002 l 29.744838509958594 13.809687593983913" fill="#96ff23" stroke="none" /><path d="M 81.10775173730289 90.83032412892265 l -22.928699592044705 -11.128836572589984 a46.48678615364533,46.48678615364533 0 0,0 0.35560174883614554,-0.716871426540823 l 22.733737830255148 11.52186758762977" fill="#f4ff19" stroke="none" /><path d="M 81.26839172434947 90.50648371742162 l -51.912465439241686 -26.310172018537628 a79.19904827078793,79.19904827078793 0 0,0 0.6267683202524637,-1.210716898378254 l 51.45188768582911 27.19986163917622" fill="#46fffa" stroke="none" /><path d="M 81.6062741919709 89.86733742301443 l -25.064137134747916 -13.80723226062415 a49.61556627096989,49.61556627096989 0 0,0 0.4185246875167299,-0.7445087188526724 l 24.822754805938754 14.236624489411607" fill="#caff1d" stroke="none" /><line stroke="#e1ed5e" stroke-width="0.3" x1="26.266209847984243" x2="21.928928074336255" y1="57.711370442889674" y2="55.22380399835377" /><path d="M 25.398753493254645 57.213857153982495 a86.0,86.0 0 0,1 29.58750427330803,-30.492523968695096" fill="none" id="id23" stroke="none" /><text fill="#e1ed5e" style="font-size:6.75px; font-family:Arial;" text-anchor="middle"><textPath startOffset="21.46611528233685" xlink:href="#id23">November</textPath></text><path d="M 81.78341655067845 89.55222093294921 l -25.038065349510514 -14.36011180503819 a49.8637753507672,49.8637753507672 0 0,0 0.43343570403179194,-0.7408821184380907 l 24.787169971008396 14.788973335830173" fill="#c7ff1e" stroke="none" /><path d="M 82.15384107792192 88.93136811851018 l -22.907969815733168 -14.208092965536867 a47.95635336605974,47.95635336605974 0 0,0 0.44113543119046567,-0.6977703132403739 l 22.66000678829674 14.600310926491456" fill="#e0ff1b" stroke="none" /><path d="M 82.34701348167596 88.62581576622439 l -26.204946973299446 -16.884389188267832 a52.173415663579945,52.173415663579945 0 0,0 0.4929229148820975,-0.7507554168627858 l 25.910427423059428 17.332962669108284" fill="#aaff21" stroke="none" /><path d="M 82.54541684631803 88.32363383020206 l -52.34034347421386 -35.01344090987339 a83.97183973291456,83.97183973291456 0 0,0 0.8140291496384277,-1.1944873311731465 l 51.729889858906695 35.90920626431695" fill="#4dd2ff" stroke="none" /><line stroke="#e1ed5e" stroke-width="0.3" x1="56.762969772571076" x2="54.21961505331055" y1="26.818313649435495" y2="22.513508569990535" /><path d="M 56.25429882871897 25.957352633546506 a86.0,86.0 0 0,1 42.265352541879196,-11.944610805530505" fill="none" id="id24" stroke="none" /><text fill="#e1ed5e" style="font-size:6.75px; font-family:Arial;" text-anchor="middle"><textPath startOffset="22.20632615414155" xlink:href="#id24">December</textPath></text></svg>