<?xml version="1.0" encoding="utf-8" ?>
<svg baseProfile="full" height="200mm" version="1.1" viewBox="0,0,200,200" width="200mm" xmlns="http://www.w3.org/2000/svg" xmlns:ev="http://www.w3.org/2001/xml-events" xmlns:xlink="http://www.w3.org/1999/xlink"><defs /><rect fill="#1a1a1a" height="200" width="200" x="0" y="0" /><text alignment-baseline="middle" fill="#e1ed5e" style="dominant-baseline: central; font-size:9.0px; font-family:Arial;" text-anchor="middle" x="100.0" y="100.0">2025</text><line stroke="#e1ed5e" stroke-width="0.3" x1="100.0" x2="100.0" y1="15.0" y2="10.0" /><path d="M 100.0 14.0 a86.0,86.0 0 0,1 42.46469731375804,11.215312516191453" fill="none" id="id37" stroke="none" /><text fill="#e1ed5e" style="font-size:6.75px; font-family:Arial;" text-anchor="middle"><textPath startOffset="22.20632615414155" xlink:href="#id37">January</textPath></text><path d="M 101.80526077348638 79.07773832637324 l 1.8605157722199268 -21.562645356282566 a42.642763079133246,42.642763079133246 0 0,0 0.7307647116011383,0.06939491469512576 l -2.231405610911309 21.52742489707226" fill="#fff216" stroke="none" /><path d="M 103.59715602781102 79.31037775812273 l 0.8051577541000065 -4.630994499169544 a25.700466898120435,25.700466898120435 0 0,0 0.43520054375738204,0.07953011763979212 l -0.8847534189602894 4.616448900179014" fill="#ff0000" stroke="none" /><line stroke="#e1ed5e" stroke-width="0.3" x1="143.23703022742887" x2="145.7803849466894" y1="26.81831364943548" y2="22.513508569990506" /><path d="M 143.74570117128098 25.957352633546492 a86.0,86.0 0 0,1 28.547481713284135,27.462654790039103" fill="none" id="id38" stroke="none" /><text fill="#e1ed5e" style="font-size:6.75px; font-family:Arial;" text-anchor="middle"><textPath startOffset="19.985693538727396" xlink:href="#id38">February</textPath></text><path d="M 111.60114157652 82.49532879139004 l 14.303861737888136 -21.582737792107512 a46.892373997366214,46.892373997366214 0 0,0 0.668987386559222,0.4517032697001323 l -14.6732538188539 21.33332261010871" fill="#d6ff1c" stroke="none" /><path d="M 112.48926042617603 83.11751280151076 l 18.29779570838476 -24.734234955973303 a51.76673051598228,51.76673051598228 0 0,0 0.7118020258972939,0.5361145287022644 l -18.720843888040438 24.415603837765193" fill="#9bff22" stroke="none" /><path d="M 113.6212207817346 84.01681056812373 l 16.591809056293837 -19.468888392138204 a46.57979169160781,46.57979169160781 0 0,0 0.6057728556533345,0.5253202510377275 l -16.924475710593935 19.180403147680806" fill="#d9ff1c" stroke="none" /><path d="M 114.16331599549186 84.49514656593476 l 23.765760510652438 -26.016833457930975 a56.23757931282175,56.23757931282175 0 0,0 0.7091079826903436,0.6590385885309097 l -24.21007637713763 25.603890283325427" fill="#68ff28" stroke="none" /><path d="M 114.68862486808459 84.99185889309783 l 29.995650280318163 -30.64813459689155 a63.88411349215851,63.88411349215851 0 0,0 0.779277276892321,0.7759308126118422 l -30.518763357377804 30.12726793362959" fill="#32ff4d" stroke="none" /><path d="M 114.94478906791727 85.2469230424477 l 25.00340323526204 -24.682658982616232 a56.134083562791815,56.134083562791815 0 0,0 0.6729026122395524,0.6934852917223809 l -25.4245701112047 24.248609495343736" fill="#69ff28" stroke="none" /><path d="M 115.4437574822437 85.77008943001954 l 19.621318841172183 -18.079124377339607 a47.680533939901835,47.680533939901835 0 0,0 0.5509516561590537,0.6083745795569697 l -19.929614137947272 17.738697010513086" fill="#ccff1d" stroke="none" /><path d="M 115.68641384162765 86.03803664274999 l 31.520245794899978 -28.055138748924094 a63.19735424398421,63.19735424398421 0 0,0 0.7162611671629165,0.8188103323295105 l -31.99849882564074 27.508412860391637" fill="#32ff44" stroke="none" /><path d="M 116.15771136456269 86.58626213691792 l 23.701716431220724 -19.676586859373234 a51.804860529151206,51.804860529151206 0 0,0 0.5636899404134466,0.6910172154980814 l -24.03690486371058 19.265685474267052" fill="#9aff22" stroke="none" /><path d="M 116.38621287248628 86.86637796730983 l 32.8100252996303 -26.29738027460177 a63.04818628037831,63.04818628037831 0 0,0 0.6714509327408681,0.8526744976711016 l -33.25783031296513 25.72871338297763" fill="#31ff43" stroke="none" /><line stroke="#e1ed5e" stroke-width="0.3" x1="172.23445277983987" x2="176.4835382374775" y1="55.19839476539836" y2="52.563006222186495" /><path d="M 173.08426987136738 54.67131705675599 a86.0,86.0 0 0,1 12.851231095245387,41.99856678651699" fill="none" id="id39" stroke="none" /><text fill="#e1ed5e" style="font-size:6.75px; font-family:Arial;" text-anchor="middle"><textPath startOffset="22.20632615414155" xlink:href="#id39">March</textPath></text><path d="M 118.03404312379186 89.2402003453031 l 26.842722154687443 -16.015394362126965 a52.25739255357357,52.25739255357357 0 0,0 0.4542419737172006,0.7764467777818667 l -27.11442380287497 15.550968171991203" fill="#95ff23" stroke="none" /><path d="M 119.196687751892 91.48605970444005 l 24.398615529505744 -10.821051975076276 a47.690590207111214,47.690590207111214 0 0,0 0.3263609936117883,0.7532861698508845 l -24.58126723296021 10.399466660638788" fill="#ccff1d" stroke="none" /><path d="M 119.61058180528143 92.48833698450437 l 40.04599912765319 -15.3392721109758 a63.88327546989105,63.88327546989105 0 0,0 0.3845025186133766,1.0302755872587452 l -40.30410623476819 14.647673386687723" fill="#32ff4d" stroke="none" /><path d="M 120.87857604477298 97.74499172005257 l 20.94398041922986 -2.262072334777067 a42.06578474799473,42.06578474799473 0 0,0 0.07155765436338275,0.7205758139987561 l -20.97981519927547 1.9012209900738755" fill="#ffeb16" stroke="none" /><line stroke="#e1ed5e" stroke-width="0.3" x1="184.98032266829074" x2="189.97916517819016" y1="98.17113171792111" y2="98.06355123074" /><path d="M 185.9800911702706 98.14961562048488 a86.0,86.0 0 0,1 -9.607161424134198,41.387399972396054" fill="none" id="id40" stroke="none" /><text fill="#e1ed5e" style="font-size:6.75px; font-family:Arial;" text-anchor="middle"><textPath startOffset="21.466115282336823" xlink:href="#id40">April</textPath></text><path d="M 120.5718875245553 104.21870165774334 l 21.093183209861674 4.3256043894033 a42.53214413983,42.53214413983 0 0,0 -0.1532493129262277,0.7159297706680703 l -21.015599858211004 -4.688047979487539" fill="#fff116" stroke="none" /><path d="M 120.41448212921028 104.9243191809786 l 20.99940563648404 5.065412647275846 a42.60169998802825,42.60169998802825 0 0,0 -0.17809272622595818,0.7113919133402761 l -20.90910159596302 -5.426132400013517" fill="#fff216" stroke="none" /><path d="M 120.23288151984713 105.62410040840565 l 20.32573364382584 5.6499103588013915 a42.09637256075662,42.09637256075662 0 0,0 -0.2000727591404513,0.696479521648044 l -20.225468247799288 -5.998947355954018" fill="#ffeb16" stroke="none" /><line stroke="#e1ed5e" stroke-width="0.3" x1="174.80103733775053" x2="179.2010983576182" y1="140.37084112569926" y2="142.7455964860345" /><path d="M 175.68104954172406 140.8457921977663 a86.0,86.0 0 0,1 -30.038265399797805,32.042727171017184" fill="none" id="id41" stroke="none" /><text fill="#e1ed5e" style="font-size:6.75px; font-family:Arial;" text-anchor="middle"><textPath startOffset="22.206326154141568" xlink:href="#id41">May</textPath></text><path d="M 116.498646956653 112.99209946851258 l 24.219610796417943 19.07208472200421 a51.82748713037232,51.82748713037232 0 0,0 -0.5579650715897505,0.6961472178599748 l -23.88772781277334 -19.486159773442434" fill="#9aff23" stroke="none" /><path d="M 116.0416608686014 113.55231037782055 l 16.431835747862845 13.881937784152873 a42.51077457201006,42.51077457201006 0 0,0 -0.4770467834210591,0.554913182979512 l -16.190446454871005 -14.162728066293914" fill="#fff116" stroke="none" /><path d="M 115.56566222782051 114.09645910891815 l 16.97787073873276 15.375372863821605 a43.905243625044896,43.905243625044896 0 0,0 -0.5121308158941751,0.5558168535885657 l -16.710693514842866 -15.665340972211505" fill="#fbff18" stroke="none" /><path d="M 114.0293411484842 115.62618273729858 l 14.111079598050377 15.717224785251235 a42.12235125104753,42.12235125104753 0 0,0 -0.5436945438167237,0.4797472206376023 l -13.838442701327066 -15.957795147661125" fill="#ffeb16" stroke="none" /><path d="M 113.20401910651253 116.32954008644616 l 27.01952566955197 33.41531271490601 a63.972524841374366,63.972524841374366 0 0,0 -0.8622354203954353,0.6850119653471287 l -26.440332756439187 -33.87545859425826" fill="#33ff4e" stroke="none" /><path d="M 112.63410532772338 116.77436683061366 l 13.657579281802887 18.13323848016655 a43.70118520292111,43.70118520292111 0 0,0 -0.6047724395471771,0.4473961927099455 l -13.343421871837146 -18.365644621616266" fill="#feff18" stroke="none" /><line stroke="#e1ed5e" stroke-width="0.3" x1="143.8653032363475" x2="146.44561519142675" y1="172.8068346515853" y2="177.08958963109032" /><path d="M 144.38136562736335 173.6633856474863 a86.0,86.0 0 0,1 -40.68145358897372,12.25698825130547" fill="none" id="id42" stroke="none" /><text fill="#e1ed5e" style="font-size:6.75px; font-family:Arial;" text-anchor="middle"><textPath startOffset="21.466115282336833" xlink:href="#id42">June</textPath></text><path d="M 103.7750983002368 120.6578951692458 l 4.617900784002117 25.269834772755345 a46.68831557524243,46.68831557524243 0 0,0 -0.791813886302862,0.13766699366089802 l -4.182237926227206 -25.34558034493725" fill="#d8ff1c" stroke="none" /><line stroke="#e1ed5e" stroke-width="0.3" x1="102.19456741930631" x2="102.32365962044197" y1="184.97166512339345" y2="189.96999836594603" /><path d="M 102.22038585953345 185.97133177190398 a86.0,86.0 0 0,1 -42.740103519485714,-10.115201625700543" fill="none" id="id43" stroke="none" /><text fill="#e1ed5e" style="font-size:6.75px; font-family:Arial;" text-anchor="middle"><textPath startOffset="22.20632615414155" xlink:href="#id43">July</textPath></text><line stroke="#e1ed5e" stroke-width="0.3" x1="58.666819895761336" x2="56.23545636021788" y1="174.27360380694188" y2="178.64263932499728" /><path d="M 58.180547188652646 175.14741091055294 a86.0,86.0 0 0,1 -31.652253787137756,-30.449443065178592" fill="none" id="id44" stroke="none" /><text fill="#e1ed5e" style="font-size:6.75px; font-family:Arial;" text-anchor="middle"><textPath startOffset="22.20632615414155" xlink:href="#id44">August</textPath></text><path d="M 87.07902340077011 116.55440617244103 l -15.447009735413582 19.790769787860192 a46.10547108823178,46.10547108823178 0 0,0 -0.6214194350600228,-0.4936931822171567 l 15.785386663190963 -19.521942691637907" fill="#dfff1b" stroke="none" /><line stroke="#e1ed5e" stroke-width="0.3" x1="26.63291911575756" x2="22.317208475507996" y1="142.92168965132927" y2="145.44649492493687" /><path d="M 25.769776987707644 143.4266507060508 a86.0,86.0 0 0,1 -11.730757126820373,-40.83630448921669" fill="none" id="id45" stroke="none" /><text fill="#e1ed5e" style="font-size:6.75px; font-family:Arial;" text-anchor="middle"><textPath startOffset="21.46611528233685" xlink:href="#id45">September</textPath></text><path d="M 79.97269907076064 106.31721596034903 l -16.505600081452407 5.206365083247868 a38.30725487848677,38.30725487848677 0 0,0 -0.19294676118703946,-0.6305611793841361 l 16.592773615145575 -4.921476931311684" fill="#ffb811" stroke="none" /><path d="M 79.67330655649465 105.27499134158121 l -20.56476697100719 5.336773933015588 a42.245959535496226,42.245959535496226 0 0,0 -0.17660558399835016,-0.7054515193829913 l 20.6535838693006 -4.981994574235205" fill="#ffed16" stroke="none" /><line stroke="#e1ed5e" stroke-width="0.3" x1="15.007084014347285" x2="10.007500721073583" y1="101.09737516637583" y2="101.16192664675087" /><path d="M 14.007167355692545 101.11028546245083 a86.0,86.0 0 0,1 10.666146001902534,-42.60595125391555" fill="none" id="id46" stroke="none" /><text fill="#e1ed5e" style="font-size:6.75px; font-family:Arial;" text-anchor="middle"><textPath startOffset="22.20632615414155" xlink:href="#id46">October</textPath></text><path d="M 79.08570108090925 98.10471618934814 l -20.992334233705673 -1.9023554829570526 a42.07835508200647,42.07835508200647 0 0,0 0.07157903762347959,-0.7207911405097769 l 20.956478070399964 2.2634221541712596" fill="#ffeb16" stroke="none" /><path d="M 79.12142395522702 97.74499172005258 l -20.9035713471132 -2.257707918735821 a42.02514066802347,42.02514066802347 0 0,0 0.08386946716054205,-0.7185423764110632 l 20.86161152694907 2.617194033471746" fill="#ffea16" stroke="none" /><path d="M 79.21141760316559 97.0276538004421 l -29.20099389749682 -4.17515064652773 a50.49796480306476,50.49796480306476 0 0,0 0.13043890399408622,-0.8594294020480114 l 29.12479910006343 4.6771791609678335" fill="#aaff21" stroke="none" /><path d="M 79.26566170972629 96.67025291283419 l -20.784810960200957 -3.337852541187006 a42.05111935831438,42.05111935831438 0 0,0 0.12092327709711996,-0.7136960265014594 l 20.724275821583614 3.6951343560042935" fill="#ffeb16" stroke="none" /><path d="M 79.3925641242962 95.95851677861259 l -20.724621701646086 -4.064465437718776 a42.119418173111455,42.119418173111455 0 0,0 0.1456543715896251,-0.7102624439682074 l 20.65158803414147 4.420603537850386" fill="#ffeb16" stroke="none" /><path d="M 79.46518482838121 95.60439243477599 l -20.661831267696094 -4.42279616702814 a42.12989345145457,42.12989345145457 0 0,0 0.1578980518874083,-0.7078260059146375 l 20.582638828806648 4.777800342492736" fill="#ffec16" stroke="none" /><path d="M 79.62865764111835 94.90015583598534 l -29.016501396174707 -7.2641082113514885 a50.91194780318448,50.91194780318448 0 0,0 0.2201424577217428,-0.8482986913620915 l 28.88716260658266 7.7625033282624445" fill="#a5ff21" stroke="none" /><path d="M 79.71946130924805 94.55025226153421 l -20.379679358361084 -5.476388629880533 a42.102657727762484,42.102657727762484 0 0,0 0.19409972677923112,-0.6982799896476563 l 20.28239286101549 5.826379922947131" fill="#ffeb16" stroke="none" /><path d="M 79.81627453868168 94.20196356495316 l -41.336002335990536 -11.874301802339346 a64.00772177660721,64.00772177660721 0 0,0 0.3133150637118951,-1.0563426375750313 l 41.12548137516693 12.584073826660916" fill="#33ff4f" stroke="none" /><path d="M 80.02781315780177 93.51064311812611 l -24.413107273369803 -7.932299399364667 a46.66946007422483,46.66946007422483 0 0,0 0.25482126620575424,-0.7618831516922414 l 24.272948713392275 8.35135565397923" fill="#d8ff1c" stroke="none" /><path d="M 80.14247586403 93.16781622104843 l -40.65566366558684 -13.98799588088552 a63.99473243146175,63.99473243146175 0 0,0 0.36735084947682284,-1.0385503194683856 l 40.40885973530021 14.685743826780518" fill="#33ff4f" stroke="none" /><path d="M 80.38941819471856 92.48833698450439 l -39.58740936198439 -15.163613284722508 a63.39219442116605,63.39219442116605 0 0,0 0.39908842807771566,-1.0156365188020264 l 39.320527384024984 15.842798808420298" fill="#32ff47" stroke="none" /><path d="M 80.52162464483688 92.15188598940014 l -24.055121198620583 -9.692149897682814 a46.93427511073865,46.93427511073865 0 0,0 0.30837676699994004,-0.7467588015160959 l 23.884722744734443 10.104783269652222" fill="#d5ff1c" stroke="none" /><path d="M 80.803312248108 91.48605970444005 l -57.59006325567602 -25.54182088667983 a84.0,84.0 0 0,0 0.5975907321465934,-1.3167119646317162 l 57.141870206566075 26.529354860153617" fill="#4dd2ff" stroke="none" /><path d="M 81.10775173730289 90.83032412892265 l -25.26279368828435 -12.261729069952137 a49.08128815994254,49.08128815994254 0 0,0 0.37544845210680877,-0.7568811692722305 l 25.047985223224128 12.694769827723329" fill="#bbff1f" stroke="none" /><path d="M 81.26839172434947 90.50648371742162 l -18.78767079293668 -9.521929775582624 a42.06285167005866,42.06285167005866 0 0,0 0.3328785315213854,-0.643015369790773 l 18.620982828255183 9.843917867633733" fill="#ffeb16" stroke="none" /><line stroke="#e1ed5e" stroke-width="0.3" x1="26.266209847984243" x2="21.928928074336255" y1="57.711370442889674" y2="55.22380399835377" /><path d="M 25.398753493254645 57.213857153982495 a86.0,86.0 0 0,1 29.58750427330803,-30.492523968695096" fill="none" id="id47" stroke="none" /><text fill="#e1ed5e" style="font-size:6.75px; font-family:Arial;" text-anchor="middle"><textPath startOffset="21.46611528233685" xlink:href="#id47">November</textPath></text><path d="M 81.78341655067845 89.55222093294921 l -28.282992297020176 -16.221178669229076 a53.60451334849755,53.60451334849755 0 0,0 0.46595168173783585,-0.796462464546755 l 27.999580940812013 16.705620546129722" fill="#86ff25" stroke="none" /><path d="M 81.96595687620814 89.24020034530311 l -36.74888774784739 -21.92579151472294 a63.79276906500658,63.79276906500658 0 0,0 0.5707454043281179,-0.9381553773158494 l 36.366026545233055 22.555114665245863" fill="#32ff4c" stroke="none" /><path d="M 82.34701348167596 88.62581576622439 l -22.781080830153723 -14.67832143517109 a48.10038309589369,48.10038309589369 0 0,0 0.4544418022284917,-0.692146042253955 l 22.52504239256731 15.068285541402712" fill="#c7ff1e" stroke="none" /><path d="M 82.54541684631803 88.32363383020206 l -35.01747819851672 -23.42518834100869 a63.1303124625883,63.1303124625883 0 0,0 0.6119898615271806,-0.898019606208604 l 34.6090638713208 24.024485970487707" fill="#31ff44" stroke="none" /><line stroke="#e1ed5e" stroke-width="0.3" x1="56.762969772571076" x2="54.21961505331055" y1="26.818313649435495" y2="22.513508569990535" /><path d="M 56.25429882871897 25.957352633546506 a86.0,86.0 0 0,1 42.265352541879196,-11.944610805530505" fill="none" id="id48" stroke="none" /><text fill="#e1ed5e" style="font-size:6.75px; font-family:Arial;" text-anchor="middle"><textPath startOffset="22.20632615414155" xlink:href="#id48">December</textPath></text></svg>