<?xml version="1.0" encoding="utf-8" ?>
<svg baseProfile="full" height="200mm" version="1.1" viewBox="0,0,200,200" width="200mm" xmlns="http://www.w3.org/2000/svg" xmlns:ev="http://www.w3.org/2001/xml-events" xmlns:xlink="http://www.w3.org/1999/xlink"><defs /><rect fill="#1a1a1a" height="200" width="200" x="0" y="0" /><text alignment-baseline="middle" fill="#e1ed5e" style="dominant-baseline: central; font-size:9.0px; font-family:Arial;" text-anchor="middle" x="100.0" y="100.0">2024</text><line stroke="#e1ed5e" stroke-width="0.3" x1="100.0" x2="100.0" y1="15.0" y2="10.0" /><path d="M 100.0 14.0 a86.0,86.0 0 0,1 42.35913384403234,11.155469271406648" fill="none" id="id25" stroke="none" /><text fill="#e1ed5e" style="font-size:6.75px; font-family:Arial;" text-anchor="middle"><textPath startOffset="22.145653131862478" xlink:href="#id25">January</textPath></text><path d="M 100.0 79.0 l 0.0 -63.0 a84.0,84.0 0 0,0 1.441971699395419,0.012377592777739643 l -1.0814787745465644 62.990716805416696" fill="#4dd2ff" stroke="none" /><path d="M 101.80034050326958 79.07731436759882 l 0.6736453503631681 -7.8287800934214875 a28.85770932328363,28.85770932328363 0 0,0 0.4931925940873751,0.046705851430481136 l -0.8079375078355562 7.816062486485823" fill="#ff0000" stroke="none" /><path d="M 102.15924093988457 79.11130261209362 l 0.8096054217658524 -7.832198040751895 a28.873930853678516,28.873930853678516 0 0,0 0.4925948954540035,0.05519628549024923 l -0.9439362188206526 7.817145994754675" fill="#ff0000" stroke="none" /><path d="M 102.87502721639298 79.19773525538626 l 1.4345121285061475 -10.379415160452986 a31.478076355890547,31.478076355890547 0 0,0 0.5346399790433611,0.07857366558055282 l -1.6124772131571907 10.353260421573552" fill="#ff2b04" stroke="none" /><path d="M 103.23170211078529 79.25015418208739 l 1.7894677664823553 -11.489666738377235 a32.62818286088809,32.62818286088809 0 0,0 0.5526942227674343,0.09094562403156338 l -1.98643949230286 11.457255115850002" fill="#ff3d05" stroke="none" /><path d="M 103.58742460773223 79.30868818359171 l 1.9159522795566593 -11.05070360397778 a32.215566115025396,32.215566115025396 0 0,0 0.5440829685709109,0.0991500412309001 l -2.1053699816786238 11.016185388815515" fill="#ff3605" stroke="none" /><path d="M 104.29559338865022 79.4440306129975 l 3.582302268598117 -17.142613163261096 a38.51291168277896,38.51291168277896 0 0,0 0.6459854733382275,0.1407895272815147 l -3.8760501585554787 17.078592177845863" fill="#ff970d" stroke="none" /><path d="M 104.64783097203109 79.52079915486377 l 2.9725186064003104 -13.097465446290611 a34.430542356218254,34.430542356218254 0 0,0 0.5752652496235221,0.13576103254508462 l -3.1969160097637173 13.0445082700993" fill="#ff5908" stroke="none" /><path d="M 105.3480935250658 79.69241777938227 l 2.730843888824944 -10.369459050045625 a31.72302146485335,31.72302146485335 0 0,0 0.5254217563820934,0.14320603614870822 l -2.90844704614173 10.321052519752776" fill="#ff2e04" stroke="none" /><path d="M 105.69591212413111 79.78721728523813 l 3.0898400014770537 -10.96475212611577 a32.39179092249713,32.39179092249713 0 0,0 0.5339092432786101,0.15541319944171952 l -3.2776092571372684 10.910095232371534" fill="#ff3905" stroke="none" /><path d="M 106.04205211174951 79.88797359093562 l 3.1743791399497976 -10.566475746030484 a32.03300016385384,32.03300016385384 0 0,0 0.5252792220784608,0.16273284572715113 l -3.3552989948998886 10.510426312496687" fill="#ff3304" stroke="none" /><path d="M 106.72888874123014 80.10723608172694 l 3.9725975580115165 -11.744278795934456 a33.397968212354584,33.397968212354584 0 0,0 0.5415150191300331,0.18836703352836515 l -4.173618349186568 11.6743533298375" fill="#ff4906" stroke="none" /><path d="M 107.06938296918511 80.22567764915836 l 4.014660242396014 -11.229719214292016 a32.92577420940521,32.92577420940521 0 0,0 0.5305923420309314,0.1948408574634908 l -4.20684173608107 11.159147507819803" fill="#ff4206" stroke="none" /><path d="M 109.06512990194946 81.05736502329252 l 3.609034020700283 -7.54149304114689 a29.360576765525153,29.360576765525153 0 0,0 0.45276770767950525,0.22147137430521427 l -3.7379619776418553 7.478427916744455" fill="#ff0801" stroke="none" /><line stroke="#e1ed5e" stroke-width="0.3" x1="143.13028292997686" x2="145.6673583964461" y1="26.7553504044142" y2="22.446841604673864" /><path d="M 143.63769802327073 25.89364864446614 a86.0,86.0 0 0,1 29.32050498858742,28.57503671076993" fill="none" id="id26" stroke="none" /><text fill="#e1ed5e" style="font-size:6.75px; font-family:Arial;" text-anchor="middle"><textPath startOffset="20.669276256404974" xlink:href="#id26">February</textPath></text><path d="M 115.41159269507618 85.73525988315684 l 5.955402187387833 -5.512231355653977 a29.11489431427167,29.11489431427167 0 0,0 0.3363495381137169,0.3697070621536115 l -6.049149426343427 5.409186717942694" fill="#ff0400" stroke="none" /><line stroke="#e1ed5e" stroke-width="0.3" x1="172.87174338648825" x2="177.1583165268699" y1="56.24261187166439" y2="53.66864786411523" /><path d="M 173.72905801456457 55.72781907015455 a86.0,86.0 0 0,1 12.242430191666344,42.057860355516425" fill="none" id="id27" stroke="none" /><text fill="#e1ed5e" style="font-size:6.75px; font-family:Arial;" text-anchor="middle"><textPath startOffset="22.145653131862474" xlink:href="#id27">March</textPath></text><path d="M 118.36410011445183 89.81374322990088 l 8.633891061276643 -4.789073830305281 a30.87316074061937,30.87316074061937 0 0,0 0.2530932473128904,0.465663068569182 l -8.714829658204875 4.640155928261495" fill="#ff2103" stroke="none" /><path d="M 118.8641267826498 90.77261029715802 l 9.398725183602942 -4.59738746342528 a31.462887104702606,31.462887104702606 0 0,0 0.2331560875217779,0.4872065493041124 l -9.476260529084632 4.435368412056064" fill="#ff2a04" stroke="none" /><path d="M 119.71291397450082 92.76114493625339 l 12.114575643579027 -4.448639980679672 a33.90555464525643,33.90555464525643 0 0,0 0.19594154030067196,0.5480833612657706 l -12.189157353923642 4.240021663032984" fill="#ff5107" stroke="none" /><path d="M 119.83427380445688 93.10060997987247 l 14.86560738149634 -5.171029916304939 a36.73930853678519,36.73930853678519 0 0,0 0.20209170177855015,0.5974482069661562 l -14.952184504847253 4.915080034864621" fill="#ff7c0b" stroke="none" /><path d="M 120.05942366710727 93.78553927170692 l 15.382851305981474 -4.765646656486391 a37.10414550221203,37.10414550221203 0 0,0 0.18326564355287098,0.6100317234672478 l -15.462393269537971 4.50087732942842" fill="#ff820c" stroke="none" /><path d="M 120.35273937422433 94.82641323984039 l 15.568480704769652 -3.9574469150822273 a37.0635916762248,37.0635916762248 0 0,0 0.15145326085366909,0.6179809878349528 l -15.634121492139611 3.6896101026391794" fill="#ff810b" stroke="none" /><line stroke="#e1ed5e" stroke-width="0.3" x1="184.99686870605535" x2="189.99668451229388" y1="99.2704041080226" y2="99.22748670261217" /><path d="M 185.99683186730306 99.26182062694052 a86.0,86.0 0 0,1 -10.086455211305974,41.156179273409016" fill="none" id="id28" stroke="none" /><text fill="#e1ed5e" style="font-size:6.75px; font-family:Arial;" text-anchor="middle"><textPath startOffset="21.40746469413373" xlink:href="#id28">April</textPath></text><line stroke="#e1ed5e" stroke-width="0.3" x1="174.33088141563837" x2="178.70328620479359" y1="141.23008692659167" y2="143.65538615756765" /><path d="M 175.20536237346943 141.71514677278685 a86.0,86.0 0 0,1 -30.301960400862466,31.631185727798858" fill="none" id="id29" stroke="none" /><text fill="#e1ed5e" style="font-size:6.75px; font-family:Arial;" text-anchor="middle"><textPath startOffset="22.145653131862474" xlink:href="#id29">May</textPath></text><line stroke="#e1ed5e" stroke-width="0.3" x1="143.1302829299769" x2="145.66735839644613" y1="173.24464959558577" y2="177.55315839532614" /><path d="M 143.63769802327073 174.10635135553383 a86.0,86.0 0 0,1 -40.68552437913181,11.842963189579606" fill="none" id="id30" stroke="none" /><text fill="#e1ed5e" style="font-size:6.75px; font-family:Arial;" text-anchor="middle"><textPath startOffset="21.407464694133747" xlink:href="#id30">June</textPath></text><line stroke="#e1ed5e" stroke-width="0.3" x1="101.45913802915013" x2="101.54496967792366" y1="184.9874750549273" y2="189.98673829345242" /><path d="M 101.47630435890484 185.9873277026323 a86.0,86.0 0 0,1 -42.54439059252881,-10.42667462771756" fill="none" id="id31" stroke="none" /><text fill="#e1ed5e" style="font-size:6.75px; font-family:Arial;" text-anchor="middle"><textPath startOffset="22.145653131862474" xlink:href="#id31">July</textPath></text><line stroke="#e1ed5e" stroke-width="0.3" x1="58.13341422392154" x2="55.67067388415222" y1="173.97424548756322" y2="178.32567169271397" /><path d="M 57.64086615596768 174.84453072859336 a86.0,86.0 0 0,1 -31.369924170532247,-30.572349798747897" fill="none" id="id32" stroke="none" /><text fill="#e1ed5e" style="font-size:6.75px; font-family:Arial;" text-anchor="middle"><textPath startOffset="22.145653131862474" xlink:href="#id32">August</textPath></text><line stroke="#e1ed5e" stroke-width="0.3" x1="26.387840678322732" x2="22.057713659400548" y1="142.50000000000003" y2="145.00000000000006" /><path d="M 25.521815274538298 143.00000000000003 a86.0,86.0 0 0,1 -11.493303480769221,-40.785679425670985" fill="none" id="id33" stroke="none" /><text fill="#e1ed5e" style="font-size:6.75px; font-family:Arial;" text-anchor="middle"><textPath startOffset="21.40746469413373" xlink:href="#id33">September</textPath></text><line stroke="#e1ed5e" stroke-width="0.3" x1="15.003131293944662" x2="10.003315487706104" y1="100.72959589197737" y2="100.7725132973878" /><path d="M 14.003168132696942 100.73817937305945 a86.0,86.0 0 0,1 10.791469493833604,-42.45332614584628" fill="none" id="id34" stroke="none" /><text fill="#e1ed5e" style="font-size:6.75px; font-family:Arial;" text-anchor="middle"><textPath startOffset="22.145653131862435" xlink:href="#id34">October</textPath></text><line stroke="#e1ed5e" stroke-width="0.3" x1="26.387840678322718" x2="22.05771365940052" y1="57.49999999999999" y2="54.99999999999999" /><path d="M 25.521815274538284 56.99999999999999 a86.0,86.0 0 0,1 29.574782752854787,-30.34633250058573" fill="none" id="id35" stroke="none" /><text fill="#e1ed5e" style="font-size:6.75px; font-family:Arial;" text-anchor="middle"><textPath startOffset="21.40746469413373" xlink:href="#id35">November</textPath></text><line stroke="#e1ed5e" stroke-width="0.3" x1="56.869717070023135" x2="54.33264160355391" y1="26.7553504044142" y2="22.446841604673864" /><path d="M 56.362301976729285 25.89364864446614 a86.0,86.0 0 0,1 42.16139366436587,-11.88097634709845" fill="none" id="id36" stroke="none" /><text fill="#e1ed5e" style="font-size:6.75px; font-family:Arial;" text-anchor="middle"><textPath startOffset="22.145653131862474" xlink:href="#id36">December</textPath></text></svg>