<?xml version="1.0" encoding="utf-8" ?>
<svg baseProfile="full" height="200mm" version="1.1" viewBox="0,0,200,200" width="200mm" xmlns="http://www.w3.org/2000/svg" xmlns:ev="http://www.w3.org/2001/xml-events" xmlns:xlink="http://www.w3.org/1999/xlink"><defs /><rect fill="#1a1a1a" height="200" width="200" x="0" y="0" /><text alignment-baseline="middle" fill="#e1ed5e" style="dominant-baseline: central; font-size:9.0px; font-family:Arial;" text-anchor="middle" x="100.0" y="100.0">2024</text><line stroke="#e1ed5e" stroke-width="0.3" x1="100.0" x2="100.0" y1="15.0" y2="10.0" /><path d="M 100.0 14.0 a86.0,86.0 0 0,1 42.35913384403234,11.155469271406648" fill="none" id="id25" stroke="none" /><text fill="#e1ed5e" style="font-size:6.75px; font-family:Arial;" text-anchor="middle"><textPath startOffset="22.145653131862478" xlink:href="#id25">January</textPath></text><path d="M 100.0 79.0 l 0.0 -63.0 a84.0,84.0 0 0,0 1.441971699395419,0.012377592777739643 l -1.0814787745465644 62.990716805416696" fill="#4dd2ff" stroke="none" /><path d="M 101.80034050326958 79.07731436759882 l 0.6736453503631681 -7.8287800934214875 a28.85770932328363,28.85770932328363 0 0,0 0.4931925940873751,0.046705851430481136 l -0.8079375078355562 7.816062486485823" fill="#ff4606" stroke="none" /><path d="M 102.15924093988457 79.11130261209362 l 0.8096054217658524 -7.832198040751895 a28.873930853678516,28.873930853678516 0 0,0 0.4925948954540035,0.05519628549024923 l -0.9439362188206526 7.817145994754675" fill="#ff4606" stroke="none" /><path d="M 102.87502721639298 79.19773525538626 l 1.4345121285061475 -10.379415160452986 a31.478076355890547,31.478076355890547 0 0,0 0.5346399790433611,0.07857366558055282 l -1.6124772131571907 10.353260421573552" fill="#ff6b09" stroke="none" /><path d="M 103.23170211078529 79.25015418208739 l 1.7894677664823553 -11.489666738377235 a32.62818286088809,32.62818286088809 0 0,0 0.5526942227674343,0.09094562403156338 l -1.98643949230286 11.457255115850002" fill="#ff7c0b" stroke="none" /><path d="M 103.58742460773223 79.30868818359171 l 1.9159522795566593 -11.05070360397778 a32.215566115025396,32.215566115025396 0 0,0 0.5440829685709109,0.0991500412309001 l -2.1053699816786238 11.016185388815515" fill="#ff760a" stroke="none" /><path d="M 104.29559338865022 79.4440306129975 l 3.582302268598117 -17.142613163261096 a38.51291168277896,38.51291168277896 0 0,0 0.6459854733382275,0.1407895272815147 l -3.8760501585554787 17.078592177845863" fill="#ffcb12" stroke="none" /><path d="M 104.64783097203109 79.52079915486377 l 2.9725186064003104 -13.097465446290611 a34.430542356218254,34.430542356218254 0 0,0 0.5752652496235221,0.13576103254508462 l -3.1969160097637173 13.0445082700993" fill="#ff940d" stroke="none" /><path d="M 105.3480935250658 79.69241777938227 l 2.730843888824944 -10.369459050045625 a31.72302146485335,31.72302146485335 0 0,0 0.5254217563820934,0.14320603614870822 l -2.90844704614173 10.321052519752776" fill="#ff6f0a" stroke="none" /><path d="M 105.69591212413111 79.78721728523813 l 3.0898400014770537 -10.96475212611577 a32.39179092249713,32.39179092249713 0 0,0 0.5339092432786101,0.15541319944171952 l -3.2776092571372684 10.910095232371534" fill="#ff780b" stroke="none" /><path d="M 106.04205211174951 79.88797359093562 l 3.1743791399497976 -10.566475746030484 a32.03300016385384,32.03300016385384 0 0,0 0.5252792220784608,0.16273284572715113 l -3.3552989948998886 10.510426312496687" fill="#ff730a" stroke="none" /><path d="M 106.72888874123014 80.10723608172694 l 3.9725975580115165 -11.744278795934456 a33.397968212354584,33.397968212354584 0 0,0 0.5415150191300331,0.18836703352836515 l -4.173618349186568 11.6743533298375" fill="#ff860c" stroke="none" /><path d="M 107.06938296918511 80.22567764915836 l 4.014660242396014 -11.229719214292016 a32.92577420940521,32.92577420940521 0 0,0 0.5305923420309314,0.1948408574634908 l -4.20684173608107 11.159147507819803" fill="#ff800b" stroke="none" /><path d="M 109.06512990194946 81.05736502329252 l 3.609034020700283 -7.54149304114689 a29.360576765525153,29.360576765525153 0 0,0 0.45276770767950525,0.22147137430521427 l -3.7379619776418553 7.478427916744455" fill="#ff4d07" stroke="none" /><line stroke="#e1ed5e" stroke-width="0.3" x1="143.13028292997686" x2="145.6673583964461" y1="26.7553504044142" y2="22.446841604673864" /><path d="M 143.63769802327073 25.89364864446614 a86.0,86.0 0 0,1 29.32050498858742,28.57503671076993" fill="none" id="id26" stroke="none" /><text fill="#e1ed5e" style="font-size:6.75px; font-family:Arial;" text-anchor="middle"><textPath startOffset="20.669276256404974" xlink:href="#id26">February</textPath></text><path d="M 115.41159269507618 85.73525988315684 l 5.955402187387833 -5.512231355653977 a29.11489431427167,29.11489431427167 0 0,0 0.3363495381137169,0.3697070621536115 l -6.049149426343427 5.409186717942694" fill="#ff4a06" stroke="none" /><line stroke="#e1ed5e" stroke-width="0.3" x1="172.87174338648825" x2="177.1583165268699" y1="56.24261187166439" y2="53.66864786411523" /><path d="M 173.72905801456457 55.72781907015455 a86.0,86.0 0 0,1 12.242430191666344,42.057860355516425" fill="none" id="id27" stroke="none" /><text fill="#e1ed5e" style="font-size:6.75px; font-family:Arial;" text-anchor="middle"><textPath startOffset="22.145653131862474" xlink:href="#id27">March</textPath></text><path d="M 118.36410011445183 89.81374322990088 l 8.633891061276643 -4.789073830305281 a30.87316074061937,30.87316074061937 0 0,0 0.2530932473128904,0.465663068569182 l -8.714829658204875 4.640155928261495" fill="#ff6309" stroke="none" /><path d="M 118.8641267826498 90.77261029715802 l 9.398725183602942 -4.59738746342528 a31.462887104702606,31.462887104702606 0 0,0 0.2331560875217779,0.4872065493041124 l -9.476260529084632 4.435368412056064" fill="#ff6b09" stroke="none" /><path d="M 119.71291397450082 92.76114493625339 l 12.114575643579027 -4.448639980679672 a33.90555464525643,33.90555464525643 0 0,0 0.19594154030067196,0.5480833612657706 l -12.189157353923642 4.240021663032984" fill="#ff8d0d" stroke="none" /><path d="M 119.83427380445688 93.10060997987247 l 14.86560738149634 -5.171029916304939 a36.73930853678519,36.73930853678519 0 0,0 0.20209170177855015,0.5974482069661562 l -14.952184504847253 4.915080034864621" fill="#ffb410" stroke="none" /><path d="M 120.05942366710727 93.78553927170692 l 15.382851305981474 -4.765646656486391 a37.10414550221203,37.10414550221203 0 0,0 0.18326564355287098,0.6100317234672478 l -15.462393269537971 4.50087732942842" fill="#ffb911" stroke="none" /><path d="M 120.35273937422433 94.82641323984039 l 15.568480704769652 -3.9574469150822273 a37.0635916762248,37.0635916762248 0 0,0 0.15145326085366909,0.6179809878349528 l -15.634121492139611 3.6896101026391794" fill="#ffb811" stroke="none" /><path d="M 120.51834098615036 95.52812308129327 l 17.560205315922637 -3.8271650175338507 a38.97242339832869,38.97242339832869 0 0,0 0.13685312933879845,0.654891765276665 l -17.6233161560858 3.5251568009717813" fill="#ffd113" stroke="none" /><path d="M 120.65975698304385 96.23510406497455 l 15.113041909229608 -2.7540996777758218 a36.361936752416845,36.361936752416845 0 0,0 0.10663602434444876,0.6150482509980582 l -15.158092751066292 2.494258393857171" fill="#ffaf10" stroke="none" /><path d="M 120.7213421655516 96.59031103205396 l 10.661346628957437 -1.7543205306767453 a31.804718990660334,31.804718990660334 0 0,0 0.08402277869350551,0.5394865130867968 l -10.689890899789209 1.5710458356585073" fill="#ff700a" stroke="none" /><path d="M 120.82617615685814 97.30363454192243 l 15.935746766853928 -2.0632014637342126 a37.06875307225954,37.06875307225954 0 0,0 0.07628734155898766,0.6317686244345881 l -15.968816194672579 1.7893391623762116" fill="#ffb811" stroke="none" /><path d="M 120.86939407059847 97.66154086499901 l 15.577963869214711 -1.7455433440687222 a36.675454694412586,36.675454694412586 0 0,0 0.0647367314366154,0.626269152220647 l -15.605632993132993 1.4778696695651437" fill="#ffb310" stroke="none" /><path d="M 120.93736805541906 98.37931529534042 l 10.246866823480167 -0.7931722978523905 a31.27751925282648,31.27751925282648 0 0,0 0.036841996709443284,0.5356745464484981 l -10.258972781354677 0.6171543272495582" fill="#ff6909" stroke="none" /><path d="M 120.98066250479742 99.09900007780936 l 18.771802090766215 -0.8061419518707327 a39.78910371948223,39.78910371948223 0 0,0 0.0234477434592127,0.6826554670827581 l -18.78287452122228 0.48378022022385464" fill="#ffdc14" stroke="none" /><line stroke="#e1ed5e" stroke-width="0.3" x1="184.99686870605535" x2="189.99668451229388" y1="99.2704041080226" y2="99.22748670261217" /><path d="M 185.99683186730306 99.26182062694052 a86.0,86.0 0 0,1 -10.086455211305974,41.156179273409016" fill="none" id="id28" stroke="none" /><text fill="#e1ed5e" style="font-size:6.75px; font-family:Arial;" text-anchor="middle"><textPath startOffset="21.40746469413373" xlink:href="#id28">April</textPath></text><path d="M 120.99922638620191 99.81974689727618 l 16.309115703245414 -0.13999414331394353 a37.30971653285269,37.30971653285269 0 0,0 0.0,0.6404944920755389 l -16.309115703245414 -0.13999414331394155" fill="#ffbb11" stroke="none" /><path d="M 120.99922638620191 100.18025310272382 l 16.39007290428958 0.14068906351755608 a37.390676716369,37.390676716369 0 0,0 -0.011018798115777518,0.6417897493532693 l -16.38524267457513 -0.4220257288398964" fill="#ffbc11" stroke="none" /><path d="M 120.96210409425399 101.26102812881392 l 22.191194577756175 1.3349671602004902 a43.2313124692774,43.2313124692774 0 0,0 -0.05092244876786707,0.7404012291435211 l -22.16500816782324 -1.7157118134983549" fill="#f6ff19" stroke="none" /><path d="M 120.9064616781168 101.97986365728391 l 15.50080950839591 1.467942776575974 a36.570162215303945,36.570162215303945 0 0,0 -0.06455087713708058,0.6244711804660766 l -15.473326238777165 -1.733818479324982" fill="#ffb110" stroke="none" /><path d="M 120.86939407059847 102.33845913500097 l 14.892250321851606 1.6687077108250952 a35.98544977879731,35.98544977879731 0 0,0 -0.07405790783082228,0.6133057149803184 l -14.861410327761119 -1.9241071027288221" fill="#ffaa0f" stroke="none" /><path d="M 120.77682067341334 103.0534771498775 l 15.068532541345865 2.2145553701612575 a36.23039488776011,36.23039488776011 0 0,0 -0.09571467845782244,0.6145568967766909 l -15.028296370749777 -2.4729004488693986" fill="#ffad10" stroke="none" /><path d="M 120.7213421655516 103.40968896794604 l 16.489233207496145 2.7132970494043462 a37.71097820743896,37.71097820743896 0 0,0 -0.11059226073578585,0.6378667711743902 l -16.440226129268122 -2.9959568534993246" fill="#ffc111" stroke="none" /><path d="M 120.51834098615036 104.47187691870673 l 23.614559169276166 5.14668326088352 a45.16890054071769,45.16890054071769 0 0,0 -0.17161845993006788,0.7561826001828433 l -23.522729847788433 -5.55130019500538" fill="#deff1b" stroke="none" /><path d="M 120.35273937422433 105.17358676015961 l 15.817452910405521 4.020734676156627 a37.32048173029658,37.32048173029658 0 0,0 -0.16316251448933844,0.6195546436847621 l -15.746100915111452 -4.291669824214192" fill="#ffbb11" stroke="none" /><path d="M 120.16314734710363 105.8691983318838 l 15.379420462168738 4.476725154461886 a37.01772898574471,37.01772898574471 0 0,0 -0.18283881311951175,0.6086109437736836 l -15.300305329045596 -4.740073701826293" fill="#ffb711" stroke="none" /><path d="M 120.05942366710727 106.21446072829308 l 14.689944035422492 4.550982212846444 a36.37874815664427,36.37874815664427 0 0,0 -0.18992354256292196,0.5949327920254354 l -14.609655777082315 -4.802484038563263" fill="#ffaf10" stroke="none" /><path d="M 119.94978838288452 106.5578916946017 l 13.76096905610073 4.523503856316379 a35.48538423726036,35.48538423726036 0 0,0 -0.19519424764332263,0.5770571094126398 l -13.681289386885043 -4.7590626402031795" fill="#ffa30f" stroke="none" /><path d="M 119.83427380445688 106.89939002012753 l 3.9557585987246093 1.3760181828256033 a25.188251679501885,25.188251679501885 0 0,0 -0.1455639019387957,0.4071681407176398 l -3.931554526741871 -1.4437212799241645" fill="#ff1001" stroke="none" /><path d="M 119.71291397450082 107.23885506374661 l 14.586384299242658 5.356322357156761 a36.53875143372112,36.53875143372112 0 0,0 -0.22126704924287818,0.586937136223585 l -14.492286566185339 -5.605927773574504" fill="#ffb110" stroke="none" /><path d="M 119.58574465831526 107.57618678355244 l 13.945026356952624 5.394235768155004 a35.95197443880059,35.95197443880059 0 0,0 -0.2275953866418179,0.5736890506479058 l -13.850372295344682 -5.632825836016473" fill="#ffa90f" stroke="none" /><path d="M 119.4528033332814 107.91128576633889 l 2.9069239128219957 1.1822206486811513 a24.138128789120106,24.138128789120106 0 0,0 -0.15939688687146553,0.38249450209232116 l -2.8862011814140445 -1.2319476602147503" fill="#ff0000" stroke="none" /><path d="M 119.31412917781788 108.2440532568976 l 14.963352694525582 6.386965489341742 a37.26945764378175,37.26945764378175 0 0,0 -0.2562117580650427,0.5862626427916041 l -14.851507054443573 -6.642890201909191" fill="#ffbb11" stroke="none" /><path d="M 119.16976305983485 108.57439118712176 l 14.079619073929827 6.297634526244137 a36.42387350483369,36.42387350483369 0 0,0 -0.26019747027997003,0.5685784307287124 l -13.9694371387948 -6.538401939187538" fill="#ffaf10" stroke="none" /><path d="M 118.8641267826498 109.22738970284198 l 14.352694537953884 7.020622121208438 a36.97776503359004,36.97776503359004 0 0,0 -0.28381330368334345,0.567816726361663 l -14.230061321058807 -7.2659707037338475" fill="#ffb711" stroke="none" /><path d="M 118.70294669586154 109.54985784667822 l 14.251338051692894 7.27683475399832 a37.00165492380796,37.00165492380796 0 0,0 -0.2937084433510536,0.5632246670355231 l -14.12432153936689 -7.520405664138345" fill="#ffb711" stroke="none" /><path d="M 118.5362547648365 109.86951160357373 l 13.38419037722513 7.126327508351353 a36.1631492708504,36.1631492708504 0 0,0 -0.29645972950150284,0.5454525113275375 l -13.259885298108287 -7.3550348531534935" fill="#ffac0f" stroke="none" /><line stroke="#e1ed5e" stroke-width="0.3" x1="174.33088141563837" x2="178.70328620479359" y1="141.23008692659167" y2="143.65538615756765" /><path d="M 175.20536237346943 141.71514677278685 a86.0,86.0 0 0,1 -30.301960400862466,31.631185727798858" fill="none" id="id29" stroke="none" /><text fill="#e1ed5e" style="font-size:6.75px; font-family:Arial;" text-anchor="middle"><textPath startOffset="22.145653131862474" xlink:href="#id29">May</textPath></text><path d="M 117.423217284605 111.72311816256416 l 13.003973871470409 8.749653969640004 a36.673537604456826,36.673537604456826 0 0,0 -0.3559258738608377,0.5193064869365718 l -12.851858260794252 -8.971595191646621" fill="#ffb310" stroke="none" /><path d="M 117.21940702142032 112.02048342749411 l 13.052948173553473 9.11197156818221 a36.918777650335905,36.918777650335905 0 0,0 -0.3672273919945098,0.5165513159865179 l -12.894605683029003 -9.33470011087823" fill="#ffb610" stroke="none" /><path d="M 116.79662413953412 112.60449989151573 l 11.775526141800858 8.836574346360676 a35.72236604948386,35.72236604948386 0 0,0 -0.37227472257882244,0.4873195620348203 l -11.62209944186773 -9.037414821636373" fill="#ffa60f" stroke="none" /><path d="M 116.35404254752997 113.17365903436017 l 11.934037255933559 9.613215647207966 a36.324332295592335,36.324332295592335 0 0,0 -0.39533531834241303,0.4822448077541376 l -11.767255118352518 -9.816662736660597" fill="#ffae10" stroke="none" /><path d="M 115.6541949942343 113.99807769240083 l 12.041465781279214 10.767552952982566 a37.153547435687365,37.153547435687365 0 0,0 -0.4292160014180016,0.4717835731349257 l -11.854852079019333 -10.972674101675164" fill="#ffb911" stroke="none" /><path d="M 115.41159269507618 114.26474011684316 l 10.90160677723639 10.090364481470905 a35.85464525643127,35.85464525643127 0 0,0 -0.4219650670753746,0.44811227848623386 l -10.726785876424756 -10.276018219901635" fill="#ffa80f" stroke="none" /><path d="M 114.39649973595853 115.28858382429668 l 10.26828549201731 10.904563356077734 a35.97822382434868,35.97822382434868 0 0,0 -0.45327461452024775,0.41954421620286775 l -10.079581106183095 -11.07922531841298" fill="#ffa90f" stroke="none" /><path d="M 113.59037401385872 116.0094264158162 l 9.467897999528684 11.1531600367539 a35.629903326233006,35.629903326233006 0 0,0 -0.4696796053348459,0.3918234315043544 l -9.275044060031945 -11.314045652170124" fill="#ffa50f" stroke="none" /><path d="M 113.03279911837588 116.46651593811092 l 9.628212581520778 12.164932067861823 a36.51412420121252,36.51412420121252 0 0,0 -0.49483602990567305,0.38478748984362265 l -9.417966606979872 -12.328420609326239" fill="#ffb110" stroke="none" /><path d="M 112.45986205192187 116.90419585922612 l 12.224203510737139 16.584479788575734 a41.602818286088805,41.602818286088805 0 0,0 -0.5785149029285269,0.41880017592310564 l -11.937707597434644 -16.791880735871917" fill="#fff316" stroke="none" /><path d="M 111.5731344415666 117.5232005979908 l 8.54961548128185 12.945207529612821 a36.51368179583811,36.51368179583811 0 0,0 -0.5259958744017477,0.34094417088534906 l -8.326133974623092 -13.090065542202066" fill="#ffb110" stroke="none" /><line stroke="#e1ed5e" stroke-width="0.3" x1="143.1302829299769" x2="145.66735839644613" y1="173.24464959558577" y2="177.55315839532614" /><path d="M 143.63769802327073 174.10635135553383 a86.0,86.0 0 0,1 -40.68552437913181,11.842963189579606" fill="none" id="id30" stroke="none" /><text fill="#e1ed5e" style="font-size:6.75px; font-family:Arial;" text-anchor="middle"><textPath startOffset="21.407464694133747" xlink:href="#id30">June</textPath></text><path d="M 110.65571695917076 118.09573695890943 l 7.661011776740862 13.010072854055842 a36.09811568081272,36.09811568081272 0 0,0 -0.536671600552209,0.30984749304524634 l -7.436547708328255 -13.139667244377259" fill="#ffab0f" stroke="none" /><path d="M 110.02825361518725 118.45085714620011 l 7.550168650771423 13.89145992420144 a36.810683270522695,36.810683270522695 0 0,0 -0.5577891007247201,0.296991278539873 l -7.310590734260149 -14.01902167046388" fill="#ffb510" stroke="none" /><path d="M 109.71004243097381 118.62028667847754 l 7.315295630641813 14.028043929639564 a36.82085859413403,36.82085859413403 0 0,0 -0.562960731795711,0.2874517609089135 l -7.073407677132519 -14.151553642221314" fill="#ffb510" stroke="none" /><path d="M 108.07796709384702 119.3841803445677 l 6.367319859434801 15.279249721237964 a37.55289202031788,37.55289202031788 0 0,0 -0.5971724171229641,0.24286482326957196 l -6.104092981121395 -15.386301801086828" fill="#ffbf11" stroke="none" /><path d="M 104.64783097203109 120.47920084513623 l 2.6415968707755124 11.639363219969812 a32.93535965918401,32.93535965918401 0 0,0 -0.5524319759109798,0.12039997794652846 l -2.4414024782453967 -11.68299465605006" fill="#ff800b" stroke="none" /><path d="M 100.72087961077811 120.9876233191556 l 0.5170468974437961 15.053256271425639 a36.06213337702769,36.06213337702769 0 0,0 -0.6188720350136107,0.015939948331711598 l -0.25856154835944145 -15.059913937107396" fill="#ffab0f" stroke="none" /><line stroke="#e1ed5e" stroke-width="0.3" x1="101.45913802915013" x2="101.54496967792366" y1="184.9874750549273" y2="189.98673829345242" /><path d="M 101.47630435890484 185.9873277026323 a86.0,86.0 0 0,1 -42.54439059252881,-10.42667462771756" fill="none" id="id31" stroke="none" /><text fill="#e1ed5e" style="font-size:6.75px; font-family:Arial;" text-anchor="middle"><textPath startOffset="22.145653131862474" xlink:href="#id31">July</textPath></text><path d="M 99.63950707515114 120.99690560180557 l -0.28309677057545607 16.488967627980973 a37.49139767327544,37.49139767327544 0 0,0 -0.6434000265870267,-0.016571702387862697 l 0.5661101112332266 -16.48167820824306" fill="#ffbe11" stroke="none" /><path d="M 98.55909050195518 120.95050786540614 l -1.0389989231600592 15.106816313828077 a36.14250368671145,36.14250368671145 0 0,0 -0.6186064967359253,-0.04788405518827707 l 1.2981744146712204 -15.086754491644745" fill="#ffac0f" stroke="none" /><path d="M 98.19965949673042 120.92268563240118 l -1.294090872741799 15.03929754452788 a36.094871374733735,36.094871374733735 0 0,0 -0.6168792902835072,-0.058419110156828394 l 1.5520697264103214 -15.014866678865868" fill="#ffab0f" stroke="none" /><path d="M 96.05791012581884 120.62667999033965 l -2.9004963653501603 15.176622616613509 a36.45130263804687,36.45130263804687 0 0,0 -0.6136030280725823,-0.12273779056956777 l 3.1605958789537008 -15.12459542938108" fill="#ffb010" stroke="none" /><path d="M 94.6519064749342 120.30758222061772 l -2.853426533888134 10.834925319805901 a32.20435851220711,32.20435851220711 0 0,0 -0.5333940410244143,-0.1453789177791453 l 3.0390019758472437 -10.784345907882612" fill="#ff760a" stroke="none" /><path d="M 93.61358852112213 120.00534299687104 l -4.700719357482714 14.724936435664205 a36.457053907914144,36.457053907914144 0 0,0 -0.5945577150386223,-0.19544293034999063 l 4.952799810169079 -14.642072583912192" fill="#ffb010" stroke="none" /><path d="M 93.27111125876986 119.89276391827306 l -4.8481359079067845 14.332652354430376 a36.130411273144354,36.130411273144354 0 0,0 -0.5858188805783394,-0.20377821633965174 l 5.093460560530146 -14.247315705522134" fill="#ffac0f" stroke="none" /><path d="M 92.59220618246901 119.65005319985036 l -5.362773852038253 14.225394778393117 a36.202670817630676,36.202670817630676 0 0,0 -0.5796353381287397,-0.2242154007734638 l 5.606181452660521 -14.131239489481612" fill="#ffad10" stroke="none" /><path d="M 92.25597844496254 119.51999308798841 l -5.66561977732279 14.281062895617971 a36.363853842372606,36.363853842372606 0 0,0 -0.578264131646818,-0.23517498817534777 l 5.909938370160049 -14.181700650863332" fill="#ffaf10" stroke="none" /><path d="M 91.26138138417905 119.09545874513695 l -7.279270738835093 15.906520263563376 a38.49300344093069,38.49300344093069 0 0,0 -0.5984952409736879,-0.2801259925719865 l 7.551254693680271 -15.779218039420861" fill="#ffcb12" stroke="none" /><path d="M 90.6110303473126 118.78422872680471 l -6.734779732073635 13.474070914235996 a36.06346059315091,36.06346059315091 0 0,0 -0.551380737488843,-0.28153893330510055 l 6.96508769127606 -13.35647402925806" fill="#ffab0f" stroke="none" /><path d="M 90.28995756902619 118.62028667847754 l -7.695505807803702 14.75714707693848 a37.6431427166967,37.6431427166967 0 0,0 -0.5704032867331198,-0.3037076220924928 l 7.947697910323384 -14.622868987123415" fill="#ffc011" stroke="none" /><path d="M 89.97174638481275 118.45085714620012 l -7.1865825450022776 13.222502441142774 a36.04930362116992,36.04930362116992 0 0,0 -0.5411786894999558,-0.3001826964237729 l 7.412505422658335 -13.097186829285853" fill="#ffaa0f" stroke="none" /><line stroke="#e1ed5e" stroke-width="0.3" x1="58.13341422392154" x2="55.67067388415222" y1="173.97424548756322" y2="178.32567169271397" /><path d="M 57.64086615596768 174.84453072859336 a86.0,86.0 0 0,1 -31.369924170532247,-30.572349798747897" fill="none" id="id32" stroke="none" /><text fill="#e1ed5e" style="font-size:6.75px; font-family:Arial;" text-anchor="middle"><textPath startOffset="22.145653131862474" xlink:href="#id32">August</textPath></text><path d="M 89.34428304082925 118.09573695890944 l -7.613645829067655 12.929635119721514 a36.00476814681304,36.00476814681304 0 0,0 -0.529899735329736,-0.31818956580946745 l 7.834478320954819 -12.797031553376128" fill="#ffaa0f" stroke="none" /><path d="M 89.03521579738668 117.91015095944536 l -7.823390596473815 12.778920588711252 a35.98353268884155,35.98353268884155 0 0,0 -0.5240502413864625,-0.3270461092134221 l 8.04160496664999 -12.642738682656281" fill="#ffaa0f" stroke="none" /><path d="M 88.72937992617639 117.7192867562869 l -8.376787261160722 13.169700921926493 a36.60806160904473,36.60806160904473 0 0,0 -0.5273554577122193,-0.3418254363611772 l 8.601628351129952 -13.023961643861421" fill="#ffb210" stroke="none" /><path d="M 88.1277618465304 117.32195027204791 l -8.479781047253336 12.372253969269478 a35.999311813862036,35.999311813862036 0 0,0 -0.506741585073518,-0.35374498191609977 l 8.69091772350062 -12.224864171548248" fill="#ffaa0f" stroke="none" /><path d="M 87.83215693770417 117.11559508785305 l -8.722447421471085 12.26921464031596 a36.05372767491398,36.05372767491398 0 0,0 -0.5013511013276665,-0.36293953426678 l 8.931779533172705 -12.117674334676114" fill="#ffab0f" stroke="none" /><path d="M 87.2517909369889 116.68781488649013 l -9.193266777283768 12.034281319292598 a36.1439783712928,36.1439783712928 0 0,0 -0.48981984789472993,-0.38088687637180446 l 9.398496569813725 -11.8746933913" fill="#ffac0f" stroke="none" /><path d="M 86.96720088162412 116.46651593811092 l -9.375891049936579 11.846132055399297 a36.10755366213338,36.10755366213338 0 0,0 -0.48272227976190424,-0.38884689845892617 l 9.577864100053745 -11.68343686314696" fill="#ffab0f" stroke="none" /><path d="M 86.40962598614128 116.0094264158162 l -6.917472060437644 8.148764693459464 a31.688956251024088,31.688956251024088 0 0,0 -0.41168559667506094,-0.355604213172502 l 7.056337136875568 -8.02881634782224" fill="#ff6e0a" stroke="none" /><line stroke="#e1ed5e" stroke-width="0.3" x1="26.387840678322732" x2="22.057713659400548" y1="142.50000000000003" y2="145.00000000000006" /><path d="M 25.521815274538298 143.00000000000003 a86.0,86.0 0 0,1 -11.493303480769221,-40.785679425670985" fill="none" id="id33" stroke="none" /><text fill="#e1ed5e" style="font-size:6.75px; font-family:Arial;" text-anchor="middle"><textPath startOffset="21.40746469413373" xlink:href="#id33">September</textPath></text><line stroke="#e1ed5e" stroke-width="0.3" x1="15.003131293944662" x2="10.003315487706104" y1="100.72959589197737" y2="100.7725132973878" /><path d="M 14.003168132696942 100.73817937305945 a86.0,86.0 0 0,1 10.791469493833604,-42.45332614584628" fill="none" id="id34" stroke="none" /><text fill="#e1ed5e" style="font-size:6.75px; font-family:Arial;" text-anchor="middle"><textPath startOffset="22.145653131862435" xlink:href="#id34">October</textPath></text><line stroke="#e1ed5e" stroke-width="0.3" x1="26.387840678322718" x2="22.05771365940052" y1="57.49999999999999" y2="54.99999999999999" /><path d="M 25.521815274538284 56.99999999999999 a86.0,86.0 0 0,1 29.574782752854787,-30.34633250058573" fill="none" id="id35" stroke="none" /><text fill="#e1ed5e" style="font-size:6.75px; font-family:Arial;" text-anchor="middle"><textPath startOffset="21.40746469413373" xlink:href="#id35">November</textPath></text><line stroke="#e1ed5e" stroke-width="0.3" x1="56.869717070023135" x2="54.33264160355391" y1="26.7553504044142" y2="22.446841604673864" /><path d="M 56.362301976729285 25.89364864446614 a86.0,86.0 0 0,1 42.16139366436587,-11.88097634709845" fill="none" id="id36" stroke="none" /><text fill="#e1ed5e" style="font-size:6.75px; font-family:Arial;" text-anchor="middle"><textPath startOffset="22.145653131862474" xlink:href="#id36">December</textPath></text></svg>