<?xml version="1.0" encoding="utf-8" ?>
<svg baseProfile="full" height="200mm" version="1.1" viewBox="0,0,200,200" width="200mm" xmlns="http://www.w3.org/2000/svg" xmlns:ev="http://www.w3.org/2001/xml-events" xmlns:xlink="http://www.w3.org/1999/xlink"><defs /><rect fill="#1a1a1a" height="200" width="200" x="0" y="0" /><text alignment-baseline="middle" fill="#e1ed5e" style="dominant-baseline: central; font-size:9.0px; font-family:Arial;" text-anchor="middle" x="100.0" y="100.0">2020</text><line stroke="#e1ed5e" stroke-width="0.3" x1="100.0" x2="100.0" y1="15.0" y2="10.0" /><path d="M 100.0 14.0 a86.0,86.0 0 0,1 42.35913384403234,11.155469271406648" fill="none" id="id25" stroke="none" /><text fill="#e1ed5e" style="font-size:6.75px; font-family:Arial;" text-anchor="middle"><textPath startOffset="22.145653131862478" xlink:href="#id25">January</textPath></text><path d="M 101.08105385017728 79.02784411241856 l 1.8842388755295383 -36.553730806810876 a57.60226211638908,57.60226211638908 0 0,0 0.987071397739472,0.05937976417350045 l -2.5114546254014725 36.51599906481268" fill="#61ff29" stroke="none" /><path d="M 103.58742460773223 79.30868818359171 l 7.045526421702388 -40.636724124592064 a62.24297261518754,62.24297261518754 0 0,0 1.0512104984352362,0.19156557047902634 l -7.7420716536886784 40.50979038018168" fill="#2fff30" stroke="none" /><path d="M 104.9986988182912 79.60360301121754 l 6.055277628051651 -24.707599091008024 a46.43878613445939,46.43878613445939 0 0,0 0.7726412411627647,0.1964023821135046 l -6.47852416243981 24.600011477059255" fill="#e9ff1a" stroke="none" /><line stroke="#e1ed5e" stroke-width="0.3" x1="143.13028292997686" x2="145.6673583964461" y1="26.7553504044142" y2="22.446841604673864" /><path d="M 143.63769802327073 25.89364864446614 a86.0,86.0 0 0,1 29.32050498858742,28.57503671076993" fill="none" id="id26" stroke="none" /><text fill="#e1ed5e" style="font-size:6.75px; font-family:Arial;" text-anchor="middle"><textPath startOffset="20.669276256404974" xlink:href="#id26">February</textPath></text><line stroke="#e1ed5e" stroke-width="0.3" x1="172.87174338648825" x2="177.1583165268699" y1="56.24261187166439" y2="53.66864786411523" /><path d="M 173.72905801456457 55.72781907015455 a86.0,86.0 0 0,1 12.242430191666344,42.057860355516425" fill="none" id="id27" stroke="none" /><text fill="#e1ed5e" style="font-size:6.75px; font-family:Arial;" text-anchor="middle"><textPath startOffset="22.145653131862474" xlink:href="#id27">March</textPath></text><path d="M 120.65975698304385 96.23510406497455 l 30.827467079543688 -5.617791418851688 a52.33516087346726,52.33516087346726 0 0,0 0.15347954447455994,0.8852292269274843 l -30.919361441510482 5.087769159003611" fill="#9fff22" stroke="none" /><path d="M 120.82617615685814 97.30363454192243 l 24.923203351094372 -3.2268076537134327 a46.131222670496264,46.131222670496264 0 0,0 0.09493786676713124,0.7862217278583149 l -24.974923304121166 2.798492248931705" fill="#edff1a" stroke="none" /><line stroke="#e1ed5e" stroke-width="0.3" x1="184.99686870605535" x2="189.99668451229388" y1="99.2704041080226" y2="99.22748670261217" /><path d="M 185.99683186730306 99.26182062694052 a86.0,86.0 0 0,1 -10.086455211305974,41.156179273409016" fill="none" id="id28" stroke="none" /><text fill="#e1ed5e" style="font-size:6.75px; font-family:Arial;" text-anchor="middle"><textPath startOffset="21.40746469413373" xlink:href="#id28">April</textPath></text><path d="M 120.65975698304385 103.76489593502545 l 29.796510903009306 5.4299168605299535 a51.28722600545352,51.28722600545352 0 0,0 -0.1652760353500906,0.8647940559565608 l -29.698908575377057 -5.940613481519828" fill="#acff21" stroke="none" /><path d="M 120.05942366710727 106.21446072829308 l 31.023976882621852 9.611307342227775 a53.47867562632776,53.47867562632776 0 0,0 -0.27919760962611606,0.8745825355835617 l -30.854414557218483 -10.14245891150272" fill="#91ff24" stroke="none" /><path d="M 119.31412917781788 108.2440532568976 l 28.837088086140447 12.30883814472078 a52.35418864778288,52.35418864778288 0 0,0 -0.3599129035824695,0.8235511579273126 l -28.62154130054101 -12.80205137242394" fill="#9fff22" stroke="none" /><line stroke="#e1ed5e" stroke-width="0.3" x1="174.33088141563837" x2="178.70328620479359" y1="141.23008692659167" y2="143.65538615756765" /><path d="M 175.20536237346943 141.71514677278685 a86.0,86.0 0 0,1 -30.301960400862466,31.631185727798858" fill="none" id="id29" stroke="none" /><text fill="#e1ed5e" style="font-size:6.75px; font-family:Arial;" text-anchor="middle"><textPath startOffset="22.145653131862474" xlink:href="#id29">May</textPath></text><path d="M 118.36410011445183 110.18625677009912 l 27.167083682384284 15.069123363456274 a52.066524021021955,52.066524021021955 0 0,0 -0.44025130787840205,0.7778818769555733 l -26.904399009484504 -15.53326201051097" fill="#a2ff22" stroke="none" /><path d="M 118.00360718960297 110.81064883170644 l 26.657491628314947 16.007057790857218 a52.09417564486192,52.09417564486192 0 0,0 -0.4669425105547639,0.7627154988991957 l -26.37878115330478 -16.46231040588097" fill="#a2ff22" stroke="none" /><path d="M 116.35404254752997 113.17365903436017 l 24.208527662380632 19.5006762530556 a52.0858357762299,52.0858357762299 0 0,0 -0.5668754018700872,0.6914958176304716 l -23.870205441271917 -19.913374352384565" fill="#a2ff22" stroke="none" /><path d="M 115.16444852881244 114.52719865689866 l 23.756231697966417 22.75793257895 a53.89805525795557,53.89805525795557 0 0,0 -0.6457839092954647,0.6626311813944431 l -23.362060987520145 -23.162386452412182" fill="#8cff24" stroke="none" /><path d="M 114.91283532996324 114.78537596483092 l 23.682060134685944 23.479650580566624 a54.348672591399854,54.348672591399854 0 0,0 -0.6625571101718802,0.6568942629159487 l -23.275511104384098 -23.882724853711235" fill="#87ff25" stroke="none" /><path d="M 114.13192950727249 115.5334660781643 l 8.79510058557895 9.66735621840088 a34.06949006518255,34.06949006518255 0 0,0 -0.4359839761337155,0.3898595598693764 l -8.627851582621858 -9.816911308153642" fill="#ff6809" stroke="none" /><path d="M 113.03279911837588 116.46651593811092 l 19.899184190300332 25.141969169384314 a53.06393839118598,53.06393839118598 0 0,0 -0.7191175792676346,0.5591901791823084 l -19.464656666397467 -25.479860400187412" fill="#96ff23" stroke="none" /><path d="M 112.16784306229584 117.11559508785304 l 15.008718611828861 21.111642320863197 a46.902954963731844,46.902954963731844 0 0,0 -0.6602258917016793,0.46088894813452147 l -14.644097628953423 -21.36617608480284" fill="#e3ff1b" stroke="none" /><path d="M 111.27062007382361 117.71928675628689 l 17.735629536199237 27.883355440671046 a54.045938716824224,54.045938716824224 0 0,0 -0.7871041310875054,0.4912111917684382 l -17.254361276322015 -28.18370242928103" fill="#8bff24" stroke="none" /><line stroke="#e1ed5e" stroke-width="0.3" x1="143.1302829299769" x2="145.66735839644613" y1="173.24464959558577" y2="177.55315839532614" /><path d="M 143.63769802327073 174.10635135553383 a86.0,86.0 0 0,1 -40.68552437913181,11.842963189579606" fill="none" id="id30" stroke="none" /><text fill="#e1ed5e" style="font-size:6.75px; font-family:Arial;" text-anchor="middle"><textPath startOffset="21.407464694133747" xlink:href="#id30">June</textPath></text><path d="M 110.02825361518725 118.45085714620011 l 11.927547432729463 21.94534384855681 a45.97727976364523,45.97727976364523 0 0,0 -0.6966897447858318,0.37094804789252517 l -11.549068872157077 -22.146862364171902" fill="#efff19" stroke="none" /><path d="M 107.74402155503746 119.51999308798841 l 9.231203631510345 23.268663419935898 a46.032894715487316,46.032894715487316 0 0,0 -0.7370255257648508,0.2850973064774324 l -8.830405843251965 -23.42370061455137" fill="#eeff19" stroke="none" /><path d="M 106.72888874123015 119.89276391827305 l 10.9884270557692 32.48533207485004 a55.293473565289965,55.293473565289965 0 0,0 -0.9017503548851373,0.29642325268867387 l -10.42915396323633 -32.66917624894074" fill="#7cff26" stroke="none" /><path d="M 105.3480935250658 120.30758222061773 l 6.1955528899789565 23.5255234647164 a45.32766182561424,45.32766182561424 0 0,0 -0.7541545291589923,0.1917031322138672 l -5.790793067594566 -23.628411828765536" fill="#f8ff18" stroke="none" /><line stroke="#e1ed5e" stroke-width="0.3" x1="101.45913802915013" x2="101.54496967792366" y1="184.9874750549273" y2="189.98673829345242" /><path d="M 101.47630435890484 185.9873277026323 a86.0,86.0 0 0,1 -42.54439059252881,-10.42667462771756" fill="none" id="id31" stroke="none" /><text fill="#e1ed5e" style="font-size:6.75px; font-family:Arial;" text-anchor="middle"><textPath startOffset="22.145653131862474" xlink:href="#id31">July</textPath></text><path d="M 99.27912038922189 120.98762331915562 l -1.0942925555727883 31.859133777591605 a52.877921532867546,52.877921532867546 0 0,0 -0.9069173890051953,-0.0389469349092397 l 1.641035705178822 -31.835654274256537" fill="#99ff23" stroke="none" /><path d="M 98.91894614982273 120.97215588758144 l -1.635884902148614 31.73573007151859 a52.777864663714695,52.777864663714695 0 0,0 -0.9044006038870056,-0.054406494505024466 l 2.1804298581680657 -31.702971599188874" fill="#9aff23" stroke="none" /><path d="M 91.92203290615298 119.3841803445677 l -12.150115116430467 29.15585318533195 a52.5862164924377,52.5862164924377 0 0,0 -0.8302735675422162,-0.3543944148656513 l 12.648823759143113 -28.942984120806894" fill="#9cff22" stroke="none" /><line stroke="#e1ed5e" stroke-width="0.3" x1="58.13341422392154" x2="55.67067388415222" y1="173.97424548756322" y2="178.32567169271397" /><path d="M 57.64086615596768 174.84453072859336 a86.0,86.0 0 0,1 -31.369924170532247,-30.572349798747897" fill="none" id="id32" stroke="none" /><text fill="#e1ed5e" style="font-size:6.75px; font-family:Arial;" text-anchor="middle"><textPath startOffset="22.145653131862474" xlink:href="#id32">August</textPath></text><path d="M 85.60350026404147 115.28858382429668 l -4.3661190101389895 4.6366670855859144 a27.368804979998433,27.368804979998433 0 0,0 -0.33927871263238074,-0.3250213319068464 l 4.445070208636684 -4.561033623373485" fill="#ff0000" stroke="none" /><path d="M 83.8745106332314 113.45245675266167 l -21.905560632165546 18.274397777614062 a49.527306230065726,49.527306230065726 0 0,0 -0.5390296844487592,-0.6575285700267728 l 22.216037135852936 -17.895666925888793" fill="#c2ff1e" stroke="none" /><path d="M 82.37810715431573 111.42229804090323 l -26.66786495738099 17.285787873370555 a52.780079983981686,52.780079983981686 0 0,0 -0.4862862719748066,-0.7645227895472937 l 26.960668920981686 -16.82545140914459" fill="#9aff23" stroke="none" /><line stroke="#e1ed5e" stroke-width="0.3" x1="26.387840678322732" x2="22.057713659400548" y1="142.50000000000003" y2="145.00000000000006" /><path d="M 25.521815274538298 143.00000000000003 a86.0,86.0 0 0,1 -11.493303480769221,-40.785679425670985" fill="none" id="id33" stroke="none" /><text fill="#e1ed5e" style="font-size:6.75px; font-family:Arial;" text-anchor="middle"><textPath startOffset="21.40746469413373" xlink:href="#id33">September</textPath></text><path d="M 81.1358732173502 109.22738970284198 l -27.78449739724427 13.590789975912065 a51.930371284335166,51.930371284335166 0 0,0 -0.3848306149374056,-0.8041479764182423 l 28.013707270141587 -13.111829497428719" fill="#a4ff21" stroke="none" /><path d="M 80.9802524753101 108.90220220490708 l -57.0592425740697 26.706606614721235 a84.0,84.0 0 0,0 -0.6000621405797757,-1.3112440711412445 l 57.50928917950453 -25.7231735613653" fill="#4dd2ff" stroke="none" /><path d="M 79.407916724674 104.11899336999214 l -32.31809035373872 6.464523191656006 a53.95829219191853,53.95829219191853 0 0,0 -0.1738836997499938,-0.909832993349585 l 32.42430034577087 -5.908787633273107" fill="#8cff24" stroke="none" /><path d="M 79.0935383218832 101.97986365728391 l -40.085532384169554 3.7961415935517384 a61.26488044835846,61.26488044835846 0 0,0 -0.09016550050070331,-1.0478597900998416 l 40.144791507368 -3.1074607560762346" fill="#39ff2e" stroke="none" /><line stroke="#e1ed5e" stroke-width="0.3" x1="15.003131293944662" x2="10.003315487706104" y1="100.72959589197737" y2="100.7725132973878" /><path d="M 14.003168132696942 100.73817937305945 a86.0,86.0 0 0,1 10.791469493833604,-42.45332614584628" fill="none" id="id34" stroke="none" /><text fill="#e1ed5e" style="font-size:6.75px; font-family:Arial;" text-anchor="middle"><textPath startOffset="22.145653131862435" xlink:href="#id34">October</textPath></text><path d="M 79.00077361379809 100.18025310272382 l -30.95119974850368 0.265678824785584 a51.95233999408952,51.95233999408952 0 0,0 0.0,-0.8918638550187917 l 30.95119974850368 0.26567882478557264" fill="#a4ff21" stroke="none" /><path d="M 79.13060592940154 97.66154086499901 l -22.307363166803412 -2.4995865715472685 a43.446968269330206,43.446968269330206 0 0,0 0.08941368223537335,-0.7404735553381004 l 22.261167398308373 2.882153803808805" fill="#ffed16" stroke="none" /><path d="M 79.2786578344484 96.59031103205396 l -40.50292390227247 -6.6647407149487625 a62.04760179877468,62.04760179877468 0 0,0 0.18196251814031947,-1.0495114499758824 l 40.38254656663992 7.359045197845238" fill="#31ff2f" stroke="none" /><path d="M 79.73907114497095 94.47779374421319 l -36.76138186624614 -10.01947809824937 a59.102350820878094,59.102350820878094 0 0,0 0.2751960469144059,-0.9765736863594735 l 36.583967327257156 10.649059708511858" fill="#51ff2b" stroke="none" /><path d="M 80.68587082218212 91.75594674310238 l -29.703876694857993 -12.678818659345621 a53.296636563269224,53.296636563269224 0 0,0 0.3663918343900574,-0.8383762195342006 l 29.481850978450957 13.18685694865569" fill="#93ff23" stroke="none" /><path d="M 81.63589988554816 89.8137432299009 l -24.891547761080087 -13.806921946587073 a49.46436796384699,49.46436796384699 0 0,0 0.41824863669929085,-0.739005265237319 l 24.650865759359426 14.232183981923498" fill="#c2ff1e" stroke="none" /><line stroke="#e1ed5e" stroke-width="0.3" x1="26.387840678322718" x2="22.05771365940052" y1="57.49999999999999" y2="54.99999999999999" /><path d="M 25.521815274538284 56.99999999999999 a86.0,86.0 0 0,1 29.574782752854787,-30.34633250058573" fill="none" id="id35" stroke="none" /><text fill="#e1ed5e" style="font-size:6.75px; font-family:Arial;" text-anchor="middle"><textPath startOffset="21.40746469413373" xlink:href="#id35">November</textPath></text><path d="M 83.2033758604659 87.39550010848427 l -22.1860383290659 -16.648816773465747 a48.738121722553885,48.738121722553885 0 0,0 0.5079162650688585,-0.6648786953062789 l 21.896970086642735 17.02721638201291" fill="#ccff1d" stroke="none" /><path d="M 86.40962598614128 83.9905735841838 l -18.633055649207495 -21.949692702614445 a49.79200883171699,49.79200883171699 0 0,0 0.6563669522979125,-0.5475646561065244 l 18.253514362747676 22.26631954263285" fill="#beff1e" stroke="none" /><path d="M 88.72937992617638 82.28071324371311 l -16.85135303947787 -26.493125913402864 a52.39830918894421,52.39830918894421 0 0,0 0.7631086924165474,-0.47623626334279323 l 16.394080218271625 26.778497973587193" fill="#9eff22" stroke="none" /><line stroke="#e1ed5e" stroke-width="0.3" x1="56.869717070023135" x2="54.33264160355391" y1="26.7553504044142" y2="22.446841604673864" /><path d="M 56.362301976729285 25.89364864446614 a86.0,86.0 0 0,1 42.16139366436587,-11.88097634709845" fill="none" id="id36" stroke="none" /><text fill="#e1ed5e" style="font-size:6.75px; font-family:Arial;" text-anchor="middle"><textPath startOffset="22.145653131862474" xlink:href="#id36">December</textPath></text></svg>