<?xml version="1.0" encoding="utf-8" ?>
<svg baseProfile="full" height="200mm" version="1.1" viewBox="0,0,200,200" width="200mm" xmlns="http://www.w3.org/2000/svg" xmlns:ev="http://www.w3.org/2001/xml-events" xmlns:xlink="http://www.w3.org/1999/xlink"><defs /><rect fill="#1a1a1a" height="200" width="200" x="0" y="0" /><text alignment-baseline="middle" fill="#e1ed5e" style="dominant-baseline: central; font-size:9.0px; font-family:Arial;" text-anchor="middle" x="100.0" y="100.0">2025</text><line stroke="#e1ed5e" stroke-width="0.3" x1="100.0" x2="100.0" y1="15.0" y2="10.0" /><path d="M 100.0 14.0 a86.0,86.0 0 0,1 42.46469731375804,11.215312516191453" fill="none" id="id37" stroke="none" /><text fill="#e1ed5e" style="font-size:6.75px; font-family:Arial;" text-anchor="middle"><textPath startOffset="22.20632615414155" xlink:href="#id37">January</textPath></text><path d="M 101.80526077348638 79.07773832637324 l 2.725382531506463 -31.58611061757493 a52.703471322376046,52.703471322376046 0 0,0 0.9031740497163352,0.08576725879057723 l -3.2686817083130424 31.534517814269176" fill="#9eff22" stroke="none" /><path d="M 103.59715602781102 79.31037775812273 l 1.1794379337686929 -6.78372723305636 a27.885494100797928,27.885494100797928 0 0,0 0.47220084536666757,0.08629168625891304 l -1.2960339002382613 6.762420065446709" fill="#ff0000" stroke="none" /><line stroke="#e1ed5e" stroke-width="0.3" x1="143.23703022742887" x2="145.7803849466894" y1="26.81831364943548" y2="22.513508569990506" /><path d="M 143.74570117128098 25.957352633546492 a86.0,86.0 0 0,1 28.547481713284135,27.462654790039103" fill="none" id="id38" stroke="none" /><text fill="#e1ed5e" style="font-size:6.75px; font-family:Arial;" text-anchor="middle"><textPath startOffset="19.985693538727396" xlink:href="#id38">February</textPath></text><path d="M 111.60114157652 82.49532879139004 l 20.953058015202817 -31.6155430870172 a58.92852758644206,58.92852758644206 0 0,0 0.8407004871634589,0.5676447217388776 l -21.49416319677282 31.25018645297965" fill="#55ff2b" stroke="none" /><path d="M 112.48926042617603 83.11751280151076 l 26.80358507748835 -36.23202387516109 a66.06874445884198,66.06874445884198 0 0,0 0.908457337087864,0.6842312319988383 l -27.4232885683346 35.76527605365641" fill="#34ff60" stroke="none" /><path d="M 113.6212207817346 84.01681056812373 l 24.304565026159167 -28.5190639735734 a58.47064038736957,58.47064038736957 0 0,0 0.7604140231850284,0.6594235476618432 l -24.791872847990962 28.096475432491886" fill="#5aff2a" stroke="none" /><path d="M 114.16331599549186 84.49514656593476 l 34.813350959349926 -38.110842428793106 a72.61788174316307,72.61788174316307 0 0,0 0.9156496467194146,0.8509965555222153 l -35.46420848986419 37.50594128719625" fill="#3dffb0" stroke="none" /><path d="M 114.68862486808459 84.99185889309783 l 43.939225087898166 -44.89501884413666 a83.8189320057287,83.8189320057287 0 0,0 1.0224480784798615,1.0180573614979396 l -44.70550896654535 44.132025631988604" fill="#4dd4ff" stroke="none" /><path d="M 114.94478906791727 85.2469230424477 l 36.62631589749309 -36.156472644189755 a72.46627565982405,72.46627565982405 0 0,0 0.8686833933294892,0.8952545962520773 l -37.24326355452569 35.52065385238757" fill="#3dffae" stroke="none" /><path d="M 115.4437574822437 85.77008943001954 l 28.7423522086262 -26.483263672708944 a60.08306622110073,60.08306622110073 0 0,0 0.6942637195160928,0.7666233393449071 l -29.193959568758327 25.984587546094488" fill="#48ff2c" stroke="none" /><path d="M 115.68641384162765 86.03803664274999 l 46.17253374622608 -41.096660510475665 a82.81293050535362,82.81293050535362 0 0,0 0.9385786314874467,1.0729576255120512 l -46.87310424129137 40.29578732876067" fill="#4bdeff" stroke="none" /><path d="M 116.15771136456269 86.58626213691792 l 34.71953578296939 -28.823311743398868 a66.1245993316511,66.1245993316511 0 0,0 0.7195033646726459,0.8820260500531936 l -35.21053763971844 28.221401523737573" fill="#34ff60" stroke="none" /><path d="M 116.38621287248628 86.86637796730983 l 48.06187141493764 -38.52180233831972 a82.59442133260589,82.59442133260589 0 0,0 0.8796145379400073,1.1170211369289285 l -48.71784003347161 37.68878880743776" fill="#4be0ff" stroke="none" /><line stroke="#e1ed5e" stroke-width="0.3" x1="172.23445277983987" x2="176.4835382374775" y1="55.19839476539836" y2="52.563006222186495" /><path d="M 173.08426987136738 54.67131705675599 a86.0,86.0 0 0,1 12.851231095245387,41.99856678651699" fill="none" id="id39" stroke="none" /><text fill="#e1ed5e" style="font-size:6.75px; font-family:Arial;" text-anchor="middle"><textPath startOffset="22.20632615414155" xlink:href="#id39">March</textPath></text><path d="M 118.03404312379186 89.2402003453031 l 39.32064815079623 -23.4602021017258 a66.78749232762736,66.78749232762736 0 0,0 0.5805433614664579,0.9923367906417142 l -39.71865118673301 22.77988589873019" fill="#35ff69" stroke="none" /><path d="M 119.196687751892 91.48605970444005 l 35.74039067549329 -15.85125289758107 a60.097797176566864,60.097797176566864 0 0,0 0.4112672272506176,0.9492614634251465 l -36.00794861258659 15.23369228956932" fill="#48ff2c" stroke="none" /><path d="M 119.61058180528143 92.48833698450437 l 58.66151102229293 -22.469782240758136 a83.81770442610653,83.81770442610653 0 0,0 0.5044844400850895,1.3517674855445871 l -59.03960005087964 21.456691618184216" fill="#4dd4ff" stroke="none" /><path d="M 120.87857604477298 97.74499172005257 l 30.67985728853856 -3.313603957707652 a51.85828275250631,51.85828275250631 0 0,0 0.08821556748110626,0.8883187257964137 l -30.732349981701894 2.7850097012068034" fill="#a8ff21" stroke="none" /><line stroke="#e1ed5e" stroke-width="0.3" x1="184.98032266829074" x2="189.97916517819016" y1="98.17113171792111" y2="98.06355123074" /><path d="M 185.9800911702706 98.14961562048488 a86.0,86.0 0 0,1 -9.607161424134198,41.387399972396054" fill="none" id="id40" stroke="none" /><text fill="#e1ed5e" style="font-size:6.75px; font-family:Arial;" text-anchor="middle"><textPath startOffset="21.466115282336823" xlink:href="#id40">April</textPath></text><path d="M 120.5718875245553 104.21870165774334 l 30.89841747776758 6.3363755454871225 a52.54143081224852,52.54143081224852 0 0,0 -0.18931418424771188,0.8844128428681591 l -30.784769254795428 -6.867302207771451" fill="#a0ff22" stroke="none" /><path d="M 120.41448212921028 104.9243191809786 l 30.761047096851367 7.420086058870359 a52.64331992088931,52.64331992088931 0 0,0 -0.22007085080950065,0.8790736541882077 l -30.628764931746808 -7.948487552455963" fill="#9fff22" stroke="none" /><path d="M 120.23288151984713 105.62410040840565 l 29.774216504942363 8.27628941735977 a51.903089408715815,51.903089408715815 0 0,0 -0.2466814519689975,0.8587304958702674 l -29.627342416087266 -8.78757738873462" fill="#a8ff21" stroke="none" /><line stroke="#e1ed5e" stroke-width="0.3" x1="174.80103733775053" x2="179.2010983576182" y1="140.37084112569926" y2="142.7455964860345" /><path d="M 175.68104954172406 140.8457921977663 a86.0,86.0 0 0,1 -30.038265399797805,32.042727171017184" fill="none" id="id41" stroke="none" /><text fill="#e1ed5e" style="font-size:6.75px; font-family:Arial;" text-anchor="middle"><textPath startOffset="22.206326154141568" xlink:href="#id41">May</textPath></text><path d="M 116.498646956653 112.99209946851258 l 35.478175014707794 27.93780483717248 a66.1577439814499,66.1577439814499 0 0,0 -0.7122419472888863,0.8886313414487165 l -34.99201515536406 -28.544364012199445" fill="#35ff61" stroke="none" /><path d="M 116.0416608686014 113.55231037782055 l 24.070227609183174 20.335001350323175 a52.51012753188297,52.51012753188297 0 0,0 -0.5892573750610428,0.6854394515446607 l -23.71662772455135 -20.746317901029364" fill="#a0ff22" stroke="none" /><path d="M 115.56566222782051 114.09645910891815 l 24.870088727228158 22.522664545035934 a54.552820023187614,54.552820023187614 0 0,0 -0.6363290104115575,0.6906094642958592 l -24.47871330882088 -22.947425264133127" fill="#88ff25" stroke="none" /><path d="M 114.0293411484842 115.62618273729858 l 20.670660475689694 23.023427435056785 a51.94114437700334,51.94114437700334 0 0,0 -0.6704306848652261,0.5915771297544574 l -20.27128743791788 -23.37582770658353" fill="#a7ff21" stroke="none" /><path d="M 113.20401910651253 116.32954008644616 l 39.579639349965575 48.94852863803916 a83.94844165586852,83.94844165586852 0 0,0 -1.1314751147022948,0.8989122619297235 l -38.73120674254593 -49.62257481397401" fill="#4dd3ff" stroke="none" /><path d="M 112.63410532772338 116.77436683061366 l 20.006349074309398 26.562532890822975 a54.253904385187205,54.253904385187205 0 0,0 -0.7508095251337887,0.5554309373732889 l -19.546154578757044 -26.902973776936033" fill="#8bff24" stroke="none" /><line stroke="#e1ed5e" stroke-width="0.3" x1="143.8653032363475" x2="146.44561519142675" y1="172.8068346515853" y2="177.08958963109032" /><path d="M 144.38136562736335 173.6633856474863 a86.0,86.0 0 0,1 -40.68145358897372,12.25698825130547" fill="none" id="id42" stroke="none" /><text fill="#e1ed5e" style="font-size:6.75px; font-family:Arial;" text-anchor="middle"><textPath startOffset="21.466115282336833" xlink:href="#id42">June</textPath></text><path d="M 103.7750983002368 120.6578951692458 l 6.764546862149182 37.01659899477652 a58.62961194844165,58.62961194844165 0 0,0 -0.9943331713158134,0.17287756726710987 l -6.1263647193613195 -37.12755514056464" fill="#59ff2a" stroke="none" /><line stroke="#e1ed5e" stroke-width="0.3" x1="102.19456741930631" x2="102.32365962044197" y1="184.97166512339345" y2="189.96999836594603" /><path d="M 102.22038585953345 185.97133177190398 a86.0,86.0 0 0,1 -42.740103519485714,-10.115201625700543" fill="none" id="id43" stroke="none" /><text fill="#e1ed5e" style="font-size:6.75px; font-family:Arial;" text-anchor="middle"><textPath startOffset="22.20632615414155" xlink:href="#id43">July</textPath></text><line stroke="#e1ed5e" stroke-width="0.3" x1="58.666819895761336" x2="56.23545636021788" y1="174.27360380694188" y2="178.64263932499728" /><path d="M 58.180547188652646 175.14741091055294 a86.0,86.0 0 0,1 -31.652253787137756,-30.449443065178592" fill="none" id="id44" stroke="none" /><text fill="#e1ed5e" style="font-size:6.75px; font-family:Arial;" text-anchor="middle"><textPath startOffset="22.20632615414155" xlink:href="#id44">August</textPath></text><path d="M 87.07902340077011 116.55440617244103 l -22.62760204750902 28.990572974580637 a57.775830321216674,57.775830321216674 0 0,0 -0.7787150416406502,-0.6186583252112232 l 23.12327458186703 -28.596780735364284" fill="#62ff29" stroke="none" /><line stroke="#e1ed5e" stroke-width="0.3" x1="26.63291911575756" x2="22.317208475507996" y1="142.92168965132927" y2="145.44649492493687" /><path d="M 25.769776987707644 143.4266507060508 a86.0,86.0 0 0,1 -11.730757126820373,-40.83630448921669" fill="none" id="id45" stroke="none" /><text fill="#e1ed5e" style="font-size:6.75px; font-family:Arial;" text-anchor="middle"><textPath startOffset="21.46611528233685" xlink:href="#id45">September</textPath></text><path d="M 79.97269907076064 106.31721596034903 l -24.17828153122723 7.626560689457913 a46.352588147036755,46.352588147036755 0 0,0 -0.23346965957172208,-0.7629923559444886 l 24.305977963305082 -7.209241360961378" fill="#efff19" stroke="none" /><path d="M 79.67330655649465 105.27499134158121 l -30.12436524545567 7.8175905137773976 a52.122212371274635,52.122212371274635 0 0,0 -0.21789240571943053,-0.8703718489344223 l 30.25446896547016 -7.297890825445584" fill="#a5ff21" stroke="none" /><line stroke="#e1ed5e" stroke-width="0.3" x1="15.007084014347285" x2="10.007500721073583" y1="101.09737516637583" y2="101.16192664675087" /><path d="M 14.007167355692545 101.11028546245083 a86.0,86.0 0 0,1 10.666146001902534,-42.60595125391555" fill="none" id="id46" stroke="none" /><text fill="#e1ed5e" style="font-size:6.75px; font-family:Arial;" text-anchor="middle"><textPath startOffset="22.20632615414155" xlink:href="#id46">October</textPath></text><path d="M 79.08570108090925 98.10471618934814 l -30.75068852967705 -2.7866715667669313 a51.87669644683898,51.87669644683898 0 0,0 0.08824689081864777,-0.8886341475307865 l 30.69816451317617 3.3155812450021482" fill="#a8ff21" stroke="none" /><path d="M 79.12142395522702 97.74499172005258 l -30.620663928876933 -3.307210728788745 a51.79874514083066,51.79874514083066 0 0,0 0.10337462493853701,-0.8856506566538043 l 30.559198950934807 3.833805123767411" fill="#a9ff21" stroke="none" /><path d="M 79.21141760316559 97.0276538004421 l -42.77517012172755 -6.1159828948279 a64.21018891086408,64.21018891086408 0 0,0 0.16585830140778313,-1.09279897667687 l 42.66355592688046 6.851380983896862" fill="#32ff48" stroke="none" /><path d="M 79.26566170972629 96.67025291283419 l -30.446697392952665 -4.88946406385003 a51.83680010911819,51.83680010911819 0 0,0 0.1490632315875213,-0.879779630815303 l 30.35802229984492 5.412829482981162" fill="#a9ff21" stroke="none" /><path d="M 79.3925641242962 95.95851677861259 l -30.35852896337035 -5.953845309601124 a51.93684784832572,51.93684784832572 0 0,0 0.1796043075572006,-0.8758143888204546 l 30.251545359898156 6.475535354584981" fill="#a7ff21" stroke="none" /><path d="M 79.46518482838121 95.60439243477599 l -30.26655019361832 -6.4787472345100765 a51.952192593602945,51.952192593602945 0 0,0 0.1947109126032249,-0.8728508422270497 l 30.150544894013056 6.998776246287085" fill="#a7ff21" stroke="none" /><path d="M 79.62865764111835 94.90015583598534 l -42.50491568593888 -10.640852349543964 a64.81661324422015,64.81661324422015 0 0,0 0.28026601134851464,-1.0799792694271184 l 42.31545334272006 11.370928044519946" fill="#33ff4f" stroke="none" /><path d="M 79.71946130924805 94.55025226153421 l -29.85323905892404 -8.02210555291801 a51.912296255882154,51.912296255882154 0 0,0 0.2393236689451319,-0.8609745714043288 l 29.710728619412546 8.53479142774128" fill="#a8ff21" stroke="none" /><path d="M 79.81627453868168 94.20196356495316 l -60.551176383954946 -17.394109305140535 a84.0,84.0 0 0,0 0.4111764115531722,-1.3862824530138431 l 60.24279407529007 18.433821144900918" fill="#4dd2ff" stroke="none" /><path d="M 80.02781315780177 93.51064311812611 l -35.761618953247165 -11.619654367086007 a58.60199140694264,58.60199140694264 0 0,0 0.3199744250039706,-0.9566828036483278 l 35.556307234471426 12.233510273656657" fill="#59ff2a" stroke="none" /><line stroke="#e1ed5e" stroke-width="0.3" x1="26.266209847984243" x2="21.928928074336255" y1="57.711370442889674" y2="55.22380399835377" /><path d="M 25.398753493254645 57.213857153982495 a86.0,86.0 0 0,1 29.58750427330803,-30.492523968695096" fill="none" id="id47" stroke="none" /><text fill="#e1ed5e" style="font-size:6.75px; font-family:Arial;" text-anchor="middle"><textPath startOffset="21.46611528233685" xlink:href="#id47">November</textPath></text><line stroke="#e1ed5e" stroke-width="0.3" x1="56.762969772571076" x2="54.21961505331055" y1="26.818313649435495" y2="22.513508569990535" /><path d="M 56.25429882871897 25.957352633546506 a86.0,86.0 0 0,1 42.265352541879196,-11.944610805530505" fill="none" id="id48" stroke="none" /><text fill="#e1ed5e" style="font-size:6.75px; font-family:Arial;" text-anchor="middle"><textPath startOffset="22.20632615414155" xlink:href="#id48">December</textPath></text></svg>