<?xml version="1.0" encoding="utf-8" ?>
<svg baseProfile="full" height="200mm" version="1.1" viewBox="0,0,200,200" width="200mm" xmlns="http://www.w3.org/2000/svg" xmlns:ev="http://www.w3.org/2001/xml-events" xmlns:xlink="http://www.w3.org/1999/xlink"><defs /><rect fill="#1a1a1a" height="200" width="200" x="0" y="0" /><rect fill="#1a1a1a" height="200" width="180" x="10" y="0" /><text alignment-baseline="middle" fill="#e1ed5e" style="dominant-baseline: central; font-size:9.0px; font-family:Arial;" text-anchor="middle" x="100.0" y="100.0">2019</text><line stroke="#e1ed5e" stroke-width="0.3" x1="100.0" x2="100.0" y1="15.0" y2="10.0" /><path d="M 100.0 14.0 a86.0,86.0 0 0,1 42.46469731375804,11.215312516191453" fill="none" id="id1" stroke="none" /><text fill="#e1ed5e" style="font-size:6.75px; font-family:Arial;" text-anchor="middle"><textPath startOffset="22.20632615414155" xlink:href="#id1">January</textPath></text><line stroke="#e1ed5e" stroke-width="0.3" x1="143.23703022742887" x2="145.7803849466894" y1="26.81831364943548" y2="22.513508569990506" /><path d="M 143.74570117128098 25.957352633546492 a86.0,86.0 0 0,1 28.547481713284135,27.462654790039103" fill="none" id="id2" stroke="none" /><text fill="#e1ed5e" style="font-size:6.75px; font-family:Arial;" text-anchor="middle"><textPath startOffset="19.985693538727396" xlink:href="#id2">February</textPath></text><line stroke="#e1ed5e" stroke-width="0.3" x1="172.23445277983987" x2="176.4835382374775" y1="55.19839476539836" y2="52.563006222186495" /><path d="M 173.08426987136738 54.67131705675599 a86.0,86.0 0 0,1 12.851231095245387,41.99856678651699" fill="none" id="id3" stroke="none" /><text fill="#e1ed5e" style="font-size:6.75px; font-family:Arial;" text-anchor="middle"><textPath startOffset="22.20632615414155" xlink:href="#id3">March</textPath></text><line stroke="#e1ed5e" stroke-width="0.3" x1="184.98032266829074" x2="189.97916517819016" y1="98.17113171792111" y2="98.06355123074" /><path d="M 185.9800911702706 98.14961562048488 a86.0,86.0 0 0,1 -9.607161424134198,41.387399972396054" fill="none" id="id4" stroke="none" /><text fill="#e1ed5e" style="font-size:6.75px; font-family:Arial;" text-anchor="middle"><textPath startOffset="21.466115282336823" xlink:href="#id4">April</textPath></text><line stroke="#e1ed5e" stroke-width="0.3" x1="174.80103733775053" x2="179.2010983576182" y1="140.37084112569926" y2="142.7455964860345" /><path d="M 175.68104954172406 140.8457921977663 a86.0,86.0 0 0,1 -30.038265399797805,32.042727171017184" fill="none" id="id5" stroke="none" /><text fill="#e1ed5e" style="font-size:6.75px; font-family:Arial;" text-anchor="middle"><textPath startOffset="22.206326154141568" xlink:href="#id5">May</textPath></text><path d="M 116.498646956653 112.99209946851258 l 33.38142505679206 26.286688591979058 a63.488934276513774,63.488934276513774 0 0,0 -0.6835100391736374,0.8527838683421106 l -32.92399710556357 -26.85740029389942" fill="red" stroke="none" /><path d="M 115.80600337817218 113.82643327865902 l 33.256349579415456 29.091269155778303 a65.18468884627598,65.18468884627598 0 0,0 -0.7460268144109096,0.8381690345666166 l -32.750663915356206 -29.659412360085785" fill="red" stroke="none" /><path d="M 114.29624159901734 115.38237550388516 l 30.387994415303933 32.69667329477 a65.63745791518004,65.63745791518004 0 0,0 -0.8342222423529194,0.762042239170935 l -29.82067262348415 -33.21490830052752" fill="red" stroke="none" /><path d="M 113.75828350139079 115.86535959552629 l 28.46381721072844 32.82304042243981 a64.44583838273671,64.44583838273671 0 0,0 -0.844346430001281,0.7195703453516956 l -27.89460530415011 -33.30813515801446" fill="red" stroke="none" /><path d="M 112.92097659922987 116.55440617244103 l 27.38332284190582 35.083621210412986 a65.5051328174603,65.5051328174603 0 0,0 -0.8948352734070193,0.6861215299149531 l -26.775358840005307 -35.54978208215531" fill="red" stroke="none" /><path d="M 111.7513745106137 117.40417183066458 l 24.749913311779643 36.65543496066912 a65.22871376262768,65.22871376262768 0 0,0 -0.9359553250156396,0.6203001533364143 l -24.115283288024038 -37.07603313509685" fill="red" stroke="none" /><line stroke="#e1ed5e" stroke-width="0.3" x1="143.8653032363475" x2="146.44561519142675" y1="172.8068346515853" y2="177.08958963109032" /><path d="M 144.38136562736335 173.6633856474863 a86.0,86.0 0 0,1 -40.68145358897372,12.25698825130547" fill="none" id="id6" stroke="none" /><text fill="#e1ed5e" style="font-size:6.75px; font-family:Arial;" text-anchor="middle"><textPath startOffset="21.466115282336833" xlink:href="#id6">June</textPath></text><path d="M 106.2309692047433 120.05430185196036 l 5.314969287813856 17.106166782300587 a38.91284010184562,38.91284010184562 0 0,0 -0.6413670368978067,0.19323862700328048 l -5.019727276475804 -17.195120778409592" fill="red" stroke="none" /><line stroke="#e1ed5e" stroke-width="0.3" x1="102.19456741930631" x2="102.32365962044197" y1="184.97166512339345" y2="189.96999836594603" /><path d="M 102.22038585953345 185.97133177190398 a86.0,86.0 0 0,1 -42.740103519485714,-10.115201625700543" fill="none" id="id7" stroke="none" /><text fill="#e1ed5e" style="font-size:6.75px; font-family:Arial;" text-anchor="middle"><textPath startOffset="22.20632615414155" xlink:href="#id7">July</textPath></text><path d="M 100.54218724476979 120.99299961872073 l 0.7626907190015809 29.53069465881691 a50.540542042507084,50.540542042507084 0 0,0 -0.8698756756588768,0.014975698627766036 l -0.25425535345003614 -29.539447834723834" fill="red" stroke="none" /><path d="M 93.76903079525671 120.05430185196036 l -11.499461275754074 37.010882253012575 a59.756199694744694,59.756199694744694 0 0,0 -0.9796563834944696,-0.3136550374659914 l 12.134839004339485 -36.80745436888688" fill="red" stroke="none" /><path d="M 91.40352486487194 119.15986991738527 l -18.40442865735789 41.01988936579669 a65.95947417159121,65.95947417159121 0 0,0 -1.0318951546533328,-0.47369245424007733 l 19.107791807778643 -40.697009841222545" fill="red" stroke="none" /><line stroke="#e1ed5e" stroke-width="0.3" x1="58.666819895761336" x2="56.23545636021788" y1="174.27360380694188" y2="178.64263932499728" /><path d="M 58.180547188652646 175.14741091055294 a86.0,86.0 0 0,1 -31.652253787137756,-30.449443065178592" fill="none" id="id8" stroke="none" /><text fill="#e1ed5e" style="font-size:6.75px; font-family:Arial;" text-anchor="middle"><textPath startOffset="22.20632615414155" xlink:href="#id8">August</textPath></text><path d="M 85.18274418774928 114.88116024355367 l -32.12908929103422 32.267656864236756 a66.53548131050528,66.53548131050528 0 0,0 -0.8046337735831033,-0.8150897645094908 l 32.67976368967285 -31.7098266057466" fill="red" stroke="none" /><path d="M 84.43433777217949 114.09645910891817 l -35.67584160467707 32.3084899952238 a69.13111467619967,69.13111467619967 0 0,0 -0.7911929345890701,-0.8889136493895403 l 36.22669338891448 -31.6896021760934" fill="red" stroke="none" /><path d="M 83.95833913139862 113.55231037782056 l -48.12498260580416 40.65693113346169 a84.0,84.0 0 0,0 -0.9236160004258545,-1.1125549715449554 l 48.81769460612356 -39.82251490480297" fill="red" stroke="none" /><path d="M 83.50135304334701 112.99209946851258 l -33.42626396036924 26.32199763864603 a63.54600665206039,63.54600665206039 0 0,0 -0.6693306411643349,-0.8652000803833189 l 33.874401418751646 -25.74271956414946" fill="red" stroke="none" /><path d="M 82.44556493220864 111.52570212397912 l -39.44845944013525 25.900645107691066 a68.19135905220952,68.19135905220952 0 0,0 -0.6357874505777285,-0.9867562422841664 l 39.88845175409003 -25.217767265485453" fill="red" stroke="none" /><line stroke="#e1ed5e" stroke-width="0.3" x1="26.63291911575756" x2="22.317208475507996" y1="142.92168965132927" y2="145.44649492493687" /><path d="M 25.769776987707644 143.4266507060508 a86.0,86.0 0 0,1 -11.730757126820373,-40.83630448921669" fill="none" id="id9" stroke="none" /><text fill="#e1ed5e" style="font-size:6.75px; font-family:Arial;" text-anchor="middle"><textPath startOffset="21.46611528233685" xlink:href="#id9">September</textPath></text><path d="M 81.87401531095188 110.60418214915194 l -39.077162603690475 22.861177322517264 a66.27314950085584,66.27314950085584 0 0,0 -0.5675758879249524,-0.9896164017111353 l 39.4648904877678 -22.185141074947822" fill="red" stroke="none" /><path d="M 81.51974371655577 109.97397251340807 l -40.744882242912006 21.99040583202955 a67.30036044833912,67.30036044833912 0 0,0 -0.5414393853956179,-1.024199270408606 l 41.11737413653251 -21.285791546534817" fill="red" stroke="none" /><path d="M 81.18737489456691 109.33194174019688 l -40.03797345368837 19.86070702899747 a65.69325454663068,65.69325454663068 0 0,0 -0.49378410916980764,-1.0173415189118127 l 40.3739108194729 -19.168576554120374" fill="red" stroke="none" /><path d="M 80.87730276802145 108.67885076344099 l -43.451567534552986 19.720527156562902 a68.71727058982475,68.71727058982475 0 0,0 -0.47957755418437326,-1.0813207799090065 l 43.78458617346864 -18.9696580401612" fill="red" stroke="none" /><path d="M 80.58989483394504 108.01547362559985 l -38.825284614901534 16.033042694760518 a63.005489920724926,63.005489920724926 0 0,0 -0.4053274750344019,-1.005989552371087 l 39.09551470419332 -15.362353774546627" fill="red" stroke="none" /><path d="M 80.32549172779594 107.34259656027581 l -44.443895781441995 16.586620197827937 a68.43812645772039,68.43812645772039 0 0,0 -0.40240229713261566,-1.1072382967992591 l 44.722822339579835 -15.81913410402256" fill="red" stroke="none" /><path d="M 79.50377843672027 104.57218783832718 l -45.799291042036195 10.216661683710683 a67.9249958541558,67.9249958541558 0 0,0 -0.24474333837824166,-1.143359397650402 l 45.968368419138876 -9.426788466644117" fill="red" stroke="none" /><path d="M 79.35854240842038 103.8639653848113 l -44.7282075553301 8.372870227389043 a66.50513714908885,66.50513714908885 0 0,0 -0.20095178832523203,-1.1270443472036524 l 44.86570578599452 -7.601707129452176" fill="red" stroke="none" /><path d="M 79.23777060512086 103.15116336523772 l -42.96549210508338 6.521037896072117 a64.45753613671616,64.45753613671616 0 0,0 -0.15704909550318782,-1.0984010081671827 l 43.071375251603165 -5.7804914159245335" fill="red" stroke="none" /><path d="M 79.1416061653843 102.43462659150553 l -44.79372678974799 5.22839866001425 a66.09782824330486,66.09782824330486 0 0,0 -0.12217931277066026,-1.1312286945748429 l 44.8770884040197 -4.456573643554624" fill="red" stroke="none" /><path d="M 79.07016306316243 101.71520430193888 l -43.41134064570445 3.557568004621875 a64.55686842238433,64.55686842238433 0 0,0 -0.08122926788443306,-1.108308823329216 l 43.46614647225322 -2.8097860447958984" fill="red" stroke="none" /><path d="M 79.0235259727143 100.99374915477108 l -42.57296899947046 2.016871467735109 a63.62071632372263,63.62071632372263 0 0,0 -0.04240734928623362,-1.094345252256983 l 42.601378481607895 -1.283748968464129" fill="red" stroke="none" /><line stroke="#e1ed5e" stroke-width="0.3" x1="15.007084014347285" x2="10.007500721073583" y1="101.09737516637583" y2="101.16192664675087" /><path d="M 14.007167355692545 101.11028546245083 a86.0,86.0 0 0,1 10.666146001902534,-42.60595125391555" fill="none" id="id10" stroke="none" /><text fill="#e1ed5e" style="font-size:6.75px; font-family:Arial;" text-anchor="middle"><textPath startOffset="22.20632615414155" xlink:href="#id10">October</textPath></text><path d="M 79.00175016825051 100.2711162175752 l -42.79272307960728 0.5525127719713228 a63.79628977996977,63.79628977996977 0 0,0 -0.004726098139540485,-1.0981787657728954 l 42.79589347503632 0.18417547200524795" fill="red" stroke="none" /><path d="M 79.00486145842228 99.54816195383935 l -45.391019882780206 -0.9768637485510653 a66.40153024714235,66.40153024714235 0 0,0 0.03442857856874343,-1.14251691118832 l 45.36747960975582 1.7580508071643797" fill="red" stroke="none" /><line stroke="#e1ed5e" stroke-width="0.3" x1="26.266209847984243" x2="21.928928074336255" y1="57.711370442889674" y2="55.22380399835377" /><path d="M 25.398753493254645 57.213857153982495 a86.0,86.0 0 0,1 29.58750427330803,-30.492523968695096" fill="none" id="id11" stroke="none" /><text fill="#e1ed5e" style="font-size:6.75px; font-family:Arial;" text-anchor="middle"><textPath startOffset="21.46611528233685" xlink:href="#id11">November</textPath></text><path d="M 82.34701348167596 88.62581576622439 l -41.00042013789492 -26.417418481940505 a69.77411660639146,69.77411660639146 0 0,0 0.6592104523636608,-1.0040227447793995 l 40.53961305017334 27.11925929069757" fill="red" stroke="none" /><line stroke="#e1ed5e" stroke-width="0.3" x1="56.762969772571076" x2="54.21961505331055" y1="26.818313649435495" y2="22.513508569990535" /><path d="M 56.25429882871897 25.957352633546506 a86.0,86.0 0 0,1 42.265352541879196,-11.944610805530505" fill="none" id="id12" stroke="none" /><text fill="#e1ed5e" style="font-size:6.75px; font-family:Arial;" text-anchor="middle"><textPath startOffset="22.20632615414155" xlink:href="#id12">December</textPath></text></svg>