<?xml version="1.0" encoding="utf-8" ?>
<svg baseProfile="full" height="200mm" version="1.1" viewBox="0,0,200,200" width="200mm" xmlns="http://www.w3.org/2000/svg" xmlns:ev="http://www.w3.org/2001/xml-events" xmlns:xlink="http://www.w3.org/1999/xlink"><defs /><rect fill="#1a1a1a" height="200" width="200" x="0" y="0" /><rect fill="#1a1a1a" height="200" width="180" x="10" y="0" /><text alignment-baseline="middle" fill="#e1ed5e" style="dominant-baseline: central; font-size:9.0px; font-family:Arial;" text-anchor="middle" x="100.0" y="100.0">2024</text><line stroke="#e1ed5e" stroke-width="0.3" x1="100.0" x2="100.0" y1="15.0" y2="10.0" /><path d="M 100.0 14.0 a86.0,86.0 0 0,1 42.35913384403234,11.155469271406648" fill="none" id="id61" stroke="none" /><text fill="#e1ed5e" style="font-size:6.75px; font-family:Arial;" text-anchor="middle"><textPath startOffset="22.145653131862478" xlink:href="#id61">January</textPath></text><path d="M 100.0 79.0 l 0.0 -62.741504902149586 a83.74150490214959,83.74150490214959 0 0,0 1.4375342873057435,0.012339502931832091 l -1.0770413624568889 62.73225979741219" fill="#4dd4ff" stroke="none" /><path d="M 101.80034050326958 79.07731436759882 l 0.664382558402436 -7.721132410152257 a28.749663855872264,28.749663855872264 0 0,0 0.4913460433526985,0.046530981156055695 l -0.7968281651401473 7.7085896734910175" fill="#ff4506" stroke="none" /><path d="M 102.15924093988457 79.11130261209362 l 0.7991035473391521 -7.730601932206055 a28.771793403944677,28.771793403944677 0 0,0 0.49085241062820884,0.0550010364310434 l -0.9316918595681576 7.71574513526804" fill="#ff4506" stroke="none" /><path d="M 102.87502721639298 79.19773525538626 l 1.4186574013202518 -10.264698252559358 a31.362269010135563,31.362269010135563 0 0,0 0.5326730470044557,0.07828459430585846 l -1.5946555539323894 10.238832584954617" fill="#ff6a09" stroke="none" /><path d="M 103.23170211078529 79.25015418208739 l 1.7714370990407702 -11.373896919074168 a32.511017353891134,32.511017353891134 0 0,0 0.5507095367338624,0.09061904470000073 l -1.966424138827703 11.3418118758785" fill="#ff7a0b" stroke="none" /><path d="M 103.58742460773223 79.30868818359171 l 1.8917880944391356 -10.911331005602213 a32.07411425388405,32.07411425388405 0 0,0 0.5416940132365587,0.0987146939886919 l -2.078816841226748 10.877248137682155" fill="#ff740a" stroke="none" /><path d="M 104.29559338865022 79.4440306129975 l 3.556983768498692 -17.021454974885142 a38.38913634978475,38.38913634978475 0 0,0 0.6439093626631779,0.14033704862280139 l -3.848655547781004 16.95788646812862" fill="#ffca12" stroke="none" /><path d="M 104.64783097203109 79.52079915486377 l 2.938998613687523 -12.949770173544344 a34.279091098372504,34.279091098372504 0 0,0 0.572734803116202,0.13516385405940567 l -3.1608655705436095 12.89741017583871" fill="#ff930d" stroke="none" /><path d="M 105.3480935250658 79.69241777938227 l 2.7082169631280406 -10.283540927664994 a31.63417383393442,31.63417383393442 0 0,0 0.5239501916908318,0.14280495464834733 l -2.8843485557535655 10.235535478872505" fill="#ff6e0a" stroke="none" /><path d="M 105.69591212413111 79.78721728523813 l 3.0551805542074724 -10.841757974976076 a32.26400657877848,32.26400657877848 0 0,0 0.5318029922713435,0.1548001004703353 l -3.2408435588604205 10.787714180203226" fill="#ff770b" stroke="none" /><path d="M 106.04205211174951 79.88797359093562 l 3.14087601801 -10.454954749392769 a31.916555362034345,31.916555362034345 0 0,0 0.5233697526375107,0.16214128721332813 l -3.319886403519141 10.399496874372796" fill="#ff720a" stroke="none" /><path d="M 106.72888874123014 80.10723608172694 l 3.925888610753639 -11.606192093002559 a33.25219556992624,33.25219556992624 0 0,0 0.539151459923338,0.1875448649446589 l -4.124545842721996 11.537088795489309" fill="#ff850c" stroke="none" /><path d="M 107.06938296918511 80.22567764915836 l 3.958185725925936 -11.071749940572507 a32.75801347964405,32.75801347964405 0 0,0 0.5278889110367601,0.19384812015601 l -4.14766378861682 11.002170971407775" fill="#ff7e0b" stroke="none" /><path d="M 109.06512990194946 81.05736502329252 l 3.5506484027087177 -7.419489555100224 a29.225322445831488,29.225322445831488 0 0,0 0.45068195886160883,0.22045113004017497 l -3.6774906108323937 7.357444674962828" fill="#ff4c07" stroke="none" /><line stroke="#e1ed5e" stroke-width="0.3" x1="143.13028292997686" x2="145.6673583964461" y1="26.7553504044142" y2="22.446841604673864" /><path d="M 143.63769802327073 25.89364864446614 a86.0,86.0 0 0,1 29.32050498858742,28.57503671076993" fill="none" id="id62" stroke="none" /><text fill="#e1ed5e" style="font-size:6.75px; font-family:Arial;" text-anchor="middle"><textPath startOffset="20.669276256404974" xlink:href="#id62">February</textPath></text><path d="M 115.41159269507618 85.73525988315684 l 5.836673876510624 -5.402338203616795 a28.95311385603143,28.95311385603143 0 0,0 0.33448057091714845,0.3676527398097194 l -5.928552148269651 5.301347888249404" fill="#ff4806" stroke="none" /><line stroke="#e1ed5e" stroke-width="0.3" x1="172.87174338648825" x2="177.1583165268699" y1="56.24261187166439" y2="53.66864786411523" /><path d="M 173.72905801456457 55.72781907015455 a86.0,86.0 0 0,1 12.242430191666344,42.057860355516425" fill="none" id="id63" stroke="none" /><text fill="#e1ed5e" style="font-size:6.75px; font-family:Arial;" text-anchor="middle"><textPath startOffset="22.145653131862474" xlink:href="#id63">March</textPath></text><path d="M 118.36410011445183 89.81374322990088 l 8.506475873292626 -4.718398773366647 a30.727456952740393,30.727456952740393 0 0,0 0.251898790900413,0.4634654033046531 l -8.586220013808381 4.571678536587391" fill="#ff6109" stroke="none" /><path d="M 118.8641267826498 90.77261029715802 l 9.367400040577024 -4.58206476624837 a31.428015201479962,31.428015201479962 0 0,0 0.23289766888102276,0.48666655373472195 l -9.44467696741796 4.4205857104485435" fill="#ff6b09" stroke="none" /><path d="M 119.71291397450082 92.76114493625339 l 12.012177093306803 -4.411037814651999 a33.79647033846656,33.79647033846656 0 0,0 0.1953111377805342,0.5463200132199335 l -12.08612840113128 4.2041828450511485" fill="#ff8c0c" stroke="none" /><path d="M 119.83427380445688 93.10060997987247 l 14.8092744735447 -5.151434406695762 a36.67966475659705,36.67966475659705 0 0,0 0.20176361958215666,0.5964782902489048 l -14.895523514699223 4.896454441972695" fill="#ffb310" stroke="none" /><path d="M 120.05942366710727 93.78553927170692 l 15.279717861701483 -4.733695651817071 a36.99617618236406,36.99617618236406 0 0,0 0.18273235902042637,0.608256592700134 l -15.358726540725538 4.470701455526214" fill="#ffb811" stroke="none" /><path d="M 120.35273937422433 94.82641323984039 l 15.435634522386382 -3.9236779350113555 a36.92652070121975,36.92652070121975 0 0,0 0.15089314659614494,0.6156955305247953 l -15.500715195498818 3.6581265798784655" fill="#ffb710" stroke="none" /><path d="M 120.51834098615036 95.52812308129327 l 17.48239255284884 -3.8102060879885538 a38.89278401492763,38.89278401492763 0 0,0 0.13657347265115416,0.6535535067894266 l -17.545223736324363 3.509536129913723" fill="#ffd113" stroke="none" /><path d="M 120.65975698304385 96.23510406497455 l 14.932137266951484 -2.721132825702047 a36.1780528136581,36.1780528136581 0 0,0 0.10609676120498665,0.6119379245132435 l -14.976648845648704 2.4644018682682107" fill="#ffad10" stroke="none" /><path d="M 120.7213421655516 96.59031103205396 l 10.533197793017875 -1.7332336884892416 a31.674846826336697,31.674846826336697 0 0,0 0.08367967803210315,0.5372835607167864 l -10.561398963188244 1.552161945841014" fill="#ff6f0a" stroke="none" /><path d="M 120.82617615685814 97.30363454192243 l 15.780984962021003 -2.0431644496593164 a36.91269956166724,36.91269956166724 0 0,0 0.07596618407519456,0.6291089797593842 l -15.813733232355862 1.7719617929765192" fill="#ffb710" stroke="none" /><path d="M 120.86939407059847 97.66154086499901 l 15.358378844128357 -1.7209383839972636 a36.45449545088045,36.45449545088045 0 0,0 0.06434671093581554,0.6224960576734847 l -15.385657947545837 1.4570378040408476" fill="#ffb010" stroke="none" /><path d="M 120.93736805541906 98.37931529534042 l 10.167814312424365 -0.7870531335336494 a31.19823026445995,31.19823026445995 0 0,0 0.036748601685852,0.5343166033028709 l -10.179826875275284 0.6123931060764444" fill="#ff6809" stroke="none" /><path d="M 120.98066250479742 99.09900007780936 l 18.622434996455027 -0.7997274861539588 a39.6395989562357,39.6395989562357 0 0,0 0.023359640209658517,0.6800904371010653 l -18.63341932366153 0.4799307844887736" fill="#ffda14" stroke="none" /><line stroke="#e1ed5e" stroke-width="0.3" x1="184.99686870605535" x2="189.99668451229388" y1="99.2704041080226" y2="99.22748670261217" /><path d="M 185.99683186730306 99.26182062694052 a86.0,86.0 0 0,1 -10.086455211305974,41.156179273409016" fill="none" id="id64" stroke="none" /><text fill="#e1ed5e" style="font-size:6.75px; font-family:Arial;" text-anchor="middle"><textPath startOffset="21.40746469413373" xlink:href="#id64">April</textPath></text><path d="M 120.99922638620191 99.81974689727618 l 16.178765583568584 -0.13887524430880638 a37.179361611063186,37.179361611063186 0 0,0 0.0,0.6382566940652645 l -16.178765583568584 -0.13887524430880444" fill="#ffba11" stroke="none" /><path d="M 120.99922638620191 100.18025310272382 l 16.162452068284534 0.13873521240038067 a37.16304749478745,37.16304749478745 0 0,0 -0.010951717210639455,0.6378826229278107 l -16.157688919475227 -0.41616475129726244" fill="#ffba11" stroke="none" /><path d="M 120.96210409425399 101.26102812881392 l 20.875025334516838 1.2557896868637617 a41.91276381673052,41.91276381673052 0 0,0 -0.049369321592859956,0.7178191008834776 l -20.850392051758913 -1.6139522119015828" fill="#fff717" stroke="none" /><path d="M 120.9064616781168 101.97986365728391 l 15.326888129028768 1.4514722411245293 a36.395462688289626,36.395462688289626 0 0,0 -0.06424251077988985,0.621488015687665 l -15.299713225767213 -1.7143647790951255" fill="#ffb010" stroke="none" /><path d="M 120.86939407059847 102.33845913500097 l 14.775911117818403 1.655671660352817 a35.86838249469541,35.86838249469541 0 0,0 -0.07381698384100649,0.6113105187324387 l -14.745312047717732 -1.9090758560086643" fill="#ffa90f" stroke="none" /><path d="M 120.77682067341334 103.0534771498775 l 14.982994447115031 2.201984215975374 a36.143937965063266,36.143937965063266 0 0,0 -0.09548627364517777,0.6130903740329549 l -14.942986681331584 -2.4588627719397795" fill="#ffac0f" stroke="none" /><path d="M 120.7213421655516 103.40968896794604 l 16.36206262851933 2.692371179027792 a37.5820974555467,37.5820974555467 0 0,0 -0.11021430146783237,0.6356868025556014 l -16.313433509559264 -2.9728510145039815" fill="#ffbf11" stroke="none" /><path d="M 120.51834098615036 104.47187691870673 l 23.418310557040883 5.10391178925355 a44.96804507878133,44.96804507878133 0 0,0 -0.17085531306057555,0.7528200342658128 l -23.327244382422645 -5.50516615745838" fill="#e1ff1b" stroke="none" /><path d="M 120.35273937422433 105.17358676015961 l 15.688119103189182 3.987858528118152 a37.18703483149814,37.18703483149814 0 0,0 -0.16257909405773446,0.617339301277518 l -15.617350528326716 -4.2565783337684735" fill="#ffba11" stroke="none" /><path d="M 120.16314734710363 105.8691983318838 l 15.2818459966899 4.448322649626492 a36.916104782946334,36.916104782946334 0 0,0 -0.18233686853422865,0.6069401334979051 l -15.203232808152041 -4.710000386715121" fill="#ffb710" stroke="none" /><path d="M 120.05942366710727 106.21446072829308 l 14.517642922802 4.497602887717724 a36.19836793111648,36.19836793111648 0 0,0 -0.18898182650130757,0.5919828798751507 l -14.438296380523438 -4.746154801284258" fill="#ffad10" stroke="none" /><path d="M 119.94978838288452 106.5578916946017 l 13.665556846015027 4.492139967733911 a35.38494926655567,35.38494926655567 0 0,0 -0.1946417855814015,0.575423853492645 l -13.586429638861262 -4.726065495700715" fill="#ffa20f" stroke="none" /><path d="M 119.83427380445688 106.89939002012753 l 3.9382255737489036 1.369919286605221 a25.169688180373065,25.169688180373065 0 0,0 -0.1454566227436689,0.4068680617156642 l -3.9141287809612915 -1.4373223047018067" fill="#ff1001" stroke="none" /><path d="M 119.71291397450082 107.23885506374661 l 14.430915590908462 5.299232093990447 a36.37313193782917,36.37313193782917 0 0,0 -0.22026411028861267,0.58427672149108 l -14.337820796805408 -5.546177095675687" fill="#ffaf10" stroke="none" /><path d="M 119.58574465831526 107.57618678355244 l 13.850867630285228 5.357813149920226 a35.85101666086,35.85101666086 0 0,0 -0.22695626946220368,0.5720780578530357 l -13.756852685856899 -5.594792224986826" fill="#ffa80f" stroke="none" /><path d="M 119.4528033332814 107.91128576633889 l 2.8629561421916816 1.164339339133846 a24.090664001273467,24.090664001273467 0 0,0 -0.15908345166342325,0.3817423716951008 l -2.8425468459917727 -1.2133142202702245" fill="#ff0000" stroke="none" /><path d="M 119.31412917781788 108.2440532568976 l 14.86967687908635 6.34698085403904 a37.167605155061565,37.167605155061565 0 0,0 -0.2555115652839263,0.5846604646815087 l -14.758531431785459 -6.601303388496393" fill="#ffba11" stroke="none" /><path d="M 119.16976305983485 108.57439118712176 l 13.978090027839364 6.252221875325204 a36.31265095287806,36.31265095287806 0 0,0 -0.25940294120131235,0.5668422413021764 l -13.868702621782997 -6.491253098842069" fill="#ffaf10" stroke="none" /><path d="M 118.8641267826498 109.22738970284198 l 14.240055724824815 6.965524833304104 a36.852372795562566,36.852372795562566 0 0,0 -0.28285088788296997,0.5658912500641301 l -14.118384923730112 -7.20894793953198" fill="#ffb610" stroke="none" /><path d="M 118.70294669586154 109.54985784667822 l 14.12186393098349 7.210724345424464 a36.85627908656093,36.85627908656093 0 0,0 -0.29255449196843025,0.5610118131051497 l -13.996001370040112 -7.452082401634116" fill="#ffb610" stroke="none" /><path d="M 118.5362547648365 109.86951160357373 l 13.222913293299271 7.040456545128712 a35.98043605259728,35.98043605259728 0 0,0 -0.29496187568202564,0.542696629006491 l -13.100106068001907 -7.266408007609805" fill="#ffaa0f" stroke="none" /><line stroke="#e1ed5e" stroke-width="0.3" x1="174.33088141563837" x2="178.70328620479359" y1="141.23008692659167" y2="143.65538615756765" /><path d="M 175.20536237346943 141.71514677278685 a86.0,86.0 0 0,1 -30.301960400862466,31.631185727798858" fill="none" id="id65" stroke="none" /><text fill="#e1ed5e" style="font-size:6.75px; font-family:Arial;" text-anchor="middle"><textPath startOffset="22.145653131862474" xlink:href="#id65">May</textPath></text><path d="M 117.423217284605 111.72311816256416 l 12.92516903346931 8.696630557684687 a36.578555054966074,36.578555054966074 0 0,0 -0.35500404441275857,0.5179615102226175 l -12.77397525224123 -8.917226802977348" fill="#ffb210" stroke="none" /><path d="M 117.21940702142032 112.02048342749411 l 12.982259769989799 9.062625572556684 a36.83256931151271,36.83256931151271 0 0,0 -0.3663698862630346,0.5153451267868132 l -12.824774785196803 -9.284147926053" fill="#ffb510" stroke="none" /><path d="M 116.79662413953412 112.60449989151573 l 11.659644298999313 8.749614451152755 a35.57748463291964,35.57748463291964 0 0,0 -0.3707648648867659,0.4853431098488353 l -11.507727456758243 -8.948478474242467" fill="#ffa50f" stroke="none" /><path d="M 116.35404254752997 113.17365903436017 l 11.825210799420503 9.525552757261703 a36.18458974691471,36.18458974691471 0 0,0 -0.3938144324382239,0.4803895742436157 l -11.659949547743652 -9.727144613203812" fill="#ffad10" stroke="none" /><path d="M 115.6541949942343 113.99807769240083 l 11.954620240307484 10.689895134729465 a37.037044711588294,37.037044711588294 0 0,0 -0.4278701048120674,0.47030419699862125 l -11.769352434653536 -10.893536907285759" fill="#ffb811" stroke="none" /><path d="M 115.41159269507618 114.26474011684316 l 10.869716094280001 10.060846941426723 a35.8111906729022,35.8111906729022 0 0,0 -0.42145366008410656,0.4475691819837691 l -10.695406600459634 -10.24595758335499" fill="#ffa80f" stroke="none" /><path d="M 114.39649973595853 115.28858382429668 l 10.211071061654325 10.843803613737096 a35.89476582694243,35.89476582694243 0 0,0 -0.45222316206979774,0.4185710075120049 l -10.02341812827056 -11.01749236738148" fill="#ffa90f" stroke="none" /><path d="M 113.59037401385872 116.0094264158162 l 9.376673104723894 11.045697340055591 a35.48894158456592,35.48894158456592 0 0,0 -0.46782142304938445,0.39027326975327936 l -9.185677347512614 -11.205032793720742" fill="#ffa30f" stroke="none" /><path d="M 113.03279911837588 116.46651593811092 l 9.527050444472973 12.03711701240821 a36.35111970319885,36.35111970319885 0 0,0 -0.4926270080430818,0.3830697410821224 l -9.319013491794662 -12.198887805111125" fill="#ffaf10" stroke="none" /><path d="M 112.45986205192187 116.90419585922612 l 12.134878202831683 16.46329285297988 a41.452268347558366,41.452268347558366 0 0,0 -0.576421405741007,0.41728464540524063 l -11.850475786716707 -16.669178269758195" fill="#fff216" stroke="none" /><path d="M 111.5731344415666 117.5232005979908 l 8.43804732660329 12.7762791235141 a36.31123610058767,36.31123610058767 0 0,0 -0.5230795538540821,0.33905384714033754 l -8.217482140492198 -12.919246812358331" fill="#ffae10" stroke="none" /><line stroke="#e1ed5e" stroke-width="0.3" x1="143.1302829299769" x2="145.66735839644613" y1="173.24464959558577" y2="177.55315839532614" /><path d="M 143.63769802327073 174.10635135553383 a86.0,86.0 0 0,1 -40.68552437913181,11.842963189579606" fill="none" id="id66" stroke="none" /><text fill="#e1ed5e" style="font-size:6.75px; font-family:Arial;" text-anchor="middle"><textPath startOffset="21.407464694133747" xlink:href="#id66">June</textPath></text><path d="M 110.65571695917076 118.09573695890943 l 7.577692935340851 12.86857924612005 a35.93391315215092,35.93391315215092 0 0,0 -0.5342303973977051,0.30843806374684696 l -7.3556700700827475 -12.996764207143068" fill="#ffa90f" stroke="none" /><path d="M 110.02825361518725 118.45085714620011 l 7.5033641835044955 13.805344976127309 a36.71267080989676,36.71267080989676 0 0,0 -0.5563039263836033,0.29620050685600574 l -7.265271441334339 -13.932115950705883" fill="#ffb410" stroke="none" /><path d="M 109.71004243097381 118.62028667847754 l 7.257972939804899 13.918120111679684 a36.69688627206309,36.69688627206309 0 0,0 -0.5610652966586666,0.2864839382224285 l -7.017980421432651 -14.04066200157495" fill="#ffb410" stroke="none" /><path d="M 108.07796709384702 119.3841803445677 l 6.3238181221046394 15.174861387897 a37.43980212117367,37.43980212117367 0 0,0 -0.5953740424894579,0.24213343996214595 l -6.062389618424741 -15.281182084438436" fill="#ffbe11" stroke="none" /><path d="M 104.64783097203109 120.47920084513623 l 2.631932664392757 11.596780943481644 a32.89169448821305,32.89169448821305 0 0,0 -0.5516995704680883,0.12024035358911024 l -2.432470677305533 -11.640252755204473" fill="#ff800b" stroke="none" /><path d="M 100.72087961077811 120.9876233191556 l 0.5139005945606382 14.961655095900069 a35.97047818306958,35.97047818306958 0 0,0 -0.6172991154136694,0.015899435502347046 l -0.2569881650762249 -14.968272248752461" fill="#ffaa0f" stroke="none" /><line stroke="#e1ed5e" stroke-width="0.3" x1="101.45913802915013" x2="101.54496967792366" y1="184.9874750549273" y2="189.98673829345242" /><path d="M 101.47630435890484 185.9873277026323 a86.0,86.0 0 0,1 -42.54439059252881,-10.42667462771756" fill="none" id="id67" stroke="none" /><text fill="#e1ed5e" style="font-size:6.75px; font-family:Arial;" text-anchor="middle"><textPath startOffset="22.145653131862474" xlink:href="#id67">July</textPath></text><path d="M 99.63950707515114 120.99690560180557 l -0.281344343518217 16.386897537395072 a37.3893125402109,37.3893125402109 0 0,0 -0.6416481159780849,-0.016526579385031125 l 0.5626057735670458 -16.37965324065999" fill="#ffbd11" stroke="none" /><path d="M 98.55909050195518 120.95050786540614 l -1.0324720643247896 15.01191721881187 a36.04738040816645,36.04738040816645 0 0,0 -0.6169783893250822,-0.047758029377806904 l 1.290019448425108 -14.99198142243901" fill="#ffab0f" stroke="none" /><path d="M 98.19965949673042 120.92268563240118 l -1.2878708509313364 14.96701146268356 a36.02231817838977,36.02231817838977 0 0,0 -0.6156393201003805,-0.05830168369129415 l 1.544609734416732 -14.94269802348708" fill="#ffab0f" stroke="none" /><path d="M 96.05791012581884 120.62667999033965 l -2.881003295867902 15.074626640095211 a36.347460647581734,36.347460647581734 0 0,0 -0.6118550038545401,-0.1223881367696859 l 3.1393547852534 -15.022949106662663" fill="#ffaf10" stroke="none" /><path d="M 94.6519064749342 120.30758222061772 l -2.8378688943366157 10.775850428375819 a32.143269372862285,32.143269372862285 0 0,0 -0.5323822344117943,-0.14510314538757155 l 3.022432529683105 -10.725546788844103" fill="#ff750a" stroke="none" /><path d="M 93.61358852112213 120.00534299687104 l -4.67334054226639 14.639172686951484 a36.36702602270124,36.36702602270124 0 0,0 -0.5930895005784756,-0.19496029909449572 l 4.923952780492609 -14.556791466454968" fill="#ffaf10" stroke="none" /><path d="M 93.27111125876986 119.89276391827306 l -4.821121100978252 14.252787877962781 a36.04610152047701,36.04610152047701 0 0,0 -0.5844518813334088,-0.20330270304176246 l 5.065078754356683 -14.16792674235243" fill="#ffab0f" stroke="none" /><path d="M 92.59220618246901 119.65005319985036 l -5.340713660459543 14.166877499322164 a36.140133436790435,36.140133436790435 0 0,0 -0.5786340618397161,-0.22382808559500497 l 5.583119984792787 -14.073109525589118" fill="#ffac0f" stroke="none" /><path d="M 92.25597844496254 119.51999308798841 l -5.632806230200019 14.198351321473112 a36.274871072285926,36.274871072285926 0 0,0 -0.5768491126419911,-0.23459951226474557 l 5.87570980403245 -14.099564552629074" fill="#ffae10" stroke="none" /><path d="M 91.26138138417905 119.09545874513695 l -7.243334370223932 15.827992812666036 a38.406643825754436,38.406643825754436 0 0,0 -0.5971525081631753,-0.27949752581811244 l 7.513975592258598 -15.701319055277398" fill="#ffca12" stroke="none" /><path d="M 90.6110303473126 118.78422872680471 l -6.705375488354075 13.415242729674887 a35.99769308713559,35.99769308713559 0 0,0 -0.5503752062565902,-0.2810255018932186 l 6.9346779163242465 -13.298159276108834" fill="#ffaa0f" stroke="none" /><path d="M 90.28995756902619 118.62028667847754 l -7.671334457299422 14.710795325234496 a37.59086710984964,37.59086710984964 0 0,0 -0.5696111589826303,-0.30328585868213015 l 7.922734432068615 -14.576938998829794" fill="#ffc011" stroke="none" /><path d="M 89.97174638481275 118.45085714620012 l -7.150234905361945 13.155626878124535 a35.973188630291446,35.973188630291446 0 0,0 -0.5400360374407709,-0.2995488865882133 l 7.3750151309588174 -13.030945076103173" fill="#ffaa0f" stroke="none" /><line stroke="#e1ed5e" stroke-width="0.3" x1="58.13341422392154" x2="55.67067388415222" y1="173.97424548756322" y2="178.32567169271397" /><path d="M 57.64086615596768 174.84453072859336 a86.0,86.0 0 0,1 -31.369924170532247,-30.572349798747897" fill="none" id="id68" stroke="none" /><text fill="#e1ed5e" style="font-size:6.75px; font-family:Arial;" text-anchor="middle"><textPath startOffset="22.145653131862474" xlink:href="#id68">August</textPath></text><path d="M 89.34428304082925 118.09573695890944 l -7.581630004231598 12.87526524982203 a35.94167222148644,35.94167222148644 0 0,0 -0.5289711218195859,-0.3176319600778556 l 7.801533882608611 -12.743219289208255" fill="#ffaa0f" stroke="none" /><path d="M 89.03521579738668 117.91015095944536 l -7.786314362884311 12.718359347529924 a35.912523456831856,35.912523456831856 0 0,0 -0.5230160904180978,-0.3264007225236876 l 8.003494582092122 -12.582822828164689" fill="#ffa90f" stroke="none" /><path d="M 88.72937992617639 117.7192867562869 l -8.30687603444877 13.059788861589194 a36.47779940950872,36.47779940950872 0 0,0 -0.5254789726201503,-0.3406091213955478 l 8.52984063932593 -12.915265898489752" fill="#ffb110" stroke="none" /><path d="M 88.1277618465304 117.32195027204791 l -8.441977454907118 12.3170973982623 a35.932443593311845,35.932443593311845 0 0,0 -0.5058003196335602,-0.3530879055366513 l 8.652172865714444 -12.170364676920519" fill="#ffa90f" stroke="none" /><path d="M 87.83215693770417 117.11559508785305 l -8.69240623348 12.226957947245458 a36.00188077447461,36.00188077447461 0 0,0 -0.500630135638069,-0.36241761070679995 l 8.901017379492023 -12.075939565165593" fill="#ffaa0f" stroke="none" /><path d="M 87.2517909369889 116.68781488649013 l -9.161994531916145 11.993344946253819 a36.09246390761606,36.09246390761606 0 0,0 -0.48912172865330844,-0.3803440146271386 l 9.366526205204682 -11.834299880005887" fill="#ffac0f" stroke="none" /><path d="M 86.96720088162412 116.46651593811092 l -9.3181807058041 11.773216920836111 a36.01456387415504,36.01456387415504 0 0,0 -0.4814790982695354,-0.3878454794488742 l 9.518910574428897 -11.611523147593827" fill="#ffaa0f" stroke="none" /><path d="M 86.40962598614128 116.0094264158162 l -6.878695994844288 8.10308658569152 a31.62903903486579,31.62903903486579 0 0,0 -0.41090718495680056,-0.35493183966992664 l 7.016782659563952 -7.983810613556871" fill="#ff6e0a" stroke="none" /><path d="M 86.13680546590413 115.77377054828092 l -9.937203496571556 11.306713431812737 a36.052899453640435,36.052899453640435 0 0,0 -0.46136547464827465,-0.4125558523511791 l 10.129833998043202 -11.134462049578175" fill="#ffab0f" stroke="none" /><path d="M 85.60350026404147 115.28858382429668 l -10.255562675816845 10.891052166168423 a35.95966520627415,35.95966520627415 0 0,0 -0.44577572629832835,-0.4270430619389132 l 10.441010887980488 -10.713396973923928" fill="#ffaa0f" stroke="none" /><path d="M 81.99639281039703 110.81064883170644 l -14.287032276440138 8.578952382222909 a37.6648646932548,37.6648646932548 0 0,0 -0.32809018841911036,-0.5571688673019424 l 14.432196174989018 -8.332432346627407" fill="#ffc111" stroke="none" /><line stroke="#e1ed5e" stroke-width="0.3" x1="26.387840678322732" x2="22.057713659400548" y1="142.50000000000003" y2="145.00000000000006" /><path d="M 25.521815274538298 143.00000000000003 a86.0,86.0 0 0,1 -11.493303480769221,-40.785679425670985" fill="none" id="id69" stroke="none" /><text fill="#e1ed5e" style="font-size:6.75px; font-family:Arial;" text-anchor="middle"><textPath startOffset="21.40746469413373" xlink:href="#id69">September</textPath></text><path d="M 81.29705330413844 109.54985784667822 l -13.238790937540804 6.759820982828431 a35.86474907988023,35.86474907988023 0 0,0 -0.27527063663497003,-0.5507256697591301 l 13.352881487387512 -6.531563456905547" fill="#ffa80f" stroke="none" /><path d="M 80.5471966667186 107.91128576633889 l -13.814789842122964 5.618354762059612 a35.91356190232172,35.91356190232172 0 0,0 -0.22735221457051247,-0.5730760981764601 l 13.9092007316596 -5.3803776466695865" fill="#ffa90f" stroke="none" /><path d="M 80.28708602549918 107.23885506374661 l -13.916422236814288 5.110303007891552 a35.825046533005036,35.825046533005036 0 0,0 -0.2070343597815863,-0.579111951618194 l 14.002096766639818 -4.870656099892437" fill="#ffa80f" stroke="none" /><path d="M 79.83685265289637 105.86919833188381 l -14.356585042583854 4.178992670783862 a35.952441734626746,35.952441734626746 0 0,0 -0.16740399840060874,-0.5940577332502247 l 14.426207533059038 -3.9319270136306415" fill="#ffaa0f" stroke="none" /><path d="M 79.56144815229197 104.8234425847677 l -10.502404870753606 2.478538952932002 a31.79090651476651,31.79090651476651 0 0,0 -0.12078900195780906,-0.5322186296926684 l 10.543404734269082 -2.2978859893003074" fill="#ff700a" stroke="none" /><path d="M 79.2786578344484 103.40968896794605 l -23.044825243854458 3.792017224291774 a44.35472896757993,44.35472896757993 0 0,0 -0.11717781808251887,-0.7523656497847346 l 23.106524554075243 -3.3958633925755892" fill="#e8ff1a" stroke="none" /><path d="M 79.13060592940153 102.33845913500099 l -19.014930138300674 2.130662583345409 a40.13393036489167,40.13393036489167 0 0,0 -0.07084137042542614,-0.6853259967553282 l 19.048703901207766 -1.8039320643071493" fill="#ffe115" stroke="none" /><path d="M 79.06263194458094 101.62068470465958 l -15.117513893284496 1.1701911851801958 a36.16273635342655,36.16273635342655 0 0,0 -0.04259632622932551,-0.6193412347658401 l 15.135374180678888 -0.9105065262600125" fill="#ffac10" stroke="none" /><line stroke="#e1ed5e" stroke-width="0.3" x1="15.003131293944662" x2="10.003315487706104" y1="100.72959589197737" y2="100.7725132973878" /><path d="M 14.003168132696942 100.73817937305945 a86.0,86.0 0 0,1 10.791469493833604,-42.45332614584628" fill="none" id="id70" stroke="none" /><text fill="#e1ed5e" style="font-size:6.75px; font-family:Arial;" text-anchor="middle"><textPath startOffset="22.145653131862435" xlink:href="#id70">October</textPath></text><path d="M 79.00077361379809 100.18025310272382 l -14.936249210951647 0.12820973562622828 a35.93679946400711,35.93679946400711 0 0,0 0.0,-0.6169256767000861 l 14.936249210951647 0.1282097356262228" fill="#ffa90f" stroke="none" /><path d="M 79.03789590574601 98.7389718711861 l -14.92485960616879 -0.8978424922112832 a35.95184120450284,35.95184120450284 0 0,0 0.042347911439144924,-0.6157293382361401 l 14.907247733564581 1.1539152546017482" fill="#ffaa0f" stroke="none" /><path d="M 79.0935383218832 98.0201363427161 l -14.717786149336602 -1.3937896503667353 a35.783635504403975,35.783635504403975 0 0,0 0.06316255983125948,-0.6110404699121842 l 14.69169119702368 1.6462346425618324" fill="#ffa70f" stroke="none" /><path d="M 79.13060592940154 97.66154086499901 l -15.166956803774646 -1.6994891451074692 a36.26187544313949,36.26187544313949 0 0,0 0.07462679071258353,-0.6180168813197331 l 15.135547926802394 1.9595997033506385" fill="#ffae10" stroke="none" /><path d="M 79.17382384314186 97.30363454192245 l -19.150994877313057 -2.479479703142842 a40.31083696759848,40.31083696759848 0 0,0 0.09474099269523911,-0.6854986279700179 l 19.10560936806261 2.8078666393129272" fill="#ffe315" stroke="none" /><path d="M 79.2786578344484 96.59031103205396 l -15.070586812547305 -2.4798593249737833 a36.273254045755415,36.273254045755415 0 0,0 0.10637595097897129,-0.6135482169377915 l 15.025796044076099 2.7382005748321676" fill="#ffae10" stroke="none" /><path d="M 79.407916724674 95.88100663000787 l -30.679202035339866 -6.136699628231931 a52.28693848640905,52.28693848640905 0 0,0 0.18360754942730098,-0.8786285906907403 l 30.5693367750882 6.66244467020808" fill="#8bff24" stroke="none" /><path d="M 79.56144815229197 95.17655741523228 l -15.93893918328105 -3.7615462477730244 a37.37678272623983,37.37678272623983 0 0,0 0.1527330560286447,-0.623202988880038 l 15.872018600736109 4.03460506126118" fill="#ffbd11" stroke="none" /><path d="M 79.64726062577567 94.8264132398404 l -18.295031215862796 -4.650525392909256 a39.8768523228712,39.8768523228712 0 0,0 0.17433878645886136,-0.6619927687619196 l 18.21250294859921 4.963898666043961" fill="#ffdd14" stroke="none" /><path d="M 79.83685265289637 94.1308016681162 l -14.315117800590459 -4.166922160989639 a35.909253433372456,35.909253433372456 0 0,0 0.17736380533484225,-0.590386423508296 l 14.241477675251986 4.412046188088659" fill="#ffa90f" stroke="none" /><path d="M 79.94057633289273 93.78553927170692 l -14.081912879316196 -4.362612606425638 a35.742206724042205,35.742206724042205 0 0,0 0.18660033299706652,-0.584522885392374 l 14.004947830541871 4.603704525509404" fill="#ffa70f" stroke="none" /><path d="M 80.05021161711548 93.44210830539832 l -29.726089820192872 -9.771556159065394 a52.2909527782064,52.2909527782064 0 0,0 0.2876365412263754,-0.8503463244718177 l 29.55396785739413 10.280404158011374" fill="#8bff24" stroke="none" /><path d="M 80.28708602549916 92.7611449362534 l -14.030938089101992 -5.1523548150614245 a35.94703929882101,35.94703929882101 0 0,0 0.21768382888222215,-0.5774322185047596 l 13.940423576405333 5.392455313760329" fill="#ffaa0f" stroke="none" /><path d="M 80.41425534168474 92.42381321644754 l -13.743294268466002 -5.316201462629541 a35.73567559838757,35.73567559838757 0 0,0 0.226226098334768,-0.5702375496288127 l 13.650009495165103 5.551340029471937" fill="#ffa70f" stroke="none" /><path d="M 80.68587082218212 91.75594674310238 l -13.842703973186241 -5.908627188094061 a36.050990948676784,36.050990948676784 0 0,0 0.24783531489055025,-0.5670957015483261 l 13.739234776278714 6.145384959418254" fill="#ffab0f" stroke="none" /><path d="M 80.83023694016515 91.42560881287825 l -28.700861719552233 -12.837530386932624 a52.44108219957254,52.44108219957254 0 0,0 0.3746179528452075,-0.8186078347431407 l 28.47625930185198 13.328327203890435" fill="#89ff24" stroke="none" /><path d="M 81.1358732173502 90.77261029715801 l -13.2386438883318 -6.475684122688318 a35.73757703487593,35.73757703487593 0 0,0 0.27429456038491845,-0.5487728634114625 l 13.125529414735139 6.701988842263551" fill="#ffa70f" stroke="none" /><path d="M 81.29705330413844 90.45014215332179 l -10.780776739111614 -5.504741419065911 a33.104847177447134,33.104847177447134 0 0,0 0.2627767096332463,-0.5039089891296576 l 10.684691960503427 5.688996651300055" fill="#ff830c" stroke="none" /><path d="M 81.46374523516351 90.13048839642627 l -13.295757671020317 -7.079242073289282 a36.06296253659036,36.06296253659036 0 0,0 0.2956384146343535,-0.5439413844786127 l 13.172273906770613 7.3064382912425145" fill="#ffab0f" stroke="none" /><line stroke="#e1ed5e" stroke-width="0.3" x1="26.387840678322718" x2="22.05771365940052" y1="57.49999999999999" y2="54.99999999999999" /><path d="M 25.521815274538284 56.99999999999999 a86.0,86.0 0 0,1 29.574782752854787,-30.34633250058573" fill="none" id="id71" stroke="none" /><text fill="#e1ed5e" style="font-size:6.75px; font-family:Arial;" text-anchor="middle"><textPath startOffset="21.40746469413373" xlink:href="#id71">November</textPath></text><path d="M 81.81346652052679 89.5 l -12.977608029915265 -7.492625489509029 a35.985250979018055,35.985250979018055 0 0,0 0.31345945007811893,-0.532322675014025 l 12.847074869707367 7.714299332816627" fill="#ffaa0f" stroke="none" /><path d="M 81.99639281039701 89.18935116829357 l -13.98870558054859 -8.399815772962198 a37.316886615987,37.316886615987 0 0,0 0.33448731085307304,-0.5463598845811812 l 13.842450305240124 8.638712773667923" fill="#ffbc11" stroke="none" /><path d="M 82.18462484594161 88.88188828441811 l -21.738927935278717 -13.566698835772415 a46.62491570865727,46.62491570865727 0 0,0 0.4295760151933007,-0.6753648465634818 l 21.502834228459527 13.937877357014568" fill="#ccff1d" stroke="none" /><path d="M 82.576782715395 88.27688183743585 l -12.475909852227938 -8.394348930745265 a36.03706821863964,36.03706821863964 0 0,0 0.3497487789545453,-0.5102939208635718 l 12.32997133645808 8.60727758667887" fill="#ffab0f" stroke="none" /><path d="M 82.78059297857968 87.97951657250589 l -13.02380094709115 -9.091624540423831 a36.88323102814692,36.88323102814692 0 0,0 0.3668738132957495,-0.5160539632668381 l 12.865812035265428 9.31385573040019" fill="#ffb610" stroke="none" /><path d="M 83.42222388311158 87.10902102172516 l -29.231118768991024 -22.730294757608657 a58.02869973756344,58.02869973756344 0 0,0 0.6182365770244831,-0.781121718874879 l 28.83661576132498 23.22873642039822" fill="#4dff2c" stroke="none" /><path d="M 83.8745106332314 86.54754324733833 l -7.989068336962737 -6.664764947755905 a31.404052321162958,31.404052321162958 0 0,0 0.3488921968778256,-0.4109941306451278 l 7.873481576577798 6.800925860850589" fill="#ff6b09" stroke="none" /><path d="M 84.58840730492382 85.73525988315684 l -11.009796629688607 -10.19050339371997 a36.002065899219375,36.002065899219375 0 0,0 0.42370002668735135,-0.4499547454709818 l 10.833240769264984 10.377999599135464" fill="#ffaa0f" stroke="none" /><path d="M 85.08716467003674 85.21462403516908 l -22.153919905910772 -21.964571300905632 a52.1967716219175,52.1967716219175 0 0,0 0.6363235846829157,-0.6308849542462557 l 21.77360440109788 22.34163626538056" fill="#8cff24" stroke="none" /><path d="M 86.40962598614128 83.9905735841838 l -9.549488285623053 -11.249273188617217 a35.75597756129339,35.75597756129339 0 0,0 0.47134153790937544,-0.39320987476670727 l 9.354972413551769 11.411545247295805" fill="#ffa70f" stroke="none" /><path d="M 87.25179093698888 83.31218511350988 l -22.69770344360985 -29.71202241375416 a58.38970469968288,58.38970469968288 0 0,0 0.8017379442160646,-0.6016391000326248 l 22.184312510483032 30.097280541050786" fill="#49ff2c" stroke="none" /><line stroke="#e1ed5e" stroke-width="0.3" x1="56.869717070023135" x2="54.33264160355391" y1="26.7553504044142" y2="22.446841604673864" /><path d="M 56.362301976729285 25.89364864446614 a86.0,86.0 0 0,1 42.16139366436587,-11.88097634709845" fill="none" id="id72" stroke="none" /><text fill="#e1ed5e" style="font-size:6.75px; font-family:Arial;" text-anchor="middle"><textPath startOffset="22.145653131862474" xlink:href="#id72">December</textPath></text><path d="M 89.34428304082924 81.90426304109057 l -7.504834754796889 -12.744850127236736 a35.79032621217441,35.79032621217441 0 0,0 0.532095686722582,-0.30720558796391984 l 7.284946600213907 12.87180261247683" fill="#ffa70f" stroke="none" /><path d="M 89.97174638481275 81.54914285379989 l -5.739521420664691 -10.56007295825279 a33.01903685916183,33.01903685916183 0 0,0 0.5003346105019547,-0.26639999863327757 l 5.557397994376175 10.657043424608643" fill="#ff820b" stroke="none" /><path d="M 90.28995756902619 81.37971332152246 l -5.51396253604016 -10.573750206069478 a32.92509858530355,32.92509858530355 0 0,0 0.503397756101791,-0.2570384811165973 l 5.331637558224786 10.666846638858908" fill="#ff800b" stroke="none" /><path d="M 90.93487009805054 81.0573650232925 l -3.215000912828907 -6.718115393845895 a28.447771835557255,28.447771835557255 0 0,0 0.4423104080722513,-0.20702360453958257 l 3.0992017908851333 6.77231522995602" fill="#ff4106" stroke="none" /><path d="M 91.5904679813234 80.7573450057729 l -25.22859605602979 -57.7279649826813 a84.0,84.0 0 0,0 1.3262596993182754,-0.5661014013623844 l 24.233901281541083 58.15254103370309" fill="#4dd2ff" stroke="none" /><path d="M 92.93061703081487 80.22567764915836 l -2.5072177080382723 -7.013134155922238 a28.447831316864246,28.447831316864246 0 0,0 0.46125344577283994,-0.16044789196161302 l 2.386458490220428 7.055140480452437" fill="#ff4106" stroke="none" /><path d="M 93.61358852112211 79.99465700312896 l -3.6875866372165467 -11.551312619329858 a33.125638887764524,33.125638887764524 0 0,0 0.5431963830054273,-0.1682836279824624 l 3.4887496213395033 11.612912835118962" fill="#ff830c" stroke="none" /><path d="M 93.95794788825049 79.88797359093562 l -3.763653197571179 -12.527977432851602 a34.08110484437866,34.08110484437866 0 0,0 0.5617539623263711,-0.16351839134324106 l 3.5480392228631836 12.590739518497363" fill="#ff900d" stroke="none" /><path d="M 94.6519064749342 79.69241777938228 l -3.8290162082638486 -14.539398219001644 a36.03514102673651,36.03514102673651 0 0,0 0.5995470253627977,-0.15240250933681931 l 3.578863889675673 14.602985960173726" fill="#ffab0f" stroke="none" /><path d="M 95.00130118170881 79.60360301121753 l -3.5404287722757353 -14.446157565166006 a35.87367151342132,35.87367151342132 0 0,0 0.5993770410169632,-0.141451349660933 l 3.291919577518866 14.504805058473172" fill="#ffa90f" stroke="none" /><path d="M 95.70440661134978 79.44403061299748 l -3.0580232873411464 -14.633748446818867 a35.94985284311168,35.94985284311168 0 0,0 0.6051618726040089,-0.12104932306750495 l 2.8063649292061608 14.684087166549237" fill="#ffaa0f" stroke="none" /><path d="M 96.76829788921471 79.25015418208739 l -2.3270394950297097 -14.941262863589358 a36.121390437731,36.121390437731 0 0,0 0.6135044342705374,-0.09016402465227556 l 2.0702099551514874 14.979007961540518" fill="#ffac0f" stroke="none" /><path d="M 97.84075906011542 79.11130261209362 l -1.5919773921077076 -15.400937143172126 a36.482998963538066,36.482998963538066 0 0,0 0.6235125836684684,-0.0590472899369934 l 1.3273652450542237 15.425996188614302" fill="#ffb110" stroke="none" /><path d="M 98.5590905019552 79.04949213459386 l -1.0251590679040972 -14.905587855837213 a35.94079985953188,35.94079985953188 0 0,0 0.6158809437299324,-0.0370498682074942 l 0.769133772041681 14.9209897018694" fill="#ffaa0f" stroke="none" /><path d="M 98.9189461498227 79.02784411241856 l -0.5924611297569918 -11.493587640022291 a32.50884733712052,32.50884733712052 0 0,0 0.5575642553995923,-0.02394420817819505 l 0.39507111375657944 11.502064416626315" fill="#ff7a0b" stroke="none" /><path d="M 99.63950707515114 79.00309439819443 l -0.2537477393488342 -14.779533695461163 a35.78171181462068,35.78171181462068 0 0,0 0.6142406641976828,-0.005272517353950121 l 3.620475211938765e-15 14.781711814620678" fill="#ffa70f" stroke="none" /></svg>