<?xml version="1.0" encoding="utf-8" ?>
<svg baseProfile="full" height="200mm" version="1.1" viewBox="0,0,200,200" width="200mm" xmlns="http://www.w3.org/2000/svg" xmlns:ev="http://www.w3.org/2001/xml-events" xmlns:xlink="http://www.w3.org/1999/xlink"><defs /><rect fill="#1a1a1a" height="200" width="200" x="0" y="0" /><rect fill="#1a1a1a" height="200" width="180" x="10" y="0" /><text alignment-baseline="middle" fill="#e1ed5e" style="dominant-baseline: central; font-size:9.0px; font-family:Arial;" text-anchor="middle" x="100.0" y="100.0">2022</text><line stroke="#e1ed5e" stroke-width="0.3" x1="100.0" x2="100.0" y1="15.0" y2="10.0" /><path d="M 100.0 14.0 a86.0,86.0 0 0,1 42.46469731375804,11.215312516191453" fill="none" id="id37" stroke="none" /><text fill="#e1ed5e" style="font-size:6.75px; font-family:Arial;" text-anchor="middle"><textPath startOffset="22.20632615414155" xlink:href="#id37">January</textPath></text><line stroke="#e1ed5e" stroke-width="0.3" x1="143.23703022742887" x2="145.7803849466894" y1="26.81831364943548" y2="22.513508569990506" /><path d="M 143.74570117128098 25.957352633546492 a86.0,86.0 0 0,1 28.547481713284135,27.462654790039103" fill="none" id="id38" stroke="none" /><text fill="#e1ed5e" style="font-size:6.75px; font-family:Arial;" text-anchor="middle"><textPath startOffset="19.985693538727396" xlink:href="#id38">February</textPath></text><line stroke="#e1ed5e" stroke-width="0.3" x1="172.23445277983987" x2="176.4835382374775" y1="55.19839476539836" y2="52.563006222186495" /><path d="M 173.08426987136738 54.67131705675599 a86.0,86.0 0 0,1 12.851231095245387,41.99856678651699" fill="none" id="id39" stroke="none" /><text fill="#e1ed5e" style="font-size:6.75px; font-family:Arial;" text-anchor="middle"><textPath startOffset="22.20632615414155" xlink:href="#id39">March</textPath></text><path d="M 119.04729006885535 91.15688171328212 l 9.552387910041842 -4.434903647907233 a31.531689567687344,31.531689567687344 0 0,0 0.22432196969730916,0.49426372522414314 l -9.6273121967025 4.2698179138410275" fill="red" stroke="none" /><line stroke="#e1ed5e" stroke-width="0.3" x1="184.98032266829074" x2="189.97916517819016" y1="98.17113171792111" y2="98.06355123074" /><path d="M 185.9800911702706 98.14961562048488 a86.0,86.0 0 0,1 -9.607161424134198,41.387399972396054" fill="none" id="id40" stroke="none" /><text fill="#e1ed5e" style="font-size:6.75px; font-family:Arial;" text-anchor="middle"><textPath startOffset="21.466115282336823" xlink:href="#id40">April</textPath></text><line stroke="#e1ed5e" stroke-width="0.3" x1="174.80103733775053" x2="179.2010983576182" y1="140.37084112569926" y2="142.7455964860345" /><path d="M 175.68104954172406 140.8457921977663 a86.0,86.0 0 0,1 -30.038265399797805,32.042727171017184" fill="none" id="id41" stroke="none" /><text fill="#e1ed5e" style="font-size:6.75px; font-family:Arial;" text-anchor="middle"><textPath startOffset="22.206326154141568" xlink:href="#id41">May</textPath></text><path d="M 111.1453310114006 117.79835938074945 l 7.031332507593419 11.228574796718142 a34.2484160863793,34.2484160863793 0 0,0 -0.502344024951321,0.30858072935254593 l -6.837009282709789 -11.347943992899067" fill="red" stroke="none" /><line stroke="#e1ed5e" stroke-width="0.3" x1="143.8653032363475" x2="146.44561519142675" y1="172.8068346515853" y2="177.08958963109032" /><path d="M 144.38136562736335 173.6633856474863 a86.0,86.0 0 0,1 -40.68145358897372,12.25698825130547" fill="none" id="id42" stroke="none" /><text fill="#e1ed5e" style="font-size:6.75px; font-family:Arial;" text-anchor="middle"><textPath startOffset="21.466115282336833" xlink:href="#id42">June</textPath></text><line stroke="#e1ed5e" stroke-width="0.3" x1="102.19456741930631" x2="102.32365962044197" y1="184.97166512339345" y2="189.96999836594603" /><path d="M 102.22038585953345 185.97133177190398 a86.0,86.0 0 0,1 -42.740103519485714,-10.115201625700543" fill="none" id="id43" stroke="none" /><text fill="#e1ed5e" style="font-size:6.75px; font-family:Arial;" text-anchor="middle"><textPath startOffset="22.20632615414155" xlink:href="#id43">July</textPath></text><line stroke="#e1ed5e" stroke-width="0.3" x1="58.666819895761336" x2="56.23545636021788" y1="174.27360380694188" y2="178.64263932499728" /><path d="M 58.180547188652646 175.14741091055294 a86.0,86.0 0 0,1 -31.652253787137756,-30.449443065178592" fill="none" id="id44" stroke="none" /><text fill="#e1ed5e" style="font-size:6.75px; font-family:Arial;" text-anchor="middle"><textPath startOffset="22.20632615414155" xlink:href="#id44">August</textPath></text><line stroke="#e1ed5e" stroke-width="0.3" x1="26.63291911575756" x2="22.317208475507996" y1="142.92168965132927" y2="145.44649492493687" /><path d="M 25.769776987707644 143.4266507060508 a86.0,86.0 0 0,1 -11.730757126820373,-40.83630448921669" fill="none" id="id45" stroke="none" /><text fill="#e1ed5e" style="font-size:6.75px; font-family:Arial;" text-anchor="middle"><textPath startOffset="21.46611528233685" xlink:href="#id45">September</textPath></text><line stroke="#e1ed5e" stroke-width="0.3" x1="15.007084014347285" x2="10.007500721073583" y1="101.09737516637583" y2="101.16192664675087" /><path d="M 14.007167355692545 101.11028546245083 a86.0,86.0 0 0,1 10.666146001902534,-42.60595125391555" fill="none" id="id46" stroke="none" /><text fill="#e1ed5e" style="font-size:6.75px; font-family:Arial;" text-anchor="middle"><textPath startOffset="22.20632615414155" xlink:href="#id46">October</textPath></text><path d="M 79.03285615573316 98.82574320788736 l -14.346003013358587 -0.8034423573962862 a35.36848363888661,35.36848363888661 0 0,0 0.039274863596615125,-0.6075647563735237 l 14.33004755875756 1.0502661780228217" fill="red" stroke="none" /><path d="M 79.12142395522702 97.74499172005258 l -14.60350838360533 -1.5772642852028225 a35.68843830144674,35.68843830144674 0 0,0 0.0712233262412776,-0.6101979638829184 l 14.574194704360464 1.8284059874106027" fill="red" stroke="none" /><path d="M 80.14247586403 93.16781622104843 l -14.651201696591858 -5.040895425239928 a36.494138822226326,36.494138822226326 0 0,0 0.20948838111992898,-0.5922518634348329 l 14.562260234662121 5.2923449151013715" fill="red" stroke="none" /><path d="M 80.38941819471856 92.48833698450439 l -23.9699350356763 -9.181475403388129 a46.668215290463095,46.668215290463095 0 0,0 0.2938018608051957,-0.7476936892483361 l 23.808339624989415 9.592718097532229" fill="red" stroke="none" /><path d="M 80.65960295795068 91.81776055985345 l -13.72003585411623 -5.804462971556411 a35.89735460497616,35.89735460497616 0 0,0 0.24565634994317617,-0.5670087252166082 l 13.618088794330372 6.039770841359618" fill="red" stroke="none" /><path d="M 80.95270993114464 91.15688171328213 l -13.694744876439804 -6.358082877458822 a36.09871700203065,36.09871700203065 0 0,0 0.2665147754281097,-0.5613480867932942 l 13.583271907169943 6.592873379892648" fill="red" stroke="none" /><path d="M 81.26839172434947 90.50648371742162 l -13.909092272063834 -7.049378356495517 a36.59347886283921,36.59347886283921 0 0,0 0.2895948092789826,-0.5594049953505346 l 13.785688029624737 7.287756074106387" fill="red" stroke="none" /><path d="M 81.43458229118936 90.18545643968196 l -20.856963290415496 -11.02596116932998 a44.59204818165036,44.59204818165036 0 0,0 0.3645758815261447,-0.6755037389875053 l 20.664079309670882 11.383345891649958" fill="red" stroke="none" /><path d="M 81.6062741919709 89.86733742301443 l -21.14964379011174 -11.650831723015827 a45.14641406682665,45.14641406682665 0 0,0 0.3808258226183934,-0.6774466447509182 l 20.945960326200915 12.01316187770153" fill="red" stroke="none" /><line stroke="#e1ed5e" stroke-width="0.3" x1="26.266209847984243" x2="21.928928074336255" y1="57.711370442889674" y2="55.22380399835377" /><path d="M 25.398753493254645 57.213857153982495 a86.0,86.0 0 0,1 29.58750427330803,-30.492523968695096" fill="none" id="id47" stroke="none" /><text fill="#e1ed5e" style="font-size:6.75px; font-family:Arial;" text-anchor="middle"><textPath startOffset="21.46611528233685" xlink:href="#id47">November</textPath></text><path d="M 81.78341655067845 89.55222093294921 l -13.36104174212399 -7.6629743780277195 a36.402552150636886,36.402552150636886 0 0,0 0.316425415223249,-0.5408736054218962 l 13.227156652430416 7.891827395803508" fill="red" stroke="none" /><path d="M 82.54541684631803 88.32363383020206 l -21.960810685604468 -14.690838772430833 a47.42154328964371,47.42154328964371 0 0,0 0.4597079054286751,-0.6745646262404723 l 21.704678314507053 15.066681421941722" fill="red" stroke="none" /><path d="M 83.39014120810768 87.1503855733568 l -11.61992544290658 -8.989333592683728 a35.69118054273583,35.69118054273583 0 0,0 0.3801041374841298,-0.48269365442533174 l 11.463467224828479 9.188019641062107" fill="red" stroke="none" /><path d="M 83.6137871275137 86.86637796730984 l -18.9604545476729 -15.196888111667327 a45.29905851947572,45.29905851947572 0 0,0 0.4929001513914257,-0.6042373044359534 l 18.696055904205082 15.521009585711363" fill="red" stroke="none" /><path d="M 83.84228863543731 86.58626213691792 l -11.705541542607664 -9.717655072260058 a36.21356378069042,36.21356378069042 0 0,0 0.4022971465639127,-0.4761929304796599 l 11.536533782556626 9.917706952368833" fill="red" stroke="none" /><path d="M 84.80347519578584 85.50635884689758 l -17.630156937803932 -16.814710693496792 a45.36302381391915,45.36302381391915 0 0,0 0.5437854381166625,-0.5604186940687149 l 17.33810723598415 17.115693583115632" fill="red" stroke="none" /><path d="M 85.31137513191541 84.99185889309783 l -19.618275968357395 -20.045025089244465 a49.04781244231124,49.04781244231124 0 0,0 0.6084655716846162,-0.585343397873954 l 19.27032715306035 20.379751573880732" fill="red" stroke="none" /><path d="M 85.83668400450813 84.49514656593479 l -25.320162915791535 -27.718467558088765 a58.54229739708326,58.54229739708326 0 0,0 0.7498683219383029,-0.673239183348537 l 24.83928360625726 28.15020575020658" fill="red" stroke="none" /><path d="M 86.93701828274178 83.55741782278169 l -16.10174668614507 -20.26752381762208 a46.88510707033413,46.88510707033413 0 0,0 0.636225198233803,-0.4965838588583539 l 15.750488932751841 20.541686065703654" fill="red" stroke="none" /><path d="M 87.80319425747018 82.90503203632743 l -28.834570452462696 -40.414356720653004 a70.64627561380838,70.64627561380838 0 0,0 0.9960077292209,-0.697767064979996 l 28.134631583658134 40.90470862839694" fill="red" stroke="none" /><path d="M 88.39885842347998 82.49532879139004 l -16.182864349321864 -24.417917648875783 a50.29368192726602,50.29368192726602 0 0,0 0.7257449532704032,-0.47204470551629923 l 15.760152370267173 24.692861278551618" fill="red" stroke="none" /><path d="M 89.00827224532344 82.1063720568725 l -30.15978317918312 -49.09764425561667 a78.62110023998522,78.62110023998522 0 0,0 1.1592416680954338,-0.6984301341839527 l 29.310179444870037 49.60952099925924" fill="red" stroke="none" /><line stroke="#e1ed5e" stroke-width="0.3" x1="56.762969772571076" x2="54.21961505331055" y1="26.818313649435495" y2="22.513508569990535" /><path d="M 56.25429882871897 25.957352633546506 a86.0,86.0 0 0,1 42.265352541879196,-11.944610805530505" fill="none" id="id48" stroke="none" /><text fill="#e1ed5e" style="font-size:6.75px; font-family:Arial;" text-anchor="middle"><textPath startOffset="22.20632615414155" xlink:href="#id48">December</textPath></text><path d="M 89.63071344664047 81.73862282372117 l -13.66388472931502 -24.063502484110266 a48.67225863023814,48.67225863023814 0 0,0 0.732114001511784,-0.40742064919829934 l 13.24764663873119 24.29513853086875" fill="red" stroke="none" /><path d="M 90.26544431104013 81.39251694778311 l -14.679330803900656 -28.059359654313315 a52.667182019568024,52.667182019568024 0 0,0 0.806910164907126,-0.4133307270262685 l 14.194160151404768 28.307882906652086" fill="red" stroke="none" /><path d="M 90.91171255644093 81.06846463323043 l -16.977204481688137 -35.36469869268267 a60.22865515968248,60.22865515968248 0 0,0 0.9384822986843032,-0.4406300229060388 l 16.365943971704223 35.65169369822872" fill="red" stroke="none" /><path d="M 91.56875222667455 80.76684994638697 l -13.68715876179663 -31.22280181423597 a55.091079010522435,55.091079010522435 0 0,0 0.8717933502882875,-0.373256415555075 l 13.147681653718033 31.453777757753834" fill="red" stroke="none" /><path d="M 92.23578459929587 80.48803036053334 l -8.998112194701031 -22.61283116122702 a45.337340779028985,45.337340779028985 0 0,0 0.727592718889498,-0.2822946710980223 l 8.607536310811858 22.764368536215596" fill="red" stroke="none" /><path d="M 92.57280143429618 80.3572730644239 l -22.28159569711144 -58.92818080672833 a84.0,84.0 0 0,0 1.3568706969097222,-0.4997469287747105 l 21.26394267442915 59.30299100330936" fill="red" stroke="none" /><path d="M 93.25333710446033 80.11325718540243 l -7.812621932962599 -23.02880779640369 a45.31795735647037,45.31795735647037 0 0,0 0.7408777724458216,-0.24425575320751125 l 7.415061338274368 23.159877273870435" fill="red" stroke="none" /><path d="M 94.98787191387505 79.60689891045804 l -3.5436263713951983 -14.41813329062387 a35.847217094332656,35.847217094332656 0 0,0 0.600485802957046,-0.14211558864175441 l 3.2949168814756185 14.476994791406497" fill="red" stroke="none" /><path d="M 96.04723909329186 79.375362276772 l -4.6505322962299545 -24.26545548635092 a45.70707956433451,45.70707956433451 0 0,0 0.7739838330102663,-0.1414405983024705 l 4.232153342116795 24.341911566004125" fill="red" stroke="none" /></svg>