<?xml version="1.0" encoding="utf-8" ?>
<svg baseProfile="full" height="200mm" version="1.1" viewBox="0,0,200,200" width="200mm" xmlns="http://www.w3.org/2000/svg" xmlns:ev="http://www.w3.org/2001/xml-events" xmlns:xlink="http://www.w3.org/1999/xlink"><defs /><rect fill="#1a1a1a" height="200" width="200" x="0" y="0" /><text alignment-baseline="middle" fill="#e1ed5e" style="dominant-baseline: central; font-size:9.0px; font-family:Arial;" text-anchor="middle" x="100.0" y="100.0">2022</text><line stroke="#e1ed5e" stroke-width="0.3" x1="100.0" x2="100.0" y1="15.0" y2="10.0" /><path d="M 100.0 14.0 a86.0,86.0 0 0,1 42.46469731375804,11.215312516191453" fill="none" id="id49" stroke="none" /><text fill="#e1ed5e" style="font-size:6.75px; font-family:Arial;" text-anchor="middle"><textPath startOffset="22.20632615414155" xlink:href="#id49">January</textPath></text><line stroke="#e1ed5e" stroke-width="0.3" x1="143.23703022742887" x2="145.7803849466894" y1="26.81831364943548" y2="22.513508569990506" /><path d="M 143.74570117128098 25.957352633546492 a86.0,86.0 0 0,1 28.547481713284135,27.462654790039103" fill="none" id="id50" stroke="none" /><text fill="#e1ed5e" style="font-size:6.75px; font-family:Arial;" text-anchor="middle"><textPath startOffset="19.985693538727396" xlink:href="#id50">February</textPath></text><line stroke="#e1ed5e" stroke-width="0.3" x1="172.23445277983987" x2="176.4835382374775" y1="55.19839476539836" y2="52.563006222186495" /><path d="M 173.08426987136738 54.67131705675599 a86.0,86.0 0 0,1 12.851231095245387,41.99856678651699" fill="none" id="id51" stroke="none" /><text fill="#e1ed5e" style="font-size:6.75px; font-family:Arial;" text-anchor="middle"><textPath startOffset="22.20632615414155" xlink:href="#id51">March</textPath></text><path d="M 119.04729006885535 91.15688171328212 l 11.93510128391125 -5.541130104915143 a34.15867643408017,34.15867643408017 0 0,0 0.24301081499287136,0.5354421185325944 l -12.028714415867467 5.334865977540486" fill="#ff770a" stroke="none" /><line stroke="#e1ed5e" stroke-width="0.3" x1="184.98032266829074" x2="189.97916517819016" y1="98.17113171792111" y2="98.06355123074" /><path d="M 185.9800911702706 98.14961562048488 a86.0,86.0 0 0,1 -9.607161424134198,41.387399972396054" fill="none" id="id52" stroke="none" /><text fill="#e1ed5e" style="font-size:6.75px; font-family:Arial;" text-anchor="middle"><textPath startOffset="21.466115282336823" xlink:href="#id52">April</textPath></text><line stroke="#e1ed5e" stroke-width="0.3" x1="174.80103733775053" x2="179.2010983576182" y1="140.37084112569926" y2="142.7455964860345" /><path d="M 175.68104954172406 140.8457921977663 a86.0,86.0 0 0,1 -30.038265399797805,32.042727171017184" fill="none" id="id53" stroke="none" /><text fill="#e1ed5e" style="font-size:6.75px; font-family:Arial;" text-anchor="middle"><textPath startOffset="22.206326154141568" xlink:href="#id53">May</textPath></text><path d="M 112.04921762599082 117.19931262002967 l 6.0799362327130995 8.678631859940293 a31.59642749016046,31.59642749016046 0 0,0 -0.4481323046884078,0.3082294854532053 l -5.9296470434018085 -8.782002134758592" fill="#ff5107" stroke="none" /><path d="M 111.7513745106137 117.40417183066458 l 8.96140203517221 13.272130908851377 a37.01424944534325,37.01424944534325 0 0,0 -0.531110945953913,0.3519913743835532 l -8.731616390478331 -13.424420304326249" fill="#ffa00e" stroke="none" /><path d="M 111.1453310114006 117.79835938074945 l 8.528735924341625 13.619829405664703 a37.06981921200622,37.06981921200622 0 0,0 -0.5437273986688966,0.33400177749993054 l -8.29302932574042 -13.76461964999301" fill="#ffa00e" stroke="none" /><line stroke="#e1ed5e" stroke-width="0.3" x1="143.8653032363475" x2="146.44561519142675" y1="172.8068346515853" y2="177.08958963109032" /><path d="M 144.38136562736335 173.6633856474863 a86.0,86.0 0 0,1 -40.68145358897372,12.25698825130547" fill="none" id="id54" stroke="none" /><text fill="#e1ed5e" style="font-size:6.75px; font-family:Arial;" text-anchor="middle"><textPath startOffset="21.466115282336833" xlink:href="#id54">June</textPath></text><line stroke="#e1ed5e" stroke-width="0.3" x1="102.19456741930631" x2="102.32365962044197" y1="184.97166512339345" y2="189.96999836594603" /><path d="M 102.22038585953345 185.97133177190398 a86.0,86.0 0 0,1 -42.740103519485714,-10.115201625700543" fill="none" id="id55" stroke="none" /><text fill="#e1ed5e" style="font-size:6.75px; font-family:Arial;" text-anchor="middle"><textPath startOffset="22.20632615414155" xlink:href="#id55">July</textPath></text><path d="M 97.65516085044442 120.86867818915974 l -0.5915932862941726 5.265081791593435 a26.29821374508023,26.29821374508023 0 0,0 -0.4494146540877293,-0.054417855893344365 l 0.6821353634332913 -5.254118406974742" fill="#ff0000" stroke="none" /><line stroke="#e1ed5e" stroke-width="0.3" x1="58.666819895761336" x2="56.23545636021788" y1="174.27360380694188" y2="178.64263932499728" /><path d="M 58.180547188652646 175.14741091055294 a86.0,86.0 0 0,1 -31.652253787137756,-30.449443065178592" fill="none" id="id56" stroke="none" /><text fill="#e1ed5e" style="font-size:6.75px; font-family:Arial;" text-anchor="middle"><textPath startOffset="22.20632615414155" xlink:href="#id56">August</textPath></text><line stroke="#e1ed5e" stroke-width="0.3" x1="26.63291911575756" x2="22.317208475507996" y1="142.92168965132927" y2="145.44649492493687" /><path d="M 25.769776987707644 143.4266507060508 a86.0,86.0 0 0,1 -11.730757126820373,-40.83630448921669" fill="none" id="id57" stroke="none" /><text fill="#e1ed5e" style="font-size:6.75px; font-family:Arial;" text-anchor="middle"><textPath startOffset="21.46611528233685" xlink:href="#id57">September</textPath></text><line stroke="#e1ed5e" stroke-width="0.3" x1="15.007084014347285" x2="10.007500721073583" y1="101.09737516637583" y2="101.16192664675087" /><path d="M 14.007167355692545 101.11028546245083 a86.0,86.0 0 0,1 10.666146001902534,-42.60595125391555" fill="none" id="id58" stroke="none" /><text fill="#e1ed5e" style="font-size:6.75px; font-family:Arial;" text-anchor="middle"><textPath startOffset="22.20632615414155" xlink:href="#id58">October</textPath></text><path d="M 79.03285615573316 98.82574320788736 l -16.065643026431914 -0.8997501320907484 a37.09081838045964,37.09081838045964 0 0,0 0.0411874268473794,-0.6371512633423143 l 16.04777500858012 1.1761604596860744" fill="#ffa10e" stroke="none" /><path d="M 79.12142395522702 97.74499172005258 l -16.170460378270597 -1.7465042618503164 a37.26450325038796,37.26450325038796 0 0,0 0.07436867508192252,-0.637145391917397 l 16.138001350185085 2.024593392092575" fill="#ffa30f" stroke="none" /><path d="M 79.21141760316559 97.0276538004421 l -16.74097436317259 -2.393620237080213 a37.911228236522675,37.911228236522675 0 0,0 0.0979267002051843,-0.645214601049485 l 16.697291769528103 2.68143395052179" fill="#ffac0f" stroke="none" /><path d="M 79.32604984820605 96.31383870115002 l -16.41335776019495 -2.9264985024915378 a37.67221360375511,37.67221360375511 0 0,0 0.11932095316984925,-0.6374173030441376 l 16.36055108311524 3.2085938829982483" fill="#ffa90f" stroke="none" /><path d="M 79.46518482838121 95.60439243477599 l -16.61126701077049 -3.5557471703672867 a37.987569856889095,37.987569856889095 0 0,0 0.14237309389949407,-0.6382306633931621 l 16.54759952986896 3.841156003310408" fill="#ffad10" stroke="none" /><path d="M 79.71946130924805 94.55025226153421 l -15.82194894882274 -4.251643993129594 a37.38323976457245,37.38323976457245 0 0,0 0.1723424842047761,-0.6200076119800045 l 15.746419694051603 4.523362908528542" fill="#ffa50f" stroke="none" /><path d="M 79.91906864156998 93.8553929516997 l -15.895713646518331 -4.863963347454828 a37.62323229030663,37.62323229030663 0 0,0 0.1948247711659946,-0.6176477652658838 l 15.809633391584134 5.1368612791471255" fill="#ffa80f" stroke="none" /><path d="M 80.14247586403 93.16781622104843 l -16.01888376030641 -5.511460393283821 a37.94050862851953,37.94050862851953 0 0,0 0.2177910203655651,-0.6157245426276714 l 15.921639659131035 5.786382562338104" fill="#ffad10" stroke="none" /><path d="M 80.38941819471856 92.48833698450439 l -25.781931697509002 -9.87554498500679 a48.608592698757974,48.608592698757974 0 0,0 0.3060175945690257,-0.7787813992435071 l 25.608120553058285 10.317875389146062" fill="#c5ff1e" stroke="none" /><path d="M 80.65960295795068 91.81776055985345 l -14.91442462962783 -6.309766710906316 a37.19423409670586,37.19423409670586 0 0,0 0.25453128476108383,-0.5874932983963624 l 14.803602635024065 6.565559153889277" fill="#ffa20f" stroke="none" /><path d="M 80.95270993114464 91.15688171328213 l -14.973142193092023 -6.951606609586122 a37.508174386920984,37.508174386920984 0 0,0 0.27692071917365635,-0.5832656581679323 l 14.851263280076616 7.208314683394586" fill="#ffa70f" stroke="none" /><path d="M 81.26839172434947 90.50648371742162 l -15.207498806694877 -7.707434162304209 a38.04912201029367,38.04912201029367 0 0,0 0.30111453117384224,-0.581657431397568 l 15.072574842360922 7.9680643159621125" fill="#ffae10" stroke="none" /><path d="M 81.43458229118936 90.18545643968196 l -22.80394997359587 -12.055228913969218 a46.7943536179231,46.7943536179231 0 0,0 0.3825815008811523,-0.7088654170726784 l 22.593060373496247 12.445975314374369" fill="#dcff1b" stroke="none" /><path d="M 81.6062741919709 89.86733742301443 l -23.12395204582406 -12.738430809077958 a47.400469270360276,47.400469270360276 0 0,0 0.39983956811415605,-0.7112699763771444 l 22.901254836417472 13.134584295389887" fill="#d4ff1c" stroke="none" /><line stroke="#e1ed5e" stroke-width="0.3" x1="26.266209847984243" x2="21.928928074336255" y1="57.711370442889674" y2="55.22380399835377" /><path d="M 25.398753493254645 57.213857153982495 a86.0,86.0 0 0,1 29.58750427330803,-30.492523968695096" fill="none" id="id59" stroke="none" /><text fill="#e1ed5e" style="font-size:6.75px; font-family:Arial;" text-anchor="middle"><textPath startOffset="21.46611528233685" xlink:href="#id59">November</textPath></text><path d="M 81.78341655067845 89.55222093294921 l -14.608288044623201 -8.378309053542468 a37.840372388737514,37.840372388737514 0 0,0 0.32892351876210824,-0.5622369156895927 l 14.461904851390768 8.628525381585952" fill="#ffab0f" stroke="none" /><path d="M 82.54541684631803 88.32363383020206 l -24.010840949423642 -16.062220936574395 a49.887980623675446,49.887980623675446 0 0,0 0.4836177291510598,-0.7096493422357869 l 23.730798754603843 16.4731483020806" fill="#b5ff1f" stroke="none" /><path d="M 83.39014120810768 87.1503855733568 l -12.704639443783421 -9.828483211538556 a37.062594610959735,37.062594610959735 0 0,0 0.39470943082576304,-0.5012408937784453 l 12.533575932363687 10.045716499270048" fill="#ffa00e" stroke="none" /><path d="M 83.6137871275137 86.86637796730984 l -20.730403125389866 -16.615509718619823 a47.5673630033303,47.5673630033303 0 0,0 0.5175816273433614,-0.6344938755824597 l 20.441323005970112 16.969887763810362" fill="#d2ff1c" stroke="none" /><path d="M 83.84228863543731 86.58626213691792 l -12.798247761894379 -10.624793122703144 a37.63374205267938,37.63374205267938 0 0,0 0.41807393312635177,-0.49486766951494265 l 12.613463215280902 10.843519741847201" fill="#ffa80f" stroke="none" /><path d="M 84.80347519578584 85.50635884689758 l -19.275922925034596 -18.38435519763289 a47.637299424765374,47.637299424765374 0 0,0 0.5710481259946822,-0.5885152903849351 l 18.956610535336797 18.713434683567947" fill="#d1ff1c" stroke="none" /><path d="M 85.31137513191541 84.99185889309783 l -21.44963183380604 -21.916217763333798 a51.66606115652438,51.66606115652438 0 0,0 0.6409464127533181,-0.6165899412475081 l 21.069202177440296 22.282190791343616" fill="#a0ff22" stroke="none" /><path d="M 85.83668400450813 84.49514656593479 l -27.683786964344083 -30.305972098529995 a62.04685134726007,62.04685134726007 0 0,0 0.7947581555561457,-0.7135417191956437 l 27.158017821191965 30.778012826494916" fill="#30ff33" stroke="none" /><path d="M 86.37877921826538 84.01681056812374 l -18.260405164642588 -21.426825064069387 a49.152286392105665,49.152286392105665 0 0,0 0.6486755102285413,-0.5432470849074091 l 17.888872117454937 21.737973306370606" fill="#beff1e" stroke="none" /><path d="M 86.93701828274178 83.55741782278169 l -17.604836370743335 -22.1594866323663 a49.301468362095065,49.301468362095065 0 0,0 0.6690149269540308,-0.5221767622265503 l 17.22078888862988 22.45924178381607" fill="#bcff1f" stroke="none" /><path d="M 87.80319425747018 82.90503203632743 l -31.526262618022084 -44.18701591599098 a75.28072963972147,75.28072963972147 0 0,0 1.0613466588449003,-0.7435411607175217 l 30.760984819593524 44.72314191947245" fill="#41ffd2" stroke="none" /><path d="M 88.39885842347998 82.49532879139004 l -17.693526325618432 -26.69731757068526 a53.028231910384505,53.028231910384505 0 0,0 0.7652048968192566,-0.4977105504502125 l 17.23135440301489 26.997927045295008" fill="#90ff24" stroke="none" /><path d="M 89.00827224532344 82.1063720568725 l -32.97518326402967 -53.68088382938249 a84.0,84.0 0 0,0 1.2385517351294033,-0.746213562165523 l 32.046269462682616 54.240544001006626" fill="#4dd2ff" stroke="none" /><line stroke="#e1ed5e" stroke-width="0.3" x1="56.762969772571076" x2="54.21961505331055" y1="26.818313649435495" y2="22.513508569990535" /><path d="M 56.25429882871897 25.957352633546506 a86.0,86.0 0 0,1 42.265352541879196,-11.944610805530505" fill="none" id="id60" stroke="none" /><text fill="#e1ed5e" style="font-size:6.75px; font-family:Arial;" text-anchor="middle"><textPath startOffset="22.20632615414155" xlink:href="#id60">December</textPath></text><path d="M 89.63071344664047 81.73862282372117 l -14.939401267272066 -26.309817934488912 a51.25544959128065,51.25544959128065 0 0,0 0.7709696109365536,-0.42904375377510806 l 14.484307567263468 26.563077085824204" fill="#a5ff21" stroke="none" /><path d="M 90.26544431104013 81.39251694778311 l -16.049638705162955 -30.678686294765413 a55.6232970027248,55.6232970027248 0 0,0 0.8522005931600979,-0.4365302434672177 l 15.519177624414095 30.950409063545138" fill="#72ff27" stroke="none" /><path d="M 90.91171255644093 81.06846463323043 l -18.56201769649907 -38.66597493556606 a63.89062973054799,63.89062973054799 0 0,0 0.9955431496011585,-0.4674208575139804 l 17.893696335598303 38.97976077572005" fill="#32ff4b" stroke="none" /></svg>