<?xml version="1.0" encoding="utf-8" ?>
<svg baseProfile="full" height="200mm" version="1.1" viewBox="0,0,200,200" width="200mm" xmlns="http://www.w3.org/2000/svg" xmlns:ev="http://www.w3.org/2001/xml-events" xmlns:xlink="http://www.w3.org/1999/xlink"><defs /><rect fill="#1a1a1a" height="200" width="200" x="0" y="0" /><text alignment-baseline="middle" fill="#e1ed5e" style="dominant-baseline: central; font-size:9.0px; font-family:Arial;" text-anchor="middle" x="100.0" y="100.0">2025</text><line stroke="#e1ed5e" stroke-width="0.3" x1="100.0" x2="100.0" y1="15.0" y2="10.0" /><path d="M 100.0 14.0 a86.0,86.0 0 0,1 42.46469731375804,11.215312516191453" fill="none" id="id37" stroke="none" /><text fill="#e1ed5e" style="font-size:6.75px; font-family:Arial;" text-anchor="middle"><textPath startOffset="22.20632615414155" xlink:href="#id37">January</textPath></text><path d="M 101.80526077348638 79.07773832637324 l 1.3092576449328597 -15.17378067910937 a36.230160067396795,36.230160067396795 0 0,0 0.6208725833216443,0.058959332972915224 l -1.5702553553447482 15.148995801621277" fill="#ffab0f" stroke="none" /><path d="M 103.59715602781102 79.31037775812273 l 0.5665950058969967 -3.258862430628744 a24.307750631844986,24.307750631844986 0 0,0 0.4116168914141962,0.07522035591698703 l -0.6226070184140938 3.2486265933610183" fill="#ff0000" stroke="none" /><line stroke="#e1ed5e" stroke-width="0.3" x1="143.23703022742887" x2="145.7803849466894" y1="26.81831364943548" y2="22.513508569990506" /><path d="M 143.74570117128098 25.957352633546492 a86.0,86.0 0 0,1 28.547481713284135,27.462654790039103" fill="none" id="id38" stroke="none" /><text fill="#e1ed5e" style="font-size:6.75px; font-family:Arial;" text-anchor="middle"><textPath startOffset="19.985693538727396" xlink:href="#id38">February</textPath></text><path d="M 111.60114157652 82.49532879139004 l 10.065725113443943 -15.18791986330868 a39.22064026958719,39.22064026958719 0 0,0 0.5595390336732412,0.37780325326459835 l -10.325668841523726 15.012404697745412" fill="#ffd313" stroke="none" /><path d="M 112.48926042617603 83.11751280151076 l 12.876283702791731 -17.40564992310404 a42.65075821398483,42.65075821398483 0 0,0 0.5864557371147314,0.4417063026923293 l -13.173985593664845 17.181427030905862" fill="#ffff18" stroke="none" /><path d="M 113.6212207817346 84.01681056812373 l 11.675769254188914 -13.700389615798688 a39.00067396798652,39.00067396798652 0 0,0 0.5072059960768014,0.43984404170692115 l -11.90986904891248 13.497380580672095" fill="#ffd013" stroke="none" /><path d="M 114.16331599549186 84.49514656593476 l 16.724127847133932 -18.308223241288747 a45.796925021061504,45.796925021061504 0 0,0 0.5774602234293146,0.5366863437888945 l -17.036795954358094 18.01763231142521" fill="#d8ff1c" stroke="none" /><path d="M 114.68862486808459 84.99185889309783 l 21.10814379035363 -21.567301456430926 a51.17784330244314,51.17784330244314 0 0,0 0.6242824418444046,0.6216015746428181 l -21.47626203236536 21.20076403113799" fill="#99ff23" stroke="none" /><path d="M 114.94478906791727 85.2469230424477 l 17.59506547802391 -17.36935555870205 a45.72409435551811,45.72409435551811 0 0,0 0.5481137409092793,0.5648793905650628 l -17.891443482636298 17.063911972586876" fill="#d9ff1c" stroke="none" /><path d="M 115.4437574822437 85.77008943001954 l 13.807655962957982 -12.72240319493831 a39.77527379949453,39.77527379949453 0 0,0 0.4596058635088441,0.5075082738173854 l -14.024605467082862 12.482842133851376" fill="#ffda14" stroke="none" /><path d="M 115.68641384162765 86.03803664274999 l 22.181012057691614 -19.742592583804797 a50.69456613310868,50.69456613310868 0 0,0 0.5745580577176537,0.6568191823742741 l -22.517561978987118 19.357857845227574" fill="#9eff22" stroke="none" /><path d="M 116.15771136456269 86.58626213691792 l 16.679059591405785 -13.846548444510919 a42.67759056444819,42.67759056444819 0 0,0 0.464375895167716,0.5692699390517088 l -16.914933978649913 13.557394335851109" fill="#ffff18" stroke="none" /><path d="M 116.38621287248628 86.86637796730983 l 23.088638696530065 -18.505645950610663 a50.58959561920809,50.58959561920809 0 0,0 0.5387693630779696,0.6841823782235784 l -23.403762140202 18.105471178434048" fill="#9fff22" stroke="none" /><line stroke="#e1ed5e" stroke-width="0.3" x1="172.23445277983987" x2="176.4835382374775" y1="55.19839476539836" y2="52.563006222186495" /><path d="M 173.08426987136738 54.67131705675599 a86.0,86.0 0 0,1 12.851231095245387,41.99856678651699" fill="none" id="id39" stroke="none" /><text fill="#e1ed5e" style="font-size:6.75px; font-family:Arial;" text-anchor="middle"><textPath startOffset="22.20632615414155" xlink:href="#id39">March</textPath></text><path d="M 118.03404312379186 89.2402003453031 l 18.889406752999513 -11.270142300492548 a42.99604043807919,42.99604043807919 0 0,0 0.37373862943114033,0.6388404668545309 l -19.08060505690098 10.94332242128412" fill="#fbff18" stroke="none" /><path d="M 119.196687751892 91.48605970444005 l 17.169472242456735 -7.614848116917617 a39.782350463352984,39.782350463352984 0 0,0 0.2722425402799123,0.6283733180499879 l -17.298005492579325 7.318175654281027" fill="#ffda14" stroke="none" /><path d="M 119.61058180528143 92.48833698450437 l 28.18064285705873 -10.794350458549358 a51.17725358045493,51.17725358045493 0 0,0 0.30802714407896536,0.8253596046706094 l -28.36227458963932 10.307667716849416" fill="#99ff23" stroke="none" /><path d="M 120.87857604477298 97.74499172005257 l 14.738421941181716 -1.5918357381965318 a35.82413647851727,35.82413647851727 0 0,0 0.06094005356975045,0.6136580229860246 l -14.763639120433695 1.3379021845060723" fill="#ffa60f" stroke="none" /><line stroke="#e1ed5e" stroke-width="0.3" x1="184.98032266829074" x2="189.97916517819016" y1="98.17113171792111" y2="98.06355123074" /><path d="M 185.9800911702706 98.14961562048488 a86.0,86.0 0 0,1 -9.607161424134198,41.387399972396054" fill="none" id="id40" stroke="none" /><text fill="#e1ed5e" style="font-size:6.75px; font-family:Arial;" text-anchor="middle"><textPath startOffset="21.466115282336823" xlink:href="#id40">April</textPath></text><path d="M 120.5718875245553 104.21870165774334 l 14.843416963098111 3.0439573264267707 a36.15231676495367,36.15231676495367 0 0,0 -0.13026189525517387,0.6085402082142987 l -14.788821029118495 -3.2990113540572383" fill="#ffaa0f" stroke="none" /><path d="M 120.41448212921028 104.9243191809786 l 14.777425044781058 3.5645654458883853 a36.20126368997472,36.20126368997472 0 0,0 -0.15133625524765792,0.6045131121289541 l -14.71387747523834 -3.8184063974147353" fill="#ffab0f" stroke="none" /><path d="M 120.23288151984713 105.62410040840565 l 14.303357466459746 3.9758804740579623 a35.845661331086774,35.845661331086774 0 0,0 -0.17036480650141347,0.5930622411943131 l -14.232800023072233 -4.221500190756857" fill="#ffa60f" stroke="none" /><line stroke="#e1ed5e" stroke-width="0.3" x1="174.80103733775053" x2="179.2010983576182" y1="140.37084112569926" y2="142.7455964860345" /><path d="M 175.68104954172406 140.8457921977663 a86.0,86.0 0 0,1 -30.038265399797805,32.042727171017184" fill="none" id="id41" stroke="none" /><text fill="#e1ed5e" style="font-size:6.75px; font-family:Arial;" text-anchor="middle"><textPath startOffset="22.206326154141568" xlink:href="#id41">May</textPath></text><path d="M 116.498646956653 112.99209946851258 l 17.043505390267825 13.421156165366568 a42.69351305812974,42.69351305812974 0 0,0 -0.45963040828073,0.5734596057362817 l -16.809957069932242 -13.7125436046811" fill="#ffff18" stroke="none" /><path d="M 116.0416608686014 113.55231037782055 l 11.563194945400024 9.768814348022655 a36.13727885425442,36.13727885425442 0 0,0 -0.4055247831302171,0.4717169384731903 l -11.393327652699028 -9.966408385657374" fill="#ffaa0f" stroke="none" /><path d="M 115.56566222782051 114.09645910891815 l 11.947443494577486 10.81975480467581 a37.11857624262848,37.11857624262848 0 0,0 -0.43296802765316683,0.46990128179351265 l -11.759429058928598 -11.023807341270658" fill="#ffb711" stroke="none" /><path d="M 114.0293411484842 115.62618273729858 l 9.930063006109082 11.060318334558007 a35.86394271272115,35.86394271272115 0 0,0 -0.46291409177157733,0.4084678638898696 l -9.738206561430916 -11.229609340220165" fill="#ffa60f" stroke="none" /><path d="M 113.20401910651253 116.32954008644616 l 19.013824592903756 23.514583581096026 a51.240058972198824,51.240058972198824 0 0,0 -0.6906245126096164,0.5486738812964227 l -18.60624258757679 -23.838391376397578" fill="#98ff23" stroke="none" /><path d="M 112.63410532772338 116.77436683061366 l 9.610931738913184 12.760483658368253 a36.97497893850042,36.97497893850042 0 0,0 -0.5116897427612029,0.37853583892067455 l -9.389857025733416 -12.924029446028698" fill="#ffb510" stroke="none" /><line stroke="#e1ed5e" stroke-width="0.3" x1="143.8653032363475" x2="146.44561519142675" y1="172.8068346515853" y2="177.08958963109032" /><path d="M 144.38136562736335 173.6633856474863 a86.0,86.0 0 0,1 -40.68145358897372,12.25698825130547" fill="none" id="id42" stroke="none" /><text fill="#e1ed5e" style="font-size:6.75px; font-family:Arial;" text-anchor="middle"><textPath startOffset="21.466115282336833" xlink:href="#id42">June</textPath></text><path d="M 103.7750983002368 120.6578951692458 l 3.2496482939148854 17.782555169067013 a39.07704296545914,39.07704296545914 0 0,0 -0.6627299544751986,0.11522409750556886 l -2.943069367967637 -17.83585784509359" fill="#ffd113" stroke="none" /><line stroke="#e1ed5e" stroke-width="0.3" x1="102.19456741930631" x2="102.32365962044197" y1="184.97166512339345" y2="189.96999836594603" /><path d="M 102.22038585953345 185.97133177190398 a86.0,86.0 0 0,1 -42.740103519485714,-10.115201625700543" fill="none" id="id43" stroke="none" /><text fill="#e1ed5e" style="font-size:6.75px; font-family:Arial;" text-anchor="middle"><textPath startOffset="22.20632615414155" xlink:href="#id43">July</textPath></text><line stroke="#e1ed5e" stroke-width="0.3" x1="58.666819895761336" x2="56.23545636021788" y1="174.27360380694188" y2="178.64263932499728" /><path d="M 58.180547188652646 175.14741091055294 a86.0,86.0 0 0,1 -31.652253787137756,-30.449443065178592" fill="none" id="id44" stroke="none" /><text fill="#e1ed5e" style="font-size:6.75px; font-family:Arial;" text-anchor="middle"><textPath startOffset="22.20632615414155" xlink:href="#id44">August</textPath></text><path d="M 87.07902340077011 116.55440617244103 l -10.870166160059782 13.92689975046303 a38.666891322662174,38.666891322662174 0 0,0 -0.5211606604186538,-0.41404154806266763 l 11.108284313195794 -13.737724288395231" fill="#ffcc13" stroke="none" /><line stroke="#e1ed5e" stroke-width="0.3" x1="26.63291911575756" x2="22.317208475507996" y1="142.92168965132927" y2="145.44649492493687" /><path d="M 25.769776987707644 143.4266507060508 a86.0,86.0 0 0,1 -11.730757126820373,-40.83630448921669" fill="none" id="id45" stroke="none" /><text fill="#e1ed5e" style="font-size:6.75px; font-family:Arial;" text-anchor="middle"><textPath startOffset="21.46611528233685" xlink:href="#id45">September</textPath></text><path d="M 79.97269907076064 106.31721596034903 l -11.615103410309347 3.6637546369308716 a33.179233361415335,33.179233361415335 0 0,0 -0.16711783801948443,-0.5461507640210731 l 11.676448020834963 -3.4632769003577506" fill="#ff810b" stroke="none" /><path d="M 79.67330655649465 105.27499134158121 l -14.471566849942974 3.7555242344127393 a35.950926705981466,35.950926705981466 0 0,0 -0.15028974311394255,-0.600332816364406 l 14.534067907351975 -3.5058635786509416" fill="#ffa70f" stroke="none" /><line stroke="#e1ed5e" stroke-width="0.3" x1="15.007084014347285" x2="10.007500721073583" y1="101.09737516637583" y2="101.16192664675087" /><path d="M 14.007167355692545 101.11028546245083 a86.0,86.0 0 0,1 10.666146001902534,-42.60595125391555" fill="none" id="id46" stroke="none" /><text fill="#e1ed5e" style="font-size:6.75px; font-family:Arial;" text-anchor="middle"><textPath startOffset="22.20632615414155" xlink:href="#id46">October</textPath></text><path d="M 79.08570108090925 98.10471618934814 l -14.772448850391195 -1.3387005348896595 a35.832982308340355,35.832982308340355 0 0,0 0.060955101115798375,-0.6138095497212035 l 14.747216623593168 1.5927856153152933" fill="#ffa60f" stroke="none" /><path d="M 79.12142395522702 97.74499172005258 l -14.709985801384716 -1.5887644688458564 a35.795534962089306,35.795534962089306 0 0,0 0.0714370587766121,-0.6120290937214047 l 14.680458389604516 1.8417373008921227" fill="#ffa50f" stroke="none" /><path d="M 79.21141760316559 97.0276538004421 l -20.548938671086013 -2.938082000880045 a41.75791912384162,41.75791912384162 0 0,0 0.10786290546222212,-0.7106817790247727 l 20.49531987218449 3.29136289229691" fill="#fff417" stroke="none" /><path d="M 79.26566170972629 96.67025291283419 l -14.626413306702492 -2.34886961049158 a35.81381634372367,35.81381634372367 0 0,0 0.10298712861209929,-0.6078358628357138 l 14.58381431657017 2.6002912616431217" fill="#ffa50f" stroke="none" /><path d="M 79.3925641242962 95.95851677861259 l -14.584057714730395 -2.8601920641335252 a35.86187868576243,35.86187868576243 0 0,0 0.12401499428433889,-0.6047411551592039 l 14.532663424531062 3.1108088754561316" fill="#ffa60f" stroke="none" /><path d="M 79.46518482838121 95.60439243477599 l -14.539871657882511 -3.112351843570854 a35.86925021061499,35.86925021061499 0 0,0 0.1344338726477974,-0.6026406912466521 l 14.484143398232677 3.3621707043674656" fill="#ffa60f" stroke="none" /><path d="M 79.62865764111835 94.90015583598534 l -20.419110038942485 -5.111802518063941 a42.04924178601516,42.04924178601516 0 0,0 0.18182025696392976,-0.7006276192327039 l 20.32809345010825 5.462526562845508" fill="#fff717" stroke="none" /><path d="M 79.71946130924805 94.55025226153421 l -14.34131943389976 -3.853772049316941 a35.85008424599832,35.85008424599832 0 0,0 0.16527440149157765,-0.5945799578266597 l 14.27285826184182 4.100063310562543" fill="#ffa60f" stroke="none" /><path d="M 79.81627453868168 94.20196356495316 l -29.08842691765197 -8.356027207661377 a51.264827295703455,51.264827295703455 0 0,0 0.2509391395992912,-0.8460420302002238 l 28.940281880940972 8.85549862460814" fill="#98ff23" stroke="none" /><path d="M 80.02781315780177 93.51064311812611 l -17.179670181504456 -5.582013216755943 a39.06377422072451,39.06377422072451 0 0,0 0.2132932413160355,-0.6377196430587603 l 17.08103964641665 5.876905962737026" fill="#ffd113" stroke="none" /><path d="M 80.14247586403 93.16781622104843 l -28.609667952708246 -9.84344815442601 a51.255686604886264,51.255686604886264 0 0,0 0.2942245291046167,-0.8318123644799522 l 28.435990342793822 10.334458145332574" fill="#98ff23" stroke="none" /><path d="M 80.38941819471856 92.48833698450439 l -27.85793010957503 -10.670738143832107 a50.83167649536647,50.83167649536647 0 0,0 0.32001311919117537,-0.8143984828420325 l 27.670123440502163 11.148685631569903" fill="#9dff22" stroke="none" /><path d="M 80.52162464483688 92.15188598940014 l -16.927752937833002 -6.820432021511756 a39.25012636899747,39.25012636899747 0 0,0 0.2578888678998934,-0.6244983491810997 l 16.80784238304691 7.110804941146167" fill="#ffd313" stroke="none" /><path d="M 80.803312248108 91.48605970444005 l -40.52652050334134 -17.973953653448742 a65.33352990732939,65.33352990732939 0 0,0 0.4647941901314563,-1.0241123871500557 l 40.211123996246535 18.66888804944087" fill="#35ff65" stroke="none" /><path d="M 81.10775173730289 90.83032412892265 l -17.77760030987693 -8.62866241965545 a40.76099410278012,40.76099410278012 0 0,0 0.31180216974650554,-0.6285741477826532 l 17.62643812717701 8.933396155937064" fill="#ffe715" stroke="none" /><path d="M 81.26839172434947 90.50648371742162 l -13.221012142662184 -6.70064696002036 a35.822072451558554,35.822072451558554 0 0,0 0.2834900250525705,-0.5476124953388987 l 13.1037126844495 6.927232177619595" fill="#ffa60f" stroke="none" /><line stroke="#e1ed5e" stroke-width="0.3" x1="26.266209847984243" x2="21.928928074336255" y1="57.711370442889674" y2="55.22380399835377" /><path d="M 25.398753493254645 57.213857153982495 a86.0,86.0 0 0,1 29.58750427330803,-30.492523968695096" fill="none" id="id47" stroke="none" /><text fill="#e1ed5e" style="font-size:6.75px; font-family:Arial;" text-anchor="middle"><textPath startOffset="21.46611528233685" xlink:href="#id47">November</textPath></text><path d="M 81.78341655067845 89.55222093294921 l -19.902934680455733 -11.41495412165716 a43.944018534119635,43.944018534119635 0 0,0 0.38197883087144147,-0.6529256422165466 l 19.70349617511397 11.755859176227599" fill="#efff19" stroke="none" /><path d="M 81.96595687620814 89.24020034530311 l -25.86044307984577 -15.42932910888633 a51.11356360572873,51.11356360572873 0 0,0 0.4573062426099532,-0.7516912222704305 l 25.5910210389496 15.872188104363834" fill="#99ff23" stroke="none" /><path d="M 82.34701348167596 88.62581576622439 l -16.03120203658585 -10.329234957707172 a40.07072451558551,40.07072451558551 0 0,0 0.3785793603589541,-0.5766023386636758 l 15.851026040868977 10.603655360348515" fill="#ffde14" stroke="none" /><path d="M 82.54541684631803 88.32363383020206 l -24.64203836497137 -16.484464887316392 a50.64738837405224,50.64738837405224 0 0,0 0.49097948336811964,-0.7204518081565642 l 24.354634415934513 16.90619471874337" fill="#9fff22" stroke="none" /><path d="M 82.95767976084542 87.72973835380427 l -24.136108269058226 -17.3777020632341 a50.74115417017691,50.74115417017691 0 0,0 0.516441987160789,-0.7044262900981438 l 23.833403669383802 17.790590797003745" fill="#9eff22" stroke="none" /><path d="M 83.17141714833178 87.43820079747576 l -50.48574855500465 -37.6853976075727 a84.0,84.0 0 0,0 0.8748962391035646,-1.1512608964758937 l 49.82957637567698 38.54884327992962" fill="#4dd2ff" stroke="none" /><path d="M 83.6137871275137 86.86637796730984 l -13.992012772077809 -11.214660071553205 a38.93167649536647,38.93167649536647 0 0,0 0.42361651358025254,-0.5193037566690041 l 13.796897766421163 11.453847997830291" fill="#ffcf13" stroke="none" /><path d="M 83.84228863543731 86.58626213691792 l -23.104937388230745 -19.181155454254494 a51.029233361415336,51.029233361415336 0 0,0 0.5668846926241409,-0.6710126714305805 l 22.771342082119478 19.57602707531419" fill="#9aff22" stroke="none" /><path d="M 84.31358615837235 86.03803664274999 l -22.15017664716328 -19.71514699450383 a50.65328559393429,50.65328559393429 0 0,0 0.5853019939552301,-0.6463050805016116 l 21.807531012592005 20.093504862274997" fill="#9fff22" stroke="none" /><path d="M 84.5562425177563 85.77008943001954 l -22.566057601652496 -20.792412854044045 a51.68470935130581,51.68470935130581 0 0,0 0.6084832907667598,-0.6490875493194466 l 22.20480698891528 21.17776982024154" fill="#93ff23" stroke="none" /><path d="M 85.05521093208273 85.24692304244772 l -44.60459264563094 -44.03240386804411 a83.67712721145745,83.67712721145745 0 0,0 1.0207183017343304,-1.0163350129634752 l 43.84003854372929 44.793674731657696" fill="#4dd5ff" stroke="none" /><path d="M 85.31137513191541 84.99185889309783 l -20.812597603384162 -21.2653263622693 a50.755307497893845,50.755307497893845 0 0,0 0.6296480037526256,-0.6057208807405599 l 20.44346635601911 21.620430329772173" fill="#9eff22" stroke="none" /><path d="M 85.83668400450813 84.49514656593479 l -11.163803286140508 -12.221229391015429 a37.55261162594776,37.55261162594776 0 0,0 0.48101142449789197,-0.4318568062366043 l 10.951780874046646 12.411585206021313" fill="#ffbd11" stroke="none" /><path d="M 86.10567301691215 84.25364557470407 l -19.88320720952467 -22.533515168735068 a51.051642796967144,51.051642796967144 0 0,0 0.663929535101024,-0.5757531503693253 l 19.492383875776873 22.872433312524073" fill="#9aff22" stroke="none" /><path d="M 86.65592168130627 83.78471172551755 l -22.715286142167272 -27.60287404163373 a56.747767481044654,56.747767481044654 0 0,0 0.7596002179987433,-0.6142105496340041 l 22.236782525604028 27.989790688531865" fill="#5bff2a" stroke="none" /><path d="M 86.93701828274178 83.55741782278169 l -20.231664354681996 -25.46591665930762 a53.52434709351306,53.52434709351306 0 0,0 0.7263188775237351,-0.5669034045864069 l 19.790312921998833 25.810398453117248" fill="#7eff26" stroke="none" /><path d="M 87.51073957382395 83.11751280151077 l -17.68347404346521 -23.9038192796357 a50.73378264532435,50.73378264532435 0 0,0 0.7065396358911586,-0.5133310931963512 l 17.26938909122027 24.204669607648718" fill="#9eff22" stroke="none" /><path d="M 88.09926311788651 82.69761687909137 l -16.875418681009872 -24.535031925915234 a50.778306655433866,50.778306655433866 0 0,0 0.7244258238072933,-0.48913555000188885 l 16.450588162796038 24.821879388215788" fill="#9dff22" stroke="none" /><path d="M 88.70189139769569 82.29822771554957 l -31.753840277975954 -49.75162388179709 a80.02144060657119,80.02144060657119 0 0,0 1.1674779429255027,-0.7310745807553206 l 30.89274318267821 50.290842803875336" fill="#48f8ff" stroke="none" /><line stroke="#e1ed5e" stroke-width="0.3" x1="56.762969772571076" x2="54.21961505331055" y1="26.818313649435495" y2="22.513508569990535" /><path d="M 56.25429882871897 25.957352633546506 a86.0,86.0 0 0,1 42.265352541879196,-11.944610805530505" fill="none" id="id48" stroke="none" /><text fill="#e1ed5e" style="font-size:6.75px; font-family:Arial;" text-anchor="middle"><textPath startOffset="22.20632615414155" xlink:href="#id48">December</textPath></text><path d="M 89.3179101791058 81.91981866633112 l -10.006097419563536 -16.936017092292218 a40.67106149957877,40.67106149957877 0 0,0 0.6058114729129598,-0.350925107536066 l 9.713089214185256 17.10574635721833" fill="#ffe615" stroke="none" /><path d="M 89.63071344664047 81.73862282372117 l -14.636243602212485 -25.77592619207782 a50.64149115417018,50.64149115417018 0 0,0 0.7617346261463549,-0.42390449473786834 l 14.190384886994083 26.024046084375872" fill="#9fff22" stroke="none" /><path d="M 90.26544431104013 81.39251694778311 l -13.793354217233725 -26.36582634392682 a50.75589721988206,50.75589721988206 0 0,0 0.7776275058818893,-0.39833101172889523 l 13.337466223763073 26.59934988096822" fill="#9eff22" stroke="none" /><path d="M 90.58718382345135 81.22770947309562 l -13.532145783269614 -26.987605763390707 a51.190227464195445,51.190227464195445 0 0,0 0.7910809362096878,-0.3881799797713071 l 13.0655935800495 27.216540903296845" fill="#99ff23" stroke="none" /><path d="M 91.23893434514133 80.91482961587045 l -20.98178043183537 -45.706866068501455 a71.2926705981466,71.2926705981466 0 0,0 1.1196951231203234,-0.5023745634146528 l 20.191903190248276 46.06126096243264" fill="#3dffaa" stroke="none" /></svg>