<?xml version="1.0" encoding="utf-8" ?>
<svg baseProfile="full" height="200mm" version="1.1" viewBox="0,0,200,200" width="200mm" xmlns="http://www.w3.org/2000/svg" xmlns:ev="http://www.w3.org/2001/xml-events" xmlns:xlink="http://www.w3.org/1999/xlink"><defs /><rect fill="#1a1a1a" height="200" width="200" x="0" y="0" /><text alignment-baseline="middle" fill="#e1ed5e" style="dominant-baseline: central; font-size:9.0px; font-family:Arial;" text-anchor="middle" x="100.0" y="100.0">2023</text><line stroke="#e1ed5e" stroke-width="0.3" x1="100.0" x2="100.0" y1="15.0" y2="10.0" /><path d="M 100.0 14.0 a86.0,86.0 0 0,1 42.46469731375804,11.215312516191453" fill="none" id="id13" stroke="none" /><text fill="#e1ed5e" style="font-size:6.75px; font-family:Arial;" text-anchor="middle"><textPath startOffset="22.20632615414155" xlink:href="#id13">January</textPath></text><path d="M 100.0 79.0 l 0.0 -7.556108696848014 a28.556108696848014,28.556108696848014 0 0,0 0.4915464694235731,0.004230895649087495 l -0.13006599015104475 7.554989177807485" fill="#ff0000" stroke="none" /><path d="M 102.16513564639614 79.11191278185805 l 1.2882295924751221 -12.428159930488075 a33.49474668573629,33.49474668573629 0 0,0 0.5729727746201786,0.0643801673196904 l -1.501969070605026 12.404143809697784" fill="#ff4f07" stroke="none" /><path d="M 110.05341064243156 81.56283822128135 l 5.941603374265046 -10.896431721783324 a33.411078717201164,33.411078717201164 0 0,0 0.5025597583277076,0.2796739613994638 l -6.128287221664789 10.792542362823681" fill="#ff4d07" stroke="none" /><line stroke="#e1ed5e" stroke-width="0.3" x1="143.23703022742887" x2="145.7803849466894" y1="26.81831364943548" y2="22.513508569990506" /><path d="M 143.74570117128098 25.957352633546492 a86.0,86.0 0 0,1 28.547481713284135,27.462654790039103" fill="none" id="id14" stroke="none" /><text fill="#e1ed5e" style="font-size:6.75px; font-family:Arial;" text-anchor="middle"><textPath startOffset="19.985693538727396" xlink:href="#id14">February</textPath></text><path d="M 110.99172775467656 82.1063720568725 l 9.242551052389949 -15.046112264422057 a38.65814951317454,38.65814951317454 0 0,0 0.5640055531221998,0.35318022562315265 l -9.500175757884412 14.884787697475959" fill="#ff9d0e" stroke="none" /><path d="M 113.06298171725822 83.55741782278167 l 15.48981606126348 -19.497277039041762 a45.90136971230541,45.90136971230541 0 0,0 0.614415191779231,0.49681435537295104 l -15.823134651607203 19.22775658640468" fill="#fbff18" stroke="none" /><path d="M 113.6212207817346 84.01681056812373 l 24.22347218020876 -28.42390933661653 a58.345618570878486,58.345618570878486 0 0,0 0.7587881073094017,0.6580135694365408 l -24.709154086164926 28.00273077376032" fill="#5fff29" stroke="none" /><path d="M 114.16331599549186 84.49514656593476 l 11.813930474593803 -12.932936082702472 a38.5165575664228,38.5165575664228 0 0,0 0.4856609898547951,0.45136896082327405 l -12.034799348243446 12.727662535804559" fill="#ff9b0e" stroke="none" /><path d="M 114.68862486808459 84.99185889309783 l 17.58264860577735 -17.96511747549272 a46.13752131580395,46.13752131580395 0 0,0 0.5627991061964771,0.5603822679775025 l -17.88928351214115 17.659799356865097" fill="#f8ff18" stroke="none" /><path d="M 115.19652480421416 85.50635884689758 l 14.450031782036742 -13.781675613209105 a40.96842510589141,40.96842510589141 0 0,0 0.48232064064676455,0.5145060306078325 l -14.685119744653969 13.530900165723217" fill="#ffbe11" stroke="none" /><path d="M 115.68641384162765 86.03803664274999 l 29.8857044202643 -26.600286989370847 a61.00913141536938,61.00913141536938 0 0,0 0.691460460614582,0.7904588375091449 l -30.33915674445673 26.081912595658753" fill="#41ff2d" stroke="none" /><path d="M 116.15771136456269 86.58626213691792 l 15.191826785415417 -12.61188404490517 a40.744650420815226,40.744650420815226 0 0,0 0.44334352671313626,0.5434867422216333 l -15.406668804204962 12.348513133075434" fill="#ffbb11" stroke="none" /><path d="M 116.60985879189232 87.15038557335679 l 19.70816074267657 -15.246503283057045 a45.91721216788602,45.91721216788602 0 0,0 0.4782475742357507,0.6293177481437261 l -19.967684257136433 14.905000759032285" fill="#fbff18" stroke="none" /><path d="M 117.04232023915458 87.72973835380427 l 24.259321600283055 -17.46641415121345 a50.89298091204137,50.89298091204137 0 0,0 0.5057487074716622,0.7153456802073571 l -24.5563829275586 17.0462419706743" fill="#b9ff1f" stroke="none" /><path d="M 117.2510076193507 88.02491185347247 l 43.23258164733313 -30.0106514038076 a73.62789482369767,73.62789482369767 0 0,0 0.7137541919247883,1.0473462040082657 l -43.742760304926655 29.262027176528928" fill="#3fffbb" stroke="none" /><path d="M 117.65298651832404 88.62581576622439 l 16.81246059504895 -10.83261600141609 a41.00011001705265,41.00011001705265 0 0,0 0.3771471336273491,0.5965561933184178 l -16.996435324922256 10.541612160383467" fill="#ffbf11" stroke="none" /><line stroke="#e1ed5e" stroke-width="0.3" x1="172.23445277983987" x2="176.4835382374775" y1="55.19839476539836" y2="52.563006222186495" /><path d="M 173.08426987136738 54.67131705675599 a86.0,86.0 0 0,1 12.851231095245387,41.99856678651699" fill="none" id="id15" stroke="none" /><text fill="#e1ed5e" style="font-size:6.75px; font-family:Arial;" text-anchor="middle"><textPath startOffset="22.20632615414155" xlink:href="#id15">March</textPath></text><path d="M 117.84615892207809 88.93136811851018 l 19.083019338832642 -11.835763492365784 a43.45544309367952,43.45544309367952 0 0,0 0.3887900588464,0.6390686312806666 l -19.283925195965264 11.505527087878036" fill="#ffe215" stroke="none" /><path d="M 118.21658344932153 89.55222093294921 l 18.034636638133676 -10.343426893080656 a41.79025248913581,41.79025248913581 0 0,0 0.3525154236623948,0.6270856039673913 l -18.210009703088502 10.03145777917847" fill="#ffca12" stroke="none" /><path d="M 118.3937258080291 89.86733742301442 l 20.942985512816453 -11.536988632473522 a44.910473623411626,44.910473623411626 0 0,0 0.3671792657810734,0.6803274146263455 l -21.13847287781599 11.174780234514719" fill="#fff617" stroke="none" /><path d="M 118.73160827565052 90.50648371742162 l 15.499028426551298 -7.855186621795834 a38.37595577314484,38.37595577314484 0 0,0 0.29355776372850334,0.5917945385391107 l -15.631946203233209 7.587232494757774" fill="#ff990e" stroke="none" /><path d="M 119.04729006885535 91.15688171328212 l 22.661100727758566 -10.520908408407536 a45.984295065735196,45.984295065735196 0 0,0 0.3271403399473635,0.7208103749786932 l -22.838843384669275 10.12927602458678" fill="#faff18" stroke="none" /><path d="M 119.196687751892 91.48605970444005 l 15.972097376493643 -7.083799310374984 a38.47249573683921,38.47249573683921 0 0,0 0.26327881204388826,0.6076837974189448 l -16.09166689838021 6.807816368369436" fill="#ff9a0e" stroke="none" /><path d="M 119.47837535516314 92.15188598940014 l 25.59283381144586 -10.311716143888823 a48.592111777325485,48.592111777325485 0 0,0 0.30591383818246753,0.778517350556973 l -25.766541199510026 9.869649788436066" fill="#d7ff1c" stroke="none" /><path d="M 119.7369772167798 92.82701384747503 l 14.528321724315914 -5.2800106826565205 a36.45802849441664,36.45802849441664 0 0,0 0.2092810959404811,0.5916658403192052 l -14.617055901066205 5.0291472159107" fill="#ff7c0b" stroke="none" /><path d="M 119.97218684219823 93.5106431181261 l 21.63937390050923 -7.031058794423742 a43.752984212552946,43.752984212552946 0 0,0 0.2265665286614944,0.7182778107440542 l -21.757195912938933 6.657530817253268" fill="#ffe615" stroke="none" /><path d="M 120.18372546131832 94.20196356495316 l 24.094993392238447 -6.921598783046797 a46.069448264481,46.069448264481 0 0,0 0.21238724117667926,0.7640699089640055 l -24.21056740398149 6.505817570663839" fill="#f9ff18" stroke="none" /><path d="M 120.28053869075195 94.5502522615342 l 24.212718923178087 -6.506395722805394 a46.07167610979702,46.07167610979702 0 0,0 0.19921319941204346,0.767649721513029 l -24.321128454460432 6.0886495757435135" fill="#f9ff18" stroke="none" /><path d="M 120.37134235888165 94.90015583598534 l 34.18895015095344 -8.558999933802083 a56.24401782276253,56.24401782276253 0 0,0 0.22703085204362586,0.9411894520823966 l -34.33121380325788 7.969225250060279" fill="#78ff26" stroke="none" /><path d="M 120.53481517161879 95.60439243477599 l 19.61686199091772 -4.199113858711976 a41.06125199405908,41.06125199405908 0 0,0 0.1419950966866813,0.6924185199764271 l -19.686236383519397 3.860819682572137" fill="#ffc011" stroke="none" /><path d="M 120.67395015179393 96.31383870115 l 15.956663984807786 -2.8450700909931377 a37.208317289179824,37.208317289179824 0 0,0 0.10699719128849862,0.6315034797484385 l -16.00327303761651 2.569980822928861" fill="#ff870c" stroke="none" /><path d="M 120.83666639777658 97.38593545837742 l 52.46688088957558 -6.58223394878606 a73.8781561141977,73.8781561141977 0 0,0 0.14743844969008452,1.2631625978007976 l -52.572409692269254 5.678127612660409" fill="#3fffbe" stroke="none" /><path d="M 120.91429891909075 98.10471618934814 l 15.611149419886011 -1.4147047852591135 a36.67511964354475,36.67511964354475 0 0,0 0.0515643732598784,0.6292159615385309 l -15.633188276965384 1.1457749065128138" fill="#ff7f0b" stroke="none" /><path d="M 120.94382443527127 98.46500227214037 l 25.000164930439915 -1.8322917327226114 a46.067220419164975,46.067220419164975 0 0,0 0.05115525496401187,0.7913491524414883 l -25.028000776408344 1.4016835160280878" fill="#f9ff18" stroke="none" /><path d="M 120.98425023603335 99.18683210126433 l 29.922258230292663 -1.1595277208795132 a50.944716431046814,50.944716431046814 0 0,0 0.02641436373198843,0.8765641370240653 l -29.937784288480298 0.6442934364304488" fill="#b9ff1f" stroke="none" /><line stroke="#e1ed5e" stroke-width="0.3" x1="184.98032266829074" x2="189.97916517819016" y1="98.17113171792111" y2="98.06355123074" /><path d="M 185.9800911702706 98.14961562048488 a86.0,86.0 0 0,1 -9.607161424134198,41.387399972396054" fill="none" id="id16" stroke="none" /><text fill="#e1ed5e" style="font-size:6.75px; font-family:Arial;" text-anchor="middle"><textPath startOffset="21.466115282336823" xlink:href="#id16">April</textPath></text><path d="M 120.99513854157772 99.54816195383933 l 11.632104960958511 -0.2503354558907494 a32.63479839375103,32.63479839375103 0 0,0 0.007252684372305906,0.5617283973736976 l -11.634690652448533 0.050070800456589105" fill="#ff4106" stroke="none" /><path d="M 120.99980553446 99.90962569577887 l 51.54592235869265 -0.2218319051078313 a72.54639969195225,72.54639969195225 0 0,0 -0.005374315744646089,1.2488017085279934 l -51.5421037456585 -0.665479281623847" fill="#3dffae" stroke="none" /><path d="M 120.9904718944345 100.63252640178507 l 15.16672235057381 0.45703366572836684 a36.173606909070905,36.173606909070905 0 0,0 -0.02411206399076061,0.6222252320537028 l -15.156608153731847 -0.7180361447960758" fill="#ff780b" stroke="none" /><path d="M 120.9764740272857 100.99374915477107 l 32.822174233267425 1.5549328194829437 a53.85898564277463,53.85898564277463 0 0,0 -0.05184222082555445,0.9256776784743678 l -32.79054566155434 -2.1196822142927347" fill="#94ff23" stroke="none" /><path d="M 120.92983693683757 101.71520430193887 l 26.02804409526334 2.133003393097422 a47.11529787117003,47.11529787117003 0 0,0 -0.07319788640822739,0.8077325770332916 l -25.987471612578037 -2.580717358679284" fill="#ebff1a" stroke="none" /><path d="M 120.89721153311464 102.0752229133903 l 18.399868881940677 1.8272212752726682 a39.49037350789372,39.49037350789372 0 0,0 -0.07299644821144127,0.6758564518514474 l -18.365690132228185 -2.143674049008907" fill="#ffa90f" stroke="none" /><path d="M 120.8583938346157 102.4346265915055 l 44.54731562482429 5.1996371369878425 a65.84974421035261,65.84974421035261 0 0,0 -0.14110186218795087,1.1247206729985662 l -44.45121225338949 -5.965675564273804" fill="#34ff5a" stroke="none" /><path d="M 120.76222939487914 103.15116336523771 l 25.72269445497605 3.904032215428442 a47.01727267726498,47.01727267726498 0 0,0 -0.12833083736084552,0.7991162467473354 l -25.651681863253916 -4.346227691868982" fill="#ecff1a" stroke="none" /><path d="M 120.70491114924044 103.5080841355445 l 19.889913467876973 3.3699970693461205 a41.17338687496562,41.17338687496562 0 0,0 -0.12440942276959628,0.6977541122670132 l -19.828957602768188 -3.7118699323463518" fill="#ffc112" stroke="none" /><path d="M 120.64145759157962 103.86396538481128 l 15.318925722370237 2.867617195206222 a36.58501567743,36.58501567743 0 0,0 -0.12120104727453257,0.6180015288843963 l -15.267294742120042 -3.130882451158563" fill="#ff7e0b" stroke="none" /><path d="M 120.49622156327973 104.57218783832717 l 25.3764622275988 5.660845908529001 a47.000192529842124,47.000192529842124 0 0,0 -0.18294138754973113,0.788106709543298 l -25.275260274118516 -6.096821275420864" fill="#ecff1a" stroke="none" /><path d="M 120.41448212921028 104.9243191809786 l 46.0125964443733 11.099018324518248 a68.33230650750866,68.33230650750866 0 0,0 -0.28565730378482124,1.1410589315213069 l -45.81472782629342 -11.88940509543695" fill="#37ff7a" stroke="none" /><path d="M 120.23288151984713 105.62410040840565 l 16.886465660510034 4.693902760446758 a38.526706639529124,38.526706639529124 0 0,0 -0.18310709519781943,0.6374198197777324 l -16.803165928426115 -4.983880055729072" fill="#ff9b0e" stroke="none" /><path d="M 120.13307415673323 105.97154293290107 l 20.864888216220777 6.188601641427664 a42.7633258155014,42.7633258155014 0 0,0 -0.21539118999416185,0.7039108713517686 l -20.755270253720482 -6.54683948533149" fill="#ffd814" stroke="none" /><path d="M 119.9155931802556 106.66101706037122 l 11.041273220045442 3.692890722424301 a32.64247208317289,32.64247208317289 0 0,0 -0.18281209607908333,0.5313375236511411 l -10.976070293023128 -3.8824009491647424" fill="#ff4106" stroke="none" /><path d="M 119.79798401119884 107.00284435728193 l 49.97632363066774 17.67737643068864 a74.0105891413169,74.0105891413169 0 0,0 -0.43516724703155457,1.1973933669350727 l -49.66463212263096 -18.535017594629846" fill="#3fffbf" stroke="none" /><path d="M 119.41010516605496 108.01547362559984 l 24.2447471261131 10.01195663218524 a47.23065075086639,47.23065075086639 0 0,0 -0.3167805150432509,0.7487755621108554 l -24.06881562987754 -10.427806719962259" fill="#e9ff1a" stroke="none" /><path d="M 119.26925614724726 108.34839909993367 l 23.861212271387952 10.337862630895525 a47.00440068210573,47.00440068210573 0 0,0 -0.32804352270600157,0.7396515427412421 l -23.679727663950676 -10.747062510129457" fill="#ecff1a" stroke="none" /><path d="M 119.12269723197855 108.67885076344098 l 20.025612890692628 9.088639725682622 a42.99155619120964,42.99155619120964 0 0,0 -0.31163838637422897,0.6712413595977234 l -19.866199887478565 -9.432001152559176" fill="#ffdb14" stroke="none" /><path d="M 118.81262510543309 109.33194174019688 l 19.382682254628392 9.61471674235949 a42.636338632488034,42.636338632488034 0 0,0 -0.33179462736972765,0.6546622771649273 l -19.214308957472394 -9.946933231227113" fill="#ffd614" stroke="none" /><path d="M 118.64920377521936 109.65438752849418 l 42.01885306920697 21.752472433810905 a68.31547389845427,68.31547389845427 0 0,0 -0.5496060935510303,1.0396476045343377 l -41.63819446743105 -22.472535053431375" fill="#37ff7a" stroke="none" /><line stroke="#e1ed5e" stroke-width="0.3" x1="174.80103733775053" x2="179.2010983576182" y1="140.37084112569926" y2="142.7455964860345" /><path d="M 175.68104954172406 140.8457921977663 a86.0,86.0 0 0,1 -30.038265399797805,32.042727171017184" fill="none" id="id17" stroke="none" /><text fill="#e1ed5e" style="font-size:6.75px; font-family:Arial;" text-anchor="middle"><textPath startOffset="22.206326154141568" xlink:href="#id17">May</textPath></text><path d="M 118.48025628344425 109.97397251340804 l 18.639640197938064 10.059993548931502 a42.18111557291381,42.18111557291381 0 0,0 -0.3503515062651653,0.6359897503454273 l -18.463712282221387 -10.379353817674733" fill="#ffd013" stroke="none" /><path d="M 117.94076556474637 110.91462005526583 l 14.993544408873886 9.121619694211038 a38.5502227845316,38.5502227845316 0 0,0 -0.349770504244335,0.5639414221949585 l -14.834309264961588 -9.37835744777127" fill="#ff9b0e" stroke="none" /><path d="M 117.75023020441432 111.22182372390056 l 21.269644743070227 13.44682301175809 a46.16376038285935,46.16376038285935 0 0,0 -0.4304114176757647,0.6680080784167959 l -21.03502846201741 -13.810952690096338" fill="#f7ff18" stroke="none" /><path d="M 117.55443506779139 111.5257021239791 l 14.705648488418325 9.655276479300449 a38.59205676879917,38.59205676879917 0 0,0 -0.36937540792103785,0.5521661173284798 l -14.537269975086566 -9.906979510834736" fill="#ff9c0e" stroke="none" /><path d="M 117.35343817320211 111.8261652097733 l 37.53102216495409 25.576952773532735 a66.41759722757027,66.41759722757027 0 0,0 -0.6519649162362835,0.9392040876795322 l -37.085196341555665 -26.219198123399284" fill="#35ff61" stroke="none" /><path d="M 116.93607887273984 112.41649034213515 l 16.302172059769934 11.95174889399962 a41.21398316739095,41.21398316739095 0 0,0 -0.4243837864079246,0.5685314337006212 l -16.094027006666916 -12.230593207209557" fill="#ffc212" stroke="none" /><path d="M 116.71984013943494 112.70617746262583 l 20.24307741744762 15.383647924306981 a46.4251608999395,46.4251608999395 0 0,0 -0.4889966238390905,0.632094053720271 l -19.97527397639046 -15.729819972140506" fill="#f4ff19" stroke="none" /><path d="M 116.27256486870786 113.27417163493432 l 19.800335399190267 16.151912906092967 a46.55264315968976,46.55264315968976 0 0,0 -0.5118662629095638,0.6165758879270162 l -19.51937313638716 -16.490350051133756" fill="#f2ff19" stroke="none" /><path d="M 115.80600337817218 113.82643327865902 l 20.969817837889757 18.34352304401097 a48.8606909070906,48.8606909070906 0 0,0 -0.55920165045653,0.6282689823439064 l -20.650957337784888 -18.701766196095743" fill="#d4ff1c" stroke="none" /><path d="M 115.32070863581623 114.36230785411682 l 23.746959930508755 22.26144738005278 a53.54981022058419,53.54981022058419 0 0,0 -0.636206039282644,0.6670594886696262 l -23.360247339847145 -22.666913985304912" fill="#98ff23" stroke="none" /><path d="M 115.07121518719521 114.62390073753431 l 18.381889306746498 17.83631387723763 a46.61304252159085,46.61304252159085 0 0,0 -0.5637056734782359,0.5710308711029873 l -18.072143008212727 -18.150085242321282" fill="#f1ff19" stroke="none" /><path d="M 114.55890576462653 115.13401014063108 l 14.224716678801643 14.786619952417176 a41.51796028384399,41.51796028384399 0 0,0 -0.5192990664643556,0.4910296803554914 l -13.968081777946479 -15.029284269518588" fill="#ffc612" stroke="none" /><path d="M 114.29624159901734 115.38237550388516 l 17.388819303408987 18.709906813034642 a46.54274162495187,46.54274162495187 0 0,0 -0.5915370813689047,0.5403550986216668 l -17.064182672573217 -19.00645467824289" fill="#f2ff19" stroke="none" /><path d="M 114.0293411484842 115.62618273729858 l 23.766687093860707 26.47184865334813 a56.57547169811321,56.57547169811321 0 0,0 -0.7302482972233574,0.6443592177859766 l -23.307496443730763 -26.877031012906393" fill="#74ff27" stroke="none" /><path d="M 112.92097659922987 116.55440617244103 l 16.57765369342857 21.23935528553164 a47.943066175257165,47.943066175257165 0 0,0 -0.6549280168388855,0.5021708757487358 l -16.209596948096188 -21.521565503107748" fill="#e0ff1b" stroke="none" /><path d="M 112.63410532772338 116.77436683061366 l 15.233542242298695 20.225652634163495 a46.32069970845481,46.32069970845481 0 0,0 -0.6410234055240664,0.4742137907014507 l -14.883133866356065 -20.484876373604717" fill="#f5ff19" stroke="none" /><path d="M 112.34349029814194 116.9893568818739 l 15.007099357158056 20.655500233906913 a46.53160239837175,46.53160239837175 0 0,0 -0.6520466179639098,0.4652179490057828 l -14.649325411345261 -20.910762444756916" fill="#f2ff19" stroke="none" /><path d="M 112.04921762599082 117.19931262002967 l 26.332482706011238 37.58755266775835 a66.89361351009407,66.89361351009407 0 0,0 -0.9487524879371049,0.6525606123902069 l -25.68157333345125 -38.03525406951365" fill="#35ff68" stroke="none" /><path d="M 111.45004920935366 117.60387380957326 l 13.94218702104745 21.435410141948534 a46.57071346058639,46.57071346058639 0 0,0 -0.6757592325285069,0.4313015146411846 l -13.571145986472013 -21.672226085413527" fill="#f2ff19" stroke="none" /><line stroke="#e1ed5e" stroke-width="0.3" x1="143.8653032363475" x2="146.44561519142675" y1="172.8068346515853" y2="177.08958963109032" /><path d="M 144.38136562736335 173.6633856474863 a86.0,86.0 0 0,1 -40.68145358897372,12.25698825130547" fill="none" id="id18" stroke="none" /><text fill="#e1ed5e" style="font-size:6.75px; font-family:Arial;" text-anchor="middle"><textPath startOffset="21.466115282336833" xlink:href="#id18">June</textPath></text><path d="M 110.21172684928248 118.3499491758327 l 11.400712970335778 20.486496227483542 a44.44510149073106,44.44510149073106 0 0,0 -0.6717076827305121,0.3662685855455605 l -11.046382475736618 -20.679705464788874" fill="#ffef16" stroke="none" /><path d="M 109.2508944713604 118.85261126421891 l 11.41726112084245 23.26749983795567 a46.91776225314924,46.91776225314924 0 0,0 -0.7280906840037236,0.3495277743197888 l -11.015057768838494 -23.460581888775017" fill="#edff1a" stroke="none" /><path d="M 108.92500713936063 119.00905698771935 l 9.684649366470518 20.626992095213772 a43.78739204576709,43.78739204576709 0 0,0 -0.6850266509006485,0.3144621369929802 l -9.32815471980245 -20.790641302540827" fill="#ffe615" stroke="none" /><path d="M 107.59598834532513 119.57807347666477 l 14.662926336594822 37.79256051353105 a61.53737829363552,61.53737829363552 0 0,0 -0.9908390541627826,0.37465054755673954 l -14.010217061671765 -38.03935931119442" fill="#3bff2e" stroke="none" /><path d="M 106.91757812671514 119.82793768551818 l 8.41464808043467 24.119007364742473 a46.544721931899446,46.544721931899446 0 0,0 -0.7587460518718879,0.2574078562299155 l -7.998232295625556 -24.260278207870513" fill="#f2ff19" stroke="none" /><path d="M 104.48393922423573 120.51570834832081 l 5.224996219551373 23.906322811426087 a45.47065295120744,45.47065295120744 0 0,0 -0.7660907270723164,0.16054176041862292 l -4.812714031049678 -23.992720552571253" fill="#fffd17" stroke="none" /><path d="M 103.41894727170886 120.7198165907248 l 3.4549226152906853 20.93783765439308 a42.22096925023378,42.22096925023378 0 0,0 -0.7180864771367191,0.11215033953446851 l -3.0940002745454493 -20.99420630127465" fill="#ffd013" stroke="none" /><path d="M 103.06178313531738 120.77559828337769 l 5.14111194835672 34.88479485594291 a56.26159304692227,56.26159304692227 0 0,0 -0.9593175183040324,0.13295266671580416 l -4.539865838865857 -34.96812208815132" fill="#78ff26" stroke="none" /><path d="M 102.34483914955558 120.86867818915974 l 2.929109538105238 26.068587409546502 a47.23263105781396,47.23263105781396 0 0,0 -0.8087292621401778,0.0838280947152803 l -2.4799476793594577 -26.115144872717543" fill="#e9ff1a" stroke="none" /><path d="M 101.98527174616119 120.90594882070398 l 2.4530359856302084 25.831750675993575 a46.94796193409978,46.94796193409978 0 0,0 -0.8051702505247541,0.06947347719499991 l -2.0080214173639126 -25.870148405467237" fill="#edff1a" stroke="none" /><line stroke="#e1ed5e" stroke-width="0.3" x1="102.19456741930631" x2="102.32365962044197" y1="184.97166512339345" y2="189.96999836594603" /><path d="M 102.22038585953345 185.97133177190398 a86.0,86.0 0 0,1 -42.740103519485714,-10.115201625700543" fill="none" id="id19" stroke="none" /><text fill="#e1ed5e" style="font-size:6.75px; font-family:Arial;" text-anchor="middle"><textPath startOffset="22.20632615414155" xlink:href="#id19">July</textPath></text><path d="M 99.81925306533755 120.99922214144158 l -0.2253261030737883 26.178440600104352 a47.17941030859783,47.17941030859783 0 0,0 -0.8120257472676504,-0.01397975964767138 l 0.6759115402341066 -26.17068336317752" fill="#eaff1a" stroke="none" /><path d="M 99.09653310690486 120.98055641714683 l -1.0877129960766931 25.259170041826625 a46.28257879971396,46.28257879971396 0 0,0 -0.7956458652995069,-0.04112580304506097 l 1.5223469297896888 -25.236704432019362" fill="#f6ff19" stroke="none" /><path d="M 98.73552117531835 120.96189622390904 l -1.5770337286206435 26.14327477510191 a47.190797073546406,47.190797073546406 0 0,0 -0.810417084440263,-0.05589110699119736 l 2.0268135738398363 -26.11225532359443" fill="#eaff1a" stroke="none" /><path d="M 98.01472825383883 120.90594882070398 l -2.366193120039547 24.917249924652165 a46.02934704879256,46.02934704879256 0 0,0 -0.7881263237273494,-0.08169251590845068 l 2.79475204037249 -24.872828040287953" fill="#f9ff18" stroke="none" /><path d="M 96.58105272829116 120.7198165907248 l -4.162083952665922 25.22344139321396 a46.564525001375216,46.564525001375216 0 0,0 -0.7897144510550108,-0.13730197993234763 l 4.595647375192983 -25.148060834760606" fill="#f2ff19" stroke="none" /><path d="M 96.22490169976321 120.6578951692458 l -4.585813068052652 25.09424605437346 a46.5098190219484,46.5098190219484 0 0,0 -0.7863091425333855,-0.15069801859805138 l 5.017089825157733 -25.01159083742694" fill="#f3ff19" stroke="none" /><path d="M 95.51606077576429 120.51570834832081 l -5.458877908791409 24.976419501971534 a46.5660102315859,46.5660102315859 0 0,0 -0.7815990633238012,-0.17788940214441337 l 5.887997121508073 -24.878753366249434" fill="#f2ff19" stroke="none" /><path d="M 94.11515582081647 120.15858648285463 l -6.7483119802697615 23.116403174913916 a45.08127509764013,45.08127509764013 0 0,0 -0.7430360712112857,-0.223870673038126 l 7.145223025921293 -22.996817132770065" fill="#fff817" stroke="none" /><path d="M 93.08242187328487 119.8279376855182 l -10.718595766976456 30.722840429239778 a53.53891853237252,53.53891853237252 0 0,0 -0.8675355581716663,-0.31106738572362597 l 11.245850885777848 -30.533785502476196" fill="#98ff23" stroke="none" /><path d="M 92.7421414339146 119.70592522655815 l -9.525222867407637 25.862081477936048 a48.56042686616425,48.56042686616425 0 0,0 -0.7818917340972639,-0.2956445500194267 l 9.968984822265183 -25.69428867780999" fill="#d8ff1c" stroke="none" /><path d="M 91.40352486487194 119.15986991738527 l -7.949136974280255 17.717079150304382 a40.41864238957038,40.41864238957038 0 0,0 -0.6323246472669284,-0.29026923199478466 l 8.252929617314603 -17.577622847975523" fill="#ffb610" stroke="none" /><path d="M 90.42595943632237 118.69057910512821 l -22.2838910781918 43.50293130646784 a69.87818361846087,69.87818361846087 0 0,0 -1.0658389489484295,-0.5575965634301553 l 23.029420929666724 -43.11290532409297" fill="#39ff8d" stroke="none" /><line stroke="#e1ed5e" stroke-width="0.3" x1="58.666819895761336" x2="56.23545636021788" y1="174.27360380694188" y2="178.64263932499728" /><path d="M 58.180547188652646 175.14741091055294 a86.0,86.0 0 0,1 -31.652253787137756,-30.449443065178592" fill="none" id="id20" stroke="none" /><text fill="#e1ed5e" style="font-size:6.75px; font-family:Arial;" text-anchor="middle"><textPath startOffset="22.20632615414155" xlink:href="#id20">August</textPath></text><path d="M 89.4739219176387 118.17145234162733 l -12.812768105762204 22.119026970580023 a46.56204961769075,46.56204961769075 0 0,0 -0.6900764681807618,-0.4077093409823928 l 13.191612444971348 -21.89519905730388" fill="#f2ff19" stroke="none" /><path d="M 88.24862548938628 117.40417183066458 l -13.999643422430339 20.733931972974464 a46.01771274547555,46.01771274547555 0 0,0 -0.652669472697208,-0.448912014679126 l 14.354469779750438 -20.489879168930237" fill="#f9ff18" stroke="none" /><path d="M 87.07902340077011 116.55440617244103 l -15.735855413655877 20.160840009879028 a46.57492161285,46.57492161285 0 0,0 -0.6277467899901701,-0.4987200156475917 l 16.080559696363405 -19.886986080226304" fill="#f2ff19" stroke="none" /><path d="M 86.51685102203217 116.09983520530335 l -16.489475960643066 19.68960263080746 a46.682353264756046,46.682353264756046 0 0,0 -0.6116155722742924,-0.5212320594086317 l 16.825957009494413 -19.402846181175875" fill="#f0ff19" stroke="none" /><path d="M 86.24171649860922 115.8653595955263 l -16.468520365520614 18.99066824570237 a46.13677870069861,46.13677870069861 0 0,0 -0.5955107942419441,-0.5254690370657275 l 16.792973512669146 -18.704376066864352" fill="#f8ff18" stroke="none" /><path d="M 85.44109423537348 115.13401014063109 l -15.660608538317286 16.279232262303722 a43.58911381264096,43.58911381264096 0 0,0 -0.5362499823520341,-0.5248334733915554 l 15.938508473045115 -16.007248685989595" fill="#ffe315" stroke="none" /><path d="M 84.67929136418377 114.36230785411682 l -18.261974554678584 17.119580223931873 a46.03157489410859,46.03157489410859 0 0,0 -0.5369333150440724,-0.5827350678627009 l 18.553954277718386 -16.802693901267826" fill="#f9ff18" stroke="none" /><line stroke="#e1ed5e" stroke-width="0.3" x1="26.63291911575756" x2="22.317208475507996" y1="142.92168965132927" y2="145.44649492493687" /><path d="M 25.769776987707644 143.4266507060508 a86.0,86.0 0 0,1 -11.730757126820373,-40.83630448921669" fill="none" id="id21" stroke="none" /><text fill="#e1ed5e" style="font-size:6.75px; font-family:Arial;" text-anchor="middle"><textPath startOffset="21.46611528233685" xlink:href="#id21">September</textPath></text><path d="M 81.51974371655577 109.97397251340807 l -26.520539412366535 14.313390847110075 a51.136558666593324,51.136558666593324 0 0,0 -0.41139968213009076,-0.7782131585719357 l 26.76299160272151 -13.854762673452013" fill="#b6ff1f" stroke="none" /><path d="M 81.18737489456691 109.33194174019688 l -23.81600014624373 11.813849720796341 a47.58512569448264,47.58512569448264 0 0,0 -0.35767414878349263,-0.7369146860774216 l 24.015827551641944 -11.402146078753635" fill="#e4ff1a" stroke="none" /><path d="M 81.02952815118164 109.00673069616217 l -16.140993913598194 7.663361591990492 a38.86781451124924,38.86781451124924 0 0,0 -0.2817460931701648,-0.6068560193794014 l 16.270514623608186 -7.384385505332264" fill="#ffa00e" stroke="none" /><path d="M 80.58989483394504 108.01547362559985 l -25.88728378521474 10.69024812815998 a49.00772869794818,49.00772869794818 0 0,0 -0.3152769537274282,-0.7824915434766816 l 26.067463353199557 -10.243057216840494" fill="#d2ff1c" stroke="none" /><path d="M 80.45479744820244 107.68017299344265 l -37.20497109477341 14.619475723858068 a60.974228505418345,60.974228505418345 0 0,0 -0.37544364491062443,-0.9801648844742438 l 37.451109019277546 -13.976887272550668" fill="#42ff2d" stroke="none" /><path d="M 80.20201598880116 107.00284435728193 l -25.957462263148628 9.181544344920491 a48.53344518400352,48.53344518400352 0 0,0 -0.27180848378823924,-0.790002684619605 l 26.111661577880096 -8.733368957211589" fill="#d8ff1c" stroke="none" /><path d="M 80.0844068197444 106.66101706037122 l -20.13900252435606 6.735739085421165 a42.23557401397217,42.23557401397217 0 0,0 -0.2246686142922584,-0.6914588955272635 l 20.251963389664567 -6.388081289916098" fill="#ffd013" stroke="none" /><path d="M 79.86692584326677 105.97154293290107 l -25.456070184066267 7.550362891613173 a47.552203091479186,47.552203091479186 0 0,0 -0.22600285718176133,-0.7867455946391279 l 25.58226567813413 -7.111059821469449" fill="#e5ff1a" stroke="none" /><path d="M 79.67330655649465 105.27499134158121 l -43.58163961351883 11.309895151032467 a66.0252489135816,66.0252489135816 0 0,0 -0.276012848831664,-1.1025341281357461 l 43.76986377664555 -10.55803318349933" fill="#34ff5c" stroke="none" /><path d="M 79.50377843672027 104.57218783832718 l -24.39749878735288 5.442463963259727 a45.99716706089444,45.99716706089444 0 0,0 -0.16573427912452704,-0.7742553762872484 l 24.487567105201848 -5.021694767556315" fill="#faff18" stroke="none" /><path d="M 79.4281124754447 104.21870165774334 l -24.50575400332222 5.025424376575324 a46.01573243852797,46.01573243852797 0 0,0 -0.15244369475819955,-0.7773071153086486 l 24.588627631056088 -4.6028535341987205" fill="#f9ff18" stroke="none" /><path d="M 79.29508885075956 103.50808413554451 l -16.331274660142675 2.767048123776581 a37.56402992463832,37.56402992463832 0 0,0 -0.10252877592382113,-0.6384467855490039 l 16.376485190427786 -2.4855221085343637" fill="#ff8d0d" stroke="none" /><path d="M 79.23777060512086 103.15116336523772 l -25.24448101909327 3.831451924012846 a46.533582705319326,46.533582705319326 0 0,0 -0.11337785327215424,-0.7929644417177638 l 25.306692923382023 -3.3963420103146817" fill="#f2ff19" stroke="none" /><path d="M 79.18660465613746 102.79330883721812 l -52.17177763977736 7.0018315189281415 a73.6395291270147,73.6395291270147 0 0,0 -0.1577936985946871,-1.2577710324045437 l 52.2845728476189 -6.102742732236189" fill="#3fffbb" stroke="none" /><path d="M 79.10278846688536 102.07522291339032 l -25.97958915673346 2.579934581850129 a47.10737664337972,47.10737664337972 0 0,0 -0.07318558006276833,-0.8075967775366321 l 26.020149333073306 -2.132356415764931" fill="#ebff1a" stroke="none" /><path d="M 79.07016306316243 101.71520430193888 l -27.96818190346382 2.2919980725601663 a49.0619396006381,49.0619396006381 0 0,0 -0.06173263251673254,-0.8422927238858774 l 28.00349109464489 -1.8102322121775285" fill="#d1ff1c" stroke="none" /><path d="M 79.0235259727143 100.99374915477108 l -16.67330746553633 0.7898889574845787 a37.692007261125475,37.692007261125475 0 0,0 -0.025124176676800326,-0.6483433632586746 l 16.68443377506433 -0.5027683472119072" fill="#ff8f0d" stroke="none" /><path d="M 79.0095281055655 100.63252640178507 l -36.16032830837809 1.0896545093076193 a57.17674239507124,57.17674239507124 0 0,0 -0.021177005629730513,-0.9840122381677641 l 36.17372737669283 -0.46705245534972634" fill="#6dff28" stroke="none" /><line stroke="#e1ed5e" stroke-width="0.3" x1="15.007084014347285" x2="10.007500721073583" y1="101.09737516637583" y2="101.16192664675087" /><path d="M 14.007167355692545 101.11028546245083 a86.0,86.0 0 0,1 10.666146001902534,-42.60595125391555" fill="none" id="id22" stroke="none" /><text fill="#e1ed5e" style="font-size:6.75px; font-family:Arial;" text-anchor="middle"><textPath startOffset="22.20632615414155" xlink:href="#id22">October</textPath></text><path d="M 79.00019446554 99.90962569577889 l -16.333667986507308 -0.07029321663179595 a37.33381924198251,37.33381924198251 0 0,0 0.008296984222420313,-0.6426105716238548 l 16.33003799516717 0.35144004631612275" fill="#ff890c" stroke="none" /><path d="M 79.01574976396665 99.18683210126434 l -16.748747204179356 -0.6490364638851963 a37.761318004290665,37.761318004290665 0 0,0 0.03075999520956339,-0.6492948824107599 l 16.735093600736295 0.9372424529189654" fill="#ff900d" stroke="none" /><path d="M 79.12142395522702 97.74499172005258 l -25.737632168039045 -2.7798147498521257 a46.88731503383025,46.88731503383025 0 0,0 0.09357289627034973,-0.8016754312395998 l 25.685968918765106 3.2224339194165874" fill="#eeff19" stroke="none" /><path d="M 79.21141760316559 97.0276538004421 l -27.272425143482113 -3.899404378833468 a48.54978271632103,48.54978271632103 0 0,0 0.12540664700775436,-0.8262731159992479 l 27.201262603035058 4.368276607224808" fill="#d8ff1c" stroke="none" /><path d="M 79.32604984820605 96.31383870115002 l -27.068183137061915 -4.826251798878569 a48.49507673689422,48.49507673689422 0 0,0 0.15360071062334424,-0.8205411380834915 l 26.98109670252871 5.2914710144246335" fill="#d8ff1c" stroke="none" /><path d="M 79.3925641242962 95.95851677861259 l -26.990084409624828 -5.293233662997061 a48.50423565652677,48.50423565652677 0 0,0 0.16773389259438093,-0.817930029769678 l 26.89497122111545 5.7570393489301415" fill="#d8ff1c" stroke="none" /><path d="M 79.46518482838121 95.60439243477599 l -24.615539445780474 -5.26911250506342 a46.17316684086033,46.17316684086033 0 0,0 0.1730517809651002,-0.7757572020222605 l 24.521193277813335 5.692047876635639" fill="#f7ff18" stroke="none" /><path d="M 79.62865764111835 94.90015583598534 l -25.731640564384016 -6.4417628770341215 a47.52571648605534,47.52571648605534 0 0,0 0.20550044702026818,-0.7918770512772406 l 25.61694378549344 6.883736353860226" fill="#e5ff1a" stroke="none" /><path d="M 79.71946130924805 94.55025226153421 l -24.368823593775968 -6.548343872631534 a46.23331866439298,46.23331866439298 0 0,0 0.2131427089206873,-0.7667877283922908 l 24.25249411428892 6.9668429044427675" fill="#f6ff19" stroke="none" /><path d="M 79.81627453868168 94.20196356495316 l -24.81730788188383 -7.129092971201131 a46.820974751086425,46.820974751086425 0 0,0 0.22918667123301661,-0.7727035206004202 l 24.690915313539108 7.55522587854809" fill="#efff19" stroke="none" /><path d="M 80.02781315780177 93.51064311812611 l -26.14584055198337 -8.495298569904435 a48.491363661367515,48.491363661367515 0 0,0 0.2647690945766445,-0.791625892337709 l 25.995734163634953 8.944097565164466" fill="#d8ff1c" stroke="none" /><path d="M 80.14247586403 93.16781622104843 l -15.914045456173863 -5.4753897051153135 a37.82963859398207,37.82963859398207 0 0,0 0.21715458983727934,-0.6139252678215509 l 15.817437785526774 5.748512599363476" fill="#ff910d" stroke="none" /><path d="M 80.2630227832202 92.82701384747504 l -58.814727959265234 -21.37496662141679 a83.57844215853457,83.57844215853457 0 0,0 0.5030443613819473,-1.3479087905822442 l 58.43807900938166 22.384198549028373" fill="#4cd6ff" stroke="none" /><path d="M 80.52162464483688 92.15188598940014 l -26.17579368304133 -10.54659895379798 a49.220611694812696,49.220611694812696 0 0,0 0.32339890343236405,-0.7831360964323839 l 25.990373092722766 10.995609620683677" fill="#cfff1d" stroke="none" /><path d="M 80.65960295795068 91.81776055985345 l -15.319285125316362 -6.481048898566564 a37.633835744540406,37.633835744540406 0 0,0 0.25753961051166907,-0.594436928997689 l 15.205454804962013 6.743784972150852" fill="#ff8e0d" stroke="none" /><path d="M 80.803312248108 91.48605970444005 l -29.77754698958251 -13.206666717415827 a53.57481159579735,53.57481159579735 0 0,0 0.38114060578748027,-0.8397928027509093 l 29.54580406683168 13.717281529008806" fill="#98ff23" stroke="none" /><path d="M 81.10775173730289 90.83032412892265 l -22.7752746220823 -11.054369138882642 a46.31624401782277,46.31624401782277 0 0,0 0.3542971828128392,-0.7142415010435351 l 22.58161742631605 11.444770228425138" fill="#f5ff19" stroke="none" /><path d="M 81.26839172434947 90.50648371742162 l -51.565098663436686 -26.134120283224632 a78.80961549040101,78.80961549040101 0 0,0 0.6236864128944383,-1.2047636343139587 l 51.10760281738213 27.01785663979893" fill="#46fff5" stroke="none" /><path d="M 81.6062741919709 89.86733742301443 l -24.896423110165095 -13.714842625252714 a49.42408823367623,49.42408823367623 0 0,0 0.4169095031754491,-0.741635486136646 l 24.656655965697215 14.141361621324146" fill="#ccff1d" stroke="none" /><line stroke="#e1ed5e" stroke-width="0.3" x1="26.266209847984243" x2="21.928928074336255" y1="57.711370442889674" y2="55.22380399835377" /><path d="M 25.398753493254645 57.213857153982495 a86.0,86.0 0 0,1 29.58750427330803,-30.492523968695096" fill="none" id="id23" stroke="none" /><text fill="#e1ed5e" style="font-size:6.75px; font-family:Arial;" text-anchor="middle"><textPath startOffset="21.46611528233685" xlink:href="#id23">November</textPath></text><path d="M 81.78341655067845 89.55222093294921 l -24.870525781523053 -14.264022634629711 a49.67063644864954,49.67063644864954 0 0,0 0.4317568641239347,-0.7380124368316109 l 24.621309242928792 14.690014483815213" fill="#c9ff1d" stroke="none" /><path d="M 82.15384107792192 88.93136811851018 l -22.754683556878 -14.113021013125886 a47.775977776555365,47.775977776555365 0 0,0 0.4394762127998413,-0.6951458282085645 l 22.508379747832194 14.502614489048666" fill="#e2ff1b" stroke="none" /><path d="M 82.34701348167596 88.62581576622439 l -26.02959934025532 -16.771409082542938 a51.96482204741736,51.96482204741736 0 0,0 0.4909521684397396,-0.7477538348259329 l 25.737050536457662 17.216980981346538" fill="#acff21" stroke="none" /><path d="M 82.54541684631803 88.32363383020206 l -51.99011359776071 -34.77915217063143 a83.55047032290005,83.55047032290005 0 0,0 0.809944363791068,-1.188493411978246 l 51.38374476830091 35.66892360588009" fill="#4cd7ff" stroke="none" /><path d="M 82.95767976084542 87.72973835380427 l -25.451787156375513 -18.32497473287146 a52.362368667143414,52.362368667143414 0 0,0 0.5329426610244388,-0.7269331907043319 l 25.132581882837442 18.760370367247294" fill="#a7ff21" stroke="none" /><path d="M 83.17141714833178 87.43820079747576 l -31.70906346615598 -23.669425504980225 a60.569008196270424,60.569008196270424 0 0,0 0.630852350918452,-0.83012774612731 l 31.29693517501342 24.21173802698856" fill="#46ff2c" stroke="none" /><path d="M 83.6137871275137 86.86637796730984 l -20.20922902119199 -16.19778637088681 a46.899444413884154,46.899444413884154 0 0,0 0.510313989016759,-0.6255846103292738 l 19.92741654009884 16.543255150824166" fill="#eeff19" stroke="none" /><path d="M 83.84228863543731 86.58626213691792 l -48.47313409368807 -40.241213589246236 a84.0,84.0 0 0,0 0.9331575460515031,-1.1045642014835364 l 47.77326593414944 41.06963674035889" fill="#4dd2ff" stroke="none" /><path d="M 84.31358615837235 86.03803664274999 l -20.227230824151583 -18.00359587836418 a48.07896473953463,48.07896473953463 0 0,0 0.5555555498402388,-0.6134583139487428 l 19.914331633695298 18.349106979582476" fill="#deff1b" stroke="none" /><path d="M 84.5562425177563 85.77008943001954 l -23.408482825975867 -21.568625224498575 a52.83021618350845,52.83021618350845 0 0,0 0.6219693251394549,-0.6634735105016836 l 23.033746178865954 21.96836815187831" fill="#a1ff22" stroke="none" /><path d="M 84.80347519578584 85.50635884689758 l -29.45626117258273 -28.093823071251528 a61.7054568458111,61.7054568458111 0 0,0 0.7396889815531291,-0.7623145159876253 l 28.968307927326485 28.596701782789278" fill="#3aff2e" stroke="none" /><path d="M 85.31137513191541 84.99185889309783 l -22.520853636652546 -23.010741458934646 a53.19756312228396,53.19756312228396 0 0,0 0.6599455520162171,-0.6348670981654184 l 22.121424841023902 23.39499164386238" fill="#9dff22" stroke="none" /><path d="M 85.57189188830299 84.74124197986013 l -22.190303969043327 -23.467836256541332 a53.29781616150504,53.29781616150504 0 0,0 0.6720400728817922,-0.6245880061706155 l 21.78305601236668 23.846328848786598" fill="#9bff22" stroke="none" /><path d="M 85.83668400450813 84.49514656593479 l -37.56874299799858 -41.12722289550262 a76.70331151328458,76.70331151328458 0 0,0 0.982492762479856,-0.8820917029112865 l 36.855239247922746 41.767813607183186" fill="#43ffde" stroke="none" /><path d="M 86.37877921826538 84.01681056812374 l -17.8951326217156 -20.998212949089645 a48.58914131690412,48.58914131690412 0 0,0 0.6412435381718411,-0.537023022041997 l 17.531031546584646 21.303137128525456" fill="#d7ff1c" stroke="none" /><path d="M 86.65592168130627 83.78471172551755 l -25.68310120729528 -31.209266006448985 a61.418312338412456,61.418312338412456 0 0,0 0.8221180411538928,-0.6647622814689591 l 25.142079767576885 31.64673438518208" fill="#3dff2e" stroke="none" /><path d="M 87.22198572758235 83.33499621200491 l -16.022499032353274 -20.896439882970533 a47.3321414819297,47.3321414819297 0 0,0 0.6508256144647268,-0.4901883597848332 l 15.660427264130156 21.16914483226122" fill="#e8ff1a" stroke="none" /><line stroke="#e1ed5e" stroke-width="0.3" x1="56.762969772571076" x2="54.21961505331055" y1="26.818313649435495" y2="22.513508569990535" /><path d="M 56.25429882871897 25.957352633546506 a86.0,86.0 0 0,1 42.265352541879196,-11.944610805530505" fill="none" id="id24" stroke="none" /><text fill="#e1ed5e" style="font-size:6.75px; font-family:Arial;" text-anchor="middle"><textPath startOffset="22.20632615414155" xlink:href="#id24">December</textPath></text></svg>