<?xml version="1.0" encoding="utf-8" ?>
<svg baseProfile="full" height="200mm" version="1.1" viewBox="0,0,200,200" width="200mm" xmlns="http://www.w3.org/2000/svg" xmlns:ev="http://www.w3.org/2001/xml-events" xmlns:xlink="http://www.w3.org/1999/xlink"><defs /><rect fill="#1a1a1a" height="200" width="200" x="0" y="0" /><rect fill="#1a1a1a" height="200" width="180" x="10" y="0" /><text alignment-baseline="middle" fill="#e1ed5e" style="dominant-baseline: central; font-size:9.0px; font-family:Arial;" text-anchor="middle" x="100.0" y="100.0">2026</text><line stroke="#e1ed5e" stroke-width="0.3" x1="100.0" x2="100.0" y1="15.0" y2="10.0" /><path d="M 100.0 14.0 a86.0,86.0 0 0,1 42.46469731375804,11.215312516191453" fill="none" id="id85" stroke="none" /><text fill="#e1ed5e" style="font-size:6.75px; font-family:Arial;" text-anchor="middle"><textPath startOffset="22.20632615414155" xlink:href="#id85">January</textPath></text><path d="M 103.59715602781102 79.31037775812273 l 2.0359505403034035 -11.710097437073477 a32.88576781652395,32.88576781652395 0 0,0 0.55687330865872,0.10176503771277064 l -2.2372189700650242 11.673316918009968" fill="#ff0000" stroke="none" /><path d="M 105.71112130821622 79.79150937346287 l 4.8349836532906565 -17.10832541701027 a38.77841009488496,38.77841009488496 0 0,0 0.6407851259075088,0.18706274973750783 l -5.128758996921592 17.02256433835406" fill="#ff6509" stroke="none" /><path d="M 110.36928655335952 81.73862282372117 l 7.593819856447478 -13.37349564926185 a36.379092492504284,36.379092492504284 0 0,0 0.5418809048381612,0.31389239607450653 l -7.822897493750967 13.240799095797295" fill="#ff3d05" stroke="none" /><line stroke="#e1ed5e" stroke-width="0.3" x1="143.23703022742887" x2="145.7803849466894" y1="26.81831364943548" y2="22.513508569990506" /><path d="M 143.74570117128098 25.957352633546492 a86.0,86.0 0 0,1 28.547481713284135,27.462654790039103" fill="none" id="id86" stroke="none" /><text fill="#e1ed5e" style="font-size:6.75px; font-family:Arial;" text-anchor="middle"><textPath startOffset="19.985693538727396" xlink:href="#id86">February</textPath></text><path d="M 111.90073688211348 82.69761687909136 l 12.193935267617595 -17.728661833451966 a42.51737687813607,42.51737687813607 0 0,0 0.599431967628675,0.4199404004973144 l -12.497298374829922 17.51613659019072" fill="#ffa20f" stroke="none" /><path d="M 112.48926042617603 83.11751280151076 l 17.610744494419382 -23.805506358067973 a50.6114919349184,50.6114919349184 0 0,0 0.6959172838206794,0.5241504702953979 l -18.017907931998444 23.49883929826673" fill="#e2ff1b" stroke="none" /><path d="M 113.34407831869373 83.78471172551755 l 13.134955457375822 -15.961169001493472 a41.67089670917745,41.67089670917745 0 0,0 0.549941664338269,0.46056032840770417 l -13.407754658673209 15.73270751569195" fill="#ff940d" stroke="none" /><path d="M 114.42810811169701 84.74124197986012 l 21.15782867078404 -22.375919657639667 a51.79505633356426,51.79505633356426 0 0,0 0.6425466701396302,0.6181293875852647 l -21.539858584536088 22.0084071832921" fill="#d1ff1c" stroke="none" /><path d="M 115.68641384162765 86.03803664274999 l 22.07489536096423 -19.648141586511304 a50.552503667221075,50.552503667221075 0 0,0 0.5729479613956802,0.6549785639449661 l -22.40983518593776 19.26524746636339" fill="#e3ff1b" stroke="none" /><path d="M 116.82858285166822 87.43820079747576 l 20.063630658965867 -14.976620540959829 a46.03694146750547,46.03694146750547 0 0,0 0.4685626474822723,0.639118924584525 l -20.318455918961767 14.62903917270381" fill="#ffd914" stroke="none" /><path d="M 117.2510076193507 88.02491185347247 l 19.394120060651044 -13.462767067015852 a44.60885406002743,44.60885406002743 0 0,0 0.43244149053217035,0.6345545268787309 l -19.622986016851947 13.126934516866713" fill="#ffc312" stroke="none" /><line stroke="#e1ed5e" stroke-width="0.3" x1="172.23445277983987" x2="176.4835382374775" y1="55.19839476539836" y2="52.563006222186495" /><path d="M 173.08426987136738 54.67131705675599 a86.0,86.0 0 0,1 12.851231095245387,41.99856678651699" fill="none" id="id87" stroke="none" /><text fill="#e1ed5e" style="font-size:6.75px; font-family:Arial;" text-anchor="middle"><textPath startOffset="22.20632615414155" xlink:href="#id87">March</textPath></text><path d="M 119.196687751892 91.48605970444005 l 21.608866033451882 -9.58376766040954 a44.63877521828029,44.63877521828029 0 0,0 0.3054765095291045,0.7050819011671394 l -21.770633252823668 9.210386614655798" fill="#ffc312" stroke="none" /><path d="M 119.47837535516314 92.15188598940014 l 27.475125912396532 -11.070118358660634 a50.621446021030074,50.621446021030074 0 0,0 0.3186896037283575,0.8110302803519002 l -27.661609066006587 10.595539073412949" fill="#e2ff1b" stroke="none" /><path d="M 119.7369772167798 92.82701384747503 l 22.297259028418054 -8.10346632584297 a44.72412119920233,44.72412119920233 0 0,0 0.2567311916215489,0.7258136505081867 l -22.43344330084941 7.718455048908168" fill="#ffc512" stroke="none" /><path d="M 120.6074358757038 95.95851677861258 l 61.822307627111385 -12.124449664162288 a84.0,84.0 0 0,0 0.26605710436056285,1.4212876901497489 l -62.02185045538181 11.058483896549978" fill="#4dd2ff" stroke="none" /><line stroke="#e1ed5e" stroke-width="0.3" x1="184.98032266829074" x2="189.97916517819016" y1="98.17113171792111" y2="98.06355123074" /><path d="M 185.9800911702706 98.14961562048488 a86.0,86.0 0 0,1 -9.607161424134198,41.387399972396054" fill="none" id="id88" stroke="none" /><text fill="#e1ed5e" style="font-size:6.75px; font-family:Arial;" text-anchor="middle"><textPath startOffset="21.466115282336823" xlink:href="#id88">April</textPath></text><path d="M 120.70491114924044 103.5080841355445 l 15.046059285513154 2.5492909146778464 a36.260497507972524,36.260497507972524 0 0,0 -0.10956464616342089,0.6144967215320136 l -14.999948197010545 -2.8079063869430785" fill="#ff3b05" stroke="none" /><path d="M 120.13307415673323 105.97154293290107 l 12.253642937510298 3.6344750094367018 a33.78128216706821,33.78128216706821 0 0,0 -0.1701502496996109,0.5560608608458892 l -12.189265915304555 -3.844862842834648" fill="#ff1001" stroke="none" /><line stroke="#e1ed5e" stroke-width="0.3" x1="174.80103733775053" x2="179.2010983576182" y1="140.37084112569926" y2="142.7455964860345" /><path d="M 175.68104954172406 140.8457921977663 a86.0,86.0 0 0,1 -30.038265399797805,32.042727171017184" fill="none" id="id89" stroke="none" /><text fill="#e1ed5e" style="font-size:6.75px; font-family:Arial;" text-anchor="middle"><textPath startOffset="22.206326154141568" xlink:href="#id89">May</textPath></text><line stroke="#e1ed5e" stroke-width="0.3" x1="143.8653032363475" x2="146.44561519142675" y1="172.8068346515853" y2="177.08958963109032" /><path d="M 144.38136562736335 173.6633856474863 a86.0,86.0 0 0,1 -40.68145358897372,12.25698825130547" fill="none" id="id90" stroke="none" /><text fill="#e1ed5e" style="font-size:6.75px; font-family:Arial;" text-anchor="middle"><textPath startOffset="21.466115282336833" xlink:href="#id90">June</textPath></text><line stroke="#e1ed5e" stroke-width="0.3" x1="102.19456741930631" x2="102.32365962044197" y1="184.97166512339345" y2="189.96999836594603" /><path d="M 102.22038585953345 185.97133177190398 a86.0,86.0 0 0,1 -42.740103519485714,-10.115201625700543" fill="none" id="id91" stroke="none" /><text fill="#e1ed5e" style="font-size:6.75px; font-family:Arial;" text-anchor="middle"><textPath startOffset="22.20632615414155" xlink:href="#id91">July</textPath></text><line stroke="#e1ed5e" stroke-width="0.3" x1="58.666819895761336" x2="56.23545636021788" y1="174.27360380694188" y2="178.64263932499728" /><path d="M 58.180547188652646 175.14741091055294 a86.0,86.0 0 0,1 -31.652253787137756,-30.449443065178592" fill="none" id="id92" stroke="none" /><text fill="#e1ed5e" style="font-size:6.75px; font-family:Arial;" text-anchor="middle"><textPath startOffset="22.20632615414155" xlink:href="#id92">August</textPath></text><line stroke="#e1ed5e" stroke-width="0.3" x1="26.63291911575756" x2="22.317208475507996" y1="142.92168965132927" y2="145.44649492493687" /><path d="M 25.769776987707644 143.4266507060508 a86.0,86.0 0 0,1 -11.730757126820373,-40.83630448921669" fill="none" id="id93" stroke="none" /><text fill="#e1ed5e" style="font-size:6.75px; font-family:Arial;" text-anchor="middle"><textPath startOffset="21.46611528233685" xlink:href="#id93">September</textPath></text><line stroke="#e1ed5e" stroke-width="0.3" x1="15.007084014347285" x2="10.007500721073583" y1="101.09737516637583" y2="101.16192664675087" /><path d="M 14.007167355692545 101.11028546245083 a86.0,86.0 0 0,1 10.666146001902534,-42.60595125391555" fill="none" id="id94" stroke="none" /><text fill="#e1ed5e" style="font-size:6.75px; font-family:Arial;" text-anchor="middle"><textPath startOffset="22.20632615414155" xlink:href="#id94">October</textPath></text><line stroke="#e1ed5e" stroke-width="0.3" x1="26.266209847984243" x2="21.928928074336255" y1="57.711370442889674" y2="55.22380399835377" /><path d="M 25.398753493254645 57.213857153982495 a86.0,86.0 0 0,1 29.58750427330803,-30.492523968695096" fill="none" id="id95" stroke="none" /><text fill="#e1ed5e" style="font-size:6.75px; font-family:Arial;" text-anchor="middle"><textPath startOffset="21.46611528233685" xlink:href="#id95">November</textPath></text><line stroke="#e1ed5e" stroke-width="0.3" x1="56.762969772571076" x2="54.21961505331055" y1="26.818313649435495" y2="22.513508569990535" /><path d="M 56.25429882871897 25.957352633546506 a86.0,86.0 0 0,1 42.265352541879196,-11.944610805530505" fill="none" id="id96" stroke="none" /><text fill="#e1ed5e" style="font-size:6.75px; font-family:Arial;" text-anchor="middle"><textPath startOffset="22.20632615414155" xlink:href="#id96">December</textPath></text></svg>