<?xml version="1.0" encoding="utf-8" ?>
<svg baseProfile="full" height="200mm" version="1.1" viewBox="0,0,200,200" width="200mm" xmlns="http://www.w3.org/2000/svg" xmlns:ev="http://www.w3.org/2001/xml-events" xmlns:xlink="http://www.w3.org/1999/xlink"><defs /><rect fill="#1a1a1a" height="200" width="200" x="0" y="0" /><text alignment-baseline="middle" fill="#e1ed5e" style="dominant-baseline: central; font-size:9.0px; font-family:Arial;" text-anchor="middle" x="100.0" y="100.0">2023</text><line stroke="#e1ed5e" stroke-width="0.3" x1="100.0" x2="100.0" y1="15.0" y2="10.0" /><path d="M 100.0 14.0 a86.0,86.0 0 0,1 42.46469731375804,11.215312516191453" fill="none" id="id13" stroke="none" /><text fill="#e1ed5e" style="font-size:6.75px; font-family:Arial;" text-anchor="middle"><textPath startOffset="22.20632615414155" xlink:href="#id13">January</textPath></text><path d="M 100.0 79.0 l 0.0 -4.495161403426756 a25.495161403426756,25.495161403426756 0 0,0 0.4388572934876748,0.0037773832772407105 l -0.07737681421514643 4.494495396758075" fill="#ff0000" stroke="none" /><path d="M 102.16513564639614 79.11191278185805 l 0.7663732981054053 -7.393565534393302 a28.433178280077605,28.433178280077605 0 0,0 0.48638782682133136,0.05465133957503593 l -0.893527828436462 7.379278241347665" fill="#ff2d04" stroke="none" /><path d="M 110.05341064243156 81.56283822128135 l 3.5346852770405093 -6.482333867334067 a28.383403847502397,28.383403847502397 0 0,0 0.426934930741244,0.2375888267248604 l -3.6457442968537883 6.4205296430490275" fill="#ff2c04" stroke="none" /><line stroke="#e1ed5e" stroke-width="0.3" x1="143.23703022742887" x2="145.7803849466894" y1="26.81831364943548" y2="22.513508569990506" /><path d="M 143.74570117128098 25.957352633546492 a86.0,86.0 0 0,1 28.547481713284135,27.462654790039103" fill="none" id="id14" stroke="none" /><text fill="#e1ed5e" style="font-size:6.75px; font-family:Arial;" text-anchor="middle"><textPath startOffset="19.985693538727396" xlink:href="#id14">February</textPath></text><path d="M 110.99172775467656 82.1063720568725 l 5.498433178606289 -8.950996582522615 a31.504908721161264,31.504908721161264 0 0,0 0.4596428875439935,0.2878283340123292 l -5.651695218522546 8.855023907187341" fill="#ff5a08" stroke="none" /><path d="M 113.06298171725822 83.55741782278167 l 9.214957870288032 -11.59901355765027 a35.81393141815292,35.81393141815292 0 0,0 0.4793892574136752,0.3876327735403229 l -9.413250526266198 11.438674686845818" fill="#ff980e" stroke="none" /><path d="M 113.6212207817346 84.01681056812373 l 14.410647274949651 -16.90950531690453 a43.21706832472359,43.21706832472359 0 0,0 0.562040445894691,0.48739593624135374 l -14.699581519491106 16.658944387243505" fill="#fffc17" stroke="none" /><path d="M 114.16331599549186 84.49514656593476 l 7.028157802218205 -7.693859027755955 a31.420675066033986,31.420675066033986 0 0,0 0.39618795444426813,0.3682135255328503 l -7.15955364045732 7.571740916148464" fill="#ff5908" stroke="none" /><path d="M 114.68862486808459 84.99185889309783 l 10.459992908211518 -10.687525275747992 a35.95441901778827,35.95441901778827 0 0,0 0.43858261800669207,0.43669920486387426 l -10.642411326385533 10.505890220233999" fill="#ff9a0e" stroke="none" /><path d="M 115.19652480421416 85.50635884689758 l 8.596385752364467 -8.198777807006373 a32.87930155910334,32.87930155910334 0 0,0 0.3870875131522787,0.41291797013450504 l -8.73624058748721 8.049590419993812" fill="#ff6e0a" stroke="none" /><path d="M 115.68641384162765 86.03803664274999 l 17.779133468557973 -15.824624577538666 a44.801603515579345,44.801603515579345 0 0,0 0.5077688648317698,0.5804675892263078 l -18.048894196967588 15.51624143210941" fill="#eeff19" stroke="none" /><path d="M 116.15771136456269 86.58626213691792 l 9.037682774710587 -7.5028637963877305 a32.74617704120988,32.74617704120988 0 0,0 0.35631194441187325,0.43679631305041183 l -9.16549321119887 7.346183313729218" fill="#ff6c0a" stroke="none" /><path d="M 116.60985879189232 87.15038557335679 l 11.724469175511661 -9.070210057169577 a35.823356162782545,35.823356162782545 0 0,0 0.37311570927244386,0.4909765372707055 l -11.878860825008218 8.867048744017838" fill="#ff980e" stroke="none" /><path d="M 117.04232023915458 87.72973835380427 l 14.431974248385124 -10.390844533715272 a38.78346228465908,38.78346228465908 0 0,0 0.3854104351962104,0.5451357281815585 l -14.608697303385219 10.140882305201922" fill="#ffc111" stroke="none" /><path d="M 117.2510076193507 88.02491185347247 l 25.719247854739642 -17.853464963833144 a52.30855987471074,52.30855987471074 0 0,0 0.5070830012663472,0.7440817336024711 l -26.022755321674722 17.40810520696027" fill="#93ff23" stroke="none" /><path d="M 117.65298651832404 88.62581576622439 l 10.001804764272757 -6.444369622160313 a32.89815104836259,32.89815104836259 0 0,0 0.30261975795599216,0.4786717827943116 l -10.111252118474704 6.271250191651794" fill="#ff6f0a" stroke="none" /><line stroke="#e1ed5e" stroke-width="0.3" x1="172.23445277983987" x2="176.4835382374775" y1="55.19839476539836" y2="52.563006222186495" /><path d="M 173.08426987136738 54.67131705675599 a86.0,86.0 0 0,1 12.851231095245387,41.99856678651699" fill="none" id="id15" stroke="none" /><text fill="#e1ed5e" style="font-size:6.75px; font-family:Arial;" text-anchor="middle"><textPath startOffset="22.20632615414155" xlink:href="#id15">March</textPath></text><path d="M 117.84615892207809 88.93136811851018 l 11.352569878798858 -7.041146357934704 a34.35883920431967,34.35883920431967 0 0,0 0.30740395598645687,0.5052912772138035 l -11.472089633071539 6.844687307513819" fill="#ff840c" stroke="none" /><path d="M 118.21658344932153 89.55222093294921 l 10.728882523140767 -6.153348927912827 a33.368210186765154,33.368210186765154 0 0,0 0.2814725456349259,0.5007082511338805 l -10.833212710068125 5.9677571668441525" fill="#ff750a" stroke="none" /><path d="M 118.3937258080291 89.86733742301442 l 12.459071716240539 -6.863403915047116 a35.224443093896824,35.224443093896824 0 0,0 0.2879881708934364,0.5335983428424868 l -12.57536798635244 6.64792458887217" fill="#ff900d" stroke="none" /><path d="M 118.73160827565052 90.50648371742162 l 9.220438345826102 -4.673084141012997 a31.337030457446062,31.337030457446062 0 0,0 0.2397133412744186,0.4832474685028702 l -9.299511700053928 4.513677084011177" fill="#ff5808" stroke="none" /><path d="M 119.04729006885535 91.15688171328212 l 13.481185811035084 -6.2589334409905515 a35.863264065823614,35.863264065823614 0 0,0 0.25513755036027164,0.562161772454974 l -13.586925678358703 6.025949659693515" fill="#ff990e" stroke="none" /><path d="M 119.196687751892 91.48605970444005 l 9.501869088852274 -4.214182527959364 a31.39446249503284,31.39446249503284 0 0,0 0.21484171047770245,0.4958842888022005 l -9.573001509172657 4.049999094570562" fill="#ff5908" stroke="none" /><path d="M 119.47837535516314 92.15188598940014 l 15.225286370154606 -6.134484067498585 a37.414665388840845,37.414665388840845 0 0,0 0.2355457187344122,0.5994381619793694 l -15.328625638770719 5.8714969006234305" fill="#ffae10" stroke="none" /><path d="M 119.7369772167798 92.82701384747503 l 8.642960774102395 -3.141100953227321 a30.19604731072205,30.19604731072205 0 0,0 0.17333526071565614,0.49004212362039606 l -8.69574911562786 2.9918612031803105" fill="#ff4706" stroke="none" /><path d="M 119.97218684219823 93.5106431181261 l 12.873356148577649 -4.182806969293867 a34.53584768939483,34.53584768939483 0 0,0 0.17883733569705498,0.5669632258686382 l -12.94344896804291 3.9605935769988094" fill="#ff860c" stroke="none" /><path d="M 120.18372546131832 94.20196356495316 l 14.33421469410495 -4.1176887400437305 a35.91392206820785,35.91392206820785 0 0,0 0.16556870366910298,0.5956387193452121 l -14.402970168340417 3.8703387172795662" fill="#ff990e" stroke="none" /><path d="M 120.28053869075195 94.5502522615342 l 14.404250116318838 -3.870682662463031 a35.91524742292139,35.91524742292139 0 0,0 0.15529696227556763,0.5984225452656016 l -14.468743410464707 3.6221636916485793" fill="#ff9a0e" stroke="none" /><path d="M 120.37134235888165 94.90015583598534 l 20.339152771367093 -5.0917856926024 a41.96681704494986,41.96681704494986 0 0,0 0.16940045537461487,0.7022742518972925 l -20.423786027002528 4.740926209045702" fill="#ffeb16" stroke="none" /><path d="M 120.53481517161879 95.60439243477599 l 11.670155157337387 -2.4980708064920187 a32.934524672167555,32.934524672167555 0 0,0 0.11389182716179588,0.55537699710006 l -11.711426280414178 2.296818153228547" fill="#ff6f0a" stroke="none" /><path d="M 120.67395015179393 96.31383870115 l 9.492687698084406 -1.6925443738535784 a30.64239732591571,30.64239732591571 0 0,0 0.08811606347951169,0.5200659946204346 l -9.52041562308414 1.528892590917306" fill="#ff4e07" stroke="none" /><path d="M 120.83666639777658 97.38593545837742 l 31.212771996171952 -3.915799147681786 a52.457441387531844,52.457441387531844 0 0,0 0.10468918337554213,0.8969129905547778 l -31.27555153255108 3.3779424188021556" fill="#91ff23" stroke="none" /><path d="M 120.91429891909075 98.10471618934814 l 9.287139604631752 -0.8416139315985041 a30.325195764474884,30.325195764474884 0 0,0 0.04263652658195202,0.520273618661439 l -9.3002506150332 0.6816263957292963" fill="#ff4906" stroke="none" /><path d="M 120.94382443527127 98.46500227214037 l 14.87270511625848 -1.0900381938905142 a35.91259671349431,35.91259671349431 0 0,0 0.03987907289787891,0.616911606834729 l -14.889264780160774 0.83386752280275" fill="#ff990e" stroke="none" /><path d="M 120.98425023603335 99.18683210126433 l 17.80087948659186 -0.6898080038572295 a38.814239966340196,38.814239966340196 0 0,0 0.02012482401073452,0.66784493356421 l -17.81011600505824 0.3832929228680203" fill="#ffc112" stroke="none" /><line stroke="#e1ed5e" stroke-width="0.3" x1="184.98032266829074" x2="189.97916517819016" y1="98.17113171792111" y2="98.06355123074" /><path d="M 185.9800911702706 98.14961562048488 a86.0,86.0 0 0,1 -9.607161424134198,41.387399972396054" fill="none" id="id16" stroke="none" /><text fill="#e1ed5e" style="font-size:6.75px; font-family:Arial;" text-anchor="middle"><textPath startOffset="21.466115282336823" xlink:href="#id16">April</textPath></text><path d="M 120.99513854157772 99.54816195383933 l 6.919989025954759 -0.14892563412947582 a27.921591360650755,27.921591360650755 0 0,0 0.006205231816295811,0.48060204257749894 l -6.921527264888771 0.029787333491514138" fill="#ff2503" stroke="none" /><path d="M 120.99980553446 99.90962569577887 l 30.66488982450488 -0.13196874977530615 a51.66517379210397,51.66517379210397 0 0,0 -0.0038274119479368585,0.8893557444192847 l -30.662618115267442 -0.3958964728476632" fill="#9bff22" stroke="none" /><path d="M 120.9904718944345 100.63252640178507 l 9.022748038977907 0.2718912838172641 a30.02684369229331,30.02684369229331 0 0,0 -0.020014846138209957,0.516494244857634 l -9.016731059988494 -0.42716277568890415" fill="#ff4506" stroke="none" /><path d="M 120.9764740272857 100.99374915477107 l 19.526051928220372 0.9250361893254624 a40.547951193286735,40.547951193286735 0 0,0 -0.039029621792889796,0.6969001157289526 l -19.507235955539954 -1.2610080213898383" fill="#ffd914" stroke="none" /><path d="M 120.92983693683757 101.71520430193887 l 15.484194830670369 1.2689328476745574 a36.53610247539795,36.53610247539795 0 0,0 -0.05676214732009549,0.626365565763805 l -15.460058087073199 -1.5352798019869331" fill="#ffa20f" stroke="none" /><path d="M 120.89721153311464 102.0752229133903 l 10.94616074815267 1.0870217570523026 a32.000002337486265,32.000002337486265 0 0,0 -0.05915078298581794,0.5476627876089446 l -10.9258276636658 -1.2752808665460387" fill="#ff6209" stroke="none" /><path d="M 120.8583938346157 102.4346265915055 l 26.50138872492819 3.0932863869152842 a47.68130478483439,47.68130478483439 0 0,0 -0.10217079773612317,0.8144017847015038 l -26.44421641794522 -3.549005925904183" fill="#caff1d" stroke="none" /><path d="M 120.76222939487914 103.15116336523771 l 15.302541022786128 2.3225254739716954 a36.47778686800215,36.47778686800215 0 0,0 -0.09956394038365307,0.6199847518102105 l -15.260295328041186 -2.5855894554751107" fill="#ffa10e" stroke="none" /><path d="M 120.70491114924044 103.5080841355445 l 11.832594649623655 2.004825679930351 a33.001234192749116,33.001234192749116 0 0,0 -0.09971646270131158,0.5592628786600565 l -11.796331744583155 -2.208207309323626" fill="#ff700a" stroke="none" /><path d="M 120.64145759157962 103.86396538481128 l 9.113294476280501 1.7059577426501367 a30.271592529393892,30.271592529393892 0 0,0 -0.10028555815253896,0.5113539004569062 l -9.082578985152297 -1.8625753701749879" fill="#ff4806" stroke="none" /><path d="M 120.49622156327973 104.57218783832717 l 15.096565988867159 3.367661459049769 a36.46762581519833,36.46762581519833 0 0,0 -0.14194490933288922,0.611494954362663 l -15.036360513603716 -3.627025070760997" fill="#ffa10e" stroke="none" /><path d="M 120.41448212921028 104.9243191809786 l 27.373090555788025 6.602853504359043 a49.15819172062365,49.15819172062365 0 0,0 -0.205501573465951,0.8208766334280065 l -27.255377668027013 -7.073057977184446" fill="#b8ff1f" stroke="none" /><path d="M 120.23288151984713 105.62410040840565 l 10.0458306944526 2.792422841799543 a31.42671279306234,31.42671279306234 0 0,0 -0.14936273024825897,0.5199512585435252 l -9.996275327318243 -2.96493157584765" fill="#ff5908" stroke="none" /><path d="M 120.13307415673323 105.97154293290107 l 12.41261130024423 3.681625603312659 a33.947095673312916,33.947095673312916 0 0,0 -0.17098542254330504,0.558790254021859 l -12.347399105194791 -3.8947428298865754" fill="#ff7e0b" stroke="none" /><path d="M 119.9155931802556 106.66101706037122 l 6.56850069456274 2.1969164961111693 a27.92615647133073,27.92615647133073 0 0,0 -0.15639866940678693,0.45456774189048693 l -6.529711194212722 -2.3096569410909566" fill="#ff2503" stroke="none" /><path d="M 119.79798401119884 107.00284435728193 l 29.73112882341863 10.516346896680403 a52.53622636217012,52.53622636217012 0 0,0 -0.3089023511459831,0.849966602072946 l -29.545702211267418 -11.02656129575948" fill="#91ff24" stroke="none" /><path d="M 119.41010516605496 108.01547362559984 l 14.423303831323581 5.95615585103419 a36.60472639723242,36.60472639723242 0 0,0 -0.24551141889400832,0.58031647136471 l -14.318641431237264 -6.203546848065063" fill="#ffa30f" stroke="none" /><path d="M 119.26925614724726 108.34839909993367 l 14.195137304742437 6.1500387245241965 a36.47012926299058,36.47012926299058 0 0,0 -0.25452488497591247,0.5738864230134261 l -14.08717133503525 -6.39347348403031" fill="#ffa10e" stroke="none" /><path d="M 119.12269723197855 108.67885076344098 l 11.913322817041719 5.406870671617263 a34.08287090063346,34.08287090063346 0 0,0 -0.2470608610498805,0.5321471151354286 l -11.818487339152005 -5.611137854031522" fill="#ff800b" stroke="none" /><path d="M 118.81262510543309 109.33194174019688 l 11.530840629944262 5.719836140415009 a33.87155045464108,33.87155045464108 0 0,0 -0.2635873253189976,0.5200827993904146 l -11.430674634838995 -5.917473151508118" fill="#ff7d0b" stroke="none" /><path d="M 118.64920377521936 109.65438752849418 l 24.997195528930106 12.940638950093446 a49.14817792945467,49.14817792945467 0 0,0 -0.39540292316657305,0.7479533191489883 l -24.77074009753864 -13.36900728432857" fill="#b8ff1f" stroke="none" /><line stroke="#e1ed5e" stroke-width="0.3" x1="174.80103733775053" x2="179.2010983576182" y1="140.37084112569926" y2="142.7455964860345" /><path d="M 175.68104954172406 140.8457921977663 a86.0,86.0 0 0,1 -30.038265399797805,32.042727171017184" fill="none" id="id17" stroke="none" /><text fill="#e1ed5e" style="font-size:6.75px; font-family:Arial;" text-anchor="middle"><textPath startOffset="22.206326154141568" xlink:href="#id17">May</textPath></text><path d="M 118.48025628344425 109.97397251340804 l 11.088801730245724 5.984733218401534 a33.60073630817419,33.60073630817419 0 0,0 -0.27908386056879864,0.5066182723194879 l -10.984141460225416 -6.174722009118827" fill="#ff790b" stroke="none" /><path d="M 117.94076556474637 110.91462005526583 l 8.91972374026988 5.426490596047018 a31.44070264837194,31.44070264837194 0 0,0 -0.28526502896190387,0.4599380570492105 l -8.824994071640013 -5.579224984461502" fill="#ff5a08" stroke="none" /><path d="M 117.75023020441432 111.22182372390056 l 12.653402690399545 7.999572561255005 a35.97002875108109,35.97002875108109 0 0,0 -0.33536936636425474,0.5205007041741838 l -12.51382846065824 -8.21619486535064" fill="#ff9a0e" stroke="none" /><path d="M 117.55443506779139 111.5257021239791 l 8.74845322501436 5.743965301514317 a31.465589864659545,31.465589864659545 0 0,0 -0.30116599281983136,0.4502022965271473 l -8.648284126783809 -5.893704512247271" fill="#ff5a08" stroke="none" /><path d="M 117.35343817320211 111.8261652097733 l 22.327365716354944 15.21583867273024 a48.01912297515253,48.01912297515253 0 0,0 -0.4713627832841793,0.6790332452184564 l -22.062142025908628 -15.597913180135716" fill="#c6ff1e" stroke="none" /><path d="M 116.93607887273984 112.41649034213515 l 9.698231930632307 7.110146569776928 a33.025385100862536,33.025385100862536 0 0,0 -0.3400651162436807,0.4555727958554685 l -9.574405547693534 -7.276032245141712" fill="#ff710a" stroke="none" /><path d="M 116.71984013943494 112.70617746262583 l 12.042693394742816 9.151797991219638 a36.12553703746991,36.12553703746991 0 0,0 -0.3805105960487867,0.4918612387375895 l -11.883375981475961 -9.35773722407048" fill="#ff9c0e" stroke="none" /><path d="M 116.27256486870786 113.27417163493432 l 11.779304273173409 9.608842117010111 a36.20137677941142,36.20137677941142 0 0,0 -0.3980496527489091,0.47947644896077296 l -11.612158620530957 -9.810179823084654" fill="#ff9d0e" stroke="none" /><path d="M 115.80600337817218 113.82643327865902 l 12.475034381267315 10.91264036801163 a37.57444426263996,37.57444426263996 0 0,0 -0.43003262656701347,0.4831462146926138 l -12.285342905051964 -11.12576075244511" fill="#ffb010" stroke="none" /><path d="M 115.32070863581623 114.36230785411682 l 14.127168098160542 13.243430323993627 a40.36402141137421,40.36402141137421 0 0,0 -0.479550423911289,0.5028067022536571 l -13.897111122870289 -13.48464414282979" fill="#ffd614" stroke="none" /><path d="M 115.07121518719521 114.62390073753431 l 10.9354646219182 10.610899463874713 a36.23730861831187,36.23730861831187 0 0,0 -0.4382287736369589,0.44392343402938644 l -10.751195223225706 -10.797563391884763" fill="#ff9e0e" stroke="none" /><path d="M 114.55890576462653 115.13401014063108 l 8.462344833115381 8.796623495500071 a33.206222388443464,33.206222388443464 0 0,0 -0.41533736650922787,0.3927274040857846 l -8.309671632215345 -8.940985536331777" fill="#ff730a" stroke="none" /><path d="M 114.29624159901734 115.38237550388516 l 10.344683026655307 11.13060364030339 a36.195486314017906,36.195486314017906 0 0,0 -0.46002817164177806,0.42022482763209074 l -10.151555305546664 -11.307021234522065" fill="#ff9d0e" stroke="none" /><path d="M 114.0293411484842 115.62618273729858 l 14.138903872069644 15.748216061730721 a42.16400037399781,42.16400037399781 0 0,0 -0.5442321301629334,0.48022157808403976 l -13.865729389000123 -15.989260781587049" fill="#ffee16" stroke="none" /><path d="M 112.92097659922987 116.55440617244103 l 9.86211713353996 12.63538336247286 a37.028545382295874,37.028545382295874 0 0,0 -0.5058298045645518,0.38784872445070695 l -9.643158600481915 -12.80327142875094" fill="#ffa90f" stroke="none" /><path d="M 112.63410532772338 116.77436683061366 l 9.062499478549991 12.03232731659011 a36.06339262756831,36.06339262756831 0 0,0 -0.4990744721556045,0.36920336331517845 l -8.854040035975823 -12.186540628645057" fill="#ff9c0e" stroke="none" /><path d="M 112.34349029814194 116.9893568818739 l 8.927787637018461 12.288045493398267 a36.1888595404502,36.1888595404502 0 0,0 -0.5071139237652222,0.3618123198967186 l -8.714946385404355 -12.439902075139205" fill="#ff9d0e" stroke="none" /><path d="M 112.04921762599082 117.19931262002967 l 15.665306663182475 22.360995954420193 a48.30230709894579,48.30230709894579 0 0,0 -0.6850718869643921,0.47119869067308784 l -15.2780778915952 -22.627335434458377" fill="#c3ff1e" stroke="none" /><path d="M 111.45004920935366 117.60387380957326 l 8.294266730508175 12.75201723565778 a36.21212687875459,36.21212687875459 0 0,0 -0.5254520974543815,0.3353683895009186 l -8.073532831006863 -12.892900053982506" fill="#ff9e0e" stroke="none" /><line stroke="#e1ed5e" stroke-width="0.3" x1="143.8653032363475" x2="146.44561519142675" y1="172.8068346515853" y2="177.08958963109032" /><path d="M 144.38136562736335 173.6633856474863 a86.0,86.0 0 0,1 -40.68145358897372,12.25698825130547" fill="none" id="id18" stroke="none" /><text fill="#e1ed5e" style="font-size:6.75px; font-family:Arial;" text-anchor="middle"><textPath startOffset="21.466115282336833" xlink:href="#id18">June</textPath></text><path d="M 110.21172684928248 118.3499491758327 l 6.782332940390073 12.187504286650443 a34.94759122040158,34.94759122040158 0 0,0 -0.528169915880712,0.28800035043660305 l -6.571540212640712 -12.302445288846815" fill="#ff8c0c" stroke="none" /><path d="M 109.2508944713604 118.85261126421891 l 6.79217750595154 13.841935237041547 a36.41858769079732,36.41858769079732 0 0,0 -0.5651598275120716,0.27131106191195253 l -6.552905010439236 -13.95680057545306" fill="#ffa10e" stroke="none" /><path d="M 108.92500713936063 119.00905698771935 l 5.761439357805911 12.271085879676676 a34.5563170566373,34.5563170566373 0 0,0 -0.5406121953101696,0.24816854351314604 l -5.549359166728323 -12.368441493523896" fill="#ff860c" stroke="none" /><path d="M 107.59598834532513 119.57807347666477 l 8.723037634046426 22.482955999291118 a45.11585984432342,45.11585984432342 0 0,0 -0.72642932044626,0.27467341090670155 l -8.334738092839892 -22.62977766030445" fill="#eaff1a" stroke="none" /><path d="M 106.91757812671514 119.82793768551818 l 5.005910157217236 14.348500709125888 a36.196664407096605,36.196664407096605 0 0,0 -0.5900577996791881,0.20017964230910582 l -4.7581826246008205 -14.432543338333117" fill="#ff9d0e" stroke="none" /><path d="M 104.48393922423573 120.51570834832081 l 3.108372613667612 14.221973758081406 a35.55769617353498,35.55769617353498 0 0,0 -0.5990769770522194,0.12554240525763669 l -2.863104175186015 -14.273372144065583" fill="#ff940d" stroke="none" /><path d="M 103.41894727170886 120.7198165907248 l 2.05534825068879 12.45600923323196 a33.62444543138309,33.62444543138309 0 0,0 -0.5718783816258325,0.08931564193702024 l -1.8406340054544403 -12.489543182516087" fill="#ff790b" stroke="none" /><path d="M 103.06178313531738 120.77559828337769 l 3.0584695017144874 20.75311376453707 a41.977272621023346,41.977272621023346 0 0,0 -0.7157552926449676,0.09919716158351244 l -2.7007856178826897 -20.802685491613186" fill="#ffeb16" stroke="none" /><path d="M 102.34483914955558 120.86867818915974 l 1.7425398006241362 15.50831422186027 a36.60590449031112,36.60590449031112 0 0,0 -0.6267757155468799,0.06496786564771831 l -1.4753314884716535 -15.536011455963747" fill="#ffa30f" stroke="none" /><path d="M 101.98527174616119 120.90594882070398 l 1.4593216066917607 15.367419035423257 a36.43655361024754,36.43655361024754 0 0,0 -0.6248967535545522,0.05391872132509565 l -1.1945805353956667 -15.390262009027015" fill="#ffa10e" stroke="none" /><line stroke="#e1ed5e" stroke-width="0.3" x1="102.19456741930631" x2="102.32365962044197" y1="184.97166512339345" y2="189.96999836594603" /><path d="M 102.22038585953345 185.97133177190398 a86.0,86.0 0 0,1 -42.740103519485714,-10.115201625700543" fill="none" id="id19" stroke="none" /><text fill="#e1ed5e" style="font-size:6.75px; font-family:Arial;" text-anchor="middle"><textPath startOffset="22.20632615414155" xlink:href="#id19">July</textPath></text><path d="M 99.81925306533755 120.99922214144158 l -0.13404746310020235 15.573666355087909 a36.57424323882097,36.57424323882097 0 0,0 -0.6294955151514497,-0.010837336169100223 l 0.40210266814431994 -15.569051541639649" fill="#ffa30f" stroke="none" /><path d="M 99.09653310690486 120.98055641714683 l -0.6470851167095085 15.026788365548086 a36.04071433580328,36.04071433580328 0 0,0 -0.6195775189583811,-0.032025080663541414 l 0.9056507040813785 -15.013423478122343" fill="#ff9b0e" stroke="none" /><path d="M 98.73552117531835 120.96189622390904 l -0.9381841147619864 15.552746055286425 a36.581017274023516,36.581017274023516 0 0,0 -0.6282131941715291,-0.043325259946825435 l 1.2057600697124455 -15.534292450823315" fill="#ffa30f" stroke="none" /><path d="M 98.01472825383883 120.90594882070398 l -1.407658414269851 14.823378624444317 a35.89006568336411,35.89006568336411 0 0,0 -0.6145189393058064,-0.06369740067539092 l 1.6626099501812508 -14.796951855313164" fill="#ff990e" stroke="none" /><path d="M 96.58105272829116 120.7198165907248 l -2.476041556899542 15.005533239572031 a36.20844533788364,36.20844533788364 0 0,0 -0.6140797642135865,-0.10676563832696198 l 2.733970292585178 -14.960689022724063" fill="#ff9e0e" stroke="none" /><path d="M 96.22490169976321 120.6578951692458 l -2.728119821177177 14.928674379547862 a36.17590051658446,36.17590051658446 0 0,0 -0.6116007740676206,-0.11721474397216695 l 2.9846882098164924 -14.879502437227227" fill="#ff9d0e" stroke="none" /><path d="M 95.51606077576429 120.51570834832081 l -3.247509831595489 14.858578859233692 a36.209328907692665,36.209328907692665 0 0,0 -0.6077647068556291,-0.13832526856833322 l 3.5027946878439806 -14.800476857087672" fill="#ff9e0e" stroke="none" /><path d="M 94.11515582081647 120.15858648285463 l -4.014599679415011 13.752047185513758 a35.32605362193497,35.32605362193497 0 0,0 -0.5822491053722613,-0.17542687918642066 l 4.250723759227518 -13.680904937221612" fill="#ff910d" stroke="none" /><path d="M 93.08242187328487 119.8279376855182 l -6.3765384966927146 18.277149263187162 a40.357541899441344,40.357541899441344 0 0,0 -0.6539467661641009,-0.23448204403494147 l 6.690204823486542 -18.16467967811226" fill="#ffd614" stroke="none" /><path d="M 92.7421414339146 119.70592522655815 l -5.6665958511779735 15.385462959312765 a37.39581589958159,37.39581589958159 0 0,0 -0.6021256654578393,-0.22767240483103307 l 5.930591737396096 -15.285642304375099" fill="#ffae10" stroke="none" /><path d="M 91.40352486487194 119.15986991738527 l -4.728975607807605 10.539966214504965 a32.55223346812838,32.55223346812838 0 0,0 -0.5092595477871954,-0.2337760807856017 l 4.90970315136222 -10.457003063385288" fill="#ff6a09" stroke="none" /><path d="M 90.42595943632237 118.69057910512821 l -13.25678217607415 25.880080024038488 a50.0778406301863,50.0778406301863 0 0,0 -0.7638279969369982,-0.39959870725686614 l 13.700301075537643 -25.648051897836904" fill="#adff20" stroke="none" /><line stroke="#e1ed5e" stroke-width="0.3" x1="58.666819895761336" x2="56.23545636021788" y1="174.27360380694188" y2="178.64263932499728" /><path d="M 58.180547188652646 175.14741091055294 a86.0,86.0 0 0,1 -31.652253787137756,-30.449443065178592" fill="none" id="id20" stroke="none" /><text fill="#e1ed5e" style="font-size:6.75px; font-family:Arial;" text-anchor="middle"><textPath startOffset="22.20632615414155" xlink:href="#id20">August</textPath></text><path d="M 89.4739219176387 118.17145234162733 l -7.622370583962774 13.158703812847847 a36.20697272153526,36.20697272153526 0 0,0 -0.5366082477971768,-0.31703761128367475 l 7.847746702788333 -13.025547629270422" fill="#ff9e0e" stroke="none" /><path d="M 88.24862548938628 117.40417183066458 l -8.328447789600656 12.334704870652484 a35.88314438652673,35.88314438652673 0 0,0 -0.5089308339814175,-0.35004726829152233 l 8.539535508204963 -12.18951681299586" fill="#ff990e" stroke="none" /><path d="M 87.07902340077011 116.55440617244103 l -9.361327734059282 11.993770009009305 a36.21463032654683,36.21463032654683 0 0,0 -0.4881085603780865,-0.3877829608229373 l 9.566393787154727 -11.830853134181236" fill="#ff9e0e" stroke="none" /><path d="M 86.51685102203217 116.09983520530335 l -9.80965982291069 11.713428875333165 a36.27854187606648,36.27854187606648 0 0,0 -0.47530853950242125,-0.4050682489625179 l 10.009833838990168 -11.542836236147695" fill="#ff9f0e" stroke="none" /><path d="M 86.24171649860922 115.8653595955263 l -9.797193249683712 11.297629818238766 a35.95397723288376,35.95397723288376 0 0,0 -0.46407621297121837,-0.4094933007310378 l 9.990211815561517 -11.12731337573544" fill="#ff9a0e" stroke="none" /><path d="M 85.44109423537348 115.13401014063109 l -9.316563045868444 9.684584946938758 a34.43836048713214,34.43836048713214 0 0,0 -0.4236739081881026,-0.41465409069937165 l 9.48188690643234 -9.522780753316816" fill="#ff850c" stroke="none" /><path d="M 84.67929136418377 114.36230785411682 l -10.864126822685373 10.184511545947982 a35.89139103807766,35.89139103807766 0 0,0 -0.4186535788955726,-0.4543657748051061 l 11.037826809576675 -9.995994516341533" fill="#ff990e" stroke="none" /><line stroke="#e1ed5e" stroke-width="0.3" x1="26.63291911575756" x2="22.317208475507996" y1="142.92168965132927" y2="145.44649492493687" /><path d="M 25.769776987707644 143.4266507060508 a86.0,86.0 0 0,1 -11.730757126820373,-40.83630448921669" fill="none" id="id21" stroke="none" /><text fill="#e1ed5e" style="font-size:6.75px; font-family:Arial;" text-anchor="middle"><textPath startOffset="21.46611528233685" xlink:href="#id21">September</textPath></text><path d="M 81.51974371655577 109.97397251340807 l -15.777182402664168 8.515097475361953 a38.92836773333957,38.92836773333957 0 0,0 -0.31318333749747607,-0.5924248483229075 l 15.92141824838653 -8.242257611952919" fill="#ffc312" stroke="none" /><path d="M 81.18737489456691 109.33194174019688 l -14.168240417989077 7.028109761438474 a36.81560505832028,36.81560505832028 0 0,0 -0.2767249221054541,-0.5701353027517182 l 14.287118596709249 -6.783185502721471" fill="#ffa60f" stroke="none" /><path d="M 81.02952815118164 109.00673069616217 l -9.602346361642367 4.558966609782688 a31.629639325868958,31.629639325868958 0 0,0 -0.22927780788564228,-0.49384400067432754 l 9.679398786367836 -4.393002541829533" fill="#ff5c08" stroke="none" /><path d="M 80.58989483394504 108.01547362559985 l -15.400455919777153 6.359674365034675 a37.66191767373367,37.66191767373367 0 0,0 -0.24228698189404294,-0.6013364192502438 l 15.507645515928584 -6.0936385779416264" fill="#ffb210" stroke="none" /><path d="M 80.45479744820244 107.68017299344265 l -22.133396539226293 8.69718867856343 a44.7808396250672,44.7808396250672 0 0,0 -0.27573422514889756,-0.7198550530879322 l 22.2798250439687 -8.31491005864234" fill="#eeff19" stroke="none" /><path d="M 80.20201598880116 107.00284435728193 l -15.442205396659514 5.462140027227823 a37.37976438138426,37.37976438138426 0 0,0 -0.209343001353929,-0.6084487532213125 l 15.53393922895667 -5.195518570917214" fill="#ffae10" stroke="none" /><path d="M 80.0844068197444 106.66101706037122 l -11.980778795408627 4.0071200104583795 a33.63313386783853,33.63313386783853 0 0,0 -0.17890865122120908,-0.5506242105217468 l 12.047979697646085 -3.8002968999588296" fill="#ff790b" stroke="none" /><path d="M 79.86692584326677 105.97154293290107 l -15.143925102886723 4.4917431993008625 a36.796019260886844,36.796019260886844 0 0,0 -0.1748816026436782,-0.6087858011135255 l 15.218999342416504 -4.230399922682741" fill="#ffa60f" stroke="none" /><path d="M 79.67330655649465 105.27499134158121 l -25.92690393276974 6.728305030991956 a47.785713283934456,47.785713283934456 0 0,0 -0.19976404593665564,-0.7979580630101928 l 26.038879293001454 -6.281019128584371" fill="#c9ff1d" stroke="none" /><path d="M 79.50377843672027 104.57218783832718 l -14.514176448362662 3.2377451051480324 a35.87092167083518,35.87092167083518 0 0,0 -0.12924798905066828,-0.6038035759735947 l 14.56775847613777 -2.9874277097582738" fill="#ff990e" stroke="none" /><path d="M 79.4281124754447 104.21870165774334 l -14.578577939668369 2.9896464701261762 a35.88196629344802,35.88196629344802 0 0,0 -0.11887194285714553,-0.6061254756386202 l 14.627879815501181 -2.738257267419601" fill="#ff990e" stroke="none" /><path d="M 79.29508885075956 103.50808413554451 l -9.715545192151357 1.6461287716273174 a30.854012295177768,30.854012295177768 0 0,0 -0.08421418360355973,-0.5244018016880907 l 9.742441130116207 -1.478647740246013" fill="#ff5107" stroke="none" /><path d="M 79.23777060512086 103.15116336523772 l -15.018049803055916 2.2793471479694567 a36.1900376335289,36.1900376335289 0 0,0 -0.08817607710783341,-0.6167032779218108 l 15.055059931180349 -2.0204983980672457" fill="#ff9d0e" stroke="none" /><path d="M 79.18660465613746 102.79330883721812 l -31.03721380984356 4.1654195380106245 a52.315481171548115,52.315481171548115 0 0,0 -0.1121008426545047,-0.8935540129593176 l 31.10431616174491 -3.630547770763898" fill="#93ff23" stroke="none" /><path d="M 79.10278846688536 102.07522291339032 l -15.455368780354842 1.5348141247010327 a36.53139010308314,36.53139010308314 0 0,0 -0.05675482622251152,-0.6262847780620306 l 15.479498202854428 -1.268547958090436" fill="#ffa20f" stroke="none" /><path d="M 79.07016306316243 101.71520430193888 l -16.638391116437116 1.3635194629742122 a37.694167971763164,37.694167971763164 0 0,0 -0.047429030290408264,-0.6471314357725731 l 16.65939670539186 -1.0769148907048784" fill="#ffb210" stroke="none" /><path d="M 79.0235259727143 100.99374915477108 l -9.919021971959019 0.4699083214828314 a30.930146560388955,30.930146560388955 0 0,0 -0.02061695630691482,-0.5320320328954408 l 9.925641061117135 -0.29909904157339384" fill="#ff5207" stroke="none" /><path d="M 79.0095281055655 100.63252640178507 l -21.511934074594034 0.6482401312401415 a42.52169888501905,42.52169888501905 0 0,0 -0.015749100402603168,-0.7317988108072099 l 21.519905237681645 -0.2778515046428027" fill="#fff316" stroke="none" /><line stroke="#e1ed5e" stroke-width="0.3" x1="15.007084014347285" x2="10.007500721073583" y1="101.09737516637583" y2="101.16192664675087" /><path d="M 14.007167355692545 101.11028546245083 a86.0,86.0 0 0,1 10.666146001902534,-42.60595125391555" fill="none" id="id22" stroke="none" /><text fill="#e1ed5e" style="font-size:6.75px; font-family:Arial;" text-anchor="middle"><textPath startOffset="22.20632615414155" xlink:href="#id22">October</textPath></text><path d="M 79.00019446554 99.90962569577889 l -9.716968992248962 -0.0418177354248191 a30.717058974778524,30.717058974778524 0 0,0 0.00682649026666681,-0.5287191942095527 l 9.71480949486458 0.20907318769484382" fill="#ff4f07" stroke="none" /><path d="M 79.01574976396665 99.18683210126434 l -9.963901395355114 -0.38611457020071005 a30.971379818143568,30.971379818143568 0 0,0 0.025228978891346305,-0.5325438697567586 l 9.955778808230269 0.5575695465804777" fill="#ff5307" stroke="none" /><path d="M 79.12142395522702 97.74499172005258 l -15.311427532219778 -1.6537236921200182 a36.400474509712254,36.400474509712254 0 0,0 0.07264433510494764,-0.6223723000313544 l 15.280692844111242 1.9170397304762343" fill="#ffa00e" stroke="none" /><path d="M 79.21141760316559 97.0276538004421 l -16.224482442128654 -2.3197723541744946 a37.38948364928356,37.38948364928356 0 0,0 0.0965790064438669,-0.6363349830216812 l 16.182147542245485 2.598706449588268" fill="#ffae10" stroke="none" /><path d="M 79.32604984820605 96.31383870115002 l -16.102977998366278 -2.87115785120822 a37.35693882798438,37.35693882798438 0 0,0 0.11832236871842683,-0.6320828249748798 l 16.05116990573799 3.1479187536456723" fill="#ffad10" stroke="none" /><path d="M 79.3925641242962 95.95851677861259 l -16.056516731156297 -3.148967360825436 a37.36238750847339,37.36238750847339 0 0,0 0.1292039470077214,-0.630044331457468 l 15.999933488233582 3.4248873484463065" fill="#ffae10" stroke="none" /><path d="M 79.46518482838121 95.60439243477599 l -14.643889769261602 -3.1346175807336687 a35.97562469320493,35.97562469320493 0 0,0 0.1348325521173013,-0.60442789313525 l 14.587762830142262 3.386223643418878" fill="#ff9a0e" stroke="none" /><path d="M 79.62865764111835 94.90015583598534 l -15.307863101561718 -3.8322323058891707 a36.78026226595919,36.78026226595919 0 0,0 0.15903727278672455,-0.6128354874337792 l 15.239629496904687 4.0951642188718145" fill="#ffa60f" stroke="none" /><path d="M 79.71946130924805 94.55025226153421 l -14.49711745297573 -3.895637796330056 a36.01140927047054,36.01140927047054 0 0,0 0.1660181346633689,-0.5972555617551996 l 14.427912547745999 4.144604661504198" fill="#ff9b0e" stroke="none" /><path d="M 79.81627453868168 94.20196356495316 l -14.763922675455753 -4.24112792063887 a36.3610083915757,36.3610083915757 0 0,0 0.1779855827488438,-0.6000789036563154 l 14.688731195595201 4.494636211041724" fill="#ffa00e" stroke="none" /><path d="M 80.02781315780177 93.51064311812611 l -15.55427244693457 -5.053889478581842 a37.354729903461816,37.354729903461816 0 0,0 0.2039616391026396,-0.6098193401894552 l 15.464973514060157 5.320881921693618" fill="#ffad10" stroke="none" /><path d="M 80.14247586403 93.16781622104843 l -9.467333752995453 -3.2573327698980337 a31.012024029358827,31.012024029358827 0 0,0 0.17801923593292204,-0.5032843523104982 l 9.40986143625272 3.419814748635143" fill="#ff5307" stroke="none" /><path d="M 80.2630227832202 92.82701384747504 l -34.98913338631812 -12.716059126598958 a58.22818307192445,58.22818307192445 0 0,0 0.35046548381802156,-0.939073256156218 l 34.765063313998475 13.316455519784519" fill="#51ff2b" stroke="none" /><path d="M 80.52162464483688 92.15188598940014 l -15.572091692798473 -6.274216856397252 a37.78856267969425,37.78856267969425 0 0,0 0.2482858158828248,-0.6012437970145149 l 15.46178419002945 6.541335223865078" fill="#ffb310" stroke="none" /><path d="M 80.65960295795068 91.81776055985345 l -9.113508286631369 -3.8556037282405313 a30.895540076202053,30.895540076202053 0 0,0 0.2114274349227622,-0.48800367008262974 l 9.045790141865927 4.0119065429097605" fill="#ff5207" stroke="none" /><path d="M 80.803312248108 91.48605970444005 l -17.714790150138345 -7.8567025538968975 a40.37889483649283,40.37889483649283 0 0,0 0.28726253962631015,-0.6329449279739993 l 17.576925293548683 8.160469490712968" fill="#ffd614" stroke="none" /><path d="M 81.10775173730289 90.83032412892265 l -13.549108349425392 -6.576291512728701 a36.06074191814123,36.06074191814123 0 0,0 0.2758474816485968,-0.5560916905620764 l 13.433900854823383 6.808542791789739" fill="#ff9c0e" stroke="none" /><path d="M 81.26839172434947 90.50648371742162 l -30.676297890270483 -15.547300008887982 a55.3911876767724,55.3911876767724 0 0,0 0.43835680371130054,-0.8467658186019569 l 30.40413165339907 16.073038549750276" fill="#70ff27" stroke="none" /><path d="M 81.6062741919709 89.86733742301443 l -14.810988663368496 -8.159018576430114 a37.90961174353101,37.90961174353101 0 0,0 0.3197808591398692,-0.5688544663026934 l 14.668350162936196 8.412756552667592" fill="#ffb510" stroke="none" /><line stroke="#e1ed5e" stroke-width="0.3" x1="26.266209847984243" x2="21.928928074336255" y1="57.711370442889674" y2="55.22380399835377" /><path d="M 25.398753493254645 57.213857153982495 a86.0,86.0 0 0,1 29.58750427330803,-30.492523968695096" fill="none" id="id23" stroke="none" /><text fill="#e1ed5e" style="font-size:6.75px; font-family:Arial;" text-anchor="middle"><textPath startOffset="21.46611528233685" xlink:href="#id23">November</textPath></text><path d="M 81.78341655067845 89.55222093294921 l -14.795582231720399 -8.485728114464525 a38.056284331829545,38.056284331829545 0 0,0 0.33080031097057316,-0.565444961944992 l 14.6473222462795 8.739152488763409" fill="#ffb711" stroke="none" /><path d="M 82.15384107792192 88.93136811851018 l -13.536858636606887 -8.395896603554421 a36.9291437787803,36.9291437787803 0 0,0 0.3396995939202592,-0.5373231785479173 l 13.390331446440666 8.627667429816555" fill="#ffa80f" stroke="none" /><path d="M 82.34701348167596 88.62581576622439 l -15.485120052572448 -9.977383043785027 a39.421105163507164,39.421105163507164 0 0,0 0.3724419001118612,-0.5672545656404088 l 15.311081517102666 10.242455673403102" fill="#ffca12" stroke="none" /><path d="M 82.54541684631803 88.32363383020206 l -30.929141093737144 -20.6902664789012 a58.21154250718777,58.21154250718777 0 0,0 0.564306946197504,-0.8280508117250166 l 30.5684096818709 21.219595313896633" fill="#51ff2b" stroke="none" /><path d="M 82.95767976084542 87.72973835380427 l -15.1413771113824 -10.901605898329125 a39.657607349056825,39.657607349056825 0 0,0 0.40363397089273995,-0.550556282684722 l 14.951480527976027 11.160624624685349" fill="#ffcd13" stroke="none" /><path d="M 83.17141714833178 87.43820079747576 l -18.863857568821427 -14.081042536571136 a44.53977232883757,44.53977232883757 0 0,0 0.46390094405986915,-0.6104392645253541 l 18.61868068453745 14.403666576977516" fill="#f1ff19" stroke="none" /><path d="M 83.6137871275137 86.86637796730984 l -12.022556838941325 -9.636132437551524 a36.40769032981931,36.40769032981931 0 0,0 0.39615295906568826,-0.4856366861613872 l 11.854905387799244 9.841653293320993" fill="#ffa00e" stroke="none" /><path d="M 83.84228863543731 86.58626213691792 l -28.83687493431237 -23.93967019411585 a58.478969636053385,58.478969636053385 0 0,0 0.649643950014285,-0.7689735285669914 l 28.42052037081096 24.432502672311955" fill="#4fff2b" stroke="none" /><path d="M 84.31358615837235 86.03803664274999 l -12.033266188568575 -10.710416242301381 a37.10939201982188,37.10939201982188 0 0,0 0.42880142697533197,-0.47349324561107875 l 11.8471211209772 10.915962275182016" fill="#ffaa0f" stroke="none" /><path d="M 84.5562425177563 85.77008943001954 l -13.925806620013118 -12.831267458419001 a39.935931838900444,39.935931838900444 0 0,0 0.47016511324460436,-0.5015393614948408 l 13.702874184798057 13.069076236791892" fill="#ffd013" stroke="none" /><path d="M 84.80347519578584 85.50635884689758 l -17.523655842522007 -16.713135584890352 a45.215850494378344,45.215850494378344 0 0,0 0.5420212103091453,-0.5586005022330659 l 17.233370368509746 17.01230028267354" fill="#e9ff1a" stroke="none" /><path d="M 85.31137513191541 84.99185889309783 l -13.397752216287353 -13.689188578452166 a40.154468104999886,40.154468104999886 0 0,0 0.49813865643727634,-0.47920899281791446 l 13.16013031623765 13.917780658032394" fill="#ffd313" stroke="none" /><path d="M 85.57189188830299 84.74124197986013 l -13.20110680429476 -13.961116229885484 a40.214109067109234,40.214109067109234 0 0,0 0.5070656686278247,-0.47126227697664375 l 12.958833251872079 14.186283092936774" fill="#ffd413" stroke="none" /><path d="M 85.83668400450813 84.49514656593479 l -22.3498060013759 -24.466760922472098 a54.13813842593675,54.13813842593675 0 0,0 0.6934554470754914,-0.6225911472976059 l 21.925339566704437 24.84785107853898" fill="#7eff26" stroke="none" /><path d="M 86.37877921826538 84.01681056812374 l -10.645890986705197 -12.491926754449427 a37.412898249222785,37.412898249222785 0 0,0 0.49374775096608525,-0.41349954200893674 l 10.429285698780001 12.673327453852176" fill="#ffae10" stroke="none" /><path d="M 86.65592168130627 83.78471172551755 l -15.278986830284222 -18.566525920939917 a45.04502699796639,45.04502699796639 0 0,0 0.6029525714618416,-0.4875457135814389 l 14.957130860257879 18.82677773178549" fill="#ebff1a" stroke="none" /><path d="M 87.22198572758235 83.33499621200491 l -9.531853249639093 -12.431381521832813 a36.66510366751595,36.66510366751595 0 0,0 0.5041518908020283,-0.3797167519872751 l 9.316455205078675 12.593614863325945" fill="#ffa40f" stroke="none" /><path d="M 87.51073957382395 83.11751280151077 l -9.239034110082724 -12.48896009590491 a36.534924382319254,36.534924382319254 0 0,0 0.5088004643937946,-0.3696651756509702 l 9.022688329335146 12.646144506372549" fill="#ffa20f" stroke="none" /><path d="M 87.80319425747018 82.90503203632743 l -18.200014171462144 -25.50902800022776 a52.33609780042542,52.33609780042542 0 0,0 0.7378613730671456,-0.5169190454474722 l 17.758221658811337 25.81853188843918" fill="#93ff23" stroke="none" /><path d="M 88.39885842347998 82.49532879139004 l -6.881935699428264 -10.383979964618531 a33.45745073747692,33.45745073747692 0 0,0 0.4827957526977774,-0.3140237873921933 l 6.702172920946199 10.500902676170258" fill="#ff770a" stroke="none" /><path d="M 88.70189139769569 82.29822771554957 l -6.292249726712855 -9.85863879874982 a32.69551903882565,32.69551903882565 0 0,0 0.4770133731783283,-0.29870573052297955 l 6.121617201162285 9.965488870595728" fill="#ff6c09" stroke="none" /><path d="M 89.00827224532344 82.1063720568725 l -4.115481078086852 -6.6996644078030405 a28.862740468899744,28.862740468899744 0 0,0 0.4255713962898265,-0.25640200451377 l 3.9995476155793757 6.769513021775429" fill="#ff3304" stroke="none" /><line stroke="#e1ed5e" stroke-width="0.3" x1="56.762969772571076" x2="54.21961505331055" y1="26.818313649435495" y2="22.513508569990535" /><path d="M 56.25429882871897 25.957352633546506 a86.0,86.0 0 0,1 42.265352541879196,-11.944610805530505" fill="none" id="id24" stroke="none" /><text fill="#e1ed5e" style="font-size:6.75px; font-family:Arial;" text-anchor="middle"><textPath startOffset="22.20632615414155" xlink:href="#id24">December</textPath></text><path d="M 89.94658935756843 81.56283822128135 l -30.16023192729471 -55.31148533615593 a84.0,84.0 0 0,0 1.2754198138867787,-0.6812850939930022 l 29.20366706687963 55.822449156650684" fill="#4dd2ff" stroke="none" /><path d="M 90.91171255644093 81.06846463323043 l -4.798006499532579 -9.994581520445383 a32.08659217877095,32.08659217877095 0 0,0 0.4999729564779725,-0.23474400697183198 l 4.625255331754998 10.075690510057221" fill="#ff6309" stroke="none" /><path d="M 91.23893434514133 80.91482961587045 l -6.615678686184147 -14.4116435039449 a36.85757462424908,36.85757462424908 0 0,0 0.5788708181439336,-0.2597224624218452 l 6.366625749573439 14.523386296883274" fill="#ffa70f" stroke="none" /><path d="M 91.90106846888425 80.62456947434976 l -7.05885463174571 -16.887208761130417 a39.30314859400201,39.30314859400201 0 0,0 0.6264475147798685,-0.25554367043905846 l 6.767123247377461 17.006213317753055" fill="#ffc812" stroke="none" /><path d="M 92.23578459929587 80.48803036053334 l -7.598190664289278 -19.09473886351042 a41.55095018816765,41.55095018816765 0 0,0 0.666827129698684,-0.2587185665420563 l 7.2683803695909175 19.222700133943025" fill="#ffe615" stroke="none" /><path d="M 92.91201910852362 80.23233633223022 l -5.404334837873546 -15.072144671208779 a37.01175755592436,37.01175755592436 0 0,0 0.6015609007182695,-0.20987278630269002 l 5.144091933091992 15.162938310683678" fill="#ffa90f" stroke="none" /><path d="M 93.59665428221793 80.00007090966166 l -4.918471797273975 -15.362139030716042 a37.13030317196886,37.13030317196886 0 0,0 0.6103773224118513,-0.18964720523792025 l 4.653309102151395 15.444526370836488" fill="#ffaa0f" stroke="none" /><path d="M 93.94186890950719 79.89281104454417 l -4.41281626582256 -14.6463206485988 a36.29665505715154,36.29665505715154 0 0,0 0.5997759223214397,-0.1750910386643339 l 4.1600501257776985 14.720110016181833" fill="#ff9f0e" stroke="none" /><path d="M 94.63758080256005 79.69619591428918 l -4.796771150122514 -18.162082838017053 a39.78484140155677,39.78484140155677 0 0,0 0.6636322051448746,-0.16917462547885645 l 4.48343005629264 18.241960459664774" fill="#ffce13" stroke="none" /><path d="M 94.98787191387505 79.60689891045804 l -1.2113882794912398 -4.928837255923093 a26.075519506322898,26.075519506322898 0 0,0 0.43679762440337117,-0.10337588533103996 l 1.1263669681253345 4.948959053395004" fill="#ff0901" stroke="none" /><path d="M 95.33964822691252 79.52364482259891 l -2.7343795109106592 -12.014141588741374 a33.3213809868867,33.3213809868867 0 0,0 0.5603661017510271,-0.12247432557107768 l 2.5271706850061113 12.059429412408319" fill="#ff750a" stroke="none" /><path d="M 95.692805502759 79.44645832069477 l -2.7520698474365592 -13.132627827668182 a34.417891119889674,34.417891119889674 0 0,0 0.580897939437698,-0.11652266184711703 l 2.525605498531725 13.17805444559251" fill="#ff840c" stroke="none" /><path d="M 96.04723909329186 79.375362276772 l -1.4920630666454207 -7.785257174939625 a28.926946541689066,28.926946541689066 0 0,0 0.48983634865811526,-0.0895144617621262 l 1.3578315968844121 7.809787118052488" fill="#ff3405" stroke="none" /><path d="M 96.40284397218896 79.31037775812273 l -2.1029753924586476 -12.095601669080194 a33.27705523480049,33.27705523480049 0 0,0 0.5651882718074496,-0.09326090756821225 l 1.8944579145123124 12.130008839588033" fill="#ff740a" stroke="none" /></svg>