<?xml version="1.0" encoding="utf-8" ?>
<svg baseProfile="full" height="200mm" version="1.1" viewBox="0,0,200,200" width="200mm" xmlns="http://www.w3.org/2000/svg" xmlns:ev="http://www.w3.org/2001/xml-events" xmlns:xlink="http://www.w3.org/1999/xlink"><defs /><rect fill="#1a1a1a" height="200" width="200" x="0" y="0" /><rect fill="#1a1a1a" height="200" width="180" x="10" y="0" /><text alignment-baseline="middle" fill="#e1ed5e" style="dominant-baseline: central; font-size:9.0px; font-family:Arial;" text-anchor="middle" x="100.0" y="100.0">2023</text><line stroke="#e1ed5e" stroke-width="0.3" x1="100.0" x2="100.0" y1="15.0" y2="10.0" /><path d="M 100.0 14.0 a86.0,86.0 0 0,1 42.46469731375804,11.215312516191453" fill="none" id="id49" stroke="none" /><text fill="#e1ed5e" style="font-size:6.75px; font-family:Arial;" text-anchor="middle"><textPath startOffset="22.20632615414155" xlink:href="#id49">January</textPath></text><path d="M 100.0 79.0 l 0.0 -2.255125898966636 a23.255125898966636,23.255125898966636 0 0,0 0.4002987645476879,0.003445497845292206 l -0.03881828527515957 2.2547917777299027" fill="#ff0000" stroke="none" /><path d="M 102.16513564639614 79.11191278185805 l 0.3844730183695923 -3.709192980169061 a24.729065843611462,24.729065843611462 0 0,0 0.42302399248217154,0.04753167449238614 l -0.4482637143614891 3.702025352206074" fill="#ff1602" stroke="none" /><path d="M 110.05341064243156 81.56283822128135 l 1.7732756618869192 -3.252047630331947 a24.70409508017655,24.70409508017655 0 0,0 0.37159183510008686,0.20679045391925477 l -1.828991586059041 3.2210417788525127" fill="#ff1502" stroke="none" /><line stroke="#e1ed5e" stroke-width="0.3" x1="143.23703022742887" x2="145.7803849466894" y1="26.81831364943548" y2="22.513508569990506" /><path d="M 143.74570117128098 25.957352633546492 a86.0,86.0 0 0,1 28.547481713284135,27.462654790039103" fill="none" id="id50" stroke="none" /><text fill="#e1ed5e" style="font-size:6.75px; font-family:Arial;" text-anchor="middle"><textPath startOffset="19.985693538727396" xlink:href="#id50">February</textPath></text><path d="M 110.99172775467656 82.1063720568725 l 2.758445793594855 -4.490522676098053 a26.270087010738244,26.270087010738244 0 0,0 0.38326912026687526,0.24000308794994063 l -2.835334066233994 4.442375246825168" fill="#ff2c04" stroke="none" /><path d="M 113.06298171725822 83.55741782278167 l 4.622946383044502 -5.8189759007056 a28.431831119818103,28.431831119818103 0 0,0 0.3805757666842479,0.30773246938812515 l -4.722425548293241 5.738537334053345" fill="#ff4b07" stroke="none" /><path d="M 113.6212207817346 84.01681056812373 l 7.229512129606327 -8.483135522073978 a32.145825851770624,32.145825851770624 0 0,0 0.418058304178082,0.3625360417682951 l -7.3744642324311735 8.357434486886012" fill="#ff7f0b" stroke="none" /><path d="M 114.16331599549186 84.49514656593476 l 3.5258757716073084 -3.8598437740776053 a26.227828795694546,26.227828795694546 0 0,0 0.330710585251353,0.30735944684951966 l -3.591794240653508 3.798579741153445" fill="#ff2c04" stroke="none" /><path d="M 114.68862486808459 84.99185889309783 l 5.2475537123835085 -5.361701812715021 a28.502310730223154,28.502310730223154 0 0,0 0.3476796010280929,0.3461865543290649 l -5.339069113578924 5.270579407735837" fill="#ff4c07" stroke="none" /><path d="M 115.19652480421416 85.50635884689758 l 4.312622041310149 -4.113150677605965 a26.959590369134823,26.959590369134823 0 0,0 0.317394844073358,0.3385746899419383 l -4.3827842073539705 4.038306570785972" fill="#ff3605" stroke="none" /><path d="M 115.68641384162765 86.03803664274999 l 17.775763414069953 -15.821625002380909 a44.797091895207544,44.797091895207544 0 0,0 0.5077177313862014,0.5804091348587134 l -18.045473009034 15.513300311319247" fill="#dcff1b" stroke="none" /><path d="M 116.15771136456269 86.58626213691792 l 8.954792226979212 -7.434050085490868 a32.63844510671224,32.63844510671224 0 0,0 0.3551397106269096,0.4353592930365293 l -9.081430429682529 7.278806622846238" fill="#ff860c" stroke="none" /><path d="M 116.60985879189232 87.15038557335679 l 11.618514944121383 -8.988242411490315 a35.68939723591425,35.68939723591425 0 0,0 0.3717204692568317,0.4891405649583562 l -11.771511353602328 8.786917070650926" fill="#ffaf10" stroke="none" /><path d="M 117.04232023915458 87.72973835380427 l 14.281040367724117 -10.282173989974915 a38.597477544940425,38.597477544940425 0 0,0 0.3835622129062893,0.542521548824052 l -14.45591520043429 10.03482594081907" fill="#ffd513" stroke="none" /><path d="M 117.2510076193507 88.02491185347247 l 25.734136837454937 -17.863800411150887 a52.32668453408834,52.32668453408834 0 0,0 0.5072587030386029,0.7443395542727962 l -26.037820006162274 17.418182833607684" fill="#86ff25" stroke="none" /><path d="M 117.65298651832404 88.62581576622439 l 9.921307240961482 -6.392503403401538 a32.80239116162716,32.80239116162716 0 0,0 0.3017388928367589,0.4772784657159006 l -10.029873730044196 6.220777289971431" fill="#ff880c" stroke="none" /><line stroke="#e1ed5e" stroke-width="0.3" x1="172.23445277983987" x2="176.4835382374775" y1="55.19839476539836" y2="52.563006222186495" /><path d="M 173.08426987136738 54.67131705675599 a86.0,86.0 0 0,1 12.851231095245387,41.99856678651699" fill="none" id="id51" stroke="none" /><text fill="#e1ed5e" style="font-size:6.75px; font-family:Arial;" text-anchor="middle"><textPath startOffset="22.20632615414155" xlink:href="#id51">March</textPath></text><path d="M 117.84615892207809 88.93136811851018 l 11.33486509071177 -7.030165407763218 a34.33800555874629,34.33800555874629 0 0,0 0.307217560135631,0.5049848914445348 l -11.454198449133624 6.834012743111602" fill="#ff9d0e" stroke="none" /><path d="M 118.21658344932153 89.55222093294921 l 10.583558528758946 -6.070001082216814 a33.200681303508404,33.200681303508404 0 0,0 0.2800593808000809,0.4981943885778609 l -10.68647555085146 5.886923183704159" fill="#ff8e0d" stroke="none" /><path d="M 118.3937258080291 89.86733742301442 l 12.303746577776352 -6.777839020027632 a35.047109369245774,35.047109369245774 0 0,0 0.2865383249763884,0.5309119985516304 l -12.418593001971205 6.565046038143543" fill="#ffa70f" stroke="none" /><path d="M 118.73160827565052 90.50648371742162 l 9.124635190703112 -4.624529377337699 a31.22962557111828,31.22962557111828 0 0,0 0.23889174510544547,0.4815911807606982 l -9.202886948761964 4.466778608078051" fill="#ff730a" stroke="none" /><path d="M 119.04729006885535 91.15688171328212 l 13.34212783546194 -6.194372754286064 a35.70994999980795,35.70994999980795 0 0,0 0.2540468472060017,0.5597585526327219 l -13.446776999631288 5.96379219281128" fill="#ffaf10" stroke="none" /><path d="M 119.196687751892 91.48605970444005 l 9.393454553278167 -4.166099499523491 a31.275863636913066,31.275863636913066 0 0,0 0.21403010296751857,0.4940109867693728 l -9.463775366088367 4.003789368167515" fill="#ff730a" stroke="none" /><path d="M 119.47837535516314 92.15188598940014 l 15.075640099307925 -6.074189460096712 a37.253328951356735,37.253328951356735 0 0,0 0.234530017892769,0.5968533141251742 l -15.177963667082395 5.813787141075754" fill="#ffc412" stroke="none" /><path d="M 119.7369772167798 92.82701384747503 l 8.522590710765591 -3.0973550042904496 a30.067974440073762,30.067974440073762 0 0,0 0.1726000802400135,0.4879636694152868 l -8.574643871815415 2.9501937084485483" fill="#ff6309" stroke="none" /><path d="M 119.97218684219823 93.5106431181261 l 12.758433665989648 -4.145466391161042 a34.415011040237864,34.415011040237864 0 0,0 0.17821160603250047,0.5649794918359501 l -12.827900755790354 3.925236732898673" fill="#ff9e0e" stroke="none" /><path d="M 120.18372546131832 94.20196356495316 l 14.23391020219121 -4.088874976210621 a35.80956104059551,35.80956104059551 0 0,0 0.1650875832829047,0.5939078733318329 l -14.302184556040476 3.8432557994598366" fill="#ffb110" stroke="none" /><path d="M 120.28053869075195 94.5502522615342 l 14.209890948873568 -3.818454837088848 a35.71399327585024,35.71399327585024 0 0,0 0.15442674252412128,0.595069233578301 l -14.27351402326799 3.5732891779616964" fill="#ffaf10" stroke="none" /><path d="M 120.37134235888165 94.90015583598534 l 20.277277156300393 -5.0762955010954505 a41.90303195442861,41.90303195442861 0 0,0 0.1691429847313484,0.7012068698587635 l -20.36165294129256 4.726503399577281" fill="#ffff18" stroke="none" /><path d="M 120.53481517161879 95.60439243477599 l 11.541673461296849 -2.4705684837105046 a32.80313241982431,32.80313241982431 0 0,0 0.1134374558343444,0.5531613211407141 l -11.58249021304619 2.2715315064063786" fill="#ff880c" stroke="none" /><path d="M 120.67395015179393 96.31383870115 l 9.371142349324758 -1.6708728617640438 a30.518935079697073,30.518935079697073 0 0,0 0.08776103227847953,0.5179705803747787 l -9.39851524312346 1.509316493073427" fill="#ff6909" stroke="none" /><path d="M 120.83666639777658 97.38593545837742 l 31.21342842629149 -3.9158815001400336 a52.45810296324876,52.45810296324876 0 0,0 0.10469050368053058,0.8969243021216222 l -31.27620928297561 3.3780134596935585" fill="#84ff25" stroke="none" /><path d="M 120.91429891909075 98.10471618934814 l 9.200228141655321 -0.8337378899785319 a30.23792816207684,30.23792816207684 0 0,0 0.042513830343540726,0.5187764137746456 l -9.213216455818358 0.6752475589961175" fill="#ff6509" stroke="none" /><path d="M 120.94382443527127 98.46500227214037 l 14.840680574050243 -1.0876910772176585 a35.88048627499959,35.88048627499959 0 0,0 0.03984341592415101,0.6163600092333085 l -14.85720458097881 0.8320720037313148" fill="#ffb210" stroke="none" /><path d="M 120.98425023603335 99.18683210126433 l 17.702636259564056 -0.6860009467744832 a38.71592300269471,38.71592300269471 0 0,0 0.02007384757547903,0.6661532738508936 l -17.71182180159518 0.38117752549859046" fill="#ffd614" stroke="none" /><line stroke="#e1ed5e" stroke-width="0.3" x1="184.98032266829074" x2="189.97916517819016" y1="98.17113171792111" y2="98.06355123074" /><path d="M 185.9800911702706 98.14961562048488 a86.0,86.0 0 0,1 -9.607161424134198,41.387399972396054" fill="none" id="id52" stroke="none" /><text fill="#e1ed5e" style="font-size:6.75px; font-family:Arial;" text-anchor="middle"><textPath startOffset="21.466115282336823" xlink:href="#id52">April</textPath></text><path d="M 120.99513854157772 99.54816195383933 l 6.861908811687429 -0.14767568521948535 a27.863497697815497,27.863497697815497 0 0,0 0.006192321211012097,0.47960210197028913 l -6.863434140016157 0.0295373251887335" fill="#ff4306" stroke="none" /><path d="M 120.99980553446 99.90962569577887 l 30.535097789621954 -0.1314101796101329 a51.53538055530143,51.53538055530143 0 0,0 -0.00381779672458934,0.8871215051384569 l -30.53283569560786 -0.3942208037320087" fill="#8eff24" stroke="none" /><path d="M 120.9904718944345 100.63252640178507 l 8.963386225372874 0.2701024762786883 a29.967454932861166,29.967454932861166 0 0,0 -0.019975259663702196,0.5154726938491339 l -8.957408832857968 -0.4243524171418283" fill="#ff6109" stroke="none" /><path d="M 120.9764740272857 100.99374915477107 l 19.2724998756685 0.913024297451445 a40.294114771747864,40.294114771747864 0 0,0 -0.03878529034732065,0.6925374136357344 l -19.25392823443365 -1.2446334274226027" fill="#ffeb16" stroke="none" /><path d="M 120.92983693683757 101.71520430193887 l 15.342652818568052 1.2573334516164025 a36.39408597220594,36.39408597220594 0 0,0 -0.05654151180809752,0.6239308712741681 l -15.318736710482879 -1.5212457114391413" fill="#ffb811" stroke="none" /><path d="M 120.89721153311464 102.0752229133903 l 10.854043115560707 1.077873903924665 a31.9074315999328,31.9074315999328 0 0,0 -0.05897966951057148,0.5460784893440611 l -10.833881144549084 -1.2645487151535175" fill="#ff7c0b" stroke="none" /><path d="M 120.8583938346157 102.4346265915055 l 26.458344169314657 3.088262154438557 a47.63796800276711,47.63796800276711 0 0,0 -0.1020779363176886,0.8136615878294158 l -26.40126472375012 -3.5432414965553676" fill="#bbff1f" stroke="none" /><path d="M 120.76222939487914 103.15116336523771 l 15.144808310210575 2.298585773859806 a36.3182477885956,36.3182477885956 0 0,0 -0.0991284879959198,0.6172731893761236 l -15.102998067853367 -2.558938192929135" fill="#ffb711" stroke="none" /><path d="M 120.70491114924044 103.5080841355445 l 11.662286082773887 1.9759698796225622 a32.828498367994015,32.828498367994015 0 0,0 -0.09919452448149321,0.5563355719406768 l -11.626545115953205 -2.1764242022964573" fill="#ff890c" stroke="none" /><path d="M 120.64145759157962 103.86396538481128 l 9.035321550325078 1.6913616471221198 a30.192265212618945,30.192265212618945 0 0,0 -0.10002275783135356,0.5100138872809803 l -9.00486885951806 -1.846639261471045" fill="#ff6409" stroke="none" /><path d="M 120.49622156327973 104.57218783832717 l 14.960402322608715 3.337286794286959 a36.328115370182935,36.328115370182935 0 0,0 -0.1414018852937304,0.6091556210142264 l -14.900739871384431 -3.5943110726497505" fill="#ffb711" stroke="none" /><path d="M 120.41448212921028 104.9243191809786 l 27.319544557784525 6.589937301862973 a49.103109943336506,49.103109943336506 0 0,0 -0.2052713088547924,0.8199568407684297 l -27.20206193463467 -7.059221982028799" fill="#aaff21" stroke="none" /><path d="M 120.23288151984713 105.62410040840565 l 9.939964559899307 2.762995408539804 a31.316832802738748,31.316832802738748 0 0,0 -0.14884050014858377,0.5181333070564033 l -9.890931422864623 -2.933686191100789" fill="#ff740a" stroke="none" /><path d="M 120.13307415673323 105.97154293290107 l 12.274394413966215 3.640629972738029 a33.8029271976374,33.8029271976374 0 0,0 -0.17025927183020645,0.5564171514766537 l -12.209908369629876 -3.85137409676674" fill="#ff960d" stroke="none" /><path d="M 119.9155931802556 106.66101706037122 l 6.49774229289287 2.1732504713826226 a27.85154526484453,27.85154526484453 0 0,0 -0.15598081407358858,0.4533532586984667 l -6.45937064787605 -2.2847764331703897" fill="#ff4306" stroke="none" /><path d="M 119.79798401119884 107.00284435728193 l 29.65729566709897 10.490231000141595 a52.457910495168925,52.457910495168925 0 0,0 -0.30844186973869786,0.8486995550089923 l -29.472329536355048 -10.999178352156719" fill="#84ff25" stroke="none" /><path d="M 119.41010516605496 108.01547362559984 l 14.2540645696243 5.886267881496605 a36.421624633214144,36.421624633214144 0 0,0 -0.24428333776048777,0.5774136503343696 l -14.150630250671503 -6.130756057497138" fill="#ffb911" stroke="none" /><path d="M 119.26925614724726 108.34839909993367 l 14.089572504357676 6.104302808317452 a36.35508274582668,36.35508274582668 0 0,0 -0.2537219757968179,0.5720760747764007 l -13.982409443829585 -6.34592721958654" fill="#ffb811" stroke="none" /><path d="M 119.12269723197855 108.67885076344098 l 11.84551003911254 5.376093790492068 a34.00840084448828,34.00840084448828 0 0,0 -0.24652104043889672,0.5309843895640656 l -11.751214381833812 -5.579198247334964" fill="#ff990e" stroke="none" /><path d="M 118.81262510543309 109.33194174019688 l 11.38032005800818 5.645170898316343 a33.703528607985305,33.703528607985305 0 0,0 -0.2622797846673093,0.5175028976382198 l -11.281461603554604 -5.840228007657258" fill="#ff950d" stroke="none" /><path d="M 118.64920377521936 109.65438752849418 l 24.940039648068463 12.911050286147162 a49.083817353391396,49.083817353391396 0 0,0 -0.3948851346953783,0.746973858495168 l -24.71410200514819 -13.338439159728464" fill="#aaff21" stroke="none" /><line stroke="#e1ed5e" stroke-width="0.3" x1="174.80103733775053" x2="179.2010983576182" y1="140.37084112569926" y2="142.7455964860345" /><path d="M 175.68104954172406 140.8457921977663 a86.0,86.0 0 0,1 -30.038265399797805,32.042727171017184" fill="none" id="id53" stroke="none" /><text fill="#e1ed5e" style="font-size:6.75px; font-family:Arial;" text-anchor="middle"><textPath startOffset="22.206326154141568" xlink:href="#id53">May</textPath></text><path d="M 118.48025628344425 109.97397251340804 l 10.980517552028214 5.926291203279374 a33.47768781210951,33.47768781210951 0 0,0 -0.2780618338785513,0.5047629970089692 l -10.876879308698152 -6.1144247186861485" fill="#ff910d" stroke="none" /><path d="M 117.94076556474637 110.91462005526583 l 8.865044723847092 5.393225533466684 a31.376699841984742,31.376699841984742 0 0,0 -0.2846843243058445,0.459001776243255 l -8.770895759873284 -5.545023641075213" fill="#ff750a" stroke="none" /><path d="M 117.75023020441432 111.22182372390056 l 12.614417169059385 7.974925633117991 a35.923905633875556,35.923905633875556 0 0,0 -0.3349393338864103,0.5198332842188003 l -12.475272971795924 -8.190880517258243" fill="#ffb210" stroke="none" /><path d="M 117.55443506779139 111.5257021239791 l 8.702046338808028 5.71349596742011 a31.41007428659796,31.41007428659796 0 0,0 -0.3006346376392739,0.44940799262743153 l -8.602408595758034 -5.862440874253349" fill="#ff750a" stroke="none" /><path d="M 117.35343817320211 111.8261652097733 l 22.18461477571479 15.118555575800896 a47.84637508948728,47.84637508948728 0 0,0 -0.4696670645965273,0.6765904359762177 l -21.921086803956126 -15.498187273964133" fill="#b8ff1f" stroke="none" /><path d="M 116.93607887273984 112.41649034213515 l 9.57742772286274 7.021580362077314 a32.87559314593463,32.87559314593463 0 0,0 -0.3385226961202104,0.4535064720413859 l -9.455143760047438 -7.185399713628016" fill="#ff890c" stroke="none" /><path d="M 116.71984013943494 112.70617746262583 l 11.896014266966924 9.040329758746056 a35.941309098828995,35.941309098828995 0 0,0 -0.3785701215675801,0.48935291389203756 l -11.738637328181277 -9.243760666751346" fill="#ffb210" stroke="none" /><path d="M 116.27256486870786 113.27417163493432 l 11.736195869500413 9.573676895431317 a36.14574470884129,36.14574470884129 0 0,0 -0.3974379542903925,0.47873961876208093 l -11.569661915316477 -9.774277771307169" fill="#ffb510" stroke="none" /><path d="M 115.80600337817218 113.82643327865902 l 12.35102844613726 10.804165142035075 a37.409688848167036,37.409688848167036 0 0,0 -0.42814703105077123,0.4810277281410549 l -12.16322256543815 -11.015167039916996" fill="#ffc612" stroke="none" /><path d="M 115.32070863581623 114.36230785411682 l 14.07304342486337 13.192691468574091 a40.28983305845537,40.28983305845537 0 0,0 -0.4786690187676111,0.5018825524843222 l -13.843867854716793 -13.43298113764092" fill="#ffeb16" stroke="none" /><path d="M 115.07121518719521 114.62390073753431 l 10.78655808843312 10.466412484038722 a36.029824539268034,36.029824539268034 0 0,0 -0.4357196056833922,0.441381660139782 l -10.604797857694193 -10.650534638159169" fill="#ffb410" stroke="none" /><path d="M 114.55890576462653 115.13401014063108 l 8.426329154463302 8.759185129268825 a33.15427279388456,33.15427279388456 0 0,0 -0.41468759046596354,0.3921130002799025 l -8.27430572960653 -8.90293276629465" fill="#ff8d0d" stroke="none" /><path d="M 114.29624159901734 115.38237550388516 l 10.212133271898821 10.987983631646548 a36.00078165471238,36.00078165471238 0 0,0 -0.45755356396132346,0.41796433218837725 l -10.021480158470633 -11.162140730421509" fill="#ffb310" stroke="none" /><path d="M 114.0293411484842 115.62618273729858 l 14.057169114030128 15.657178125480067 a42.0416546486595,42.0416546486595 0 0,0 -0.5426529518561649,0.47882813683622993 l -13.785573809267374 -15.896829404088587" fill="#feff18" stroke="none" /><path d="M 112.92097659922987 116.55440617244103 l 9.81771314759283 12.578492800571528 a36.95637717598976,36.95637717598976 0 0,0 -0.5048439481309623,0.38709281177650545 l -9.599740470968374 -12.745624954175405" fill="#ffc011" stroke="none" /><path d="M 112.63410532772338 116.77436683061366 l 9.019125671386657 11.974739689027631 a35.9912980924348,35.9912980924348 0 0,0 -0.4980767695146291,0.36846528675308626 l -8.811663931453463 -12.128214924520487" fill="#ffb310" stroke="none" /><path d="M 112.34349029814194 116.9893568818739 l 8.86769211162924 12.205331098751328 a36.08661892594884,36.08661892594884 0 0,0 -0.50568122763038,0.3607901292449503 l -8.656283556149976 -12.356165489840498" fill="#ffb410" stroke="none" /><path d="M 112.04921762599082 117.19931262002967 l 15.6032832723476 22.272462431179463 a48.194209523820014,48.194209523820014 0 0,0 -0.6835387384624791,0.4701441771534776 l -15.217587649262239 -22.537747397698034" fill="#b4ff20" stroke="none" /><path d="M 111.45004920935366 117.60387380957326 l 8.260005855887739 12.699342866980736 a36.14929061020463,36.14929061020463 0 0,0 -0.5245403186677796,0.33478644913998906 l -8.040183735173029 -12.839643744944533" fill="#ffb510" stroke="none" /><line stroke="#e1ed5e" stroke-width="0.3" x1="143.8653032363475" x2="146.44561519142675" y1="172.8068346515853" y2="177.08958963109032" /><path d="M 144.38136562736335 173.6633856474863 a86.0,86.0 0 0,1 -40.68145358897372,12.25698825130547" fill="none" id="id54" stroke="none" /><text fill="#e1ed5e" style="font-size:6.75px; font-family:Arial;" text-anchor="middle"><textPath startOffset="21.466115282336833" xlink:href="#id54">June</textPath></text><path d="M 110.21172684928248 118.3499491758327 l 6.707485989073508 12.053008155594851 a34.79367151604146,34.79367151604146 0 0,0 -0.525843696691768,0.2867319102595606 l -6.499019480513091 -12.166680717614183" fill="#ffa30f" stroke="none" /><path d="M 109.2508944713604 118.85261126421891 l 6.766186784645371 13.788968146477623 a36.35958743421464,36.35958743421464 0 0,0 -0.564244235311832,0.27087152201539116 l -6.527829881333306 -13.903393944992574" fill="#ffb811" stroke="none" /><path d="M 108.92500713936063 119.00905698771935 l 5.720119365086867 12.18307988886189 a34.459093622128975,34.459093622128975 0 0,0 -0.539091194843627,0.24747032679931827 l -5.50956017447582 -12.279737285995283" fill="#ff9f0e" stroke="none" /><path d="M 107.59598834532513 119.57807347666477 l 8.66777159041798 22.340512038909292 a44.963070389754066,44.963070389754066 0 0,0 -0.723969193563227,0.273743201424228 l -8.281932176094477 -22.48640349044015" fill="#daff1c" stroke="none" /><path d="M 106.91757812671514 119.82793768551818 l 4.9575017016368985 14.209746968565696 a36.0497087025761,36.0497087025761 0 0,0 -0.587662209889907,0.19936692818618706 l -4.712169758809765 -14.292976883650006" fill="#ffb410" stroke="none" /><path d="M 104.48393922423573 120.51570834832081 l 3.093158339309186 14.152362730844075 a35.486441915716306,35.486441915716306 0 0,0 -0.5978764834890881,0.12529083015930223 l -2.84909039439072 -14.203509541729918" fill="#ffac10" stroke="none" /><path d="M 103.41894727170886 120.7198165907248 l 2.04215145543734 12.376032809068295 a33.54338752722245,33.54338752722245 0 0,0 -0.5704997637050117,0.08910033017049755 l -1.8288158281238114 -12.4093514465859" fill="#ff920d" stroke="none" /><path d="M 103.06178313531738 120.77559828337769 l 3.046056749894349 20.66888756888271 a41.89213668006916,41.89213668006916 0 0,0 -0.7143036380583914,0.09899597548531969 l -2.689824520649127 -20.71825810986063" fill="#ffff18" stroke="none" /><path d="M 102.34483914955558 120.86867818915974 l 1.7340460508864115 15.432721262774173 a36.5298358420518,36.5298358420518 0 0,0 -0.6254732485785788,0.06483285962098777 l -1.46814020570223 -15.460283490850918" fill="#ffba11" stroke="none" /><path d="M 101.98527174616119 120.90594882070398 l 1.449960925970066 15.268846176330742 a36.33753729394944,36.33753729394944 0 0,0 -0.6231985969378349,0.05377219722673488 l -1.1869180112906894 -15.29154262583614" fill="#ffb811" stroke="none" /><line stroke="#e1ed5e" stroke-width="0.3" x1="102.19456741930631" x2="102.32365962044197" y1="184.97166512339345" y2="189.96999836594603" /><path d="M 102.22038585953345 185.97133177190398 a86.0,86.0 0 0,1 -42.740103519485714,-10.115201625700543" fill="none" id="id55" stroke="none" /><text fill="#e1ed5e" style="font-size:6.75px; font-family:Arial;" text-anchor="middle"><textPath startOffset="22.20632615414155" xlink:href="#id55">July</textPath></text><path d="M 99.81925306533755 120.99922214144158 l -0.133570496382868 15.5182522476781 a36.51882707874762,36.51882707874762 0 0,0 -0.628541723052313,-0.01082091577314031 l 0.400671909327849 -15.513653854625801" fill="#ffba11" stroke="none" /><path d="M 99.09653310690486 120.98055641714683 l -0.6439126807169108 14.953117185307645 a35.96697488131556,35.96697488131556 0 0,0 -0.6183098607251074,-0.03195955721258947 l 0.901210609855507 -14.939817821332854" fill="#ffb310" stroke="none" /><path d="M 98.73552117531835 120.96189622390904 l -0.9338107485358649 15.480246581834042 a36.508386013652924,36.508386013652924 0 0,0 -0.6269658828752817,-0.04323923805704995 l 1.2001393921900765 -15.461878999260707" fill="#ffba11" stroke="none" /><path d="M 98.01472825383883 120.90594882070398 l -1.399732297230072 14.739912470502953 a35.80622403389863,35.80622403389863 0 0,0 -0.6130833810108252,-0.0635485991884724 l 1.6532482748464905 -14.713634502858719" fill="#ffb110" stroke="none" /><path d="M 96.58105272829116 120.7198165907248 l -2.470276873102759 14.970597576199498 a36.17303725752681,36.17303725752681 0 0,0 -0.6134792582975253,-0.10666123267612687 l 2.7276051028723347 -14.925857765002366" fill="#ffb510" stroke="none" /><path d="M 96.22490169976321 120.6578951692458 l -2.7214416669404935 14.892130533752693 a36.13875148685945,36.13875148685945 0 0,0 -0.6109727212752577,-0.11709437615973238 l 2.9773820027874462 -14.843078959244492" fill="#ffb510" stroke="none" /><path d="M 95.51606077576429 120.51570834832081 l -3.2331067449831203 14.792679321020097 a36.14187375191693,36.14187375191693 0 0,0 -0.606632488606557,-0.1380675793810306 l 3.4872593829825402 -14.73483500806138" fill="#ffb510" stroke="none" /><path d="M 94.11515582081647 120.15858648285463 l -3.9644155167446855 13.58014088647565 a35.14697200414045,35.14697200414045 0 0,0 -0.579297456346718,-0.17453757154777064 l 4.197587947531649 -13.509887945822154" fill="#ffa80f" stroke="none" /><path d="M 93.08242187328487 119.8279376855182 l -6.348264254054821 18.19610646022057 a40.27170852184598,40.27170852184598 0 0,0 -0.6525559366669206,-0.23398334206059593 l 6.660539751351468 -18.084135577120016" fill="#ffea16" stroke="none" /><path d="M 92.7421414339146 119.70592522655815 l -5.611108058881551 15.23480718722463 a37.23526666489826,37.23526666489826 0 0,0 -0.599540595111145,-0.22669495242159002 l 5.872518874752979 -15.135963984696406" fill="#ffc312" stroke="none" /><path d="M 91.40352486487194 119.15986991738527 l -4.693082230173196 10.459966861798103 a32.464550910047976,32.464550910047976 0 0,0 -0.5078878084280337,-0.2331463825253775 l 4.872438034368649 -10.377633408938651" fill="#ff840c" stroke="none" /><path d="M 90.42595943632237 118.69057910512821 l -11.75307970969123 22.944530533561867 a46.77957261220419,46.77957261220419 0 0,0 -0.7135201277910185,-0.37328000781642234 l 12.146290740008743 -22.738821106800728" fill="#c5ff1e" stroke="none" /><line stroke="#e1ed5e" stroke-width="0.3" x1="58.666819895761336" x2="56.23545636021788" y1="174.27360380694188" y2="178.64263932499728" /><path d="M 58.180547188652646 175.14741091055294 a86.0,86.0 0 0,1 -31.652253787137756,-30.449443065178592" fill="none" id="id56" stroke="none" /><text fill="#e1ed5e" style="font-size:6.75px; font-family:Arial;" text-anchor="middle"><textPath startOffset="22.20632615414155" xlink:href="#id56">August</textPath></text><path d="M 89.4739219176387 118.17145234162733 l -7.592438209933362 13.107030748683648 a36.14725628681956,36.14725628681956 0 0,0 -0.5357232157442644,-0.3165147187468628 l 7.816929296706008 -12.974397457643036" fill="#ffb510" stroke="none" /><path d="M 88.24862548938628 117.40417183066458 l -8.203895159833092 12.15023833284638 a35.66056572368551,35.66056572368551 0 0,0 -0.5057739995834604,-0.3478759688070545 l 8.411826044039442 -12.007221574674224" fill="#ffaf10" stroke="none" /><path d="M 87.07902340077011 116.55440617244103 l -9.289043916405435 11.901159696781994 a36.09715002936703,36.09715002936703 0 0,0 -0.4865251357176064,-0.3865249925082546 l 9.492526544840398 -11.739500790268607" fill="#ffb410" stroke="none" /><path d="M 86.51685102203217 116.09983520530335 l -9.713642672570746 11.59877759469524 a36.12899519669405,36.12899519669405 0 0,0 -0.4733492321520109,-0.40339848473223305 l 9.911857381299813 -11.429854719740055" fill="#ffb510" stroke="none" /><path d="M 86.24171649860922 115.8653595955263 l -9.682584316195538 11.16546856843854 a35.77904352091247,35.77904352091247 0 0,0 -0.4618182548586348,-0.4075009152249709 l 9.87334492396076 -10.99714451144128" fill="#ffb010" stroke="none" /><path d="M 85.44109423537348 115.13401014063109 l -9.190890215520499 9.553947801562854 a34.25708797393825,34.25708797393825 0 0,0 -0.4214438242635025,-0.41247148420870294 l 9.353983992159796 -9.394326214431581" fill="#ff9c0e" stroke="none" /><path d="M 84.67929136418377 114.36230785411682 l -10.700401038914091 10.03102777662138 a35.66697312498197,35.66697312498197 0 0,0 -0.4160358658516254,-0.4515247643005066 l 10.871483312761447 -9.845351757519529" fill="#ffaf10" stroke="none" /><line stroke="#e1ed5e" stroke-width="0.3" x1="26.63291911575756" x2="22.317208475507996" y1="142.92168965132927" y2="145.44649492493687" /><path d="M 25.769776987707644 143.4266507060508 a86.0,86.0 0 0,1 -11.730757126820373,-40.83630448921669" fill="none" id="id57" stroke="none" /><text fill="#e1ed5e" style="font-size:6.75px; font-family:Arial;" text-anchor="middle"><textPath startOffset="21.46611528233685" xlink:href="#id57">September</textPath></text><path d="M 81.51974371655577 109.97397251340807 l -15.591947691492184 8.415124515603079 a38.71787666249352,38.71787666249352 0 0,0 -0.31148991185649993,-0.589221525194296 l 15.73449011157357 -8.145487975322656" fill="#ffd714" stroke="none" /><path d="M 81.18737489456691 109.33194174019688 l -14.078048714226616 6.983370458962431 a36.71492661666757,36.71492661666757 0 0,0 -0.275968171431931,-0.568576172222115 l 14.196170142273266 -6.7400053307750305" fill="#ffbd11" stroke="none" /><path d="M 81.02952815118164 109.00673069616217 l -9.497295823669775 4.509091102597292 a31.513350109922975,31.513350109922975 0 0,0 -0.22843484738779593,-0.4920283387552529 l 9.573505287897397 -4.344942696563212" fill="#ff770a" stroke="none" /><path d="M 80.58989483394504 108.01547362559985 l -15.282912311307387 6.3111343037889 a37.53474598884337,37.53474598884337 0 0,0 -0.24146885988598757,-0.599305907519948 l 15.389283785450761 -6.047129028426147" fill="#ffc712" stroke="none" /><path d="M 80.45479744820244 107.68017299344265 l -22.016587087542202 8.651289087918334 a44.65533575889518,44.65533575889518 0 0,0 -0.2749614457284607,-0.717837569874075 l 22.16224281286417 -8.271027951211101" fill="#deff1b" stroke="none" /><path d="M 80.20201598880116 107.00284435728193 l -15.353631978662413 5.43081027870013 a37.285813311573975,37.285813311573975 0 0,0 -0.20881683434191078,-0.6069194655910688 l 15.444839643947551 -5.165718110019764" fill="#ffc412" stroke="none" /><path d="M 80.0844068197444 106.66101706037122 l -11.890568738957542 3.9769481386191092 a33.53801186126175,33.53801186126175 0 0,0 -0.178402657638661,-0.5490669224028223 l 11.957263647612454 -3.7716823162384836" fill="#ff920d" stroke="none" /><path d="M 79.86692584326677 105.97154293290107 l -15.040129815460144 4.460957139989929 a36.687754570706424,36.687754570706424 0 0,0 -0.1743670496319996,-0.6069945745768589 l 15.114689501978248 -4.201405089908474" fill="#ffbc11" stroke="none" /><path d="M 79.67330655649465 105.27499134158121 l -25.828154574295684 6.70267853092272 a47.683692926628495,47.683692926628495 0 0,0 -0.19933755864698713,-0.7962544582901009 l 25.939703447237733 -6.257096233235227" fill="#baff1f" stroke="none" /><path d="M 79.50377843672027 104.57218783832718 l -14.459064166052826 3.2254509510210623 a35.814454778879835,35.814454778879835 0 0,0 -0.12904453087638046,-0.6028530871180359 l 14.512442735653647 -2.976084044486863" fill="#ffb110" stroke="none" /><path d="M 79.4281124754447 104.21870165774334 l -14.36679653846408 2.946216204076291 a35.6657776029362,35.6657776029362 0 0,0 -0.11815573991958314,-0.6024735722899428 l 14.41538221135933 -2.6984789047183937" fill="#ffaf10" stroke="none" /><path d="M 79.29508885075956 103.50808413554451 l -9.613209829169499 1.6287898388111282 a30.75021843645851,30.75021843645851 0 0,0 -0.08393088446594736,-0.5226376976877483 l 9.639822467996737 -1.4630729114301662" fill="#ff6c0a" stroke="none" /><path d="M 79.23777060512086 103.15116336523772 l -14.972812430400996 2.272481298029231 a36.14428219909624,36.14428219909624 0 0,0 -0.08806459519240983,-0.6159235736649902 l 15.009711076610005 -2.01441225238384" fill="#ffb510" stroke="none" /><path d="M 79.18660465613746 102.79330883721812 l -30.944100979354364 4.1529231198161485 a52.22153352831317,52.22153352831317 0 0,0 -0.11189953302805765,-0.8919493771662264 l 31.01100202162927 -3.6196559883625135" fill="#87ff25" stroke="none" /><path d="M 79.10278846688536 102.07522291339032 l -15.386438756476378 1.5279689451541612 a36.46212102863491,36.46212102863491 0 0,0 -0.05664721043587405,-0.6250972468239651 l 15.410460563189329 -1.26289030978163" fill="#ffb911" stroke="none" /><path d="M 79.07016306316243 101.71520430193888 l -16.442391313757845 1.3474572401413643 a37.49751111921883,37.49751111921883 0 0,0 -0.047181585013910086,-0.6437552415709432 l 16.463149457436092 -1.0642288620736604" fill="#ffc712" stroke="none" /><path d="M 79.0235259727143 100.99374915477108 l -9.830413867606984 0.46571056028182295 a30.84143907842739,30.84143907842739 0 0,0 -0.020557826995124224,-0.5305061680933163 l 9.83697382745331 -0.2964271451745098" fill="#ff6d0a" stroke="none" /><path d="M 79.0095281055655 100.63252640178507 l -18.00964303250253 0.5427021727797787 a39.01781806453009,39.01781806453009 0 0,0 -0.014451340146366608,-0.6714969911509076 l 18.016316435333906 -0.23261536583874223" fill="#ffda14" stroke="none" /><line stroke="#e1ed5e" stroke-width="0.3" x1="15.007084014347285" x2="10.007500721073583" y1="101.09737516637583" y2="101.16192664675087" /><path d="M 14.007167355692545 101.11028546245083 a86.0,86.0 0 0,1 10.666146001902534,-42.60595125391555" fill="none" id="id58" stroke="none" /><text fill="#e1ed5e" style="font-size:6.75px; font-family:Arial;" text-anchor="middle"><textPath startOffset="22.20632615414155" xlink:href="#id58">October</textPath></text><path d="M 79.00019446554 99.90962569577889 l -9.584451277721202 -0.041247435084286584 a30.584540033090406,30.584540033090406 0 0,0 0.00679703955439889,-0.5264382040885788 l 9.582321231049088 0.2062218972333373" fill="#ff6a09" stroke="none" /><path d="M 79.00486145842228 99.54816195383935 l -7.384908218007389 -0.15893119703364558 a28.386618205497264,28.386618205497264 0 0,0 0.014718198685352507,-0.4884253605378712 l 7.381078324866392 0.2860267049965112" fill="#ff4b07" stroke="none" /><path d="M 79.01574976396665 99.18683210126434 l -9.85005473066913 -0.3817028589382417 a30.85744770565378,30.85744770565378 0 0,0 0.02513617092224938,-0.5305848402129948 l 9.842024951513384 0.5511988057742456" fill="#ff6e0a" stroke="none" /><path d="M 79.05617556472873 98.46500227214037 l -15.426484330122817 -1.130625329141041 a36.46786127499274,36.46786127499274 0 0,0 0.05127297276872067,-0.6256601374560613 l 15.404736873534599 1.395999383804881" fill="#ffb911" stroke="none" /><path d="M 79.12142395522702 97.74499172005258 l -15.151969239314916 -1.6365012642094343 a36.240088852001634,36.240088852001634 0 0,0 0.07232425385266482,-0.6196300393321218 l 15.121554632458661 1.897075041866418" fill="#ffb610" stroke="none" /><path d="M 79.21141760316559 97.0276538004421 l -16.031384077206162 -2.2921631992950546 a37.194421495166225,37.194421495166225 0 0,0 0.09607515062130023,-0.6330152026873838 l 15.98955303314556 2.56777751437453" fill="#ffc312" stroke="none" /><path d="M 79.32604984820605 96.31383870115002 l -15.922261499508974 -2.8389361345425415 a37.17337224065399,37.17337224065399 0 0,0 0.11774094973411169,-0.6289768615118384 l 15.871034825865 3.1125910735169526" fill="#ffc312" stroke="none" /><path d="M 79.3925641242962 95.95851677861259 l -15.93723125087262 -3.1255733650838304 a37.24082968337247,37.24082968337247 0 0,0 0.12878358439601326,-0.6279944940740362 l 15.88106837056161 3.399443515321269" fill="#ffc312" stroke="none" /><path d="M 79.46518482838121 95.60439243477599 l -14.601545425004108 -3.1255535049965792 a35.9323211025967,35.9323211025967 0 0,0 0.13467025518188067,-0.6037003477969903 l 14.54558078282019 3.3764320223435287" fill="#ffb210" stroke="none" /><path d="M 79.62865764111835 94.90015583598534 l -15.24517534705928 -3.8165388001141305 a36.71563997345831,36.71563997345831 0 0,0 0.15875784701519932,-0.6117587459511468 l 15.177221168173775 4.07839397161414" fill="#ffbd11" stroke="none" /><path d="M 79.71946130924805 94.55025226153421 l -14.331900697955001 -3.8512410645291673 a35.84033137612361,35.84033137612361 0 0,0 0.165229439261634,-0.5944182047630128 l 14.263484488127007 4.097370572711123" fill="#ffb110" stroke="none" /><path d="M 79.81627453868168 94.20196356495316 l -14.625298333357048 -4.201306283755577 a36.21677777420767,36.21677777420767 0 0,0 0.1772795800383023,-0.5976986134891172 l 14.550812856207038 4.452434283991233" fill="#ffb610" stroke="none" /><path d="M 80.02781315780177 93.51064311812611 l -15.470596425995947 -5.026701491276485 a37.266747728370284,37.266747728370284 0 0,0 0.20348124508855192,-0.6083830232330373 l 15.381777887135621 5.292257617431845" fill="#ffc412" stroke="none" /><path d="M 80.14247586403 93.16781622104843 l -9.369972867506045 -3.223834763903411 a30.90906161665935,30.90906161665935 0 0,0 0.17742819775943106,-0.5016134078039827 l 9.313091588936805 3.384645798134005" fill="#ff6e0a" stroke="none" /><path d="M 80.2630227832202 92.82701384747504 l -34.93494662504794 -12.696366096406337 a58.17052875261428,58.17052875261428 0 0,0 0.3501184723221232,-0.9381434378704715 l 34.7112235642242 13.29583267130615" fill="#48ff2c" stroke="none" /><path d="M 80.52162464483688 92.15188598940014 l -15.406744499870419 -6.20759612454612 a37.61029878508413,37.61029878508413 0 0,0 0.2471145515272343,-0.5984074874735972 l 15.297608261456986 6.471878182473028" fill="#ffc812" stroke="none" /><path d="M 80.65960295795068 91.81776055985345 l -9.059992133064554 -3.832962932322676 a30.837431691846774,30.837431691846774 0 0,0 0.21102978184333906,-0.48708583194942323 l 8.992671641378536 3.988347908858699" fill="#ff6d0a" stroke="none" /><path d="M 80.803312248108 91.48605970444005 l -17.650823964489092 -7.82833285321774 a40.30891974933219,40.30891974933219 0 0,0 0.2867647245838298,-0.6318480585157783 l 17.513456922941913 8.13100292057559" fill="#ffeb16" stroke="none" /><path d="M 81.10775173730289 90.83032412892265 l -13.498232924754967 -6.551598255073795 a36.00419047422503,36.00419047422503 0 0,0 0.2754148900667794,-0.5552196123302287 l 13.383458021734775 6.782977455902985" fill="#ffb310" stroke="none" /><path d="M 81.26839172434947 90.50648371742162 l -30.613247912498228 -15.515345145120348 a55.32050236701507,55.32050236701507 0 0,0 0.4377974117257851,-0.8456852513368339 l 30.34164106761233 16.040003118717518" fill="#65ff29" stroke="none" /><path d="M 81.6062741919709 89.86733742301443 l -14.63657116233084 -8.06293615658866 a37.710480389719486,37.710480389719486 0 0,0 0.3181011163919261,-0.5658663913848353 l 14.495612404646483 8.313686057908281" fill="#ffca12" stroke="none" /><line stroke="#e1ed5e" stroke-width="0.3" x1="26.266209847984243" x2="21.928928074336255" y1="57.711370442889674" y2="55.22380399835377" /><path d="M 25.398753493254645 57.213857153982495 a86.0,86.0 0 0,1 29.58750427330803,-30.492523968695096" fill="none" id="id59" stroke="none" /><text fill="#e1ed5e" style="font-size:6.75px; font-family:Arial;" text-anchor="middle"><textPath startOffset="21.46611528233685" xlink:href="#id59">November</textPath></text><path d="M 81.78341655067845 89.55222093294921 l -14.704927394257957 -8.433734736243963 a37.951777820385864,37.951777820385864 0 0,0 0.3298918989411017,-0.5638921913205396 l 14.55757582084653 8.685606339918394" fill="#ffcd13" stroke="none" /><path d="M 82.15384107792192 88.93136811851018 l -13.514447492970156 -8.381996654549075 a36.902772052605144,36.902772052605144 0 0,0 0.33945700869471646,-0.5369394669780766 l 13.368162888029476 8.613383769241368" fill="#ffbf11" stroke="none" /><path d="M 82.34701348167596 88.62581576622439 l -15.428713001860311 -9.941038814653156 a39.35400331285287,39.35400331285287 0 0,0 0.3718079366383601,-0.5662889957765327 l 15.25530842986403 10.205145874407357" fill="#ffdf14" stroke="none" /><path d="M 82.54541684631803 88.32363383020206 l -30.874944534571046 -20.6540113094483 a58.146337412774045,58.146337412774045 0 0,0 0.5636748432481519,-0.8271232786442496 l 30.514845225654152 21.182412611362963" fill="#48ff2c" stroke="none" /><path d="M 82.95767976084542 87.72973835380427 l -15.061185066844814 -10.843868609356061 a39.5587925801957,39.5587925801957 0 0,0 0.402628237057433,-0.5491844628636298 l 14.872294217273748 11.101515515891192" fill="#ffe115" stroke="none" /><path d="M 83.17141714833178 87.43820079747576 l -18.77598502629657 -14.015449536593536 a44.43011821183395,44.43011821183395 0 0,0 0.4627588491245276,-0.6089364014653081 l 18.531950236947935 14.33657071393987" fill="#e0ff1b" stroke="none" /><path d="M 83.6137871275137 86.86637796730984 l -11.99043420130136 -9.610386001523908 a36.36652307563504,36.36652307563504 0 0,0 0.39570501717720347,-0.4850875623713499 l 11.823230692047764 9.81535773350334" fill="#ffb811" stroke="none" /><path d="M 83.84228863543731 86.58626213691792 l -28.67342969010714 -23.803981939061064 a58.26654164728279,58.26654164728279 0 0,0 0.6472840835772157,-0.7661801910456921 l 28.2594349930428 24.294021079735874" fill="#47ff2c" stroke="none" /><path d="M 84.31358615837235 86.03803664274999 l -11.990727362825503 -10.672553826309963 a37.052443672696555,37.052443672696555 0 0,0 0.42814338513788597,-0.4727666193786103 l 11.80524033707157 10.87737323295813" fill="#ffc111" stroke="none" /><path d="M 84.5562425177563 85.77008943001954 l -13.860522659941447 -12.771114680538219 a39.84716049144298,39.84716049144298 0 0,0 0.4691200095320234,-0.5004245177220085 l 13.638635328438967 13.007808615138277" fill="#ffe515" stroke="none" /><path d="M 84.80347519578584 85.50635884689758 l -17.421937962118253 -16.61612245350538 a45.075287075044045,45.075287075044045 0 0,0 0.5403362181252155,-0.5568639696725317 l 17.13333748028992 16.913550618728035" fill="#d9ff1c" stroke="none" /><path d="M 85.31137513191541 84.99185889309783 l -13.333873254622112 -13.623920081295744 a40.063141775475,40.063141775475 0 0,0 0.4970057021924856,-0.47811909173206424 l 13.0973843088172 13.851422259790121" fill="#ffe815" stroke="none" /><path d="M 85.57189188830299 84.74124197986013 l -13.162559321650727 -13.92034950528117 a40.158003503631484,40.158003503631484 0 0,0 0.5063582252523887,-0.4706047854591403 l 12.920993212603483 14.144858876814958" fill="#ffe915" stroke="none" /><path d="M 85.83668400450813 84.49514656593479 l -22.256870874914473 -24.365023058604667 a54.000343176836104,54.000343176836104 0 0,0 0.69169042764837,-0.621006495428811 l 21.83416945967013 24.744528562802756" fill="#73ff27" stroke="none" /><path d="M 86.37877921826538 84.01681056812374 l -10.606657469945109 -12.445890004843543 a37.35241146428889,37.35241146428889 0 0,0 0.4929494911299898,-0.41283102235293073 l 10.390850441856008 12.626622184590286" fill="#ffc512" stroke="none" /><path d="M 86.65592168130627 83.78471172551755 l -15.212666827902934 -18.48593601946501 a44.94065710319022,44.94065710319022 0 0,0 0.6015555227611863,-0.4864160640237338 l 14.892207906577246 18.74505818075288" fill="#daff1b" stroke="none" /><path d="M 87.22198572758235 83.33499621200491 l -9.502340113953604 -12.39289068064977 a36.61660036831921,36.61660036831921 0 0,0 0.5034849615544823,-0.3792144347049168 l 9.287608998640732 12.554621704860542" fill="#ffbb11" stroke="none" /><path d="M 87.51073957382395 83.11751280151077 l -9.14687060337544 -12.364377120687859 a36.37995654797123,36.37995654797123 0 0,0 0.5066423182523855,-0.36809719069758584 l 8.932682968769273 12.519993546202112" fill="#ffb811" stroke="none" /><path d="M 87.80319425747018 82.90503203632743 l -18.131066452777308 -25.412391301491496 a52.217386219463464,52.217386219463464 0 0,0 0.7361877158055443,-0.5157465415793311 l 17.690947597388103 25.72072268583477" fill="#87ff25" stroke="none" /><path d="M 88.39885842347998 82.49532879139004 l -6.840288146280548 -10.321139017485415 a33.382061724220485,33.382061724220485 0 0,0 0.48170787855919245,-0.3133162037912698 l 6.661613241937069 10.43735414543622" fill="#ff900d" stroke="none" /><path d="M 88.70189139769569 82.29822771554957 l -6.239380348902766 -9.775803545544349 a32.59724976446362,32.59724976446362 0 0,0 0.47557966729381385,-0.297807944029625 l 6.07018152923671 9.881755830896903" fill="#ff850c" stroke="none" /><path d="M 89.00827224532344 82.1063720568725 l -4.109734480691273 -6.690309420304221 a28.851761435575725,28.851761435575725 0 0,0 0.4254095141377609,-0.2563044723284622 l 3.9939629003358625 6.760060502091303" fill="#ff5107" stroke="none" /><line stroke="#e1ed5e" stroke-width="0.3" x1="56.762969772571076" x2="54.21961505331055" y1="26.818313649435495" y2="22.513508569990535" /><path d="M 56.25429882871897 25.957352633546506 a86.0,86.0 0 0,1 42.265352541879196,-11.944610805530505" fill="none" id="id60" stroke="none" /><text fill="#e1ed5e" style="font-size:6.75px; font-family:Arial;" text-anchor="middle"><textPath startOffset="22.20632615414155" xlink:href="#id60">December</textPath></text><path d="M 89.94658935756843 81.56283822128135 l -30.16023192729471 -55.31148533615593 a84.0,84.0 0 0,0 1.2754198138867787,-0.6812850939930022 l 29.20366706687963 55.822449156650684" fill="#4dd2ff" stroke="none" /><path d="M 90.91171255644093 81.06846463323043 l -4.7447214994210976 -9.883585156125527 a31.963468321906788,31.963468321906788 0 0,0 0.4980544417791734,-0.23384323859627223 l 4.5738888463423155 9.963793377361807" fill="#ff7d0b" stroke="none" /><path d="M 91.23893434514133 80.91482961587045 l -6.589954706864757 -14.355606196657275 a36.795915051431294,36.795915051431294 0 0,0 0.5779024167304572,-0.259287968935842 l 6.341870171667526 14.466914496109645" fill="#ffbe11" stroke="none" /><path d="M 91.90106846888425 80.62456947434976 l -7.028350589230495 -16.814232597023544 a39.22405360593372,39.22405360593372 0 0,0 0.625186830573146,-0.25502940569724103 l 6.737879889068969 16.932722888904365" fill="#ffdd14" stroke="none" /><path d="M 92.23578459929587 80.48803036053334 l -7.55815900239546 -18.994136738095566 a41.442675899474686,41.442675899474686 0 0,0 0.6650894983611976,-0.25804439257883416 l 7.230086339034586 19.12142383456495" fill="#fff917" stroke="none" /><path d="M 92.91201910852362 80.23233633223022 l -5.382026492792578 -15.009928947253396 a36.945663240226686,36.945663240226686 0 0,0 0.600486654081282,-0.20949800274443067 l 5.122857834648011 15.100347803170036" fill="#ffc011" stroke="none" /><path d="M 93.59665428221793 80.00007090966166 l -4.8717532766141805 -15.216220452900282 a36.977088122040946,36.977088122040946 0 0,0 0.607858652109186,-0.18886464211462334 l 4.609109251794266 15.29782522989743" fill="#ffc011" stroke="none" /><path d="M 93.94186890950719 79.89281104454417 l -4.394158134555642 -14.584393535214218 a36.23197822022733,36.23197822022733 0 0,0 0.5987071844595633,-0.17477904477573034 l 4.142460732372657 14.657870908908647" fill="#ffb610" stroke="none" /><path d="M 94.63758080256005 79.69619591428918 l -4.782608302459781 -18.108457846450342 a39.729377665886986,39.729377665886986 0 0,0 0.6627070406874722,-0.16893878045901864 l 4.47019237308731 18.188099623078227" fill="#ffe315" stroke="none" /><path d="M 94.98787191387505 79.60689891045804 l -1.1850265999067011 -4.821578146135809 a25.965068364260542,25.965068364260542 0 0,0 0.4349474293783486,-0.10293800394602089 l 1.1018554835658185 4.8412620622227" fill="#ff2803" stroke="none" /><path d="M 95.33964822691252 79.52364482259891 l -2.707719140519654 -11.897002960614676 a33.20124675550867,33.20124675550867 0 0,0 0.558345802803914,-0.12203276647207711 l 2.502530613562219 11.94184922518262" fill="#ff8e0d" stroke="none" /><path d="M 95.692805502759 79.44645832069477 l -2.74154796078772 -13.082418338423995 a34.366590994072936,34.366590994072936 0 0,0 0.5800321066858878,-0.11634898394243554 l 2.5159494446346957 13.127671278443641" fill="#ff9d0e" stroke="none" /><path d="M 96.04723909329186 79.375362276772 l -1.4876426705853918 -7.76219251975733 a28.903462116637435,28.903462116637435 0 0,0 0.4894386736044746,-0.08944178918794835 l 1.353808875878024 7.786649790296015" fill="#ff5207" stroke="none" /><path d="M 96.40284397218896 79.31037775812273 l -2.082628299319171 -11.978572085842393 a33.158270018750514,33.158270018750514 0 0,0 0.5631707852689968,-0.09292800500287582 l 1.8761283079112883 12.012646353784895" fill="#ff8d0d" stroke="none" /><path d="M 96.75951476605007 79.25152402106235 l -4.113079241216519 -26.335600897592894 a47.654855007705855,47.654855007705855 0 0,0 0.8115644944728931,-0.11960351025787472 l 3.659145766314977 26.40249889201174" fill="#baff1f" stroke="none" /><path d="M 97.83486435360386 79.11191278185805 l -0.7974572463900951 -7.6934470794297285 a28.73466651018684,28.73466651018684 0 0,0 0.49242306945037767,-0.04676150388207203 l 0.664909049849481 7.706034127826981" fill="#ff5007" stroke="none" /><path d="M 98.55514903715128 79.0497635885617 l -0.5744529753899382 -8.329527370729577 a29.349312692711152,29.349312692711152 0 0,0 0.5043021838096733,-0.03042088491692369 l 0.4309887427406419 8.338181525026808" fill="#ff5808" stroke="none" /></svg>