<?xml version="1.0" encoding="utf-8" ?>
<svg baseProfile="full" height="200mm" version="1.1" viewBox="0,0,200,200" width="200mm" xmlns="http://www.w3.org/2000/svg" xmlns:ev="http://www.w3.org/2001/xml-events" xmlns:xlink="http://www.w3.org/1999/xlink"><defs /><rect fill="#1a1a1a" height="200" width="200" x="0" y="0" /><rect fill="#1a1a1a" height="200" width="180" x="10" y="0" /><text alignment-baseline="middle" fill="#e1ed5e" style="dominant-baseline: central; font-size:9.0px; font-family:Arial;" text-anchor="middle" x="100.0" y="100.0">2020</text><line stroke="#e1ed5e" stroke-width="0.3" x1="100.0" x2="100.0" y1="15.0" y2="10.0" /><path d="M 100.0 14.0 a86.0,86.0 0 0,1 42.35913384403234,11.155469271406648" fill="none" id="id13" stroke="none" /><text fill="#e1ed5e" style="font-size:6.75px; font-family:Arial;" text-anchor="middle"><textPath startOffset="22.145653131862478" xlink:href="#id13">January</textPath></text><path d="M 101.08105385017728 79.02784411241856 l 0.468411092853351 -9.087050064325597 a30.099114672508964,30.099114672508964 0 0,0 0.5157779243197629,0.031027919137505723 l -0.6243333693055763 9.0776701673634" fill="#ff5708" stroke="none" /><path d="M 103.58742460773223 79.30868818359171 l 1.7443767596027 -10.061101599303473 a31.21120050096701,31.21120050096701 0 0,0 0.5271204162793787,0.09605889915103637 l -1.9168319094331323 10.02967452622107" fill="#ff6709" stroke="none" /><path d="M 104.9986988182912 79.60360301121754 l 1.4804989457641782 -6.040940920221888 a27.21971416787139,27.21971416787139 0 0,0 0.4528773357224763,0.11511964777760846 l -1.583981574712049 6.014636040609012" fill="#ff2d04" stroke="none" /><line stroke="#e1ed5e" stroke-width="0.3" x1="143.13028292997686" x2="145.6673583964461" y1="26.7553504044142" y2="22.446841604673864" /><path d="M 143.63769802327073 25.89364864446614 a86.0,86.0 0 0,1 29.32050498858742,28.57503671076993" fill="none" id="id14" stroke="none" /><text fill="#e1ed5e" style="font-size:6.75px; font-family:Arial;" text-anchor="middle"><textPath startOffset="20.669276256404974" xlink:href="#id14">February</textPath></text><line stroke="#e1ed5e" stroke-width="0.3" x1="172.87174338648825" x2="177.1583165268699" y1="56.24261187166439" y2="53.66864786411523" /><path d="M 173.72905801456457 55.72781907015455 a86.0,86.0 0 0,1 12.242430191666344,42.057860355516425" fill="none" id="id15" stroke="none" /><text fill="#e1ed5e" style="font-size:6.75px; font-family:Arial;" text-anchor="middle"><textPath startOffset="22.145653131862474" xlink:href="#id15">March</textPath></text><path d="M 120.65975698304385 96.23510406497455 l 7.643994869170327 -1.3929905000293341 a28.76988288798964,28.76988288798964 0 0,0 0.0843713565897089,0.48663156399393054 l -7.6667810432522705 1.2615659031148108" fill="#ff4406" stroke="none" /><path d="M 120.82617615685814 97.30363454192243 l 6.123891465130935 -0.7928603547395598 a27.17500398532837,27.17500398532837 0 0,0 0.055926046577677045,0.46314789314192745 l -6.136599597968276 0.6876187846742194" fill="#ff2c04" stroke="none" /><line stroke="#e1ed5e" stroke-width="0.3" x1="184.99686870605535" x2="189.99668451229388" y1="99.2704041080226" y2="99.22748670261217" /><path d="M 185.99683186730306 99.26182062694052 a86.0,86.0 0 0,1 -10.086455211305974,41.156179273409016" fill="none" id="id16" stroke="none" /><text fill="#e1ed5e" style="font-size:6.75px; font-family:Arial;" text-anchor="middle"><textPath startOffset="21.40746469413373" xlink:href="#id16">April</textPath></text><path d="M 120.65975698304385 103.76489593502545 l 7.344211930745762 1.3383600623532776 a28.46516286093014,28.46516286093014 0 0,0 -0.09173062436149153,0.47997338833163433 l -7.320155014102111 -1.4642360157182264" fill="#ff3f05" stroke="none" /><path d="M 119.31412917781788 108.2440532568976 l 7.0772473161746525 3.020856040136072 a28.69499842686975,28.69499842686975 0 0,0 -0.19726597754364109,0.45138316133893075 l -7.024347456614046 -3.1419012712508474" fill="#ff4306" stroke="none" /><line stroke="#e1ed5e" stroke-width="0.3" x1="174.33088141563837" x2="178.70328620479359" y1="141.23008692659167" y2="143.65538615756765" /><path d="M 175.20536237346943 141.71514677278685 a86.0,86.0 0 0,1 -30.301960400862466,31.631185727798858" fill="none" id="id17" stroke="none" /><text fill="#e1ed5e" style="font-size:6.75px; font-family:Arial;" text-anchor="middle"><textPath startOffset="22.145653131862474" xlink:href="#id17">May</textPath></text><path d="M 116.35404254752997 113.17365903436017 l 5.99974523170949 4.832970058984384 a28.704189927335662,28.704189927335662 0 0,0 -0.3124016147176721,0.3810791741635374 l -5.91589679775319 -4.9352515148464144" fill="#ff4306" stroke="none" /><path d="M 115.16444852881244 114.52719865689866 l 5.800000452920708 5.556269232579848 a29.03194453658601,29.03194453658601 0 0,0 -0.3478485920791788,0.3569232992616446 l -5.7037650596907215 -5.65501522390923" fill="#ff4806" stroke="none" /><path d="M 114.91283532996324 114.78537596483092 l 5.751313139709932 5.702156912524096 a29.098900930746495,29.098900930746495 0 0,0 -0.35474065493375184,0.3517087017428219 l -5.6525805646462155 -5.80004562449558" fill="#ff4906" stroke="none" /><path d="M 114.13192950727249 115.5334660781643 l 2.1541941307364216 2.3678367089472645 a24.201125276076752,24.201125276076752 0 0,0 -0.3096994643766932,0.2769351707473045 l -2.1132296395363506 -2.404467409577956" fill="#ff0000" stroke="none" /><path d="M 113.03279911837588 116.46651593811092 l 4.813858116310688 6.082152473620934 a28.756662212340018,28.756662212340018 0 0,0 -0.3897076233864674,0.3030390050708058 l -4.70874054828899 -6.163892530312533" fill="#ff4406" stroke="none" /><path d="M 112.16784306229584 117.11559508785304 l 3.7286739599355077 5.244846879282184 a27.435171193264186,27.435171193264186 0 0,0 -0.38618910853415184,0.26958999071447814 l -3.6380897602275972 -5.308081685801784" fill="#ff3004" stroke="none" /><path d="M 111.27062007382361 117.71928675628689 l 4.348426809335289 6.83644919877046 a29.102212868316602,29.102212868316602 0 0,0 -0.4238333631775609,0.26450336520280504 l -4.230429317368014 -6.910088360814813" fill="#ff4906" stroke="none" /><line stroke="#e1ed5e" stroke-width="0.3" x1="143.1302829299769" x2="145.66735839644613" y1="173.24464959558577" y2="177.55315839532614" /><path d="M 143.63769802327073 174.10635135553383 a86.0,86.0 0 0,1 -40.68552437913181,11.842963189579606" fill="none" id="id18" stroke="none" /><text fill="#e1ed5e" style="font-size:6.75px; font-family:Arial;" text-anchor="middle"><textPath startOffset="21.407464694133747" xlink:href="#id18">June</textPath></text><path d="M 110.02825361518725 118.45085714620011 l 2.95844947010136 5.443213807878187 a27.195240094251293,27.195240094251293 0 0,0 -0.4120871216838428,0.21941318139721186 l -2.8645735326309634 -5.493197456997967" fill="#ff2d04" stroke="none" /><path d="M 107.74402155503746 119.51999308798841 l 2.2376525815486796 5.640346248356784 a27.06799760028495,27.06799760028495 0 0,0 -0.4333815043797326,0.16764127598915762 l -2.140498814675418 -5.6779274124839825" fill="#ff2b04" stroke="none" /><path d="M 106.72888874123015 119.89276391827305 l 20.186666223690434 59.678291754819156 a84.0,84.0 0 0,0 -1.369909049409063,0.4503163143919231 l -19.159234436633636 -60.016028990613094" fill="#4dd2ff" stroke="none" /><line stroke="#e1ed5e" stroke-width="0.3" x1="101.45913802915013" x2="101.54496967792366" y1="184.9874750549273" y2="189.98673829345242" /><path d="M 101.47630435890484 185.9873277026323 a86.0,86.0 0 0,1 -42.54439059252881,-10.42667462771756" fill="none" id="id19" stroke="none" /><text fill="#e1ed5e" style="font-size:6.75px; font-family:Arial;" text-anchor="middle"><textPath startOffset="22.145653131862474" xlink:href="#id19">July</textPath></text><line stroke="#e1ed5e" stroke-width="0.3" x1="58.13341422392154" x2="55.67067388415222" y1="173.97424548756322" y2="178.32567169271397" /><path d="M 57.64086615596768 174.84453072859336 a86.0,86.0 0 0,1 -31.369924170532247,-30.572349798747897" fill="none" id="id20" stroke="none" /><text fill="#e1ed5e" style="font-size:6.75px; font-family:Arial;" text-anchor="middle"><textPath startOffset="22.145653131862474" xlink:href="#id20">August</textPath></text><path d="M 83.8745106332314 113.45245675266167 l -5.288764458575349 4.4120754127697035 a27.887484224755564,27.887484224755564 0 0,0 -0.3035130106190674,-0.3702365224300505 l 5.363724288433046 -4.320636608641158" fill="#ff3705" stroke="none" /><path d="M 82.37810715431573 111.42229804090323 l -6.489273899968004 4.2062689407762495 a28.733264133012973,28.733264133012973 0 0,0 -0.26473229864658915,-0.416203144338492 l 6.560523890240483 -4.0942521217590855" fill="#ff4306" stroke="none" /><line stroke="#e1ed5e" stroke-width="0.3" x1="26.387840678322732" x2="22.057713659400548" y1="142.50000000000003" y2="145.00000000000006" /><path d="M 25.521815274538298 143.00000000000003 a86.0,86.0 0 0,1 -11.493303480769221,-40.785679425670985" fill="none" id="id21" stroke="none" /><text fill="#e1ed5e" style="font-size:6.75px; font-family:Arial;" text-anchor="middle"><textPath startOffset="21.40746469413373" xlink:href="#id21">September</textPath></text><path d="M 81.1358732173502 109.22738970284198 l -55.939715612224944 27.362918080836085 a83.27343790634293,83.27343790634293 0 0,0 -0.6170987713911562,-1.289499091295263 l 56.40119364157601 -26.398606487475718" fill="#4cd9ff" stroke="none" /><path d="M 80.9802524753101 108.90220220490708 l -13.93802566593064 6.52369978382887 a36.38919160754294,36.38919160754294 0 0,0 -0.25994971678559314,-0.568037044631112 l 14.047959847571288 -6.283473756983069" fill="#ffae10" stroke="none" /><path d="M 79.0935383218832 101.97986365728391 l -9.877516510910848 0.9354110831984531 a30.921709848503276,30.921709848503276 0 0,0 -0.04550847768613459,-0.5288774931780517 l 9.892118611294723 -0.7657125426447395" fill="#ff6309" stroke="none" /><line stroke="#e1ed5e" stroke-width="0.3" x1="15.003131293944662" x2="10.003315487706104" y1="100.72959589197737" y2="100.7725132973878" /><path d="M 14.003168132696942 100.73817937305945 a86.0,86.0 0 0,1 10.791469493833604,-42.45332614584628" fill="none" id="id22" stroke="none" /><text fill="#e1ed5e" style="font-size:6.75px; font-family:Arial;" text-anchor="middle"><textPath startOffset="22.145653131862435" xlink:href="#id22">October</textPath></text><path d="M 79.00077361379809 100.18025310272382 l -7.656687149518105 0.06572345046925673 a28.656969222710593,28.656969222710593 0 0,0 0.0,-0.49195310638614576 l 7.656687149518105 0.06572345046925392" fill="#ff4206" stroke="none" /><path d="M 79.13060592940154 97.66154086499901 l -5.424657838777744 -0.6078442255885191 a26.458606715123754,26.458606715123754 0 0,0 0.054451703938265664,-0.4509382211018486 l 5.41342404857981 0.700876123613804" fill="#ff2203" stroke="none" /><path d="M 79.73907114497095 94.47779374421319 l -9.382479902135893 -2.557236619362018 a30.72473075418492,30.72473075418492 0 0,0 0.1430624049403174,-0.5076780053293127 l 9.337199005120993 2.717922548594344" fill="#ff6008" stroke="none" /><path d="M 80.68587082218212 91.75594674310238 l -7.38333408312961 -3.1515062799049147 a29.027802564549248,29.027802564549248 0 0,0 0.19955386522960022,-0.45661829610133253 l 7.328146335883033 3.277786645782114" fill="#ff4806" stroke="none" /><line stroke="#e1ed5e" stroke-width="0.3" x1="26.387840678322718" x2="22.05771365940052" y1="57.49999999999999" y2="54.99999999999999" /><path d="M 25.521815274538284 56.99999999999999 a86.0,86.0 0 0,1 29.574782752854787,-30.34633250058573" fill="none" id="id23" stroke="none" /><text fill="#e1ed5e" style="font-size:6.75px; font-family:Arial;" text-anchor="middle"><textPath startOffset="21.40746469413373" xlink:href="#id23">November</textPath></text><path d="M 83.2033758604659 87.39550010848427 l -5.88417136598998 -4.4155918908558665 a28.35669249125777,28.35669249125777 0 0,0 0.2955145752611305,-0.3868380651621238 l 5.807504813374543 4.515950869258875" fill="#ff3e05" stroke="none" /><line stroke="#e1ed5e" stroke-width="0.3" x1="56.869717070023135" x2="54.33264160355391" y1="26.7553504044142" y2="22.446841604673864" /><path d="M 56.362301976729285 25.89364864446614 a86.0,86.0 0 0,1 42.16139366436587,-11.88097634709845" fill="none" id="id24" stroke="none" /><text fill="#e1ed5e" style="font-size:6.75px; font-family:Arial;" text-anchor="middle"><textPath startOffset="22.145653131862474" xlink:href="#id24">December</textPath></text></svg>